<svg xmlns="http://www.w3.org/2000/svg" viewBox="150 445 145 170" fill="#0b55f4">
  <g transform="matrix(4.7129524 0 0 4.7129524 -7943.4244 217.42444)">
    <g stroke-linecap="round" stroke-width=".212181">
      <path d="m1722.5613 59.349826c-1.3737 0-2.5054 1.131705-2.5054 2.505429v15.405539c0 1.373724 1.1317 2.505429 2.5054 2.505429h15.4048c1.3737 0 2.5062-1.131705 2.5062-2.505429v-15.405539c0-1.373724-1.1325-2.505429-2.5062-2.505429zm2.1589 4.26999h9.9842a1.4997255 1.4997255 0 0 1 1.4998 1.499609v9.983278c.0001.987824-.8007 1.788595-1.7885 1.788555-.9878.00004-1.7885-.800731-1.7885-1.788555v-5.376804l-6.6417 6.642066c-.6985.698798-1.8312.698798-2.5298 0-.6986-.698512-.6986-1.831115 0-2.529545l6.6424-6.64174h-5.3779c-.9877.000041-1.7884-.800608-1.7885-1.78835 0-.987784.8008-1.788555 1.7885-1.788514z"/>
      <path d="m1726.1759 55.712691c-.6793 0-1.3393.228063-1.8123.692065-.473.463961-.7204 1.134276-.7204 1.840541v1.104529h1.73v-1.104529c0-.332118.09-.495912.202-.606046.1122-.110094.2864-.196684.6007-.196684h9.6944a.86490485.86490485 0 0 0 .8648-.864917.86490485.86490485 0 0 0-.8648-.864959zm17.0197 7.33609a.86490485.86490485 0 0 0-.8656.864428v9.70029c-.0002.45988-.3433.802893-.8027.802893h-1.0516v1.729713h1.0516c1.3878 0 2.5321-1.144355 2.5326-2.531872v-9.700494a.86490485.86490485 0 0 0-.8643-.864958z"/>
    </g>
    <path d="m1743.0413 60.508789-.4957-2.201957c-.1125-.499543-.5009-.890544-.9997-1.006269l-2.2389-.519415c-.1983-.0453-.1983-.327792 0-.373128l2.202-.495585c.4995-.112501.8905-.500971 1.0062-.999699l.5194-2.238927c.046-.198234.3285-.197336.3732 0l.4956 2.201957c.1124.499544.5009.890544.9997 1.006269l2.2389.519416c.1982.0457.1976.328241 0 .373127l-2.202.495585c-.4995.112502-.8905.500972-1.0062.999699l-.5195 2.238927c-.046.198234-.3284.197337-.3731 0z" stroke-width=".848723"/>
  </g>
</svg>
