<?xml version="1.0" encoding="UTF-8" standalone="no"?>
<!DOCTYPE svg PUBLIC "-//W3C//DTD SVG 1.1//EN" "http://www.w3.org/Graphics/SVG/1.1/DTD/svg11.dtd">
<svg xmlns="http://www.w3.org/2000/svg" version="1.1" viewBox="0.00 0.00 32.00 32.00">
<g stroke-width="2.00" fill="none" stroke-linecap="butt">
<path stroke="#9c9057" vector-effect="non-scaling-stroke" d="
  M 20.37 8.20
  Q 20.78 10.51 20.31 11.42
  Q 18.56 14.81 15.43 17.68
  A 3.34 3.16 -76.8 0 1 14.64 18.20
  L 9.33 20.55
  A 0.79 0.79 0.0 0 0 9.09 21.83
  Q 10.27 22.98 11.78 23.08
  Q 17.96 23.48 21.80 18.25
  Q 24.95 13.95 22.03 10.31
  Q 21.67 9.86 21.96 8.43
  A 0.77 0.73 36.5 0 0 21.86 7.86
  Q 21.66 7.55 20.82 7.61
  A 0.50 0.50 0.0 0 0 20.37 8.20"
/>
<path stroke="#9c9057" vector-effect="non-scaling-stroke" d="
  M 21.21 12.48
  L 17.82 16.67
  A 0.98 0.98 0.0 0 0 17.74 17.79
  Q 18.36 18.84 16.88 20.10
  A 0.30 0.29 -43.0 0 0 16.86 20.53
  L 17.06 20.73
  A 0.18 0.18 0.0 0 0 17.32 20.73
  L 21.18 16.87
  A 0.48 0.48 0.0 0 0 20.92 16.05
  Q 20.36 15.95 20.30 15.60
  A 0.85 0.82 -32.4 0 1 20.45 14.99
  Q 21.38 13.69 21.50 12.60
  A 0.16 0.16 0.0 0 0 21.21 12.48"
/>
<path stroke="#c7b86a" vector-effect="non-scaling-stroke" d="
  M 13.63 20.59
  Q 12.75 20.89 11.76 21.01
  A 0.23 0.09 -7.5 0 0 11.54 21.13
  Q 11.57 21.21 11.59 21.27
  A 0.43 0.19 -9.5 0 0 12.02 21.38
  Q 12.91 21.25 13.76 20.96
  Q 14.60 20.66 15.38 20.21
  A 0.43 0.19 -28.9 0 0 15.65 19.86
  Q 15.63 19.80 15.60 19.71
  A 0.23 0.09 -31.0 0 0 15.36 19.76
  Q 14.51 20.28 13.63 20.59"
/>
</g>
<path fill="#3c3c3c" d="
  M 32.00 0.00
  L 32.00 32.00
  L 0.00 32.00
  L 0.00 0.00
  L 32.00 0.00
  Z
  M 20.37 8.20
  Q 20.78 10.51 20.31 11.42
  Q 18.56 14.81 15.43 17.68
  A 3.34 3.16 -76.8 0 1 14.64 18.20
  L 9.33 20.55
  A 0.79 0.79 0.0 0 0 9.09 21.83
  Q 10.27 22.98 11.78 23.08
  Q 17.96 23.48 21.80 18.25
  Q 24.95 13.95 22.03 10.31
  Q 21.67 9.86 21.96 8.43
  A 0.77 0.73 36.5 0 0 21.86 7.86
  Q 21.66 7.55 20.82 7.61
  A 0.50 0.50 0.0 0 0 20.37 8.20
  Z"
/>
<path fill="#fce372" d="
  M 20.82 7.61
  Q 21.66 7.55 21.86 7.86
  A 0.77 0.73 36.5 0 1 21.96 8.43
  Q 21.67 9.86 22.03 10.31
  Q 24.95 13.95 21.80 18.25
  Q 17.96 23.48 11.78 23.08
  Q 10.27 22.98 9.09 21.83
  A 0.79 0.79 0.0 0 1 9.33 20.55
  L 14.64 18.20
  A 3.34 3.16 -76.8 0 0 15.43 17.68
  Q 18.56 14.81 20.31 11.42
  Q 20.78 10.51 20.37 8.20
  A 0.50 0.50 0.0 0 1 20.82 7.61
  Z
  M 21.21 12.48
  L 17.82 16.67
  A 0.98 0.98 0.0 0 0 17.74 17.79
  Q 18.36 18.84 16.88 20.10
  A 0.30 0.29 -43.0 0 0 16.86 20.53
  L 17.06 20.73
  A 0.18 0.18 0.0 0 0 17.32 20.73
  L 21.18 16.87
  A 0.48 0.48 0.0 0 0 20.92 16.05
  Q 20.36 15.95 20.30 15.60
  A 0.85 0.82 -32.4 0 1 20.45 14.99
  Q 21.38 13.69 21.50 12.60
  A 0.16 0.16 0.0 0 0 21.21 12.48
  Z
  M 13.63 20.59
  Q 12.75 20.89 11.76 21.01
  A 0.23 0.09 -7.5 0 0 11.54 21.13
  Q 11.57 21.21 11.59 21.27
  A 0.43 0.19 -9.5 0 0 12.02 21.38
  Q 12.91 21.25 13.76 20.96
  Q 14.60 20.66 15.38 20.21
  A 0.43 0.19 -28.9 0 0 15.65 19.86
  Q 15.63 19.80 15.60 19.71
  A 0.23 0.09 -31.0 0 0 15.36 19.76
  Q 14.51 20.28 13.63 20.59
  Z"
/>
<path fill="#3c3c3c" d="
  M 21.50 12.60
  Q 21.38 13.69 20.45 14.99
  A 0.85 0.82 -32.4 0 0 20.30 15.60
  Q 20.36 15.95 20.92 16.05
  A 0.48 0.48 0.0 0 1 21.18 16.87
  L 17.32 20.73
  A 0.18 0.18 0.0 0 1 17.06 20.73
  L 16.86 20.53
  A 0.30 0.29 -43.0 0 1 16.88 20.10
  Q 18.36 18.84 17.74 17.79
  A 0.98 0.98 0.0 0 1 17.82 16.67
  L 21.21 12.48
  A 0.16 0.16 0.0 0 1 21.50 12.60
  Z"
/>
<path fill="#918c62" d="
  M 13.76 20.96
  Q 12.91 21.25 12.02 21.38
  A 0.43 0.19 -9.5 0 1 11.59 21.27
  Q 11.57 21.21 11.54 21.13
  A 0.23 0.09 -7.5 0 1 11.76 21.01
  Q 12.75 20.89 13.63 20.59
  Q 14.51 20.28 15.36 19.76
  A 0.23 0.09 -31.0 0 1 15.60 19.71
  Q 15.63 19.80 15.65 19.86
  A 0.43 0.19 -28.9 0 1 15.38 20.21
  Q 14.60 20.66 13.76 20.96
  Z"
/>
</svg>
