<svg width="26" height="26" viewBox="0 0 26 26" fill="none" xmlns="http://www.w3.org/2000/svg">
<path d="M20.3477 5.08691C21.5963 5.08691 22.6093 6.09907 22.6094 7.34766V13.1611L22.5986 13.1426C21.8079 11.8474 19.8707 11.891 19.1562 13.2725L18.1143 15.2881L16.0986 16.3301C14.6727 17.0675 14.6728 19.1072 16.0986 19.8447L18.1143 20.8867L18.1279 20.9131H5.65234C4.40383 20.913 3.39172 19.9008 3.3916 18.6523V7.34766C3.39167 6.09911 4.4038 5.08698 5.65234 5.08691H20.3477ZM16.8779 17.8369V17.8359L17.2324 17.6523L19.293 16.5879L16.8779 17.8369ZM11.8994 9.66211C11.5237 9.41421 11.0227 9.68375 11.0225 10.1338V15.8652C11.0225 16.3155 11.5236 16.5849 11.8994 16.3369L16.2422 13.4717C16.5802 13.2482 16.5804 12.7507 16.2422 12.5273L11.8994 9.66211Z" fill="white"/>
<path d="M20.6623 14.0507C20.7676 13.847 21.059 13.847 21.1644 14.0507L22.4131 16.4659C22.44 16.5179 22.4824 16.5602 22.5344 16.5871L24.9496 17.8359C25.1533 17.9412 25.1533 18.2326 24.9496 18.338L22.5344 19.5867C22.4824 19.6136 22.44 19.656 22.4131 19.708L21.1644 22.1231C21.059 22.3269 20.7676 22.3269 20.6623 22.1231L19.4135 19.708C19.3867 19.656 19.3443 19.6136 19.2923 19.5867L16.8771 18.338C16.6734 18.2326 16.6734 17.9412 16.8771 17.8359L19.2923 16.5871C19.3443 16.5602 19.3867 16.5179 19.4135 16.4659L20.6623 14.0507Z" fill="white"/>
</svg>
