<?xml version="1.0" encoding="UTF-8" standalone="no"?>
<!DOCTYPE svg PUBLIC "-//W3C//DTD SVG 1.1//EN" "http://www.w3.org/Graphics/SVG/1.1/DTD/svg11.dtd">
<svg xmlns="http://www.w3.org/2000/svg" version="1.1" viewBox="0.00 0.00 48.00 48.00">
<g stroke-width="2.00" fill="none" stroke-linecap="butt">
<path stroke="#96e6de" vector-effect="non-scaling-stroke" d="
  M 5.17 0.00
  Q -0.32 -0.52 0.00 4.59"
/>
<path stroke="#96e6de" vector-effect="non-scaling-stroke" d="
  M 38.99 0.00
  Q 41.74 0.13 44.49 0.10
  Q 47.44 0.07 48.00 2.92"
/>
<path stroke="#96e6de" vector-effect="non-scaling-stroke" d="
  M 48.00 46.33
  Q 47.51 47.76 46.20 48.00"
/>
<path stroke="#96e6de" vector-effect="non-scaling-stroke" d="
  M 1.75 48.00
  Q -0.03 47.41 0.00 45.76"
/>
<path stroke="#96e6de" vector-effect="non-scaling-stroke" d="
  M 0.00 33.84
  L 0.00 19.04"
/>
<path stroke="#96e6de" vector-effect="non-scaling-stroke" d="
  M 0.00 18.87
  Q 0.17 18.39 0.00 18.00"
/>
<path stroke="#96e6de" vector-effect="non-scaling-stroke" d="
  M 24.09 12.15
  Q 24.74 12.15 24.99 12.81
  Q 27.56 19.64 35.59 42.15
  A 3.25 3.25 0.0 0 0 39.37 44.23
  L 39.48 44.21
  A 2.64 2.64 0.0 0 0 41.38 40.75
  Q 35.38 23.91 30.11 9.17
  Q 28.35 4.28 24.09 4.28
  Q 19.82 4.28 18.08 9.17
  Q 12.81 23.91 6.81 40.76
  A 2.64 2.64 0.0 0 0 8.71 44.22
  L 8.82 44.24
  A 3.25 3.25 0.0 0 0 12.60 42.15
  Q 20.62 19.64 23.19 12.81
  Q 23.44 12.15 24.09 12.15"
/>
<path stroke="#96e6de" vector-effect="non-scaling-stroke" d="
  M 20.1547 30.4585
  A 3.92 3.75 -177.2 0 0 23.8868 34.3955
  A 3.92 3.75 -177.2 0 0 27.9853 30.8415
  A 3.92 3.75 -177.2 0 0 24.2532 26.9045
  A 3.92 3.75 -177.2 0 0 20.1547 30.4585"
/>
</g>
<path fill="#ffffff" d="
  M 5.17 0.00
  Q -0.32 -0.52 0.00 4.59
  L 0.00 0.00
  L 5.17 0.00
  Z"
/>
<path fill="#2dcdbc" d="
  M 38.99 0.00
  Q 41.74 0.13 44.49 0.10
  Q 47.44 0.07 48.00 2.92
  L 48.00 46.33
  Q 47.51 47.76 46.20 48.00
  L 1.75 48.00
  Q -0.03 47.41 0.00 45.76
  L 0.00 33.84
  L 0.00 19.04
  Q 0.02 18.95 0.00 18.87
  Q 0.17 18.39 0.00 18.00
  L 0.00 4.59
  Q -0.32 -0.52 5.17 0.00
  L 38.99 0.00
  Z
  M 24.09 12.15
  Q 24.74 12.15 24.99 12.81
  Q 27.56 19.64 35.59 42.15
  A 3.25 3.25 0.0 0 0 39.37 44.23
  L 39.48 44.21
  A 2.64 2.64 0.0 0 0 41.38 40.75
  Q 35.38 23.91 30.11 9.17
  Q 28.35 4.28 24.09 4.28
  Q 19.82 4.28 18.08 9.17
  Q 12.81 23.91 6.81 40.76
  A 2.64 2.64 0.0 0 0 8.71 44.22
  L 8.82 44.24
  A 3.25 3.25 0.0 0 0 12.60 42.15
  Q 20.62 19.64 23.19 12.81
  Q 23.44 12.15 24.09 12.15
  Z
  M 20.1547 30.4585
  A 3.92 3.75 -177.2 0 0 23.8868 34.3955
  A 3.92 3.75 -177.2 0 0 27.9853 30.8415
  A 3.92 3.75 -177.2 0 0 24.2532 26.9045
  A 3.92 3.75 -177.2 0 0 20.1547 30.4585
  Z"
/>
<path fill="#ffffff" d="
  M 48.00 0.00
  L 48.00 2.92
  Q 47.44 0.07 44.49 0.10
  Q 41.74 0.13 38.99 0.00
  L 48.00 0.00
  Z"
/>
<path fill="#ffffff" d="
  M 24.09 4.28
  Q 28.35 4.28 30.11 9.17
  Q 35.38 23.91 41.38 40.75
  A 2.64 2.64 0.0 0 1 39.48 44.21
  L 39.37 44.23
  A 3.25 3.25 0.0 0 1 35.59 42.15
  Q 27.56 19.64 24.99 12.81
  Q 24.74 12.15 24.09 12.15
  Q 23.44 12.15 23.19 12.81
  Q 20.62 19.64 12.60 42.15
  A 3.25 3.25 0.0 0 1 8.82 44.24
  L 8.71 44.22
  A 2.64 2.64 0.0 0 1 6.81 40.76
  Q 12.81 23.91 18.08 9.17
  Q 19.82 4.28 24.09 4.28
  Z"
/>
<path fill="#ffffff" d="
  M 0.00 18.87
  L 0.00 18.00
  Q 0.17 18.39 0.00 18.87
  Z"
/>
<path fill="#ffffff" d="
  M 0.00 33.84
  L 0.00 19.04
  L 0.00 33.84
  Z"
/>
<ellipse fill="#ffffff" cx="0.00" cy="0.00" transform="translate(24.07,30.65) rotate(-177.2)" rx="3.92" ry="3.75"/>
<path fill="#ffffff" d="
  M 1.75 48.00
  L 0.00 48.00
  L 0.00 45.76
  Q -0.03 47.41 1.75 48.00
  Z"
/>
<path fill="#ffffff" d="
  M 48.00 46.33
  L 48.00 48.00
  L 46.20 48.00
  Q 47.51 47.76 48.00 46.33
  Z"
/>
</svg>
