<?xml version="1.0" encoding="UTF-8" standalone="no"?>
<!DOCTYPE svg PUBLIC "-//W3C//DTD SVG 1.1//EN" "http://www.w3.org/Graphics/SVG/1.1/DTD/svg11.dtd">
<svg xmlns="http://www.w3.org/2000/svg" version="1.1" viewBox="0.00 0.00 128.00 128.00">
<g stroke-width="2.00" fill="none" stroke-linecap="butt">
<path stroke="#aa80aa" vector-effect="non-scaling-stroke" d="
  M 62.01 100.04
  L 57.41 100.04
  A 0.99 0.99 0.0 0 0 56.42 101.03
  L 56.42 102.33
  A 0.92 0.92 0.0 0 0 57.34 103.25
  L 83.10 103.25
  A 0.65 0.64 90.0 0 0 83.74 102.60
  L 83.74 100.70
  A 0.63 0.63 0.0 0 0 83.11 100.07
  L 79.33 100.07
  A 0.78 0.76 78.5 0 1 78.62 99.59
  Q 78.01 98.08 77.32 95.94
  Q 62.54 49.47 55.78 28.23
  Q 55.27 26.63 54.27 25.36
  A 1.39 1.37 56.8 0 0 52.53 24.99
  Q 46.36 28.26 37.87 27.83
  A 1.47 1.46 67.6 0 0 36.81 30.38
  Q 37.40 30.92 39.32 31.49
  A 1.40 1.39 15.0 0 1 40.28 33.13
  Q 39.63 36.04 38.28 40.02
  Q 22.60 86.09 20.72 91.73
  C 19.30 96.01 17.05 99.92 12.35 99.89
  A 0.74 0.73 -0.0 0 0 11.61 100.62
  L 11.61 102.63
  A 0.61 0.61 0.0 0 0 12.22 103.24
  L 28.78 103.24
  A 0.60 0.60 0.0 0 0 29.38 102.64
  L 29.38 100.60
  A 0.66 0.66 0.0 0 0 28.77 99.94
  C 23.34 99.54 22.80 96.28 24.46 91.96
  Q 26.21 87.42 27.94 81.86
  A 0.70 0.69 -80.7 0 1 28.60 81.38
  L 56.11 81.38
  A 0.80 0.79 -8.4 0 1 56.87 81.94
  L 62.36 99.56
  A 0.37 0.37 0.0 0 1 62.01 100.04"
/>
<path stroke="#aa80aa" vector-effect="non-scaling-stroke" d="
  M 95.75 65.11
  Q 95.75 97.79 95.73 99.33
  A 0.75 0.75 0.0 0 1 94.98 100.07
  L 90.49 100.07
  A 0.45 0.45 0.0 0 0 90.04 100.52
  L 90.04 102.65
  A 0.58 0.58 0.0 0 0 90.61 103.23
  Q 96.81 103.24 103.27 103.25
  Q 109.72 103.24 115.92 103.23
  A 0.58 0.58 0.0 0 0 116.49 102.65
  L 116.49 100.52
  A 0.45 0.45 0.0 0 0 116.04 100.07
  L 111.55 100.07
  A 0.75 0.75 0.0 0 1 110.80 99.33
  Q 110.79 97.79 110.79 65.11
  Q 110.79 32.43 110.80 30.89
  A 0.75 0.75 0.0 0 1 111.55 30.14
  L 116.04 30.14
  A 0.45 0.45 0.0 0 0 116.49 29.69
  L 116.49 27.56
  A 0.58 0.58 0.0 0 0 115.92 26.99
  Q 109.72 26.97 103.27 26.97
  Q 96.81 26.97 90.61 26.99
  A 0.58 0.58 0.0 0 0 90.04 27.56
  L 90.04 29.69
  A 0.45 0.45 0.0 0 0 90.49 30.14
  L 94.98 30.14
  A 0.75 0.75 0.0 0 1 95.73 30.89
  Q 95.75 32.43 95.75 65.11"
/>
<path stroke="#aa80aa" vector-effect="non-scaling-stroke" d="
  M 29.48 77.50
  A 0.34 0.34 0.0 0 0 29.80 77.95
  L 55.15 78.17
  A 0.34 0.34 0.0 0 0 55.48 77.72
  L 43.14 39.18
  A 0.34 0.34 0.0 0 0 42.49 39.17
  L 29.48 77.50"
/>
</g>
<path fill="#550055" d="
  M 116.85 0.00
  C 120.79 1.29 123.59 2.05 126.20 6.16
  A 3.85 3.80 -71.1 0 1 126.60 6.99
  L 128.00 11.15
  L 128.00 116.67
  C 126.72 121.20 125.70 123.70 121.89 126.18
  A 3.85 3.80 18.9 0 1 121.06 126.58
  L 116.95 128.00
  L 11.07 128.00
  C 6.92 126.54 3.99 125.82 1.46 121.25
  A 2.04 0.90 60.9 0 1 1.35 120.99
  L 0.00 117.00
  L 0.00 11.15
  Q 1.93 1.85 11.23 0.00
  L 116.85 0.00
  Z
  M 62.01 100.04
  L 57.41 100.04
  A 0.99 0.99 0.0 0 0 56.42 101.03
  L 56.42 102.33
  A 0.92 0.92 0.0 0 0 57.34 103.25
  L 83.10 103.25
  A 0.65 0.64 90.0 0 0 83.74 102.60
  L 83.74 100.70
  A 0.63 0.63 0.0 0 0 83.11 100.07
  L 79.33 100.07
  A 0.78 0.76 78.5 0 1 78.62 99.59
  Q 78.01 98.08 77.32 95.94
  Q 62.54 49.47 55.78 28.23
  Q 55.27 26.63 54.27 25.36
  A 1.39 1.37 56.8 0 0 52.53 24.99
  Q 46.36 28.26 37.87 27.83
  A 1.47 1.46 67.6 0 0 36.81 30.38
  Q 37.40 30.92 39.32 31.49
  A 1.40 1.39 15.0 0 1 40.28 33.13
  Q 39.63 36.04 38.28 40.02
  Q 22.60 86.09 20.72 91.73
  C 19.30 96.01 17.05 99.92 12.35 99.89
  A 0.74 0.73 -0.0 0 0 11.61 100.62
  L 11.61 102.63
  A 0.61 0.61 0.0 0 0 12.22 103.24
  L 28.78 103.24
  A 0.60 0.60 0.0 0 0 29.38 102.64
  L 29.38 100.60
  A 0.66 0.66 0.0 0 0 28.77 99.94
  C 23.34 99.54 22.80 96.28 24.46 91.96
  Q 26.21 87.42 27.94 81.86
  A 0.70 0.69 -80.7 0 1 28.60 81.38
  L 56.11 81.38
  A 0.80 0.79 -8.4 0 1 56.87 81.94
  L 62.36 99.56
  A 0.37 0.37 0.0 0 1 62.01 100.04
  Z
  M 95.75 65.11
  Q 95.75 97.79 95.73 99.33
  A 0.75 0.75 0.0 0 1 94.98 100.07
  L 90.49 100.07
  A 0.45 0.45 0.0 0 0 90.04 100.52
  L 90.04 102.65
  A 0.58 0.58 0.0 0 0 90.61 103.23
  Q 96.81 103.24 103.27 103.25
  Q 109.72 103.24 115.92 103.23
  A 0.58 0.58 0.0 0 0 116.49 102.65
  L 116.49 100.52
  A 0.45 0.45 0.0 0 0 116.04 100.07
  L 111.55 100.07
  A 0.75 0.75 0.0 0 1 110.80 99.33
  Q 110.79 97.79 110.79 65.11
  Q 110.79 32.43 110.80 30.89
  A 0.75 0.75 0.0 0 1 111.55 30.14
  L 116.04 30.14
  A 0.45 0.45 0.0 0 0 116.49 29.69
  L 116.49 27.56
  A 0.58 0.58 0.0 0 0 115.92 26.99
  Q 109.72 26.97 103.27 26.97
  Q 96.81 26.97 90.61 26.99
  A 0.58 0.58 0.0 0 0 90.04 27.56
  L 90.04 29.69
  A 0.45 0.45 0.0 0 0 90.49 30.14
  L 94.98 30.14
  A 0.75 0.75 0.0 0 1 95.73 30.89
  Q 95.75 32.43 95.75 65.11
  Z"
/>
<path fill="#ffffff" d="
  M 62.36 99.56
  L 56.87 81.94
  A 0.80 0.79 -8.4 0 0 56.11 81.38
  L 28.60 81.38
  A 0.70 0.69 -80.7 0 0 27.94 81.86
  Q 26.21 87.42 24.46 91.96
  C 22.80 96.28 23.34 99.54 28.77 99.94
  A 0.66 0.66 0.0 0 1 29.38 100.60
  L 29.38 102.64
  A 0.60 0.60 0.0 0 1 28.78 103.24
  L 12.22 103.24
  A 0.61 0.61 0.0 0 1 11.61 102.63
  L 11.61 100.62
  A 0.74 0.73 0.0 0 1 12.35 99.89
  C 17.05 99.92 19.30 96.01 20.72 91.73
  Q 22.60 86.09 38.28 40.02
  Q 39.63 36.04 40.28 33.13
  A 1.40 1.39 15.0 0 0 39.32 31.49
  Q 37.40 30.92 36.81 30.38
  A 1.47 1.46 67.6 0 1 37.87 27.83
  Q 46.36 28.26 52.53 24.99
  A 1.39 1.37 56.8 0 1 54.27 25.36
  Q 55.27 26.63 55.78 28.23
  Q 62.54 49.47 77.32 95.94
  Q 78.01 98.08 78.62 99.59
  A 0.78 0.76 78.5 0 0 79.33 100.07
  L 83.11 100.07
  A 0.63 0.63 0.0 0 1 83.74 100.70
  L 83.74 102.60
  A 0.65 0.64 90.0 0 1 83.10 103.25
  L 57.34 103.25
  A 0.92 0.92 0.0 0 1 56.42 102.33
  L 56.42 101.03
  A 0.99 0.99 0.0 0 1 57.41 100.04
  L 62.01 100.04
  A 0.37 0.37 0.0 0 0 62.36 99.56
  Z
  M 29.48 77.50
  A 0.34 0.34 0.0 0 0 29.80 77.95
  L 55.15 78.17
  A 0.34 0.34 0.0 0 0 55.48 77.72
  L 43.14 39.18
  A 0.34 0.34 0.0 0 0 42.49 39.17
  L 29.48 77.50
  Z"
/>
<path fill="#ffffff" d="
  M 103.27 26.97
  Q 109.72 26.97 115.92 26.99
  A 0.58 0.58 0.0 0 1 116.49 27.56
  L 116.49 29.69
  A 0.45 0.45 0.0 0 1 116.04 30.14
  L 111.55 30.14
  A 0.75 0.75 0.0 0 0 110.80 30.89
  Q 110.79 32.43 110.79 65.11
  Q 110.79 97.79 110.80 99.33
  A 0.75 0.75 0.0 0 0 111.55 100.07
  L 116.04 100.07
  A 0.45 0.45 0.0 0 1 116.49 100.52
  L 116.49 102.65
  A 0.58 0.58 0.0 0 1 115.92 103.23
  Q 109.72 103.24 103.27 103.25
  Q 96.81 103.24 90.61 103.23
  A 0.58 0.58 0.0 0 1 90.04 102.65
  L 90.04 100.52
  A 0.45 0.45 0.0 0 1 90.49 100.07
  L 94.98 100.07
  A 0.75 0.75 0.0 0 0 95.73 99.33
  Q 95.75 97.79 95.75 65.11
  Q 95.75 32.43 95.73 30.89
  A 0.75 0.75 0.0 0 0 94.98 30.14
  L 90.49 30.14
  A 0.45 0.45 0.0 0 1 90.04 29.69
  L 90.04 27.56
  A 0.58 0.58 0.0 0 1 90.61 26.99
  Q 96.81 26.97 103.27 26.97
  Z"
/>
<path fill="#550055" d="
  M 29.48 77.50
  L 42.49 39.17
  A 0.34 0.34 0.0 0 1 43.14 39.18
  L 55.48 77.72
  A 0.34 0.34 0.0 0 1 55.15 78.17
  L 29.80 77.95
  A 0.34 0.34 0.0 0 1 29.48 77.50
  Z"
/>
</svg>
