<?xml version="1.0" encoding="UTF-8" standalone="no"?>
<!DOCTYPE svg PUBLIC "-//W3C//DTD SVG 1.1//EN" "http://www.w3.org/Graphics/SVG/1.1/DTD/svg11.dtd">
<svg xmlns="http://www.w3.org/2000/svg" version="1.1" viewBox="0.00 0.00 128.00 128.00">
<g stroke-width="2.00" fill="none" stroke-linecap="butt">
<path stroke="#807500" vector-effect="non-scaling-stroke" d="
  M 107.42 45.65
  A 5.53 5.53 0.0 0 0 101.89 40.12
  A 5.53 5.53 0.0 0 0 96.36 45.65
  A 5.53 5.53 0.0 0 0 101.89 51.18
  A 5.53 5.53 0.0 0 0 107.42 45.65"
/>
<path stroke="#807500" vector-effect="non-scaling-stroke" d="
  M 38.74 78.23
  Q 45.89 78.24 46.75 78.28
  A 0.71 0.70 1.4 0 1 47.43 78.98
  L 47.43 86.66
  A 0.23 0.22 -0.0 0 0 47.66 86.88
  L 55.82 86.88
  A 0.30 0.30 0.0 0 0 56.12 86.58
  Q 56.06 75.48 56.15 64.25
  Q 56.19 58.32 55.43 55.84
  C 53.14 48.45 46.49 43.50 38.75 43.49
  C 31.01 43.49 24.36 48.44 22.07 55.82
  Q 21.30 58.30 21.33 64.23
  Q 21.41 75.46 21.34 86.56
  A 0.30 0.30 0.0 0 0 21.64 86.86
  L 29.80 86.87
  A 0.23 0.22 0.1 0 0 30.03 86.65
  L 30.04 78.97
  A 0.71 0.70 -1.4 0 1 30.72 78.27
  Q 31.58 78.23 38.74 78.23"
/>
<path stroke="#807500" vector-effect="non-scaling-stroke" d="
  M 63.07 86.88
  L 70.82 86.88
  A 0.30 0.29 90.0 0 0 71.11 86.58
  Q 71.16 72.40 71.10 71.04
  Q 70.91 66.82 72.03 65.10
  C 75.37 59.94 83.51 62.14 83.50 68.24
  Q 83.49 73.45 83.49 86.45
  A 0.43 0.43 0.0 0 0 83.92 86.88
  L 91.36 86.88
  A 0.41 0.41 0.0 0 0 91.77 86.47
  Q 91.81 69.24 91.73 68.00
  Q 91.30 61.39 87.30 57.87
  Q 78.47 50.11 67.79 57.15
  A 0.51 0.50 50.3 0 1 67.15 57.08
  L 64.85 54.78
  A 1.23 1.22 -67.5 0 0 62.76 55.65
  L 62.76 86.56
  A 0.32 0.31 90.0 0 0 63.07 86.88"
/>
<path stroke="#807500" vector-effect="non-scaling-stroke" d="
  M 106.00 54.86
  A 0.36 0.36 0.0 0 0 105.64 54.50
  L 98.12 54.50
  A 0.36 0.36 0.0 0 0 97.76 54.86
  L 97.76 86.52
  A 0.36 0.36 0.0 0 0 98.12 86.88
  L 105.64 86.88
  A 0.36 0.36 0.0 0 0 106.00 86.52
  L 106.00 54.86"
/>
<path stroke="#807500" vector-effect="non-scaling-stroke" d="
  M 30.41 69.50
  L 46.97 69.52
  A 0.41 0.41 0.0 0 0 47.39 69.12
  L 47.40 60.98
  A 8.75 8.52 -89.9 0 0 38.90 52.21
  L 38.56 52.21
  A 8.75 8.52 -89.9 0 0 30.02 60.94
  L 30.01 69.08
  A 0.41 0.41 0.0 0 0 30.41 69.50"
/>
</g>
<path fill="#ffea00" d="
  M 98.40 0.00
  C 114.44 1.86 126.01 13.51 128.00 29.47
  L 128.00 98.40
  C 126.13 114.44 114.48 126.00 98.52 128.00
  L 29.61 128.00
  C 13.57 126.13 1.99 114.48 0.00 98.52
  L 0.00 29.59
  C 2.01 13.29 13.32 2.25 29.50 0.00
  L 98.40 0.00
  Z
  M 107.42 45.65
  A 5.53 5.53 0.0 0 0 101.89 40.12
  A 5.53 5.53 0.0 0 0 96.36 45.65
  A 5.53 5.53 0.0 0 0 101.89 51.18
  A 5.53 5.53 0.0 0 0 107.42 45.65
  Z
  M 38.74 78.23
  Q 45.89 78.24 46.75 78.28
  A 0.71 0.70 1.4 0 1 47.43 78.98
  L 47.43 86.66
  A 0.23 0.22 -0.0 0 0 47.66 86.88
  L 55.82 86.88
  A 0.30 0.30 0.0 0 0 56.12 86.58
  Q 56.06 75.48 56.15 64.25
  Q 56.19 58.32 55.43 55.84
  C 53.14 48.45 46.49 43.50 38.75 43.49
  C 31.01 43.49 24.36 48.44 22.07 55.82
  Q 21.30 58.30 21.33 64.23
  Q 21.41 75.46 21.34 86.56
  A 0.30 0.30 0.0 0 0 21.64 86.86
  L 29.80 86.87
  A 0.23 0.22 0.1 0 0 30.03 86.65
  L 30.04 78.97
  A 0.71 0.70 -1.4 0 1 30.72 78.27
  Q 31.58 78.23 38.74 78.23
  Z
  M 63.07 86.88
  L 70.82 86.88
  A 0.30 0.29 90.0 0 0 71.11 86.58
  Q 71.16 72.40 71.10 71.04
  Q 70.91 66.82 72.03 65.10
  C 75.37 59.94 83.51 62.14 83.50 68.24
  Q 83.49 73.45 83.49 86.45
  A 0.43 0.43 0.0 0 0 83.92 86.88
  L 91.36 86.88
  A 0.41 0.41 0.0 0 0 91.77 86.47
  Q 91.81 69.24 91.73 68.00
  Q 91.30 61.39 87.30 57.87
  Q 78.47 50.11 67.79 57.15
  A 0.51 0.50 50.3 0 1 67.15 57.08
  L 64.85 54.78
  A 1.23 1.22 -67.5 0 0 62.76 55.65
  L 62.76 86.56
  A 0.32 0.31 90.0 0 0 63.07 86.88
  Z
  M 106.00 54.86
  A 0.36 0.36 0.0 0 0 105.64 54.50
  L 98.12 54.50
  A 0.36 0.36 0.0 0 0 97.76 54.86
  L 97.76 86.52
  A 0.36 0.36 0.0 0 0 98.12 86.88
  L 105.64 86.88
  A 0.36 0.36 0.0 0 0 106.00 86.52
  L 106.00 54.86
  Z"
/>
<circle fill="#000000" cx="101.89" cy="45.65" r="5.53"/>
<path fill="#000000" d="
  M 38.75 43.49
  C 46.49 43.50 53.14 48.45 55.43 55.84
  Q 56.19 58.32 56.15 64.25
  Q 56.06 75.48 56.12 86.58
  A 0.30 0.30 0.0 0 1 55.82 86.88
  L 47.66 86.88
  A 0.23 0.22 0.0 0 1 47.43 86.66
  L 47.43 78.98
  A 0.71 0.70 1.4 0 0 46.75 78.28
  Q 45.89 78.24 38.74 78.23
  Q 31.58 78.23 30.72 78.27
  A 0.71 0.70 -1.4 0 0 30.04 78.97
  L 30.03 86.65
  A 0.23 0.22 0.1 0 1 29.80 86.87
  L 21.64 86.86
  A 0.30 0.30 0.0 0 1 21.34 86.56
  Q 21.41 75.46 21.33 64.23
  Q 21.30 58.30 22.07 55.82
  C 24.36 48.44 31.01 43.49 38.75 43.49
  Z
  M 30.41 69.50
  L 46.97 69.52
  A 0.41 0.41 0.0 0 0 47.39 69.12
  L 47.40 60.98
  A 8.75 8.52 -89.9 0 0 38.90 52.21
  L 38.56 52.21
  A 8.75 8.52 -89.9 0 0 30.02 60.94
  L 30.01 69.08
  A 0.41 0.41 0.0 0 0 30.41 69.50
  Z"
/>
<path fill="#ffea00" d="
  M 30.41 69.50
  A 0.41 0.41 0.0 0 1 30.01 69.08
  L 30.02 60.94
  A 8.75 8.52 -89.9 0 1 38.56 52.21
  L 38.90 52.21
  A 8.75 8.52 -89.9 0 1 47.40 60.98
  L 47.39 69.12
  A 0.41 0.41 0.0 0 1 46.97 69.52
  L 30.41 69.50
  Z"
/>
<path fill="#000000" d="
  M 62.76 86.56
  L 62.76 55.65
  A 1.23 1.22 -67.5 0 1 64.85 54.78
  L 67.15 57.08
  A 0.51 0.50 50.3 0 0 67.79 57.15
  Q 78.47 50.11 87.30 57.87
  Q 91.30 61.39 91.73 68.00
  Q 91.81 69.24 91.77 86.47
  A 0.41 0.41 0.0 0 1 91.36 86.88
  L 83.92 86.88
  A 0.43 0.43 0.0 0 1 83.49 86.45
  Q 83.49 73.45 83.50 68.24
  C 83.51 62.14 75.37 59.94 72.03 65.10
  Q 70.91 66.82 71.10 71.04
  Q 71.16 72.40 71.11 86.58
  A 0.30 0.29 -90.0 0 1 70.82 86.88
  L 63.07 86.88
  A 0.32 0.31 -90.0 0 1 62.76 86.56
  Z"
/>
<rect fill="#000000" x="97.76" y="54.50" width="8.24" height="32.38" rx="0.36"/>
</svg>
