<?xml version="1.0" encoding="UTF-8" standalone="no"?>
<!DOCTYPE svg PUBLIC "-//W3C//DTD SVG 1.1//EN" "http://www.w3.org/Graphics/SVG/1.1/DTD/svg11.dtd">
<svg xmlns="http://www.w3.org/2000/svg" version="1.1" viewBox="0.00 0.00 32.00 32.00">
<g stroke-width="2.00" fill="none" stroke-linecap="butt">
<path stroke="#eb8f90" vector-effect="non-scaling-stroke" d="
  M 16.83 20.37
  Q 19.60 20.35 22.33 20.27
  A 0.58 0.58 0.0 0 1 22.93 20.85
  L 22.93 25.48
  A 1.82 1.82 0.0 0 0 24.75 27.30
  L 25.32 27.30
  A 1.87 1.86 -0.3 0 0 27.19 25.42
  Q 27.11 14.98 26.93 13.01
  C 26.41 7.32 21.91 4.90 16.68 4.96
  C 11.44 5.01 6.99 7.51 6.59 13.22
  Q 6.45 15.19 6.58 25.63
  A 1.87 1.86 -0.9 0 0 8.49 27.47
  L 9.06 27.46
  A 1.82 1.82 0.0 0 0 10.84 25.60
  L 10.75 20.97
  A 0.58 0.58 0.0 0 1 11.33 20.38
  Q 14.07 20.40 16.83 20.37"
/>
<path stroke="#eb8f90" vector-effect="non-scaling-stroke" d="
  M 11.53 17.52
  L 22.29 17.60
  A 0.73 0.73 0.0 0 0 23.02 16.87
  L 23.04 13.87
  A 5.77 5.28 -89.6 0 0 17.80 8.07
  L 16.14 8.05
  A 5.77 5.28 -89.6 0 0 10.82 13.79
  L 10.80 16.79
  A 0.73 0.73 0.0 0 0 11.53 17.52"
/>
</g>
<path fill="#ffffff" d="
  M 32.00 0.00
  L 32.00 32.00
  L 0.00 32.00
  L 0.00 0.00
  L 32.00 0.00
  Z
  M 16.83 20.37
  Q 19.60 20.35 22.33 20.27
  A 0.58 0.58 0.0 0 1 22.93 20.85
  L 22.93 25.48
  A 1.82 1.82 0.0 0 0 24.75 27.30
  L 25.32 27.30
  A 1.87 1.86 -0.3 0 0 27.19 25.42
  Q 27.11 14.98 26.93 13.01
  C 26.41 7.32 21.91 4.90 16.68 4.96
  C 11.44 5.01 6.99 7.51 6.59 13.22
  Q 6.45 15.19 6.58 25.63
  A 1.87 1.86 -0.9 0 0 8.49 27.47
  L 9.06 27.46
  A 1.82 1.82 0.0 0 0 10.84 25.60
  L 10.75 20.97
  A 0.58 0.58 0.0 0 1 11.33 20.38
  Q 14.07 20.40 16.83 20.37
  Z"
/>
<path fill="#d61f21" d="
  M 16.68 4.96
  C 21.91 4.90 26.41 7.32 26.93 13.01
  Q 27.11 14.98 27.19 25.42
  A 1.87 1.86 -0.3 0 1 25.32 27.30
  L 24.75 27.30
  A 1.82 1.82 0.0 0 1 22.93 25.48
  L 22.93 20.85
  A 0.58 0.58 0.0 0 0 22.33 20.27
  Q 19.60 20.35 16.83 20.37
  Q 14.07 20.40 11.33 20.38
  A 0.58 0.58 0.0 0 0 10.75 20.97
  L 10.84 25.60
  A 1.82 1.82 0.0 0 1 9.06 27.46
  L 8.49 27.47
  A 1.87 1.86 -0.9 0 1 6.58 25.63
  Q 6.45 15.19 6.59 13.22
  C 6.99 7.51 11.44 5.01 16.68 4.96
  Z
  M 11.53 17.52
  L 22.29 17.60
  A 0.73 0.73 0.0 0 0 23.02 16.87
  L 23.04 13.87
  A 5.77 5.28 -89.6 0 0 17.80 8.07
  L 16.14 8.05
  A 5.77 5.28 -89.6 0 0 10.82 13.79
  L 10.80 16.79
  A 0.73 0.73 0.0 0 0 11.53 17.52
  Z"
/>
<path fill="#ffffff" d="
  M 11.53 17.52
  A 0.73 0.73 0.0 0 1 10.80 16.79
  L 10.82 13.79
  A 5.77 5.28 -89.6 0 1 16.14 8.05
  L 17.80 8.07
  A 5.77 5.28 -89.6 0 1 23.04 13.87
  L 23.02 16.87
  A 0.73 0.73 0.0 0 1 22.29 17.60
  L 11.53 17.52
  Z"
/>
</svg>
