<svg width="32" height="32" viewBox="0 0 32 32" fill="none" xmlns="http://www.w3.org/2000/svg">
<rect width="32" height="32" rx="4" fill="url(#paint0_linear_4630_13201)"/>
<path d="M7.88184 23.7871C8.49616 23.7872 8.99414 24.2851 8.99414 24.8994C8.99403 25.5137 8.4961 26.0116 7.88184 26.0117C7.26748 26.0117 6.76964 25.5137 6.76953 24.8994C6.76953 24.285 7.26742 23.7871 7.88184 23.7871Z" fill="black" stroke="black" stroke-width="0.2" stroke-linejoin="round"/>
<path d="M15.8945 6.77441C16.0672 6.77455 16.2327 6.86931 16.2998 7.03711H16.2988L24.5098 24.707V24.708C24.5906 24.886 24.5423 25.0924 24.415 25.2197L24.4111 25.2236L24.3438 25.1494L24.4102 25.2236C24.2713 25.347 24.0645 25.3845 23.8975 25.2871L15.9062 21.1113L8.11621 25.2871L8.11035 25.291L8.10938 25.29V25.291H8.10742C8.10641 25.2915 8.10516 25.2923 8.10352 25.293C8.09984 25.2945 8.09426 25.2972 8.08789 25.2998C8.07529 25.3049 8.05778 25.3115 8.03809 25.3184C8.00254 25.3307 7.94442 25.3485 7.89453 25.3486C7.87625 25.3486 7.85917 25.3423 7.84375 25.333C7.75058 25.3262 7.66376 25.2949 7.58984 25.2227V25.2236C7.44607 25.0956 7.39735 24.8868 7.47852 24.708L15.4902 7.0332C15.5583 6.86756 15.723 6.77441 15.8945 6.77441ZM8.85645 23.8232L15.6719 20.2109L15.6787 20.207H15.6807C15.6817 20.2066 15.6829 20.2058 15.6846 20.2051C15.6882 20.2035 15.6938 20.2008 15.7002 20.1982C15.7128 20.1931 15.7303 20.1866 15.75 20.1797C15.7856 20.1673 15.8446 20.1494 15.8945 20.1494H15.9072C15.9084 20.1496 15.9102 20.1501 15.9121 20.1504C15.9159 20.1509 15.9213 20.1514 15.9277 20.1523C15.9408 20.1543 15.959 20.1577 15.9795 20.1621C16.0158 20.17 16.0695 20.1847 16.1143 20.21L23.1309 23.8379L15.9082 8.28809L8.85645 23.8232Z" fill="black" stroke="black" stroke-width="0.2" stroke-linejoin="round"/>
<path d="M15.9072 5.9873C16.5216 5.98741 17.0195 6.48526 17.0195 7.09961C17.0194 7.71387 16.5215 8.21181 15.9072 8.21191C15.2929 8.21191 14.795 7.71394 14.7949 7.09961C14.7949 6.48519 15.2928 5.9873 15.9072 5.9873Z" fill="black" stroke="black" stroke-width="0.2" stroke-linejoin="round"/>
<path d="M24.1191 23.7627C24.7335 23.7628 25.2314 24.2606 25.2314 24.875C25.2313 25.4893 24.7334 25.9872 24.1191 25.9873C23.5048 25.9873 23.0069 25.4893 23.0068 24.875C23.0068 24.2606 23.5047 23.7627 24.1191 23.7627Z" fill="black" stroke="black" stroke-width="0.2" stroke-linejoin="round"/>
<path d="M20 15.3994C20.0374 15.3994 20.0717 15.4199 20.0889 15.4531C20.106 15.4865 20.103 15.5272 20.0811 15.5576L16.1133 21.0576C16.0946 21.0836 16.0642 21.0985 16.0322 21.0986C16.0004 21.0988 15.9701 21.0842 15.9512 21.0586L11.9189 15.5586C11.8967 15.5282 11.8942 15.4877 11.9111 15.4541C11.9282 15.4205 11.9623 15.3994 12 15.3994H20ZM16.0195 19.8623L18.5156 16.2471H13.4863L16.0195 19.8623Z" fill="black" stroke="black" stroke-width="0.2" stroke-linejoin="round"/>
<path d="M15.9072 19.3994C16.5216 19.3995 17.0195 19.8974 17.0195 20.5117C17.0194 21.126 16.5215 21.6239 15.9072 21.624C15.2929 21.624 14.795 21.126 14.7949 20.5117C14.7949 19.8973 15.2928 19.3994 15.9072 19.3994Z" fill="black" stroke="black" stroke-width="0.2" stroke-linejoin="round"/>
<path d="M19.8193 14.5498C20.4337 14.5499 20.9316 15.0478 20.9316 15.6621C20.9315 16.2764 20.4336 16.7743 19.8193 16.7744C19.205 16.7744 18.7071 16.2764 18.707 15.6621C18.707 15.0477 19.2049 14.5498 19.8193 14.5498Z" fill="black" stroke="black" stroke-width="0.2" stroke-linejoin="round"/>
<path d="M11.9189 14.5498C12.5333 14.5499 13.0312 15.0478 13.0312 15.6621C13.0311 16.2764 12.5332 16.7743 11.9189 16.7744C11.3046 16.7744 10.8067 16.2764 10.8066 15.6621C10.8066 15.0477 11.3045 14.5498 11.9189 14.5498Z" fill="black" stroke="black" stroke-width="0.2" stroke-linejoin="round"/>
<defs>
<linearGradient id="paint0_linear_4630_13201" x1="-16.1849" y1="28.0103" x2="31.9962" y2="27.5806" gradientUnits="userSpaceOnUse">
<stop stop-color="#FEA502"/>
<stop offset="1" stop-color="#FECC03"/>
</linearGradient>
</defs>
</svg>
