<?xml version="1.0" encoding="UTF-8" standalone="no"?>
<!DOCTYPE svg PUBLIC "-//W3C//DTD SVG 1.1//EN" "http://www.w3.org/Graphics/SVG/1.1/DTD/svg11.dtd">
<svg xmlns="http://www.w3.org/2000/svg" version="1.1" viewBox="0.00 0.00 200.00 183.00">
<g stroke-width="2.00" fill="none" stroke-linecap="butt">
<path stroke="#dfc364" vector-effect="non-scaling-stroke" d="
  M 114.20 30.59
  L 114.20 152.41"
/>
<path stroke="#dfc364" vector-effect="non-scaling-stroke" d="
  M 85.67 152.45
  L 85.67 30.51"
/>
<path stroke="#dfc364" vector-effect="non-scaling-stroke" d="
  M 108.44 37.57
  Q 109.00 38.77 109.01 37.34
  A 1.08 1.08 0.0 0 0 107.96 36.26
  Q 100.30 36.08 92.64 36.41
  Q 92.04 36.43 91.95 37.25"
/>
<path stroke="#dfc364" vector-effect="non-scaling-stroke" d="
  M 55.02 43.23
  Q 53.94 41.70 51.97 41.08
  A 0.17 0.17 0.0 0 0 51.78 41.35
  Q 53.09 43.08 54.86 43.63"
/>
<path stroke="#dfc364" vector-effect="non-scaling-stroke" d="
  M 31.76 89.54
  Q 30.65 88.69 29.21 89.86
  A 0.43 0.43 0.0 0 0 29.39 90.62
  Q 31.51 91.10 31.64 89.99"
/>
<path stroke="#dfc364" vector-effect="non-scaling-stroke" d="
  M 49.96 139.52
  Q 48.89 139.42 48.85 140.49
  A 0.46 0.46 0.0 0 0 49.68 140.79
  Q 50.23 140.07 49.96 139.52"
/>
<path stroke="#dfc364" vector-effect="non-scaling-stroke" d="
  M 168.52 93.10
  Q 168.14 93.99 169.25 93.86
  Q 170.58 93.69 171.31 92.74
  A 0.20 0.20 0.0 0 0 171.15 92.42
  L 136.79 92.92"
/>
<path stroke="#dfc364" vector-effect="non-scaling-stroke" d="
  M 152.0870 40.5562
  A 1.11 0.42 -51.1 0 0 151.0631 41.1563
  A 1.11 0.42 -51.1 0 0 150.6930 42.2838
  A 1.11 0.42 -51.1 0 0 151.7169 41.6837
  A 1.11 0.42 -51.1 0 0 152.0870 40.5562"
/>
<path stroke="#dfc364" vector-effect="non-scaling-stroke" d="
  M 145.7029 139.9760
  A 0.97 0.36 -136.8 0 0 146.1636 140.9024
  A 0.97 0.36 -136.8 0 0 147.1171 141.3040
  A 0.97 0.36 -136.8 0 0 146.6564 140.3776
  A 0.97 0.36 -136.8 0 0 145.7029 139.9760"
/>
</g>
<path fill="#cca842" d="
  M 103.11 0.00
  L 103.09 29.89
  A 0.66 0.66 0.0 0 0 103.75 30.55
  L 114.20 30.59
  L 114.20 152.41
  L 103.70 152.45
  A 0.63 0.62 -0.5 0 0 103.08 153.07
  L 103.10 183.00
  L 96.73 183.00
  L 96.66 153.14
  A 0.52 0.52 0.0 0 0 96.14 152.62
  L 85.67 152.45
  L 85.67 30.51
  L 96.14 30.39
  A 0.54 0.53 -90.0 0 0 96.66 29.86
  L 96.73 0.00
  L 103.11 0.00
  Z
  M 91.95 37.25
  Q 92.11 36.82 91.79 37.01
  A 0.42 0.41 75.0 0 0 91.59 37.37
  L 91.59 145.76
  A 0.24 0.24 0.0 0 0 91.83 146.00
  L 107.34 146.00
  A 1.11 1.11 0.0 0 0 108.45 144.89
  L 108.44 37.57
  Q 109.00 38.77 109.01 37.34
  A 1.08 1.08 0.0 0 0 107.96 36.26
  Q 100.30 36.08 92.64 36.41
  Q 92.04 36.43 91.95 37.25
  Z"
/>
<path fill="#cca842" d="
  M 55.02 43.23
  Q 53.94 41.70 51.97 41.08
  A 0.17 0.17 0.0 0 0 51.78 41.35
  Q 53.09 43.08 54.86 43.63
  L 79.53 67.16
  A 1.67 1.66 -68.2 0 1 80.04 68.36
  L 80.04 76.47
  A 0.67 0.67 0.0 0 1 79.54 77.12
  L 31.76 89.54
  Q 30.65 88.69 29.21 89.86
  A 0.43 0.43 0.0 0 0 29.39 90.62
  Q 31.51 91.10 31.64 89.99
  L 79.44 89.91
  A 0.58 0.58 0.0 0 1 80.02 90.49
  L 80.02 131.61
  A 0.65 0.64 -15.9 0 1 79.71 132.16
  L 30.13 162.19
  A 0.62 0.61 -0.2 0 1 29.28 161.35
  L 61.41 108.14
  A 0.28 0.28 0.0 0 0 61.24 107.72
  L 0.00 91.86
  L 0.00 91.16
  L 61.30 75.16
  A 0.23 0.23 0.0 0 0 61.44 74.81
  L 29.05 21.32
  A 0.21 0.07 -75.8 0 1 29.04 21.16
  Q 29.05 21.10 29.05 21.07
  A 0.51 0.51 0.0 0 1 29.82 20.70
  L 79.83 50.52
  A 0.44 0.43 16.4 0 1 80.04 50.89
  L 80.04 58.04
  A 0.11 0.11 0.0 0 1 79.87 58.14
  L 55.02 43.23
  Z
  M 49.96 139.52
  Q 48.89 139.42 48.85 140.49
  A 0.46 0.46 0.0 0 0 49.68 140.79
  Q 50.23 140.07 49.96 139.52
  Q 57.82 132.00 65.29 124.29
  Q 66.13 123.42 66.76 122.39
  A 2.28 2.00 -10.3 0 1 67.07 122.00
  L 76.92 112.14
  A 0.15 0.15 0.0 0 0 76.85 111.89
  L 68.26 109.68
  A 0.41 0.40 -66.4 0 0 67.81 109.86
  L 49.96 139.52
  Z"
/>
<path fill="#cca842" d="
  M 200.00 91.15
  Q 200.00 91.50 200.00 91.86
  L 138.79 107.78
  A 0.35 0.34 -23.1 0 0 138.58 108.29
  L 170.81 161.51
  A 0.55 0.55 0.0 0 1 170.05 162.27
  L 120.46 132.33
  A 1.09 1.06 -75.0 0 1 119.94 131.40
  L 119.94 125.76
  A 0.65 0.65 0.0 0 1 120.93 125.20
  L 144.82 139.63
  A 0.15 0.15 0.0 0 0 144.99 139.39
  L 120.39 116.48
  A 1.32 1.31 21.6 0 1 119.97 115.52
  L 119.97 106.44
  A 0.68 0.68 0.0 0 1 120.48 105.78
  L 168.52 93.10
  Q 168.14 93.99 169.25 93.86
  Q 170.58 93.69 171.31 92.74
  A 0.20 0.20 0.0 0 0 171.15 92.42
  L 136.79 92.92
  L 120.52 93.02
  A 0.51 0.51 0.0 0 1 120.00 92.51
  L 120.00 51.36
  A 0.94 0.93 70.8 0 1 120.35 50.63
  Q 121.54 49.68 124.30 48.05
  Q 142.51 37.32 167.99 21.96
  Q 168.83 21.45 170.57 20.93
  A 0.30 0.29 7.2 0 1 170.91 21.36
  L 138.76 74.60
  A 0.39 0.39 0.0 0 0 139.00 75.17
  L 200.00 91.15
  Z
  M 152.0870 40.5562
  A 1.11 0.42 -51.1 0 0 151.0631 41.1563
  A 1.11 0.42 -51.1 0 0 150.6930 42.2838
  A 1.11 0.42 -51.1 0 0 151.7169 41.6837
  A 1.11 0.42 -51.1 0 0 152.0870 40.5562
  Z
  M 150.34 43.01
  A 0.20 0.20 0.0 0 0 150.03 42.77
  L 123.01 70.87
  A 0.11 0.11 0.0 0 0 123.07 71.05
  L 131.71 73.28
  A 0.41 0.41 0.0 0 0 132.17 73.09
  L 150.34 43.01
  Z
  M 145.7029 139.9760
  A 0.97 0.36 -136.8 0 0 146.1636 140.9024
  A 0.97 0.36 -136.8 0 0 147.1171 141.3040
  A 0.97 0.36 -136.8 0 0 146.6564 140.3776
  A 0.97 0.36 -136.8 0 0 145.7029 139.9760
  Z"
/>
<path fill="#f2de85" d="
  M 85.67 30.51
  L 85.67 152.45
  Q 84.69 152.15 84.69 150.75
  Q 84.69 91.22 84.73 31.68
  Q 84.73 31.15 84.94 30.87
  Q 85.23 30.45 85.67 30.51
  Z"
/>
<path fill="#f2de85" d="
  M 114.20 152.41
  L 114.20 30.59
  Q 115.18 30.46 115.19 31.26
  Q 115.35 91.60 115.28 151.95
  A 0.21 0.19 -24.2 0 1 115.22 152.09
  Q 114.81 152.52 114.20 152.41
  Z"
/>
<path fill="#f2de85" d="
  M 108.44 37.57
  L 91.95 37.25
  Q 92.04 36.43 92.64 36.41
  Q 100.30 36.08 107.96 36.26
  A 1.08 1.08 0.0 0 1 109.01 37.34
  Q 109.00 38.77 108.44 37.57
  Z"
/>
<ellipse fill="#f2de85" cx="0.00" cy="0.00" transform="translate(151.39,41.42) rotate(-51.1)" rx="1.11" ry="0.42"/>
<path fill="#f2de85" d="
  M 55.02 43.23
  Q 54.94 43.43 54.86 43.63
  Q 53.09 43.08 51.78 41.35
  A 0.17 0.17 0.0 0 1 51.97 41.08
  Q 53.94 41.70 55.02 43.23
  Z"
/>
<path fill="#f2de85" d="
  M 31.76 89.54
  Q 31.63 89.71 31.64 89.99
  Q 31.51 91.10 29.39 90.62
  A 0.43 0.43 0.0 0 1 29.21 89.86
  Q 30.65 88.69 31.76 89.54
  Z"
/>
<path fill="#f2de85" d="
  M 168.52 93.10
  L 136.79 92.92
  L 171.15 92.42
  A 0.20 0.20 0.0 0 1 171.31 92.74
  Q 170.58 93.69 169.25 93.86
  Q 168.14 93.99 168.52 93.10
  Z"
/>
<path fill="#f2de85" d="
  M 49.96 139.52
  Q 50.23 140.07 49.68 140.79
  A 0.46 0.46 0.0 0 1 48.85 140.49
  Q 48.89 139.42 49.96 139.52
  Z"
/>
<ellipse fill="#f2de85" cx="0.00" cy="0.00" transform="translate(146.41,140.64) rotate(-136.8)" rx="0.97" ry="0.36"/>
</svg>
