<?xml version="1.0" encoding="UTF-8" standalone="no"?>
<!DOCTYPE svg PUBLIC "-//W3C//DTD SVG 1.1//EN" "http://www.w3.org/Graphics/SVG/1.1/DTD/svg11.dtd">
<svg xmlns="http://www.w3.org/2000/svg" version="1.1" viewBox="0.00 0.00 32.00 32.00">
<g stroke-width="2.00" fill="none" stroke-linecap="butt">
<path stroke="#b09ded" vector-effect="non-scaling-stroke" d="
  M 4.95 19.82
  Q 4.61 19.79 4.31 20.11
  A 0.53 0.53 0.0 0 0 4.68 21.01
  Q 8.41 21.10 11.37 21.01
  C 14.13 20.93 14.88 17.38 12.57 15.85
  A 0.48 0.47 -43.3 0 1 12.60 15.04
  L 13.21 14.68
  A 0.92 0.90 77.4 0 0 13.67 13.94
  Q 13.83 10.94 10.52 10.71
  Q 7.29 10.49 4.60 10.72
  A 0.52 0.52 0.0 0 0 4.21 11.53
  Q 4.33 11.70 4.98 11.80
  A 1.03 1.03 0.0 0 1 5.85 12.82
  L 5.87 18.94
  A 0.88 0.87 0.9 0 1 4.95 19.82"
/>
<path stroke="#b09ded" vector-effect="non-scaling-stroke" d="
  M 14.54 14.51
  L 15.74 14.51
  A 0.52 0.51 -90.0 0 1 16.25 15.03
  L 16.25 19.09
  A 0.33 0.31 75.9 0 1 16.09 19.37
  L 14.77 20.14
  A 0.49 0.49 0.0 0 0 15.02 21.06
  L 20.88 21.06
  A 0.78 0.75 21.7 0 0 21.42 20.84
  Q 21.59 20.66 21.61 20.64
  A 0.90 0.90 0.0 0 1 22.65 20.56
  C 25.22 22.04 27.31 21.96 27.83 18.61
  A 0.47 0.47 0.0 0 0 26.97 18.28
  L 26.40 19.16
  A 0.65 0.64 15.9 0 1 25.85 19.46
  L 22.42 19.46
  A 0.38 0.38 0.0 0 1 22.30 18.72
  Q 25.35 17.64 25.87 17.32
  C 28.27 15.87 27.62 13.10 25.28 12.27
  C 23.56 11.66 21.10 12.05 20.51 14.01
  Q 20.12 15.28 20.78 16.08
  A 1.16 1.12 19.4 0 0 22.80 15.16
  Q 22.79 15.14 22.26 14.13
  A 0.61 0.60 -11.2 0 1 22.85 13.25
  Q 24.42 13.38 24.86 13.88
  A 1.88 1.70 -29.8 0 1 23.94 16.68
  Q 21.39 17.62 20.46 19.50
  A 1.21 1.21 0.0 0 1 18.17 18.96
  L 18.17 12.46
  A 0.50 0.50 0.0 0 0 17.42 12.02
  L 14.35 13.79
  A 0.39 0.38 -59.9 0 0 14.54 14.51"
/>
<path stroke="#b09ded" vector-effect="non-scaling-stroke" d="
  M 7.87 12.41
  L 7.87 14.45
  A 0.59 0.59 0.0 0 0 8.46 15.04
  L 9.52 15.04
  A 1.91 1.40 -0.1 0 0 11.43 13.64
  L 11.43 13.22
  A 1.91 1.40 -0.1 0 0 9.52 11.82
  L 8.46 11.82
  A 0.59 0.59 0.0 0 0 7.87 12.41"
/>
<path stroke="#b09ded" vector-effect="non-scaling-stroke" d="
  M 11.5539 17.1841
  A 0.84 0.84 0.0 0 0 10.6979 16.3603
  L 8.6183 16.4003
  A 0.84 0.84 0.0 0 0 7.7946 17.2562
  L 7.8261 18.8959
  A 0.84 0.84 0.0 0 0 8.6821 19.7197
  L 10.7617 19.6797
  A 0.84 0.84 0.0 0 0 11.5854 18.8238
  L 11.5539 17.1841"
/>
</g>
<path fill="#623cdc" d="
  M 32.00 0.00
  L 32.00 32.00
  L 0.00 32.00
  L 0.00 0.00
  L 32.00 0.00
  Z
  M 4.95 19.82
  Q 4.61 19.79 4.31 20.11
  A 0.53 0.53 0.0 0 0 4.68 21.01
  Q 8.41 21.10 11.37 21.01
  C 14.13 20.93 14.88 17.38 12.57 15.85
  A 0.48 0.47 -43.3 0 1 12.60 15.04
  L 13.21 14.68
  A 0.92 0.90 77.4 0 0 13.67 13.94
  Q 13.83 10.94 10.52 10.71
  Q 7.29 10.49 4.60 10.72
  A 0.52 0.52 0.0 0 0 4.21 11.53
  Q 4.33 11.70 4.98 11.80
  A 1.03 1.03 0.0 0 1 5.85 12.82
  L 5.87 18.94
  A 0.88 0.87 0.9 0 1 4.95 19.82
  Z
  M 14.54 14.51
  L 15.74 14.51
  A 0.52 0.51 -90.0 0 1 16.25 15.03
  L 16.25 19.09
  A 0.33 0.31 75.9 0 1 16.09 19.37
  L 14.77 20.14
  A 0.49 0.49 0.0 0 0 15.02 21.06
  L 20.88 21.06
  A 0.78 0.75 21.7 0 0 21.42 20.84
  Q 21.59 20.66 21.61 20.64
  A 0.90 0.90 0.0 0 1 22.65 20.56
  C 25.22 22.04 27.31 21.96 27.83 18.61
  A 0.47 0.47 0.0 0 0 26.97 18.28
  L 26.40 19.16
  A 0.65 0.64 15.9 0 1 25.85 19.46
  L 22.42 19.46
  A 0.38 0.38 0.0 0 1 22.30 18.72
  Q 25.35 17.64 25.87 17.32
  C 28.27 15.87 27.62 13.10 25.28 12.27
  C 23.56 11.66 21.10 12.05 20.51 14.01
  Q 20.12 15.28 20.78 16.08
  A 1.16 1.12 19.4 0 0 22.80 15.16
  Q 22.79 15.14 22.26 14.13
  A 0.61 0.60 -11.2 0 1 22.85 13.25
  Q 24.42 13.38 24.86 13.88
  A 1.88 1.70 -29.8 0 1 23.94 16.68
  Q 21.39 17.62 20.46 19.50
  A 1.21 1.21 0.0 0 1 18.17 18.96
  L 18.17 12.46
  A 0.50 0.50 0.0 0 0 17.42 12.02
  L 14.35 13.79
  A 0.39 0.38 -59.9 0 0 14.54 14.51
  Z"
/>
<path fill="#fefdfe" d="
  M 5.87 18.94
  L 5.85 12.82
  A 1.03 1.03 0.0 0 0 4.98 11.80
  Q 4.33 11.70 4.21 11.53
  A 0.52 0.52 0.0 0 1 4.60 10.72
  Q 7.29 10.49 10.52 10.71
  Q 13.83 10.94 13.67 13.94
  A 0.92 0.90 77.4 0 1 13.21 14.68
  L 12.60 15.04
  A 0.48 0.47 -43.3 0 0 12.57 15.85
  C 14.88 17.38 14.13 20.93 11.37 21.01
  Q 8.41 21.10 4.68 21.01
  A 0.53 0.53 0.0 0 1 4.31 20.11
  Q 4.61 19.79 4.95 19.82
  A 0.88 0.87 0.9 0 0 5.87 18.94
  Z
  M 7.87 12.41
  L 7.87 14.45
  A 0.59 0.59 0.0 0 0 8.46 15.04
  L 9.52 15.04
  A 1.91 1.40 -0.1 0 0 11.43 13.64
  L 11.43 13.22
  A 1.91 1.40 -0.1 0 0 9.52 11.82
  L 8.46 11.82
  A 0.59 0.59 0.0 0 0 7.87 12.41
  Z
  M 11.5539 17.1841
  A 0.84 0.84 0.0 0 0 10.6979 16.3603
  L 8.6183 16.4003
  A 0.84 0.84 0.0 0 0 7.7946 17.2562
  L 7.8261 18.8959
  A 0.84 0.84 0.0 0 0 8.6821 19.7197
  L 10.7617 19.6797
  A 0.84 0.84 0.0 0 0 11.5854 18.8238
  L 11.5539 17.1841
  Z"
/>
<path fill="#623cdc" d="
  M 7.87 12.41
  A 0.59 0.59 0.0 0 1 8.46 11.82
  L 9.52 11.82
  A 1.91 1.40 -0.1 0 1 11.43 13.22
  L 11.43 13.64
  A 1.91 1.40 -0.1 0 1 9.52 15.04
  L 8.46 15.04
  A 0.59 0.59 0.0 0 1 7.87 14.45
  L 7.87 12.41
  Z"
/>
<path fill="#fefdfe" d="
  M 14.35 13.79
  L 17.42 12.02
  A 0.50 0.50 0.0 0 1 18.17 12.46
  L 18.17 18.96
  A 1.21 1.21 0.0 0 0 20.46 19.50
  Q 21.39 17.62 23.94 16.68
  A 1.88 1.70 -29.8 0 0 24.86 13.88
  Q 24.42 13.38 22.85 13.25
  A 0.61 0.60 -11.2 0 0 22.26 14.13
  Q 22.79 15.14 22.80 15.16
  A 1.16 1.12 19.4 0 1 20.78 16.08
  Q 20.12 15.28 20.51 14.01
  C 21.10 12.05 23.56 11.66 25.28 12.27
  C 27.62 13.10 28.27 15.87 25.87 17.32
  Q 25.35 17.64 22.30 18.72
  A 0.38 0.38 0.0 0 0 22.42 19.46
  L 25.85 19.46
  A 0.65 0.64 15.9 0 0 26.40 19.16
  L 26.97 18.28
  A 0.47 0.47 0.0 0 1 27.83 18.61
  C 27.31 21.96 25.22 22.04 22.65 20.56
  A 0.90 0.90 0.0 0 0 21.61 20.64
  Q 21.59 20.66 21.42 20.84
  A 0.78 0.75 21.7 0 1 20.88 21.06
  L 15.02 21.06
  A 0.49 0.49 0.0 0 1 14.77 20.14
  L 16.09 19.37
  A 0.33 0.31 75.9 0 0 16.25 19.09
  L 16.25 15.03
  A 0.52 0.51 90.0 0 0 15.74 14.51
  L 14.54 14.51
  A 0.39 0.38 -59.9 0 1 14.35 13.79
  Z"
/>
<rect fill="#623cdc" x="-1.88" y="-1.66" transform="translate(9.69,18.04) rotate(-1.1)" width="3.76" height="3.32" rx="0.84"/>
</svg>
