<?xml version="1.0" encoding="UTF-8" standalone="no"?>
<!DOCTYPE svg PUBLIC "-//W3C//DTD SVG 1.1//EN" "http://www.w3.org/Graphics/SVG/1.1/DTD/svg11.dtd">
<svg xmlns="http://www.w3.org/2000/svg" version="1.1" viewBox="0.00 0.00 128.00 128.00">
<g stroke-width="2.00" fill="none" stroke-linecap="butt">
<path stroke="#cea1f8" vector-effect="non-scaling-stroke" d="
  M 118.47 64.01
  A 54.46 54.46 0.0 0 0 64.01 9.55
  A 54.46 54.46 0.0 0 0 9.55 64.01
  A 54.46 54.46 0.0 0 0 64.01 118.47
  A 54.46 54.46 0.0 0 0 118.47 64.01"
/>
<path stroke="#cea1f8" vector-effect="non-scaling-stroke" d="
  M 64.68 43.89
  L 57.87 57.38
  A 0.30 0.30 0.0 0 1 57.40 57.46
  L 45.38 45.43
  A 0.48 0.48 0.0 0 0 44.59 45.62
  L 32.23 82.73
  A 0.28 0.28 0.0 0 0 32.49 83.10
  L 95.47 83.10
  A 0.30 0.30 0.0 0 0 95.75 82.69
  L 84.04 53.42
  A 17.78 17.26 18.4 0 0 82.55 50.55
  L 73.76 36.91"
/>
<path stroke="#bc7df6" vector-effect="non-scaling-stroke" d="
  M 73.76 36.91
  Q 76.06 34.00 75.42 30.53
  Q 74.16 23.73 68.22 21.30
  C 63.29 19.28 57.86 20.96 54.70 25.33
  Q 49.40 32.70 56.34 40.66
  Q 58.39 43.02 64.68 43.89"
/>
<path stroke="#eddbfd" vector-effect="non-scaling-stroke" d="
  M 73.76 36.91
  L 71.03 32.80
  A 0.70 0.69 40.6 0 0 69.82 32.89
  L 64.68 43.89"
/>
</g>
<path fill="#ffffff" d="
  M 128.00 0.00
  L 128.00 128.00
  L 0.00 128.00
  L 0.00 0.00
  L 128.00 0.00
  Z
  M 118.47 64.01
  A 54.46 54.46 0.0 0 0 64.01 9.55
  A 54.46 54.46 0.0 0 0 9.55 64.01
  A 54.46 54.46 0.0 0 0 64.01 118.47
  A 54.46 54.46 0.0 0 0 118.47 64.01
  Z"
/>
<path fill="#9d43f1" d="
  M 118.47 64.01
  A 54.46 54.46 0.0 0 1 64.01 118.47
  A 54.46 54.46 0.0 0 1 9.55 64.01
  A 54.46 54.46 0.0 0 1 64.01 9.55
  A 54.46 54.46 0.0 0 1 118.47 64.01
  Z
  M 64.68 43.89
  L 57.87 57.38
  A 0.30 0.30 0.0 0 1 57.40 57.46
  L 45.38 45.43
  A 0.48 0.48 0.0 0 0 44.59 45.62
  L 32.23 82.73
  A 0.28 0.28 0.0 0 0 32.49 83.10
  L 95.47 83.10
  A 0.30 0.30 0.0 0 0 95.75 82.69
  L 84.04 53.42
  A 17.78 17.26 18.4 0 0 82.55 50.55
  L 73.76 36.91
  Q 76.06 34.00 75.42 30.53
  Q 74.16 23.73 68.22 21.30
  C 63.29 19.28 57.86 20.96 54.70 25.33
  Q 49.40 32.70 56.34 40.66
  Q 58.39 43.02 64.68 43.89
  Z"
/>
<path fill="#dab6fa" d="
  M 73.76 36.91
  L 71.03 32.80
  A 0.70 0.69 40.6 0 0 69.82 32.89
  L 64.68 43.89
  Q 58.39 43.02 56.34 40.66
  Q 49.40 32.70 54.70 25.33
  C 57.86 20.96 63.29 19.28 68.22 21.30
  Q 74.16 23.73 75.42 30.53
  Q 76.06 34.00 73.76 36.91
  Z"
/>
<path fill="#ffffff" d="
  M 73.76 36.91
  L 82.55 50.55
  A 17.78 17.26 18.4 0 1 84.04 53.42
  L 95.75 82.69
  A 0.30 0.30 0.0 0 1 95.47 83.10
  L 32.49 83.10
  A 0.28 0.28 0.0 0 1 32.23 82.73
  L 44.59 45.62
  A 0.48 0.48 0.0 0 1 45.38 45.43
  L 57.40 57.46
  A 0.30 0.30 0.0 0 0 57.87 57.38
  L 64.68 43.89
  L 69.82 32.89
  A 0.70 0.69 40.6 0 1 71.03 32.80
  L 73.76 36.91
  Z"
/>
</svg>
