<?xml version="1.0" encoding="UTF-8" standalone="no"?>
<!DOCTYPE svg PUBLIC "-//W3C//DTD SVG 1.1//EN" "http://www.w3.org/Graphics/SVG/1.1/DTD/svg11.dtd">
<svg xmlns="http://www.w3.org/2000/svg" version="1.1" viewBox="0.00 0.00 32.00 32.00">
<g stroke-width="2.00" fill="none" stroke-linecap="butt">
<path stroke="#106856" vector-effect="non-scaling-stroke" d="
  M 4.51 14.86
  C 4.50 20.45 9.10 22.31 14.29 21.04
  A 1.46 1.46 0.0 0 0 15.41 19.62
  L 15.41 18.90
  A 0.64 0.64 0.0 0 0 14.47 18.34
  C 11.18 20.09 7.89 18.76 7.90 14.86
  C 7.91 10.97 11.21 9.65 14.48 11.42
  A 0.64 0.64 0.0 0 0 15.43 10.86
  L 15.43 10.14
  A 1.46 1.46 0.0 0 0 14.32 8.72
  C 9.13 7.43 4.52 9.26 4.51 14.86"
/>
<path stroke="#106856" vector-effect="non-scaling-stroke" d="
  M 20.92 21.29
  A 0.45 0.45 0.0 0 0 21.37 20.84
  L 21.37 16.31
  A 0.45 0.45 0.0 0 1 21.82 15.86
  L 26.19 15.86
  A 0.45 0.45 0.0 0 0 26.64 15.41
  L 26.64 13.74
  A 0.45 0.45 0.0 0 0 26.19 13.29
  L 21.74 13.29
  A 0.45 0.45 0.0 0 1 21.29 12.84
  L 21.29 11.40
  A 0.45 0.45 0.0 0 1 21.74 10.95
  L 26.56 10.95
  A 0.45 0.45 0.0 0 0 27.01 10.50
  L 27.01 8.90
  A 0.45 0.45 0.0 0 0 26.56 8.45
  L 18.54 8.45
  A 0.45 0.45 0.0 0 0 18.09 8.90
  L 18.09 20.84
  A 0.45 0.45 0.0 0 0 18.54 21.29
  L 20.92 21.29"
/>
</g>
<path fill="#0f172a" d="
  M 26.99 0.00
  Q 30.87 0.99 32.00 4.95
  L 32.00 26.98
  Q 31.01 30.86 27.04 32.00
  L 5.01 32.00
  Q 1.13 30.99 0.00 27.05
  L 0.00 5.01
  Q 1.00 1.12 4.95 0.00
  L 26.99 0.00
  Z
  M 4.51 14.86
  C 4.50 20.45 9.10 22.31 14.29 21.04
  A 1.46 1.46 0.0 0 0 15.41 19.62
  L 15.41 18.90
  A 0.64 0.64 0.0 0 0 14.47 18.34
  C 11.18 20.09 7.89 18.76 7.90 14.86
  C 7.91 10.97 11.21 9.65 14.48 11.42
  A 0.64 0.64 0.0 0 0 15.43 10.86
  L 15.43 10.14
  A 1.46 1.46 0.0 0 0 14.32 8.72
  C 9.13 7.43 4.52 9.26 4.51 14.86
  Z
  M 20.92 21.29
  A 0.45 0.45 0.0 0 0 21.37 20.84
  L 21.37 16.31
  A 0.45 0.45 0.0 0 1 21.82 15.86
  L 26.19 15.86
  A 0.45 0.45 0.0 0 0 26.64 15.41
  L 26.64 13.74
  A 0.45 0.45 0.0 0 0 26.19 13.29
  L 21.74 13.29
  A 0.45 0.45 0.0 0 1 21.29 12.84
  L 21.29 11.40
  A 0.45 0.45 0.0 0 1 21.74 10.95
  L 26.56 10.95
  A 0.45 0.45 0.0 0 0 27.01 10.50
  L 27.01 8.90
  A 0.45 0.45 0.0 0 0 26.56 8.45
  L 18.54 8.45
  A 0.45 0.45 0.0 0 0 18.09 8.90
  L 18.09 20.84
  A 0.45 0.45 0.0 0 0 18.54 21.29
  L 20.92 21.29
  Z"
/>
<path fill="#10b981" d="
  M 7.90 14.86
  C 7.89 18.76 11.18 20.09 14.47 18.34
  A 0.64 0.64 0.0 0 1 15.41 18.90
  L 15.41 19.62
  A 1.46 1.46 0.0 0 1 14.29 21.04
  C 9.10 22.31 4.50 20.45 4.51 14.86
  C 4.52 9.26 9.13 7.43 14.32 8.72
  A 1.46 1.46 0.0 0 1 15.43 10.14
  L 15.43 10.86
  A 0.64 0.64 0.0 0 1 14.48 11.42
  C 11.21 9.65 7.91 10.97 7.90 14.86
  Z"
/>
<path fill="#10b981" d="
  M 20.92 21.29
  L 18.54 21.29
  A 0.45 0.45 0.0 0 1 18.09 20.84
  L 18.09 8.90
  A 0.45 0.45 0.0 0 1 18.54 8.45
  L 26.56 8.45
  A 0.45 0.45 0.0 0 1 27.01 8.90
  L 27.01 10.50
  A 0.45 0.45 0.0 0 1 26.56 10.95
  L 21.74 10.95
  A 0.45 0.45 0.0 0 0 21.29 11.40
  L 21.29 12.84
  A 0.45 0.45 0.0 0 0 21.74 13.29
  L 26.19 13.29
  A 0.45 0.45 0.0 0 1 26.64 13.74
  L 26.64 15.41
  A 0.45 0.45 0.0 0 1 26.19 15.86
  L 21.82 15.86
  A 0.45 0.45 0.0 0 0 21.37 16.31
  L 21.37 20.84
  A 0.45 0.45 0.0 0 1 20.92 21.29
  Z"
/>
</svg>
