<?xml version="1.0" encoding="UTF-8" standalone="no"?>
<!DOCTYPE svg PUBLIC "-//W3C//DTD SVG 1.1//EN" "http://www.w3.org/Graphics/SVG/1.1/DTD/svg11.dtd">
<svg xmlns="http://www.w3.org/2000/svg" version="1.1" viewBox="0.00 0.00 512.00 512.00">
<g stroke-width="2.00" fill="none" stroke-linecap="butt">
<path stroke="#d079b8" vector-effect="non-scaling-stroke" d="
  M 494.96 296.00
  Q 495.18 294.39 495.11 293.50
  Q 493.13 268.59 485.86 244.70"
/>
<path stroke="#d886ba" vector-effect="non-scaling-stroke" d="
  M 485.86 244.70
  Q 476.42 213.43 455.84 188.40
  C 451.21 182.76 444.24 176.41 439.93 172.29
  Q 436.10 168.64 433.46 167.08
  Q 433.32 167.00 426.58 162.13
  Q 419.27 156.85 412.73 153.52
  C 407.21 150.70 398.82 146.71 391.31 143.83
  Q 376.40 138.11 359.47 134.87
  Q 347.95 132.66 337.32 131.12
  A 1.03 1.03 0.0 0 0 336.16 132.32
  Q 338.04 142.50 339.46 154.00
  Q 343.56 187.31 329.87 217.91
  Q 323.75 231.58 317.60 241.62
  Q 306.00 260.54 290.50 278.52"
/>
<path stroke="#d079b8" vector-effect="non-scaling-stroke" d="
  M 290.50 278.52
  C 287.94 281.23 285.62 284.66 283.31 286.99
  C 279.07 291.26 275.59 295.63 271.04 300.15
  Q 255.79 315.25 240.34 330.21"
/>
<path stroke="#c5297e" vector-effect="non-scaling-stroke" d="
  M 240.34 330.21
  Q 254.13 313.33 267.15 295.92
  Q 275.35 284.96 279.92 279.48
  Q 289.26 268.31 300.00 255.31
  Q 305.37 248.81 310.14 240.83
  Q 317.25 228.95 319.19 225.15
  Q 322.37 218.93 328.32 201.89
  Q 330.78 194.84 331.62 186.82
  Q 332.81 175.46 332.82 169.76
  Q 332.85 157.48 329.77 137.62
  C 327.90 125.51 334.92 123.95 344.86 125.44
  Q 368.86 129.03 391.90 136.99
  Q 399.88 139.75 404.76 142.12
  C 418.08 148.57 430.37 155.62 442.02 165.18
  C 451.38 172.87 461.66 185.17 469.68 193.75
  Q 472.11 196.36 475.03 198.50
  C 489.81 209.37 490.66 169.00 490.72 163.92
  A 2.54 2.46 -56.0 0 0 490.55 162.96
  Q 483.99 145.72 480.68 139.03
  C 474.46 126.44 466.33 112.59 457.15 100.95
  C 449.60 91.39 442.59 82.66 435.14 75.97
  C 428.32 69.85 424.09 65.62 417.79 60.93
  Q 413.15 57.47 405.30 51.70
  Q 401.52 48.92 390.17 42.19"
/>
<path stroke="#c92d83" vector-effect="non-scaling-stroke" d="
  M 390.17 42.19
  Q 383.08 38.27 375.88 34.14
  Q 369.76 30.64 353.19 24.46
  Q 351.14 23.70 345.12 21.15
  Q 337.99 18.12 317.25 13.11"
/>
<path stroke="#cd3287" vector-effect="non-scaling-stroke" d="
  M 317.25 13.11
  Q 311.89 11.64 309.95 11.34
  Q 293.01 8.73 283.02 7.98
  Q 280.63 7.80 274.27 7.07
  Q 264.61 5.95 248.67 6.74
  C 243.08 7.02 237.84 8.02 233.09 8.37
  Q 227.58 8.78 221.48 9.98
  Q 209.95 12.24 198.39 15.91
  Q 193.39 17.49 175.37 24.26
  C 168.09 27.00 163.18 29.92 155.53 33.31
  C 147.60 36.82 139.94 41.52 131.25 46.50
  Q 129.71 47.38 128.36 48.53
  A 0.29 0.24 4.7 0 1 128.29 48.58
  L 115.01 57.23"
/>
<path stroke="#c92d83" vector-effect="non-scaling-stroke" d="
  M 115.01 57.23
  L 108.35 53.94"
/>
<path stroke="#d83f93" vector-effect="non-scaling-stroke" d="
  M 317.25 13.11
  Q 309.66 22.99 301.53 32.40
  C 288.07 47.99 284.09 52.82 273.17 66.07
  C 259.11 83.15 245.43 98.45 227.26 119.16
  C 214.84 133.31 205.54 144.71 193.29 159.41
  C 183.94 170.62 168.05 185.41 157.10 200.16
  Q 140.56 222.44 120.78 244.57
  Q 108.97 257.79 92.26 276.85
  C 82.35 288.14 72.88 300.58 62.23 313.55
  Q 56.27 320.81 42.08 336.26
  Q 31.95 347.29 21.54 353.37
  A 0.34 0.33 -20.8 0 1 21.04 353.15
  Q 20.04 348.37 19.56 347.03
  C 14.21 331.77 11.40 316.35 9.14 298.30
  Q 6.19 274.80 6.07 252.80
  C 6.04 248.29 5.88 244.19 6.76 239.90
  Q 8.02 233.82 8.30 231.50
  Q 10.46 213.69 14.33 198.49
  C 15.47 194.01 16.97 190.14 18.02 186.20
  Q 19.28 181.44 21.04 177.07
  Q 28.13 159.42 29.53 156.71
  Q 36.83 142.49 37.15 141.77
  C 38.91 137.79 41.45 134.79 44.38 130.10
  C 48.94 122.81 54.33 114.64 60.17 108.12
  C 64.92 102.83 69.64 96.69 75.42 91.08
  Q 86.63 80.19 89.52 77.52
  Q 100.45 67.45 115.01 57.23"
/>
<path stroke="#d0368b" vector-effect="non-scaling-stroke" d="
  M 390.17 42.19
  Q 382.22 59.23 370.79 71.82
  Q 357.37 86.61 347.32 99.32
  C 338.76 110.14 331.09 119.76 325.90 125.83
  C 315.32 138.17 302.66 151.53 293.14 163.52
  C 285.58 173.06 276.95 184.58 268.11 194.78
  C 255.84 208.94 244.53 221.13 229.20 237.72
  Q 226.19 240.98 223.34 244.57
  C 214.41 255.81 207.02 265.61 196.39 278.34
  C 170.33 309.52 144.66 338.42 117.90 367.74
  Q 115.12 370.78 96.63 394.55
  Q 82.90 412.20 60.16 433.34"
/>
<path stroke="#d882c0" vector-effect="non-scaling-stroke" d="
  M 240.34 330.21
  Q 240.06 330.77 239.48 331.28"
/>
<path stroke="#d37ac0" vector-effect="non-scaling-stroke" d="
  M 239.48 331.28
  C 234.51 336.77 228.88 342.07 224.38 347.43
  Q 217.14 356.04 210.19 364.84"
/>
<path stroke="#cf74bf" vector-effect="non-scaling-stroke" d="
  M 210.19 364.84
  Q 208.74 366.52 207.59 368.33
  Q 199.97 380.28 199.70 380.69
  Q 196.28 386.00 190.41 399.40
  Q 187.17 406.82 185.17 418.76
  C 182.45 435.09 185.61 452.84 192.05 467.71
  Q 197.31 479.84 204.52 492.91"
/>
<path stroke="#ebdffc" vector-effect="non-scaling-stroke" d="
  M 485.86 244.70
  Q 474.33 255.70 462.54 266.52
  Q 451.50 276.64 437.45 284.16
  Q 405.75 301.14 370.83 299.80
  C 355.65 299.21 342.56 298.53 328.56 293.38
  Q 325.41 292.22 312.42 286.34
  Q 304.89 282.93 290.50 278.52"
/>
<path stroke="#decafa" vector-effect="non-scaling-stroke" d="
  M 479.22 352.44
  Q 464.25 358.59 449.23 364.30
  C 431.19 371.17 413.76 374.48 393.58 375.38
  C 382.47 375.88 368.18 376.41 356.18 375.91
  Q 310.67 373.98 270.90 350.72
  Q 265.45 347.53 254.33 339.43
  Q 250.61 336.71 239.48 331.28"
/>
<path stroke="#d6bdf9" vector-effect="non-scaling-stroke" d="
  M 449.62 402.97
  C 423.23 414.61 397.36 415.95 367.40 415.71
  Q 350.21 415.57 338.40 414.36
  Q 311.48 411.59 284.34 401.77
  Q 275.25 398.48 260.58 391.38
  Q 241.78 382.29 237.34 379.72
  Q 224.00 371.98 210.19 364.84"
/>
</g>
<path fill="#bd2076" d="
  M 278.14 0.00
  Q 290.65 1.59 303.12 3.70
  Q 324.22 7.27 343.61 13.64
  Q 343.76 13.69 362.41 20.80
  C 373.24 24.93 383.83 30.86 392.06 35.48
  Q 403.90 42.12 416.65 51.59
  Q 420.58 54.52 422.90 56.59
  C 427.63 60.83 432.61 64.32 437.82 69.31
  C 442.21 73.51 445.82 76.79 448.84 80.53
  C 452.63 85.20 456.38 88.97 460.28 93.99
  Q 471.65 108.64 479.32 122.15
  C 491.45 143.50 500.29 166.91 505.56 191.77
  Q 510.31 214.16 512.00 237.15
  L 512.00 272.99
  Q 511.38 280.42 510.72 287.84
  Q 510.38 291.77 508.69 296.40
  A 2.16 2.12 -6.4 0 1 507.82 297.47
  Q 504.08 299.85 499.71 298.73
  A 2.07 2.03 76.5 0 1 498.64 298.06
  Q 496.91 296.04 494.96 296.00
  Q 495.18 294.39 495.11 293.50
  Q 493.13 268.59 485.86 244.70
  Q 476.42 213.43 455.84 188.40
  C 451.21 182.76 444.24 176.41 439.93 172.29
  Q 436.10 168.64 433.46 167.08
  Q 433.32 167.00 426.58 162.13
  Q 419.27 156.85 412.73 153.52
  C 407.21 150.70 398.82 146.71 391.31 143.83
  Q 376.40 138.11 359.47 134.87
  Q 347.95 132.66 337.32 131.12
  A 1.03 1.03 0.0 0 0 336.16 132.32
  Q 338.04 142.50 339.46 154.00
  Q 343.56 187.31 329.87 217.91
  Q 323.75 231.58 317.60 241.62
  Q 306.00 260.54 290.50 278.52
  C 287.94 281.23 285.62 284.66 283.31 286.99
  C 279.07 291.26 275.59 295.63 271.04 300.15
  Q 255.79 315.25 240.34 330.21
  Q 254.13 313.33 267.15 295.92
  Q 275.35 284.96 279.92 279.48
  Q 289.26 268.31 300.00 255.31
  Q 305.37 248.81 310.14 240.83
  Q 317.25 228.95 319.19 225.15
  Q 322.37 218.93 328.32 201.89
  Q 330.78 194.84 331.62 186.82
  Q 332.81 175.46 332.82 169.76
  Q 332.85 157.48 329.77 137.62
  C 327.90 125.51 334.92 123.95 344.86 125.44
  Q 368.86 129.03 391.90 136.99
  Q 399.88 139.75 404.76 142.12
  C 418.08 148.57 430.37 155.62 442.02 165.18
  C 451.38 172.87 461.66 185.17 469.68 193.75
  Q 472.11 196.36 475.03 198.50
  C 489.81 209.37 490.66 169.00 490.72 163.92
  A 2.54 2.46 -56.0 0 0 490.55 162.96
  Q 483.99 145.72 480.68 139.03
  C 474.46 126.44 466.33 112.59 457.15 100.95
  C 449.60 91.39 442.59 82.66 435.14 75.97
  C 428.32 69.85 424.09 65.62 417.79 60.93
  Q 413.15 57.47 405.30 51.70
  Q 401.52 48.92 390.17 42.19
  Q 383.08 38.27 375.88 34.14
  Q 369.76 30.64 353.19 24.46
  Q 351.14 23.70 345.12 21.15
  Q 337.99 18.12 317.25 13.11
  Q 311.89 11.64 309.95 11.34
  Q 293.01 8.73 283.02 7.98
  Q 280.63 7.80 274.27 7.07
  Q 264.61 5.95 248.67 6.74
  C 243.08 7.02 237.84 8.02 233.09 8.37
  Q 227.58 8.78 221.48 9.98
  Q 209.95 12.24 198.39 15.91
  Q 193.39 17.49 175.37 24.26
  C 168.09 27.00 163.18 29.92 155.53 33.31
  C 147.60 36.82 139.94 41.52 131.25 46.50
  Q 129.71 47.38 128.36 48.53
  A 0.29 0.24 4.7 0 1 128.29 48.58
  L 115.01 57.23
  L 108.35 53.94
  Q 127.43 40.15 145.90 30.66
  Q 148.21 29.48 163.95 21.88
  C 169.47 19.22 174.62 17.53 180.46 15.24
  Q 204.53 5.83 230.32 1.88
  C 233.30 1.42 237.19 0.37 240.75 0.00
  L 278.14 0.00
  Z"
/>
<path fill="#dc4397" d="
  M 317.25 13.11
  Q 309.66 22.99 301.53 32.40
  C 288.07 47.99 284.09 52.82 273.17 66.07
  C 259.11 83.15 245.43 98.45 227.26 119.16
  C 214.84 133.31 205.54 144.71 193.29 159.41
  C 183.94 170.62 168.05 185.41 157.10 200.16
  Q 140.56 222.44 120.78 244.57
  Q 108.97 257.79 92.26 276.85
  C 82.35 288.14 72.88 300.58 62.23 313.55
  Q 56.27 320.81 42.08 336.26
  Q 31.95 347.29 21.54 353.37
  A 0.34 0.33 -20.8 0 1 21.04 353.15
  Q 20.04 348.37 19.56 347.03
  C 14.21 331.77 11.40 316.35 9.14 298.30
  Q 6.19 274.80 6.07 252.80
  C 6.04 248.29 5.88 244.19 6.76 239.90
  Q 8.02 233.82 8.30 231.50
  Q 10.46 213.69 14.33 198.49
  C 15.47 194.01 16.97 190.14 18.02 186.20
  Q 19.28 181.44 21.04 177.07
  Q 28.13 159.42 29.53 156.71
  Q 36.83 142.49 37.15 141.77
  C 38.91 137.79 41.45 134.79 44.38 130.10
  C 48.94 122.81 54.33 114.64 60.17 108.12
  C 64.92 102.83 69.64 96.69 75.42 91.08
  Q 86.63 80.19 89.52 77.52
  Q 100.45 67.45 115.01 57.23
  L 128.29 48.58
  A 0.29 0.24 4.7 0 0 128.36 48.53
  Q 129.71 47.38 131.25 46.50
  C 139.94 41.52 147.60 36.82 155.53 33.31
  C 163.18 29.92 168.09 27.00 175.37 24.26
  Q 193.39 17.49 198.39 15.91
  Q 209.95 12.24 221.48 9.98
  Q 227.58 8.78 233.09 8.37
  C 237.84 8.02 243.08 7.02 248.67 6.74
  Q 264.61 5.95 274.27 7.07
  Q 280.63 7.80 283.02 7.98
  Q 293.01 8.73 309.95 11.34
  Q 311.89 11.64 317.25 13.11
  Z"
/>
<path fill="#d43a8f" d="
  M 390.17 42.19
  Q 382.22 59.23 370.79 71.82
  Q 357.37 86.61 347.32 99.32
  C 338.76 110.14 331.09 119.76 325.90 125.83
  C 315.32 138.17 302.66 151.53 293.14 163.52
  C 285.58 173.06 276.95 184.58 268.11 194.78
  C 255.84 208.94 244.53 221.13 229.20 237.72
  Q 226.19 240.98 223.34 244.57
  C 214.41 255.81 207.02 265.61 196.39 278.34
  C 170.33 309.52 144.66 338.42 117.90 367.74
  Q 115.12 370.78 96.63 394.55
  Q 82.90 412.20 60.16 433.34
  C 48.99 420.93 39.07 407.43 31.30 392.54
  Q 25.71 381.82 23.25 376.52
  Q 9.65 347.19 4.07 311.28
  Q 2.71 302.53 2.12 297.65
  C 1.66 293.89 0.20 288.55 0.00 283.75
  L 0.00 243.05
  Q 1.33 230.62 3.39 218.23
  Q 6.91 197.05 13.13 179.29
  Q 19.20 161.95 23.82 152.77
  C 26.97 146.50 31.24 138.17 35.20 131.75
  C 48.71 109.88 65.68 89.05 85.54 72.09
  Q 97.11 62.21 99.33 60.57
  Q 103.86 57.19 108.35 53.94
  L 115.01 57.23
  Q 100.45 67.45 89.52 77.52
  Q 86.63 80.19 75.42 91.08
  C 69.64 96.69 64.92 102.83 60.17 108.12
  C 54.33 114.64 48.94 122.81 44.38 130.10
  C 41.45 134.79 38.91 137.79 37.15 141.77
  Q 36.83 142.49 29.53 156.71
  Q 28.13 159.42 21.04 177.07
  Q 19.28 181.44 18.02 186.20
  C 16.97 190.14 15.47 194.01 14.33 198.49
  Q 10.46 213.69 8.30 231.50
  Q 8.02 233.82 6.76 239.90
  C 5.88 244.19 6.04 248.29 6.07 252.80
  Q 6.19 274.80 9.14 298.30
  C 11.40 316.35 14.21 331.77 19.56 347.03
  Q 20.04 348.37 21.04 353.15
  A 0.34 0.33 -20.8 0 0 21.54 353.37
  Q 31.95 347.29 42.08 336.26
  Q 56.27 320.81 62.23 313.55
  C 72.88 300.58 82.35 288.14 92.26 276.85
  Q 108.97 257.79 120.78 244.57
  Q 140.56 222.44 157.10 200.16
  C 168.05 185.41 183.94 170.62 193.29 159.41
  C 205.54 144.71 214.84 133.31 227.26 119.16
  C 245.43 98.45 259.11 83.15 273.17 66.07
  C 284.09 52.82 288.07 47.99 301.53 32.40
  Q 309.66 22.99 317.25 13.11
  Q 337.99 18.12 345.12 21.15
  Q 351.14 23.70 353.19 24.46
  Q 369.76 30.64 375.88 34.14
  Q 383.08 38.27 390.17 42.19
  Z"
/>
<path fill="#cc3186" d="
  M 240.34 330.21
  Q 240.06 330.77 239.48 331.28
  C 234.51 336.77 228.88 342.07 224.38 347.43
  Q 217.14 356.04 210.19 364.84
  Q 208.74 366.52 207.59 368.33
  Q 199.97 380.28 199.70 380.69
  Q 196.28 386.00 190.41 399.40
  Q 187.17 406.82 185.17 418.76
  C 182.45 435.09 185.61 452.84 192.05 467.71
  Q 197.31 479.84 204.52 492.91
  Q 205.71 505.05 195.90 509.82
  C 191.13 512.14 186.10 510.59 181.45 508.79
  Q 175.62 506.54 169.84 504.39
  C 166.11 503.01 163.14 501.27 159.79 500.20
  Q 156.55 499.16 152.26 497.06
  Q 144.71 493.37 130.61 486.89
  C 128.30 485.83 125.62 483.76 122.75 482.17
  Q 106.49 473.20 96.44 465.54
  Q 83.11 455.39 78.75 451.76
  Q 69.61 444.14 60.16 433.34
  Q 82.90 412.20 96.63 394.55
  Q 115.12 370.78 117.90 367.74
  C 144.66 338.42 170.33 309.52 196.39 278.34
  C 207.02 265.61 214.41 255.81 223.34 244.57
  Q 226.19 240.98 229.20 237.72
  C 244.53 221.13 255.84 208.94 268.11 194.78
  C 276.95 184.58 285.58 173.06 293.14 163.52
  C 302.66 151.53 315.32 138.17 325.90 125.83
  C 331.09 119.76 338.76 110.14 347.32 99.32
  Q 357.37 86.61 370.79 71.82
  Q 382.22 59.23 390.17 42.19
  Q 401.52 48.92 405.30 51.70
  Q 413.15 57.47 417.79 60.93
  C 424.09 65.62 428.32 69.85 435.14 75.97
  C 442.59 82.66 449.60 91.39 457.15 100.95
  C 466.33 112.59 474.46 126.44 480.68 139.03
  Q 483.99 145.72 490.55 162.96
  A 2.54 2.46 -56.0 0 1 490.72 163.92
  C 490.66 169.00 489.81 209.37 475.03 198.50
  Q 472.11 196.36 469.68 193.75
  C 461.66 185.17 451.38 172.87 442.02 165.18
  C 430.37 155.62 418.08 148.57 404.76 142.12
  Q 399.88 139.75 391.90 136.99
  Q 368.86 129.03 344.86 125.44
  C 334.92 123.95 327.90 125.51 329.77 137.62
  Q 332.85 157.48 332.82 169.76
  Q 332.81 175.46 331.62 186.82
  Q 330.78 194.84 328.32 201.89
  Q 322.37 218.93 319.19 225.15
  Q 317.25 228.95 310.14 240.83
  Q 305.37 248.81 300.00 255.31
  Q 289.26 268.31 279.92 279.48
  Q 275.35 284.96 267.15 295.92
  Q 254.13 313.33 240.34 330.21
  Z"
/>
<path fill="#f3ebfd" d="
  M 485.86 244.70
  Q 474.33 255.70 462.54 266.52
  Q 451.50 276.64 437.45 284.16
  Q 405.75 301.14 370.83 299.80
  C 355.65 299.21 342.56 298.53 328.56 293.38
  Q 325.41 292.22 312.42 286.34
  Q 304.89 282.93 290.50 278.52
  Q 306.00 260.54 317.60 241.62
  Q 323.75 231.58 329.87 217.91
  Q 343.56 187.31 339.46 154.00
  Q 338.04 142.50 336.16 132.32
  A 1.03 1.03 0.0 0 1 337.32 131.12
  Q 347.95 132.66 359.47 134.87
  Q 376.40 138.11 391.31 143.83
  C 398.82 146.71 407.21 150.70 412.73 153.52
  Q 419.27 156.85 426.58 162.13
  Q 433.32 167.00 433.46 167.08
  Q 436.10 168.64 439.93 172.29
  C 444.24 176.41 451.21 182.76 455.84 188.40
  Q 476.42 213.43 485.86 244.70
  Z"
/>
<path fill="#e3d2fa" d="
  M 485.86 244.70
  Q 493.13 268.59 495.11 293.50
  Q 495.18 294.39 494.96 296.00
  Q 494.36 298.25 493.85 302.85
  Q 492.78 312.63 487.00 330.87
  Q 484.31 339.38 481.25 347.78
  Q 480.37 350.22 479.22 352.44
  Q 464.25 358.59 449.23 364.30
  C 431.19 371.17 413.76 374.48 393.58 375.38
  C 382.47 375.88 368.18 376.41 356.18 375.91
  Q 310.67 373.98 270.90 350.72
  Q 265.45 347.53 254.33 339.43
  Q 250.61 336.71 239.48 331.28
  Q 240.06 330.77 240.34 330.21
  Q 255.79 315.25 271.04 300.15
  C 275.59 295.63 279.07 291.26 283.31 286.99
  C 285.62 284.66 287.94 281.23 290.50 278.52
  Q 304.89 282.93 312.42 286.34
  Q 325.41 292.22 328.56 293.38
  C 342.56 298.53 355.65 299.21 370.83 299.80
  Q 405.75 301.14 437.45 284.16
  Q 451.50 276.64 462.54 266.52
  Q 474.33 255.70 485.86 244.70
  Z"
/>
<path fill="#d9c2f9" d="
  M 239.48 331.28
  Q 250.61 336.71 254.33 339.43
  Q 265.45 347.53 270.90 350.72
  Q 310.67 373.98 356.18 375.91
  C 368.18 376.41 382.47 375.88 393.58 375.38
  C 413.76 374.48 431.19 371.17 449.23 364.30
  Q 464.25 358.59 479.22 352.44
  Q 477.95 356.33 477.40 357.39
  Q 471.71 368.19 465.94 378.95
  Q 461.01 388.14 449.62 402.97
  C 423.23 414.61 397.36 415.95 367.40 415.71
  Q 350.21 415.57 338.40 414.36
  Q 311.48 411.59 284.34 401.77
  Q 275.25 398.48 260.58 391.38
  Q 241.78 382.29 237.34 379.72
  Q 224.00 371.98 210.19 364.84
  Q 217.14 356.04 224.38 347.43
  C 228.88 342.07 234.51 336.77 239.48 331.28
  Z"
/>
<path fill="#d2b7f8" d="
  M 210.19 364.84
  Q 224.00 371.98 237.34 379.72
  Q 241.78 382.29 260.58 391.38
  Q 275.25 398.48 284.34 401.77
  Q 311.48 411.59 338.40 414.36
  Q 350.21 415.57 367.40 415.71
  C 397.36 415.95 423.23 414.61 449.62 402.97
  Q 436.16 420.58 420.87 434.12
  Q 368.01 480.93 299.47 493.43
  Q 253.76 501.77 204.52 492.91
  Q 197.31 479.84 192.05 467.71
  C 185.61 452.84 182.45 435.09 185.17 418.76
  Q 187.17 406.82 190.41 399.40
  Q 196.28 386.00 199.70 380.69
  Q 199.97 380.28 207.59 368.33
  Q 208.74 366.52 210.19 364.84
  Z"
/>
</svg>
