<?xml version="1.0" encoding="UTF-8" standalone="no"?>
<!DOCTYPE svg PUBLIC "-//W3C//DTD SVG 1.1//EN" "http://www.w3.org/Graphics/SVG/1.1/DTD/svg11.dtd">
<svg xmlns="http://www.w3.org/2000/svg" version="1.1" viewBox="0.00 0.00 1200.00 1200.00">
<g stroke-width="2.00" fill="none" stroke-linecap="butt">
<path stroke="#2492b9" stroke-opacity="0.514" vector-effect="non-scaling-stroke" d="
  M 1097.16 187.11
  Q 1110.03 217.62 1110.03 248.25
  Q 1110.04 922.75 1110.06 932.01
  Q 1110.13 961.17 1108.55 971.92
  C 1101.03 1023.00 1070.89 1066.53 1025.71 1090.96
  Q 990.75 1109.86 950.26 1109.91
  Q 730.27 1110.18 269.48 1109.99
  Q 238.43 1109.98 228.22 1108.56
  C 148.22 1097.45 89.84 1029.20 89.91 948.75
  Q 89.95 896.82 89.96 248.25
  Q 89.96 219.94 101.15 191.19"
/>
<path stroke="#92cbdf" vector-effect="non-scaling-stroke" d="
  M 387.72 267.96
  A 38.60 38.60 0.0 0 0 328.25 300.43
  L 328.25 899.55
  A 38.60 38.60 0.0 0 0 387.72 932.02
  L 853.71 632.46
  A 38.60 38.60 0.0 0 0 853.71 567.52
  L 387.72 267.96"
/>
<path stroke="#92cbdf" vector-effect="non-scaling-stroke" d="
  M 405.66 370.61
  A 0.43 0.43 0.0 0 0 405.00 370.97
  L 405.00 828.99
  A 0.43 0.43 0.0 0 0 405.66 829.35
  L 761.89 600.34
  A 0.43 0.43 0.0 0 0 761.89 599.62
  L 405.66 370.61"
/>
</g>
<path fill="#2596be" d="
  M 1097.16 187.11
  Q 1110.03 217.62 1110.03 248.25
  Q 1110.04 922.75 1110.06 932.01
  Q 1110.13 961.17 1108.55 971.92
  C 1101.03 1023.00 1070.89 1066.53 1025.71 1090.96
  Q 990.75 1109.86 950.26 1109.91
  Q 730.27 1110.18 269.48 1109.99
  Q 238.43 1109.98 228.22 1108.56
  C 148.22 1097.45 89.84 1029.20 89.91 948.75
  Q 89.95 896.82 89.96 248.25
  Q 89.96 219.94 101.15 191.19
  Q 123.25 137.00 173.62 109.35
  Q 198.77 95.54 228.05 91.48
  Q 239.80 89.86 262.52 89.93
  Q 296.80 90.04 928.73 89.95
  Q 959.82 89.95 971.21 91.43
  C 1027.04 98.72 1074.65 135.28 1097.16 187.11
  Z
  M 387.72 267.96
  A 38.60 38.60 0.0 0 0 328.25 300.43
  L 328.25 899.55
  A 38.60 38.60 0.0 0 0 387.72 932.02
  L 853.71 632.46
  A 38.60 38.60 0.0 0 0 853.71 567.52
  L 387.72 267.96
  Z"
/>
<path fill="#000000" fill-opacity="0.027" d="
  M 101.15 191.19
  Q 89.96 219.94 89.96 248.25
  Q 89.95 896.82 89.91 948.75
  C 89.84 1029.20 148.22 1097.45 228.22 1108.56
  Q 238.43 1109.98 269.48 1109.99
  Q 730.27 1110.18 950.26 1109.91
  Q 990.75 1109.86 1025.71 1090.96
  C 1070.89 1066.53 1101.03 1023.00 1108.55 971.92
  Q 1110.13 961.17 1110.06 932.01
  Q 1110.04 922.75 1110.03 248.25
  Q 1110.03 217.62 1097.16 187.11
  C 1117.98 225.66 1126.99 268.99 1128.21 313.07
  Q 1129.00 341.98 1129.00 353.62
  Q 1128.98 879.05 1129.02 915.23
  Q 1129.05 950.53 1127.43 982.03
  Q 1126.79 994.59 1124.39 1009.97
  C 1119.77 1039.72 1110.27 1066.65 1091.08 1088.92
  Q 1078.88 1103.09 1062.30 1115.77
  Q 1044.82 1129.13 1029.63 1137.61
  C 1002.67 1152.65 973.99 1159.53 941.50 1161.27
  C 909.83 1162.97 878.55 1163.92 843.26 1163.86
  Q 695.15 1163.58 637.96 1163.85
  Q 524.14 1164.38 466.93 1164.12
  Q 405.85 1163.83 345.07 1163.79
  Q 315.94 1163.77 280.56 1162.01
  Q 243.84 1160.18 230.14 1157.91
  Q 205.27 1153.80 181.62 1143.78
  C 163.57 1136.13 147.69 1126.00 130.04 1112.85
  C 113.29 1100.38 100.39 1085.88 91.95 1066.71
  C 78.64 1036.49 73.15 1004.30 71.96 970.50
  C 71.01 943.53 71.01 916.30 71.01 889.02
  Q 70.98 639.58 71.01 385.78
  C 71.02 318.42 68.17 251.31 101.15 191.19
  Z"
/>
<path fill="#ffffff" d="
  M 387.72 267.96
  L 853.71 567.52
  A 38.60 38.60 0.0 0 1 853.71 632.46
  L 387.72 932.02
  A 38.60 38.60 0.0 0 1 328.25 899.55
  L 328.25 300.43
  A 38.60 38.60 0.0 0 1 387.72 267.96
  Z
  M 405.66 370.61
  A 0.43 0.43 0.0 0 0 405.00 370.97
  L 405.00 828.99
  A 0.43 0.43 0.0 0 0 405.66 829.35
  L 761.89 600.34
  A 0.43 0.43 0.0 0 0 761.89 599.62
  L 405.66 370.61
  Z"
/>
<path fill="#2596be" d="
  M 405.66 370.61
  L 761.89 599.62
  A 0.43 0.43 0.0 0 1 761.89 600.34
  L 405.66 829.35
  A 0.43 0.43 0.0 0 1 405.00 828.99
  L 405.00 370.97
  A 0.43 0.43 0.0 0 1 405.66 370.61
  Z"
/>
</svg>
