<?xml version="1.0" encoding="UTF-8" standalone="no"?>
<!DOCTYPE svg PUBLIC "-//W3C//DTD SVG 1.1//EN" "http://www.w3.org/Graphics/SVG/1.1/DTD/svg11.dtd">
<svg xmlns="http://www.w3.org/2000/svg" version="1.1" viewBox="0.00 0.00 32.00 32.00">
<g stroke-width="2.00" fill="none" stroke-linecap="butt">
<path stroke="#6c97f4" vector-effect="non-scaling-stroke" d="
  M 8.00 23.78
  L 11.67 20.11
  A 1.44 1.42 -67.3 0 1 12.68 19.69
  Q 20.56 19.72 21.72 19.79
  Q 24.47 19.94 24.62 17.79
  Q 24.98 12.77 24.63 9.02
  A 1.88 1.88 0.0 0 0 22.76 7.32
  L 9.09 7.32
  A 1.82 1.82 0.0 0 0 7.27 9.14
  L 7.27 23.48
  A 0.43 0.43 0.0 0 0 8.00 23.78"
/>
<path stroke="#6c97f4" vector-effect="non-scaling-stroke" d="
  M 8.95 21.20
  L 11.33 18.82
  A 1.55 1.53 22.3 0 1 12.42 18.37
  L 22.55 18.37
  A 0.68 0.67 0.0 0 0 23.23 17.70
  L 23.23 9.36
  A 0.55 0.55 0.0 0 0 22.68 8.81
  L 9.28 8.81
  A 0.57 0.57 0.0 0 0 8.71 9.38
  L 8.71 21.10
  A 0.14 0.14 0.0 0 0 8.95 21.20"
/>
</g>
<path fill="#2563eb" d="
  M 25.18 0.00
  Q 30.61 1.27 32.00 6.77
  L 32.00 25.16
  Q 30.74 30.60 25.22 32.00
  L 6.83 32.00
  Q 1.40 30.74 0.00 25.23
  L 0.00 6.83
  Q 1.27 1.39 6.77 0.00
  L 25.18 0.00
  Z
  M 8.00 23.78
  L 11.67 20.11
  A 1.44 1.42 -67.3 0 1 12.68 19.69
  Q 20.56 19.72 21.72 19.79
  Q 24.47 19.94 24.62 17.79
  Q 24.98 12.77 24.63 9.02
  A 1.88 1.88 0.0 0 0 22.76 7.32
  L 9.09 7.32
  A 1.82 1.82 0.0 0 0 7.27 9.14
  L 7.27 23.48
  A 0.43 0.43 0.0 0 0 8.00 23.78
  Z"
/>
<path fill="#b3cafc" d="
  M 7.27 23.48
  L 7.27 9.14
  A 1.82 1.82 0.0 0 1 9.09 7.32
  L 22.76 7.32
  A 1.88 1.88 0.0 0 1 24.63 9.02
  Q 24.98 12.77 24.62 17.79
  Q 24.47 19.94 21.72 19.79
  Q 20.56 19.72 12.68 19.69
  A 1.44 1.42 -67.3 0 0 11.67 20.11
  L 8.00 23.78
  A 0.43 0.43 0.0 0 1 7.27 23.48
  Z
  M 8.95 21.20
  L 11.33 18.82
  A 1.55 1.53 22.3 0 1 12.42 18.37
  L 22.55 18.37
  A 0.68 0.67 0.0 0 0 23.23 17.70
  L 23.23 9.36
  A 0.55 0.55 0.0 0 0 22.68 8.81
  L 9.28 8.81
  A 0.57 0.57 0.0 0 0 8.71 9.38
  L 8.71 21.10
  A 0.14 0.14 0.0 0 0 8.95 21.20
  Z"
/>
<path fill="#2563eb" d="
  M 8.71 21.10
  L 8.71 9.38
  A 0.57 0.57 0.0 0 1 9.28 8.81
  L 22.68 8.81
  A 0.55 0.55 0.0 0 1 23.23 9.36
  L 23.23 17.70
  A 0.68 0.67 -0.0 0 1 22.55 18.37
  L 12.42 18.37
  A 1.55 1.53 22.3 0 0 11.33 18.82
  L 8.95 21.20
  A 0.14 0.14 0.0 0 1 8.71 21.10
  Z"
/>
</svg>
