<?xml version="1.0" encoding="UTF-8" standalone="no"?>
<!DOCTYPE svg PUBLIC "-//W3C//DTD SVG 1.1//EN" "http://www.w3.org/Graphics/SVG/1.1/DTD/svg11.dtd">
<svg xmlns="http://www.w3.org/2000/svg" version="1.1" viewBox="0.00 0.00 451.00 451.00">
<path fill="#cf7949" d="
  M 270.34 240.03
  Q 270.65 243.69 268.98 245.49
  Q 260.20 254.92 231.82 283.81
  Q 210.21 305.82 179.45 308.08
  C 173.24 308.53 165.45 309.21 161.75 309.26
  Q 132.31 309.60 101.50 309.49
  Q 75.50 309.40 52.25 298.73
  C 37.08 291.77 27.76 278.40 22.45 262.01
  C 16.88 244.86 15.02 227.84 17.26 209.49
  C 22.52 166.31 45.26 129.27 76.09 98.83
  C 90.33 84.76 106.05 71.39 122.52 62.29
  Q 128.83 58.80 146.76 50.07
  C 170.93 38.30 196.76 29.65 222.22 25.96
  Q 245.38 22.59 266.14 21.44
  Q 281.95 20.57 300.53 22.67
  Q 322.96 25.20 349.01 30.40
  C 358.93 32.38 364.75 34.68 374.97 38.82
  Q 383.97 42.47 389.20 45.81
  C 391.51 47.28 393.18 49.37 390.29 51.32
  Q 388.62 52.45 384.52 54.50
  Q 334.55 79.54 308.51 92.02
  C 305.06 93.68 299.89 94.14 295.29 94.28
  Q 277.63 94.81 257.75 96.00
  C 238.57 97.15 220.36 102.22 202.39 109.37
  Q 166.39 123.69 138.86 151.05
  Q 120.55 169.26 111.82 193.07
  C 105.97 209.04 110.88 226.58 127.70 232.82
  Q 134.04 235.17 137.10 235.60
  Q 137.32 235.63 142.57 236.14
  Q 146.18 236.48 148.05 236.52
  Q 187.35 237.24 201.75 236.94
  Q 217.90 236.59 221.76 236.71
  Q 232.94 237.06 241.76 236.99
  Q 253.68 236.89 266.31 238.18
  Q 267.76 238.33 269.82 239.28
  A 0.90 0.89 -80.0 0 1 270.34 240.03
  Z"
/>
<path fill="#cf7949" d="
  M 68.21 396.31
  C 65.18 394.08 66.32 391.14 69.37 389.63
  Q 95.49 376.68 131.25 359.72
  C 141.71 354.76 148.41 351.16 158.57 352.62
  Q 160.45 352.89 172.19 354.24
  Q 179.68 355.10 185.84 355.05
  Q 199.83 354.95 203.95 354.59
  C 212.39 353.84 224.14 352.53 232.30 350.75
  C 260.93 344.49 288.71 330.46 308.68 308.80
  C 324.66 291.46 339.11 270.74 342.99 247.03
  C 344.93 235.22 341.21 224.32 331.84 216.85
  C 327.75 213.59 322.64 213.80 317.75 213.60
  Q 302.67 212.99 266.10 212.99
  C 260.93 212.99 253.12 212.55 246.64 212.80
  Q 241.43 213.01 238.85 213.01
  Q 188.17 212.98 183.16 213.02
  C 177.42 213.07 172.92 212.12 173.79 205.55
  A 2.98 2.95 -24.6 0 1 174.27 204.28
  Q 175.93 201.84 176.49 201.24
  Q 197.59 178.80 211.19 165.46
  C 217.67 159.09 228.68 151.81 238.18 151.17
  C 240.86 150.99 244.34 150.51 247.60 150.50
  Q 264.26 150.46 280.22 150.53
  Q 285.51 150.56 289.74 149.84
  Q 295.47 148.87 299.26 148.99
  Q 322.69 149.72 352.00 149.47
  Q 355.55 149.44 375.72 150.56
  Q 393.90 151.57 399.10 153.09
  C 427.35 161.40 436.78 191.14 435.41 217.73
  Q 434.33 238.81 428.07 259.32
  C 418.69 290.07 403.53 319.26 382.39 343.68
  Q 348.11 383.28 302.75 404.77
  Q 258.89 425.55 210.86 429.12
  Q 192.20 430.51 171.69 429.81
  C 135.56 428.59 97.33 417.78 68.21 396.31
  Z"
/>
</svg>
