<?xml version="1.0" encoding="UTF-8" standalone="no"?>
<!DOCTYPE svg PUBLIC "-//W3C//DTD SVG 1.1//EN" "http://www.w3.org/Graphics/SVG/1.1/DTD/svg11.dtd">
<svg xmlns="http://www.w3.org/2000/svg" version="1.1" viewBox="0.00 0.00 192.00 192.00">
<g stroke-width="2.00" fill="none" stroke-linecap="butt">
<path stroke="#96c7f1" vector-effect="non-scaling-stroke" d="
  M 147.29 115.20
  Q 149.52 115.24 151.15 114.54"
/>
<path stroke="#858586" vector-effect="non-scaling-stroke" d="
  M 151.15 114.54
  Q 160.86 111.35 164.15 102.89
  Q 165.52 99.37 165.50 91.97
  Q 165.48 84.01 165.51 76.34
  Q 165.52 75.75 166.08 75.60
  C 170.01 74.51 171.17 73.30 171.25 69.02
  Q 171.45 58.64 171.31 48.24
  C 171.26 44.46 169.89 42.15 166.06 41.77
  Q 165.55 41.72 165.54 41.21
  C 165.36 30.94 167.16 22.68 159.25 15.25
  Q 153.77 10.09 147.00 10.04
  Q 124.88 9.86 47.02 10.05
  Q 41.44 10.06 38.18 11.35
  C 24.66 16.70 25.72 28.58 25.83 41.09
  Q 25.83 41.61 25.35 41.80
  Q 25.12 41.89 24.88 41.91
  C 21.13 42.13 20.03 45.07 20.00 48.48
  Q 19.90 58.62 20.00 68.75
  Q 20.06 74.75 25.28 75.57
  Q 25.79 75.65 25.79 76.16
  Q 25.78 83.97 25.79 91.79
  C 25.80 102.04 28.32 110.04 38.21 113.80
  Q 41.92 115.21 49.23 115.22
  Q 61.08 115.24 72.97 115.19
  Q 73.74 115.19 73.74 115.96
  L 73.70 119.49
  A 0.66 0.65 3.1 0 1 72.97 120.14
  C 70.32 119.84 66.83 121.60 62.74 123.34
  Q 62.31 123.52 62.15 123.96
  L 61.93 124.56
  A 0.78 0.78 0.0 0 1 61.12 125.06
  L 58.99 124.85
  Q 58.53 124.80 58.53 125.26
  L 58.51 128.00
  Q 58.51 128.57 57.95 128.68
  Q 44.87 131.47 45.68 144.94
  Q 45.71 145.38 45.38 145.68
  L 40.50 150.19
  Q 40.13 150.53 40.13 151.03
  L 40.11 162.20
  A 1.16 1.15 22.8 0 0 40.46 163.05
  L 43.73 166.29
  A 2.23 2.19 66.0 0 0 45.35 166.93
  Q 48.88 166.83 52.51 166.98
  C 56.13 167.12 55.23 161.56 55.43 159.48
  Q 55.49 158.96 56.01 159.01
  L 58.41 159.21
  Q 58.97 159.25 58.98 158.69
  Q 59.10 154.15 58.96 149.59
  C 58.87 146.53 57.89 146.35 55.16 146.17
  Q 54.66 146.14 54.58 145.63
  C 54.18 142.72 54.29 138.67 58.10 137.74
  Q 58.51 137.64 58.51 138.06
  L 58.52 141.78
  Q 58.52 142.29 59.03 142.29
  L 61.98 142.27
  Q 62.45 142.27 62.46 142.75
  C 62.55 147.49 61.68 155.54 63.47 157.68
  Q 65.28 159.84 67.12 162.03
  Q 67.44 162.40 67.44 162.89
  L 67.45 168.71
  Q 67.45 169.33 66.83 169.35
  Q 59.90 169.60 54.71 174.12
  Q 54.32 174.46 54.32 174.99
  L 54.34 181.43
  Q 54.34 182.02 54.93 182.02
  L 93.26 182.02
  A 0.28 0.27 90.0 0 0 93.53 181.74
  L 93.54 167.98
  Q 93.54 167.50 94.02 167.50
  L 97.76 167.51
  Q 98.26 167.51 98.26 168.01
  L 98.26 181.51
  Q 98.26 182.02 98.76 182.02
  L 136.99 182.02
  Q 137.50 182.02 137.50 181.51
  L 137.50 175.03
  A 1.18 1.16 21.2 0 0 137.11 174.16
  Q 131.97 169.45 124.92 169.87
  Q 124.44 169.90 124.44 169.41
  L 124.48 162.94
  Q 124.48 162.44 124.81 162.07
  L 128.84 157.49
  A 2.44 2.42 66.9 0 0 129.44 155.97
  L 129.86 142.93
  Q 129.87 142.47 130.33 142.43
  L 132.64 142.24
  Q 133.23 142.19 133.24 141.61
  L 133.29 138.44
  Q 133.30 137.21 134.44 137.71
  C 137.59 139.13 138.42 142.50 137.32 145.57
  Q 137.17 145.96 136.76 146.08
  L 134.37 146.74
  A 1.27 1.26 83.1 0 0 133.45 147.92
  L 133.15 158.51
  Q 133.13 159.14 133.76 159.10
  L 136.20 158.97
  Q 136.67 158.95 136.71 159.41
  C 136.98 162.48 135.54 166.65 140.28 166.83
  Q 143.81 166.97 147.36 166.82
  Q 147.88 166.80 148.24 166.43
  L 151.71 162.98
  A 1.41 1.37 -23.5 0 0 152.11 162.01
  L 152.13 151.27
  A 1.03 1.01 26.6 0 0 151.91 150.64
  Q 149.82 147.88 146.92 146.03
  Q 146.49 145.76 146.52 145.24
  Q 147.46 131.12 133.85 128.69
  Q 133.30 128.59 133.29 128.03
  L 133.27 125.49
  Q 133.27 124.95 132.74 124.97
  L 130.90 125.05
  A 0.96 0.93 -15.7 0 1 130.05 124.59
  Q 129.44 123.55 128.00 122.94
  C 124.36 121.41 121.28 119.91 118.84 120.12
  Q 118.16 120.17 118.16 119.50
  L 118.13 115.86
  Q 118.12 115.21 118.77 115.21
  L 147.29 115.20"
/>
<path stroke="#1c4d77" vector-effect="non-scaling-stroke" d="
  M 151.15 114.54
  L 147.29 115.20"
/>
<path stroke="#858586" vector-effect="non-scaling-stroke" d="
  M 158.64 33.47
  A 14.16 14.16 0.0 0 0 144.48 19.31
  L 46.88 19.31
  A 14.16 14.16 0.0 0 0 32.72 33.47
  L 32.72 91.13
  A 14.16 14.16 0.0 0 0 46.88 105.29
  L 144.48 105.29
  A 14.16 14.16 0.0 0 0 158.64 91.13
  L 158.64 33.47"
/>
<path stroke="#96c7f1" vector-effect="non-scaling-stroke" d="
  M 69.1000 77.4100
  A 15.11 8.66 90.0 0 0 77.7600 62.3000
  A 15.11 8.66 90.0 0 0 69.1000 47.1900
  A 15.11 8.66 90.0 0 0 60.4400 62.3000
  A 15.11 8.66 90.0 0 0 69.1000 77.4100"
/>
<path stroke="#96c7f1" vector-effect="non-scaling-stroke" d="
  M 122.2500 77.4100
  A 15.10 8.65 90.0 0 0 130.9000 62.3100
  A 15.10 8.65 90.0 0 0 122.2500 47.2100
  A 15.10 8.65 90.0 0 0 113.6000 62.3100
  A 15.10 8.65 90.0 0 0 122.2500 77.4100"
/>
</g>
<path fill="#ffffff" d="
  M 38.89 0.00
  L 153.23 0.00
  C 174.38 2.62 189.71 17.69 192.00 38.88
  L 192.00 153.23
  C 189.00 174.77 174.85 189.24 153.12 192.00
  L 38.76 192.00
  C 17.50 189.20 2.77 174.79 0.00 153.37
  L 0.00 38.76
  C 2.39 17.60 17.70 2.54 38.89 0.00
  Z
  M 147.29 115.20
  Q 149.52 115.24 151.15 114.54
  Q 160.86 111.35 164.15 102.89
  Q 165.52 99.37 165.50 91.97
  Q 165.48 84.01 165.51 76.34
  Q 165.52 75.75 166.08 75.60
  C 170.01 74.51 171.17 73.30 171.25 69.02
  Q 171.45 58.64 171.31 48.24
  C 171.26 44.46 169.89 42.15 166.06 41.77
  Q 165.55 41.72 165.54 41.21
  C 165.36 30.94 167.16 22.68 159.25 15.25
  Q 153.77 10.09 147.00 10.04
  Q 124.88 9.86 47.02 10.05
  Q 41.44 10.06 38.18 11.35
  C 24.66 16.70 25.72 28.58 25.83 41.09
  Q 25.83 41.61 25.35 41.80
  Q 25.12 41.89 24.88 41.91
  C 21.13 42.13 20.03 45.07 20.00 48.48
  Q 19.90 58.62 20.00 68.75
  Q 20.06 74.75 25.28 75.57
  Q 25.79 75.65 25.79 76.16
  Q 25.78 83.97 25.79 91.79
  C 25.80 102.04 28.32 110.04 38.21 113.80
  Q 41.92 115.21 49.23 115.22
  Q 61.08 115.24 72.97 115.19
  Q 73.74 115.19 73.74 115.96
  L 73.70 119.49
  A 0.66 0.65 3.1 0 1 72.97 120.14
  C 70.32 119.84 66.83 121.60 62.74 123.34
  Q 62.31 123.52 62.15 123.96
  L 61.93 124.56
  A 0.78 0.78 0.0 0 1 61.12 125.06
  L 58.99 124.85
  Q 58.53 124.80 58.53 125.26
  L 58.51 128.00
  Q 58.51 128.57 57.95 128.68
  Q 44.87 131.47 45.68 144.94
  Q 45.71 145.38 45.38 145.68
  L 40.50 150.19
  Q 40.13 150.53 40.13 151.03
  L 40.11 162.20
  A 1.16 1.15 22.8 0 0 40.46 163.05
  L 43.73 166.29
  A 2.23 2.19 66.0 0 0 45.35 166.93
  Q 48.88 166.83 52.51 166.98
  C 56.13 167.12 55.23 161.56 55.43 159.48
  Q 55.49 158.96 56.01 159.01
  L 58.41 159.21
  Q 58.97 159.25 58.98 158.69
  Q 59.10 154.15 58.96 149.59
  C 58.87 146.53 57.89 146.35 55.16 146.17
  Q 54.66 146.14 54.58 145.63
  C 54.18 142.72 54.29 138.67 58.10 137.74
  Q 58.51 137.64 58.51 138.06
  L 58.52 141.78
  Q 58.52 142.29 59.03 142.29
  L 61.98 142.27
  Q 62.45 142.27 62.46 142.75
  C 62.55 147.49 61.68 155.54 63.47 157.68
  Q 65.28 159.84 67.12 162.03
  Q 67.44 162.40 67.44 162.89
  L 67.45 168.71
  Q 67.45 169.33 66.83 169.35
  Q 59.90 169.60 54.71 174.12
  Q 54.32 174.46 54.32 174.99
  L 54.34 181.43
  Q 54.34 182.02 54.93 182.02
  L 93.26 182.02
  A 0.28 0.27 90.0 0 0 93.53 181.74
  L 93.54 167.98
  Q 93.54 167.50 94.02 167.50
  L 97.76 167.51
  Q 98.26 167.51 98.26 168.01
  L 98.26 181.51
  Q 98.26 182.02 98.76 182.02
  L 136.99 182.02
  Q 137.50 182.02 137.50 181.51
  L 137.50 175.03
  A 1.18 1.16 21.2 0 0 137.11 174.16
  Q 131.97 169.45 124.92 169.87
  Q 124.44 169.90 124.44 169.41
  L 124.48 162.94
  Q 124.48 162.44 124.81 162.07
  L 128.84 157.49
  A 2.44 2.42 66.9 0 0 129.44 155.97
  L 129.86 142.93
  Q 129.87 142.47 130.33 142.43
  L 132.64 142.24
  Q 133.23 142.19 133.24 141.61
  L 133.29 138.44
  Q 133.30 137.21 134.44 137.71
  C 137.59 139.13 138.42 142.50 137.32 145.57
  Q 137.17 145.96 136.76 146.08
  L 134.37 146.74
  A 1.27 1.26 83.1 0 0 133.45 147.92
  L 133.15 158.51
  Q 133.13 159.14 133.76 159.10
  L 136.20 158.97
  Q 136.67 158.95 136.71 159.41
  C 136.98 162.48 135.54 166.65 140.28 166.83
  Q 143.81 166.97 147.36 166.82
  Q 147.88 166.80 148.24 166.43
  L 151.71 162.98
  A 1.41 1.37 -23.5 0 0 152.11 162.01
  L 152.13 151.27
  A 1.03 1.01 26.6 0 0 151.91 150.64
  Q 149.82 147.88 146.92 146.03
  Q 146.49 145.76 146.52 145.24
  Q 147.46 131.12 133.85 128.69
  Q 133.30 128.59 133.29 128.03
  L 133.27 125.49
  Q 133.27 124.95 132.74 124.97
  L 130.90 125.05
  A 0.96 0.93 -15.7 0 1 130.05 124.59
  Q 129.44 123.55 128.00 122.94
  C 124.36 121.41 121.28 119.91 118.84 120.12
  Q 118.16 120.17 118.16 119.50
  L 118.13 115.86
  Q 118.12 115.21 118.77 115.21
  L 147.29 115.20
  Z"
/>
<path fill="#0a0a0c" d="
  M 151.15 114.54
  L 147.29 115.20
  L 118.77 115.21
  Q 118.12 115.21 118.13 115.86
  L 118.16 119.50
  Q 118.16 120.17 118.84 120.12
  C 121.28 119.91 124.36 121.41 128.00 122.94
  Q 129.44 123.55 130.05 124.59
  A 0.96 0.93 -15.7 0 0 130.90 125.05
  L 132.74 124.97
  Q 133.27 124.95 133.27 125.49
  L 133.29 128.03
  Q 133.30 128.59 133.85 128.69
  Q 147.46 131.12 146.52 145.24
  Q 146.49 145.76 146.92 146.03
  Q 149.82 147.88 151.91 150.64
  A 1.03 1.01 26.6 0 1 152.13 151.27
  L 152.11 162.01
  A 1.41 1.37 -23.5 0 1 151.71 162.98
  L 148.24 166.43
  Q 147.88 166.80 147.36 166.82
  Q 143.81 166.97 140.28 166.83
  C 135.54 166.65 136.98 162.48 136.71 159.41
  Q 136.67 158.95 136.20 158.97
  L 133.76 159.10
  Q 133.13 159.14 133.15 158.51
  L 133.45 147.92
  A 1.27 1.26 83.1 0 1 134.37 146.74
  L 136.76 146.08
  Q 137.17 145.96 137.32 145.57
  C 138.42 142.50 137.59 139.13 134.44 137.71
  Q 133.30 137.21 133.29 138.44
  L 133.24 141.61
  Q 133.23 142.19 132.64 142.24
  L 130.33 142.43
  Q 129.87 142.47 129.86 142.93
  L 129.44 155.97
  A 2.44 2.42 66.9 0 1 128.84 157.49
  L 124.81 162.07
  Q 124.48 162.44 124.48 162.94
  L 124.44 169.41
  Q 124.44 169.90 124.92 169.87
  Q 131.97 169.45 137.11 174.16
  A 1.18 1.16 21.2 0 1 137.50 175.03
  L 137.50 181.51
  Q 137.50 182.02 136.99 182.02
  L 98.76 182.02
  Q 98.26 182.02 98.26 181.51
  L 98.26 168.01
  Q 98.26 167.51 97.76 167.51
  L 94.02 167.50
  Q 93.54 167.50 93.54 167.98
  L 93.53 181.74
  A 0.28 0.27 -90.0 0 1 93.26 182.02
  L 54.93 182.02
  Q 54.34 182.02 54.34 181.43
  L 54.32 174.99
  Q 54.32 174.46 54.71 174.12
  Q 59.90 169.60 66.83 169.35
  Q 67.45 169.33 67.45 168.71
  L 67.44 162.89
  Q 67.44 162.40 67.12 162.03
  Q 65.28 159.84 63.47 157.68
  C 61.68 155.54 62.55 147.49 62.46 142.75
  Q 62.45 142.27 61.98 142.27
  L 59.03 142.29
  Q 58.52 142.29 58.52 141.78
  L 58.51 138.06
  Q 58.51 137.64 58.10 137.74
  C 54.29 138.67 54.18 142.72 54.58 145.63
  Q 54.66 146.14 55.16 146.17
  C 57.89 146.35 58.87 146.53 58.96 149.59
  Q 59.10 154.15 58.98 158.69
  Q 58.97 159.25 58.41 159.21
  L 56.01 159.01
  Q 55.49 158.96 55.43 159.48
  C 55.23 161.56 56.13 167.12 52.51 166.98
  Q 48.88 166.83 45.35 166.93
  A 2.23 2.19 66.0 0 1 43.73 166.29
  L 40.46 163.05
  A 1.16 1.15 22.8 0 1 40.11 162.20
  L 40.13 151.03
  Q 40.13 150.53 40.50 150.19
  L 45.38 145.68
  Q 45.71 145.38 45.68 144.94
  Q 44.87 131.47 57.95 128.68
  Q 58.51 128.57 58.51 128.00
  L 58.53 125.26
  Q 58.53 124.80 58.99 124.85
  L 61.12 125.06
  A 0.78 0.78 0.0 0 0 61.93 124.56
  L 62.15 123.96
  Q 62.31 123.52 62.74 123.34
  C 66.83 121.60 70.32 119.84 72.97 120.14
  A 0.66 0.65 3.1 0 0 73.70 119.49
  L 73.74 115.96
  Q 73.74 115.19 72.97 115.19
  Q 61.08 115.24 49.23 115.22
  Q 41.92 115.21 38.21 113.80
  C 28.32 110.04 25.80 102.04 25.79 91.79
  Q 25.78 83.97 25.79 76.16
  Q 25.79 75.65 25.28 75.57
  Q 20.06 74.75 20.00 68.75
  Q 19.90 58.62 20.00 48.48
  C 20.03 45.07 21.13 42.13 24.88 41.91
  Q 25.12 41.89 25.35 41.80
  Q 25.83 41.61 25.83 41.09
  C 25.72 28.58 24.66 16.70 38.18 11.35
  Q 41.44 10.06 47.02 10.05
  Q 124.88 9.86 147.00 10.04
  Q 153.77 10.09 159.25 15.25
  C 167.16 22.68 165.36 30.94 165.54 41.21
  Q 165.55 41.72 166.06 41.77
  C 169.89 42.15 171.26 44.46 171.31 48.24
  Q 171.45 58.64 171.25 69.02
  C 171.17 73.30 170.01 74.51 166.08 75.60
  Q 165.52 75.75 165.51 76.34
  Q 165.48 84.01 165.50 91.97
  Q 165.52 99.37 164.15 102.89
  Q 160.86 111.35 151.15 114.54
  Z
  M 158.64 33.47
  A 14.16 14.16 0.0 0 0 144.48 19.31
  L 46.88 19.31
  A 14.16 14.16 0.0 0 0 32.72 33.47
  L 32.72 91.13
  A 14.16 14.16 0.0 0 0 46.88 105.29
  L 144.48 105.29
  A 14.16 14.16 0.0 0 0 158.64 91.13
  L 158.64 33.47
  Z"
/>
<path fill="#ffffff" d="
  M 158.64 91.13
  A 14.16 14.16 0.0 0 1 144.48 105.29
  L 46.88 105.29
  A 14.16 14.16 0.0 0 1 32.72 91.13
  L 32.72 33.47
  A 14.16 14.16 0.0 0 1 46.88 19.31
  L 144.48 19.31
  A 14.16 14.16 0.0 0 1 158.64 33.47
  L 158.64 91.13
  Z
  M 69.1000 77.4100
  A 15.11 8.66 90.0 0 0 77.7600 62.3000
  A 15.11 8.66 90.0 0 0 69.1000 47.1900
  A 15.11 8.66 90.0 0 0 60.4400 62.3000
  A 15.11 8.66 90.0 0 0 69.1000 77.4100
  Z
  M 122.2500 77.4100
  A 15.10 8.65 90.0 0 0 130.9000 62.3100
  A 15.10 8.65 90.0 0 0 122.2500 47.2100
  A 15.10 8.65 90.0 0 0 113.6000 62.3100
  A 15.10 8.65 90.0 0 0 122.2500 77.4100
  Z"
/>
<ellipse fill="#2d8fe2" cx="0.00" cy="0.00" transform="translate(69.10,62.30) rotate(90.0)" rx="15.11" ry="8.66"/>
<ellipse fill="#2d8fe2" cx="0.00" cy="0.00" transform="translate(122.25,62.31) rotate(90.0)" rx="15.10" ry="8.65"/>
<path fill="#2d8fe2" d="
  M 151.15 114.54
  Q 149.52 115.24 147.29 115.20
  L 151.15 114.54
  Z"
/>
</svg>
