<?xml version="1.0" encoding="UTF-8" standalone="no"?>
<!DOCTYPE svg PUBLIC "-//W3C//DTD SVG 1.1//EN" "http://www.w3.org/Graphics/SVG/1.1/DTD/svg11.dtd">
<svg xmlns="http://www.w3.org/2000/svg" version="1.1" viewBox="0.00 0.00 444.00 370.00">
<g stroke-width="2.00" fill="none" stroke-linecap="butt">
<path stroke="#847749" vector-effect="non-scaling-stroke" d="
  M 164.77 18.91
  A 1.82 1.82 0.0 0 0 165.33 20.95
  C 172.02 26.45 178.55 25.61 186.52 26.11
  C 189.35 26.29 192.51 25.27 195.52 25.12
  Q 198.57 24.97 202.28 23.71
  A 5.21 5.18 -52.2 0 1 204.29 23.45
  Q 206.95 23.62 207.06 23.62
  C 210.33 23.65 215.52 20.72 214.81 16.65
  A 1.62 1.62 0.0 0 0 214.38 15.82
  Q 209.70 11.09 205.12 9.88
  C 196.83 7.71 189.73 5.50 181.15 6.69
  C 177.22 7.23 168.46 10.25 166.88 13.93
  Q 164.89 18.57 164.77 18.91"
/>
<path stroke="#847749" vector-effect="non-scaling-stroke" d="
  M 274.47 38.89
  Q 274.23 38.03 274.31 37.49
  Q 275.79 27.56 278.60 19.00
  A 1.21 1.20 -57.3 0 0 278.35 17.83
  L 277.96 17.40
  A 1.67 1.67 0.0 0 1 277.52 16.15
  L 277.67 13.54
  A 0.60 0.58 26.8 0 0 277.52 13.10
  L 274.34 9.61
  A 0.68 0.65 72.8 0 0 273.98 9.41
  Q 269.16 8.56 265.05 10.49
  A 1.33 1.32 -4.4 0 0 264.37 11.28
  Q 263.70 13.49 261.62 19.08
  Q 259.56 24.60 258.13 32.30
  C 257.20 37.29 257.08 49.29 261.60 53.66
  Q 269.13 60.97 274.47 64.62
  A 1.00 0.99 -86.5 0 0 275.91 63.34
  Q 274.94 61.45 273.34 58.93
  Q 272.78 58.04 272.35 54.19
  A 0.42 0.42 0.0 0 1 272.74 53.72
  L 272.77 53.72
  A 0.44 0.43 83.6 0 1 273.23 54.09
  Q 274.18 60.41 278.66 63.91
  C 281.88 66.43 284.79 68.63 288.80 69.96
  A 1.14 1.13 -75.5 0 0 290.27 69.09
  Q 290.27 69.08 290.23 68.75
  A 1.54 1.46 28.5 0 0 290.02 68.11
  L 288.42 65.41
  A 2.09 2.06 34.2 0 1 288.15 64.04
  Q 290.87 45.63 293.53 33.74
  C 294.67 28.63 294.41 25.79 291.21 21.95
  C 288.48 18.66 283.35 18.75 280.64 21.78
  A 3.71 3.67 78.4 0 0 280.08 22.64
  Q 276.77 29.99 274.80 38.88
  A 0.17 0.17 0.0 0 1 274.47 38.89"
/>
<path stroke="#847749" vector-effect="non-scaling-stroke" d="
  M 188.69 34.31
  Q 187.47 44.77 189.24 55.05
  A 7.75 7.16 31.5 0 0 189.65 56.50
  Q 190.34 58.29 192.02 62.21
  Q 195.41 70.14 201.92 75.31
  A 0.48 0.48 0.0 0 1 201.60 76.17
  Q 191.48 75.79 183.01 69.90
  C 181.04 68.53 180.82 67.36 180.28 65.07
  A 2.92 2.92 0.0 0 0 177.84 62.87
  L 176.32 62.67
  A 1.22 1.22 0.0 0 1 175.46 62.14
  Q 171.78 56.72 170.81 53.94
  Q 168.03 45.91 163.76 33.98
  Q 163.00 31.87 160.75 31.93
  Q 155.21 32.07 150.24 34.49
  A 1.01 0.99 -8.9 0 0 149.69 35.23
  Q 148.74 41.69 148.86 42.93
  Q 149.95 53.63 155.92 63.25
  C 158.05 66.69 161.05 69.81 163.16 72.68
  A 1.40 1.36 -60.0 0 1 163.41 73.67
  L 162.88 77.69
  A 0.54 0.54 0.0 0 1 162.03 78.06
  Q 155.77 73.68 149.93 69.58
  Q 149.29 69.13 147.61 67.39
  A 1.82 1.81 -19.2 0 0 146.46 66.84
  Q 144.11 66.63 143.74 66.38
  Q 130.49 57.46 128.39 55.32
  Q 125.11 51.99 123.70 49.30
  C 121.15 44.40 118.64 40.72 116.37 36.07
  C 114.77 32.79 111.34 23.62 107.18 20.36
  C 104.17 18.00 104.91 14.89 99.66 14.69
  Q 95.54 14.53 90.53 15.11
  C 88.30 15.36 86.74 16.25 87.55 18.71
  Q 89.99 26.03 93.15 32.53
  C 94.58 35.44 96.51 37.41 97.90 39.88
  Q 100.94 45.25 104.30 49.28
  Q 108.00 53.69 109.23 56.19
  C 112.02 61.85 114.83 68.46 116.65 75.55
  Q 118.30 81.93 119.40 85.03
  C 120.64 88.48 120.82 91.51 121.71 96.32
  A 1.96 1.94 19.0 0 0 122.18 97.27
  L 123.12 98.30
  A 0.87 0.86 -54.4 0 1 123.27 99.22
  L 122.96 99.94
  A 3.03 2.99 51.8 0 0 122.76 101.73
  L 124.00 107.81
  A 9.27 6.15 89.0 0 1 124.20 109.09
  C 124.29 110.47 124.09 112.73 124.81 114.67
  Q 125.22 115.78 125.22 116.65
  A 0.85 0.85 0.0 0 1 124.26 117.48
  L 123.49 117.38
  A 1.22 1.21 1.2 0 1 122.44 116.29
  Q 121.81 109.57 120.31 102.43
  C 119.21 97.24 119.54 92.75 118.23 87.96
  Q 115.34 77.36 109.45 67.94
  Q 105.28 61.27 99.55 56.95
  Q 93.22 52.18 86.61 49.55
  C 76.49 45.53 66.86 46.42 55.93 48.86
  Q 41.32 52.13 36.27 65.19
  Q 35.03 68.41 33.80 76.22
  A 2.76 2.70 -47.4 0 0 33.83 77.23
  C 34.52 80.42 33.89 84.09 34.84 87.69
  Q 36.58 94.31 39.97 99.55
  A 5.06 4.97 6.6 0 0 40.64 100.38
  Q 44.46 104.10 45.84 105.61
  C 48.53 108.58 52.05 110.88 55.39 112.35
  Q 65.41 116.73 76.75 119.03
  Q 80.46 119.79 94.37 121.88
  C 99.20 122.61 103.91 122.55 109.22 123.53
  A 1.22 1.22 0.0 0 1 110.20 124.51
  Q 110.91 128.50 111.13 132.02
  Q 112.23 149.92 112.39 154.70
  Q 112.72 165.09 113.19 172.30
  A 0.99 0.97 15.0 0 0 113.64 173.06
  Q 115.81 174.43 118.20 173.64
  Q 123.22 171.99 124.05 166.52
  C 124.71 162.17 124.90 157.41 124.52 152.84
  Q 124.26 149.88 124.72 146.32
  A 2.06 1.96 -43.6 0 0 124.74 145.92
  L 123.77 129.54
  A 0.53 0.52 29.6 0 1 124.76 129.27
  C 127.02 133.57 127.46 139.23 128.36 145.19
  Q 128.50 146.11 128.35 148.14
  A 9.85 9.74 42.6 0 0 128.46 150.43
  Q 129.55 157.22 129.42 164.57
  C 129.40 165.62 129.91 167.35 130.01 168.33
  Q 130.61 174.62 130.71 185.47
  C 130.72 187.21 131.27 188.89 130.96 190.57
  C 130.60 192.62 131.21 194.43 131.88 196.93
  A 1.33 1.32 -8.3 0 1 130.63 198.59
  L 112.84 199.10
  A 1.09 1.09 0.0 0 1 111.73 198.21
  Q 110.83 193.57 111.26 189.53
  Q 111.66 185.78 111.20 181.98
  C 110.37 175.06 108.76 168.54 107.35 162.77
  C 105.42 154.91 100.61 145.17 94.46 140.02
  Q 88.87 135.34 87.51 134.13
  C 82.22 129.43 74.09 125.06 67.07 124.16
  Q 59.02 123.14 51.12 123.27
  C 45.62 123.37 40.58 124.66 34.57 125.85
  A 6.82 6.77 25.1 0 0 32.62 126.55
  C 24.14 131.13 19.87 139.73 19.16 148.96
  Q 18.80 153.66 20.89 160.11
  Q 24.07 169.90 25.69 173.36
  Q 30.79 184.23 41.76 191.24
  Q 53.07 198.47 65.88 201.63
  C 75.30 203.96 85.95 204.69 96.35 205.76
  A 0.58 0.58 0.0 0 1 96.87 206.30
  C 97.45 215.15 97.85 218.53 97.85 226.24
  Q 97.86 231.52 98.33 238.47
  C 98.80 245.23 98.12 253.31 99.33 259.79
  A 1.83 1.82 16.3 0 0 99.88 260.79
  Q 102.21 262.96 105.86 261.73
  A 1.91 1.88 -80.9 0 0 106.76 261.07
  Q 109.22 257.66 109.60 255.32
  C 110.21 251.59 111.11 245.74 111.21 241.53
  Q 111.36 235.20 111.56 228.04
  A 7.55 7.43 -50.6 0 0 111.41 226.36
  L 111.17 225.15
  A 4.22 4.15 46.2 0 1 111.19 223.48
  L 111.76 220.80
  A 8.34 8.26 -41.4 0 0 111.92 218.44
  L 111.31 210.65
  A 1.98 1.90 -43.8 0 1 111.33 210.17
  L 111.99 206.35
  A 1.12 1.12 0.0 0 1 113.02 205.42
  Q 121.46 204.88 133.36 203.60
  Q 142.94 202.57 153.33 199.72
  Q 168.44 195.57 178.84 191.66
  A 0.54 0.53 74.5 0 1 179.55 192.07
  C 180.83 198.73 184.02 203.99 190.45 206.78
  A 4.22 4.07 54.4 0 0 192.25 207.11
  C 196.31 206.94 198.57 206.02 203.23 205.51
  Q 207.10 205.08 210.33 203.29
  A 0.23 0.23 0.0 0 1 210.61 203.65
  Q 208.85 205.43 208.48 207.25
  A 2.91 2.91 0.0 0 1 207.75 208.68
  C 206.95 209.53 203.92 212.04 204.92 214.29
  C 206.35 217.50 209.29 215.73 211.75 216.21
  Q 217.79 217.39 223.27 215.29
  C 225.95 214.26 226.77 212.37 228.23 210.17
  Q 230.40 206.89 231.20 204.64
  A 1.29 1.28 2.6 0 1 232.09 203.83
  L 242.63 201.14
  A 0.41 0.41 0.0 0 1 243.05 201.27
  Q 248.21 207.16 254.87 210.71
  A 1.69 1.68 -79.7 0 1 255.75 211.99
  Q 256.98 222.51 260.08 234.73
  A 6.11 6.10 -67.2 0 0 260.72 236.30
  Q 262.77 239.86 264.44 245.10
  A 6.91 6.84 16.0 0 0 265.81 247.54
  L 273.27 256.14
  A 4.88 4.71 -5.2 0 0 274.56 257.18
  Q 280.80 260.62 286.56 259.34
  Q 290.45 258.47 293.12 258.05
  Q 295.77 257.63 299.33 255.52
  C 304.73 252.33 309.55 245.57 312.88 240.03
  C 314.32 237.65 314.68 234.98 316.00 232.89
  A 3.57 3.52 63.9 0 0 316.54 231.27
  Q 316.64 230.02 318.12 221.01
  C 318.62 217.96 318.30 214.43 317.64 211.77
  A 2.29 2.29 0.0 0 0 316.12 210.15
  C 312.21 208.87 305.31 207.67 302.11 210.29
  A 1.01 1.01 0.0 0 0 301.81 211.43
  Q 303.39 215.66 302.64 220.45
  A 2.41 2.29 -50.7 0 0 302.72 221.50
  Q 303.40 223.68 302.70 229.25
  Q 302.01 234.70 300.30 239.47
  C 299.11 242.79 297.05 245.04 294.28 249.07
  A 7.45 7.29 -3.6 0 1 292.90 250.60
  L 289.87 253.17
  A 1.73 1.73 0.0 0 1 287.56 253.12
  Q 285.17 250.89 283.91 247.57
  Q 281.75 241.87 279.73 236.02
  A 5.78 5.52 -57.7 0 1 279.43 234.53
  C 279.20 231.31 277.86 228.57 277.34 225.45
  Q 276.40 219.80 275.98 218.08
  A 3.18 3.11 41.5 0 1 275.90 216.97
  Q 276.12 214.86 274.76 206.85
  Q 273.13 197.25 273.80 183.00
  Q 274.05 177.72 274.19 169.24
  A 1.20 1.19 -84.4 0 1 275.59 168.08
  Q 280.39 168.91 284.90 171.56
  A 7.10 7.07 67.3 0 0 286.77 172.33
  Q 289.91 173.12 293.79 175.56
  A 1.73 1.72 10.9 0 1 294.56 176.69
  L 296.27 185.44
  A 2.87 2.55 32.2 0 0 296.43 185.99
  L 299.35 193.55
  A 1.30 1.30 0.0 0 0 300.43 194.37
  C 304.18 194.77 309.45 194.83 311.47 191.21
  A 1.16 1.13 52.2 0 0 311.57 190.34
  L 309.76 184.10
  A 0.53 0.52 2.9 0 1 310.46 183.47
  C 313.71 184.78 317.14 186.98 320.90 188.37
  Q 332.08 192.53 343.09 193.99
  A 0.66 0.65 0.6 0 1 343.65 194.56
  Q 344.18 198.68 343.25 201.75
  A 1.78 1.78 0.0 0 0 343.25 202.73
  C 344.35 206.57 343.27 210.18 343.59 213.34
  C 343.81 215.54 343.01 217.44 343.48 219.65
  Q 343.86 221.43 343.70 224.39
  Q 343.34 230.83 344.38 244.24
  C 344.52 246.00 344.01 247.88 344.49 249.91
  Q 344.85 251.44 344.48 252.80
  A 1.06 1.01 49.1 0 0 344.46 253.25
  L 349.19 277.13
  A 1.26 1.25 81.1 0 0 350.55 278.13
  L 365.69 276.60
  A 1.21 1.21 0.0 0 0 366.76 275.18
  Q 364.42 262.68 363.12 250.64
  C 362.40 244.02 362.37 237.54 361.88 230.53
  C 361.18 220.42 361.43 212.25 361.38 201.70
  C 361.37 199.53 361.78 197.21 361.95 195.06
  A 1.93 1.92 86.6 0 1 363.48 193.33
  C 368.63 192.28 375.70 191.17 380.70 188.59
  Q 388.49 184.58 391.04 182.25
  Q 397.07 176.75 399.84 169.89
  Q 401.48 165.84 401.37 164.09
  Q 401.06 159.04 401.01 155.51
  Q 400.91 148.23 396.11 140.50
  C 393.93 136.99 391.30 135.76 387.44 134.83
  C 386.00 134.48 382.25 134.92 379.87 134.63
  Q 370.11 133.46 362.84 134.36
  A 5.55 5.54 -72.7 0 0 359.41 136.16
  Q 356.64 139.28 352.84 145.54
  C 349.39 151.21 347.82 159.79 345.08 164.95
  A 1.07 1.05 -45.6 0 0 345.08 165.94
  Q 346.08 167.88 345.72 170.76
  Q 344.78 178.34 344.04 186.15
  A 1.01 1.01 0.0 0 1 342.84 187.04
  Q 336.48 185.74 330.02 182.96
  Q 319.65 178.49 313.72 175.51
  Q 311.65 174.47 309.82 173.27
  A 1.40 1.37 16.3 0 1 309.20 172.16
  L 308.53 148.71
  A 0.81 0.81 0.0 0 1 309.32 147.88
  Q 316.26 147.72 325.75 146.88
  Q 334.27 146.12 338.57 144.84
  Q 345.59 142.76 348.72 140.42
  Q 354.21 136.31 355.92 134.49
  C 362.48 127.53 367.35 118.97 367.49 109.52
  Q 367.58 103.21 367.20 100.29
  Q 365.64 88.26 356.32 80.44
  C 351.97 76.79 344.11 75.36 338.38 74.42
  Q 335.87 74.01 333.10 74.18
  C 326.75 74.55 321.17 75.32 316.33 79.51
  C 310.07 84.92 303.85 91.48 301.24 99.16
  Q 299.35 104.73 298.73 106.34
  C 296.24 112.77 295.42 120.52 294.75 126.69
  C 294.43 129.67 294.74 132.91 294.12 135.89
  A 1.68 1.68 0.0 0 1 292.14 137.20
  Q 282.38 135.20 274.62 134.22
  Q 264.64 132.95 257.20 133.14
  A 0.70 0.70 0.0 0 1 256.52 132.22
  C 257.24 130.10 256.98 128.20 257.43 126.26
  Q 259.10 119.15 259.60 109.86
  A 2.00 2.00 0.0 0 1 261.44 107.97
  C 265.77 107.63 270.81 107.60 275.22 106.36
  C 280.98 104.73 286.59 100.17 289.48 98.76
  A 10.82 10.65 -83.5 0 0 291.42 97.19
  L 297.00 91.46
  A 1.93 1.90 -16.9 0 0 297.47 90.60
  L 298.71 85.54
  A 2.17 2.13 39.9 0 0 298.57 84.12
  Q 296.86 80.49 291.48 78.29
  Q 284.71 75.52 279.29 73.46
  C 271.69 70.57 266.27 66.59 262.06 60.30
  Q 258.00 54.23 253.54 45.12
  Q 252.18 42.33 251.46 40.12
  C 250.25 36.36 249.37 33.29 246.57 30.88
  C 245.25 29.75 243.39 30.72 241.86 29.99
  Q 240.00 29.11 238.33 29.02
  Q 235.63 28.87 231.86 28.88
  A 1.27 1.26 76.3 0 0 230.74 30.73
  Q 237.26 43.51 238.99 57.81
  A 1.13 0.66 -75.1 0 0 239.05 58.03
  L 240.01 60.52
  A 2.51 2.45 -60.2 0 1 240.16 61.10
  Q 240.74 65.60 242.40 75.54
  C 242.90 78.50 243.08 82.35 243.35 85.49
  Q 243.66 89.20 243.34 93.00
  C 242.88 98.44 242.94 103.95 242.34 109.31
  Q 241.62 115.75 241.20 122.25
  Q 241.05 124.45 240.49 126.51
  C 240.15 127.76 238.70 128.43 238.05 129.42
  Q 237.54 130.22 236.06 132.48
  A 1.74 1.73 19.9 0 1 234.38 133.26
  L 229.29 132.58
  A 0.37 0.37 0.0 0 1 229.06 131.96
  L 230.96 129.81
  A 6.18 5.73 -11.9 0 0 231.64 128.85
  C 234.09 124.48 237.42 119.84 238.78 115.02
  A 1.42 1.42 0.0 0 0 237.91 113.30
  C 233.14 111.54 229.14 114.45 225.95 117.91
  C 224.33 119.66 223.66 121.45 222.45 123.81
  A 1.56 1.26 85.9 0 1 222.34 123.98
  L 217.64 130.17
  A 0.52 0.52 0.0 0 1 216.72 129.96
  Q 215.12 121.65 216.05 113.81
  C 216.21 112.49 215.57 111.33 216.12 110.39
  Q 216.76 109.31 216.60 107.98
  C 216.28 105.31 216.12 99.79 219.79 98.78
  Q 227.80 96.57 235.35 95.24
  A 1.69 1.56 -14.7 0 0 236.69 93.14
  Q 236.25 91.92 234.52 91.97
  Q 226.08 92.20 221.09 92.89
  A 1.68 1.67 89.8 0 1 219.20 91.01
  L 220.30 82.68
  A 0.52 0.51 -84.9 0 1 220.82 82.24
  Q 228.54 82.50 228.82 82.55
  C 231.91 83.11 237.72 81.96 240.35 80.85
  A 1.03 1.03 0.0 0 0 240.01 78.87
  Q 237.09 78.71 228.64 77.09
  Q 225.50 76.48 222.71 75.03
  A 3.37 3.35 -79.4 0 1 220.92 72.40
  L 220.65 69.69
  A 1.54 1.54 0.0 0 0 219.07 68.30
  L 214.04 68.45
  A 2.13 2.11 70.6 0 1 212.29 67.60
  Q 208.65 62.72 205.97 55.97
  C 204.60 52.53 204.43 48.88 203.21 45.32
  A 7.50 7.41 33.4 0 1 202.85 43.62
  C 202.56 40.68 202.64 36.23 201.09 33.75
  A 1.80 1.77 77.7 0 0 199.85 32.94
  Q 195.73 32.34 191.86 33.56
  C 190.98 33.83 189.99 33.60 189.37 33.65
  A 0.75 0.75 0.0 0 0 188.69 34.31"
/>
<path stroke="#847749" vector-effect="non-scaling-stroke" d="
  M 157.26 229.84
  A 0.28 0.28 0.0 0 1 157.26 230.39
  Q 145.17 231.95 132.08 235.62
  C 128.70 236.56 121.43 239.23 120.53 242.75
  Q 119.25 247.77 124.65 248.98
  C 127.34 249.58 129.96 248.64 132.83 248.98
  C 134.52 249.18 136.30 248.34 138.37 247.98
  Q 143.99 247.02 151.17 245.87
  Q 152.66 245.63 153.85 245.75
  C 155.80 245.95 158.09 245.14 160.34 244.88
  Q 168.32 243.99 180.24 243.62
  A 0.40 0.40 0.0 0 1 180.65 244.06
  Q 180.62 244.45 180.22 244.60
  Q 176.93 245.92 175.14 249.82
  C 174.18 251.92 174.27 253.82 173.96 256.00
  A 22.18 22.07 -44.9 0 0 173.93 261.96
  L 175.49 273.96
  A 0.33 0.33 0.0 0 1 174.92 274.22
  L 160.86 258.79
  A 3.62 3.59 66.8 0 0 157.97 257.62
  Q 150.63 258.10 143.55 258.46
  A 2.21 2.20 3.0 0 0 141.48 260.31
  Q 141.34 261.25 142.18 262.37
  Q 144.26 265.15 146.13 267.63
  A 13.37 13.25 -88.4 0 0 148.07 269.70
  Q 153.77 274.66 157.13 279.54
  Q 158.45 281.47 159.52 282.38
  Q 160.26 283.02 161.94 285.22
  Q 168.38 293.67 172.78 304.01
  Q 173.80 306.40 174.39 309.08
  Q 174.78 310.82 176.14 314.12
  Q 176.49 314.97 177.89 320.87
  A 5.85 5.44 27.0 0 0 178.33 322.07
  Q 183.15 331.40 180.14 341.49
  A 1.02 1.01 15.5 0 0 180.87 342.77
  Q 183.06 343.32 184.01 343.17
  C 186.18 342.82 187.61 344.15 190.04 343.56
  C 192.34 343.00 194.22 343.10 196.49 343.04
  A 1.72 1.72 0.0 0 0 198.07 341.88
  C 199.97 336.30 199.59 329.30 200.48 324.49
  Q 202.16 315.46 203.42 304.24
  A 7.38 7.37 58.4 0 1 203.83 302.51
  Q 204.45 300.84 204.39 300.49
  Q 203.74 296.64 205.59 290.81
  C 208.02 283.13 214.50 268.53 224.19 268.45
  Q 226.25 268.43 227.81 267.19
  A 0.94 0.93 38.6 0 0 227.63 265.61
  C 225.92 264.81 224.02 264.83 222.62 264.61
  Q 214.51 263.34 205.62 265.04
  A 8.11 7.99 -63.8 0 0 203.50 265.78
  C 199.54 267.85 196.79 269.07 195.09 271.83
  A 0.78 0.78 0.0 0 1 193.71 271.72
  C 192.88 269.78 192.56 268.14 191.25 266.19
  Q 190.44 265.00 189.98 263.27
  Q 188.26 256.90 187.63 251.37
  A 2.05 2.04 61.7 0 1 188.08 249.86
  C 190.68 246.68 194.23 246.33 199.04 245.52
  C 200.45 245.28 201.66 245.85 202.90 245.24
  Q 203.92 244.75 205.69 244.48
  Q 210.18 243.79 213.44 242.93
  A 0.60 0.60 0.0 0 0 213.53 241.80
  Q 211.85 241.05 209.62 240.62
  Q 200.80 238.92 191.41 238.21
  C 188.85 238.02 186.99 238.61 184.74 238.13
  Q 183.14 237.80 179.75 237.96
  Q 163.45 238.77 149.55 240.53
  C 143.58 241.29 138.73 242.60 132.84 243.29
  A 0.36 0.36 0.0 0 1 132.53 242.68
  C 135.61 239.40 138.36 238.92 143.68 237.77
  Q 158.94 234.49 168.57 234.42
  Q 180.02 234.32 186.95 234.09
  Q 190.64 233.97 193.07 234.14
  Q 197.98 234.49 199.18 234.33
  C 204.24 233.64 211.83 234.67 216.65 233.87
  A 6.23 6.12 -44.0 0 1 218.80 233.89
  Q 221.83 234.47 224.91 234.11
  C 228.11 233.74 232.02 234.92 235.23 234.44
  Q 241.30 233.52 247.93 232.45
  Q 249.57 232.19 250.29 231.18
  A 1.35 1.34 -59.1 0 0 249.79 229.17
  C 245.61 227.14 241.15 226.62 234.24 225.19
  C 230.10 224.34 225.21 224.56 221.79 223.36
  A 1.10 1.08 -52.5 0 0 220.81 223.50
  Q 220.03 224.05 216.50 223.58
  C 213.33 223.16 209.26 223.85 205.83 223.55
  C 199.50 223.01 192.62 223.71 186.06 223.38
  Q 174.71 222.81 161.65 223.51
  C 152.17 224.02 144.37 224.05 134.90 224.51
  Q 133.55 224.58 132.78 224.82
  C 131.07 225.36 129.43 224.75 127.40 225.00
  Q 126.80 225.07 117.99 225.70
  Q 115.74 225.86 114.05 226.77
  A 1.86 1.85 -35.3 0 0 113.55 229.66
  L 114.70 230.92
  A 2.57 2.57 0.0 0 0 117.38 231.64
  Q 121.51 230.32 124.24 231.28
  A 1.32 1.31 39.5 0 0 125.33 231.18
  Q 127.39 230.00 129.86 230.73
  A 2.12 2.12 0.0 0 0 131.10 230.73
  Q 133.37 230.04 135.00 230.04
  Q 143.70 230.06 152.33 229.43
  Q 153.98 229.31 157.26 229.84"
/>
<path stroke="#847749" vector-effect="non-scaling-stroke" d="
  M 367.28 278.36
  A 1.35 1.35 0.0 0 0 365.87 277.47
  L 350.87 278.98
  A 1.35 1.35 0.0 0 0 349.74 280.77
  L 350.74 283.59
  A 1.35 1.35 0.0 0 0 352.14 284.48
  L 367.14 282.97
  A 1.35 1.35 0.0 0 0 368.28 281.18
  L 367.28 278.36"
/>
<path stroke="#847749" vector-effect="non-scaling-stroke" d="
  M 351.76 288.93
  A 0.85 0.85 0.0 0 0 352.70 289.75
  L 368.93 288.11
  A 0.85 0.85 0.0 0 0 369.65 286.98
  L 368.70 284.30
  A 0.85 0.85 0.0 0 0 367.82 283.74
  L 352.45 285.29
  A 0.85 0.85 0.0 0 0 351.68 286.16
  L 351.76 288.93"
/>
<path stroke="#847749" vector-effect="non-scaling-stroke" d="
  M 370.37 293.59
  L 370.21 290.61
  A 1.05 1.05 0.0 0 0 369.10 289.62
  L 356.78 290.29
  A 4.01 2.24 -3.1 0 0 352.90 292.74
  L 352.93 293.34
  A 4.01 2.24 -3.1 0 0 357.05 295.36
  L 369.38 294.69
  A 1.05 1.05 0.0 0 0 370.37 293.59"
/>
<path stroke="#847749" vector-effect="non-scaling-stroke" d="
  M 179.58 348.59
  L 179.64 352.23
  A 0.66 0.66 0.0 0 0 180.31 352.88
  L 197.43 352.58
  A 1.80 1.12 -1.0 0 0 199.21 351.43
  L 199.16 348.71
  A 1.80 1.12 -1.0 0 0 197.35 347.62
  L 180.23 347.92
  A 0.66 0.66 0.0 0 0 179.58 348.59"
/>
<path stroke="#847749" vector-effect="non-scaling-stroke" d="
  M 199.14 354.91
  L 180.31 355.70
  A 0.31 0.31 0.0 0 0 180.02 356.02
  L 180.07 357.31
  A 3.66 3.46 -2.4 0 0 183.87 360.61
  L 196.00 360.10
  A 3.66 3.46 -2.4 0 0 199.51 356.49
  L 199.46 355.20
  A 0.31 0.31 0.0 0 0 199.14 354.91"
/>
<path stroke="#847749" vector-effect="non-scaling-stroke" d="
  M 180.70 18.24
  Q 180.62 21.11 183.51 22.50
  A 1.62 1.60 52.2 0 0 184.51 22.63
  C 188.94 21.82 192.73 21.47 195.50 19.13
  A 1.38 1.35 24.9 0 1 196.41 18.81
  C 197.37 18.83 198.43 19.33 199.35 19.02
  Q 200.63 18.60 201.78 17.03
  A 1.31 1.30 -55.3 0 0 201.45 15.17
  Q 190.41 7.92 181.07 17.37
  A 1.27 1.26 68.1 0 0 180.70 18.24"
/>
<path stroke="#847749" vector-effect="non-scaling-stroke" d="
  M 108.98 114.70
  Q 106.02 94.72 96.63 77.63
  Q 87.27 60.62 68.77 54.54
  C 66.59 53.83 59.86 52.08 57.58 54.09
  C 49.32 61.34 49.58 70.87 50.62 80.77
  C 51.45 88.77 57.45 96.46 63.46 101.38
  Q 68.13 105.19 75.10 107.89
  Q 83.65 111.19 87.73 112.01
  Q 98.66 114.22 103.78 114.92
  Q 106.20 115.24 108.60 115.16
  A 0.40 0.40 0.0 0 0 108.98 114.70"
/>
<path stroke="#847749" vector-effect="non-scaling-stroke" d="
  M 259.45 73.43
  L 260.29 102.83
  A 0.84 0.84 0.0 0 0 261.27 103.63
  Q 271.63 101.97 279.65 95.69
  C 283.38 92.77 287.95 85.48 282.32 81.99
  C 280.70 80.98 278.57 79.97 277.35 79.59
  Q 267.42 76.47 259.81 73.18
  A 0.26 0.26 0.0 0 0 259.45 73.43"
/>
<path stroke="#847749" vector-effect="non-scaling-stroke" d="
  M 133.86 74.77
  L 135.58 82.95
  A 1.27 0.89 50.7 0 0 135.63 83.11
  Q 137.47 87.80 137.74 91.52
  Q 137.99 95.00 138.39 97.11
  C 139.12 100.98 139.67 105.60 139.89 107.90
  C 140.25 111.78 141.92 116.07 141.62 119.47
  A 1.03 1.02 19.3 0 0 142.09 120.43
  C 144.87 122.21 148.11 121.82 150.98 123.27
  A 3.01 2.76 -54.8 0 0 154.40 122.52
  Q 155.82 120.95 155.81 118.96
  Q 155.79 114.74 157.04 105.28
  Q 157.60 100.99 156.44 94.15
  A 3.63 3.46 27.0 0 0 156.04 93.01
  Q 152.35 86.38 151.41 85.57
  Q 143.80 78.97 134.80 74.07
  A 0.65 0.64 -81.5 0 0 133.86 74.77"
/>
<path stroke="#847749" vector-effect="non-scaling-stroke" d="
  M 203.82 77.14
  L 191.67 81.44
  A 2.51 2.37 -56.1 0 1 191.14 81.56
  C 187.39 81.90 185.71 81.49 181.24 80.42
  A 1.44 1.44 0.0 0 0 179.51 81.47
  L 177.88 88.04
  A 0.82 0.82 0.0 0 0 178.63 89.06
  L 193.64 89.98
  A 0.97 0.96 -58.9 0 1 194.08 91.77
  L 191.24 93.47
  A 1.80 1.69 23.7 0 1 190.56 93.71
  L 177.83 95.46
  A 1.43 1.41 13.0 0 0 176.87 96.05
  Q 176.04 97.23 175.86 98.89
  Q 174.14 115.56 174.05 119.75
  Q 173.93 125.09 174.43 128.62
  A 0.85 0.85 0.0 0 0 175.92 129.05
  Q 177.45 127.23 179.90 124.63
  Q 180.87 123.59 183.73 120.05
  Q 191.03 111.00 194.05 108.28
  C 195.48 106.99 198.46 105.67 198.86 102.87
  Q 200.48 91.49 204.47 77.75
  A 0.50 0.50 0.0 0 0 203.82 77.14"
/>
<path stroke="#847749" vector-effect="non-scaling-stroke" d="
  M 336.81 79.12
  C 334.64 80.71 331.28 81.06 329.15 82.73
  C 323.02 87.55 317.95 94.60 315.03 101.51
  C 313.00 106.30 311.05 114.74 310.68 119.01
  Q 309.92 127.62 308.94 136.26
  Q 308.82 137.27 308.94 139.82
  A 1.60 1.59 4.6 0 0 310.22 141.32
  Q 319.25 143.15 327.55 139.75
  Q 332.17 137.86 332.36 137.79
  Q 334.67 136.94 336.83 135.30
  Q 349.07 126.02 352.07 112.22
  C 354.56 100.71 351.51 89.16 342.63 81.47
  Q 340.62 79.73 337.80 78.94
  A 1.16 1.15 34.5 0 0 336.81 79.12"
/>
<path stroke="#847749" vector-effect="non-scaling-stroke" d="
  M 225.29 135.36
  L 221.92 136.89
  A 3.54 3.15 -25.5 0 1 221.45 137.06
  L 208.38 140.40
  A 2.35 2.33 47.9 0 1 206.98 140.32
  C 201.73 138.31 199.92 132.79 198.22 127.71
  C 197.49 125.51 197.52 123.77 197.60 121.62
  A 0.55 0.55 0.0 0 0 196.63 121.25
  C 192.40 126.40 187.51 131.82 181.14 135.14
  A 4.33 4.24 -65.3 0 1 180.09 135.54
  Q 174.47 136.89 170.89 138.16
  Q 166.98 139.54 165.49 139.48
  C 160.32 139.27 157.21 132.54 156.47 128.21
  A 1.19 1.18 74.3 0 0 154.87 127.31
  Q 149.84 129.27 144.57 129.26
  A 0.25 0.24 -10.6 0 0 144.34 129.59
  Q 148.75 140.93 159.04 146.65
  Q 162.77 148.73 171.23 150.84
  C 174.58 151.68 176.82 152.73 179.50 154.08
  A 1.58 1.41 27.4 0 1 180.26 156.09
  Q 179.64 157.23 178.12 157.86
  Q 172.46 160.20 166.86 162.14
  A 0.38 0.38 0.0 0 0 166.82 162.85
  Q 168.76 163.77 169.26 163.77
  Q 170.56 163.78 178.06 165.38
  A 1.10 1.08 13.1 0 0 179.34 164.60
  L 182.46 152.94
  A 2.43 2.21 -26.4 0 1 182.67 152.40
  Q 184.01 149.95 184.77 147.72
  A 0.96 0.96 0.0 0 0 184.40 146.62
  Q 180.07 143.65 175.86 140.66
  Q 174.35 139.59 174.65 138.16
  A 0.99 0.99 0.0 0 1 175.54 137.37
  Q 182.40 136.84 190.17 138.93
  A 2.63 2.52 -14.7 0 1 191.25 139.53
  L 192.15 140.37
  A 0.91 0.89 -17.3 0 0 192.60 140.60
  Q 196.93 141.39 202.00 143.28
  C 205.78 144.69 211.74 141.85 215.30 145.85
  A 1.42 1.42 0.0 0 1 214.28 148.21
  L 203.62 148.51
  A 2.06 2.05 5.9 0 0 201.69 150.07
  L 198.65 162.26
  A 0.28 0.28 0.0 0 0 198.94 162.61
  L 209.88 161.73
  A 0.65 0.62 52.5 0 1 210.21 161.78
  Q 212.33 162.67 213.56 164.18
  A 1.39 1.39 0.0 0 1 212.92 166.38
  C 210.43 167.21 205.57 168.16 202.29 168.06
  Q 200.03 168.00 198.25 168.38
  A 0.68 0.68 0.0 0 0 197.71 169.03
  L 197.48 182.61
  A 2.40 2.28 -54.8 0 0 197.58 183.29
  L 200.16 191.61
  A 0.81 0.81 0.0 0 0 201.62 191.80
  Q 203.51 188.77 204.99 185.30
  C 206.06 182.80 207.92 180.07 209.36 178.12
  Q 210.24 176.93 212.99 175.81
  C 213.86 175.46 214.39 174.76 214.98 174.45
  A 0.98 0.98 0.0 0 1 215.82 174.41
  Q 218.06 175.35 220.86 175.23
  A 0.75 0.75 0.0 0 0 221.55 174.69
  Q 222.40 171.70 222.67 168.61
  C 222.78 167.35 223.62 165.22 223.78 163.61
  Q 224.79 153.49 224.03 144.87
  A 3.46 3.43 49.9 0 1 224.13 143.65
  Q 224.66 141.55 224.92 137.86
  C 224.97 137.14 225.57 136.44 225.69 135.67
  A 0.29 0.29 0.0 0 0 225.29 135.36"
/>
<path stroke="#847749" vector-effect="non-scaling-stroke" d="
  M 96.23 197.27
  Q 95.34 179.42 90.35 163.36
  Q 87.68 154.77 84.75 150.95
  Q 71.54 133.71 49.12 129.37
  Q 46.17 128.80 44.70 130.57
  Q 40.51 135.65 38.94 137.45
  A 6.48 6.06 81.2 0 0 38.10 138.68
  Q 35.70 143.17 35.91 149.56
  A 3.58 3.41 36.5 0 0 36.09 150.60
  Q 40.43 163.54 43.63 168.73
  Q 45.76 172.17 50.96 178.13
  Q 54.39 182.06 60.05 185.52
  Q 76.48 195.58 95.80 197.68
  A 0.39 0.39 0.0 0 0 96.23 197.27"
/>
<path stroke="#847749" vector-effect="non-scaling-stroke" d="
  M 293.43 166.27
  A 0.45 0.45 0.0 0 0 294.01 165.70
  Q 293.27 163.47 293.29 161.87
  A 5.08 5.03 -56.0 0 0 292.94 160.02
  Q 291.37 156.07 292.49 151.10
  C 293.20 147.93 293.67 145.45 289.99 144.74
  Q 285.03 143.77 281.57 142.82
  C 273.40 140.55 265.44 139.50 256.65 139.00
  C 253.84 138.84 252.33 139.14 248.87 139.21
  A 0.72 0.71 4.5 0 0 248.19 139.78
  Q 247.52 143.28 246.03 150.73
  Q 245.14 155.15 245.57 164.12
  A 2.50 2.47 -37.6 0 1 245.45 165.00
  L 245.10 166.10
  A 0.73 0.73 0.0 0 0 245.97 167.03
  L 255.22 164.66
  A 2.61 2.60 -4.2 0 0 257.17 162.41
  L 257.58 158.53
  A 1.92 1.90 -30.7 0 1 257.72 157.99
  L 262.01 147.32
  A 0.82 0.69 -18.1 0 1 262.16 147.08
  Q 265.35 143.57 266.83 143.10
  Q 270.14 142.07 274.31 143.75
  A 1.54 1.51 87.7 0 1 275.13 144.52
  L 276.90 148.25
  A 0.87 0.85 -54.8 0 1 276.98 148.76
  L 275.40 160.68
  A 1.21 1.20 -79.9 0 0 276.33 162.02
  C 278.12 162.41 280.35 162.31 282.74 162.97
  Q 289.62 164.87 293.43 166.27"
/>
<path stroke="#847749" vector-effect="non-scaling-stroke" d="
  M 363.52 185.60
  Q 378.72 180.20 382.56 165.49
  C 383.63 161.39 384.12 154.96 383.48 151.52
  Q 382.45 146.03 378.87 141.36
  A 1.10 1.10 0.0 0 0 377.11 141.37
  C 373.00 146.86 367.35 154.13 366.16 161.49
  Q 364.93 169.10 364.05 172.70
  A 12.15 12.05 51.9 0 0 363.69 175.79
  Q 363.74 179.91 362.82 184.99
  A 0.54 0.53 85.6 0 0 363.52 185.60"
/>
<path stroke="#847749" vector-effect="non-scaling-stroke" d="
  M 148.06 153.46
  L 148.59 158.75
  A 1.09 1.08 -2.9 0 0 149.67 159.72
  Q 156.62 159.75 162.47 157.54
  A 0.65 0.65 0.0 0 0 162.40 156.30
  L 148.71 152.89
  A 0.53 0.52 -85.9 0 0 148.06 153.46"
/>
<path stroke="#847749" vector-effect="non-scaling-stroke" d="
  M 149.64 167.06
  Q 149.61 168.04 150.08 169.75
  Q 150.36 170.77 149.85 173.91
  A 4.08 3.86 49.1 0 0 149.81 174.80
  L 150.28 181.72
  A 1.12 0.94 54.0 0 1 150.26 182.01
  C 149.79 184.10 150.53 186.25 150.65 188.24
  Q 150.88 191.93 150.76 194.01
  A 0.52 0.51 86.9 0 0 151.36 194.55
  Q 155.99 193.73 166.16 191.20
  C 171.19 189.94 176.20 186.05 177.46 180.71
  Q 178.12 177.93 175.99 176.29
  C 171.24 172.62 167.26 170.26 160.98 169.00
  Q 151.65 167.13 150.23 166.65
  A 0.45 0.45 0.0 0 0 149.64 167.06"
/>
<path stroke="#847749" vector-effect="non-scaling-stroke" d="
  M 254.73 188.80
  L 255.90 169.67
  A 0.54 0.54 0.0 0 0 255.33 169.10
  C 251.94 169.28 249.90 170.11 246.33 168.80
  A 0.61 0.60 -86.3 0 0 245.54 169.50
  Q 247.86 180.28 253.91 189.03
  A 0.45 0.45 0.0 0 0 254.73 188.80"
/>
<path stroke="#847749" vector-effect="non-scaling-stroke" d="
  M 235.4801 193.0593
  A 0.98 0.65 -130.0 0 0 235.6121 194.2278
  A 0.98 0.65 -130.0 0 0 236.7399 194.5607
  A 0.98 0.65 -130.0 0 0 236.6079 193.3922
  A 0.98 0.65 -130.0 0 0 235.4801 193.0593"
/>
</g>
<path fill="#101010" d="
  M 444.00 0.00
  L 444.00 370.00
  L 0.00 370.00
  L 0.00 0.00
  L 444.00 0.00
  Z
  M 164.77 18.91
  A 1.82 1.82 0.0 0 0 165.33 20.95
  C 172.02 26.45 178.55 25.61 186.52 26.11
  C 189.35 26.29 192.51 25.27 195.52 25.12
  Q 198.57 24.97 202.28 23.71
  A 5.21 5.18 -52.2 0 1 204.29 23.45
  Q 206.95 23.62 207.06 23.62
  C 210.33 23.65 215.52 20.72 214.81 16.65
  A 1.62 1.62 0.0 0 0 214.38 15.82
  Q 209.70 11.09 205.12 9.88
  C 196.83 7.71 189.73 5.50 181.15 6.69
  C 177.22 7.23 168.46 10.25 166.88 13.93
  Q 164.89 18.57 164.77 18.91
  Z
  M 274.47 38.89
  Q 274.23 38.03 274.31 37.49
  Q 275.79 27.56 278.60 19.00
  A 1.21 1.20 -57.3 0 0 278.35 17.83
  L 277.96 17.40
  A 1.67 1.67 0.0 0 1 277.52 16.15
  L 277.67 13.54
  A 0.60 0.58 26.8 0 0 277.52 13.10
  L 274.34 9.61
  A 0.68 0.65 72.8 0 0 273.98 9.41
  Q 269.16 8.56 265.05 10.49
  A 1.33 1.32 -4.4 0 0 264.37 11.28
  Q 263.70 13.49 261.62 19.08
  Q 259.56 24.60 258.13 32.30
  C 257.20 37.29 257.08 49.29 261.60 53.66
  Q 269.13 60.97 274.47 64.62
  A 1.00 0.99 -86.5 0 0 275.91 63.34
  Q 274.94 61.45 273.34 58.93
  Q 272.78 58.04 272.35 54.19
  A 0.42 0.42 0.0 0 1 272.74 53.72
  L 272.77 53.72
  A 0.44 0.43 83.6 0 1 273.23 54.09
  Q 274.18 60.41 278.66 63.91
  C 281.88 66.43 284.79 68.63 288.80 69.96
  A 1.14 1.13 -75.5 0 0 290.27 69.09
  Q 290.27 69.08 290.23 68.75
  A 1.54 1.46 28.5 0 0 290.02 68.11
  L 288.42 65.41
  A 2.09 2.06 34.2 0 1 288.15 64.04
  Q 290.87 45.63 293.53 33.74
  C 294.67 28.63 294.41 25.79 291.21 21.95
  C 288.48 18.66 283.35 18.75 280.64 21.78
  A 3.71 3.67 78.4 0 0 280.08 22.64
  Q 276.77 29.99 274.80 38.88
  A 0.17 0.17 0.0 0 1 274.47 38.89
  Z
  M 188.69 34.31
  Q 187.47 44.77 189.24 55.05
  A 7.75 7.16 31.5 0 0 189.65 56.50
  Q 190.34 58.29 192.02 62.21
  Q 195.41 70.14 201.92 75.31
  A 0.48 0.48 0.0 0 1 201.60 76.17
  Q 191.48 75.79 183.01 69.90
  C 181.04 68.53 180.82 67.36 180.28 65.07
  A 2.92 2.92 0.0 0 0 177.84 62.87
  L 176.32 62.67
  A 1.22 1.22 0.0 0 1 175.46 62.14
  Q 171.78 56.72 170.81 53.94
  Q 168.03 45.91 163.76 33.98
  Q 163.00 31.87 160.75 31.93
  Q 155.21 32.07 150.24 34.49
  A 1.01 0.99 -8.9 0 0 149.69 35.23
  Q 148.74 41.69 148.86 42.93
  Q 149.95 53.63 155.92 63.25
  C 158.05 66.69 161.05 69.81 163.16 72.68
  A 1.40 1.36 -60.0 0 1 163.41 73.67
  L 162.88 77.69
  A 0.54 0.54 0.0 0 1 162.03 78.06
  Q 155.77 73.68 149.93 69.58
  Q 149.29 69.13 147.61 67.39
  A 1.82 1.81 -19.2 0 0 146.46 66.84
  Q 144.11 66.63 143.74 66.38
  Q 130.49 57.46 128.39 55.32
  Q 125.11 51.99 123.70 49.30
  C 121.15 44.40 118.64 40.72 116.37 36.07
  C 114.77 32.79 111.34 23.62 107.18 20.36
  C 104.17 18.00 104.91 14.89 99.66 14.69
  Q 95.54 14.53 90.53 15.11
  C 88.30 15.36 86.74 16.25 87.55 18.71
  Q 89.99 26.03 93.15 32.53
  C 94.58 35.44 96.51 37.41 97.90 39.88
  Q 100.94 45.25 104.30 49.28
  Q 108.00 53.69 109.23 56.19
  C 112.02 61.85 114.83 68.46 116.65 75.55
  Q 118.30 81.93 119.40 85.03
  C 120.64 88.48 120.82 91.51 121.71 96.32
  A 1.96 1.94 19.0 0 0 122.18 97.27
  L 123.12 98.30
  A 0.87 0.86 -54.4 0 1 123.27 99.22
  L 122.96 99.94
  A 3.03 2.99 51.8 0 0 122.76 101.73
  L 124.00 107.81
  A 9.27 6.15 89.0 0 1 124.20 109.09
  C 124.29 110.47 124.09 112.73 124.81 114.67
  Q 125.22 115.78 125.22 116.65
  A 0.85 0.85 0.0 0 1 124.26 117.48
  L 123.49 117.38
  A 1.22 1.21 1.2 0 1 122.44 116.29
  Q 121.81 109.57 120.31 102.43
  C 119.21 97.24 119.54 92.75 118.23 87.96
  Q 115.34 77.36 109.45 67.94
  Q 105.28 61.27 99.55 56.95
  Q 93.22 52.18 86.61 49.55
  C 76.49 45.53 66.86 46.42 55.93 48.86
  Q 41.32 52.13 36.27 65.19
  Q 35.03 68.41 33.80 76.22
  A 2.76 2.70 -47.4 0 0 33.83 77.23
  C 34.52 80.42 33.89 84.09 34.84 87.69
  Q 36.58 94.31 39.97 99.55
  A 5.06 4.97 6.6 0 0 40.64 100.38
  Q 44.46 104.10 45.84 105.61
  C 48.53 108.58 52.05 110.88 55.39 112.35
  Q 65.41 116.73 76.75 119.03
  Q 80.46 119.79 94.37 121.88
  C 99.20 122.61 103.91 122.55 109.22 123.53
  A 1.22 1.22 0.0 0 1 110.20 124.51
  Q 110.91 128.50 111.13 132.02
  Q 112.23 149.92 112.39 154.70
  Q 112.72 165.09 113.19 172.30
  A 0.99 0.97 15.0 0 0 113.64 173.06
  Q 115.81 174.43 118.20 173.64
  Q 123.22 171.99 124.05 166.52
  C 124.71 162.17 124.90 157.41 124.52 152.84
  Q 124.26 149.88 124.72 146.32
  A 2.06 1.96 -43.6 0 0 124.74 145.92
  L 123.77 129.54
  A 0.53 0.52 29.6 0 1 124.76 129.27
  C 127.02 133.57 127.46 139.23 128.36 145.19
  Q 128.50 146.11 128.35 148.14
  A 9.85 9.74 42.6 0 0 128.46 150.43
  Q 129.55 157.22 129.42 164.57
  C 129.40 165.62 129.91 167.35 130.01 168.33
  Q 130.61 174.62 130.71 185.47
  C 130.72 187.21 131.27 188.89 130.96 190.57
  C 130.60 192.62 131.21 194.43 131.88 196.93
  A 1.33 1.32 -8.3 0 1 130.63 198.59
  L 112.84 199.10
  A 1.09 1.09 0.0 0 1 111.73 198.21
  Q 110.83 193.57 111.26 189.53
  Q 111.66 185.78 111.20 181.98
  C 110.37 175.06 108.76 168.54 107.35 162.77
  C 105.42 154.91 100.61 145.17 94.46 140.02
  Q 88.87 135.34 87.51 134.13
  C 82.22 129.43 74.09 125.06 67.07 124.16
  Q 59.02 123.14 51.12 123.27
  C 45.62 123.37 40.58 124.66 34.57 125.85
  A 6.82 6.77 25.1 0 0 32.62 126.55
  C 24.14 131.13 19.87 139.73 19.16 148.96
  Q 18.80 153.66 20.89 160.11
  Q 24.07 169.90 25.69 173.36
  Q 30.79 184.23 41.76 191.24
  Q 53.07 198.47 65.88 201.63
  C 75.30 203.96 85.95 204.69 96.35 205.76
  A 0.58 0.58 0.0 0 1 96.87 206.30
  C 97.45 215.15 97.85 218.53 97.85 226.24
  Q 97.86 231.52 98.33 238.47
  C 98.80 245.23 98.12 253.31 99.33 259.79
  A 1.83 1.82 16.3 0 0 99.88 260.79
  Q 102.21 262.96 105.86 261.73
  A 1.91 1.88 -80.9 0 0 106.76 261.07
  Q 109.22 257.66 109.60 255.32
  C 110.21 251.59 111.11 245.74 111.21 241.53
  Q 111.36 235.20 111.56 228.04
  A 7.55 7.43 -50.6 0 0 111.41 226.36
  L 111.17 225.15
  A 4.22 4.15 46.2 0 1 111.19 223.48
  L 111.76 220.80
  A 8.34 8.26 -41.4 0 0 111.92 218.44
  L 111.31 210.65
  A 1.98 1.90 -43.8 0 1 111.33 210.17
  L 111.99 206.35
  A 1.12 1.12 0.0 0 1 113.02 205.42
  Q 121.46 204.88 133.36 203.60
  Q 142.94 202.57 153.33 199.72
  Q 168.44 195.57 178.84 191.66
  A 0.54 0.53 74.5 0 1 179.55 192.07
  C 180.83 198.73 184.02 203.99 190.45 206.78
  A 4.22 4.07 54.4 0 0 192.25 207.11
  C 196.31 206.94 198.57 206.02 203.23 205.51
  Q 207.10 205.08 210.33 203.29
  A 0.23 0.23 0.0 0 1 210.61 203.65
  Q 208.85 205.43 208.48 207.25
  A 2.91 2.91 0.0 0 1 207.75 208.68
  C 206.95 209.53 203.92 212.04 204.92 214.29
  C 206.35 217.50 209.29 215.73 211.75 216.21
  Q 217.79 217.39 223.27 215.29
  C 225.95 214.26 226.77 212.37 228.23 210.17
  Q 230.40 206.89 231.20 204.64
  A 1.29 1.28 2.6 0 1 232.09 203.83
  L 242.63 201.14
  A 0.41 0.41 0.0 0 1 243.05 201.27
  Q 248.21 207.16 254.87 210.71
  A 1.69 1.68 -79.7 0 1 255.75 211.99
  Q 256.98 222.51 260.08 234.73
  A 6.11 6.10 -67.2 0 0 260.72 236.30
  Q 262.77 239.86 264.44 245.10
  A 6.91 6.84 16.0 0 0 265.81 247.54
  L 273.27 256.14
  A 4.88 4.71 -5.2 0 0 274.56 257.18
  Q 280.80 260.62 286.56 259.34
  Q 290.45 258.47 293.12 258.05
  Q 295.77 257.63 299.33 255.52
  C 304.73 252.33 309.55 245.57 312.88 240.03
  C 314.32 237.65 314.68 234.98 316.00 232.89
  A 3.57 3.52 63.9 0 0 316.54 231.27
  Q 316.64 230.02 318.12 221.01
  C 318.62 217.96 318.30 214.43 317.64 211.77
  A 2.29 2.29 0.0 0 0 316.12 210.15
  C 312.21 208.87 305.31 207.67 302.11 210.29
  A 1.01 1.01 0.0 0 0 301.81 211.43
  Q 303.39 215.66 302.64 220.45
  A 2.41 2.29 -50.7 0 0 302.72 221.50
  Q 303.40 223.68 302.70 229.25
  Q 302.01 234.70 300.30 239.47
  C 299.11 242.79 297.05 245.04 294.28 249.07
  A 7.45 7.29 -3.6 0 1 292.90 250.60
  L 289.87 253.17
  A 1.73 1.73 0.0 0 1 287.56 253.12
  Q 285.17 250.89 283.91 247.57
  Q 281.75 241.87 279.73 236.02
  A 5.78 5.52 -57.7 0 1 279.43 234.53
  C 279.20 231.31 277.86 228.57 277.34 225.45
  Q 276.40 219.80 275.98 218.08
  A 3.18 3.11 41.5 0 1 275.90 216.97
  Q 276.12 214.86 274.76 206.85
  Q 273.13 197.25 273.80 183.00
  Q 274.05 177.72 274.19 169.24
  A 1.20 1.19 -84.4 0 1 275.59 168.08
  Q 280.39 168.91 284.90 171.56
  A 7.10 7.07 67.3 0 0 286.77 172.33
  Q 289.91 173.12 293.79 175.56
  A 1.73 1.72 10.9 0 1 294.56 176.69
  L 296.27 185.44
  A 2.87 2.55 32.2 0 0 296.43 185.99
  L 299.35 193.55
  A 1.30 1.30 0.0 0 0 300.43 194.37
  C 304.18 194.77 309.45 194.83 311.47 191.21
  A 1.16 1.13 52.2 0 0 311.57 190.34
  L 309.76 184.10
  A 0.53 0.52 2.9 0 1 310.46 183.47
  C 313.71 184.78 317.14 186.98 320.90 188.37
  Q 332.08 192.53 343.09 193.99
  A 0.66 0.65 0.6 0 1 343.65 194.56
  Q 344.18 198.68 343.25 201.75
  A 1.78 1.78 0.0 0 0 343.25 202.73
  C 344.35 206.57 343.27 210.18 343.59 213.34
  C 343.81 215.54 343.01 217.44 343.48 219.65
  Q 343.86 221.43 343.70 224.39
  Q 343.34 230.83 344.38 244.24
  C 344.52 246.00 344.01 247.88 344.49 249.91
  Q 344.85 251.44 344.48 252.80
  A 1.06 1.01 49.1 0 0 344.46 253.25
  L 349.19 277.13
  A 1.26 1.25 81.1 0 0 350.55 278.13
  L 365.69 276.60
  A 1.21 1.21 0.0 0 0 366.76 275.18
  Q 364.42 262.68 363.12 250.64
  C 362.40 244.02 362.37 237.54 361.88 230.53
  C 361.18 220.42 361.43 212.25 361.38 201.70
  C 361.37 199.53 361.78 197.21 361.95 195.06
  A 1.93 1.92 86.6 0 1 363.48 193.33
  C 368.63 192.28 375.70 191.17 380.70 188.59
  Q 388.49 184.58 391.04 182.25
  Q 397.07 176.75 399.84 169.89
  Q 401.48 165.84 401.37 164.09
  Q 401.06 159.04 401.01 155.51
  Q 400.91 148.23 396.11 140.50
  C 393.93 136.99 391.30 135.76 387.44 134.83
  C 386.00 134.48 382.25 134.92 379.87 134.63
  Q 370.11 133.46 362.84 134.36
  A 5.55 5.54 -72.7 0 0 359.41 136.16
  Q 356.64 139.28 352.84 145.54
  C 349.39 151.21 347.82 159.79 345.08 164.95
  A 1.07 1.05 -45.6 0 0 345.08 165.94
  Q 346.08 167.88 345.72 170.76
  Q 344.78 178.34 344.04 186.15
  A 1.01 1.01 0.0 0 1 342.84 187.04
  Q 336.48 185.74 330.02 182.96
  Q 319.65 178.49 313.72 175.51
  Q 311.65 174.47 309.82 173.27
  A 1.40 1.37 16.3 0 1 309.20 172.16
  L 308.53 148.71
  A 0.81 0.81 0.0 0 1 309.32 147.88
  Q 316.26 147.72 325.75 146.88
  Q 334.27 146.12 338.57 144.84
  Q 345.59 142.76 348.72 140.42
  Q 354.21 136.31 355.92 134.49
  C 362.48 127.53 367.35 118.97 367.49 109.52
  Q 367.58 103.21 367.20 100.29
  Q 365.64 88.26 356.32 80.44
  C 351.97 76.79 344.11 75.36 338.38 74.42
  Q 335.87 74.01 333.10 74.18
  C 326.75 74.55 321.17 75.32 316.33 79.51
  C 310.07 84.92 303.85 91.48 301.24 99.16
  Q 299.35 104.73 298.73 106.34
  C 296.24 112.77 295.42 120.52 294.75 126.69
  C 294.43 129.67 294.74 132.91 294.12 135.89
  A 1.68 1.68 0.0 0 1 292.14 137.20
  Q 282.38 135.20 274.62 134.22
  Q 264.64 132.95 257.20 133.14
  A 0.70 0.70 0.0 0 1 256.52 132.22
  C 257.24 130.10 256.98 128.20 257.43 126.26
  Q 259.10 119.15 259.60 109.86
  A 2.00 2.00 0.0 0 1 261.44 107.97
  C 265.77 107.63 270.81 107.60 275.22 106.36
  C 280.98 104.73 286.59 100.17 289.48 98.76
  A 10.82 10.65 -83.5 0 0 291.42 97.19
  L 297.00 91.46
  A 1.93 1.90 -16.9 0 0 297.47 90.60
  L 298.71 85.54
  A 2.17 2.13 39.9 0 0 298.57 84.12
  Q 296.86 80.49 291.48 78.29
  Q 284.71 75.52 279.29 73.46
  C 271.69 70.57 266.27 66.59 262.06 60.30
  Q 258.00 54.23 253.54 45.12
  Q 252.18 42.33 251.46 40.12
  C 250.25 36.36 249.37 33.29 246.57 30.88
  C 245.25 29.75 243.39 30.72 241.86 29.99
  Q 240.00 29.11 238.33 29.02
  Q 235.63 28.87 231.86 28.88
  A 1.27 1.26 76.3 0 0 230.74 30.73
  Q 237.26 43.51 238.99 57.81
  A 1.13 0.66 -75.1 0 0 239.05 58.03
  L 240.01 60.52
  A 2.51 2.45 -60.2 0 1 240.16 61.10
  Q 240.74 65.60 242.40 75.54
  C 242.90 78.50 243.08 82.35 243.35 85.49
  Q 243.66 89.20 243.34 93.00
  C 242.88 98.44 242.94 103.95 242.34 109.31
  Q 241.62 115.75 241.20 122.25
  Q 241.05 124.45 240.49 126.51
  C 240.15 127.76 238.70 128.43 238.05 129.42
  Q 237.54 130.22 236.06 132.48
  A 1.74 1.73 19.9 0 1 234.38 133.26
  L 229.29 132.58
  A 0.37 0.37 0.0 0 1 229.06 131.96
  L 230.96 129.81
  A 6.18 5.73 -11.9 0 0 231.64 128.85
  C 234.09 124.48 237.42 119.84 238.78 115.02
  A 1.42 1.42 0.0 0 0 237.91 113.30
  C 233.14 111.54 229.14 114.45 225.95 117.91
  C 224.33 119.66 223.66 121.45 222.45 123.81
  A 1.56 1.26 85.9 0 1 222.34 123.98
  L 217.64 130.17
  A 0.52 0.52 0.0 0 1 216.72 129.96
  Q 215.12 121.65 216.05 113.81
  C 216.21 112.49 215.57 111.33 216.12 110.39
  Q 216.76 109.31 216.60 107.98
  C 216.28 105.31 216.12 99.79 219.79 98.78
  Q 227.80 96.57 235.35 95.24
  A 1.69 1.56 -14.7 0 0 236.69 93.14
  Q 236.25 91.92 234.52 91.97
  Q 226.08 92.20 221.09 92.89
  A 1.68 1.67 89.8 0 1 219.20 91.01
  L 220.30 82.68
  A 0.52 0.51 -84.9 0 1 220.82 82.24
  Q 228.54 82.50 228.82 82.55
  C 231.91 83.11 237.72 81.96 240.35 80.85
  A 1.03 1.03 0.0 0 0 240.01 78.87
  Q 237.09 78.71 228.64 77.09
  Q 225.50 76.48 222.71 75.03
  A 3.37 3.35 -79.4 0 1 220.92 72.40
  L 220.65 69.69
  A 1.54 1.54 0.0 0 0 219.07 68.30
  L 214.04 68.45
  A 2.13 2.11 70.6 0 1 212.29 67.60
  Q 208.65 62.72 205.97 55.97
  C 204.60 52.53 204.43 48.88 203.21 45.32
  A 7.50 7.41 33.4 0 1 202.85 43.62
  C 202.56 40.68 202.64 36.23 201.09 33.75
  A 1.80 1.77 77.7 0 0 199.85 32.94
  Q 195.73 32.34 191.86 33.56
  C 190.98 33.83 189.99 33.60 189.37 33.65
  A 0.75 0.75 0.0 0 0 188.69 34.31
  Z
  M 157.26 229.84
  A 0.28 0.28 0.0 0 1 157.26 230.39
  Q 145.17 231.95 132.08 235.62
  C 128.70 236.56 121.43 239.23 120.53 242.75
  Q 119.25 247.77 124.65 248.98
  C 127.34 249.58 129.96 248.64 132.83 248.98
  C 134.52 249.18 136.30 248.34 138.37 247.98
  Q 143.99 247.02 151.17 245.87
  Q 152.66 245.63 153.85 245.75
  C 155.80 245.95 158.09 245.14 160.34 244.88
  Q 168.32 243.99 180.24 243.62
  A 0.40 0.40 0.0 0 1 180.65 244.06
  Q 180.62 244.45 180.22 244.60
  Q 176.93 245.92 175.14 249.82
  C 174.18 251.92 174.27 253.82 173.96 256.00
  A 22.18 22.07 -44.9 0 0 173.93 261.96
  L 175.49 273.96
  A 0.33 0.33 0.0 0 1 174.92 274.22
  L 160.86 258.79
  A 3.62 3.59 66.8 0 0 157.97 257.62
  Q 150.63 258.10 143.55 258.46
  A 2.21 2.20 3.0 0 0 141.48 260.31
  Q 141.34 261.25 142.18 262.37
  Q 144.26 265.15 146.13 267.63
  A 13.37 13.25 -88.4 0 0 148.07 269.70
  Q 153.77 274.66 157.13 279.54
  Q 158.45 281.47 159.52 282.38
  Q 160.26 283.02 161.94 285.22
  Q 168.38 293.67 172.78 304.01
  Q 173.80 306.40 174.39 309.08
  Q 174.78 310.82 176.14 314.12
  Q 176.49 314.97 177.89 320.87
  A 5.85 5.44 27.0 0 0 178.33 322.07
  Q 183.15 331.40 180.14 341.49
  A 1.02 1.01 15.5 0 0 180.87 342.77
  Q 183.06 343.32 184.01 343.17
  C 186.18 342.82 187.61 344.15 190.04 343.56
  C 192.34 343.00 194.22 343.10 196.49 343.04
  A 1.72 1.72 0.0 0 0 198.07 341.88
  C 199.97 336.30 199.59 329.30 200.48 324.49
  Q 202.16 315.46 203.42 304.24
  A 7.38 7.37 58.4 0 1 203.83 302.51
  Q 204.45 300.84 204.39 300.49
  Q 203.74 296.64 205.59 290.81
  C 208.02 283.13 214.50 268.53 224.19 268.45
  Q 226.25 268.43 227.81 267.19
  A 0.94 0.93 38.6 0 0 227.63 265.61
  C 225.92 264.81 224.02 264.83 222.62 264.61
  Q 214.51 263.34 205.62 265.04
  A 8.11 7.99 -63.8 0 0 203.50 265.78
  C 199.54 267.85 196.79 269.07 195.09 271.83
  A 0.78 0.78 0.0 0 1 193.71 271.72
  C 192.88 269.78 192.56 268.14 191.25 266.19
  Q 190.44 265.00 189.98 263.27
  Q 188.26 256.90 187.63 251.37
  A 2.05 2.04 61.7 0 1 188.08 249.86
  C 190.68 246.68 194.23 246.33 199.04 245.52
  C 200.45 245.28 201.66 245.85 202.90 245.24
  Q 203.92 244.75 205.69 244.48
  Q 210.18 243.79 213.44 242.93
  A 0.60 0.60 0.0 0 0 213.53 241.80
  Q 211.85 241.05 209.62 240.62
  Q 200.80 238.92 191.41 238.21
  C 188.85 238.02 186.99 238.61 184.74 238.13
  Q 183.14 237.80 179.75 237.96
  Q 163.45 238.77 149.55 240.53
  C 143.58 241.29 138.73 242.60 132.84 243.29
  A 0.36 0.36 0.0 0 1 132.53 242.68
  C 135.61 239.40 138.36 238.92 143.68 237.77
  Q 158.94 234.49 168.57 234.42
  Q 180.02 234.32 186.95 234.09
  Q 190.64 233.97 193.07 234.14
  Q 197.98 234.49 199.18 234.33
  C 204.24 233.64 211.83 234.67 216.65 233.87
  A 6.23 6.12 -44.0 0 1 218.80 233.89
  Q 221.83 234.47 224.91 234.11
  C 228.11 233.74 232.02 234.92 235.23 234.44
  Q 241.30 233.52 247.93 232.45
  Q 249.57 232.19 250.29 231.18
  A 1.35 1.34 -59.1 0 0 249.79 229.17
  C 245.61 227.14 241.15 226.62 234.24 225.19
  C 230.10 224.34 225.21 224.56 221.79 223.36
  A 1.10 1.08 -52.5 0 0 220.81 223.50
  Q 220.03 224.05 216.50 223.58
  C 213.33 223.16 209.26 223.85 205.83 223.55
  C 199.50 223.01 192.62 223.71 186.06 223.38
  Q 174.71 222.81 161.65 223.51
  C 152.17 224.02 144.37 224.05 134.90 224.51
  Q 133.55 224.58 132.78 224.82
  C 131.07 225.36 129.43 224.75 127.40 225.00
  Q 126.80 225.07 117.99 225.70
  Q 115.74 225.86 114.05 226.77
  A 1.86 1.85 -35.3 0 0 113.55 229.66
  L 114.70 230.92
  A 2.57 2.57 0.0 0 0 117.38 231.64
  Q 121.51 230.32 124.24 231.28
  A 1.32 1.31 39.5 0 0 125.33 231.18
  Q 127.39 230.00 129.86 230.73
  A 2.12 2.12 0.0 0 0 131.10 230.73
  Q 133.37 230.04 135.00 230.04
  Q 143.70 230.06 152.33 229.43
  Q 153.98 229.31 157.26 229.84
  Z
  M 367.28 278.36
  A 1.35 1.35 0.0 0 0 365.87 277.47
  L 350.87 278.98
  A 1.35 1.35 0.0 0 0 349.74 280.77
  L 350.74 283.59
  A 1.35 1.35 0.0 0 0 352.14 284.48
  L 367.14 282.97
  A 1.35 1.35 0.0 0 0 368.28 281.18
  L 367.28 278.36
  Z
  M 351.76 288.93
  A 0.85 0.85 0.0 0 0 352.70 289.75
  L 368.93 288.11
  A 0.85 0.85 0.0 0 0 369.65 286.98
  L 368.70 284.30
  A 0.85 0.85 0.0 0 0 367.82 283.74
  L 352.45 285.29
  A 0.85 0.85 0.0 0 0 351.68 286.16
  L 351.76 288.93
  Z
  M 370.37 293.59
  L 370.21 290.61
  A 1.05 1.05 0.0 0 0 369.10 289.62
  L 356.78 290.29
  A 4.01 2.24 -3.1 0 0 352.90 292.74
  L 352.93 293.34
  A 4.01 2.24 -3.1 0 0 357.05 295.36
  L 369.38 294.69
  A 1.05 1.05 0.0 0 0 370.37 293.59
  Z
  M 179.58 348.59
  L 179.64 352.23
  A 0.66 0.66 0.0 0 0 180.31 352.88
  L 197.43 352.58
  A 1.80 1.12 -1.0 0 0 199.21 351.43
  L 199.16 348.71
  A 1.80 1.12 -1.0 0 0 197.35 347.62
  L 180.23 347.92
  A 0.66 0.66 0.0 0 0 179.58 348.59
  Z
  M 199.14 354.91
  L 180.31 355.70
  A 0.31 0.31 0.0 0 0 180.02 356.02
  L 180.07 357.31
  A 3.66 3.46 -2.4 0 0 183.87 360.61
  L 196.00 360.10
  A 3.66 3.46 -2.4 0 0 199.51 356.49
  L 199.46 355.20
  A 0.31 0.31 0.0 0 0 199.14 354.91
  Z"
/>
<path fill="#f7dd81" d="
  M 164.77 18.91
  Q 164.89 18.57 166.88 13.93
  C 168.46 10.25 177.22 7.23 181.15 6.69
  C 189.73 5.50 196.83 7.71 205.12 9.88
  Q 209.70 11.09 214.38 15.82
  A 1.62 1.62 0.0 0 1 214.81 16.65
  C 215.52 20.72 210.33 23.65 207.06 23.62
  Q 206.95 23.62 204.29 23.45
  A 5.21 5.18 -52.2 0 0 202.28 23.71
  Q 198.57 24.97 195.52 25.12
  C 192.51 25.27 189.35 26.29 186.52 26.11
  C 178.55 25.61 172.02 26.45 165.33 20.95
  A 1.82 1.82 0.0 0 1 164.77 18.91
  Z
  M 180.70 18.24
  Q 180.62 21.11 183.51 22.50
  A 1.62 1.60 52.2 0 0 184.51 22.63
  C 188.94 21.82 192.73 21.47 195.50 19.13
  A 1.38 1.35 24.9 0 1 196.41 18.81
  C 197.37 18.83 198.43 19.33 199.35 19.02
  Q 200.63 18.60 201.78 17.03
  A 1.31 1.30 -55.3 0 0 201.45 15.17
  Q 190.41 7.92 181.07 17.37
  A 1.27 1.26 68.1 0 0 180.70 18.24
  Z"
/>
<path fill="#f7dd81" d="
  M 274.80 38.88
  Q 276.77 29.99 280.08 22.64
  A 3.71 3.67 78.4 0 1 280.64 21.78
  C 283.35 18.75 288.48 18.66 291.21 21.95
  C 294.41 25.79 294.67 28.63 293.53 33.74
  Q 290.87 45.63 288.15 64.04
  A 2.09 2.06 34.2 0 0 288.42 65.41
  L 290.02 68.11
  A 1.54 1.46 28.5 0 1 290.23 68.75
  Q 290.27 69.08 290.27 69.09
  A 1.14 1.13 -75.5 0 1 288.80 69.96
  C 284.79 68.63 281.88 66.43 278.66 63.91
  Q 274.18 60.41 273.23 54.09
  A 0.44 0.43 83.6 0 0 272.77 53.72
  L 272.74 53.72
  A 0.42 0.42 0.0 0 0 272.35 54.19
  Q 272.78 58.04 273.34 58.93
  Q 274.94 61.45 275.91 63.34
  A 1.00 0.99 -86.5 0 1 274.47 64.62
  Q 269.13 60.97 261.60 53.66
  C 257.08 49.29 257.20 37.29 258.13 32.30
  Q 259.56 24.60 261.62 19.08
  Q 263.70 13.49 264.37 11.28
  A 1.33 1.32 -4.4 0 1 265.05 10.49
  Q 269.16 8.56 273.98 9.41
  A 0.68 0.65 72.8 0 1 274.34 9.61
  L 277.52 13.10
  A 0.60 0.58 26.8 0 1 277.67 13.54
  L 277.52 16.15
  A 1.67 1.67 0.0 0 0 277.96 17.40
  L 278.35 17.83
  A 1.21 1.20 -57.3 0 1 278.60 19.00
  Q 275.79 27.56 274.31 37.49
  Q 274.23 38.03 274.47 38.89
  A 0.17 0.17 0.0 0 0 274.80 38.88
  Z"
/>
<path fill="#101010" d="
  M 181.07 17.37
  Q 190.41 7.92 201.45 15.17
  A 1.31 1.30 -55.3 0 1 201.78 17.03
  Q 200.63 18.60 199.35 19.02
  C 198.43 19.33 197.37 18.83 196.41 18.81
  A 1.38 1.35 24.9 0 0 195.50 19.13
  C 192.73 21.47 188.94 21.82 184.51 22.63
  A 1.62 1.60 52.2 0 1 183.51 22.50
  Q 180.62 21.11 180.70 18.24
  A 1.27 1.26 68.1 0 1 181.07 17.37
  Z"
/>
<path fill="#f7dd81" d="
  M 189.37 33.65
  C 189.99 33.60 190.98 33.83 191.86 33.56
  Q 195.73 32.34 199.85 32.94
  A 1.80 1.77 77.7 0 1 201.09 33.75
  C 202.64 36.23 202.56 40.68 202.85 43.62
  A 7.50 7.41 33.4 0 0 203.21 45.32
  C 204.43 48.88 204.60 52.53 205.97 55.97
  Q 208.65 62.72 212.29 67.60
  A 2.13 2.11 70.6 0 0 214.04 68.45
  L 219.07 68.30
  A 1.54 1.54 0.0 0 1 220.65 69.69
  L 220.92 72.40
  A 3.37 3.35 -79.4 0 0 222.71 75.03
  Q 225.50 76.48 228.64 77.09
  Q 237.09 78.71 240.01 78.87
  A 1.03 1.03 0.0 0 1 240.35 80.85
  C 237.72 81.96 231.91 83.11 228.82 82.55
  Q 228.54 82.50 220.82 82.24
  A 0.52 0.51 -84.9 0 0 220.30 82.68
  L 219.20 91.01
  A 1.68 1.67 89.8 0 0 221.09 92.89
  Q 226.08 92.20 234.52 91.97
  Q 236.25 91.92 236.69 93.14
  A 1.69 1.56 -14.7 0 1 235.35 95.24
  Q 227.80 96.57 219.79 98.78
  C 216.12 99.79 216.28 105.31 216.60 107.98
  Q 216.76 109.31 216.12 110.39
  C 215.57 111.33 216.21 112.49 216.05 113.81
  Q 215.12 121.65 216.72 129.96
  A 0.52 0.52 0.0 0 0 217.64 130.17
  L 222.34 123.98
  A 1.56 1.26 85.9 0 0 222.45 123.81
  C 223.66 121.45 224.33 119.66 225.95 117.91
  C 229.14 114.45 233.14 111.54 237.91 113.30
  A 1.42 1.42 0.0 0 1 238.78 115.02
  C 237.42 119.84 234.09 124.48 231.64 128.85
  A 6.18 5.73 -11.9 0 1 230.96 129.81
  L 229.06 131.96
  A 0.37 0.37 0.0 0 0 229.29 132.58
  L 234.38 133.26
  A 1.74 1.73 19.9 0 0 236.06 132.48
  Q 237.54 130.22 238.05 129.42
  C 238.70 128.43 240.15 127.76 240.49 126.51
  Q 241.05 124.45 241.20 122.25
  Q 241.62 115.75 242.34 109.31
  C 242.94 103.95 242.88 98.44 243.34 93.00
  Q 243.66 89.20 243.35 85.49
  C 243.08 82.35 242.90 78.50 242.40 75.54
  Q 240.74 65.60 240.16 61.10
  A 2.51 2.45 -60.2 0 0 240.01 60.52
  L 239.05 58.03
  A 1.13 0.66 -75.1 0 1 238.99 57.81
  Q 237.26 43.51 230.74 30.73
  A 1.27 1.26 76.3 0 1 231.86 28.88
  Q 235.63 28.87 238.33 29.02
  Q 240.00 29.11 241.86 29.99
  C 243.39 30.72 245.25 29.75 246.57 30.88
  C 249.37 33.29 250.25 36.36 251.46 40.12
  Q 252.18 42.33 253.54 45.12
  Q 258.00 54.23 262.06 60.30
  C 266.27 66.59 271.69 70.57 279.29 73.46
  Q 284.71 75.52 291.48 78.29
  Q 296.86 80.49 298.57 84.12
  A 2.17 2.13 39.9 0 1 298.71 85.54
  L 297.47 90.60
  A 1.93 1.90 -16.9 0 1 297.00 91.46
  L 291.42 97.19
  A 10.82 10.65 -83.5 0 1 289.48 98.76
  C 286.59 100.17 280.98 104.73 275.22 106.36
  C 270.81 107.60 265.77 107.63 261.44 107.97
  A 2.00 2.00 0.0 0 0 259.60 109.86
  Q 259.10 119.15 257.43 126.26
  C 256.98 128.20 257.24 130.10 256.52 132.22
  A 0.70 0.70 0.0 0 0 257.20 133.14
  Q 264.64 132.95 274.62 134.22
  Q 282.38 135.20 292.14 137.20
  A 1.68 1.68 0.0 0 0 294.12 135.89
  C 294.74 132.91 294.43 129.67 294.75 126.69
  C 295.42 120.52 296.24 112.77 298.73 106.34
  Q 299.35 104.73 301.24 99.16
  C 303.85 91.48 310.07 84.92 316.33 79.51
  C 321.17 75.32 326.75 74.55 333.10 74.18
  Q 335.87 74.01 338.38 74.42
  C 344.11 75.36 351.97 76.79 356.32 80.44
  Q 365.64 88.26 367.20 100.29
  Q 367.58 103.21 367.49 109.52
  C 367.35 118.97 362.48 127.53 355.92 134.49
  Q 354.21 136.31 348.72 140.42
  Q 345.59 142.76 338.57 144.84
  Q 334.27 146.12 325.75 146.88
  Q 316.26 147.72 309.32 147.88
  A 0.81 0.81 0.0 0 0 308.53 148.71
  L 309.20 172.16
  A 1.40 1.37 16.3 0 0 309.82 173.27
  Q 311.65 174.47 313.72 175.51
  Q 319.65 178.49 330.02 182.96
  Q 336.48 185.74 342.84 187.04
  A 1.01 1.01 0.0 0 0 344.04 186.15
  Q 344.78 178.34 345.72 170.76
  Q 346.08 167.88 345.08 165.94
  A 1.07 1.05 -45.6 0 1 345.08 164.95
  C 347.82 159.79 349.39 151.21 352.84 145.54
  Q 356.64 139.28 359.41 136.16
  A 5.55 5.54 -72.7 0 1 362.84 134.36
  Q 370.11 133.46 379.87 134.63
  C 382.25 134.92 386.00 134.48 387.44 134.83
  C 391.30 135.76 393.93 136.99 396.11 140.50
  Q 400.91 148.23 401.01 155.51
  Q 401.06 159.04 401.37 164.09
  Q 401.48 165.84 399.84 169.89
  Q 397.07 176.75 391.04 182.25
  Q 388.49 184.58 380.70 188.59
  C 375.70 191.17 368.63 192.28 363.48 193.33
  A 1.93 1.92 86.6 0 0 361.95 195.06
  C 361.78 197.21 361.37 199.53 361.38 201.70
  C 361.43 212.25 361.18 220.42 361.88 230.53
  C 362.37 237.54 362.40 244.02 363.12 250.64
  Q 364.42 262.68 366.76 275.18
  A 1.21 1.21 0.0 0 1 365.69 276.60
  L 350.55 278.13
  A 1.26 1.25 81.1 0 1 349.19 277.13
  L 344.46 253.25
  A 1.06 1.01 49.1 0 1 344.48 252.80
  Q 344.85 251.44 344.49 249.91
  C 344.01 247.88 344.52 246.00 344.38 244.24
  Q 343.34 230.83 343.70 224.39
  Q 343.86 221.43 343.48 219.65
  C 343.01 217.44 343.81 215.54 343.59 213.34
  C 343.27 210.18 344.35 206.57 343.25 202.73
  A 1.78 1.78 0.0 0 1 343.25 201.75
  Q 344.18 198.68 343.65 194.56
  A 0.66 0.65 0.6 0 0 343.09 193.99
  Q 332.08 192.53 320.90 188.37
  C 317.14 186.98 313.71 184.78 310.46 183.47
  A 0.53 0.52 2.9 0 0 309.76 184.10
  L 311.57 190.34
  A 1.16 1.13 52.2 0 1 311.47 191.21
  C 309.45 194.83 304.18 194.77 300.43 194.37
  A 1.30 1.30 0.0 0 1 299.35 193.55
  L 296.43 185.99
  A 2.87 2.55 32.2 0 1 296.27 185.44
  L 294.56 176.69
  A 1.73 1.72 10.9 0 0 293.79 175.56
  Q 289.91 173.12 286.77 172.33
  A 7.10 7.07 67.3 0 1 284.90 171.56
  Q 280.39 168.91 275.59 168.08
  A 1.20 1.19 -84.4 0 0 274.19 169.24
  Q 274.05 177.72 273.80 183.00
  Q 273.13 197.25 274.76 206.85
  Q 276.12 214.86 275.90 216.97
  A 3.18 3.11 41.5 0 0 275.98 218.08
  Q 276.40 219.80 277.34 225.45
  C 277.86 228.57 279.20 231.31 279.43 234.53
  A 5.78 5.52 -57.7 0 0 279.73 236.02
  Q 281.75 241.87 283.91 247.57
  Q 285.17 250.89 287.56 253.12
  A 1.73 1.73 0.0 0 0 289.87 253.17
  L 292.90 250.60
  A 7.45 7.29 -3.6 0 0 294.28 249.07
  C 297.05 245.04 299.11 242.79 300.30 239.47
  Q 302.01 234.70 302.70 229.25
  Q 303.40 223.68 302.72 221.50
  A 2.41 2.29 -50.7 0 1 302.64 220.45
  Q 303.39 215.66 301.81 211.43
  A 1.01 1.01 0.0 0 1 302.11 210.29
  C 305.31 207.67 312.21 208.87 316.12 210.15
  A 2.29 2.29 0.0 0 1 317.64 211.77
  C 318.30 214.43 318.62 217.96 318.12 221.01
  Q 316.64 230.02 316.54 231.27
  A 3.57 3.52 63.9 0 1 316.00 232.89
  C 314.68 234.98 314.32 237.65 312.88 240.03
  C 309.55 245.57 304.73 252.33 299.33 255.52
  Q 295.77 257.63 293.12 258.05
  Q 290.45 258.47 286.56 259.34
  Q 280.80 260.62 274.56 257.18
  A 4.88 4.71 -5.2 0 1 273.27 256.14
  L 265.81 247.54
  A 6.91 6.84 16.0 0 1 264.44 245.10
  Q 262.77 239.86 260.72 236.30
  A 6.11 6.10 -67.2 0 1 260.08 234.73
  Q 256.98 222.51 255.75 211.99
  A 1.69 1.68 -79.7 0 0 254.87 210.71
  Q 248.21 207.16 243.05 201.27
  A 0.41 0.41 0.0 0 0 242.63 201.14
  L 232.09 203.83
  A 1.29 1.28 2.6 0 0 231.20 204.64
  Q 230.40 206.89 228.23 210.17
  C 226.77 212.37 225.95 214.26 223.27 215.29
  Q 217.79 217.39 211.75 216.21
  C 209.29 215.73 206.35 217.50 204.92 214.29
  C 203.92 212.04 206.95 209.53 207.75 208.68
  A 2.91 2.91 0.0 0 0 208.48 207.25
  Q 208.85 205.43 210.61 203.65
  A 0.23 0.23 0.0 0 0 210.33 203.29
  Q 207.10 205.08 203.23 205.51
  C 198.57 206.02 196.31 206.94 192.25 207.11
  A 4.22 4.07 54.4 0 1 190.45 206.78
  C 184.02 203.99 180.83 198.73 179.55 192.07
  A 0.54 0.53 74.5 0 0 178.84 191.66
  Q 168.44 195.57 153.33 199.72
  Q 142.94 202.57 133.36 203.60
  Q 121.46 204.88 113.02 205.42
  A 1.12 1.12 0.0 0 0 111.99 206.35
  L 111.33 210.17
  A 1.98 1.90 -43.8 0 0 111.31 210.65
  L 111.92 218.44
  A 8.34 8.26 -41.4 0 1 111.76 220.80
  L 111.19 223.48
  A 4.22 4.15 46.2 0 0 111.17 225.15
  L 111.41 226.36
  A 7.55 7.43 -50.6 0 1 111.56 228.04
  Q 111.36 235.20 111.21 241.53
  C 111.11 245.74 110.21 251.59 109.60 255.32
  Q 109.22 257.66 106.76 261.07
  A 1.91 1.88 -80.9 0 1 105.86 261.73
  Q 102.21 262.96 99.88 260.79
  A 1.83 1.82 16.3 0 1 99.33 259.79
  C 98.12 253.31 98.80 245.23 98.33 238.47
  Q 97.86 231.52 97.85 226.24
  C 97.85 218.53 97.45 215.15 96.87 206.30
  A 0.58 0.58 0.0 0 0 96.35 205.76
  C 85.95 204.69 75.30 203.96 65.88 201.63
  Q 53.07 198.47 41.76 191.24
  Q 30.79 184.23 25.69 173.36
  Q 24.07 169.90 20.89 160.11
  Q 18.80 153.66 19.16 148.96
  C 19.87 139.73 24.14 131.13 32.62 126.55
  A 6.82 6.77 25.1 0 1 34.57 125.85
  C 40.58 124.66 45.62 123.37 51.12 123.27
  Q 59.02 123.14 67.07 124.16
  C 74.09 125.06 82.22 129.43 87.51 134.13
  Q 88.87 135.34 94.46 140.02
  C 100.61 145.17 105.42 154.91 107.35 162.77
  C 108.76 168.54 110.37 175.06 111.20 181.98
  Q 111.66 185.78 111.26 189.53
  Q 110.83 193.57 111.73 198.21
  A 1.09 1.09 0.0 0 0 112.84 199.10
  L 130.63 198.59
  A 1.33 1.32 -8.3 0 0 131.88 196.93
  C 131.21 194.43 130.60 192.62 130.96 190.57
  C 131.27 188.89 130.72 187.21 130.71 185.47
  Q 130.61 174.62 130.01 168.33
  C 129.91 167.35 129.40 165.62 129.42 164.57
  Q 129.55 157.22 128.46 150.43
  A 9.85 9.74 42.6 0 1 128.35 148.14
  Q 128.50 146.11 128.36 145.19
  C 127.46 139.23 127.02 133.57 124.76 129.27
  A 0.53 0.52 29.6 0 0 123.77 129.54
  L 124.74 145.92
  A 2.06 1.96 -43.6 0 1 124.72 146.32
  Q 124.26 149.88 124.52 152.84
  C 124.90 157.41 124.71 162.17 124.05 166.52
  Q 123.22 171.99 118.20 173.64
  Q 115.81 174.43 113.64 173.06
  A 0.99 0.97 15.0 0 1 113.19 172.30
  Q 112.72 165.09 112.39 154.70
  Q 112.23 149.92 111.13 132.02
  Q 110.91 128.50 110.20 124.51
  A 1.22 1.22 0.0 0 0 109.22 123.53
  C 103.91 122.55 99.20 122.61 94.37 121.88
  Q 80.46 119.79 76.75 119.03
  Q 65.41 116.73 55.39 112.35
  C 52.05 110.88 48.53 108.58 45.84 105.61
  Q 44.46 104.10 40.64 100.38
  A 5.06 4.97 6.6 0 1 39.97 99.55
  Q 36.58 94.31 34.84 87.69
  C 33.89 84.09 34.52 80.42 33.83 77.23
  A 2.76 2.70 -47.4 0 1 33.80 76.22
  Q 35.03 68.41 36.27 65.19
  Q 41.32 52.13 55.93 48.86
  C 66.86 46.42 76.49 45.53 86.61 49.55
  Q 93.22 52.18 99.55 56.95
  Q 105.28 61.27 109.45 67.94
  Q 115.34 77.36 118.23 87.96
  C 119.54 92.75 119.21 97.24 120.31 102.43
  Q 121.81 109.57 122.44 116.29
  A 1.22 1.21 1.2 0 0 123.49 117.38
  L 124.26 117.48
  A 0.85 0.85 0.0 0 0 125.22 116.65
  Q 125.22 115.78 124.81 114.67
  C 124.09 112.73 124.29 110.47 124.20 109.09
  A 9.27 6.15 89.0 0 0 124.00 107.81
  L 122.76 101.73
  A 3.03 2.99 51.8 0 1 122.96 99.94
  L 123.27 99.22
  A 0.87 0.86 -54.4 0 0 123.12 98.30
  L 122.18 97.27
  A 1.96 1.94 19.0 0 1 121.71 96.32
  C 120.82 91.51 120.64 88.48 119.40 85.03
  Q 118.30 81.93 116.65 75.55
  C 114.83 68.46 112.02 61.85 109.23 56.19
  Q 108.00 53.69 104.30 49.28
  Q 100.94 45.25 97.90 39.88
  C 96.51 37.41 94.58 35.44 93.15 32.53
  Q 89.99 26.03 87.55 18.71
  C 86.74 16.25 88.30 15.36 90.53 15.11
  Q 95.54 14.53 99.66 14.69
  C 104.91 14.89 104.17 18.00 107.18 20.36
  C 111.34 23.62 114.77 32.79 116.37 36.07
  C 118.64 40.72 121.15 44.40 123.70 49.30
  Q 125.11 51.99 128.39 55.32
  Q 130.49 57.46 143.74 66.38
  Q 144.11 66.63 146.46 66.84
  A 1.82 1.81 -19.2 0 1 147.61 67.39
  Q 149.29 69.13 149.93 69.58
  Q 155.77 73.68 162.03 78.06
  A 0.54 0.54 0.0 0 0 162.88 77.69
  L 163.41 73.67
  A 1.40 1.36 -60.0 0 0 163.16 72.68
  C 161.05 69.81 158.05 66.69 155.92 63.25
  Q 149.95 53.63 148.86 42.93
  Q 148.74 41.69 149.69 35.23
  A 1.01 0.99 -8.9 0 1 150.24 34.49
  Q 155.21 32.07 160.75 31.93
  Q 163.00 31.87 163.76 33.98
  Q 168.03 45.91 170.81 53.94
  Q 171.78 56.72 175.46 62.14
  A 1.22 1.22 0.0 0 0 176.32 62.67
  L 177.84 62.87
  A 2.92 2.92 0.0 0 1 180.28 65.07
  C 180.82 67.36 181.04 68.53 183.01 69.90
  Q 191.48 75.79 201.60 76.17
  A 0.48 0.48 0.0 0 0 201.92 75.31
  Q 195.41 70.14 192.02 62.21
  Q 190.34 58.29 189.65 56.50
  A 7.75 7.16 31.5 0 1 189.24 55.05
  Q 187.47 44.77 188.69 34.31
  A 0.75 0.75 0.0 0 1 189.37 33.65
  Z
  M 108.98 114.70
  Q 106.02 94.72 96.63 77.63
  Q 87.27 60.62 68.77 54.54
  C 66.59 53.83 59.86 52.08 57.58 54.09
  C 49.32 61.34 49.58 70.87 50.62 80.77
  C 51.45 88.77 57.45 96.46 63.46 101.38
  Q 68.13 105.19 75.10 107.89
  Q 83.65 111.19 87.73 112.01
  Q 98.66 114.22 103.78 114.92
  Q 106.20 115.24 108.60 115.16
  A 0.40 0.40 0.0 0 0 108.98 114.70
  Z
  M 259.45 73.43
  L 260.29 102.83
  A 0.84 0.84 0.0 0 0 261.27 103.63
  Q 271.63 101.97 279.65 95.69
  C 283.38 92.77 287.95 85.48 282.32 81.99
  C 280.70 80.98 278.57 79.97 277.35 79.59
  Q 267.42 76.47 259.81 73.18
  A 0.26 0.26 0.0 0 0 259.45 73.43
  Z
  M 133.86 74.77
  L 135.58 82.95
  A 1.27 0.89 50.7 0 0 135.63 83.11
  Q 137.47 87.80 137.74 91.52
  Q 137.99 95.00 138.39 97.11
  C 139.12 100.98 139.67 105.60 139.89 107.90
  C 140.25 111.78 141.92 116.07 141.62 119.47
  A 1.03 1.02 19.3 0 0 142.09 120.43
  C 144.87 122.21 148.11 121.82 150.98 123.27
  A 3.01 2.76 -54.8 0 0 154.40 122.52
  Q 155.82 120.95 155.81 118.96
  Q 155.79 114.74 157.04 105.28
  Q 157.60 100.99 156.44 94.15
  A 3.63 3.46 27.0 0 0 156.04 93.01
  Q 152.35 86.38 151.41 85.57
  Q 143.80 78.97 134.80 74.07
  A 0.65 0.64 -81.5 0 0 133.86 74.77
  Z
  M 203.82 77.14
  L 191.67 81.44
  A 2.51 2.37 -56.1 0 1 191.14 81.56
  C 187.39 81.90 185.71 81.49 181.24 80.42
  A 1.44 1.44 0.0 0 0 179.51 81.47
  L 177.88 88.04
  A 0.82 0.82 0.0 0 0 178.63 89.06
  L 193.64 89.98
  A 0.97 0.96 -58.9 0 1 194.08 91.77
  L 191.24 93.47
  A 1.80 1.69 23.7 0 1 190.56 93.71
  L 177.83 95.46
  A 1.43 1.41 13.0 0 0 176.87 96.05
  Q 176.04 97.23 175.86 98.89
  Q 174.14 115.56 174.05 119.75
  Q 173.93 125.09 174.43 128.62
  A 0.85 0.85 0.0 0 0 175.92 129.05
  Q 177.45 127.23 179.90 124.63
  Q 180.87 123.59 183.73 120.05
  Q 191.03 111.00 194.05 108.28
  C 195.48 106.99 198.46 105.67 198.86 102.87
  Q 200.48 91.49 204.47 77.75
  A 0.50 0.50 0.0 0 0 203.82 77.14
  Z
  M 336.81 79.12
  C 334.64 80.71 331.28 81.06 329.15 82.73
  C 323.02 87.55 317.95 94.60 315.03 101.51
  C 313.00 106.30 311.05 114.74 310.68 119.01
  Q 309.92 127.62 308.94 136.26
  Q 308.82 137.27 308.94 139.82
  A 1.60 1.59 4.6 0 0 310.22 141.32
  Q 319.25 143.15 327.55 139.75
  Q 332.17 137.86 332.36 137.79
  Q 334.67 136.94 336.83 135.30
  Q 349.07 126.02 352.07 112.22
  C 354.56 100.71 351.51 89.16 342.63 81.47
  Q 340.62 79.73 337.80 78.94
  A 1.16 1.15 34.5 0 0 336.81 79.12
  Z
  M 225.29 135.36
  L 221.92 136.89
  A 3.54 3.15 -25.5 0 1 221.45 137.06
  L 208.38 140.40
  A 2.35 2.33 47.9 0 1 206.98 140.32
  C 201.73 138.31 199.92 132.79 198.22 127.71
  C 197.49 125.51 197.52 123.77 197.60 121.62
  A 0.55 0.55 0.0 0 0 196.63 121.25
  C 192.40 126.40 187.51 131.82 181.14 135.14
  A 4.33 4.24 -65.3 0 1 180.09 135.54
  Q 174.47 136.89 170.89 138.16
  Q 166.98 139.54 165.49 139.48
  C 160.32 139.27 157.21 132.54 156.47 128.21
  A 1.19 1.18 74.3 0 0 154.87 127.31
  Q 149.84 129.27 144.57 129.26
  A 0.25 0.24 -10.6 0 0 144.34 129.59
  Q 148.75 140.93 159.04 146.65
  Q 162.77 148.73 171.23 150.84
  C 174.58 151.68 176.82 152.73 179.50 154.08
  A 1.58 1.41 27.4 0 1 180.26 156.09
  Q 179.64 157.23 178.12 157.86
  Q 172.46 160.20 166.86 162.14
  A 0.38 0.38 0.0 0 0 166.82 162.85
  Q 168.76 163.77 169.26 163.77
  Q 170.56 163.78 178.06 165.38
  A 1.10 1.08 13.1 0 0 179.34 164.60
  L 182.46 152.94
  A 2.43 2.21 -26.4 0 1 182.67 152.40
  Q 184.01 149.95 184.77 147.72
  A 0.96 0.96 0.0 0 0 184.40 146.62
  Q 180.07 143.65 175.86 140.66
  Q 174.35 139.59 174.65 138.16
  A 0.99 0.99 0.0 0 1 175.54 137.37
  Q 182.40 136.84 190.17 138.93
  A 2.63 2.52 -14.7 0 1 191.25 139.53
  L 192.15 140.37
  A 0.91 0.89 -17.3 0 0 192.60 140.60
  Q 196.93 141.39 202.00 143.28
  C 205.78 144.69 211.74 141.85 215.30 145.85
  A 1.42 1.42 0.0 0 1 214.28 148.21
  L 203.62 148.51
  A 2.06 2.05 5.9 0 0 201.69 150.07
  L 198.65 162.26
  A 0.28 0.28 0.0 0 0 198.94 162.61
  L 209.88 161.73
  A 0.65 0.62 52.5 0 1 210.21 161.78
  Q 212.33 162.67 213.56 164.18
  A 1.39 1.39 0.0 0 1 212.92 166.38
  C 210.43 167.21 205.57 168.16 202.29 168.06
  Q 200.03 168.00 198.25 168.38
  A 0.68 0.68 0.0 0 0 197.71 169.03
  L 197.48 182.61
  A 2.40 2.28 -54.8 0 0 197.58 183.29
  L 200.16 191.61
  A 0.81 0.81 0.0 0 0 201.62 191.80
  Q 203.51 188.77 204.99 185.30
  C 206.06 182.80 207.92 180.07 209.36 178.12
  Q 210.24 176.93 212.99 175.81
  C 213.86 175.46 214.39 174.76 214.98 174.45
  A 0.98 0.98 0.0 0 1 215.82 174.41
  Q 218.06 175.35 220.86 175.23
  A 0.75 0.75 0.0 0 0 221.55 174.69
  Q 222.40 171.70 222.67 168.61
  C 222.78 167.35 223.62 165.22 223.78 163.61
  Q 224.79 153.49 224.03 144.87
  A 3.46 3.43 49.9 0 1 224.13 143.65
  Q 224.66 141.55 224.92 137.86
  C 224.97 137.14 225.57 136.44 225.69 135.67
  A 0.29 0.29 0.0 0 0 225.29 135.36
  Z
  M 96.23 197.27
  Q 95.34 179.42 90.35 163.36
  Q 87.68 154.77 84.75 150.95
  Q 71.54 133.71 49.12 129.37
  Q 46.17 128.80 44.70 130.57
  Q 40.51 135.65 38.94 137.45
  A 6.48 6.06 81.2 0 0 38.10 138.68
  Q 35.70 143.17 35.91 149.56
  A 3.58 3.41 36.5 0 0 36.09 150.60
  Q 40.43 163.54 43.63 168.73
  Q 45.76 172.17 50.96 178.13
  Q 54.39 182.06 60.05 185.52
  Q 76.48 195.58 95.80 197.68
  A 0.39 0.39 0.0 0 0 96.23 197.27
  Z
  M 293.43 166.27
  A 0.45 0.45 0.0 0 0 294.01 165.70
  Q 293.27 163.47 293.29 161.87
  A 5.08 5.03 -56.0 0 0 292.94 160.02
  Q 291.37 156.07 292.49 151.10
  C 293.20 147.93 293.67 145.45 289.99 144.74
  Q 285.03 143.77 281.57 142.82
  C 273.40 140.55 265.44 139.50 256.65 139.00
  C 253.84 138.84 252.33 139.14 248.87 139.21
  A 0.72 0.71 4.5 0 0 248.19 139.78
  Q 247.52 143.28 246.03 150.73
  Q 245.14 155.15 245.57 164.12
  A 2.50 2.47 -37.6 0 1 245.45 165.00
  L 245.10 166.10
  A 0.73 0.73 0.0 0 0 245.97 167.03
  L 255.22 164.66
  A 2.61 2.60 -4.2 0 0 257.17 162.41
  L 257.58 158.53
  A 1.92 1.90 -30.7 0 1 257.72 157.99
  L 262.01 147.32
  A 0.82 0.69 -18.1 0 1 262.16 147.08
  Q 265.35 143.57 266.83 143.10
  Q 270.14 142.07 274.31 143.75
  A 1.54 1.51 87.7 0 1 275.13 144.52
  L 276.90 148.25
  A 0.87 0.85 -54.8 0 1 276.98 148.76
  L 275.40 160.68
  A 1.21 1.20 -79.9 0 0 276.33 162.02
  C 278.12 162.41 280.35 162.31 282.74 162.97
  Q 289.62 164.87 293.43 166.27
  Z
  M 363.52 185.60
  Q 378.72 180.20 382.56 165.49
  C 383.63 161.39 384.12 154.96 383.48 151.52
  Q 382.45 146.03 378.87 141.36
  A 1.10 1.10 0.0 0 0 377.11 141.37
  C 373.00 146.86 367.35 154.13 366.16 161.49
  Q 364.93 169.10 364.05 172.70
  A 12.15 12.05 51.9 0 0 363.69 175.79
  Q 363.74 179.91 362.82 184.99
  A 0.54 0.53 85.6 0 0 363.52 185.60
  Z
  M 148.06 153.46
  L 148.59 158.75
  A 1.09 1.08 -2.9 0 0 149.67 159.72
  Q 156.62 159.75 162.47 157.54
  A 0.65 0.65 0.0 0 0 162.40 156.30
  L 148.71 152.89
  A 0.53 0.52 -85.9 0 0 148.06 153.46
  Z
  M 149.64 167.06
  Q 149.61 168.04 150.08 169.75
  Q 150.36 170.77 149.85 173.91
  A 4.08 3.86 49.1 0 0 149.81 174.80
  L 150.28 181.72
  A 1.12 0.94 54.0 0 1 150.26 182.01
  C 149.79 184.10 150.53 186.25 150.65 188.24
  Q 150.88 191.93 150.76 194.01
  A 0.52 0.51 86.9 0 0 151.36 194.55
  Q 155.99 193.73 166.16 191.20
  C 171.19 189.94 176.20 186.05 177.46 180.71
  Q 178.12 177.93 175.99 176.29
  C 171.24 172.62 167.26 170.26 160.98 169.00
  Q 151.65 167.13 150.23 166.65
  A 0.45 0.45 0.0 0 0 149.64 167.06
  Z
  M 254.73 188.80
  L 255.90 169.67
  A 0.54 0.54 0.0 0 0 255.33 169.10
  C 251.94 169.28 249.90 170.11 246.33 168.80
  A 0.61 0.60 -86.3 0 0 245.54 169.50
  Q 247.86 180.28 253.91 189.03
  A 0.45 0.45 0.0 0 0 254.73 188.80
  Z
  M 235.4801 193.0593
  A 0.98 0.65 -130.0 0 0 235.6121 194.2278
  A 0.98 0.65 -130.0 0 0 236.7399 194.5607
  A 0.98 0.65 -130.0 0 0 236.6079 193.3922
  A 0.98 0.65 -130.0 0 0 235.4801 193.0593
  Z"
/>
<path fill="#101010" d="
  M 108.98 114.70
  A 0.40 0.40 0.0 0 1 108.60 115.16
  Q 106.20 115.24 103.78 114.92
  Q 98.66 114.22 87.73 112.01
  Q 83.65 111.19 75.10 107.89
  Q 68.13 105.19 63.46 101.38
  C 57.45 96.46 51.45 88.77 50.62 80.77
  C 49.58 70.87 49.32 61.34 57.58 54.09
  C 59.86 52.08 66.59 53.83 68.77 54.54
  Q 87.27 60.62 96.63 77.63
  Q 106.02 94.72 108.98 114.70
  Z"
/>
<path fill="#101010" d="
  M 259.45 73.43
  A 0.26 0.26 0.0 0 1 259.81 73.18
  Q 267.42 76.47 277.35 79.59
  C 278.57 79.97 280.70 80.98 282.32 81.99
  C 287.95 85.48 283.38 92.77 279.65 95.69
  Q 271.63 101.97 261.27 103.63
  A 0.84 0.84 0.0 0 1 260.29 102.83
  L 259.45 73.43
  Z"
/>
<path fill="#101010" d="
  M 133.86 74.77
  A 0.65 0.64 -81.5 0 1 134.80 74.07
  Q 143.80 78.97 151.41 85.57
  Q 152.35 86.38 156.04 93.01
  A 3.63 3.46 27.0 0 1 156.44 94.15
  Q 157.60 100.99 157.04 105.28
  Q 155.79 114.74 155.81 118.96
  Q 155.82 120.95 154.40 122.52
  A 3.01 2.76 -54.8 0 1 150.98 123.27
  C 148.11 121.82 144.87 122.21 142.09 120.43
  A 1.03 1.02 19.3 0 1 141.62 119.47
  C 141.92 116.07 140.25 111.78 139.89 107.90
  C 139.67 105.60 139.12 100.98 138.39 97.11
  Q 137.99 95.00 137.74 91.52
  Q 137.47 87.80 135.63 83.11
  A 1.27 0.89 50.7 0 1 135.58 82.95
  L 133.86 74.77
  Z"
/>
<path fill="#101010" d="
  M 203.82 77.14
  A 0.50 0.50 0.0 0 1 204.47 77.75
  Q 200.48 91.49 198.86 102.87
  C 198.46 105.67 195.48 106.99 194.05 108.28
  Q 191.03 111.00 183.73 120.05
  Q 180.87 123.59 179.90 124.63
  Q 177.45 127.23 175.92 129.05
  A 0.85 0.85 0.0 0 1 174.43 128.62
  Q 173.93 125.09 174.05 119.75
  Q 174.14 115.56 175.86 98.89
  Q 176.04 97.23 176.87 96.05
  A 1.43 1.41 13.0 0 1 177.83 95.46
  L 190.56 93.71
  A 1.80 1.69 23.7 0 0 191.24 93.47
  L 194.08 91.77
  A 0.97 0.96 -58.9 0 0 193.64 89.98
  L 178.63 89.06
  A 0.82 0.82 0.0 0 1 177.88 88.04
  L 179.51 81.47
  A 1.44 1.44 0.0 0 1 181.24 80.42
  C 185.71 81.49 187.39 81.90 191.14 81.56
  A 2.51 2.37 -56.1 0 0 191.67 81.44
  L 203.82 77.14
  Z"
/>
<path fill="#101010" d="
  M 337.80 78.94
  Q 340.62 79.73 342.63 81.47
  C 351.51 89.16 354.56 100.71 352.07 112.22
  Q 349.07 126.02 336.83 135.30
  Q 334.67 136.94 332.36 137.79
  Q 332.17 137.86 327.55 139.75
  Q 319.25 143.15 310.22 141.32
  A 1.60 1.59 4.6 0 1 308.94 139.82
  Q 308.82 137.27 308.94 136.26
  Q 309.92 127.62 310.68 119.01
  C 311.05 114.74 313.00 106.30 315.03 101.51
  C 317.95 94.60 323.02 87.55 329.15 82.73
  C 331.28 81.06 334.64 80.71 336.81 79.12
  A 1.16 1.15 34.5 0 1 337.80 78.94
  Z"
/>
<path fill="#101010" d="
  M 225.69 135.67
  C 225.57 136.44 224.97 137.14 224.92 137.86
  Q 224.66 141.55 224.13 143.65
  A 3.46 3.43 49.9 0 0 224.03 144.87
  Q 224.79 153.49 223.78 163.61
  C 223.62 165.22 222.78 167.35 222.67 168.61
  Q 222.40 171.70 221.55 174.69
  A 0.75 0.75 0.0 0 1 220.86 175.23
  Q 218.06 175.35 215.82 174.41
  A 0.98 0.98 0.0 0 0 214.98 174.45
  C 214.39 174.76 213.86 175.46 212.99 175.81
  Q 210.24 176.93 209.36 178.12
  C 207.92 180.07 206.06 182.80 204.99 185.30
  Q 203.51 188.77 201.62 191.80
  A 0.81 0.81 0.0 0 1 200.16 191.61
  L 197.58 183.29
  A 2.40 2.28 -54.8 0 1 197.48 182.61
  L 197.71 169.03
  A 0.68 0.68 0.0 0 1 198.25 168.38
  Q 200.03 168.00 202.29 168.06
  C 205.57 168.16 210.43 167.21 212.92 166.38
  A 1.39 1.39 0.0 0 0 213.56 164.18
  Q 212.33 162.67 210.21 161.78
  A 0.65 0.62 52.5 0 0 209.88 161.73
  L 198.94 162.61
  A 0.28 0.28 0.0 0 1 198.65 162.26
  L 201.69 150.07
  A 2.06 2.05 5.9 0 1 203.62 148.51
  L 214.28 148.21
  A 1.42 1.42 0.0 0 0 215.30 145.85
  C 211.74 141.85 205.78 144.69 202.00 143.28
  Q 196.93 141.39 192.60 140.60
  A 0.91 0.89 -17.3 0 1 192.15 140.37
  L 191.25 139.53
  A 2.63 2.52 -14.7 0 0 190.17 138.93
  Q 182.40 136.84 175.54 137.37
  A 0.99 0.99 0.0 0 0 174.65 138.16
  Q 174.35 139.59 175.86 140.66
  Q 180.07 143.65 184.40 146.62
  A 0.96 0.96 0.0 0 1 184.77 147.72
  Q 184.01 149.95 182.67 152.40
  A 2.43 2.21 -26.4 0 0 182.46 152.94
  L 179.34 164.60
  A 1.10 1.08 13.1 0 1 178.06 165.38
  Q 170.56 163.78 169.26 163.77
  Q 168.76 163.77 166.82 162.85
  A 0.38 0.38 0.0 0 1 166.86 162.14
  Q 172.46 160.20 178.12 157.86
  Q 179.64 157.23 180.26 156.09
  A 1.58 1.41 27.4 0 0 179.50 154.08
  C 176.82 152.73 174.58 151.68 171.23 150.84
  Q 162.77 148.73 159.04 146.65
  Q 148.75 140.93 144.34 129.59
  A 0.25 0.24 -10.6 0 1 144.57 129.26
  Q 149.84 129.27 154.87 127.31
  A 1.19 1.18 74.3 0 1 156.47 128.21
  C 157.21 132.54 160.32 139.27 165.49 139.48
  Q 166.98 139.54 170.89 138.16
  Q 174.47 136.89 180.09 135.54
  A 4.33 4.24 -65.3 0 0 181.14 135.14
  C 187.51 131.82 192.40 126.40 196.63 121.25
  A 0.55 0.55 0.0 0 1 197.60 121.62
  C 197.52 123.77 197.49 125.51 198.22 127.71
  C 199.92 132.79 201.73 138.31 206.98 140.32
  A 2.35 2.33 47.9 0 0 208.38 140.40
  L 221.45 137.06
  A 3.54 3.15 -25.5 0 0 221.92 136.89
  L 225.29 135.36
  A 0.29 0.29 0.0 0 1 225.69 135.67
  Z"
/>
<path fill="#101010" d="
  M 96.23 197.27
  A 0.39 0.39 0.0 0 1 95.80 197.68
  Q 76.48 195.58 60.05 185.52
  Q 54.39 182.06 50.96 178.13
  Q 45.76 172.17 43.63 168.73
  Q 40.43 163.54 36.09 150.60
  A 3.58 3.41 36.5 0 1 35.91 149.56
  Q 35.70 143.17 38.10 138.68
  A 6.48 6.06 81.2 0 1 38.94 137.45
  Q 40.51 135.65 44.70 130.57
  Q 46.17 128.80 49.12 129.37
  Q 71.54 133.71 84.75 150.95
  Q 87.68 154.77 90.35 163.36
  Q 95.34 179.42 96.23 197.27
  Z"
/>
<path fill="#101010" d="
  M 293.43 166.27
  Q 289.62 164.87 282.74 162.97
  C 280.35 162.31 278.12 162.41 276.33 162.02
  A 1.21 1.20 -79.9 0 1 275.40 160.68
  L 276.98 148.76
  A 0.87 0.85 -54.8 0 0 276.90 148.25
  L 275.13 144.52
  A 1.54 1.51 87.7 0 0 274.31 143.75
  Q 270.14 142.07 266.83 143.10
  Q 265.35 143.57 262.16 147.08
  A 0.82 0.69 -18.1 0 0 262.01 147.32
  L 257.72 157.99
  A 1.92 1.90 -30.7 0 0 257.58 158.53
  L 257.17 162.41
  A 2.61 2.60 -4.2 0 1 255.22 164.66
  L 245.97 167.03
  A 0.73 0.73 0.0 0 1 245.10 166.10
  L 245.45 165.00
  A 2.50 2.47 -37.6 0 0 245.57 164.12
  Q 245.14 155.15 246.03 150.73
  Q 247.52 143.28 248.19 139.78
  A 0.72 0.71 4.5 0 1 248.87 139.21
  C 252.33 139.14 253.84 138.84 256.65 139.00
  C 265.44 139.50 273.40 140.55 281.57 142.82
  Q 285.03 143.77 289.99 144.74
  C 293.67 145.45 293.20 147.93 292.49 151.10
  Q 291.37 156.07 292.94 160.02
  A 5.08 5.03 -56.0 0 1 293.29 161.87
  Q 293.27 163.47 294.01 165.70
  A 0.45 0.45 0.0 0 1 293.43 166.27
  Z"
/>
<path fill="#101010" d="
  M 363.52 185.60
  A 0.54 0.53 85.6 0 1 362.82 184.99
  Q 363.74 179.91 363.69 175.79
  A 12.15 12.05 51.9 0 1 364.05 172.70
  Q 364.93 169.10 366.16 161.49
  C 367.35 154.13 373.00 146.86 377.11 141.37
  A 1.10 1.10 0.0 0 1 378.87 141.36
  Q 382.45 146.03 383.48 151.52
  C 384.12 154.96 383.63 161.39 382.56 165.49
  Q 378.72 180.20 363.52 185.60
  Z"
/>
<path fill="#101010" d="
  M 148.06 153.46
  A 0.53 0.52 -85.9 0 1 148.71 152.89
  L 162.40 156.30
  A 0.65 0.65 0.0 0 1 162.47 157.54
  Q 156.62 159.75 149.67 159.72
  A 1.09 1.08 -2.9 0 1 148.59 158.75
  L 148.06 153.46
  Z"
/>
<path fill="#101010" d="
  M 149.64 167.06
  A 0.45 0.45 0.0 0 1 150.23 166.65
  Q 151.65 167.13 160.98 169.00
  C 167.26 170.26 171.24 172.62 175.99 176.29
  Q 178.12 177.93 177.46 180.71
  C 176.20 186.05 171.19 189.94 166.16 191.20
  Q 155.99 193.73 151.36 194.55
  A 0.52 0.51 86.9 0 1 150.76 194.01
  Q 150.88 191.93 150.65 188.24
  C 150.53 186.25 149.79 184.10 150.26 182.01
  A 1.12 0.94 54.0 0 0 150.28 181.72
  L 149.81 174.80
  A 4.08 3.86 49.1 0 1 149.85 173.91
  Q 150.36 170.77 150.08 169.75
  Q 149.61 168.04 149.64 167.06
  Z"
/>
<path fill="#101010" d="
  M 254.73 188.80
  A 0.45 0.45 0.0 0 1 253.91 189.03
  Q 247.86 180.28 245.54 169.50
  A 0.61 0.60 -86.3 0 1 246.33 168.80
  C 249.90 170.11 251.94 169.28 255.33 169.10
  A 0.54 0.54 0.0 0 1 255.90 169.67
  L 254.73 188.80
  Z"
/>
<ellipse fill="#101010" cx="0.00" cy="0.00" transform="translate(236.11,193.81) rotate(-130.0)" rx="0.98" ry="0.65"/>
<path fill="#f7dd81" d="
  M 157.26 229.84
  Q 153.98 229.31 152.33 229.43
  Q 143.70 230.06 135.00 230.04
  Q 133.37 230.04 131.10 230.73
  A 2.12 2.12 0.0 0 1 129.86 230.73
  Q 127.39 230.00 125.33 231.18
  A 1.32 1.31 39.5 0 1 124.24 231.28
  Q 121.51 230.32 117.38 231.64
  A 2.57 2.57 0.0 0 1 114.70 230.92
  L 113.55 229.66
  A 1.86 1.85 -35.3 0 1 114.05 226.77
  Q 115.74 225.86 117.99 225.70
  Q 126.80 225.07 127.40 225.00
  C 129.43 224.75 131.07 225.36 132.78 224.82
  Q 133.55 224.58 134.90 224.51
  C 144.37 224.05 152.17 224.02 161.65 223.51
  Q 174.71 222.81 186.06 223.38
  C 192.62 223.71 199.50 223.01 205.83 223.55
  C 209.26 223.85 213.33 223.16 216.50 223.58
  Q 220.03 224.05 220.81 223.50
  A 1.10 1.08 -52.5 0 1 221.79 223.36
  C 225.21 224.56 230.10 224.34 234.24 225.19
  C 241.15 226.62 245.61 227.14 249.79 229.17
  A 1.35 1.34 -59.1 0 1 250.29 231.18
  Q 249.57 232.19 247.93 232.45
  Q 241.30 233.52 235.23 234.44
  C 232.02 234.92 228.11 233.74 224.91 234.11
  Q 221.83 234.47 218.80 233.89
  A 6.23 6.12 -44.0 0 0 216.65 233.87
  C 211.83 234.67 204.24 233.64 199.18 234.33
  Q 197.98 234.49 193.07 234.14
  Q 190.64 233.97 186.95 234.09
  Q 180.02 234.32 168.57 234.42
  Q 158.94 234.49 143.68 237.77
  C 138.36 238.92 135.61 239.40 132.53 242.68
  A 0.36 0.36 0.0 0 0 132.84 243.29
  C 138.73 242.60 143.58 241.29 149.55 240.53
  Q 163.45 238.77 179.75 237.96
  Q 183.14 237.80 184.74 238.13
  C 186.99 238.61 188.85 238.02 191.41 238.21
  Q 200.80 238.92 209.62 240.62
  Q 211.85 241.05 213.53 241.80
  A 0.60 0.60 0.0 0 1 213.44 242.93
  Q 210.18 243.79 205.69 244.48
  Q 203.92 244.75 202.90 245.24
  C 201.66 245.85 200.45 245.28 199.04 245.52
  C 194.23 246.33 190.68 246.68 188.08 249.86
  A 2.05 2.04 61.7 0 0 187.63 251.37
  Q 188.26 256.90 189.98 263.27
  Q 190.44 265.00 191.25 266.19
  C 192.56 268.14 192.88 269.78 193.71 271.72
  A 0.78 0.78 0.0 0 0 195.09 271.83
  C 196.79 269.07 199.54 267.85 203.50 265.78
  A 8.11 7.99 -63.8 0 1 205.62 265.04
  Q 214.51 263.34 222.62 264.61
  C 224.02 264.83 225.92 264.81 227.63 265.61
  A 0.94 0.93 38.6 0 1 227.81 267.19
  Q 226.25 268.43 224.19 268.45
  C 214.50 268.53 208.02 283.13 205.59 290.81
  Q 203.74 296.64 204.39 300.49
  Q 204.45 300.84 203.83 302.51
  A 7.38 7.37 58.4 0 0 203.42 304.24
  Q 202.16 315.46 200.48 324.49
  C 199.59 329.30 199.97 336.30 198.07 341.88
  A 1.72 1.72 0.0 0 1 196.49 343.04
  C 194.22 343.10 192.34 343.00 190.04 343.56
  C 187.61 344.15 186.18 342.82 184.01 343.17
  Q 183.06 343.32 180.87 342.77
  A 1.02 1.01 15.5 0 1 180.14 341.49
  Q 183.15 331.40 178.33 322.07
  A 5.85 5.44 27.0 0 1 177.89 320.87
  Q 176.49 314.97 176.14 314.12
  Q 174.78 310.82 174.39 309.08
  Q 173.80 306.40 172.78 304.01
  Q 168.38 293.67 161.94 285.22
  Q 160.26 283.02 159.52 282.38
  Q 158.45 281.47 157.13 279.54
  Q 153.77 274.66 148.07 269.70
  A 13.37 13.25 -88.4 0 1 146.13 267.63
  Q 144.26 265.15 142.18 262.37
  Q 141.34 261.25 141.48 260.31
  A 2.21 2.20 3.0 0 1 143.55 258.46
  Q 150.63 258.10 157.97 257.62
  A 3.62 3.59 66.8 0 1 160.86 258.79
  L 174.92 274.22
  A 0.33 0.33 0.0 0 0 175.49 273.96
  L 173.93 261.96
  A 22.18 22.07 -44.9 0 1 173.96 256.00
  C 174.27 253.82 174.18 251.92 175.14 249.82
  Q 176.93 245.92 180.22 244.60
  Q 180.62 244.45 180.65 244.06
  A 0.40 0.40 0.0 0 0 180.24 243.62
  Q 168.32 243.99 160.34 244.88
  C 158.09 245.14 155.80 245.95 153.85 245.75
  Q 152.66 245.63 151.17 245.87
  Q 143.99 247.02 138.37 247.98
  C 136.30 248.34 134.52 249.18 132.83 248.98
  C 129.96 248.64 127.34 249.58 124.65 248.98
  Q 119.25 247.77 120.53 242.75
  C 121.43 239.23 128.70 236.56 132.08 235.62
  Q 145.17 231.95 157.26 230.39
  A 0.28 0.28 0.0 0 0 157.26 229.84
  Z"
/>
<path fill="#f7dd81" d="
  M 367.28 278.36
  L 368.28 281.18
  A 1.35 1.35 0.0 0 1 367.14 282.97
  L 352.14 284.48
  A 1.35 1.35 0.0 0 1 350.74 283.59
  L 349.74 280.77
  A 1.35 1.35 0.0 0 1 350.87 278.98
  L 365.87 277.47
  A 1.35 1.35 0.0 0 1 367.28 278.36
  Z"
/>
<path fill="#f7dd81" d="
  M 351.76 288.93
  L 351.68 286.16
  A 0.85 0.85 0.0 0 1 352.45 285.29
  L 367.82 283.74
  A 0.85 0.85 0.0 0 1 368.70 284.30
  L 369.65 286.98
  A 0.85 0.85 0.0 0 1 368.93 288.11
  L 352.70 289.75
  A 0.85 0.85 0.0 0 1 351.76 288.93
  Z"
/>
<path fill="#f7dd81" d="
  M 370.37 293.59
  A 1.05 1.05 0.0 0 1 369.38 294.69
  L 357.05 295.36
  A 4.01 2.24 -3.1 0 1 352.93 293.34
  L 352.90 292.74
  A 4.01 2.24 -3.1 0 1 356.78 290.29
  L 369.10 289.62
  A 1.05 1.05 0.0 0 1 370.21 290.61
  L 370.37 293.59
  Z"
/>
<path fill="#f7dd81" d="
  M 179.58 348.59
  A 0.66 0.66 0.0 0 1 180.23 347.92
  L 197.35 347.62
  A 1.80 1.12 -1.0 0 1 199.16 348.71
  L 199.21 351.43
  A 1.80 1.12 -1.0 0 1 197.43 352.58
  L 180.31 352.88
  A 0.66 0.66 0.0 0 1 179.64 352.23
  L 179.58 348.59
  Z"
/>
<path fill="#f7dd81" d="
  M 199.14 354.91
  A 0.31 0.31 0.0 0 1 199.46 355.20
  L 199.51 356.49
  A 3.66 3.46 -2.4 0 1 196.00 360.10
  L 183.87 360.61
  A 3.66 3.46 -2.4 0 1 180.07 357.31
  L 180.02 356.02
  A 0.31 0.31 0.0 0 1 180.31 355.70
  L 199.14 354.91
  Z"
/>
</svg>
