<?xml version="1.0" encoding="UTF-8" standalone="no"?>
<!DOCTYPE svg PUBLIC "-//W3C//DTD SVG 1.1//EN" "http://www.w3.org/Graphics/SVG/1.1/DTD/svg11.dtd">
<svg xmlns="http://www.w3.org/2000/svg" version="1.1" viewBox="0.00 0.00 180.00 180.00">
<path fill="#e68a00" d="
  M 151.77 28.85
  C 146.59 49.19 124.21 57.24 105.72 59.63
  Q 90.97 61.54 76.19 60.01
  Q 74.58 59.84 72.36 59.33
  Q 70.47 58.89 68.54 58.56
  Q 57.78 56.67 47.97 51.87
  C 38.37 47.17 30.45 39.20 28.20 28.56
  A 0.32 0.31 83.9 0 1 28.50 28.18
  L 151.25 28.18
  A 0.54 0.54 0.0 0 1 151.77 28.85
  Z"
/>
<rect fill="#e68a00" x="45.00" y="78.76" width="90.00" height="28.24" rx="0.27"/>
<path fill="#e68a00" d="
  M 102.25 125.52
  C 121.26 127.34 146.89 135.48 151.81 156.84
  A 0.43 0.42 -6.4 0 1 151.39 157.36
  L 28.61 157.37
  A 0.43 0.42 6.4 0 1 28.19 156.85
  C 32.06 139.38 50.23 130.83 65.91 127.49
  Q 83.55 123.73 102.25 125.52
  Z"
/>
</svg>
