<?xml version="1.0" encoding="UTF-8" standalone="no"?>
<!DOCTYPE svg PUBLIC "-//W3C//DTD SVG 1.1//EN" "http://www.w3.org/Graphics/SVG/1.1/DTD/svg11.dtd">
<svg xmlns="http://www.w3.org/2000/svg" version="1.1" viewBox="0.00 0.00 180.00 180.00">
<g stroke-width="2.00" fill="none" stroke-linecap="butt">
<path stroke="#866918" vector-effect="non-scaling-stroke" d="
  M 115.96 63.99
  Q 115.97 64.02 115.98 64.06"
/>
<path stroke="#85321b" vector-effect="non-scaling-stroke" d="
  M 64.38 115.92
  Q 63.90 116.10 63.97 115.94"
/>
<path stroke="#fb8b22" vector-effect="non-scaling-stroke" d="
  M 115.94 115.91
  Q 115.98 115.92 116.01 115.93"
/>
</g>
<path fill="#101010" d="
  M 115.96 63.99
  Q 115.97 64.02 115.98 64.06
  L 64.46 115.51
  A 0.20 0.19 -20.9 0 0 64.39 115.66
  Q 64.38 115.79 64.38 115.92
  Q 63.90 116.10 63.97 115.94
  L 12.55 115.95
  A 0.56 0.55 90.0 0 1 12.00 115.39
  L 12.00 64.84
  A 0.86 0.86 0.0 0 1 12.86 63.98
  L 63.42 63.98
  A 0.60 0.60 0.0 0 0 64.02 63.38
  L 64.02 13.07
  A 1.06 1.06 0.0 0 1 65.08 12.01
  L 115.46 12.01
  A 0.56 0.56 0.0 0 1 116.02 12.57
  L 115.96 63.99
  Z"
/>
<path fill="#fcc11f" d="
  M 115.94 115.91
  Q 115.98 115.92 116.01 115.93
  L 115.98 64.06
  Q 115.97 64.02 115.96 63.99
  L 167.42 64.00
  A 0.55 0.54 -0.0 0 1 167.97 64.54
  L 167.97 115.35
  A 0.57 0.56 -90.0 0 1 167.41 115.92
  L 115.94 115.91
  Z"
/>
<path fill="#fa5425" d="
  M 116.01 115.93
  Q 115.98 115.92 115.94 115.91
  L 115.92 167.37
  A 0.56 0.56 0.0 0 1 115.36 167.93
  L 64.54 167.93
  A 0.53 0.53 0.0 0 1 64.01 167.40
  L 63.97 115.94
  Q 63.90 116.10 64.38 115.92
  L 116.01 115.93
  Z"
/>
</svg>
