<?xml version="1.0" encoding="UTF-8" standalone="no"?>
<!DOCTYPE svg PUBLIC "-//W3C//DTD SVG 1.1//EN" "http://www.w3.org/Graphics/SVG/1.1/DTD/svg11.dtd">
<svg xmlns="http://www.w3.org/2000/svg" version="1.1" viewBox="0.00 0.00 32.00 32.00">
<g stroke-width="2.00" fill="none" stroke-linecap="butt">
<path stroke="#845df1" vector-effect="non-scaling-stroke" d="
  M 10.81 2.86
  Q 10.22 3.25 10.16 3.50
  Q 10.11 3.75 10.21 3.93
  Q 10.36 4.19 10.27 4.48
  C 9.61 6.52 10.04 8.90 9.99 10.43
  Q 9.72 20.03 9.99 29.69"
/>
<path stroke="#a354f0" vector-effect="non-scaling-stroke" d="
  M 16.37 6.54
  L 16.37 31.03"
/>
</g>
<path fill="#7761f1" d="
  M 10.81 2.86
  Q 10.22 3.25 10.16 3.50
  Q 10.11 3.75 10.21 3.93
  Q 10.36 4.19 10.27 4.48
  C 9.61 6.52 10.04 8.90 9.99 10.43
  Q 9.72 20.03 9.99 29.69
  C 3.13 26.22 1.24 20.80 0.00 13.60
  L 0.00 8.30
  Q 2.32 -0.29 10.81 2.86
  Z"
/>
<path fill="#9159f0" d="
  M 10.81 2.86
  L 16.37 6.54
  L 16.37 31.03
  Q 13.00 31.00 9.99 29.69
  Q 9.72 20.03 9.99 10.43
  C 10.04 8.90 9.61 6.52 10.27 4.48
  Q 10.36 4.19 10.21 3.93
  Q 10.11 3.75 10.16 3.50
  Q 10.22 3.25 10.81 2.86
  Z"
/>
<path fill="#b54ff0" d="
  M 32.00 13.59
  L 32.00 17.05
  Q 29.14 30.52 16.37 31.03
  L 16.37 6.54
  Q 18.90 7.27 20.35 6.64
  Q 29.59 2.63 32.00 13.59
  Z"
/>
</svg>
