<!-- Generated by IcoMoon.io -->
<svg version="1.1" xmlns="http://www.w3.org/2000/svg" width="768" height="768" viewBox="0 0 768 768">
<title></title>
<g id="icomoon-ignore">
</g>
<path fill="#cfd0d8" d="M703.5 288v288q0 27-18.75 45.75t-44.25 18.75h-513q-25.5 0-44.25-18.75t-18.75-45.75v-384q0-27 18.75-45.75t44.25-18.75h324q-1.5 7.5-2.25 15.75t-0.75 17.25q0 34.5 14.25 65.25t38.25 53.25l-117 73.5-256.5-160.5v64.5l256.5 159 169.5-105q13.5 4.5 27 6.75t27 2.25q27 0 51.75-8.25t44.25-23.25zM511.5 160.5q0 25.5 13.5 47.25t35.25 35.25 47.25 13.5q27 0 48.75-13.5t34.5-35.25 12.75-47.25q0-27-12.75-48.75t-34.5-34.5-48.75-12.75q-25.5 0-47.25 12.75t-35.25 34.5-13.5 48.75z"></path>
</svg>
