<?xml version="1.0" encoding="UTF-8" standalone="no"?>
<!DOCTYPE svg PUBLIC "-//W3C//DTD SVG 1.1//EN" "http://www.w3.org/Graphics/SVG/1.1/DTD/svg11.dtd">
<svg xmlns="http://www.w3.org/2000/svg" version="1.1" viewBox="0.00 0.00 32.00 32.00">
<path stroke="#804400" stroke-width="2.00" fill="none" stroke-linecap="butt" vector-effect="non-scaling-stroke" d="
  M 25.27 6.26
  Q 24.49 6.69 20.88 4.73
  A 0.93 0.93 0.0 0 0 19.78 4.89
  L 17.94 6.73
  A 0.56 0.56 0.0 0 1 17.07 6.64
  C 14.82 3.14 10.05 4.32 8.15 7.60
  Q 3.99 14.76 7.41 21.16
  C 11.28 28.38 19.21 29.53 25.48 24.51
  A 0.26 0.26 0.0 0 0 25.22 24.07
  C 14.81 28.29 7.97 19.04 10.02 9.55
  Q 10.66 6.56 12.89 5.47
  A 2.18 2.18 0.0 0 1 15.38 5.88
  L 16.09 6.60
  A 0.90 0.89 -42.1 0 1 16.02 7.93
  Q 15.21 8.57 14.10 9.24
  C 9.38 12.09 14.06 15.89 16.55 18.29
  C 18.48 20.14 18.28 21.21 16.28 22.84
  A 0.34 0.33 -32.8 0 0 16.19 23.25
  L 16.21 23.30
  A 0.30 0.30 0.0 0 0 16.62 23.43
  C 19.39 21.93 23.67 19.58 20.13 16.03
  Q 19.68 15.57 20.02 15.06
  Q 20.22 14.76 20.86 15.20
  Q 21.81 15.86 22.56 16.36
  A 1.16 1.16 0.0 0 0 23.77 16.40
  Q 25.05 15.67 25.99 13.99
  A 0.32 0.32 0.0 0 0 25.67 13.52
  Q 24.06 13.71 22.59 12.53
  A 1.57 1.57 0.0 0 0 20.49 12.64
  L 19.08 14.05
  A 0.54 0.54 0.0 0 1 18.31 14.05
  L 15.90 11.64
  A 1.71 1.71 0.0 0 1 15.70 9.46
  C 17.54 6.82 19.51 7.90 21.99 9.08
  A 0.86 0.85 -52.6 0 0 22.93 8.95
  Q 25.59 6.60 25.61 6.56
  A 0.24 0.24 0.0 0 0 25.27 6.26"
/>
<path fill="#000000" d="
  M 17.95 0.00
  Q 29.62 2.31 32.00 13.96
  L 32.00 17.95
  Q 29.70 29.62 18.03 32.00
  L 14.05 32.00
  Q 2.38 29.69 0.00 18.04
  L 0.00 14.04
  Q 2.31 2.39 13.95 0.00
  L 17.95 0.00
  Z
  M 25.27 6.26
  Q 24.49 6.69 20.88 4.73
  A 0.93 0.93 0.0 0 0 19.78 4.89
  L 17.94 6.73
  A 0.56 0.56 0.0 0 1 17.07 6.64
  C 14.82 3.14 10.05 4.32 8.15 7.60
  Q 3.99 14.76 7.41 21.16
  C 11.28 28.38 19.21 29.53 25.48 24.51
  A 0.26 0.26 0.0 0 0 25.22 24.07
  C 14.81 28.29 7.97 19.04 10.02 9.55
  Q 10.66 6.56 12.89 5.47
  A 2.18 2.18 0.0 0 1 15.38 5.88
  L 16.09 6.60
  A 0.90 0.89 -42.1 0 1 16.02 7.93
  Q 15.21 8.57 14.10 9.24
  C 9.38 12.09 14.06 15.89 16.55 18.29
  C 18.48 20.14 18.28 21.21 16.28 22.84
  A 0.34 0.33 -32.8 0 0 16.19 23.25
  L 16.21 23.30
  A 0.30 0.30 0.0 0 0 16.62 23.43
  C 19.39 21.93 23.67 19.58 20.13 16.03
  Q 19.68 15.57 20.02 15.06
  Q 20.22 14.76 20.86 15.20
  Q 21.81 15.86 22.56 16.36
  A 1.16 1.16 0.0 0 0 23.77 16.40
  Q 25.05 15.67 25.99 13.99
  A 0.32 0.32 0.0 0 0 25.67 13.52
  Q 24.06 13.71 22.59 12.53
  A 1.57 1.57 0.0 0 0 20.49 12.64
  L 19.08 14.05
  A 0.54 0.54 0.0 0 1 18.31 14.05
  L 15.90 11.64
  A 1.71 1.71 0.0 0 1 15.70 9.46
  C 17.54 6.82 19.51 7.90 21.99 9.08
  A 0.86 0.85 -52.6 0 0 22.93 8.95
  Q 25.59 6.60 25.61 6.56
  A 0.24 0.24 0.0 0 0 25.27 6.26
  Z"
/>
<path fill="#ff8800" d="
  M 25.61 6.56
  Q 25.59 6.60 22.93 8.95
  A 0.86 0.85 -52.6 0 1 21.99 9.08
  C 19.51 7.90 17.54 6.82 15.70 9.46
  A 1.71 1.71 0.0 0 0 15.90 11.64
  L 18.31 14.05
  A 0.54 0.54 0.0 0 0 19.08 14.05
  L 20.49 12.64
  A 1.57 1.57 0.0 0 1 22.59 12.53
  Q 24.06 13.71 25.67 13.52
  A 0.32 0.32 0.0 0 1 25.99 13.99
  Q 25.05 15.67 23.77 16.40
  A 1.16 1.16 0.0 0 1 22.56 16.36
  Q 21.81 15.86 20.86 15.20
  Q 20.22 14.76 20.02 15.06
  Q 19.68 15.57 20.13 16.03
  C 23.67 19.58 19.39 21.93 16.62 23.43
  A 0.30 0.30 0.0 0 1 16.21 23.30
  L 16.19 23.25
  A 0.34 0.33 -32.8 0 1 16.28 22.84
  C 18.28 21.21 18.48 20.14 16.55 18.29
  C 14.06 15.89 9.38 12.09 14.10 9.24
  Q 15.21 8.57 16.02 7.93
  A 0.90 0.89 -42.1 0 0 16.09 6.60
  L 15.38 5.88
  A 2.18 2.18 0.0 0 0 12.89 5.47
  Q 10.66 6.56 10.02 9.55
  C 7.97 19.04 14.81 28.29 25.22 24.07
  A 0.26 0.26 0.0 0 1 25.48 24.51
  C 19.21 29.53 11.28 28.38 7.41 21.16
  Q 3.99 14.76 8.15 7.60
  C 10.05 4.32 14.82 3.14 17.07 6.64
  A 0.56 0.56 0.0 0 0 17.94 6.73
  L 19.78 4.89
  A 0.93 0.93 0.0 0 1 20.88 4.73
  Q 24.49 6.69 25.27 6.26
  A 0.24 0.24 0.0 0 1 25.61 6.56
  Z"
/>
</svg>
