<?xml version="1.0" encoding="UTF-8" standalone="no"?>
<!DOCTYPE svg PUBLIC "-//W3C//DTD SVG 1.1//EN" "http://www.w3.org/Graphics/SVG/1.1/DTD/svg11.dtd">
<svg xmlns="http://www.w3.org/2000/svg" version="1.1" viewBox="0.00 0.00 256.00 256.00">
<g stroke-width="2.00" fill="none" stroke-linecap="butt">
<path stroke="#8d0d78" vector-effect="non-scaling-stroke" d="
  M 201.86 67.86
  Q 201.62 68.11 201.25 68.09
  Q 199.44 67.99 196.78 67.97
  A 0.76 0.75 3.1 0 0 196.03 68.64
  Q 196.01 68.84 196.01 71.02
  Q 196.01 73.21 196.03 73.40
  A 0.76 0.75 -3.3 0 0 196.79 74.07
  Q 199.45 74.04 201.26 73.94
  Q 201.62 73.92 201.87 74.16
  Q 202.11 74.40 202.09 74.77
  Q 201.99 76.58 201.97 79.24
  A 0.76 0.75 -86.9 0 0 202.64 79.99
  Q 202.84 80.02 205.02 80.01
  Q 207.21 80.01 207.41 79.99
  A 0.76 0.75 86.7 0 0 208.07 79.23
  Q 208.05 76.57 207.94 74.76
  Q 207.92 74.40 208.17 74.16
  Q 208.41 73.91 208.77 73.93
  Q 210.58 74.03 213.24 74.05
  A 0.76 0.75 3.1 0 0 214.00 73.38
  Q 214.02 73.18 214.01 71.00
  Q 214.01 68.81 213.99 68.62
  A 0.76 0.75 -3.3 0 0 213.23 67.95
  Q 210.57 67.97 208.76 68.08
  Q 208.40 68.10 208.16 67.86
  Q 207.92 67.61 207.93 67.25
  Q 208.03 65.44 208.05 62.78
  A 0.76 0.75 -86.9 0 0 207.38 62.02
  Q 207.18 62.00 205.00 62.01
  Q 202.81 62.01 202.62 62.03
  A 0.76 0.75 86.7 0 0 201.95 62.79
  Q 201.98 65.45 202.08 67.26
  Q 202.10 67.62 201.86 67.86"
/>
<path stroke="#8d0d78" vector-effect="non-scaling-stroke" d="
  M 125.29 80.03
  L 60.38 80.03
  A 0.38 0.38 0.0 0 0 60.00 80.42
  C 60.55 94.72 71.40 104.13 85.75 104.06
  Q 86.28 104.06 117.74 103.99
  Q 124.73 103.97 125.91 96.25
  Q 126.08 95.19 125.88 80.61
  A 0.59 0.59 0.0 0 0 125.29 80.03"
/>
<path stroke="#8d0d78" vector-effect="non-scaling-stroke" d="
  M 157.66 112.00
  Q 146.30 112.04 143.40 112.04
  C 139.59 112.03 137.44 112.77 135.31 115.52
  Q 134.06 117.15 134.05 122.12
  Q 134.00 170.45 133.99 175.69
  A 0.28 0.28 0.0 0 0 134.27 175.97
  Q 138.68 176.08 158.97 175.99
  Q 177.85 175.90 188.79 161.51
  C 192.87 156.14 195.79 148.73 195.86 142.11
  Q 196.02 126.85 195.93 80.55
  A 0.52 0.52 0.0 0 0 195.41 80.03
  L 134.43 80.03
  A 0.50 0.50 0.0 0 0 133.93 80.55
  Q 134.14 87.64 134.03 94.40
  C 133.96 98.44 134.91 100.97 138.07 103.00
  Q 139.73 104.08 145.22 104.07
  Q 163.27 104.05 171.52 104.01
  A 0.58 0.58 0.0 0 1 172.11 104.60
  Q 171.92 120.02 172.13 137.56
  Q 172.29 151.39 158.76 152.21
  A 0.74 0.73 -1.5 0 1 157.98 151.48
  L 157.98 112.32
  A 0.32 0.32 0.0 0 0 157.66 112.00"
/>
<path stroke="#8d0d78" vector-effect="non-scaling-stroke" d="
  M 125.64 136.00
  A 0.41 0.41 0.0 0 0 126.05 135.58
  Q 125.92 129.60 125.98 122.05
  C 126.04 114.44 122.82 111.90 114.98 111.95
  Q 101.88 112.03 97.60 112.15
  C 80.88 112.64 66.07 125.16 61.47 141.20
  C 58.59 151.26 60.71 167.77 60.02 175.40
  A 0.58 0.57 -87.3 0 0 60.59 176.03
  L 83.44 176.03
  A 0.60 0.60 0.0 0 0 84.04 175.41
  Q 83.78 162.86 84.05 151.76
  C 84.29 142.14 91.76 135.85 101.23 135.91
  Q 115.37 136.01 125.64 136.00"
/>
</g>
<path fill="#1a1a1a" d="
  M 133.42 0.00
  C 200.14 3.32 252.60 55.70 256.00 122.57
  L 256.00 133.20
  Q 253.69 176.99 226.97 209.21
  Q 191.12 252.45 133.26 256.00
  L 122.77 256.00
  Q 73.77 253.28 39.53 220.46
  Q 3.07 185.52 0.00 133.50
  L 0.00 122.56
  Q 3.02 70.55 39.53 35.54
  Q 73.72 2.76 122.56 0.00
  L 133.42 0.00
  Z
  M 201.86 67.86
  Q 201.62 68.11 201.25 68.09
  Q 199.44 67.99 196.78 67.97
  A 0.76 0.75 3.1 0 0 196.03 68.64
  Q 196.01 68.84 196.01 71.02
  Q 196.01 73.21 196.03 73.40
  A 0.76 0.75 -3.3 0 0 196.79 74.07
  Q 199.45 74.04 201.26 73.94
  Q 201.62 73.92 201.87 74.16
  Q 202.11 74.40 202.09 74.77
  Q 201.99 76.58 201.97 79.24
  A 0.76 0.75 -86.9 0 0 202.64 79.99
  Q 202.84 80.02 205.02 80.01
  Q 207.21 80.01 207.41 79.99
  A 0.76 0.75 86.7 0 0 208.07 79.23
  Q 208.05 76.57 207.94 74.76
  Q 207.92 74.40 208.17 74.16
  Q 208.41 73.91 208.77 73.93
  Q 210.58 74.03 213.24 74.05
  A 0.76 0.75 3.1 0 0 214.00 73.38
  Q 214.02 73.18 214.01 71.00
  Q 214.01 68.81 213.99 68.62
  A 0.76 0.75 -3.3 0 0 213.23 67.95
  Q 210.57 67.97 208.76 68.08
  Q 208.40 68.10 208.16 67.86
  Q 207.92 67.61 207.93 67.25
  Q 208.03 65.44 208.05 62.78
  A 0.76 0.75 -86.9 0 0 207.38 62.02
  Q 207.18 62.00 205.00 62.01
  Q 202.81 62.01 202.62 62.03
  A 0.76 0.75 86.7 0 0 201.95 62.79
  Q 201.98 65.45 202.08 67.26
  Q 202.10 67.62 201.86 67.86
  Z
  M 125.29 80.03
  L 60.38 80.03
  A 0.38 0.38 0.0 0 0 60.00 80.42
  C 60.55 94.72 71.40 104.13 85.75 104.06
  Q 86.28 104.06 117.74 103.99
  Q 124.73 103.97 125.91 96.25
  Q 126.08 95.19 125.88 80.61
  A 0.59 0.59 0.0 0 0 125.29 80.03
  Z
  M 157.66 112.00
  Q 146.30 112.04 143.40 112.04
  C 139.59 112.03 137.44 112.77 135.31 115.52
  Q 134.06 117.15 134.05 122.12
  Q 134.00 170.45 133.99 175.69
  A 0.28 0.28 0.0 0 0 134.27 175.97
  Q 138.68 176.08 158.97 175.99
  Q 177.85 175.90 188.79 161.51
  C 192.87 156.14 195.79 148.73 195.86 142.11
  Q 196.02 126.85 195.93 80.55
  A 0.52 0.52 0.0 0 0 195.41 80.03
  L 134.43 80.03
  A 0.50 0.50 0.0 0 0 133.93 80.55
  Q 134.14 87.64 134.03 94.40
  C 133.96 98.44 134.91 100.97 138.07 103.00
  Q 139.73 104.08 145.22 104.07
  Q 163.27 104.05 171.52 104.01
  A 0.58 0.58 0.0 0 1 172.11 104.60
  Q 171.92 120.02 172.13 137.56
  Q 172.29 151.39 158.76 152.21
  A 0.74 0.73 -1.5 0 1 157.98 151.48
  L 157.98 112.32
  A 0.32 0.32 0.0 0 0 157.66 112.00
  Z
  M 125.64 136.00
  A 0.41 0.41 0.0 0 0 126.05 135.58
  Q 125.92 129.60 125.98 122.05
  C 126.04 114.44 122.82 111.90 114.98 111.95
  Q 101.88 112.03 97.60 112.15
  C 80.88 112.64 66.07 125.16 61.47 141.20
  C 58.59 151.26 60.71 167.77 60.02 175.40
  A 0.58 0.57 -87.3 0 0 60.59 176.03
  L 83.44 176.03
  A 0.60 0.60 0.0 0 0 84.04 175.41
  Q 83.78 162.86 84.05 151.76
  C 84.29 142.14 91.76 135.85 101.23 135.91
  Q 115.37 136.01 125.64 136.00
  Z"
/>
<path fill="#ff00d5" d="
  M 205.00 62.01
  Q 207.18 62.00 207.38 62.02
  A 0.76 0.75 -86.9 0 1 208.05 62.78
  Q 208.03 65.44 207.93 67.25
  Q 207.92 67.61 208.16 67.86
  Q 208.40 68.10 208.76 68.08
  Q 210.57 67.97 213.23 67.95
  A 0.76 0.75 -3.3 0 1 213.99 68.62
  Q 214.01 68.81 214.01 71.00
  Q 214.02 73.18 214.00 73.38
  A 0.76 0.75 3.1 0 1 213.24 74.05
  Q 210.58 74.03 208.77 73.93
  Q 208.41 73.91 208.17 74.16
  Q 207.92 74.40 207.94 74.76
  Q 208.05 76.57 208.07 79.23
  A 0.76 0.75 86.7 0 1 207.41 79.99
  Q 207.21 80.01 205.02 80.01
  Q 202.84 80.02 202.64 79.99
  A 0.76 0.75 -86.9 0 1 201.97 79.24
  Q 201.99 76.58 202.09 74.77
  Q 202.11 74.40 201.87 74.16
  Q 201.62 73.92 201.26 73.94
  Q 199.45 74.04 196.79 74.07
  A 0.76 0.75 -3.3 0 1 196.03 73.40
  Q 196.01 73.21 196.01 71.02
  Q 196.01 68.84 196.03 68.64
  A 0.76 0.75 3.1 0 1 196.78 67.97
  Q 199.44 67.99 201.25 68.09
  Q 201.62 68.11 201.86 67.86
  Q 202.10 67.62 202.08 67.26
  Q 201.98 65.45 201.95 62.79
  A 0.76 0.75 86.7 0 1 202.62 62.03
  Q 202.81 62.01 205.00 62.01
  Z"
/>
<path fill="#ff00d5" d="
  M 125.88 80.61
  Q 126.08 95.19 125.91 96.25
  Q 124.73 103.97 117.74 103.99
  Q 86.28 104.06 85.75 104.06
  C 71.40 104.13 60.55 94.72 60.00 80.42
  A 0.38 0.38 0.0 0 1 60.38 80.03
  L 125.29 80.03
  A 0.59 0.59 0.0 0 1 125.88 80.61
  Z"
/>
<path fill="#ff00d5" d="
  M 157.66 112.00
  A 0.32 0.32 0.0 0 1 157.98 112.32
  L 157.98 151.48
  A 0.74 0.73 -1.5 0 0 158.76 152.21
  Q 172.29 151.39 172.13 137.56
  Q 171.92 120.02 172.11 104.60
  A 0.58 0.58 0.0 0 0 171.52 104.01
  Q 163.27 104.05 145.22 104.07
  Q 139.73 104.08 138.07 103.00
  C 134.91 100.97 133.96 98.44 134.03 94.40
  Q 134.14 87.64 133.93 80.55
  A 0.50 0.50 0.0 0 1 134.43 80.03
  L 195.41 80.03
  A 0.52 0.52 0.0 0 1 195.93 80.55
  Q 196.02 126.85 195.86 142.11
  C 195.79 148.73 192.87 156.14 188.79 161.51
  Q 177.85 175.90 158.97 175.99
  Q 138.68 176.08 134.27 175.97
  A 0.28 0.28 0.0 0 1 133.99 175.69
  Q 134.00 170.45 134.05 122.12
  Q 134.06 117.15 135.31 115.52
  C 137.44 112.77 139.59 112.03 143.40 112.04
  Q 146.30 112.04 157.66 112.00
  Z"
/>
<path fill="#ff00d5" d="
  M 125.64 136.00
  Q 115.37 136.01 101.23 135.91
  C 91.76 135.85 84.29 142.14 84.05 151.76
  Q 83.78 162.86 84.04 175.41
  A 0.60 0.60 0.0 0 1 83.44 176.03
  L 60.59 176.03
  A 0.58 0.57 -87.3 0 1 60.02 175.40
  C 60.71 167.77 58.59 151.26 61.47 141.20
  C 66.07 125.16 80.88 112.64 97.60 112.15
  Q 101.88 112.03 114.98 111.95
  C 122.82 111.90 126.04 114.44 125.98 122.05
  Q 125.92 129.60 126.05 135.58
  A 0.41 0.41 0.0 0 1 125.64 136.00
  Z"
/>
</svg>
