<?xml version="1.0" encoding="UTF-8" standalone="no"?>
<!DOCTYPE svg PUBLIC "-//W3C//DTD SVG 1.1//EN" "http://www.w3.org/Graphics/SVG/1.1/DTD/svg11.dtd">
<svg xmlns="http://www.w3.org/2000/svg" version="1.1" viewBox="0.00 0.00 16.00 16.00">
<ellipse fill="#99b5f7" cx="0.00" cy="0.00" transform="translate(5.70,4.89) rotate(125.0)" rx="1.40" ry="1.27"/>
<ellipse fill="#99b5f7" cx="0.00" cy="0.00" transform="translate(10.17,4.78) rotate(43.5)" rx="1.49" ry="1.05"/>
<ellipse fill="#99b5f7" cx="0.00" cy="0.00" transform="translate(3.60,8.48) rotate(129.0)" rx="1.43" ry="1.20"/>
<path fill="#99b5f7" d="
  M 7.76 11.48
  Q 7.42 12.42 6.77 13.19
  Q 6.09 14.01 5.14 13.52
  Q 4.88 13.39 4.70 13.11
  Q 4.25 12.40 4.71 11.69
  L 7.39 7.58
  A 0.74 0.74 0.0 0 1 8.63 7.58
  L 11.28 11.65
  Q 11.99 12.73 10.95 13.49
  Q 10.71 13.68 10.22 13.57
  Q 9.59 13.42 9.17 12.95
  Q 8.60 12.30 8.29 11.47
  Q 8.02 10.75 7.76 11.48
  Z"
/>
<circle fill="#99b5f7" cx="12.32" cy="8.71" r="1.25"/>
</svg>
