<?xml version="1.0" encoding="UTF-8" standalone="no"?>
<!DOCTYPE svg PUBLIC "-//W3C//DTD SVG 1.1//EN" "http://www.w3.org/Graphics/SVG/1.1/DTD/svg11.dtd">
<svg xmlns="http://www.w3.org/2000/svg" version="1.1" viewBox="0.00 0.00 64.00 64.00">
<path fill="#ff3956" d="
  M 42.52 1.92
  L 47.11 5.91
  A 1.44 1.44 0.0 0 1 47.25 7.95
  L 19.73 39.57
  A 1.44 1.44 0.0 0 1 17.70 39.72
  L 13.11 35.72
  A 1.44 1.44 0.0 0 1 12.97 33.69
  L 40.48 2.06
  A 1.44 1.44 0.0 0 1 42.52 1.92
  Z"
/>
<circle fill="#ff3956" cx="45.66" cy="19.89" r="4.49"/>
<path fill="#ff3956" d="
  M 25.95 46.85
  L 21.46 42.94
  A 1.51 1.51 0.0 0 1 21.31 40.81
  L 37.06 22.71
  A 1.51 1.51 0.0 0 1 39.19 22.56
  L 43.68 26.47
  A 1.51 1.51 0.0 0 1 43.83 28.60
  L 28.08 46.70
  A 1.51 1.51 0.0 0 1 25.95 46.85
  Z"
/>
<circle fill="#ff3956" cx="34.86" cy="48.61" r="4.49"/>
<rect fill="#ff3956" x="-4.48" y="-4.48" transform="translate(43.06,55.67) rotate(40.9)" width="8.96" height="8.96" rx="1.40"/>
</svg>
