<?xml version="1.0" encoding="UTF-8" standalone="no"?>
<!DOCTYPE svg PUBLIC "-//W3C//DTD SVG 1.1//EN" "http://www.w3.org/Graphics/SVG/1.1/DTD/svg11.dtd">
<svg xmlns="http://www.w3.org/2000/svg" version="1.1" viewBox="0.00 0.00 128.00 128.00">
<g stroke-width="2.00" fill="none" stroke-linecap="butt">
<path stroke="#0b3d81" vector-effect="non-scaling-stroke" d="
  M 64.04 71.31
  Q 72.17 71.30 78.80 75.37
  A 0.50 0.50 0.0 0 0 79.49 75.21
  C 84.01 67.74 88.44 59.09 88.17 51.09
  C 87.73 37.54 77.63 27.50 63.96 27.52
  C 50.30 27.54 40.23 37.62 39.83 51.17
  C 39.59 59.17 44.05 67.81 48.59 75.26
  A 0.50 0.50 0.0 0 0 49.29 75.42
  Q 55.90 71.32 64.04 71.31"
/>
<path stroke="#0b3d81" vector-effect="non-scaling-stroke" d="
  M 62.32 75.20
  A 0.25 0.25 0.0 0 0 62.05 74.95
  Q 56.18 75.37 51.45 78.35
  A 0.90 0.90 0.0 0 0 51.22 79.66
  L 54.99 84.48
  A 0.87 0.86 -31.0 0 0 56.04 84.74
  Q 58.62 83.57 62.05 83.21
  A 0.30 0.30 0.0 0 0 62.32 82.91
  L 62.32 75.20"
/>
<path stroke="#0b3d81" vector-effect="non-scaling-stroke" d="
  M 65.70 75.16
  L 65.71 82.93
  A 0.31 0.30 3.1 0 0 65.99 83.23
  Q 69.44 83.58 72.04 84.76
  A 0.87 0.87 0.0 0 0 73.10 84.49
  L 76.89 79.63
  A 0.90 0.90 0.0 0 0 76.66 78.31
  Q 71.88 75.31 65.97 74.90
  A 0.25 0.25 0.0 0 0 65.70 75.16"
/>
<path stroke="#0b3d81" vector-effect="non-scaling-stroke" d="
  M 61.68 86.63
  L 57.93 87.67
  A 0.40 0.40 0.0 0 0 57.72 88.31
  L 61.82 93.56
  A 0.29 0.29 0.0 0 0 62.34 93.38
  L 62.34 87.13
  A 0.52 0.52 0.0 0 0 61.68 86.63"
/>
<path stroke="#0b3d81" vector-effect="non-scaling-stroke" d="
  M 66.37 86.82
  A 0.50 0.50 0.0 0 0 65.73 87.31
  L 65.76 93.32
  A 0.28 0.28 0.0 0 0 66.26 93.49
  L 70.18 88.42
  A 0.39 0.39 0.0 0 0 69.98 87.81
  L 66.37 86.82"
/>
<path stroke="#0b3d81" vector-effect="non-scaling-stroke" d="
  M 78.91 51.60
  A 14.86 14.86 0.0 0 0 64.05 36.74
  A 14.86 14.86 0.0 0 0 49.19 51.60
  A 14.86 14.86 0.0 0 0 64.05 66.46
  A 14.86 14.86 0.0 0 0 78.91 51.60"
/>
<path stroke="#0b3d81" vector-effect="non-scaling-stroke" d="
  M 74.11 51.62
  A 10.04 10.04 0.0 0 0 64.07 41.58
  A 10.04 10.04 0.0 0 0 54.03 51.62
  A 10.04 10.04 0.0 0 0 64.07 61.66
  A 10.04 10.04 0.0 0 0 74.11 51.62"
/>
<path stroke="#0b3d81" vector-effect="non-scaling-stroke" d="
  M 68.85 51.60
  A 4.76 4.76 0.0 0 0 64.09 46.84
  A 4.76 4.76 0.0 0 0 59.33 51.60
  A 4.76 4.76 0.0 0 0 64.09 56.36
  A 4.76 4.76 0.0 0 0 68.85 51.60"
/>
</g>
<path fill="#030303" d="
  M 128.00 0.00
  L 128.00 128.00
  L 0.00 128.00
  L 0.00 0.00
  L 128.00 0.00
  Z
  M 64.04 71.31
  Q 72.17 71.30 78.80 75.37
  A 0.50 0.50 0.0 0 0 79.49 75.21
  C 84.01 67.74 88.44 59.09 88.17 51.09
  C 87.73 37.54 77.63 27.50 63.96 27.52
  C 50.30 27.54 40.23 37.62 39.83 51.17
  C 39.59 59.17 44.05 67.81 48.59 75.26
  A 0.50 0.50 0.0 0 0 49.29 75.42
  Q 55.90 71.32 64.04 71.31
  Z
  M 62.32 75.20
  A 0.25 0.25 0.0 0 0 62.05 74.95
  Q 56.18 75.37 51.45 78.35
  A 0.90 0.90 0.0 0 0 51.22 79.66
  L 54.99 84.48
  A 0.87 0.86 -31.0 0 0 56.04 84.74
  Q 58.62 83.57 62.05 83.21
  A 0.30 0.30 0.0 0 0 62.32 82.91
  L 62.32 75.20
  Z
  M 65.70 75.16
  L 65.71 82.93
  A 0.31 0.30 3.1 0 0 65.99 83.23
  Q 69.44 83.58 72.04 84.76
  A 0.87 0.87 0.0 0 0 73.10 84.49
  L 76.89 79.63
  A 0.90 0.90 0.0 0 0 76.66 78.31
  Q 71.88 75.31 65.97 74.90
  A 0.25 0.25 0.0 0 0 65.70 75.16
  Z
  M 61.68 86.63
  L 57.93 87.67
  A 0.40 0.40 0.0 0 0 57.72 88.31
  L 61.82 93.56
  A 0.29 0.29 0.0 0 0 62.34 93.38
  L 62.34 87.13
  A 0.52 0.52 0.0 0 0 61.68 86.63
  Z
  M 66.37 86.82
  A 0.50 0.50 0.0 0 0 65.73 87.31
  L 65.76 93.32
  A 0.28 0.28 0.0 0 0 66.26 93.49
  L 70.18 88.42
  A 0.39 0.39 0.0 0 0 69.98 87.81
  L 66.37 86.82
  Z"
/>
<path fill="#1277ff" d="
  M 63.96 27.52
  C 77.63 27.50 87.73 37.54 88.17 51.09
  C 88.44 59.09 84.01 67.74 79.49 75.21
  A 0.50 0.50 0.0 0 1 78.80 75.37
  Q 72.17 71.30 64.04 71.31
  Q 55.90 71.32 49.29 75.42
  A 0.50 0.50 0.0 0 1 48.59 75.26
  C 44.05 67.81 39.59 59.17 39.83 51.17
  C 40.23 37.62 50.30 27.54 63.96 27.52
  Z
  M 78.91 51.60
  A 14.86 14.86 0.0 0 0 64.05 36.74
  A 14.86 14.86 0.0 0 0 49.19 51.60
  A 14.86 14.86 0.0 0 0 64.05 66.46
  A 14.86 14.86 0.0 0 0 78.91 51.60
  Z"
/>
<path fill="#030303" d="
  M 78.91 51.60
  A 14.86 14.86 0.0 0 1 64.05 66.46
  A 14.86 14.86 0.0 0 1 49.19 51.60
  A 14.86 14.86 0.0 0 1 64.05 36.74
  A 14.86 14.86 0.0 0 1 78.91 51.60
  Z
  M 74.11 51.62
  A 10.04 10.04 0.0 0 0 64.07 41.58
  A 10.04 10.04 0.0 0 0 54.03 51.62
  A 10.04 10.04 0.0 0 0 64.07 61.66
  A 10.04 10.04 0.0 0 0 74.11 51.62
  Z"
/>
<path fill="#1277ff" d="
  M 74.11 51.62
  A 10.04 10.04 0.0 0 1 64.07 61.66
  A 10.04 10.04 0.0 0 1 54.03 51.62
  A 10.04 10.04 0.0 0 1 64.07 41.58
  A 10.04 10.04 0.0 0 1 74.11 51.62
  Z
  M 68.85 51.60
  A 4.76 4.76 0.0 0 0 64.09 46.84
  A 4.76 4.76 0.0 0 0 59.33 51.60
  A 4.76 4.76 0.0 0 0 64.09 56.36
  A 4.76 4.76 0.0 0 0 68.85 51.60
  Z"
/>
<circle fill="#030303" cx="64.09" cy="51.60" r="4.76"/>
<path fill="#1277ff" d="
  M 62.05 83.21
  Q 58.62 83.57 56.04 84.74
  A 0.87 0.86 -31.0 0 1 54.99 84.48
  L 51.22 79.66
  A 0.90 0.90 0.0 0 1 51.45 78.35
  Q 56.18 75.37 62.05 74.95
  A 0.25 0.25 0.0 0 1 62.32 75.20
  L 62.32 82.91
  A 0.30 0.30 0.0 0 1 62.05 83.21
  Z"
/>
<path fill="#1277ff" d="
  M 65.70 75.16
  A 0.25 0.25 0.0 0 1 65.97 74.90
  Q 71.88 75.31 76.66 78.31
  A 0.90 0.90 0.0 0 1 76.89 79.63
  L 73.10 84.49
  A 0.87 0.87 0.0 0 1 72.04 84.76
  Q 69.44 83.58 65.99 83.23
  A 0.31 0.30 3.1 0 1 65.71 82.93
  L 65.70 75.16
  Z"
/>
<path fill="#1277ff" d="
  M 62.34 87.13
  L 62.34 93.38
  A 0.29 0.29 0.0 0 1 61.82 93.56
  L 57.72 88.31
  A 0.40 0.40 0.0 0 1 57.93 87.67
  L 61.68 86.63
  A 0.52 0.52 0.0 0 1 62.34 87.13
  Z"
/>
<path fill="#1277ff" d="
  M 66.37 86.82
  L 69.98 87.81
  A 0.39 0.39 0.0 0 1 70.18 88.42
  L 66.26 93.49
  A 0.28 0.28 0.0 0 1 65.76 93.32
  L 65.73 87.31
  A 0.50 0.50 0.0 0 1 66.37 86.82
  Z"
/>
</svg>
