<?xml version="1.0" encoding="UTF-8" standalone="no"?>
<!DOCTYPE svg PUBLIC "-//W3C//DTD SVG 1.1//EN" "http://www.w3.org/Graphics/SVG/1.1/DTD/svg11.dtd">
<svg xmlns="http://www.w3.org/2000/svg" version="1.1" viewBox="0.00 0.00 800.00 800.00">
<path fill="#292d32" d="
  M 263.51 589.37
  Q 260.13 593.60 254.07 597.08
  Q 238.04 606.27 209.52 622.53
  Q 185.55 636.21 183.68 637.21
  Q 182.59 637.80 181.38 638.64
  A 2.84 0.16 -35.8 0 1 179.86 639.61
  Q 177.02 640.96 171.46 643.93
  Q 164.38 647.72 160.90 648.83
  Q 158.20 649.69 157.36 650.32
  A 2.02 1.94 19.7 0 1 156.60 650.66
  Q 153.57 651.33 149.24 652.64
  Q 145.12 653.88 136.56 654.63
  C 125.79 655.57 113.92 653.31 104.87 647.57
  Q 103.60 646.77 101.55 645.34
  Q 93.76 639.92 88.23 631.00
  Q 81.04 619.40 78.53 605.97
  Q 77.99 603.10 77.39 599.24
  Q 76.70 594.78 76.72 592.48
  C 76.75 589.63 76.25 586.17 76.25 583.42
  Q 76.28 498.65 76.24 272.51
  Q 76.24 254.85 77.46 249.07
  Q 79.96 237.32 85.85 227.12
  Q 86.48 226.03 90.97 219.20
  A 4.94 4.89 -4.9 0 1 91.77 218.26
  Q 93.73 216.47 94.86 214.42
  A 6.00 5.85 83.6 0 1 95.98 212.98
  C 99.04 210.10 101.45 207.38 104.23 205.67
  C 106.62 204.20 109.07 202.17 112.16 200.40
  Q 220.00 138.64 252.21 120.19
  Q 255.26 118.44 257.46 118.02
  A 3.00 2.85 44.0 0 1 258.61 118.03
  Q 266.74 119.71 266.74 128.51
  Q 266.77 429.22 266.75 576.62
  C 266.75 579.39 266.18 582.11 265.64 584.90
  Q 265.27 586.79 263.62 588.30
  A 0.60 0.60 0.0 0 0 263.45 588.93
  Q 263.46 588.95 263.51 589.02
  A 0.28 0.27 -46.0 0 1 263.51 589.37
  Z"
/>
<path fill="#292d32" d="
  M 475.92 671.74
  L 334.50 603.59
  A 16.79 16.79 0.0 0 1 325.00 588.46
  L 325.00 148.40
  A 16.79 16.79 0.0 0 1 349.25 133.36
  L 490.67 203.45
  A 16.79 16.79 0.0 0 1 500.00 218.50
  L 500.00 656.61
  A 16.79 16.79 0.0 0 1 475.92 671.74
  Z"
/>
<path fill="#292d32" d="
  M 560.50 202.94
  Q 560.43 202.79 560.42 202.63
  A 0.33 0.32 68.1 0 1 560.54 202.34
  Q 562.23 201.03 562.99 199.67
  A 2.98 2.95 86.1 0 1 563.74 198.80
  Q 566.88 196.42 570.10 194.60
  Q 581.83 187.95 633.77 158.27
  C 637.97 155.87 643.27 153.17 648.26 151.31
  Q 654.19 149.10 656.17 148.44
  Q 657.00 148.17 662.76 146.81
  Q 673.91 144.19 686.41 145.83
  Q 689.18 146.19 691.94 147.05
  Q 695.03 148.00 697.55 148.60
  A 0.62 0.62 0.0 0 1 698.00 149.05
  Q 698.16 149.69 698.77 149.51
  Q 699.09 149.42 699.65 149.64
  Q 704.18 151.48 707.59 154.50
  A 2.83 2.70 73.0 0 0 708.55 155.04
  L 708.90 155.14
  A 0.94 0.90 -15.1 0 1 709.30 155.36
  L 716.70 162.45
  A 5.62 5.55 7.2 0 1 717.65 163.66
  Q 718.86 165.75 720.38 167.26
  A 0.90 0.77 13.7 0 1 720.54 167.48
  L 725.71 176.42
  A 1.10 1.05 -65.4 0 1 725.82 176.74
  C 726.12 178.74 727.49 180.47 727.98 182.15
  Q 731.44 194.22 731.60 196.11
  Q 731.90 199.62 732.65 203.06
  A 5.12 4.63 -54.6 0 1 732.76 204.00
  C 732.89 207.69 733.25 211.57 733.25 215.09
  Q 733.27 425.16 733.23 542.47
  Q 733.23 547.51 731.21 554.77
  Q 726.01 573.50 713.02 587.31
  Q 709.96 590.57 705.38 594.34
  Q 702.40 596.79 696.69 600.06
  Q 667.57 616.74 666.40 617.33
  Q 665.26 617.92 663.23 619.36
  C 661.79 620.39 659.18 621.09 657.67 622.37
  C 655.82 623.95 652.86 624.89 650.60 626.43
  Q 650.00 626.84 643.52 630.54
  Q 608.40 650.59 587.90 662.41
  Q 582.49 665.53 579.23 666.64
  Q 575.83 667.80 571.09 666.64
  Q 564.60 665.07 560.61 659.13
  A 3.60 3.51 22.9 0 1 560.10 657.92
  Q 559.70 656.04 559.01 655.11
  A 1.33 1.29 -60.7 0 1 558.77 654.21
  Q 558.87 653.37 558.44 651.25
  Q 558.26 650.33 558.26 648.23
  Q 558.26 253.10 558.26 212.75
  Q 558.26 206.65 560.44 203.50
  A 0.60 0.59 51.9 0 0 560.50 202.94
  Z"
/>
</svg>
