<?xml version="1.0" encoding="UTF-8" standalone="no"?>
<!DOCTYPE svg PUBLIC "-//W3C//DTD SVG 1.1//EN" "http://www.w3.org/Graphics/SVG/1.1/DTD/svg11.dtd">
<svg xmlns="http://www.w3.org/2000/svg" version="1.1" viewBox="0.00 0.00 500.00 500.00">
<g stroke-width="2.00" fill="none" stroke-linecap="butt">
<path stroke="#fd9b70" vector-effect="non-scaling-stroke" d="
  M 341.24 10.54
  Q 357.40 38.47 374.02 66.10
  Q 381.11 77.88 384.33 83.43
  Q 404.96 118.96 425.98 153.94
  C 431.16 162.55 433.95 171.98 431.46 182.07
  Q 429.67 189.31 424.50 199.91
  Q 408.32 233.08 407.45 234.86
  Q 403.43 243.12 398.99 252.99
  Q 386.84 279.96 358.61 338.88
  Q 351.13 354.48 342.26 366.02"
/>
<path stroke="#fdac6f" vector-effect="non-scaling-stroke" d="
  M 342.26 366.02
  L 327.04 368.30"
/>
<path stroke="#fd836b" vector-effect="non-scaling-stroke" d="
  M 327.04 368.30
  L 329.54 367.69"
/>
<path stroke="#fd8e6d" vector-effect="non-scaling-stroke" d="
  M 329.54 367.69
  L 341.00 365.35
  Q 341.49 365.25 341.73 364.82
  Q 348.07 353.51 351.23 346.99
  Q 370.32 307.63 402.09 240.47
  C 408.59 226.73 417.07 209.72 423.34 195.68
  C 427.88 185.52 430.93 175.38 427.28 164.44
  C 424.56 156.29 419.32 147.83 415.26 141.05
  Q 381.88 85.35 348.85 29.44
  Q 345.51 23.78 336.96 10.84"
/>
<path stroke="#fd7d6a" vector-effect="non-scaling-stroke" d="
  M 329.54 367.69
  L 333.64 366.19
  Q 334.11 366.01 334.37 365.58
  Q 341.82 352.94 345.81 344.58
  Q 405.78 218.98 415.67 197.86
  Q 419.13 190.47 420.24 186.61
  Q 424.59 171.53 417.09 157.69
  Q 413.54 151.16 403.23 133.92
  Q 394.64 119.58 367.53 72.43
  Q 359.32 58.16 331.73 11.74"
/>
<path stroke="#feb973" vector-effect="non-scaling-stroke" d="
  M 346.30 10.59
  Q 356.14 23.76 363.40 36.13
  Q 397.09 93.55 424.70 138.83
  Q 431.52 150.01 435.36 158.41
  Q 441.86 172.61 436.58 187.89
  Q 433.90 195.66 430.84 202.21
  C 421.63 221.94 412.01 241.46 402.85 261.21
  Q 385.37 298.87 367.06 336.13
  Q 364.75 340.83 360.03 348.84
  Q 353.28 360.30 342.26 366.02"
/>
<path stroke="#fdcf77" vector-effect="non-scaling-stroke" d="
  M 354.98 11.70
  Q 395.43 78.87 435.65 146.04
  Q 439.96 153.23 443.13 160.06
  Q 449.76 174.35 444.79 189.26
  Q 442.82 195.17 440.64 200.01
  Q 430.75 222.03 420.11 243.69
  Q 394.14 296.52 390.12 305.15
  Q 379.15 328.74 372.09 343.15
  Q 369.77 347.88 365.77 353.53
  C 359.20 362.82 349.52 367.22 338.57 369.46
  C 325.43 372.15 311.91 373.51 298.95 375.19
  Q 284.04 377.12 227.82 386.44
  Q 209.62 389.46 189.58 390.86"
/>
<path stroke="#fd9a6c" vector-effect="non-scaling-stroke" d="
  M 225.43 384.93
  Q 226.09 385.35 226.56 384.84"
/>
<path stroke="#fd9a6c" vector-effect="non-scaling-stroke" d="
  M 292.05 374.03
  Q 293.13 374.20 293.04 373.79"
/>
<path stroke="#fd9a6c" vector-effect="non-scaling-stroke" d="
  M 297.53 373.12
  Q 298.39 373.25 298.75 372.94"
/>
<path stroke="#f78d76" vector-effect="non-scaling-stroke" d="
  M 320.79 369.13
  L 324.54 368.55"
/>
<path stroke="#fd9a6c" vector-effect="non-scaling-stroke" d="
  M 324.54 368.55
  L 327.04 368.30"
/>
<path stroke="#fea973" vector-effect="non-scaling-stroke" d="
  M 343.84 10.53
  Q 359.87 35.95 375.11 61.90
  Q 415.04 129.87 418.81 136.00
  Q 423.82 144.13 428.64 153.84
  C 432.96 162.52 435.03 171.87 433.38 181.41
  C 432.07 189.03 428.79 197.01 425.81 203.37
  Q 397.18 264.58 363.20 334.81
  Q 354.91 351.95 342.26 366.02"
/>
<path stroke="#f76472" vector-effect="non-scaling-stroke" d="
  M 324.54 368.55
  L 325.74 367.77"
/>
<path stroke="#fa6669" vector-effect="non-scaling-stroke" d="
  M 325.74 367.77
  Q 332.66 359.24 336.68 352.44
  Q 340.20 346.48 347.34 331.86
  Q 362.49 300.81 376.89 269.42
  C 388.07 245.05 400.91 219.10 408.81 201.88
  C 413.40 191.85 416.99 181.31 414.12 170.12
  Q 411.88 161.38 406.12 151.61
  Q 405.01 149.73 377.50 102.16
  Q 372.88 94.18 367.33 84.94
  Q 357.96 69.31 340.64 39.39
  Q 336.52 32.26 332.68 28.02
  Q 325.93 20.56 316.54 18.16
  Q 314.53 17.65 312.58 17.40"
/>
<path stroke="#f76472" vector-effect="non-scaling-stroke" d="
  M 312.58 17.40
  Q 300.57 20.39 288.30 22.48
  Q 260.41 27.23 249.56 29.16
  Q 238.58 31.12 229.84 32.41
  Q 216.36 34.38 204.59 36.73
  Q 196.58 38.32 184.90 40.25
  Q 161.21 44.16 137.35 48.44"
/>
<path stroke="#ec5386" vector-effect="non-scaling-stroke" d="
  M 385.27 231.04
  C 392.24 220.19 397.83 207.66 403.02 197.19
  Q 404.05 195.13 403.87 193.11
  Q 402.79 181.22 397.07 170.92
  Q 387.79 154.22 380.13 140.90
  Q 323.72 42.87 323.34 42.22
  C 318.07 33.16 311.74 26.64 300.40 26.89
  Q 290.75 27.11 279.94 28.95
  Q 204.62 41.75 129.23 54.17"
/>
<path stroke="#fde179" vector-effect="non-scaling-stroke" d="
  M 362.00 14.06
  Q 373.38 35.24 385.77 55.53
  Q 412.01 98.49 437.85 142.23
  Q 441.83 148.97 446.69 158.73
  C 450.72 166.82 452.63 175.79 451.19 184.79
  C 450.01 192.12 447.05 200.16 444.29 206.23
  Q 432.66 231.78 414.89 271.19
  Q 403.32 296.84 384.82 334.78
  Q 382.09 340.39 377.09 348.57
  C 369.16 361.59 358.26 368.48 343.41 372.52
  Q 333.91 375.11 325.41 376.50
  Q 293.27 381.75 264.47 386.36
  Q 231.50 391.63 219.94 394.12
  Q 214.88 395.22 210.06 397.06
  C 205.01 399.00 200.88 403.38 203.57 409.11
  C 209.64 422.05 227.46 420.52 239.04 418.68
  Q 255.33 416.10 276.73 411.69
  Q 296.65 407.58 376.62 394.25
  C 389.01 392.18 396.78 383.77 402.86 372.87
  C 409.91 360.24 417.15 343.62 423.16 329.52
  Q 424.88 325.47 460.77 242.72
  Q 466.46 229.62 482.34 197.13"
/>
<path stroke="#fdcd7b" vector-effect="non-scaling-stroke" d="
  M 485.25 205.95
  C 472.38 234.45 459.32 262.85 446.77 291.45
  Q 421.10 349.97 408.31 378.59
  Q 405.74 384.34 402.21 389.71
  C 394.34 401.67 381.14 405.23 367.51 407.60
  Q 336.15 413.04 306.24 419.17
  Q 294.73 421.53 286.62 423.06
  Q 241.86 431.53 240.06 431.84
  C 228.89 433.77 216.96 434.99 207.91 426.58
  Q 203.91 422.86 200.80 418.25
  Q 193.56 407.54 179.90 385.37
  Q 141.43 322.96 120.12 288.79
  Q 109.58 271.88 96.10 258.05
  Q 82.08 243.69 63.14 225.49"
/>
<path stroke="#f55973" vector-effect="non-scaling-stroke" d="
  M 325.74 367.77
  Q 339.17 341.67 348.98 320.78
  Q 403.89 203.82 403.92 203.75
  C 408.78 192.86 411.49 182.52 407.29 171.11
  Q 405.03 164.97 402.55 160.63
  Q 390.35 139.24 378.50 117.96
  Q 373.31 108.64 368.61 100.59
  Q 352.76 73.43 335.33 42.64
  Q 330.79 34.63 327.56 30.33
  Q 321.75 22.58 312.58 17.40"
/>
<path stroke="#c15aaf" vector-effect="non-scaling-stroke" d="
  M 390.74 219.12
  L 393.02 214.56"
/>
<path stroke="#e34e99" vector-effect="non-scaling-stroke" d="
  M 393.02 214.56
  Q 398.37 205.57 402.24 195.84
  A 1.32 1.29 48.2 0 0 402.28 194.98
  Q 398.49 181.75 389.56 166.13
  Q 336.66 73.62 321.64 48.08
  C 316.95 40.10 311.20 32.95 301.57 31.39
  Q 293.76 30.13 283.64 31.84
  Q 227.07 41.45 153.16 53.27
  Q 139.74 55.42 126.28 57.21"
/>
<path stroke="#fdc175" vector-effect="non-scaling-stroke" d="
  M 485.48 207.89
  Q 482.34 218.75 477.82 228.89
  Q 461.78 264.92 445.58 300.89
  Q 444.14 304.08 439.98 314.25
  A 0.41 0.38 -50.2 0 0 440.00 314.59
  L 440.20 314.94
  A 0.10 0.10 0.0 0 0 440.37 314.94
  Q 444.12 308.34 447.19 301.36
  Q 470.78 247.79 474.89 238.83
  Q 479.16 229.51 480.35 227.24
  A 0.08 0.05 -66.8 0 1 480.42 227.19
  Q 480.45 227.20 480.49 227.24
  A 0.20 0.15 -55.9 0 1 480.50 227.41
  L 445.65 307.94"
/>
<path stroke="#fdb075" vector-effect="non-scaling-stroke" d="
  M 445.65 307.94
  L 442.83 314.19"
/>
<path stroke="#feb777" vector-effect="non-scaling-stroke" d="
  M 442.83 314.19
  Q 428.80 344.80 414.99 375.50
  Q 410.20 386.16 404.66 396.43
  C 399.00 406.92 389.85 411.84 378.39 413.93
  Q 348.04 419.49 327.83 423.45
  Q 317.44 425.49 308.17 427.06
  Q 271.50 433.24 241.11 439.26
  Q 234.41 440.58 226.01 441.33
  C 217.62 442.08 211.42 439.35 206.13 433.17
  Q 203.45 430.04 201.98 427.65
  Q 180.17 392.27 159.82 360.26
  Q 154.92 352.55 149.31 343.24
  Q 138.71 325.66 127.79 308.28
  Q 117.81 292.41 117.10 291.37
  Q 107.35 276.98 93.10 262.61
  Q 74.88 244.23 56.68 225.83"
/>
<path stroke="#bd59b7" vector-effect="non-scaling-stroke" d="
  M 393.02 214.56
  Q 393.09 213.64 393.60 213.08"
/>
<path stroke="#cf4db5" vector-effect="non-scaling-stroke" d="
  M 393.60 213.08
  L 396.30 207.02"
/>
<path stroke="#d94cab" vector-effect="non-scaling-stroke" d="
  M 396.30 207.02
  L 399.67 199.74
  Q 399.88 199.29 399.74 198.81
  Q 395.77 185.26 388.13 171.90
  Q 355.90 115.50 321.80 56.20
  C 315.25 44.80 309.20 34.63 294.38 34.50
  Q 287.23 34.43 279.48 35.66
  Q 224.93 44.29 152.28 56.10
  C 142.95 57.62 133.32 58.81 123.80 60.01"
/>
<path stroke="#906bcf" vector-effect="non-scaling-stroke" d="
  M 388.77 215.79
  Q 386.61 208.59 384.07 204.46
  Q 373.80 187.72 364.38 170.02
  C 356.13 154.51 347.41 140.45 339.85 126.39
  Q 336.02 119.26 329.85 109.03
  Q 325.98 102.62 311.51 77.33
  Q 309.76 74.28 308.08 71.18
  C 304.75 65.00 302.98 60.45 296.13 59.89
  Q 294.93 59.79 286.77 60.71
  Q 279.39 61.54 268.81 63.02
  Q 208.12 71.54 190.51 74.25
  Q 178.84 76.05 170.73 77.10
  Q 154.73 79.16 135.27 82.61
  Q 125.02 84.42 120.50 84.25
  Q 119.18 84.20 115.04 83.54"
/>
<path stroke="#8770d1" vector-effect="non-scaling-stroke" d="
  M 115.25 83.05
  L 115.20 81.48"
/>
<path stroke="#fea973" vector-effect="non-scaling-stroke" d="
  M 431.68 342.19
  Q 430.37 344.38 429.32 346.72
  Q 417.80 372.38 405.79 397.82
  Q 404.53 400.49 401.98 408.23"
/>
<path stroke="#fea973" vector-effect="non-scaling-stroke" d="
  M 401.06 410.55
  Q 386.75 416.73 366.11 420.56
  Q 293.73 433.99 238.33 443.94
  Q 231.90 445.10 225.85 445.25
  Q 211.69 445.60 203.15 434.28
  Q 197.72 427.08 192.74 418.78
  Q 172.35 384.81 127.05 312.29
  Q 117.30 296.70 111.36 288.62
  Q 102.45 276.51 90.06 264.19
  Q 71.22 245.43 52.43 226.51"
/>
<path stroke="#fdb371" vector-effect="non-scaling-stroke" d="
  M 486.00 212.78
  C 485.87 214.79 486.16 216.62 485.44 218.54
  Q 480.48 231.69 477.53 238.05
  Q 462.34 270.79 447.79 303.81
  Q 446.86 305.94 445.65 307.94"
/>
<path stroke="#fd8a6d" vector-effect="non-scaling-stroke" d="
  M 486.13 217.46
  Q 485.86 218.54 486.11 219.71"
/>
<path stroke="#fd9b70" vector-effect="non-scaling-stroke" d="
  M 485.97 221.96
  L 431.68 342.19"
/>
<path stroke="#fea973" vector-effect="non-scaling-stroke" d="
  M 431.68 342.19
  Q 435.26 331.05 440.48 320.52
  Q 441.60 318.25 442.83 314.19"
/>
<path stroke="#ac59cb" vector-effect="non-scaling-stroke" d="
  M 393.60 213.08
  Q 392.31 210.36 390.86 207.86
  Q 384.74 197.31 366.31 164.64
  Q 363.08 158.93 359.72 153.30
  Q 353.50 142.90 335.55 110.54
  Q 331.00 102.35 325.62 93.28
  Q 316.77 78.37 307.11 60.42
  C 304.10 54.82 300.92 50.21 294.85 51.37
  C 288.66 52.55 283.33 53.80 276.32 54.68
  Q 234.33 59.94 193.13 66.99
  Q 185.19 68.35 173.40 70.06
  Q 153.00 73.02 142.13 74.94
  Q 129.94 77.09 119.80 78.20
  Q 118.33 78.36 115.64 78.29"
/>
<path stroke="#9964cf" vector-effect="non-scaling-stroke" d="
  M 116.03 77.06
  L 116.11 76.04"
/>
<path stroke="#c84cbf" vector-effect="non-scaling-stroke" d="
  M 396.30 207.02
  Q 395.74 202.47 394.65 200.28
  Q 391.67 194.32 384.52 182.50
  Q 378.05 171.82 374.37 165.27
  Q 364.44 147.63 353.53 129.14
  C 350.80 124.51 347.89 118.69 345.51 114.77
  Q 332.63 93.54 331.35 91.18
  Q 325.58 80.61 321.20 73.43
  C 315.35 63.82 310.90 55.31 304.67 44.75
  A 0.65 0.52 78.0 0 1 305.16 43.77
  L 305.44 43.85
  Q 305.74 43.94 305.47 43.72
  Q 305.18 43.48 305.11 43.22
  Q 304.79 41.87 304.18 40.33
  Q 303.99 39.84 303.47 39.92
  C 292.01 41.64 279.01 42.95 265.87 45.11
  Q 226.99 51.51 191.36 56.95
  Q 185.84 57.79 128.54 66.72
  Q 125.21 67.24 118.66 68.66"
/>
<path stroke="#7d76d3" vector-effect="non-scaling-stroke" d="
  M 356.24 161.28
  Q 356.37 160.74 356.21 160.51
  Q 356.04 160.26 355.76 160.48"
/>
<path stroke="#7d76d3" vector-effect="non-scaling-stroke" d="
  M 321.88 102.69
  Q 321.82 98.15 319.67 94.59
  Q 308.53 76.16 305.36 68.28
  Q 305.17 67.82 304.68 67.72
  Q 296.63 66.07 291.81 66.03
  Q 283.09 65.96 271.94 67.49
  Q 193.55 78.24 115.14 89.89"
/>
<path stroke="#fd8e6d" vector-effect="non-scaling-stroke" d="
  M 452.61 301.75
  Q 451.85 301.57 451.59 302.60
  Q 451.46 303.14 451.86 303.52"
/>
<path stroke="#fd8e6d" vector-effect="non-scaling-stroke" d="
  M 397.62 423.26
  Q 324.09 437.34 250.67 450.85
  Q 242.10 452.43 233.43 453.29
  C 219.61 454.67 208.35 451.99 199.42 440.38
  Q 194.58 434.08 191.51 429.12
  Q 158.55 375.74 124.32 322.00
  Q 114.95 307.28 113.48 305.13
  Q 103.59 290.60 91.28 277.97
  C 75.22 261.48 59.02 244.92 41.51 229.96"
/>
<path stroke="#fd9b70" vector-effect="non-scaling-stroke" d="
  M 47.15 227.83
  Q 67.94 249.03 89.09 269.91
  Q 104.57 285.20 114.81 300.62
  C 127.80 320.19 142.06 344.83 151.97 360.47
  Q 173.11 393.85 193.89 427.37
  C 201.36 439.42 208.69 449.75 223.66 450.29
  C 229.31 450.49 237.30 449.39 243.78 448.19
  Q 307.79 436.33 371.79 424.43
  Q 389.03 421.23 401.06 410.55"
/>
<path stroke="#fea272" vector-effect="non-scaling-stroke" d="
  M 401.06 410.55
  L 401.98 408.23"
/>
<path stroke="#fd9b70" vector-effect="non-scaling-stroke" d="
  M 401.98 408.23
  Q 405.77 401.35 408.93 394.15
  Q 420.34 368.18 431.68 342.19"
/>
<path stroke="#7d76d3" vector-effect="non-scaling-stroke" d="
  M 245.29 115.17
  Q 238.40 114.27 234.40 115.06
  C 227.49 116.43 224.19 117.16 218.60 117.64
  C 209.38 118.42 200.49 119.38 192.29 123.54"
/>
<path stroke="#ae65b3" vector-effect="non-scaling-stroke" d="
  M 192.29 123.54
  L 189.55 124.18"
/>
<path stroke="#aa64bb" vector-effect="non-scaling-stroke" d="
  M 189.55 124.18
  L 184.15 125.03"
/>
<path stroke="#a363c5" vector-effect="non-scaling-stroke" d="
  M 184.15 125.03
  L 174.49 126.50"
/>
<path stroke="#9964cf" vector-effect="non-scaling-stroke" d="
  M 174.49 126.50
  L 168.88 127.23"
/>
<path stroke="#8770d1" vector-effect="non-scaling-stroke" d="
  M 168.88 127.23
  L 158.41 129.16
  A 0.80 0.79 72.6 0 0 157.83 130.28
  Q 162.04 139.48 166.92 148.22
  Q 174.64 162.08 174.68 162.16
  Q 192.30 195.00 209.90 227.84
  Q 216.70 240.54 223.69 253.12
  Q 227.17 259.39 229.87 267.73"
/>
<path stroke="#6982d8" vector-effect="non-scaling-stroke" d="
  M 223.35 267.22
  Q 213.67 248.76 203.38 230.77
  C 198.38 222.03 193.75 212.49 189.06 204.19
  Q 179.65 187.53 153.31 139.66
  Q 151.74 136.80 151.05 133.61
  C 149.70 127.43 156.67 125.69 161.36 124.86
  Q 176.87 122.12 194.10 118.70
  Q 211.47 115.24 238.10 110.92
  Q 249.23 109.12 257.75 107.18
  Q 275.23 103.19 289.84 100.11
  Q 295.86 98.84 302.55 96.66
  C 307.67 95.00 312.37 91.89 311.05 85.71
  Q 308.81 75.20 300.19 72.47
  Q 296.48 71.30 288.69 71.61
  Q 283.06 71.84 277.14 72.58
  Q 253.72 75.53 230.29 78.43
  C 210.70 80.86 189.64 84.28 171.83 86.45
  Q 165.69 87.20 152.03 89.30
  Q 144.19 90.50 127.85 92.69
  C 123.90 93.22 119.70 94.10 115.64 94.76"
/>
<path stroke="#fd7d6a" vector-effect="non-scaling-stroke" d="
  M 396.25 425.98
  Q 376.25 430.48 369.76 431.70
  Q 266.48 451.12 253.01 453.74
  Q 237.79 456.70 229.14 457.22
  C 218.65 457.85 209.50 456.09 201.87 448.62
  Q 196.61 443.46 191.43 435.35
  Q 158.00 382.95 119.77 320.87
  Q 106.77 299.76 91.86 284.15
  Q 70.26 261.53 38.71 231.43"
/>
<path stroke="#538fdc" vector-effect="non-scaling-stroke" d="
  M 218.78 266.32
  Q 215.62 260.15 212.36 254.15
  Q 182.92 200.04 152.69 146.37
  Q 149.76 141.17 148.14 136.35
  C 145.44 128.35 151.02 124.33 158.07 122.42
  Q 164.66 120.62 179.11 117.69
  Q 189.43 115.60 207.74 110.84
  Q 212.98 109.47 218.74 106.91
  Q 221.73 105.57 223.68 103.55
  C 226.34 100.78 224.06 98.39 221.30 97.35
  Q 217.51 95.92 213.27 95.50
  Q 204.49 94.64 195.10 94.98
  C 176.81 95.66 162.38 97.62 141.75 100.76
  Q 135.43 101.72 118.16 103.28"
/>
<path stroke="#7d76d3" vector-effect="non-scaling-stroke" d="
  M 235.46 116.87
  Q 234.39 116.72 234.53 117.02"
/>
<path stroke="#7d76d3" vector-effect="non-scaling-stroke" d="
  M 223.29 118.77
  Q 222.52 118.72 221.96 119.12"
/>
<path stroke="#c19aa1" vector-effect="non-scaling-stroke" d="
  M 221.96 119.12
  L 220.80 119.20"
/>
<path stroke="#c290a3" vector-effect="non-scaling-stroke" d="
  M 220.80 119.20
  L 218.56 119.39"
/>
<path stroke="#c18aa1" vector-effect="non-scaling-stroke" d="
  M 218.56 119.39
  L 214.49 120.07"
/>
<path stroke="#c17d9e" vector-effect="non-scaling-stroke" d="
  M 214.49 120.07
  L 212.94 120.45"
/>
<path stroke="#c1699a" vector-effect="non-scaling-stroke" d="
  M 212.94 120.45
  L 202.79 122.22"
/>
<path stroke="#bb64a6" vector-effect="non-scaling-stroke" d="
  M 202.79 122.22
  L 197.97 122.90"
/>
<path stroke="#b660b1" vector-effect="non-scaling-stroke" d="
  M 197.97 122.90
  L 192.29 123.54"
/>
<path stroke="#c84cbf" vector-effect="non-scaling-stroke" d="
  M 246.54 263.97
  Q 245.53 261.64 244.36 259.41
  Q 232.40 236.67 217.35 208.54
  Q 206.95 189.11 196.09 169.21
  Q 194.82 166.87 189.18 155.73
  Q 185.75 148.96 181.77 142.49
  Q 178.89 137.81 174.49 126.50"
/>
<path stroke="#ac59cb" vector-effect="non-scaling-stroke" d="
  M 237.77 266.77
  Q 217.98 229.08 197.72 191.85
  C 195.54 187.86 192.24 180.18 189.06 174.53
  Q 187.04 170.95 185.88 168.94
  Q 184.14 165.93 167.60 134.07
  Q 165.39 129.80 168.88 127.23"
/>
<path stroke="#e34e99" vector-effect="non-scaling-stroke" d="
  M 255.07 258.74
  Q 250.41 246.92 244.39 235.62
  Q 223.47 196.41 202.43 157.28
  Q 196.48 146.22 193.16 137.48
  Q 191.25 132.44 189.55 124.18"
/>
<path stroke="#d94cab" vector-effect="non-scaling-stroke" d="
  M 253.04 260.41
  C 250.46 255.13 247.93 249.77 245.15 244.62
  Q 219.43 196.89 193.92 149.05
  Q 186.94 135.97 184.15 125.03"
/>
<path stroke="#fd6966" vector-effect="non-scaling-stroke" d="
  M 390.74 436.70
  Q 373.84 440.13 365.75 441.62
  Q 313.54 451.22 251.54 462.04
  Q 237.44 464.50 228.40 465.27
  C 215.30 466.40 204.50 464.74 195.18 454.69
  C 191.50 450.71 187.28 444.52 184.06 439.25
  Q 146.62 377.89 112.02 323.65
  C 103.76 310.70 95.87 300.13 85.99 290.01
  Q 78.59 282.42 48.99 252.58
  Q 43.23 246.78 31.18 236.48"
/>
<path stroke="#3f9cdf" vector-effect="non-scaling-stroke" d="
  M 210.41 263.10
  Q 209.68 259.39 207.87 256.17
  C 203.21 247.92 198.98 240.66 194.85 232.94
  Q 186.28 216.90 182.62 211.06
  Q 175.67 199.97 171.14 190.81
  Q 170.12 188.76 166.22 183.75
  Q 164.92 182.09 164.08 180.11
  Q 163.70 179.20 162.13 176.29
  Q 159.75 171.87 159.14 170.64
  Q 153.18 158.71 143.78 144.56
  Q 141.73 141.47 138.96 143.56"
/>
<path stroke="#ec5386" vector-effect="non-scaling-stroke" d="
  M 261.31 252.81
  Q 234.74 202.62 209.38 151.92
  Q 202.40 137.98 197.97 122.90"
/>
<path stroke="#feb973" vector-effect="non-scaling-stroke" d="
  M 220.80 119.20
  Q 221.45 122.80 222.40 124.72
  Q 225.52 131.06 228.34 137.51"
/>
<path stroke="#fea973" vector-effect="non-scaling-stroke" d="
  M 228.34 137.51
  L 218.56 119.39"
/>
<path stroke="#fd7567" vector-effect="non-scaling-stroke" d="
  M 270.35 235.09
  C 265.42 224.31 258.27 211.35 254.27 203.52
  Q 248.91 193.04 243.35 182.67
  C 240.76 177.85 238.16 171.53 235.27 166.08
  Q 224.92 146.60 215.56 129.13
  Q 213.73 125.73 212.94 120.45"
/>
<path stroke="#b99fa3" vector-effect="non-scaling-stroke" d="
  M 222.87 119.29
  Q 222.47 119.11 221.96 119.12"
/>
<path stroke="#fdb371" vector-effect="non-scaling-stroke" d="
  M 228.34 137.51
  Q 229.19 139.92 230.35 142.18
  Q 236.63 154.48 242.47 165.29
  Q 247.54 174.67 251.66 183.06
  Q 262.49 205.13 267.55 214.79
  Q 268.45 216.51 270.81 218.77"
/>
<path stroke="#fd956e" vector-effect="non-scaling-stroke" d="
  M 271.13 230.26
  C 268.11 224.79 265.39 219.05 262.39 213.77
  Q 253.19 197.58 245.38 180.67
  Q 244.26 178.25 236.28 163.57
  Q 233.22 157.94 228.26 148.10
  Q 224.72 141.11 220.05 132.73
  Q 216.96 127.17 214.49 120.07"
/>
<path stroke="#f75c6f" vector-effect="non-scaling-stroke" d="
  M 265.47 246.88
  Q 241.65 198.72 214.01 146.29
  Q 208.21 135.28 202.79 122.22"
/>
<path stroke="#fb5e67" vector-effect="non-scaling-stroke" d="
  M 389.30 438.96
  Q 346.95 446.24 304.72 454.16
  C 281.87 458.44 260.60 461.98 231.99 467.13
  Q 227.73 467.90 219.58 468.36
  Q 204.67 469.20 194.77 458.54
  Q 190.08 453.50 186.11 447.08
  Q 164.62 412.37 142.33 380.27
  C 130.64 363.44 119.35 344.81 109.05 328.74
  Q 96.75 309.54 82.78 294.97
  Q 58.75 269.90 27.42 239.93"
/>
<path stroke="#558fdb" vector-effect="non-scaling-stroke" d="
  M 172.14 206.97
  Q 172.46 206.21 171.69 206.25"
/>
<path stroke="#558fdb" vector-effect="non-scaling-stroke" d="
  M 151.13 166.75
  Q 151.29 166.18 150.53 165.96"
/>
<path stroke="#558fdb" vector-effect="non-scaling-stroke" d="
  M 150.53 165.79
  Q 150.77 164.96 150.23 164.82"
/>
<path stroke="#558fdb" vector-effect="non-scaling-stroke" d="
  M 150.23 164.82
  Q 150.07 164.15 149.54 163.71"
/>
<path stroke="#f55973" vector-effect="non-scaling-stroke" d="
  M 386.78 441.85
  Q 324.81 452.74 263.01 464.53
  Q 245.30 467.91 227.55 471.03
  C 212.84 473.62 199.24 473.83 188.46 461.84
  Q 183.17 455.95 176.77 445.95
  Q 138.50 386.18 100.71 328.36
  Q 89.17 310.70 73.36 294.59
  C 56.85 277.76 40.53 260.76 23.93 244.00"
/>
<path stroke="#ec5386" vector-effect="non-scaling-stroke" d="
  M 379.62 448.50
  Q 356.77 451.14 339.07 454.46
  Q 289.52 463.75 228.86 475.10
  Q 221.39 476.50 212.93 477.41
  C 200.88 478.69 190.81 476.04 182.85 466.64
  Q 178.28 461.24 175.41 456.75
  Q 133.66 391.40 93.51 330.78
  Q 82.26 313.78 64.43 295.57
  Q 42.17 272.82 19.77 250.00"
/>
<path stroke="#e34e99" vector-effect="non-scaling-stroke" d="
  M 186.50 487.36
  Q 175.94 475.55 164.59 458.14
  Q 133.10 409.88 87.28 339.96
  Q 75.33 321.73 59.98 306.27
  Q 41.34 287.51 28.11 273.88
  Q 21.68 267.26 15.38 260.15"
/>
<path stroke="#d94cab" vector-effect="non-scaling-stroke" d="
  M 173.85 489.47
  Q 150.20 454.02 127.14 418.30
  Q 113.16 396.65 102.92 382.13
  Q 82.69 353.44 69.59 334.10
  Q 58.88 318.27 41.09 300.68
  Q 25.02 284.80 13.82 274.83"
/>
<path stroke="#c84cbf" vector-effect="non-scaling-stroke" d="
  M 156.35 489.10
  C 141.75 463.61 123.84 437.18 108.83 415.11
  Q 105.94 410.87 100.12 399.72
  Q 95.85 391.56 91.24 384.06
  C 83.35 371.22 73.75 356.39 64.71 342.30
  C 56.50 329.52 48.33 318.75 38.69 308.82
  Q 28.15 297.97 14.92 285.77"
/>
<path stroke="#fb726b" vector-effect="non-scaling-stroke" d="
  M 269.40 276.56
  Q 272.07 280.17 273.87 284.08
  Q 282.50 302.78 293.40 320.56"
/>
<path stroke="#f0557e" vector-effect="non-scaling-stroke" d="
  M 284.40 329.79
  L 258.68 278.35"
/>
<path stroke="#dd4da3" vector-effect="non-scaling-stroke" d="
  M 280.27 332.00
  L 253.86 280.65"
/>
<path stroke="#fd956e" vector-effect="non-scaling-stroke" d="
  M 274.94 277.24
  Q 276.81 283.14 280.34 289.44
  Q 284.17 296.29 290.24 309.26
  Q 291.58 312.12 295.15 317.22"
/>
<path stroke="#c84cbf" vector-effect="non-scaling-stroke" d="
  M 266.32 334.32
  Q 264.67 328.00 262.16 323.16
  Q 256.76 312.76 252.83 304.37
  C 250.28 298.95 247.57 294.37 244.62 289.46"
/>
<path stroke="#9964cf" vector-effect="non-scaling-stroke" d="
  M 263.28 333.91
  C 257.97 325.26 253.19 314.88 246.10 300.63
  Q 244.09 296.60 242.95 292.31"
/>
<path stroke="#fdc175" vector-effect="non-scaling-stroke" d="
  M 405.35 393.48
  L 434.03 329.67
  A 0.22 0.22 0.0 0 0 433.92 329.38
  L 433.73 329.30
  A 35.11 1.61 -65.8 0 0 417.87 360.66
  L 417.79 360.82
  A 35.11 1.61 -65.8 0 0 404.87 393.51
  L 405.06 393.59
  A 0.22 0.22 0.0 0 0 405.35 393.48"
/>
</g>
<path fill="#fd946e" d="
  M 341.24 10.54
  Q 357.40 38.47 374.02 66.10
  Q 381.11 77.88 384.33 83.43
  Q 404.96 118.96 425.98 153.94
  C 431.16 162.55 433.95 171.98 431.46 182.07
  Q 429.67 189.31 424.50 199.91
  Q 408.32 233.08 407.45 234.86
  Q 403.43 243.12 398.99 252.99
  Q 386.84 279.96 358.61 338.88
  Q 351.13 354.48 342.26 366.02
  L 327.04 368.30
  L 329.54 367.69
  L 341.00 365.35
  Q 341.49 365.25 341.73 364.82
  Q 348.07 353.51 351.23 346.99
  Q 370.32 307.63 402.09 240.47
  C 408.59 226.73 417.07 209.72 423.34 195.68
  C 427.88 185.52 430.93 175.38 427.28 164.44
  C 424.56 156.29 419.32 147.83 415.26 141.05
  Q 381.88 85.35 348.85 29.44
  Q 345.51 23.78 336.96 10.84
  L 341.24 10.54
  Z"
/>
<path fill="#fda271" d="
  M 343.84 10.53
  Q 359.87 35.95 375.11 61.90
  Q 415.04 129.87 418.81 136.00
  Q 423.82 144.13 428.64 153.84
  C 432.96 162.52 435.03 171.87 433.38 181.41
  C 432.07 189.03 428.79 197.01 425.81 203.37
  Q 397.18 264.58 363.20 334.81
  Q 354.91 351.95 342.26 366.02
  Q 351.13 354.48 358.61 338.88
  Q 386.84 279.96 398.99 252.99
  Q 403.43 243.12 407.45 234.86
  Q 408.32 233.08 424.50 199.91
  Q 429.67 189.31 431.46 182.07
  C 433.95 171.98 431.16 162.55 425.98 153.94
  Q 404.96 118.96 384.33 83.43
  Q 381.11 77.88 374.02 66.10
  Q 357.40 38.47 341.24 10.54
  L 343.84 10.53
  Z"
/>
<path fill="#feaf75" d="
  M 346.30 10.59
  Q 356.14 23.76 363.40 36.13
  Q 397.09 93.55 424.70 138.83
  Q 431.52 150.01 435.36 158.41
  Q 441.86 172.61 436.58 187.89
  Q 433.90 195.66 430.84 202.21
  C 421.63 221.94 412.01 241.46 402.85 261.21
  Q 385.37 298.87 367.06 336.13
  Q 364.75 340.83 360.03 348.84
  Q 353.28 360.30 342.26 366.02
  Q 354.91 351.95 363.20 334.81
  Q 397.18 264.58 425.81 203.37
  C 428.79 197.01 432.07 189.03 433.38 181.41
  C 435.03 171.87 432.96 162.52 428.64 153.84
  Q 423.82 144.13 418.81 136.00
  Q 415.04 129.87 375.11 61.90
  Q 359.87 35.95 343.84 10.53
  Q 345.07 10.33 346.30 10.59
  Z"
/>
<path fill="#fdc370" d="
  M 354.98 11.70
  Q 395.43 78.87 435.65 146.04
  Q 439.96 153.23 443.13 160.06
  Q 449.76 174.35 444.79 189.26
  Q 442.82 195.17 440.64 200.01
  Q 430.75 222.03 420.11 243.69
  Q 394.14 296.52 390.12 305.15
  Q 379.15 328.74 372.09 343.15
  Q 369.77 347.88 365.77 353.53
  C 359.20 362.82 349.52 367.22 338.57 369.46
  C 325.43 372.15 311.91 373.51 298.95 375.19
  Q 284.04 377.12 227.82 386.44
  Q 209.62 389.46 189.58 390.86
  L 225.43 384.93
  Q 226.09 385.35 226.56 384.84
  L 292.05 374.03
  Q 293.13 374.20 293.04 373.79
  L 297.53 373.12
  Q 298.39 373.25 298.75 372.94
  L 320.79 369.13
  L 324.54 368.55
  L 327.04 368.30
  L 342.26 366.02
  Q 353.28 360.30 360.03 348.84
  Q 364.75 340.83 367.06 336.13
  Q 385.37 298.87 402.85 261.21
  C 412.01 241.46 421.63 221.94 430.84 202.21
  Q 433.90 195.66 436.58 187.89
  Q 441.86 172.61 435.36 158.41
  Q 431.52 150.01 424.70 138.83
  Q 397.09 93.55 363.40 36.13
  Q 356.14 23.76 346.30 10.59
  Q 351.04 10.35 354.98 11.70
  Z"
/>
<path fill="#fd886b" d="
  M 336.96 10.84
  Q 345.51 23.78 348.85 29.44
  Q 381.88 85.35 415.26 141.05
  C 419.32 147.83 424.56 156.29 427.28 164.44
  C 430.93 175.38 427.88 185.52 423.34 195.68
  C 417.07 209.72 408.59 226.73 402.09 240.47
  Q 370.32 307.63 351.23 346.99
  Q 348.07 353.51 341.73 364.82
  Q 341.49 365.25 341.00 365.35
  L 329.54 367.69
  L 333.64 366.19
  Q 334.11 366.01 334.37 365.58
  Q 341.82 352.94 345.81 344.58
  Q 405.78 218.98 415.67 197.86
  Q 419.13 190.47 420.24 186.61
  Q 424.59 171.53 417.09 157.69
  Q 413.54 151.16 403.23 133.92
  Q 394.64 119.58 367.53 72.43
  Q 359.32 58.16 331.73 11.74
  L 336.96 10.84
  Z"
/>
<path fill="#fc7168" d="
  M 331.73 11.74
  Q 359.32 58.16 367.53 72.43
  Q 394.64 119.58 403.23 133.92
  Q 413.54 151.16 417.09 157.69
  Q 424.59 171.53 420.24 186.61
  Q 419.13 190.47 415.67 197.86
  Q 405.78 218.98 345.81 344.58
  Q 341.82 352.94 334.37 365.58
  Q 334.11 366.01 333.64 366.19
  L 329.54 367.69
  L 327.04 368.30
  L 324.54 368.55
  L 325.74 367.77
  Q 332.66 359.24 336.68 352.44
  Q 340.20 346.48 347.34 331.86
  Q 362.49 300.81 376.89 269.42
  C 388.07 245.05 400.91 219.10 408.81 201.88
  C 413.40 191.85 416.99 181.31 414.12 170.12
  Q 411.88 161.38 406.12 151.61
  Q 405.01 149.73 377.50 102.16
  Q 372.88 94.18 367.33 84.94
  Q 357.96 69.31 340.64 39.39
  Q 336.52 32.26 332.68 28.02
  Q 325.93 20.56 316.54 18.16
  Q 314.53 17.65 312.58 17.40
  Q 300.57 20.39 288.30 22.48
  Q 260.41 27.23 249.56 29.16
  Q 238.58 31.12 229.84 32.41
  Q 216.36 34.38 204.59 36.73
  Q 196.58 38.32 184.90 40.25
  Q 161.21 44.16 137.35 48.44
  Q 141.25 45.90 145.44 44.73
  Q 149.79 43.51 154.24 42.79
  Q 162.40 41.47 163.12 41.33
  Q 177.22 38.60 190.72 36.33
  Q 211.91 32.76 215.99 32.09
  Q 226.12 30.44 236.21 28.57
  Q 245.44 26.86 311.90 15.25
  Q 321.78 13.52 331.73 11.74
  Z"
/>
<path fill="#fddb7d" d="
  M 362.00 14.06
  Q 373.38 35.24 385.77 55.53
  Q 412.01 98.49 437.85 142.23
  Q 441.83 148.97 446.69 158.73
  C 450.72 166.82 452.63 175.79 451.19 184.79
  C 450.01 192.12 447.05 200.16 444.29 206.23
  Q 432.66 231.78 414.89 271.19
  Q 403.32 296.84 384.82 334.78
  Q 382.09 340.39 377.09 348.57
  C 369.16 361.59 358.26 368.48 343.41 372.52
  Q 333.91 375.11 325.41 376.50
  Q 293.27 381.75 264.47 386.36
  Q 231.50 391.63 219.94 394.12
  Q 214.88 395.22 210.06 397.06
  C 205.01 399.00 200.88 403.38 203.57 409.11
  C 209.64 422.05 227.46 420.52 239.04 418.68
  Q 255.33 416.10 276.73 411.69
  Q 296.65 407.58 376.62 394.25
  C 389.01 392.18 396.78 383.77 402.86 372.87
  C 409.91 360.24 417.15 343.62 423.16 329.52
  Q 424.88 325.47 460.77 242.72
  Q 466.46 229.62 482.34 197.13
  L 485.25 205.95
  C 472.38 234.45 459.32 262.85 446.77 291.45
  Q 421.10 349.97 408.31 378.59
  Q 405.74 384.34 402.21 389.71
  C 394.34 401.67 381.14 405.23 367.51 407.60
  Q 336.15 413.04 306.24 419.17
  Q 294.73 421.53 286.62 423.06
  Q 241.86 431.53 240.06 431.84
  C 228.89 433.77 216.96 434.99 207.91 426.58
  Q 203.91 422.86 200.80 418.25
  Q 193.56 407.54 179.90 385.37
  Q 141.43 322.96 120.12 288.79
  Q 109.58 271.88 96.10 258.05
  Q 82.08 243.69 63.14 225.49
  Q 83.46 226.47 96.50 239.96
  Q 100.58 244.18 107.94 256.31
  Q 148.86 323.80 189.58 390.86
  Q 209.62 389.46 227.82 386.44
  Q 284.04 377.12 298.95 375.19
  C 311.91 373.51 325.43 372.15 338.57 369.46
  C 349.52 367.22 359.20 362.82 365.77 353.53
  Q 369.77 347.88 372.09 343.15
  Q 379.15 328.74 390.12 305.15
  Q 394.14 296.52 420.11 243.69
  Q 430.75 222.03 440.64 200.01
  Q 442.82 195.17 444.79 189.26
  Q 449.76 174.35 443.13 160.06
  Q 439.96 153.23 435.65 146.04
  Q 395.43 78.87 354.98 11.70
  L 362.00 14.06
  Z"
/>
<path fill="#fce774" d="
  M 362.00 14.06
  Q 374.65 19.65 381.55 30.96
  Q 401.81 64.18 482.34 197.13
  Q 466.46 229.62 460.77 242.72
  Q 424.88 325.47 423.16 329.52
  C 417.15 343.62 409.91 360.24 402.86 372.87
  C 396.78 383.77 389.01 392.18 376.62 394.25
  Q 296.65 407.58 276.73 411.69
  Q 255.33 416.10 239.04 418.68
  C 227.46 420.52 209.64 422.05 203.57 409.11
  C 200.88 403.38 205.01 399.00 210.06 397.06
  Q 214.88 395.22 219.94 394.12
  Q 231.50 391.63 264.47 386.36
  Q 293.27 381.75 325.41 376.50
  Q 333.91 375.11 343.41 372.52
  C 358.26 368.48 369.16 361.59 377.09 348.57
  Q 382.09 340.39 384.82 334.78
  Q 403.32 296.84 414.89 271.19
  Q 432.66 231.78 444.29 206.23
  C 447.05 200.16 450.01 192.12 451.19 184.79
  C 452.63 175.79 450.72 166.82 446.69 158.73
  Q 441.83 148.97 437.85 142.23
  Q 412.01 98.49 385.77 55.53
  Q 373.38 35.24 362.00 14.06
  Z"
/>
<path fill="#f85b6a" d="
  M 325.74 367.77
  Q 339.17 341.67 348.98 320.78
  Q 403.89 203.82 403.92 203.75
  C 408.78 192.86 411.49 182.52 407.29 171.11
  Q 405.03 164.97 402.55 160.63
  Q 390.35 139.24 378.50 117.96
  Q 373.31 108.64 368.61 100.59
  Q 352.76 73.43 335.33 42.64
  Q 330.79 34.63 327.56 30.33
  Q 321.75 22.58 312.58 17.40
  Q 314.53 17.65 316.54 18.16
  Q 325.93 20.56 332.68 28.02
  Q 336.52 32.26 340.64 39.39
  Q 357.96 69.31 367.33 84.94
  Q 372.88 94.18 377.50 102.16
  Q 405.01 149.73 406.12 151.61
  Q 411.88 161.38 414.12 170.12
  C 416.99 181.31 413.40 191.85 408.81 201.88
  C 400.91 219.10 388.07 245.05 376.89 269.42
  Q 362.49 300.81 347.34 331.86
  Q 340.20 346.48 336.68 352.44
  Q 332.66 359.24 325.74 367.77
  Z"
/>
<path fill="#f1567b" d="
  M 325.74 367.77
  L 324.54 368.55
  L 320.79 369.13
  L 385.27 231.04
  C 392.24 220.19 397.83 207.66 403.02 197.19
  Q 404.05 195.13 403.87 193.11
  Q 402.79 181.22 397.07 170.92
  Q 387.79 154.22 380.13 140.90
  Q 323.72 42.87 323.34 42.22
  C 318.07 33.16 311.74 26.64 300.40 26.89
  Q 290.75 27.11 279.94 28.95
  Q 204.62 41.75 129.23 54.17
  Q 133.10 50.47 137.35 48.44
  Q 161.21 44.16 184.90 40.25
  Q 196.58 38.32 204.59 36.73
  Q 216.36 34.38 229.84 32.41
  Q 238.58 31.12 249.56 29.16
  Q 260.41 27.23 288.30 22.48
  Q 300.57 20.39 312.58 17.40
  Q 321.75 22.58 327.56 30.33
  Q 330.79 34.63 335.33 42.64
  Q 352.76 73.43 368.61 100.59
  Q 373.31 108.64 378.50 117.96
  Q 390.35 139.24 402.55 160.63
  Q 405.03 164.97 407.29 171.11
  C 411.49 182.52 408.78 192.86 403.92 203.75
  Q 403.89 203.82 348.98 320.78
  Q 339.17 341.67 325.74 367.77
  Z"
/>
<path fill="#e74f91" d="
  M 385.27 231.04
  L 390.74 219.12
  L 393.02 214.56
  Q 398.37 205.57 402.24 195.84
  A 1.32 1.29 48.2 0 0 402.28 194.98
  Q 398.49 181.75 389.56 166.13
  Q 336.66 73.62 321.64 48.08
  C 316.95 40.10 311.20 32.95 301.57 31.39
  Q 293.76 30.13 283.64 31.84
  Q 227.07 41.45 153.16 53.27
  Q 139.74 55.42 126.28 57.21
  L 129.23 54.17
  Q 204.62 41.75 279.94 28.95
  Q 290.75 27.11 300.40 26.89
  C 311.74 26.64 318.07 33.16 323.34 42.22
  Q 323.72 42.87 380.13 140.90
  Q 387.79 154.22 397.07 170.92
  Q 402.79 181.22 403.87 193.11
  Q 404.05 195.13 403.02 197.19
  C 397.83 207.66 392.24 220.19 385.27 231.04
  Z"
/>
<path fill="#df4ca1" d="
  M 393.02 214.56
  Q 393.09 213.64 393.60 213.08
  L 396.30 207.02
  L 399.67 199.74
  Q 399.88 199.29 399.74 198.81
  Q 395.77 185.26 388.13 171.90
  Q 355.90 115.50 321.80 56.20
  C 315.25 44.80 309.20 34.63 294.38 34.50
  Q 287.23 34.43 279.48 35.66
  Q 224.93 44.29 152.28 56.10
  C 142.95 57.62 133.32 58.81 123.80 60.01
  L 126.28 57.21
  Q 139.74 55.42 153.16 53.27
  Q 227.07 41.45 283.64 31.84
  Q 293.76 30.13 301.57 31.39
  C 311.20 32.95 316.95 40.10 321.64 48.08
  Q 336.66 73.62 389.56 166.13
  Q 398.49 181.75 402.28 194.98
  A 1.32 1.29 48.2 0 1 402.24 195.84
  Q 398.37 205.57 393.02 214.56
  Z"
/>
<path fill="#d24bb4" d="
  M 396.30 207.02
  Q 395.74 202.47 394.65 200.28
  Q 391.67 194.32 384.52 182.50
  Q 378.05 171.82 374.37 165.27
  Q 364.44 147.63 353.53 129.14
  C 350.80 124.51 347.89 118.69 345.51 114.77
  Q 332.63 93.54 331.35 91.18
  Q 325.58 80.61 321.20 73.43
  C 315.35 63.82 310.90 55.31 304.67 44.75
  A 0.65 0.52 78.0 0 1 305.16 43.77
  L 305.44 43.85
  Q 305.74 43.94 305.47 43.72
  Q 305.18 43.48 305.11 43.22
  Q 304.79 41.87 304.18 40.33
  Q 303.99 39.84 303.47 39.92
  C 292.01 41.64 279.01 42.95 265.87 45.11
  Q 226.99 51.51 191.36 56.95
  Q 185.84 57.79 128.54 66.72
  Q 125.21 67.24 118.66 68.66
  L 123.80 60.01
  C 133.32 58.81 142.95 57.62 152.28 56.10
  Q 224.93 44.29 279.48 35.66
  Q 287.23 34.43 294.38 34.50
  C 309.20 34.63 315.25 44.80 321.80 56.20
  Q 355.90 115.50 388.13 171.90
  Q 395.77 185.26 399.74 198.81
  Q 399.88 199.29 399.67 199.74
  L 396.30 207.02
  Z"
/>
<path fill="#be4dc9" d="
  M 396.30 207.02
  L 393.60 213.08
  Q 392.31 210.36 390.86 207.86
  Q 384.74 197.31 366.31 164.64
  Q 363.08 158.93 359.72 153.30
  Q 353.50 142.90 335.55 110.54
  Q 331.00 102.35 325.62 93.28
  Q 316.77 78.37 307.11 60.42
  C 304.10 54.82 300.92 50.21 294.85 51.37
  C 288.66 52.55 283.33 53.80 276.32 54.68
  Q 234.33 59.94 193.13 66.99
  Q 185.19 68.35 173.40 70.06
  Q 153.00 73.02 142.13 74.94
  Q 129.94 77.09 119.80 78.20
  Q 118.33 78.36 115.64 78.29
  L 116.03 77.06
  L 116.11 76.04
  L 118.66 68.66
  Q 125.21 67.24 128.54 66.72
  Q 185.84 57.79 191.36 56.95
  Q 226.99 51.51 265.87 45.11
  C 279.01 42.95 292.01 41.64 303.47 39.92
  Q 303.99 39.84 304.18 40.33
  Q 304.79 41.87 305.11 43.22
  Q 305.18 43.48 305.47 43.72
  Q 305.74 43.94 305.44 43.85
  L 305.16 43.77
  A 0.65 0.52 78.0 0 0 304.67 44.75
  C 310.90 55.31 315.35 63.82 321.20 73.43
  Q 325.58 80.61 331.35 91.18
  Q 332.63 93.54 345.51 114.77
  C 347.89 118.69 350.80 124.51 353.53 129.14
  Q 364.44 147.63 374.37 165.27
  Q 378.05 171.82 384.52 182.50
  Q 391.67 194.32 394.65 200.28
  Q 395.74 202.47 396.30 207.02
  Z"
/>
<path fill="#9a65cd" d="
  M 393.60 213.08
  Q 393.09 213.64 393.02 214.56
  L 390.74 219.12
  Q 389.26 217.72 388.77 215.79
  Q 386.61 208.59 384.07 204.46
  Q 373.80 187.72 364.38 170.02
  C 356.13 154.51 347.41 140.45 339.85 126.39
  Q 336.02 119.26 329.85 109.03
  Q 325.98 102.62 311.51 77.33
  Q 309.76 74.28 308.08 71.18
  C 304.75 65.00 302.98 60.45 296.13 59.89
  Q 294.93 59.79 286.77 60.71
  Q 279.39 61.54 268.81 63.02
  Q 208.12 71.54 190.51 74.25
  Q 178.84 76.05 170.73 77.10
  Q 154.73 79.16 135.27 82.61
  Q 125.02 84.42 120.50 84.25
  Q 119.18 84.20 115.04 83.54
  L 115.25 83.05
  L 115.20 81.48
  L 115.64 78.29
  Q 118.33 78.36 119.80 78.20
  Q 129.94 77.09 142.13 74.94
  Q 153.00 73.02 173.40 70.06
  Q 185.19 68.35 193.13 66.99
  Q 234.33 59.94 276.32 54.68
  C 283.33 53.80 288.66 52.55 294.85 51.37
  C 300.92 50.21 304.10 54.82 307.11 60.42
  Q 316.77 78.37 325.62 93.28
  Q 331.00 102.35 335.55 110.54
  Q 353.50 142.90 359.72 153.30
  Q 363.08 158.93 366.31 164.64
  Q 384.74 197.31 390.86 207.86
  Q 392.31 210.36 393.60 213.08
  Z"
/>
<path fill="#8571d1" d="
  M 388.77 215.79
  L 357.36 163.08
  Q 357.12 162.67 356.72 162.42
  Q 356.13 162.04 356.24 161.28
  Q 356.37 160.74 356.21 160.51
  Q 356.04 160.26 355.76 160.48
  L 327.56 112.89
  Q 327.41 112.63 327.46 112.34
  Q 327.50 112.17 327.39 111.93
  A 0.43 0.38 -86.8 0 0 327.23 111.73
  Q 326.05 110.99 325.71 109.57
  Q 325.58 109.06 325.24 108.66
  Q 323.32 106.37 321.88 102.69
  Q 321.82 98.15 319.67 94.59
  Q 308.53 76.16 305.36 68.28
  Q 305.17 67.82 304.68 67.72
  Q 296.63 66.07 291.81 66.03
  Q 283.09 65.96 271.94 67.49
  Q 193.55 78.24 115.14 89.89
  Q 114.52 86.91 115.04 83.54
  Q 119.18 84.20 120.50 84.25
  Q 125.02 84.42 135.27 82.61
  Q 154.73 79.16 170.73 77.10
  Q 178.84 76.05 190.51 74.25
  Q 208.12 71.54 268.81 63.02
  Q 279.39 61.54 286.77 60.71
  Q 294.93 59.79 296.13 59.89
  C 302.98 60.45 304.75 65.00 308.08 71.18
  Q 309.76 74.28 311.51 77.33
  Q 325.98 102.62 329.85 109.03
  Q 336.02 119.26 339.85 126.39
  C 347.41 140.45 356.13 154.51 364.38 170.02
  Q 373.80 187.72 384.07 204.46
  Q 386.61 208.59 388.77 215.79
  Z"
/>
<path fill="#747bd5" d="
  M 321.88 102.69
  L 245.29 115.17
  Q 238.40 114.27 234.40 115.06
  C 227.49 116.43 224.19 117.16 218.60 117.64
  C 209.38 118.42 200.49 119.38 192.29 123.54
  L 189.55 124.18
  L 184.15 125.03
  L 174.49 126.50
  L 168.88 127.23
  L 158.41 129.16
  A 0.80 0.79 72.6 0 0 157.83 130.28
  Q 162.04 139.48 166.92 148.22
  Q 174.64 162.08 174.68 162.16
  Q 192.30 195.00 209.90 227.84
  Q 216.70 240.54 223.69 253.12
  Q 227.17 259.39 229.87 267.73
  L 223.35 267.22
  Q 213.67 248.76 203.38 230.77
  C 198.38 222.03 193.75 212.49 189.06 204.19
  Q 179.65 187.53 153.31 139.66
  Q 151.74 136.80 151.05 133.61
  C 149.70 127.43 156.67 125.69 161.36 124.86
  Q 176.87 122.12 194.10 118.70
  Q 211.47 115.24 238.10 110.92
  Q 249.23 109.12 257.75 107.18
  Q 275.23 103.19 289.84 100.11
  Q 295.86 98.84 302.55 96.66
  C 307.67 95.00 312.37 91.89 311.05 85.71
  Q 308.81 75.20 300.19 72.47
  Q 296.48 71.30 288.69 71.61
  Q 283.06 71.84 277.14 72.58
  Q 253.72 75.53 230.29 78.43
  C 210.70 80.86 189.64 84.28 171.83 86.45
  Q 165.69 87.20 152.03 89.30
  Q 144.19 90.50 127.85 92.69
  C 123.90 93.22 119.70 94.10 115.64 94.76
  L 115.14 89.89
  Q 193.55 78.24 271.94 67.49
  Q 283.09 65.96 291.81 66.03
  Q 296.63 66.07 304.68 67.72
  Q 305.17 67.82 305.36 68.28
  Q 308.53 76.16 319.67 94.59
  Q 321.82 98.15 321.88 102.69
  Z"
/>
<path fill="#5d89da" d="
  M 223.35 267.22
  Q 221.00 267.15 218.78 266.32
  Q 215.62 260.15 212.36 254.15
  Q 182.92 200.04 152.69 146.37
  Q 149.76 141.17 148.14 136.35
  C 145.44 128.35 151.02 124.33 158.07 122.42
  Q 164.66 120.62 179.11 117.69
  Q 189.43 115.60 207.74 110.84
  Q 212.98 109.47 218.74 106.91
  Q 221.73 105.57 223.68 103.55
  C 226.34 100.78 224.06 98.39 221.30 97.35
  Q 217.51 95.92 213.27 95.50
  Q 204.49 94.64 195.10 94.98
  C 176.81 95.66 162.38 97.62 141.75 100.76
  Q 135.43 101.72 118.16 103.28
  L 115.64 94.76
  C 119.70 94.10 123.90 93.22 127.85 92.69
  Q 144.19 90.50 152.03 89.30
  Q 165.69 87.20 171.83 86.45
  C 189.64 84.28 210.70 80.86 230.29 78.43
  Q 253.72 75.53 277.14 72.58
  Q 283.06 71.84 288.69 71.61
  Q 296.48 71.30 300.19 72.47
  Q 308.81 75.20 311.05 85.71
  C 312.37 91.89 307.67 95.00 302.55 96.66
  Q 295.86 98.84 289.84 100.11
  Q 275.23 103.19 257.75 107.18
  Q 249.23 109.12 238.10 110.92
  Q 211.47 115.24 194.10 118.70
  Q 176.87 122.12 161.36 124.86
  C 156.67 125.69 149.70 127.43 151.05 133.61
  Q 151.74 136.80 153.31 139.66
  Q 179.65 187.53 189.06 204.19
  C 193.75 212.49 198.38 222.03 203.38 230.77
  Q 213.67 248.76 223.35 267.22
  Z"
/>
<path fill="#747bd5" d="
  M 116.11 76.04
  L 116.03 77.06
  Q 115.52 76.75 116.11 76.04
  Z"
/>
<path fill="#747bd5" d="
  M 115.20 81.48
  L 115.25 83.05
  Q 114.72 82.94 115.20 81.48
  Z"
/>
<path fill="#4995dd" d="
  M 218.78 266.32
  L 210.41 263.10
  Q 209.68 259.39 207.87 256.17
  C 203.21 247.92 198.98 240.66 194.85 232.94
  Q 186.28 216.90 182.62 211.06
  Q 175.67 199.97 171.14 190.81
  Q 170.12 188.76 166.22 183.75
  Q 164.92 182.09 164.08 180.11
  Q 163.70 179.20 162.13 176.29
  Q 159.75 171.87 159.14 170.64
  Q 153.18 158.71 143.78 144.56
  Q 141.73 141.47 138.96 143.56
  L 118.16 103.28
  Q 135.43 101.72 141.75 100.76
  C 162.38 97.62 176.81 95.66 195.10 94.98
  Q 204.49 94.64 213.27 95.50
  Q 217.51 95.92 221.30 97.35
  C 224.06 98.39 226.34 100.78 223.68 103.55
  Q 221.73 105.57 218.74 106.91
  Q 212.98 109.47 207.74 110.84
  Q 189.43 115.60 179.11 117.69
  Q 164.66 120.62 158.07 122.42
  C 151.02 124.33 145.44 128.35 148.14 136.35
  Q 149.76 141.17 152.69 146.37
  Q 182.92 200.04 212.36 254.15
  Q 215.62 260.15 218.78 266.32
  Z"
/>
<path fill="#8571d1" d="
  M 245.29 115.17
  L 235.46 116.87
  Q 234.39 116.72 234.53 117.02
  L 223.29 118.77
  Q 222.52 118.72 221.96 119.12
  L 220.80 119.20
  L 218.56 119.39
  L 214.49 120.07
  L 212.94 120.45
  L 202.79 122.22
  L 197.97 122.90
  L 192.29 123.54
  C 200.49 119.38 209.38 118.42 218.60 117.64
  C 224.19 117.16 227.49 116.43 234.40 115.06
  Q 238.40 114.27 245.29 115.17
  Z"
/>
<path fill="#747bd5" d="
  M 235.46 116.87
  Q 234.96 116.84 234.53 117.02
  Q 234.39 116.72 235.46 116.87
  Z"
/>
<path fill="#747bd5" d="
  M 223.29 118.77
  L 222.87 119.29
  Q 222.47 119.11 221.96 119.12
  Q 222.52 118.72 223.29 118.77
  Z"
/>
<path fill="#feaf75" d="
  M 220.80 119.20
  Q 221.45 122.80 222.40 124.72
  Q 225.52 131.06 228.34 137.51
  L 218.56 119.39
  L 220.80 119.20
  Z"
/>
<path fill="#fda271" d="
  M 218.56 119.39
  L 228.34 137.51
  Q 229.19 139.92 230.35 142.18
  Q 236.63 154.48 242.47 165.29
  Q 247.54 174.67 251.66 183.06
  Q 262.49 205.13 267.55 214.79
  Q 268.45 216.51 270.81 218.77
  Q 271.77 224.35 271.13 230.26
  C 268.11 224.79 265.39 219.05 262.39 213.77
  Q 253.19 197.58 245.38 180.67
  Q 244.26 178.25 236.28 163.57
  Q 233.22 157.94 228.26 148.10
  Q 224.72 141.11 220.05 132.73
  Q 216.96 127.17 214.49 120.07
  L 218.56 119.39
  Z"
/>
<path fill="#fdc370" d="
  M 221.96 119.12
  Q 222.47 119.11 222.87 119.29
  Q 223.75 121.40 224.79 123.45
  Q 246.62 166.40 268.40 209.37
  Q 270.10 212.72 270.81 218.77
  Q 268.45 216.51 267.55 214.79
  Q 262.49 205.13 251.66 183.06
  Q 247.54 174.67 242.47 165.29
  Q 236.63 154.48 230.35 142.18
  Q 229.19 139.92 228.34 137.51
  Q 225.52 131.06 222.40 124.72
  Q 221.45 122.80 220.80 119.20
  L 221.96 119.12
  Z"
/>
<path fill="#fd886b" d="
  M 214.49 120.07
  Q 216.96 127.17 220.05 132.73
  Q 224.72 141.11 228.26 148.10
  Q 233.22 157.94 236.28 163.57
  Q 244.26 178.25 245.38 180.67
  Q 253.19 197.58 262.39 213.77
  C 265.39 219.05 268.11 224.79 271.13 230.26
  L 270.35 235.09
  C 265.42 224.31 258.27 211.35 254.27 203.52
  Q 248.91 193.04 243.35 182.67
  C 240.76 177.85 238.16 171.53 235.27 166.08
  Q 224.92 146.60 215.56 129.13
  Q 213.73 125.73 212.94 120.45
  L 214.49 120.07
  Z"
/>
<path fill="#fd6163" d="
  M 212.94 120.45
  Q 213.73 125.73 215.56 129.13
  Q 224.92 146.60 235.27 166.08
  C 238.16 171.53 240.76 177.85 243.35 182.67
  Q 248.91 193.04 254.27 203.52
  C 258.27 211.35 265.42 224.31 270.35 235.09
  Q 269.09 241.21 265.47 246.88
  Q 241.65 198.72 214.01 146.29
  Q 208.21 135.28 202.79 122.22
  L 212.94 120.45
  Z"
/>
<path fill="#f1567b" d="
  M 202.79 122.22
  Q 208.21 135.28 214.01 146.29
  Q 241.65 198.72 265.47 246.88
  Q 263.95 250.12 261.31 252.81
  Q 234.74 202.62 209.38 151.92
  Q 202.40 137.98 197.97 122.90
  L 202.79 122.22
  Z"
/>
<path fill="#e74f91" d="
  M 197.97 122.90
  Q 202.40 137.98 209.38 151.92
  Q 234.74 202.62 261.31 252.81
  L 255.07 258.74
  Q 250.41 246.92 244.39 235.62
  Q 223.47 196.41 202.43 157.28
  Q 196.48 146.22 193.16 137.48
  Q 191.25 132.44 189.55 124.18
  L 192.29 123.54
  L 197.97 122.90
  Z"
/>
<path fill="#df4ca1" d="
  M 189.55 124.18
  Q 191.25 132.44 193.16 137.48
  Q 196.48 146.22 202.43 157.28
  Q 223.47 196.41 244.39 235.62
  Q 250.41 246.92 255.07 258.74
  L 253.04 260.41
  C 250.46 255.13 247.93 249.77 245.15 244.62
  Q 219.43 196.89 193.92 149.05
  Q 186.94 135.97 184.15 125.03
  L 189.55 124.18
  Z"
/>
<path fill="#d24bb4" d="
  M 184.15 125.03
  Q 186.94 135.97 193.92 149.05
  Q 219.43 196.89 245.15 244.62
  C 247.93 249.77 250.46 255.13 253.04 260.41
  L 246.54 263.97
  Q 245.53 261.64 244.36 259.41
  Q 232.40 236.67 217.35 208.54
  Q 206.95 189.11 196.09 169.21
  Q 194.82 166.87 189.18 155.73
  Q 185.75 148.96 181.77 142.49
  Q 178.89 137.81 174.49 126.50
  L 184.15 125.03
  Z"
/>
<path fill="#be4dc9" d="
  M 174.49 126.50
  Q 178.89 137.81 181.77 142.49
  Q 185.75 148.96 189.18 155.73
  Q 194.82 166.87 196.09 169.21
  Q 206.95 189.11 217.35 208.54
  Q 232.40 236.67 244.36 259.41
  Q 245.53 261.64 246.54 263.97
  L 237.77 266.77
  Q 217.98 229.08 197.72 191.85
  C 195.54 187.86 192.24 180.18 189.06 174.53
  Q 187.04 170.95 185.88 168.94
  Q 184.14 165.93 167.60 134.07
  Q 165.39 129.80 168.88 127.23
  L 174.49 126.50
  Z"
/>
<path fill="#9a65cd" d="
  M 168.88 127.23
  Q 165.39 129.80 167.60 134.07
  Q 184.14 165.93 185.88 168.94
  Q 187.04 170.95 189.06 174.53
  C 192.24 180.18 195.54 187.86 197.72 191.85
  Q 217.98 229.08 237.77 266.77
  L 229.87 267.73
  Q 227.17 259.39 223.69 253.12
  Q 216.70 240.54 209.90 227.84
  Q 192.30 195.00 174.68 162.16
  Q 174.64 162.08 166.92 148.22
  Q 162.04 139.48 157.83 130.28
  A 0.80 0.79 72.6 0 1 158.41 129.16
  L 168.88 127.23
  Z"
/>
<path fill="#35a2e0" d="
  M 210.41 263.10
  Q 198.21 257.01 192.20 245.54
  Q 182.12 226.28 172.14 206.97
  Q 172.46 206.21 171.69 206.25
  L 151.13 166.75
  Q 151.29 166.18 150.53 165.96
  Q 150.53 165.87 150.53 165.79
  Q 150.77 164.96 150.23 164.82
  Q 150.07 164.15 149.54 163.71
  L 138.96 143.56
  Q 141.73 141.47 143.78 144.56
  Q 153.18 158.71 159.14 170.64
  Q 159.75 171.87 162.13 176.29
  Q 163.70 179.20 164.08 180.11
  Q 164.92 182.09 166.22 183.75
  Q 170.12 188.76 171.14 190.81
  Q 175.67 199.97 182.62 211.06
  Q 186.28 216.90 194.85 232.94
  C 198.98 240.66 203.21 247.92 207.87 256.17
  Q 209.68 259.39 210.41 263.10
  Z"
/>
<path fill="#747bd5" d="
  M 356.24 161.28
  Q 355.94 160.94 355.76 160.48
  Q 356.04 160.26 356.21 160.51
  Q 356.37 160.74 356.24 161.28
  Z"
/>
<path fill="#747bd5" d="
  M 150.23 164.82
  Q 149.38 164.49 149.54 163.71
  Q 150.07 164.15 150.23 164.82
  Z"
/>
<path fill="#747bd5" d="
  M 150.53 165.79
  Q 150.20 165.39 150.23 164.82
  Q 150.77 164.96 150.53 165.79
  Z"
/>
<path fill="#747bd5" d="
  M 151.13 166.75
  Q 150.43 166.41 150.53 165.96
  Q 151.29 166.18 151.13 166.75
  Z"
/>
<path fill="#fdbe79" d="
  M 485.25 205.95
  L 485.48 207.89
  Q 482.34 218.75 477.82 228.89
  Q 461.78 264.92 445.58 300.89
  Q 444.14 304.08 439.98 314.25
  A 0.41 0.38 -50.2 0 0 440.00 314.59
  L 440.20 314.94
  A 0.10 0.10 0.0 0 0 440.37 314.94
  Q 444.12 308.34 447.19 301.36
  Q 470.78 247.79 474.89 238.83
  Q 479.16 229.51 480.35 227.24
  A 0.08 0.05 -66.8 0 1 480.42 227.19
  Q 480.45 227.20 480.49 227.24
  A 0.20 0.15 -55.9 0 1 480.50 227.41
  L 445.65 307.94
  L 442.83 314.19
  Q 428.80 344.80 414.99 375.50
  Q 410.20 386.16 404.66 396.43
  C 399.00 406.92 389.85 411.84 378.39 413.93
  Q 348.04 419.49 327.83 423.45
  Q 317.44 425.49 308.17 427.06
  Q 271.50 433.24 241.11 439.26
  Q 234.41 440.58 226.01 441.33
  C 217.62 442.08 211.42 439.35 206.13 433.17
  Q 203.45 430.04 201.98 427.65
  Q 180.17 392.27 159.82 360.26
  Q 154.92 352.55 149.31 343.24
  Q 138.71 325.66 127.79 308.28
  Q 117.81 292.41 117.10 291.37
  Q 107.35 276.98 93.10 262.61
  Q 74.88 244.23 56.68 225.83
  L 63.14 225.49
  Q 82.08 243.69 96.10 258.05
  Q 109.58 271.88 120.12 288.79
  Q 141.43 322.96 179.90 385.37
  Q 193.56 407.54 200.80 418.25
  Q 203.91 422.86 207.91 426.58
  C 216.96 434.99 228.89 433.77 240.06 431.84
  Q 241.86 431.53 286.62 423.06
  Q 294.73 421.53 306.24 419.17
  Q 336.15 413.04 367.51 407.60
  C 381.14 405.23 394.34 401.67 402.21 389.71
  Q 405.74 384.34 408.31 378.59
  Q 421.10 349.97 446.77 291.45
  C 459.32 262.85 472.38 234.45 485.25 205.95
  Z
  M 405.35 393.48
  L 434.03 329.67
  A 0.22 0.22 0.0 0 0 433.92 329.38
  L 433.73 329.30
  A 35.11 1.61 -65.8 0 0 417.87 360.66
  L 417.79 360.82
  A 35.11 1.61 -65.8 0 0 404.87 393.51
  L 405.06 393.59
  A 0.22 0.22 0.0 0 0 405.35 393.48
  Z"
/>
<path fill="#747bd5" d="
  M 172.14 206.97
  L 171.69 206.25
  Q 172.46 206.21 172.14 206.97
  Z"
/>
<path fill="#fdc370" d="
  M 486.00 212.78
  C 485.87 214.79 486.16 216.62 485.44 218.54
  Q 480.48 231.69 477.53 238.05
  Q 462.34 270.79 447.79 303.81
  Q 446.86 305.94 445.65 307.94
  L 480.50 227.41
  A 0.20 0.15 -55.9 0 0 480.49 227.24
  Q 480.45 227.20 480.42 227.19
  A 0.08 0.05 -66.8 0 0 480.35 227.24
  Q 479.16 229.51 474.89 238.83
  Q 470.78 247.79 447.19 301.36
  Q 444.12 308.34 440.37 314.94
  A 0.10 0.10 0.0 0 1 440.20 314.94
  L 440.00 314.59
  A 0.41 0.38 -50.2 0 1 439.98 314.25
  Q 444.14 304.08 445.58 300.89
  Q 461.78 264.92 477.82 228.89
  Q 482.34 218.75 485.48 207.89
  Q 486.14 210.33 486.00 212.78
  Z"
/>
<path fill="#fda271" d="
  M 486.13 217.46
  Q 485.86 218.54 486.11 219.71
  L 485.97 221.96
  L 431.68 342.19
  Q 435.26 331.05 440.48 320.52
  Q 441.60 318.25 442.83 314.19
  L 445.65 307.94
  Q 446.86 305.94 447.79 303.81
  Q 462.34 270.79 477.53 238.05
  Q 480.48 231.69 485.44 218.54
  C 486.16 216.62 485.87 214.79 486.00 212.78
  L 486.13 217.46
  Z"
/>
<path fill="#fc7168" d="
  M 486.13 217.46
  L 486.11 219.71
  Q 485.86 218.54 486.13 217.46
  Z"
/>
<path fill="#fd946e" d="
  M 485.97 221.96
  Q 485.75 227.32 483.76 232.33
  Q 482.39 235.79 480.86 239.19
  Q 466.81 270.51 452.61 301.75
  Q 451.85 301.57 451.59 302.60
  Q 451.46 303.14 451.86 303.52
  L 397.62 423.26
  Q 324.09 437.34 250.67 450.85
  Q 242.10 452.43 233.43 453.29
  C 219.61 454.67 208.35 451.99 199.42 440.38
  Q 194.58 434.08 191.51 429.12
  Q 158.55 375.74 124.32 322.00
  Q 114.95 307.28 113.48 305.13
  Q 103.59 290.60 91.28 277.97
  C 75.22 261.48 59.02 244.92 41.51 229.96
  L 47.15 227.83
  Q 67.94 249.03 89.09 269.91
  Q 104.57 285.20 114.81 300.62
  C 127.80 320.19 142.06 344.83 151.97 360.47
  Q 173.11 393.85 193.89 427.37
  C 201.36 439.42 208.69 449.75 223.66 450.29
  C 229.31 450.49 237.30 449.39 243.78 448.19
  Q 307.79 436.33 371.79 424.43
  Q 389.03 421.23 401.06 410.55
  L 401.98 408.23
  Q 405.77 401.35 408.93 394.15
  Q 420.34 368.18 431.68 342.19
  L 485.97 221.96
  Z"
/>
<path fill="#feaf75" d="
  M 56.68 225.83
  Q 74.88 244.23 93.10 262.61
  Q 107.35 276.98 117.10 291.37
  Q 117.81 292.41 127.79 308.28
  Q 138.71 325.66 149.31 343.24
  Q 154.92 352.55 159.82 360.26
  Q 180.17 392.27 201.98 427.65
  Q 203.45 430.04 206.13 433.17
  C 211.42 439.35 217.62 442.08 226.01 441.33
  Q 234.41 440.58 241.11 439.26
  Q 271.50 433.24 308.17 427.06
  Q 317.44 425.49 327.83 423.45
  Q 348.04 419.49 378.39 413.93
  C 389.85 411.84 399.00 406.92 404.66 396.43
  Q 410.20 386.16 414.99 375.50
  Q 428.80 344.80 442.83 314.19
  Q 441.60 318.25 440.48 320.52
  Q 435.26 331.05 431.68 342.19
  Q 430.37 344.38 429.32 346.72
  Q 417.80 372.38 405.79 397.82
  Q 404.53 400.49 401.98 408.23
  L 401.06 410.55
  Q 386.75 416.73 366.11 420.56
  Q 293.73 433.99 238.33 443.94
  Q 231.90 445.10 225.85 445.25
  Q 211.69 445.60 203.15 434.28
  Q 197.72 427.08 192.74 418.78
  Q 172.35 384.81 127.05 312.29
  Q 117.30 296.70 111.36 288.62
  Q 102.45 276.51 90.06 264.19
  Q 71.22 245.43 52.43 226.51
  L 56.68 225.83
  Z"
/>
<path fill="#fda271" d="
  M 52.43 226.51
  Q 71.22 245.43 90.06 264.19
  Q 102.45 276.51 111.36 288.62
  Q 117.30 296.70 127.05 312.29
  Q 172.35 384.81 192.74 418.78
  Q 197.72 427.08 203.15 434.28
  Q 211.69 445.60 225.85 445.25
  Q 231.90 445.10 238.33 443.94
  Q 293.73 433.99 366.11 420.56
  Q 386.75 416.73 401.06 410.55
  Q 389.03 421.23 371.79 424.43
  Q 307.79 436.33 243.78 448.19
  C 237.30 449.39 229.31 450.49 223.66 450.29
  C 208.69 449.75 201.36 439.42 193.89 427.37
  Q 173.11 393.85 151.97 360.47
  C 142.06 344.83 127.80 320.19 114.81 300.62
  Q 104.57 285.20 89.09 269.91
  Q 67.94 249.03 47.15 227.83
  L 52.43 226.51
  Z"
/>
<path fill="#fd886b" d="
  M 41.51 229.96
  C 59.02 244.92 75.22 261.48 91.28 277.97
  Q 103.59 290.60 113.48 305.13
  Q 114.95 307.28 124.32 322.00
  Q 158.55 375.74 191.51 429.12
  Q 194.58 434.08 199.42 440.38
  C 208.35 451.99 219.61 454.67 233.43 453.29
  Q 242.10 452.43 250.67 450.85
  Q 324.09 437.34 397.62 423.26
  L 396.25 425.98
  Q 376.25 430.48 369.76 431.70
  Q 266.48 451.12 253.01 453.74
  Q 237.79 456.70 229.14 457.22
  C 218.65 457.85 209.50 456.09 201.87 448.62
  Q 196.61 443.46 191.43 435.35
  Q 158.00 382.95 119.77 320.87
  Q 106.77 299.76 91.86 284.15
  Q 70.26 261.53 38.71 231.43
  L 41.51 229.96
  Z"
/>
<path fill="#fc7168" d="
  M 38.71 231.43
  Q 70.26 261.53 91.86 284.15
  Q 106.77 299.76 119.77 320.87
  Q 158.00 382.95 191.43 435.35
  Q 196.61 443.46 201.87 448.62
  C 209.50 456.09 218.65 457.85 229.14 457.22
  Q 237.79 456.70 253.01 453.74
  Q 266.48 451.12 369.76 431.70
  Q 376.25 430.48 396.25 425.98
  Q 394.19 431.86 390.74 436.70
  Q 373.84 440.13 365.75 441.62
  Q 313.54 451.22 251.54 462.04
  Q 237.44 464.50 228.40 465.27
  C 215.30 466.40 204.50 464.74 195.18 454.69
  C 191.50 450.71 187.28 444.52 184.06 439.25
  Q 146.62 377.89 112.02 323.65
  C 103.76 310.70 95.87 300.13 85.99 290.01
  Q 78.59 282.42 48.99 252.58
  Q 43.23 246.78 31.18 236.48
  L 38.71 231.43
  Z"
/>
<path fill="#fd6163" d="
  M 31.18 236.48
  Q 43.23 246.78 48.99 252.58
  Q 78.59 282.42 85.99 290.01
  C 95.87 300.13 103.76 310.70 112.02 323.65
  Q 146.62 377.89 184.06 439.25
  C 187.28 444.52 191.50 450.71 195.18 454.69
  C 204.50 464.74 215.30 466.40 228.40 465.27
  Q 237.44 464.50 251.54 462.04
  Q 313.54 451.22 365.75 441.62
  Q 373.84 440.13 390.74 436.70
  L 389.30 438.96
  Q 346.95 446.24 304.72 454.16
  C 281.87 458.44 260.60 461.98 231.99 467.13
  Q 227.73 467.90 219.58 468.36
  Q 204.67 469.20 194.77 458.54
  Q 190.08 453.50 186.11 447.08
  Q 164.62 412.37 142.33 380.27
  C 130.64 363.44 119.35 344.81 109.05 328.74
  Q 96.75 309.54 82.78 294.97
  Q 58.75 269.90 27.42 239.93
  L 31.18 236.48
  Z"
/>
<path fill="#f85b6a" d="
  M 27.42 239.93
  Q 58.75 269.90 82.78 294.97
  Q 96.75 309.54 109.05 328.74
  C 119.35 344.81 130.64 363.44 142.33 380.27
  Q 164.62 412.37 186.11 447.08
  Q 190.08 453.50 194.77 458.54
  Q 204.67 469.20 219.58 468.36
  Q 227.73 467.90 231.99 467.13
  C 260.60 461.98 281.87 458.44 304.72 454.16
  Q 346.95 446.24 389.30 438.96
  L 386.78 441.85
  Q 324.81 452.74 263.01 464.53
  Q 245.30 467.91 227.55 471.03
  C 212.84 473.62 199.24 473.83 188.46 461.84
  Q 183.17 455.95 176.77 445.95
  Q 138.50 386.18 100.71 328.36
  Q 89.17 310.70 73.36 294.59
  C 56.85 277.76 40.53 260.76 23.93 244.00
  Q 25.41 241.56 27.42 239.93
  Z"
/>
<path fill="#f1567b" d="
  M 23.93 244.00
  C 40.53 260.76 56.85 277.76 73.36 294.59
  Q 89.17 310.70 100.71 328.36
  Q 138.50 386.18 176.77 445.95
  Q 183.17 455.95 188.46 461.84
  C 199.24 473.83 212.84 473.62 227.55 471.03
  Q 245.30 467.91 263.01 464.53
  Q 324.81 452.74 386.78 441.85
  L 379.62 448.50
  Q 356.77 451.14 339.07 454.46
  Q 289.52 463.75 228.86 475.10
  Q 221.39 476.50 212.93 477.41
  C 200.88 478.69 190.81 476.04 182.85 466.64
  Q 178.28 461.24 175.41 456.75
  Q 133.66 391.40 93.51 330.78
  Q 82.26 313.78 64.43 295.57
  Q 42.17 272.82 19.77 250.00
  L 23.93 244.00
  Z"
/>
<path fill="#e74f91" d="
  M 379.62 448.50
  Q 370.14 455.35 358.48 457.21
  Q 340.57 460.07 322.71 463.26
  Q 305.22 466.37 287.73 469.46
  Q 237.08 478.42 186.50 487.36
  Q 175.94 475.55 164.59 458.14
  Q 133.10 409.88 87.28 339.96
  Q 75.33 321.73 59.98 306.27
  Q 41.34 287.51 28.11 273.88
  Q 21.68 267.26 15.38 260.15
  L 19.77 250.00
  Q 42.17 272.82 64.43 295.57
  Q 82.26 313.78 93.51 330.78
  Q 133.66 391.40 175.41 456.75
  Q 178.28 461.24 182.85 466.64
  C 190.81 476.04 200.88 478.69 212.93 477.41
  Q 221.39 476.50 228.86 475.10
  Q 289.52 463.75 339.07 454.46
  Q 356.77 451.14 379.62 448.50
  Z"
/>
<path fill="#df4ca1" d="
  M 15.38 260.15
  Q 21.68 267.26 28.11 273.88
  Q 41.34 287.51 59.98 306.27
  Q 75.33 321.73 87.28 339.96
  Q 133.10 409.88 164.59 458.14
  Q 175.94 475.55 186.50 487.36
  L 173.85 489.47
  Q 150.20 454.02 127.14 418.30
  Q 113.16 396.65 102.92 382.13
  Q 82.69 353.44 69.59 334.10
  Q 58.88 318.27 41.09 300.68
  Q 25.02 284.80 13.82 274.83
  Q 13.43 267.29 15.38 260.15
  Z"
/>
<path fill="#d24bb4" d="
  M 173.85 489.47
  Q 164.95 490.74 156.35 489.10
  C 141.75 463.61 123.84 437.18 108.83 415.11
  Q 105.94 410.87 100.12 399.72
  Q 95.85 391.56 91.24 384.06
  C 83.35 371.22 73.75 356.39 64.71 342.30
  C 56.50 329.52 48.33 318.75 38.69 308.82
  Q 28.15 297.97 14.92 285.77
  Q 13.57 280.39 13.82 274.83
  Q 25.02 284.80 41.09 300.68
  Q 58.88 318.27 69.59 334.10
  Q 82.69 353.44 102.92 382.13
  Q 113.16 396.65 127.14 418.30
  Q 150.20 454.02 173.85 489.47
  Z"
/>
<path fill="#f85b6a" d="
  M 269.40 276.56
  Q 272.07 280.17 273.87 284.08
  Q 282.50 302.78 293.40 320.56
  A 28.97 28.84 -0.8 0 1 284.40 329.79
  L 258.68 278.35
  A 28.95 28.92 -54.4 0 1 269.40 276.56
  Z"
/>
<path fill="#fd886b" d="
  M 274.94 277.24
  Q 276.81 283.14 280.34 289.44
  Q 284.17 296.29 290.24 309.26
  Q 291.58 312.12 295.15 317.22
  A 26.74 24.04 -71.4 0 1 293.40 320.56
  Q 282.50 302.78 273.87 284.08
  Q 272.07 280.17 269.40 276.56
  A 29.03 28.31 -37.3 0 1 274.94 277.24
  Z"
/>
<path fill="#fda271" d="
  M 295.15 317.22
  Q 291.58 312.12 290.24 309.26
  Q 284.17 296.29 280.34 289.44
  Q 276.81 283.14 274.94 277.24
  A 28.87 28.86 77.1 0 1 291.42 287.58
  A 28.95 28.89 -65.9 0 1 297.58 303.74
  A 28.90 28.84 55.3 0 1 295.15 317.22
  Z"
/>
<path fill="#e74f91" d="
  M 258.68 278.35
  L 284.40 329.79
  A 29.35 28.45 16.0 0 1 280.27 332.00
  L 253.86 280.65
  A 29.38 28.84 19.0 0 1 258.68 278.35
  Z"
/>
<path fill="#d24bb4" d="
  M 253.86 280.65
  L 280.27 332.00
  A 28.91 28.88 35.5 0 1 266.32 334.32
  Q 264.67 328.00 262.16 323.16
  Q 256.76 312.76 252.83 304.37
  C 250.28 298.95 247.57 294.37 244.62 289.46
  A 28.91 28.86 1.3 0 1 253.86 280.65
  Z"
/>
<path fill="#be4dc9" d="
  M 156.35 489.10
  Q 148.55 487.62 143.27 484.22
  Q 142.04 483.43 141.29 483.05
  Q 139.72 482.25 139.32 481.93
  Q 132.36 476.50 131.71 475.78
  Q 126.60 470.11 122.62 463.37
  Q 119.91 458.78 119.39 458.00
  Q 117.09 454.59 115.68 452.32
  Q 60.69 363.73 24.43 305.12
  Q 22.80 302.49 21.81 301.00
  Q 17.12 293.96 14.92 285.77
  Q 28.15 297.97 38.69 308.82
  C 48.33 318.75 56.50 329.52 64.71 342.30
  C 73.75 356.39 83.35 371.22 91.24 384.06
  Q 95.85 391.56 100.12 399.72
  Q 105.94 410.87 108.83 415.11
  C 123.84 437.18 141.75 463.61 156.35 489.10
  Z"
/>
<path fill="#be4dc9" d="
  M 244.62 289.46
  C 247.57 294.37 250.28 298.95 252.83 304.37
  Q 256.76 312.76 262.16 323.16
  Q 264.67 328.00 266.32 334.32
  A 21.69 15.09 7.8 0 1 263.28 333.91
  C 257.97 325.26 253.19 314.88 246.10 300.63
  Q 244.09 296.60 242.95 292.31
  A 23.40 19.13 -54.6 0 1 244.62 289.46
  Z"
/>
<path fill="#747bd5" d="
  M 242.95 292.31
  Q 244.09 296.60 246.10 300.63
  C 253.19 314.88 257.97 325.26 263.28 333.91
  A 28.96 28.93 -27.2 0 1 256.62 331.78
  A 28.98 28.98 0.0 0 1 241.50 315.35
  A 15.37 8.51 73.6 0 1 240.84 313.28
  A 28.98 28.91 45.7 0 1 241.01 297.10
  A 0.96 0.17 -80.0 0 1 241.05 296.99
  A 28.80 28.18 -23.5 0 1 242.95 292.31
  Z"
/>
<path fill="#fd886b" d="
  M 452.61 301.75
  L 451.86 303.52
  Q 451.46 303.14 451.59 302.60
  Q 451.85 301.57 452.61 301.75
  Z"
/>
<path fill="#fdc370" d="
  M 405.35 393.48
  A 0.22 0.22 0.0 0 1 405.06 393.59
  L 404.87 393.51
  A 35.11 1.61 -65.8 0 1 417.79 360.82
  L 417.87 360.66
  A 35.11 1.61 -65.8 0 1 433.73 329.30
  L 433.92 329.38
  A 0.22 0.22 0.0 0 1 434.03 329.67
  L 405.35 393.48
  Z"
/>
<path fill="#fda271" d="
  M 431.68 342.19
  Q 420.34 368.18 408.93 394.15
  Q 405.77 401.35 401.98 408.23
  Q 404.53 400.49 405.79 397.82
  Q 417.80 372.38 429.32 346.72
  Q 430.37 344.38 431.68 342.19
  Z"
/>
<path fill="#fc7168" d="
  M 298.75 372.94
  Q 298.39 373.25 297.53 373.12
  Q 298.20 373.13 298.75 372.94
  Z"
/>
<path fill="#fc7168" d="
  M 293.04 373.79
  Q 293.13 374.20 292.05 374.03
  Q 292.41 373.76 293.04 373.79
  Z"
/>
<path fill="#fddb7d" d="
  M 111.15 500.00
  L 110.73 500.00
  Q 110.64 499.82 110.49 499.66
  Q 110.24 499.40 110.14 499.06
  Q 98.56 459.22 70.41 429.33
  Q 41.14 398.25 0.61 384.36
  Q 0.19 384.21 0.00 383.83
  L 0.00 383.45
  Q 42.52 397.93 72.62 430.89
  Q 99.90 460.76 111.15 500.00
  Z"
/>
<path fill="#fc7168" d="
  M 226.56 384.84
  Q 226.09 385.35 225.43 384.93
  Q 226.05 384.72 226.56 384.84
  Z"
/>
</svg>
