<?xml version="1.0" encoding="UTF-8" standalone="no"?>
<!DOCTYPE svg PUBLIC "-//W3C//DTD SVG 1.1//EN" "http://www.w3.org/Graphics/SVG/1.1/DTD/svg11.dtd">
<svg xmlns="http://www.w3.org/2000/svg" version="1.1" viewBox="0.00 0.00 70.00 62.00">
<g stroke-width="2.00" fill="none" stroke-linecap="butt">
<path stroke="#366a54" vector-effect="non-scaling-stroke" d="
  M 24.31 0.00
  Q 21.52 2.85 20.26 7.36
  A 0.99 0.97 32.0 0 0 20.48 8.27
  Q 20.93 8.78 20.24 9.20
  A 0.45 0.44 49.3 0 0 20.19 9.92
  Q 21.30 10.86 20.22 12.03
  A 0.64 0.64 0.0 0 0 20.35 13.00
  Q 20.37 13.02 20.40 13.03
  A 0.57 0.56 33.9 0 1 20.59 13.96
  L 20.36 14.15
  A 0.53 0.53 0.0 0 0 20.70 15.09
  L 21.01 15.09
  A 0.50 0.50 0.0 0 1 21.35 15.96
  Q 21.04 16.25 21.02 16.48
  A 0.51 0.51 0.0 0 0 21.40 17.03
  Q 21.90 17.16 21.87 18.56
  A 0.66 0.64 -10.1 0 0 22.76 19.17
  Q 22.95 19.09 23.47 19.27
  A 0.26 0.26 0.0 0 1 23.51 19.74
  Q 22.91 20.09 23.15 20.97
  A 0.84 0.83 -23.9 0 1 22.79 21.89
  Q 16.83 25.74 10.27 21.99
  A 1.01 1.00 -60.1 0 1 9.90 20.61
  Q 11.12 18.49 10.69 17.85
  A 0.37 0.36 74.8 0 1 11.01 17.28
  Q 11.21 17.29 11.58 16.95
  A 0.57 0.57 0.0 0 0 11.59 16.14
  Q 11.50 16.05 11.49 16.03
  A 0.48 0.48 0.0 0 1 11.80 15.33
  Q 12.73 15.13 12.70 14.27
  Q 12.70 13.96 12.56 12.88
  Q 12.35 11.15 12.49 7.68
  A 0.86 0.85 -70.8 0 0 12.14 6.95
  Q 12.02 6.86 11.79 6.79
  Q 11.58 6.72 11.60 6.41
  Q 11.62 6.16 11.74 6.00
  Q 11.96 5.73 11.84 5.43
  Q 11.64 4.93 11.06 4.91
  A 0.49 0.49 0.0 0 1 10.61 4.30
  Q 10.86 3.33 10.14 3.05
  A 0.78 0.76 16.8 0 1 9.66 2.17
  Q 9.87 1.23 9.89 1.12
  Q 10.01 0.30 8.75 0.13
  Q 7.26 -0.07 6.30 1.05
  C 0.68 7.66 1.04 16.49 7.81 22.00
  Q 14.05 27.08 23.26 23.53"
/>
<path stroke="#12242a" vector-effect="non-scaling-stroke" d="
  M 23.26 23.53
  Q 23.37 27.93 19.66 31.00"
/>
<path stroke="#2a5439" vector-effect="non-scaling-stroke" d="
  M 19.66 31.00
  L 0.00 30.96"
/>
<path stroke="#21433d" vector-effect="non-scaling-stroke" d="
  M 4.01 0.16
  C 0.82 -0.03 0.03 2.19 0.25 4.95
  A 0.20 0.20 0.0 0 0 0.63 5.01
  Q 1.44 2.95 4.20 0.73
  A 0.32 0.32 0.0 0 0 4.01 0.16"
/>
<path stroke="#366a54" vector-effect="non-scaling-stroke" d="
  M 25.52 0.00
  Q 27.12 0.95 28.45 3.05
  Q 33.29 10.71 28.29 19.16"
/>
<path stroke="#3d7e65" vector-effect="non-scaling-stroke" d="
  M 28.29 19.16
  L 23.26 23.53"
/>
<path stroke="#55ae74" vector-effect="non-scaling-stroke" d="
  M 9.00 15.07
  C 11.18 14.43 10.75 10.16 10.50 8.45
  Q 10.17 6.22 9.62 5.62
  Q 9.07 5.02 8.20 5.15"
/>
<path stroke="#356c55" vector-effect="non-scaling-stroke" d="
  M 8.20 5.15
  L 7.27 3.85
  A 0.90 0.89 42.2 0 0 5.77 3.92
  Q 2.65 9.29 4.37 15.01
  Q 5.05 17.25 6.39 18.36
  A 0.54 0.54 0.0 0 0 7.20 18.22
  L 9.00 15.07"
/>
<path stroke="#2a5639" vector-effect="non-scaling-stroke" d="
  M 8.20 5.15
  Q 9.58 9.77 9.00 15.07"
/>
<path stroke="#356c55" vector-effect="non-scaling-stroke" d="
  M 26.62 4.27
  Q 21.84 9.34 24.85 15.43
  Q 25.12 15.96 25.24 16.75
  Q 25.37 17.56 25.79 18.05
  A 0.88 0.87 40.1 0 0 27.20 17.93
  Q 31.52 10.71 27.42 4.34
  A 0.51 0.51 0.0 0 0 26.62 4.27"
/>
<path stroke="#2a5750" vector-effect="non-scaling-stroke" d="
  M 37.19 0.00
  L 36.89 17.63
  A 0.71 0.70 9.1 0 0 37.38 18.30
  Q 38.31 18.58 39.21 17.95"
/>
<path stroke="#12242a" vector-effect="non-scaling-stroke" d="
  M 39.21 17.95
  Q 49.54 20.41 51.95 30.90"
/>
<path stroke="#2a5750" vector-effect="non-scaling-stroke" d="
  M 51.95 30.90
  Q 51.26 31.36 51.70 32.82"
/>
<path stroke="#12242a" vector-effect="non-scaling-stroke" d="
  M 51.70 32.82
  Q 50.41 42.76 40.72 45.57
  A 2.83 2.79 41.4 0 1 39.46 45.64
  C 37.12 45.24 34.90 45.60 32.75 44.64
  Q 27.64 42.35 25.09 37.25
  A 3.73 3.62 -63.8 0 1 24.77 36.26
  Q 22.53 23.00 35.28 18.15
  A 0.32 0.31 -14.4 0 0 35.48 17.82
  Q 35.45 17.66 35.29 17.50
  Q 35.11 17.34 34.68 17.45
  Q 31.70 18.22 28.29 19.16"
/>
<path stroke="#224430" vector-effect="non-scaling-stroke" d="
  M 33.87 22.43
  C 26.29 25.97 25.35 35.57 31.93 40.55
  Q 36.67 44.14 42.00 41.84"
/>
<path stroke="#21433d" vector-effect="non-scaling-stroke" d="
  M 42.00 41.84
  Q 47.91 38.94 48.63 32.75
  A 1.43 1.43 0.0 0 0 47.22 31.15
  Q 43.31 31.12 38.97 31.18
  A 1.72 1.51 88.7 0 0 37.49 32.95
  Q 37.53 34.02 40.17 33.97
  A 0.38 0.37 12.4 0 1 40.52 34.51
  Q 40.18 35.18 39.39 35.86"
/>
<path stroke="#224430" vector-effect="non-scaling-stroke" d="
  M 39.39 35.86
  Q 36.02 36.46 34.26 32.94
  A 1.71 1.69 -54.8 0 1 34.10 31.99
  Q 34.49 28.76 38.25 27.74"
/>
<path stroke="#22464c" vector-effect="non-scaling-stroke" d="
  M 38.25 27.74
  L 41.28 29.79
  A 1.89 1.87 47.1 0 0 43.28 29.87
  L 46.41 28.06
  A 1.23 1.22 55.7 0 0 46.75 26.23
  Q 41.27 19.39 33.87 22.43"
/>
<path stroke="#397b62" vector-effect="non-scaling-stroke" d="
  M 38.25 27.74
  Q 36.05 27.39 34.38 25.66
  A 0.51 0.50 -36.5 0 1 34.50 24.87
  Q 35.05 24.57 35.25 24.19
  A 0.61 0.61 0.0 0 0 34.96 23.34
  Q 34.27 23.03 33.87 22.43"
/>
<path stroke="#387854" vector-effect="non-scaling-stroke" d="
  M 39.39 35.86
  L 41.88 37.10
  A 0.54 0.53 -39.7 0 1 41.77 38.09
  Q 41.47 38.18 40.78 38.10
  A 0.43 0.43 0.0 0 0 40.38 38.78
  Q 40.45 38.89 41.97 39.52
  A 0.54 0.54 0.0 0 1 42.22 40.30
  Q 41.03 42.23 42.00 41.84"
/>
<path stroke="#2a5750" vector-effect="non-scaling-stroke" d="
  M 38.85 0.00
  L 39.03 17.16"
/>
<path stroke="#316b60" vector-effect="non-scaling-stroke" d="
  M 39.03 17.16
  Q 39.26 17.34 39.21 17.95"
/>
<path stroke="#366c67" vector-effect="non-scaling-stroke" d="
  M 50.51 0.00
  Q 48.89 0.79 47.94 2.43"
/>
<path stroke="#366e45" vector-effect="non-scaling-stroke" d="
  M 47.94 2.43
  Q 42.52 10.18 47.30 18.45"
/>
<path stroke="#12242a" vector-effect="non-scaling-stroke" d="
  M 47.30 18.45
  L 39.03 17.16"
/>
<path stroke="#366e68" vector-effect="non-scaling-stroke" d="
  M 51.61 0.00
  L 51.86 0.26
  A 0.41 0.41 0.0 0 1 51.79 0.90
  Q 51.38 1.17 51.33 1.50
  A 0.64 0.63 25.1 0 0 51.54 2.07
  Q 55.10 5.08 55.98 9.47
  A 0.70 0.68 -5.6 0 0 56.66 10.02
  L 58.07 10.02
  A 0.66 0.65 0.4 0 0 58.73 9.38
  L 58.86 0.00"
/>
<path stroke="#366e68" vector-effect="non-scaling-stroke" d="
  M 60.10 0.00
  L 60.15 9.40
  A 0.66 0.66 0.0 0 0 60.81 10.06
  L 61.98 10.06
  A 0.76 0.75 -85.0 0 0 62.72 9.43
  Q 63.43 5.15 67.37 2.01
  A 0.61 0.61 0.0 0 0 67.40 1.08
  Q 67.29 0.98 66.77 0.90
  A 0.29 0.29 0.0 0 1 66.65 0.37
  Q 67.04 0.10 67.72 0.00"
/>
<path stroke="#366c67" vector-effect="non-scaling-stroke" d="
  M 67.86 0.00
  C 69.49 0.26 70.35 1.42 69.72 2.93
  A 0.40 0.40 0.0 0 1 69.06 3.06
  Q 68.94 2.93 68.88 2.89
  A 0.65 0.64 -45.4 0 0 68.08 2.90
  Q 65.89 4.66 64.06 8.88
  A 0.77 0.77 0.0 0 0 64.72 9.96
  L 70.00 10.29"
/>
<path stroke="#366e68" vector-effect="non-scaling-stroke" d="
  M 70.00 11.13
  L 64.65 11.72
  A 0.51 0.50 -6.3 0 0 64.20 12.27
  Q 64.32 13.72 65.44 15.60
  Q 67.56 19.19 70.00 18.81"
/>
<path stroke="#366c67" vector-effect="non-scaling-stroke" d="
  M 70.00 19.90
  Q 69.44 21.33 67.49 22.29"
/>
<path stroke="#61cb93" vector-effect="non-scaling-stroke" d="
  M 67.49 22.29
  Q 66.65 21.84 66.93 21.24"
/>
<path stroke="#366e68" vector-effect="non-scaling-stroke" d="
  M 66.93 21.24
  Q 67.97 20.91 67.75 20.21
  A 0.07 0.07 0.0 0 0 67.72 20.18
  Q 63.56 16.62 62.82 12.46
  A 1.34 1.33 41.3 0 0 60.17 12.63
  L 60.06 15.04"
/>
<path stroke="#61cb93" vector-effect="non-scaling-stroke" d="
  M 60.06 15.04
  Q 59.70 15.18 59.41 15.13
  Q 59.12 15.08 59.03 14.68
  Q 58.92 14.24 58.80 13.77"
/>
<path stroke="#366e68" vector-effect="non-scaling-stroke" d="
  M 58.80 13.77
  L 58.72 12.65
  A 1.43 1.43 0.0 0 0 55.90 12.46
  L 55.63 13.76"
/>
<path stroke="#61cb93" vector-effect="non-scaling-stroke" d="
  M 55.63 13.76
  L 54.59 12.65"
/>
<path stroke="#366e68" vector-effect="non-scaling-stroke" d="
  M 54.59 12.65
  Q 54.77 12.35 54.53 11.67"
/>
<path stroke="#61cb93" vector-effect="non-scaling-stroke" d="
  M 54.53 11.67
  L 52.12 10.93
  A 0.32 0.31 39.6 0 1 52.06 10.35
  Q 52.40 10.18 53.05 10.14"
/>
<path stroke="#366e68" vector-effect="non-scaling-stroke" d="
  M 53.05 10.14
  Q 53.81 10.22 54.23 9.97
  Q 54.69 9.69 54.48 8.92
  Q 53.25 4.47 49.56 2.47"
/>
<path stroke="#61cb93" vector-effect="non-scaling-stroke" d="
  M 49.56 2.47
  Q 48.77 3.14 47.94 2.43"
/>
<path stroke="#367045" vector-effect="non-scaling-stroke" d="
  M 49.56 2.47
  Q 47.21 5.96 46.55 9.24
  A 0.66 0.66 0.0 0 0 47.18 10.03
  L 53.05 10.14"
/>
<path stroke="#367045" vector-effect="non-scaling-stroke" d="
  M 54.53 11.67
  L 47.16 11.63
  A 0.52 0.52 0.0 0 0 46.65 12.22
  Q 47.19 16.09 49.48 18.80
  A 0.65 0.65 0.0 0 0 50.37 18.89
  Q 53.50 16.43 54.59 12.65"
/>
<path stroke="#367045" vector-effect="non-scaling-stroke" d="
  M 55.63 13.76
  Q 54.35 17.23 51.41 19.91
  A 0.57 0.56 -47.1 0 0 51.44 20.77
  Q 54.32 23.05 57.97 23.75
  A 0.54 0.53 5.9 0 0 58.61 23.24
  L 58.80 13.77"
/>
<path stroke="#367045" vector-effect="non-scaling-stroke" d="
  M 60.06 15.04
  L 60.18 23.34
  A 0.52 0.51 -6.9 0 0 60.81 23.83
  Q 64.00 23.11 66.93 21.24"
/>
<path stroke="#366e45" vector-effect="non-scaling-stroke" d="
  M 67.49 22.29
  Q 60.95 27.09 53.26 23.66"
/>
<path stroke="#3d8355" vector-effect="non-scaling-stroke" d="
  M 53.26 23.66
  Q 49.67 21.74 47.30 18.45"
/>
<path stroke="#12242a" vector-effect="non-scaling-stroke" d="
  M 53.26 23.66
  L 52.80 30.89"
/>
<path stroke="#316b60" vector-effect="non-scaling-stroke" d="
  M 52.80 30.89
  Q 52.17 30.74 51.95 30.90"
/>
<path stroke="#316b60" vector-effect="non-scaling-stroke" d="
  M 51.70 32.82
  Q 52.56 33.25 54.46 32.92"
/>
<path stroke="#12242a" vector-effect="non-scaling-stroke" d="
  M 54.46 32.92
  C 52.45 36.78 50.26 41.74 46.58 44.12
  Q 43.58 46.05 38.96 47.79"
/>
<path stroke="#316849" vector-effect="non-scaling-stroke" d="
  M 38.96 47.79
  Q 39.12 46.76 38.92 46.25
  A 0.95 0.94 41.1 0 0 37.12 46.37
  Q 36.96 47.02 37.12 48.23"
/>
<path stroke="#12242a" vector-effect="non-scaling-stroke" d="
  M 37.12 48.23
  L 30.76 45.62
  A 0.77 0.76 -85.6 0 0 29.73 46.51
  Q 30.45 49.41 28.08 52.06"
/>
<path stroke="#3d8178" vector-effect="non-scaling-stroke" d="
  M 28.08 52.06
  Q 28.50 47.44 27.87 44.37
  Q 27.51 42.58 25.36 41.71"
/>
<path stroke="#12242a" vector-effect="non-scaling-stroke" d="
  M 25.36 41.71
  L 22.97 35.30
  A 3.09 3.09 0.0 0 0 20.12 33.29
  L 1.93 33.07"
/>
<path stroke="#316849" vector-effect="non-scaling-stroke" d="
  M 1.93 33.07
  L 23.69 33.07
  A 0.65 0.65 0.0 0 0 24.34 32.42
  L 24.34 31.53
  A 0.65 0.64 89.1 0 0 23.68 30.88
  L 19.66 31.00"
/>
<path stroke="#2a5750" vector-effect="non-scaling-stroke" d="
  M 70.00 30.96
  L 52.80 30.89"
/>
<path stroke="#234f52" vector-effect="non-scaling-stroke" d="
  M 35.90 25.25
  Q 35.86 26.01 37.66 25.90
  Q 38.02 25.88 38.84 25.94
  Q 39.76 26.02 39.79 25.46
  Q 39.82 24.89 38.89 24.87
  Q 38.07 24.85 37.71 24.79
  Q 35.94 24.50 35.90 25.25"
/>
<path stroke="#2a5750" vector-effect="non-scaling-stroke" d="
  M 70.00 32.97
  L 54.46 32.92"
/>
<path stroke="#2a5439" vector-effect="non-scaling-stroke" d="
  M 1.93 33.07
  L 0.00 32.91"
/>
<path stroke="#366e45" vector-effect="non-scaling-stroke" d="
  M 52.99 62.00
  C 57.99 61.50 63.88 63.27 66.41 57.29
  Q 66.45 57.21 68.27 53.21
  A 1.81 1.69 -16.5 0 1 68.47 52.87
  Q 70.27 50.49 69.80 48.01
  A 0.29 0.28 49.7 0 0 69.25 47.96
  Q 68.45 50.22 64.93 57.40
  Q 63.37 60.59 60.16 60.60
  Q 55.75 60.61 50.76 60.72
  A 0.78 0.78 0.0 0 0 50.01 61.63
  Q 50.05 61.85 51.14 62.00"
/>
<path stroke="#2a5439" vector-effect="non-scaling-stroke" d="
  M 38.97 62.00
  L 38.96 47.79"
/>
<path stroke="#366a54" vector-effect="non-scaling-stroke" d="
  M 48.14 51.70
  Q 48.11 53.93 48.31 54.51
  C 49.29 57.31 53.82 58.00 56.54 58.03
  C 59.25 58.06 63.80 57.47 64.84 54.69
  Q 65.05 54.11 65.08 51.89
  Q 65.10 49.67 64.90 49.09
  C 63.93 46.28 59.39 45.59 56.67 45.56
  C 53.96 45.53 49.41 46.12 48.37 48.91
  Q 48.16 49.48 48.14 51.70"
/>
<path stroke="#366a54" vector-effect="non-scaling-stroke" d="
  M 69.54 53.37
  L 65.93 61.46
  A 0.20 0.20 0.0 0 0 66.03 61.73
  L 66.30 61.85
  A 0.61 0.60 25.7 0 0 67.09 61.58
  C 68.57 58.71 70.18 57.11 69.61 53.38
  A 0.04 0.04 0.0 0 0 69.54 53.37"
/>
<path stroke="#366c67" vector-effect="non-scaling-stroke" d="
  M 25.36 41.71
  Q 16.11 40.29 9.95 46.19"
/>
<path stroke="#3f7a48" vector-effect="non-scaling-stroke" d="
  M 9.95 46.19
  Q 3.64 52.51 4.48 61.18
  A 0.74 0.74 0.0 0 0 5.22 61.85
  L 5.73 61.85
  A 0.54 0.54 0.0 0 0 6.20 61.04
  L 5.53 59.88
  A 0.40 0.40 0.0 0 1 6.10 59.35
  Q 7.35 60.17 7.95 62.00"
/>
<path stroke="#21433d" vector-effect="non-scaling-stroke" d="
  M 0.41 59.40
  Q 0.25 60.20 0.69 61.30
  Q 0.77 61.47 0.92 61.55
  Q 1.21 61.69 1.52 61.62
  A 0.29 0.28 61.8 0 0 1.66 61.14
  Q 1.30 60.78 0.87 59.38
  A 0.24 0.24 0.0 0 0 0.41 59.40"
/>
<path stroke="#366c67" vector-effect="non-scaling-stroke" d="
  M 28.08 52.06
  Q 26.72 57.97 21.82 62.04
  A 0.48 0.48 0.0 0 1 21.18 62.01
  L 20.77 61.60
  A 0.24 0.24 0.0 0 1 20.81 61.23
  Q 24.71 58.67 26.42 53.59
  A 1.00 1.00 0.0 0 0 26.18 52.56
  L 22.79 49.17
  A 0.36 0.30 -12.4 0 0 22.61 49.08
  Q 21.93 48.99 21.69 49.37
  A 0.52 0.51 -55.5 0 0 21.81 50.05
  Q 22.23 50.38 22.00 50.75
  C 21.64 51.33 20.16 51.51 19.38 52.03
  A 1.00 0.98 -12.2 0 0 18.94 52.70
  Q 18.59 54.95 16.14 55.51"
/>
<path stroke="#6ad796" vector-effect="non-scaling-stroke" d="
  M 16.14 55.51
  Q 16.05 54.69 15.42 54.16
  A 0.81 0.34 -79.1 0 1 15.28 53.50
  Q 15.31 53.16 14.95 52.59"
/>
<path stroke="#366c67" vector-effect="non-scaling-stroke" d="
  M 14.95 52.59
  Q 15.91 50.86 17.22 51.03
  A 0.56 0.55 10.6 0 0 17.83 50.62
  Q 17.85 50.56 17.86 50.53
  A 1.93 1.92 6.0 0 1 18.74 49.82
  L 19.47 49.54
  A 0.12 0.11 30.7 0 0 19.41 49.32
  Q 19.28 49.33 19.24 49.33
  A 0.61 0.61 0.0 0 1 18.62 48.71
  Q 18.62 48.33 19.10 47.98
  A 0.40 0.39 39.3 0 1 19.53 47.94
  L 20.21 48.28
  A 0.60 0.60 0.0 0 0 20.90 47.32
  L 17.22 43.64
  A 0.77 0.75 -32.4 0 0 16.42 43.47
  Q 13.13 44.74 10.55 47.03"
/>
<path stroke="#6ad796" vector-effect="non-scaling-stroke" d="
  M 10.55 47.03
  Q 10.07 46.82 9.95 46.19"
/>
<path stroke="#38756d" vector-effect="non-scaling-stroke" d="
  M 18.8152 42.7070
  A 2.75 0.59 -136.5 0 0 20.4039 45.0280
  A 2.75 0.59 -136.5 0 0 22.8048 46.4930
  A 2.75 0.59 -136.5 0 0 21.2161 44.1720
  A 2.75 0.59 -136.5 0 0 18.8152 42.7070"
/>
<path stroke="#38756d" vector-effect="non-scaling-stroke" d="
  M 24.64 43.05
  Q 23.87 42.65 22.35 42.83
  A 0.38 0.38 0.0 0 0 22.05 43.39
  Q 22.64 44.52 23.47 44.67
  A 1.15 0.85 -17.9 0 0 24.64 43.05"
/>
<path stroke="#38756d" vector-effect="non-scaling-stroke" d="
  M 26.94 47.81
  L 26.94 44.68
  A 0.34 0.34 0.0 0 0 26.36 44.43
  L 25.27 45.52
  A 0.67 0.65 -36.0 0 0 25.14 46.28
  Q 25.53 47.04 26.54 47.98
  A 0.24 0.24 0.0 0 0 26.94 47.81"
/>
<path stroke="#38756d" vector-effect="non-scaling-stroke" d="
  M 23.1113 46.9468
  A 2.95 0.58 -134.8 0 0 24.7784 49.4487
  A 2.95 0.58 -134.8 0 0 27.2687 51.1332
  A 2.95 0.58 -134.8 0 0 25.6016 48.6313
  A 2.95 0.58 -134.8 0 0 23.1113 46.9468"
/>
<path stroke="#3f7a48" vector-effect="non-scaling-stroke" d="
  M 14.95 52.59
  Q 13.03 52.99 12.35 54.99
  A 1.35 1.34 81.9 0 1 11.86 55.65
  L 11.11 56.18
  A 0.63 0.63 0.0 0 0 10.93 57.01
  Q 11.38 57.81 10.81 58.50
  A 0.38 0.37 42.1 0 1 10.25 58.52
  L 7.00 55.28
  A 1.71 1.70 32.4 0 1 6.60 53.52
  Q 7.93 49.75 10.55 47.03"
/>
<path stroke="#356c55" vector-effect="non-scaling-stroke" d="
  M 63.5100 49.4680
  A 6.90 2.54 -0.1 0 0 56.6056 46.9400
  A 6.90 2.54 -0.1 0 0 49.7100 49.4920
  A 6.90 2.54 -0.1 0 0 56.6144 52.0200
  A 6.90 2.54 -0.1 0 0 63.5100 49.4680"
/>
<path stroke="#37735a" vector-effect="non-scaling-stroke" d="
  M 56.49 56.81
  C 59.17 56.84 63.84 56.39 63.66 52.58
  A 0.49 0.48 77.4 0 0 63.00 52.15
  Q 59.80 53.46 56.53 53.42
  Q 53.25 53.39 50.08 52.03
  A 0.49 0.48 -76.2 0 0 49.41 52.44
  C 49.15 56.24 53.82 56.79 56.49 56.81"
/>
<path stroke="#2a5439" vector-effect="non-scaling-stroke" d="
  M 37.12 48.23
  L 37.20 62.00"
/>
<path stroke="#3f7a48" vector-effect="non-scaling-stroke" d="
  M 9.86 62.00
  L 10.20 61.53
  A 0.65 0.65 0.0 0 0 10.24 60.81
  L 10.12 60.59
  A 0.13 0.13 0.0 0 1 10.33 60.43
  Q 11.40 61.52 12.73 61.98
  A 0.05 0.05 0.0 0 0 12.78 61.97
  L 13.35 61.47
  A 0.24 0.24 0.0 0 0 13.28 61.08
  Q 12.45 60.74 11.78 60.06
  A 0.62 0.62 0.0 0 1 11.77 59.21
  Q 12.35 58.59 12.89 59.03
  A 0.63 0.63 0.0 0 0 13.79 58.94
  Q 14.69 57.82 14.57 57.32
  A 0.92 0.77 -27.9 0 1 14.91 56.48
  L 16.14 55.51"
/>
<path stroke="#3f7c48" vector-effect="non-scaling-stroke" d="
  M 7.34 58.74
  Q 8.32 59.79 9.05 60.31
  A 0.39 0.39 0.0 0 0 9.57 59.75
  Q 9.07 59.15 8.07 58.07
  Q 7.07 56.99 6.50 56.45
  A 0.39 0.39 0.0 0 0 5.90 56.93
  Q 6.37 57.69 7.34 58.74"
/>
<path stroke="#56ae5e" vector-effect="non-scaling-stroke" d="
  M 13.57 57.55
  A 0.03 0.03 0.0 0 0 13.54 57.52
  A 0.03 0.03 0.0 0 0 13.51 57.55
  A 0.03 0.03 0.0 0 0 13.54 57.58
  A 0.03 0.03 0.0 0 0 13.57 57.55"
/>
</g>
<path fill="#0b0f19" d="
  M 24.31 0.00
  Q 21.52 2.85 20.26 7.36
  A 0.99 0.97 32.0 0 0 20.48 8.27
  Q 20.93 8.78 20.24 9.20
  A 0.45 0.44 49.3 0 0 20.19 9.92
  Q 21.30 10.86 20.22 12.03
  A 0.64 0.64 0.0 0 0 20.35 13.00
  Q 20.37 13.02 20.40 13.03
  A 0.57 0.56 33.9 0 1 20.59 13.96
  L 20.36 14.15
  A 0.53 0.53 0.0 0 0 20.70 15.09
  L 21.01 15.09
  A 0.50 0.50 0.0 0 1 21.35 15.96
  Q 21.04 16.25 21.02 16.48
  A 0.51 0.51 0.0 0 0 21.40 17.03
  Q 21.90 17.16 21.87 18.56
  A 0.66 0.64 -10.1 0 0 22.76 19.17
  Q 22.95 19.09 23.47 19.27
  A 0.26 0.26 0.0 0 1 23.51 19.74
  Q 22.91 20.09 23.15 20.97
  A 0.84 0.83 -23.9 0 1 22.79 21.89
  Q 16.83 25.74 10.27 21.99
  A 1.01 1.00 -60.1 0 1 9.90 20.61
  Q 11.12 18.49 10.69 17.85
  A 0.37 0.36 74.8 0 1 11.01 17.28
  Q 11.21 17.29 11.58 16.95
  A 0.57 0.57 0.0 0 0 11.59 16.14
  Q 11.50 16.05 11.49 16.03
  A 0.48 0.48 0.0 0 1 11.80 15.33
  Q 12.73 15.13 12.70 14.27
  Q 12.70 13.96 12.56 12.88
  Q 12.35 11.15 12.49 7.68
  A 0.86 0.85 -70.8 0 0 12.14 6.95
  Q 12.02 6.86 11.79 6.79
  Q 11.58 6.72 11.60 6.41
  Q 11.62 6.16 11.74 6.00
  Q 11.96 5.73 11.84 5.43
  Q 11.64 4.93 11.06 4.91
  A 0.49 0.49 0.0 0 1 10.61 4.30
  Q 10.86 3.33 10.14 3.05
  A 0.78 0.76 16.8 0 1 9.66 2.17
  Q 9.87 1.23 9.89 1.12
  Q 10.01 0.30 8.75 0.13
  Q 7.26 -0.07 6.30 1.05
  C 0.68 7.66 1.04 16.49 7.81 22.00
  Q 14.05 27.08 23.26 23.53
  Q 23.37 27.93 19.66 31.00
  L 0.00 30.96
  L 0.00 0.00
  L 24.31 0.00
  Z
  M 4.01 0.16
  C 0.82 -0.03 0.03 2.19 0.25 4.95
  A 0.20 0.20 0.0 0 0 0.63 5.01
  Q 1.44 2.95 4.20 0.73
  A 0.32 0.32 0.0 0 0 4.01 0.16
  Z"
/>
<path fill="#60c48f" d="
  M 25.52 0.00
  Q 27.12 0.95 28.45 3.05
  Q 33.29 10.71 28.29 19.16
  L 23.26 23.53
  Q 14.05 27.08 7.81 22.00
  C 1.04 16.49 0.68 7.66 6.30 1.05
  Q 7.26 -0.07 8.75 0.13
  Q 10.01 0.30 9.89 1.12
  Q 9.87 1.23 9.66 2.17
  A 0.78 0.76 16.8 0 0 10.14 3.05
  Q 10.86 3.33 10.61 4.30
  A 0.49 0.49 0.0 0 0 11.06 4.91
  Q 11.64 4.93 11.84 5.43
  Q 11.96 5.73 11.74 6.00
  Q 11.62 6.16 11.60 6.41
  Q 11.58 6.72 11.79 6.79
  Q 12.02 6.86 12.14 6.95
  A 0.86 0.85 -70.8 0 1 12.49 7.68
  Q 12.35 11.15 12.56 12.88
  Q 12.70 13.96 12.70 14.27
  Q 12.73 15.13 11.80 15.33
  A 0.48 0.48 0.0 0 0 11.49 16.03
  Q 11.50 16.05 11.59 16.14
  A 0.57 0.57 0.0 0 1 11.58 16.95
  Q 11.21 17.29 11.01 17.28
  A 0.37 0.36 74.8 0 0 10.69 17.85
  Q 11.12 18.49 9.90 20.61
  A 1.01 1.00 -60.1 0 0 10.27 21.99
  Q 16.83 25.74 22.79 21.89
  A 0.84 0.83 -23.9 0 0 23.15 20.97
  Q 22.91 20.09 23.51 19.74
  A 0.26 0.26 0.0 0 0 23.47 19.27
  Q 22.95 19.09 22.76 19.17
  A 0.66 0.64 -10.1 0 1 21.87 18.56
  Q 21.90 17.16 21.40 17.03
  A 0.51 0.51 0.0 0 1 21.02 16.48
  Q 21.04 16.25 21.35 15.96
  A 0.50 0.50 0.0 0 0 21.01 15.09
  L 20.70 15.09
  A 0.53 0.53 0.0 0 1 20.36 14.15
  L 20.59 13.96
  A 0.57 0.56 33.9 0 0 20.40 13.03
  Q 20.37 13.02 20.35 13.00
  A 0.64 0.64 0.0 0 1 20.22 12.03
  Q 21.30 10.86 20.19 9.92
  A 0.45 0.44 49.3 0 1 20.24 9.20
  Q 20.93 8.78 20.48 8.27
  A 0.99 0.97 32.0 0 1 20.26 7.36
  Q 21.52 2.85 24.31 0.00
  L 25.52 0.00
  Z
  M 9.00 15.07
  C 11.18 14.43 10.75 10.16 10.50 8.45
  Q 10.17 6.22 9.62 5.62
  Q 9.07 5.02 8.20 5.15
  L 7.27 3.85
  A 0.90 0.89 42.2 0 0 5.77 3.92
  Q 2.65 9.29 4.37 15.01
  Q 5.05 17.25 6.39 18.36
  A 0.54 0.54 0.0 0 0 7.20 18.22
  L 9.00 15.07
  Z
  M 26.62 4.27
  Q 21.84 9.34 24.85 15.43
  Q 25.12 15.96 25.24 16.75
  Q 25.37 17.56 25.79 18.05
  A 0.88 0.87 40.1 0 0 27.20 17.93
  Q 31.52 10.71 27.42 4.34
  A 0.51 0.51 0.0 0 0 26.62 4.27
  Z"
/>
<path fill="#0b0f19" d="
  M 37.19 0.00
  L 36.89 17.63
  A 0.71 0.70 9.1 0 0 37.38 18.30
  Q 38.31 18.58 39.21 17.95
  Q 49.54 20.41 51.95 30.90
  Q 51.26 31.36 51.70 32.82
  Q 50.41 42.76 40.72 45.57
  A 2.83 2.79 41.4 0 1 39.46 45.64
  C 37.12 45.24 34.90 45.60 32.75 44.64
  Q 27.64 42.35 25.09 37.25
  A 3.73 3.62 -63.8 0 1 24.77 36.26
  Q 22.53 23.00 35.28 18.15
  A 0.32 0.31 -14.4 0 0 35.48 17.82
  Q 35.45 17.66 35.29 17.50
  Q 35.11 17.34 34.68 17.45
  Q 31.70 18.22 28.29 19.16
  Q 33.29 10.71 28.45 3.05
  Q 27.12 0.95 25.52 0.00
  L 37.19 0.00
  Z
  M 33.87 22.43
  C 26.29 25.97 25.35 35.57 31.93 40.55
  Q 36.67 44.14 42.00 41.84
  Q 47.91 38.94 48.63 32.75
  A 1.43 1.43 0.0 0 0 47.22 31.15
  Q 43.31 31.12 38.97 31.18
  A 1.72 1.51 88.7 0 0 37.49 32.95
  Q 37.53 34.02 40.17 33.97
  A 0.38 0.37 12.4 0 1 40.52 34.51
  Q 40.18 35.18 39.39 35.86
  Q 36.02 36.46 34.26 32.94
  A 1.71 1.69 -54.8 0 1 34.10 31.99
  Q 34.49 28.76 38.25 27.74
  L 41.28 29.79
  A 1.89 1.87 47.1 0 0 43.28 29.87
  L 46.41 28.06
  A 1.23 1.22 55.7 0 0 46.75 26.23
  Q 41.27 19.39 33.87 22.43
  Z"
/>
<path fill="#489e86" d="
  M 38.85 0.00
  L 39.03 17.16
  Q 39.26 17.34 39.21 17.95
  Q 38.31 18.58 37.38 18.30
  A 0.71 0.70 9.1 0 1 36.89 17.63
  L 37.19 0.00
  L 38.85 0.00
  Z"
/>
<path fill="#0b0f19" d="
  M 50.51 0.00
  Q 48.89 0.79 47.94 2.43
  Q 42.52 10.18 47.30 18.45
  L 39.03 17.16
  L 38.85 0.00
  L 50.51 0.00
  Z"
/>
<path fill="#61c9b5" d="
  M 51.61 0.00
  L 51.86 0.26
  A 0.41 0.41 0.0 0 1 51.79 0.90
  Q 51.38 1.17 51.33 1.50
  A 0.64 0.63 25.1 0 0 51.54 2.07
  Q 55.10 5.08 55.98 9.47
  A 0.70 0.68 -5.6 0 0 56.66 10.02
  L 58.07 10.02
  A 0.66 0.65 0.4 0 0 58.73 9.38
  L 58.86 0.00
  L 60.10 0.00
  L 60.15 9.40
  A 0.66 0.66 0.0 0 0 60.81 10.06
  L 61.98 10.06
  A 0.76 0.75 -85.0 0 0 62.72 9.43
  Q 63.43 5.15 67.37 2.01
  A 0.61 0.61 0.0 0 0 67.40 1.08
  Q 67.29 0.98 66.77 0.90
  A 0.29 0.29 0.0 0 1 66.65 0.37
  Q 67.04 0.10 67.72 0.00
  Q 67.79 0.01 67.86 0.00
  C 69.49 0.26 70.35 1.42 69.72 2.93
  A 0.40 0.40 0.0 0 1 69.06 3.06
  Q 68.94 2.93 68.88 2.89
  A 0.65 0.64 -45.4 0 0 68.08 2.90
  Q 65.89 4.66 64.06 8.88
  A 0.77 0.77 0.0 0 0 64.72 9.96
  L 70.00 10.29
  Q 70.01 10.71 70.00 11.13
  L 64.65 11.72
  A 0.51 0.50 -6.3 0 0 64.20 12.27
  Q 64.32 13.72 65.44 15.60
  Q 67.56 19.19 70.00 18.81
  L 70.00 19.90
  Q 69.44 21.33 67.49 22.29
  Q 66.65 21.84 66.93 21.24
  Q 67.97 20.91 67.75 20.21
  A 0.07 0.07 0.0 0 0 67.72 20.18
  Q 63.56 16.62 62.82 12.46
  A 1.34 1.33 41.3 0 0 60.17 12.63
  L 60.06 15.04
  Q 59.70 15.18 59.41 15.13
  Q 59.12 15.08 59.03 14.68
  Q 58.92 14.24 58.80 13.77
  L 58.72 12.65
  A 1.43 1.43 0.0 0 0 55.90 12.46
  L 55.63 13.76
  L 54.59 12.65
  Q 54.77 12.35 54.53 11.67
  L 52.12 10.93
  A 0.32 0.31 39.6 0 1 52.06 10.35
  Q 52.40 10.18 53.05 10.14
  Q 53.81 10.22 54.23 9.97
  Q 54.69 9.69 54.48 8.92
  Q 53.25 4.47 49.56 2.47
  Q 48.77 3.14 47.94 2.43
  Q 48.89 0.79 50.51 0.00
  L 51.61 0.00
  Z"
/>
<path fill="#0a131a" d="
  M 58.86 0.00
  L 58.73 9.38
  A 0.66 0.65 0.4 0 1 58.07 10.02
  L 56.66 10.02
  A 0.70 0.68 -5.6 0 1 55.98 9.47
  Q 55.10 5.08 51.54 2.07
  A 0.64 0.63 25.1 0 1 51.33 1.50
  Q 51.38 1.17 51.79 0.90
  A 0.41 0.41 0.0 0 0 51.86 0.26
  L 51.61 0.00
  L 58.86 0.00
  Z"
/>
<path fill="#0a131a" d="
  M 67.72 0.00
  Q 67.04 0.10 66.65 0.37
  A 0.29 0.29 0.0 0 0 66.77 0.90
  Q 67.29 0.98 67.40 1.08
  A 0.61 0.61 0.0 0 1 67.37 2.01
  Q 63.43 5.15 62.72 9.43
  A 0.76 0.75 -85.0 0 1 61.98 10.06
  L 60.81 10.06
  A 0.66 0.66 0.0 0 1 60.15 9.40
  L 60.10 0.00
  L 67.72 0.00
  Z"
/>
<path fill="#0b0f19" d="
  M 70.00 0.00
  L 70.00 10.29
  L 64.72 9.96
  A 0.77 0.77 0.0 0 1 64.06 8.88
  Q 65.89 4.66 68.08 2.90
  A 0.65 0.64 -45.4 0 1 68.88 2.89
  Q 68.94 2.93 69.06 3.06
  A 0.40 0.40 0.0 0 0 69.72 2.93
  C 70.35 1.42 69.49 0.26 67.86 0.00
  L 70.00 0.00
  Z"
/>
<path fill="#377761" d="
  M 4.20 0.73
  Q 1.44 2.95 0.63 5.01
  A 0.20 0.20 0.0 0 1 0.25 4.95
  C 0.03 2.19 0.82 -0.03 4.01 0.16
  A 0.32 0.32 0.0 0 1 4.20 0.73
  Z"
/>
<path fill="#61cd70" d="
  M 47.94 2.43
  Q 48.77 3.14 49.56 2.47
  Q 47.21 5.96 46.55 9.24
  A 0.66 0.66 0.0 0 0 47.18 10.03
  L 53.05 10.14
  Q 52.40 10.18 52.06 10.35
  A 0.32 0.31 39.6 0 0 52.12 10.93
  L 54.53 11.67
  L 47.16 11.63
  A 0.52 0.52 0.0 0 0 46.65 12.22
  Q 47.19 16.09 49.48 18.80
  A 0.65 0.65 0.0 0 0 50.37 18.89
  Q 53.50 16.43 54.59 12.65
  L 55.63 13.76
  Q 54.35 17.23 51.41 19.91
  A 0.57 0.56 -47.1 0 0 51.44 20.77
  Q 54.32 23.05 57.97 23.75
  A 0.54 0.53 5.9 0 0 58.61 23.24
  L 58.80 13.77
  Q 58.92 14.24 59.03 14.68
  Q 59.12 15.08 59.41 15.13
  Q 59.70 15.18 60.06 15.04
  L 60.18 23.34
  A 0.52 0.51 -6.9 0 0 60.81 23.83
  Q 64.00 23.11 66.93 21.24
  Q 66.65 21.84 67.49 22.29
  Q 60.95 27.09 53.26 23.66
  Q 49.67 21.74 47.30 18.45
  Q 42.52 10.18 47.94 2.43
  Z"
/>
<path fill="#0a131a" d="
  M 53.05 10.14
  L 47.18 10.03
  A 0.66 0.66 0.0 0 1 46.55 9.24
  Q 47.21 5.96 49.56 2.47
  Q 53.25 4.47 54.48 8.92
  Q 54.69 9.69 54.23 9.97
  Q 53.81 10.22 53.05 10.14
  Z"
/>
<path fill="#0a131a" d="
  M 8.20 5.15
  Q 9.58 9.77 9.00 15.07
  L 7.20 18.22
  A 0.54 0.54 0.0 0 1 6.39 18.36
  Q 5.05 17.25 4.37 15.01
  Q 2.65 9.29 5.77 3.92
  A 0.90 0.89 42.2 0 1 7.27 3.85
  L 8.20 5.15
  Z"
/>
<path fill="#0a131a" d="
  M 27.42 4.34
  Q 31.52 10.71 27.20 17.93
  A 0.88 0.87 40.1 0 1 25.79 18.05
  Q 25.37 17.56 25.24 16.75
  Q 25.12 15.96 24.85 15.43
  Q 21.84 9.34 26.62 4.27
  A 0.51 0.51 0.0 0 1 27.42 4.34
  Z"
/>
<path fill="#499858" d="
  M 9.00 15.07
  Q 9.58 9.77 8.20 5.15
  Q 9.07 5.02 9.62 5.62
  Q 10.17 6.22 10.50 8.45
  C 10.75 10.16 11.18 14.43 9.00 15.07
  Z"
/>
<path fill="#0a131a" d="
  M 70.00 11.13
  L 70.00 18.81
  Q 67.56 19.19 65.44 15.60
  Q 64.32 13.72 64.20 12.27
  A 0.51 0.50 -6.3 0 1 64.65 11.72
  L 70.00 11.13
  Z"
/>
<path fill="#0a131a" d="
  M 54.53 11.67
  Q 54.77 12.35 54.59 12.65
  Q 53.50 16.43 50.37 18.89
  A 0.65 0.65 0.0 0 1 49.48 18.80
  Q 47.19 16.09 46.65 12.22
  A 0.52 0.52 0.0 0 1 47.16 11.63
  L 54.53 11.67
  Z"
/>
<path fill="#0a131a" d="
  M 66.93 21.24
  Q 64.00 23.11 60.81 23.83
  A 0.52 0.51 -6.9 0 1 60.18 23.34
  L 60.06 15.04
  L 60.17 12.63
  A 1.34 1.33 41.3 0 1 62.82 12.46
  Q 63.56 16.62 67.72 20.18
  A 0.07 0.07 0.0 0 1 67.75 20.21
  Q 67.97 20.91 66.93 21.24
  Z"
/>
<path fill="#0a131a" d="
  M 58.80 13.77
  L 58.61 23.24
  A 0.54 0.53 5.9 0 1 57.97 23.75
  Q 54.32 23.05 51.44 20.77
  A 0.57 0.56 -47.1 0 1 51.41 19.91
  Q 54.35 17.23 55.63 13.76
  L 55.90 12.46
  A 1.43 1.43 0.0 0 1 58.72 12.65
  L 58.80 13.77
  Z"
/>
<path fill="#19383a" d="
  M 47.30 18.45
  Q 49.67 21.74 53.26 23.66
  L 52.80 30.89
  Q 52.17 30.74 51.95 30.90
  Q 49.54 20.41 39.21 17.95
  Q 39.26 17.34 39.03 17.16
  L 47.30 18.45
  Z"
/>
<path fill="#19383a" d="
  M 51.70 32.82
  Q 52.56 33.25 54.46 32.92
  C 52.45 36.78 50.26 41.74 46.58 44.12
  Q 43.58 46.05 38.96 47.79
  Q 39.12 46.76 38.92 46.25
  A 0.95 0.94 41.1 0 0 37.12 46.37
  Q 36.96 47.02 37.12 48.23
  L 30.76 45.62
  A 0.77 0.76 -85.6 0 0 29.73 46.51
  Q 30.45 49.41 28.08 52.06
  Q 28.50 47.44 27.87 44.37
  Q 27.51 42.58 25.36 41.71
  L 22.97 35.30
  A 3.09 3.09 0.0 0 0 20.12 33.29
  L 1.93 33.07
  L 23.69 33.07
  A 0.65 0.65 0.0 0 0 24.34 32.42
  L 24.34 31.53
  A 0.65 0.64 89.1 0 0 23.68 30.88
  L 19.66 31.00
  Q 23.37 27.93 23.26 23.53
  L 28.29 19.16
  Q 31.70 18.22 34.68 17.45
  Q 35.11 17.34 35.29 17.50
  Q 35.45 17.66 35.48 17.82
  A 0.32 0.31 -14.4 0 1 35.28 18.15
  Q 22.53 23.00 24.77 36.26
  A 3.73 3.62 -63.8 0 0 25.09 37.25
  Q 27.64 42.35 32.75 44.64
  C 34.90 45.60 37.12 45.24 39.46 45.64
  A 2.83 2.79 41.4 0 0 40.72 45.57
  Q 50.41 42.76 51.70 32.82
  Z"
/>
<path fill="#0b0f19" d="
  M 70.00 19.90
  L 70.00 30.96
  L 52.80 30.89
  L 53.26 23.66
  Q 60.95 27.09 67.49 22.29
  Q 69.44 21.33 70.00 19.90
  Z"
/>
<path fill="#387d7e" d="
  M 38.25 27.74
  Q 36.05 27.39 34.38 25.66
  A 0.51 0.50 -36.5 0 1 34.50 24.87
  Q 35.05 24.57 35.25 24.19
  A 0.61 0.61 0.0 0 0 34.96 23.34
  Q 34.27 23.03 33.87 22.43
  Q 41.27 19.39 46.75 26.23
  A 1.23 1.22 55.7 0 1 46.41 28.06
  L 43.28 29.87
  A 1.89 1.87 47.1 0 1 41.28 29.79
  L 38.25 27.74
  Z
  M 35.90 25.25
  Q 35.86 26.01 37.66 25.90
  Q 38.02 25.88 38.84 25.94
  Q 39.76 26.02 39.79 25.46
  Q 39.82 24.89 38.89 24.87
  Q 38.07 24.85 37.71 24.79
  Q 35.94 24.50 35.90 25.25
  Z"
/>
<path fill="#397846" d="
  M 33.87 22.43
  Q 34.27 23.03 34.96 23.34
  A 0.61 0.61 0.0 0 1 35.25 24.19
  Q 35.05 24.57 34.50 24.87
  A 0.51 0.50 -36.5 0 0 34.38 25.66
  Q 36.05 27.39 38.25 27.74
  Q 34.49 28.76 34.10 31.99
  A 1.71 1.69 -54.8 0 0 34.26 32.94
  Q 36.02 36.46 39.39 35.86
  L 41.88 37.10
  A 0.54 0.53 -39.7 0 1 41.77 38.09
  Q 41.47 38.18 40.78 38.10
  A 0.43 0.43 0.0 0 0 40.38 38.78
  Q 40.45 38.89 41.97 39.52
  A 0.54 0.54 0.0 0 1 42.22 40.30
  Q 41.03 42.23 42.00 41.84
  Q 36.67 44.14 31.93 40.55
  C 25.35 35.57 26.29 25.97 33.87 22.43
  Z"
/>
<path fill="#0e2125" d="
  M 39.79 25.46
  Q 39.76 26.02 38.84 25.94
  Q 38.02 25.88 37.66 25.90
  Q 35.86 26.01 35.90 25.25
  Q 35.94 24.50 37.71 24.79
  Q 38.07 24.85 38.89 24.87
  Q 39.82 24.89 39.79 25.46
  Z"
/>
<path fill="#489e86" d="
  M 52.80 30.89
  L 70.00 30.96
  L 70.00 32.97
  L 54.46 32.92
  Q 52.56 33.25 51.70 32.82
  Q 51.26 31.36 51.95 30.90
  Q 52.17 30.74 52.80 30.89
  Z"
/>
<path fill="#499858" d="
  M 19.66 31.00
  L 23.68 30.88
  A 0.65 0.64 89.1 0 1 24.34 31.53
  L 24.34 32.42
  A 0.65 0.65 0.0 0 1 23.69 33.07
  L 1.93 33.07
  L 0.00 32.91
  L 0.00 30.96
  L 19.66 31.00
  Z"
/>
<path fill="#377761" d="
  M 42.00 41.84
  Q 41.03 42.23 42.22 40.30
  A 0.54 0.54 0.0 0 0 41.97 39.52
  Q 40.45 38.89 40.38 38.78
  A 0.43 0.43 0.0 0 1 40.78 38.10
  Q 41.47 38.18 41.77 38.09
  A 0.54 0.53 -39.7 0 0 41.88 37.10
  L 39.39 35.86
  Q 40.18 35.18 40.52 34.51
  A 0.38 0.37 12.4 0 0 40.17 33.97
  Q 37.53 34.02 37.49 32.95
  A 1.72 1.51 88.7 0 1 38.97 31.18
  Q 43.31 31.12 47.22 31.15
  A 1.43 1.43 0.0 0 1 48.63 32.75
  Q 47.91 38.94 42.00 41.84
  Z"
/>
<path fill="#0b0f19" d="
  M 70.00 32.97
  L 70.00 62.00
  L 52.99 62.00
  C 57.99 61.50 63.88 63.27 66.41 57.29
  Q 66.45 57.21 68.27 53.21
  A 1.81 1.69 -16.5 0 1 68.47 52.87
  Q 70.27 50.49 69.80 48.01
  A 0.29 0.28 49.7 0 0 69.25 47.96
  Q 68.45 50.22 64.93 57.40
  Q 63.37 60.59 60.16 60.60
  Q 55.75 60.61 50.76 60.72
  A 0.78 0.78 0.0 0 0 50.01 61.63
  Q 50.05 61.85 51.14 62.00
  L 38.97 62.00
  L 38.96 47.79
  Q 43.58 46.05 46.58 44.12
  C 50.26 41.74 52.45 36.78 54.46 32.92
  L 70.00 32.97
  Z
  M 48.14 51.70
  Q 48.11 53.93 48.31 54.51
  C 49.29 57.31 53.82 58.00 56.54 58.03
  C 59.25 58.06 63.80 57.47 64.84 54.69
  Q 65.05 54.11 65.08 51.89
  Q 65.10 49.67 64.90 49.09
  C 63.93 46.28 59.39 45.59 56.67 45.56
  C 53.96 45.53 49.41 46.12 48.37 48.91
  Q 48.16 49.48 48.14 51.70
  Z
  M 69.54 53.37
  L 65.93 61.46
  A 0.20 0.20 0.0 0 0 66.03 61.73
  L 66.30 61.85
  A 0.61 0.60 25.7 0 0 67.09 61.58
  C 68.57 58.71 70.18 57.11 69.61 53.38
  A 0.04 0.04 0.0 0 0 69.54 53.37
  Z"
/>
<path fill="#0b0f19" d="
  M 1.93 33.07
  L 20.12 33.29
  A 3.09 3.09 0.0 0 1 22.97 35.30
  L 25.36 41.71
  Q 16.11 40.29 9.95 46.19
  Q 3.64 52.51 4.48 61.18
  A 0.74 0.74 0.0 0 0 5.22 61.85
  L 5.73 61.85
  A 0.54 0.54 0.0 0 0 6.20 61.04
  L 5.53 59.88
  A 0.40 0.40 0.0 0 1 6.10 59.35
  Q 7.35 60.17 7.95 62.00
  L 0.00 62.00
  L 0.00 32.91
  L 1.93 33.07
  Z
  M 0.41 59.40
  Q 0.25 60.20 0.69 61.30
  Q 0.77 61.47 0.92 61.55
  Q 1.21 61.69 1.52 61.62
  A 0.29 0.28 61.8 0 0 1.66 61.14
  Q 1.30 60.78 0.87 59.38
  A 0.24 0.24 0.0 0 0 0.41 59.40
  Z"
/>
<path fill="#61c9b5" d="
  M 25.36 41.71
  Q 27.51 42.58 27.87 44.37
  Q 28.50 47.44 28.08 52.06
  Q 26.72 57.97 21.82 62.04
  A 0.48 0.48 0.0 0 1 21.18 62.01
  L 20.77 61.60
  A 0.24 0.24 0.0 0 1 20.81 61.23
  Q 24.71 58.67 26.42 53.59
  A 1.00 1.00 0.0 0 0 26.18 52.56
  L 22.79 49.17
  A 0.36 0.30 -12.4 0 0 22.61 49.08
  Q 21.93 48.99 21.69 49.37
  A 0.52 0.51 -55.5 0 0 21.81 50.05
  Q 22.23 50.38 22.00 50.75
  C 21.64 51.33 20.16 51.51 19.38 52.03
  A 1.00 0.98 -12.2 0 0 18.94 52.70
  Q 18.59 54.95 16.14 55.51
  Q 16.05 54.69 15.42 54.16
  A 0.81 0.34 -79.1 0 1 15.28 53.50
  Q 15.31 53.16 14.95 52.59
  Q 15.91 50.86 17.22 51.03
  A 0.56 0.55 10.6 0 0 17.83 50.62
  Q 17.85 50.56 17.86 50.53
  A 1.93 1.92 6.0 0 1 18.74 49.82
  L 19.47 49.54
  A 0.12 0.11 30.7 0 0 19.41 49.32
  Q 19.28 49.33 19.24 49.33
  A 0.61 0.61 0.0 0 1 18.62 48.71
  Q 18.62 48.33 19.10 47.98
  A 0.40 0.39 39.3 0 1 19.53 47.94
  L 20.21 48.28
  A 0.60 0.60 0.0 0 0 20.90 47.32
  L 17.22 43.64
  A 0.77 0.75 -32.4 0 0 16.42 43.47
  Q 13.13 44.74 10.55 47.03
  Q 10.07 46.82 9.95 46.19
  Q 16.11 40.29 25.36 41.71
  Z
  M 18.8152 42.7070
  A 2.75 0.59 -136.5 0 0 20.4039 45.0280
  A 2.75 0.59 -136.5 0 0 22.8048 46.4930
  A 2.75 0.59 -136.5 0 0 21.2161 44.1720
  A 2.75 0.59 -136.5 0 0 18.8152 42.7070
  Z
  M 24.64 43.05
  Q 23.87 42.65 22.35 42.83
  A 0.38 0.38 0.0 0 0 22.05 43.39
  Q 22.64 44.52 23.47 44.67
  A 1.15 0.85 -17.9 0 0 24.64 43.05
  Z
  M 26.94 47.81
  L 26.94 44.68
  A 0.34 0.34 0.0 0 0 26.36 44.43
  L 25.27 45.52
  A 0.67 0.65 -36.0 0 0 25.14 46.28
  Q 25.53 47.04 26.54 47.98
  A 0.24 0.24 0.0 0 0 26.94 47.81
  Z
  M 23.1113 46.9468
  A 2.95 0.58 -134.8 0 0 24.7784 49.4487
  A 2.95 0.58 -134.8 0 0 27.2687 51.1332
  A 2.95 0.58 -134.8 0 0 25.6016 48.6313
  A 2.95 0.58 -134.8 0 0 23.1113 46.9468
  Z"
/>
<ellipse fill="#0e2125" cx="0.00" cy="0.00" transform="translate(20.81,44.60) rotate(-136.5)" rx="2.75" ry="0.59"/>
<path fill="#0e2125" d="
  M 24.64 43.05
  A 1.15 0.85 -17.9 0 1 23.47 44.67
  Q 22.64 44.52 22.05 43.39
  A 0.38 0.38 0.0 0 1 22.35 42.83
  Q 23.87 42.65 24.64 43.05
  Z"
/>
<path fill="#0b0f19" d="
  M 14.95 52.59
  Q 13.03 52.99 12.35 54.99
  A 1.35 1.34 81.9 0 1 11.86 55.65
  L 11.11 56.18
  A 0.63 0.63 0.0 0 0 10.93 57.01
  Q 11.38 57.81 10.81 58.50
  A 0.38 0.37 42.1 0 1 10.25 58.52
  L 7.00 55.28
  A 1.71 1.70 32.4 0 1 6.60 53.52
  Q 7.93 49.75 10.55 47.03
  Q 13.13 44.74 16.42 43.47
  A 0.77 0.75 -32.4 0 1 17.22 43.64
  L 20.90 47.32
  A 0.60 0.60 0.0 0 1 20.21 48.28
  L 19.53 47.94
  A 0.40 0.39 39.3 0 0 19.10 47.98
  Q 18.62 48.33 18.62 48.71
  A 0.61 0.61 0.0 0 0 19.24 49.33
  Q 19.28 49.33 19.41 49.32
  A 0.12 0.11 30.7 0 1 19.47 49.54
  L 18.74 49.82
  A 1.93 1.92 6.0 0 0 17.86 50.53
  Q 17.85 50.56 17.83 50.62
  A 0.56 0.55 10.6 0 1 17.22 51.03
  Q 15.91 50.86 14.95 52.59
  Z"
/>
<path fill="#0e2125" d="
  M 26.54 47.98
  Q 25.53 47.04 25.14 46.28
  A 0.67 0.65 -36.0 0 1 25.27 45.52
  L 26.36 44.43
  A 0.34 0.34 0.0 0 1 26.94 44.68
  L 26.94 47.81
  A 0.24 0.24 0.0 0 1 26.54 47.98
  Z"
/>
<path fill="#60c48f" d="
  M 56.67 45.56
  C 59.39 45.59 63.93 46.28 64.90 49.09
  Q 65.10 49.67 65.08 51.89
  Q 65.05 54.11 64.84 54.69
  C 63.80 57.47 59.25 58.06 56.54 58.03
  C 53.82 58.00 49.29 57.31 48.31 54.51
  Q 48.11 53.93 48.14 51.70
  Q 48.16 49.48 48.37 48.91
  C 49.41 46.12 53.96 45.53 56.67 45.56
  Z
  M 63.5100 49.4680
  A 6.90 2.54 -0.1 0 0 56.6056 46.9400
  A 6.90 2.54 -0.1 0 0 49.7100 49.4920
  A 6.90 2.54 -0.1 0 0 56.6144 52.0200
  A 6.90 2.54 -0.1 0 0 63.5100 49.4680
  Z
  M 56.49 56.81
  C 59.17 56.84 63.84 56.39 63.66 52.58
  A 0.49 0.48 77.4 0 0 63.00 52.15
  Q 59.80 53.46 56.53 53.42
  Q 53.25 53.39 50.08 52.03
  A 0.49 0.48 -76.2 0 0 49.41 52.44
  C 49.15 56.24 53.82 56.79 56.49 56.81
  Z"
/>
<path fill="#0b0f19" d="
  M 37.12 48.23
  L 37.20 62.00
  L 9.86 62.00
  L 10.20 61.53
  A 0.65 0.65 0.0 0 0 10.24 60.81
  L 10.12 60.59
  A 0.13 0.13 0.0 0 1 10.33 60.43
  Q 11.40 61.52 12.73 61.98
  A 0.05 0.05 0.0 0 0 12.78 61.97
  L 13.35 61.47
  A 0.24 0.24 0.0 0 0 13.28 61.08
  Q 12.45 60.74 11.78 60.06
  A 0.62 0.62 0.0 0 1 11.77 59.21
  Q 12.35 58.59 12.89 59.03
  A 0.63 0.63 0.0 0 0 13.79 58.94
  Q 14.69 57.82 14.57 57.32
  A 0.92 0.77 -27.9 0 1 14.91 56.48
  L 16.14 55.51
  Q 18.59 54.95 18.94 52.70
  A 1.00 0.98 -12.2 0 1 19.38 52.03
  C 20.16 51.51 21.64 51.33 22.00 50.75
  Q 22.23 50.38 21.81 50.05
  A 0.52 0.51 -55.5 0 1 21.69 49.37
  Q 21.93 48.99 22.61 49.08
  A 0.36 0.30 -12.4 0 1 22.79 49.17
  L 26.18 52.56
  A 1.00 1.00 0.0 0 1 26.42 53.59
  Q 24.71 58.67 20.81 61.23
  A 0.24 0.24 0.0 0 0 20.77 61.60
  L 21.18 62.01
  A 0.48 0.48 0.0 0 0 21.82 62.04
  Q 26.72 57.97 28.08 52.06
  Q 30.45 49.41 29.73 46.51
  A 0.77 0.76 -85.6 0 1 30.76 45.62
  L 37.12 48.23
  Z"
/>
<path fill="#499858" d="
  M 38.96 47.79
  L 38.97 62.00
  L 37.20 62.00
  L 37.12 48.23
  Q 36.96 47.02 37.12 46.37
  A 0.95 0.94 41.1 0 1 38.92 46.25
  Q 39.12 46.76 38.96 47.79
  Z"
/>
<path fill="#73e476" d="
  M 9.95 46.19
  Q 10.07 46.82 10.55 47.03
  Q 7.93 49.75 6.60 53.52
  A 1.71 1.70 32.4 0 0 7.00 55.28
  L 10.25 58.52
  A 0.38 0.37 42.1 0 0 10.81 58.50
  Q 11.38 57.81 10.93 57.01
  A 0.63 0.63 0.0 0 1 11.11 56.18
  L 11.86 55.65
  A 1.35 1.34 81.9 0 0 12.35 54.99
  Q 13.03 52.99 14.95 52.59
  Q 15.31 53.16 15.28 53.50
  A 0.81 0.34 -79.1 0 0 15.42 54.16
  Q 16.05 54.69 16.14 55.51
  L 14.91 56.48
  A 0.92 0.77 -27.9 0 0 14.57 57.32
  Q 14.69 57.82 13.79 58.94
  A 0.63 0.63 0.0 0 1 12.89 59.03
  Q 12.35 58.59 11.77 59.21
  A 0.62 0.62 0.0 0 0 11.78 60.06
  Q 12.45 60.74 13.28 61.08
  A 0.24 0.24 0.0 0 1 13.35 61.47
  L 12.78 61.97
  A 0.05 0.05 0.0 0 1 12.73 61.98
  Q 11.40 61.52 10.33 60.43
  A 0.13 0.13 0.0 0 0 10.12 60.59
  L 10.24 60.81
  A 0.65 0.65 0.0 0 1 10.20 61.53
  L 9.86 62.00
  L 7.95 62.00
  Q 7.35 60.17 6.10 59.35
  A 0.40 0.40 0.0 0 0 5.53 59.88
  L 6.20 61.04
  A 0.54 0.54 0.0 0 1 5.73 61.85
  L 5.22 61.85
  A 0.74 0.74 0.0 0 1 4.48 61.18
  Q 3.64 52.51 9.95 46.19
  Z
  M 7.34 58.74
  Q 8.32 59.79 9.05 60.31
  A 0.39 0.39 0.0 0 0 9.57 59.75
  Q 9.07 59.15 8.07 58.07
  Q 7.07 56.99 6.50 56.45
  A 0.39 0.39 0.0 0 0 5.90 56.93
  Q 6.37 57.69 7.34 58.74
  Z
  M 13.57 57.55
  A 0.03 0.03 0.0 0 0 13.54 57.52
  A 0.03 0.03 0.0 0 0 13.51 57.55
  A 0.03 0.03 0.0 0 0 13.54 57.58
  A 0.03 0.03 0.0 0 0 13.57 57.55
  Z"
/>
<ellipse fill="#0a131a" cx="0.00" cy="0.00" transform="translate(56.61,49.48) rotate(-0.1)" rx="6.90" ry="2.54"/>
<ellipse fill="#0e2125" cx="0.00" cy="0.00" transform="translate(25.19,49.04) rotate(-134.8)" rx="2.95" ry="0.58"/>
<path fill="#61cd70" d="
  M 52.99 62.00
  L 51.14 62.00
  Q 50.05 61.85 50.01 61.63
  A 0.78 0.78 0.0 0 1 50.76 60.72
  Q 55.75 60.61 60.16 60.60
  Q 63.37 60.59 64.93 57.40
  Q 68.45 50.22 69.25 47.96
  A 0.29 0.28 49.7 0 1 69.80 48.01
  Q 70.27 50.49 68.47 52.87
  A 1.81 1.69 -16.5 0 0 68.27 53.21
  Q 66.45 57.21 66.41 57.29
  C 63.88 63.27 57.99 61.50 52.99 62.00
  Z"
/>
<path fill="#0e2125" d="
  M 56.53 53.42
  Q 59.80 53.46 63.00 52.15
  A 0.49 0.48 77.4 0 1 63.66 52.58
  C 63.84 56.39 59.17 56.84 56.49 56.81
  C 53.82 56.79 49.15 56.24 49.41 52.44
  A 0.49 0.48 -76.2 0 1 50.08 52.03
  Q 53.25 53.39 56.53 53.42
  Z"
/>
<path fill="#60c48f" d="
  M 69.61 53.38
  C 70.18 57.11 68.57 58.71 67.09 61.58
  A 0.61 0.60 25.7 0 1 66.30 61.85
  L 66.03 61.73
  A 0.20 0.20 0.0 0 1 65.93 61.46
  L 69.54 53.37
  A 0.04 0.04 0.0 0 1 69.61 53.38
  Z"
/>
<path fill="#0a131a" d="
  M 8.07 58.07
  Q 9.07 59.15 9.57 59.75
  A 0.39 0.39 0.0 0 1 9.05 60.31
  Q 8.32 59.79 7.34 58.74
  Q 6.37 57.69 5.90 56.93
  A 0.39 0.39 0.0 0 1 6.50 56.45
  Q 7.07 56.99 8.07 58.07
  Z"
/>
<circle fill="#397846" cx="13.54" cy="57.55" r="0.03"/>
<path fill="#377761" d="
  M 0.87 59.38
  Q 1.30 60.78 1.66 61.14
  A 0.29 0.28 61.8 0 1 1.52 61.62
  Q 1.21 61.69 0.92 61.55
  Q 0.77 61.47 0.69 61.30
  Q 0.25 60.20 0.41 59.40
  A 0.24 0.24 0.0 0 1 0.87 59.38
  Z"
/>
</svg>
