<?xml version="1.0" encoding="UTF-8" standalone="no"?>
<!DOCTYPE svg PUBLIC "-//W3C//DTD SVG 1.1//EN" "http://www.w3.org/Graphics/SVG/1.1/DTD/svg11.dtd">
<svg xmlns="http://www.w3.org/2000/svg" version="1.1" viewBox="0.00 0.00 48.00 48.00">
<g stroke-width="2.00" fill="none" stroke-linecap="butt">
<path stroke="#e5cf00" stroke-opacity="0.569" vector-effect="non-scaling-stroke" d="
  M 47.75 2.49
  A 2.24 2.24 0.0 0 0 45.51 0.25
  L 2.49 0.25
  A 2.24 2.24 0.0 0 0 0.25 2.49
  L 0.25 45.51
  A 2.24 2.24 0.0 0 0 2.49 47.75
  L 45.51 47.75
  A 2.24 2.24 0.0 0 0 47.75 45.51
  L 47.75 2.49"
/>
<path stroke="#9f962c" vector-effect="non-scaling-stroke" d="
  M 40.03 19.75
  Q 40.33 20.07 40.75 20.22
  Q 41.16 20.38 41.28 19.96
  L 41.42 19.46
  A 0.41 0.41 0.0 0 0 40.96 18.93
  L 40.27 19.03
  A 0.43 0.42 63.7 0 0 40.03 19.75"
/>
<path stroke="#867a08" vector-effect="non-scaling-stroke" d="
  M 12.37 22.38
  A 0.30 0.30 0.0 0 1 12.07 22.66
  L 9.26 22.61
  A 0.30 0.30 0.0 0 1 8.97 22.32
  L 8.87 19.82
  A 0.30 0.30 0.0 0 0 8.54 19.53
  L 7.57 19.65
  A 0.30 0.30 0.0 0 0 7.30 19.95
  L 7.35 26.84
  A 0.30 0.30 0.0 0 0 7.66 27.14
  L 8.70 27.11
  A 0.30 0.30 0.0 0 0 8.99 26.80
  L 8.94 24.45
  A 0.30 0.30 0.0 0 1 9.22 24.14
  L 12.10 23.98
  A 0.30 0.30 0.0 0 1 12.42 24.28
  L 12.44 26.90
  A 0.30 0.30 0.0 0 0 12.77 27.20
  L 13.67 27.11
  A 0.30 0.30 0.0 0 0 13.94 26.81
  L 13.88 19.98
  A 0.30 0.30 0.0 0 0 13.62 19.68
  L 12.82 19.59
  A 0.30 0.30 0.0 0 0 12.49 19.87
  L 12.37 22.38"
/>
<path stroke="#867a08" vector-effect="non-scaling-stroke" d="
  M 29.40 23.36
  A 3.87 3.87 0.0 0 0 25.53 19.49
  A 3.87 3.87 0.0 0 0 21.66 23.36
  A 3.87 3.87 0.0 0 0 25.53 27.23
  A 3.87 3.87 0.0 0 0 29.40 23.36"
/>
<path stroke="#867a08" vector-effect="non-scaling-stroke" d="
  M 18.87 25.70
  Q 17.52 25.94 18.50 24.99
  Q 20.56 23.00 20.39 21.10
  A 1.14 1.13 -79.6 0 0 19.77 20.19
  Q 17.74 19.18 15.62 20.08
  A 0.60 0.60 0.0 0 0 15.27 20.74
  L 15.38 21.31
  A 0.44 0.44 0.0 0 0 16.03 21.60
  Q 17.17 20.94 18.41 21.09
  A 0.70 0.70 0.0 0 1 18.89 22.20
  Q 17.74 23.77 16.26 24.98
  Q 13.73 27.04 16.99 27.03
  L 20.25 27.02
  Q 20.75 27.02 20.75 26.52
  L 20.75 26.16
  Q 20.75 25.75 20.34 25.69
  Q 19.60 25.57 18.87 25.70"
/>
<path stroke="#9f962c" vector-effect="non-scaling-stroke" d="
  M 36.71 23.56
  A 0.56 0.56 0.0 0 1 35.97 24.06
  Q 33.88 23.36 33.19 25.19
  A 1.49 1.49 0.0 0 0 34.97 27.15
  Q 36.32 26.79 37.71 26.98
  Q 38.26 27.06 38.26 26.50
  L 38.21 23.31
  Q 38.20 22.76 37.82 22.37
  Q 35.93 20.49 34.13 21.77
  Q 32.93 22.63 34.40 22.60
  L 36.17 22.56
  Q 36.78 22.55 36.74 23.16
  L 36.71 23.56"
/>
<path stroke="#9f962c" vector-effect="non-scaling-stroke" d="
  M 41.39 22.20
  A 0.57 0.57 0.0 0 0 40.82 21.63
  L 40.76 21.63
  A 0.57 0.57 0.0 0 0 40.19 22.20
  L 40.19 26.50
  A 0.57 0.57 0.0 0 0 40.76 27.07
  L 40.82 27.07
  A 0.57 0.57 0.0 0 0 41.39 26.50
  L 41.39 22.20"
/>
<path stroke="#9f962c" vector-effect="non-scaling-stroke" d="
  M 31.59 25.51
  A 0.49 0.48 69.4 0 0 30.96 25.22
  Q 30.51 25.39 30.35 26.01
  Q 30.14 26.81 31.01 27.08
  A 0.67 0.67 0.0 0 0 31.84 26.22
  L 31.59 25.51"
/>
<path stroke="#867a08" vector-effect="non-scaling-stroke" d="
  M 27.92 23.39
  A 2.39 2.39 0.0 0 0 25.53 21.00
  A 2.39 2.39 0.0 0 0 23.14 23.39
  A 2.39 2.39 0.0 0 0 25.53 25.78
  A 2.39 2.39 0.0 0 0 27.92 23.39"
/>
<path stroke="#9f962c" vector-effect="non-scaling-stroke" d="
  M 34.70 25.01
  A 0.41 0.40 -41.3 0 0 34.65 25.69
  Q 35.47 26.28 36.51 26.28
  A 0.42 0.41 -10.9 0 0 36.90 25.71
  Q 36.28 24.17 34.70 25.01"
/>
</g>
<path fill="#232001" fill-opacity="0.133" d="
  M 0.00 0.00
  L 48.00 0.00
  L 48.00 48.00
  L 0.00 48.00
  L 0.00 0.00
  Z
  M 47.75 2.49
  A 2.24 2.24 0.0 0 0 45.51 0.25
  L 2.49 0.25
  A 2.24 2.24 0.0 0 0 0.25 2.49
  L 0.25 45.51
  A 2.24 2.24 0.0 0 0 2.49 47.75
  L 45.51 47.75
  A 2.24 2.24 0.0 0 0 47.75 45.51
  L 47.75 2.49
  Z"
/>
<path fill="#ffe600" d="
  M 47.75 45.51
  A 2.24 2.24 0.0 0 1 45.51 47.75
  L 2.49 47.75
  A 2.24 2.24 0.0 0 1 0.25 45.51
  L 0.25 2.49
  A 2.24 2.24 0.0 0 1 2.49 0.25
  L 45.51 0.25
  A 2.24 2.24 0.0 0 1 47.75 2.49
  L 47.75 45.51
  Z
  M 40.03 19.75
  Q 40.33 20.07 40.75 20.22
  Q 41.16 20.38 41.28 19.96
  L 41.42 19.46
  A 0.41 0.41 0.0 0 0 40.96 18.93
  L 40.27 19.03
  A 0.43 0.42 63.7 0 0 40.03 19.75
  Z
  M 12.37 22.38
  A 0.30 0.30 0.0 0 1 12.07 22.66
  L 9.26 22.61
  A 0.30 0.30 0.0 0 1 8.97 22.32
  L 8.87 19.82
  A 0.30 0.30 0.0 0 0 8.54 19.53
  L 7.57 19.65
  A 0.30 0.30 0.0 0 0 7.30 19.95
  L 7.35 26.84
  A 0.30 0.30 0.0 0 0 7.66 27.14
  L 8.70 27.11
  A 0.30 0.30 0.0 0 0 8.99 26.80
  L 8.94 24.45
  A 0.30 0.30 0.0 0 1 9.22 24.14
  L 12.10 23.98
  A 0.30 0.30 0.0 0 1 12.42 24.28
  L 12.44 26.90
  A 0.30 0.30 0.0 0 0 12.77 27.20
  L 13.67 27.11
  A 0.30 0.30 0.0 0 0 13.94 26.81
  L 13.88 19.98
  A 0.30 0.30 0.0 0 0 13.62 19.68
  L 12.82 19.59
  A 0.30 0.30 0.0 0 0 12.49 19.87
  L 12.37 22.38
  Z
  M 29.40 23.36
  A 3.87 3.87 0.0 0 0 25.53 19.49
  A 3.87 3.87 0.0 0 0 21.66 23.36
  A 3.87 3.87 0.0 0 0 25.53 27.23
  A 3.87 3.87 0.0 0 0 29.40 23.36
  Z
  M 18.87 25.70
  Q 17.52 25.94 18.50 24.99
  Q 20.56 23.00 20.39 21.10
  A 1.14 1.13 -79.6 0 0 19.77 20.19
  Q 17.74 19.18 15.62 20.08
  A 0.60 0.60 0.0 0 0 15.27 20.74
  L 15.38 21.31
  A 0.44 0.44 0.0 0 0 16.03 21.60
  Q 17.17 20.94 18.41 21.09
  A 0.70 0.70 0.0 0 1 18.89 22.20
  Q 17.74 23.77 16.26 24.98
  Q 13.73 27.04 16.99 27.03
  L 20.25 27.02
  Q 20.75 27.02 20.75 26.52
  L 20.75 26.16
  Q 20.75 25.75 20.34 25.69
  Q 19.60 25.57 18.87 25.70
  Z
  M 36.71 23.56
  A 0.56 0.56 0.0 0 1 35.97 24.06
  Q 33.88 23.36 33.19 25.19
  A 1.49 1.49 0.0 0 0 34.97 27.15
  Q 36.32 26.79 37.71 26.98
  Q 38.26 27.06 38.26 26.50
  L 38.21 23.31
  Q 38.20 22.76 37.82 22.37
  Q 35.93 20.49 34.13 21.77
  Q 32.93 22.63 34.40 22.60
  L 36.17 22.56
  Q 36.78 22.55 36.74 23.16
  L 36.71 23.56
  Z
  M 41.39 22.20
  A 0.57 0.57 0.0 0 0 40.82 21.63
  L 40.76 21.63
  A 0.57 0.57 0.0 0 0 40.19 22.20
  L 40.19 26.50
  A 0.57 0.57 0.0 0 0 40.76 27.07
  L 40.82 27.07
  A 0.57 0.57 0.0 0 0 41.39 26.50
  L 41.39 22.20
  Z
  M 31.59 25.51
  A 0.49 0.48 69.4 0 0 30.96 25.22
  Q 30.51 25.39 30.35 26.01
  Q 30.14 26.81 31.01 27.08
  A 0.67 0.67 0.0 0 0 31.84 26.22
  L 31.59 25.51
  Z"
/>
<path fill="#3f4558" d="
  M 40.03 19.75
  A 0.43 0.42 63.7 0 1 40.27 19.03
  L 40.96 18.93
  A 0.41 0.41 0.0 0 1 41.42 19.46
  L 41.28 19.96
  Q 41.16 20.38 40.75 20.22
  Q 40.33 20.07 40.03 19.75
  Z"
/>
<path fill="#0d0d0f" d="
  M 12.37 22.38
  L 12.49 19.87
  A 0.30 0.30 0.0 0 1 12.82 19.59
  L 13.62 19.68
  A 0.30 0.30 0.0 0 1 13.88 19.98
  L 13.94 26.81
  A 0.30 0.30 0.0 0 1 13.67 27.11
  L 12.77 27.20
  A 0.30 0.30 0.0 0 1 12.44 26.90
  L 12.42 24.28
  A 0.30 0.30 0.0 0 0 12.10 23.98
  L 9.22 24.14
  A 0.30 0.30 0.0 0 0 8.94 24.45
  L 8.99 26.80
  A 0.30 0.30 0.0 0 1 8.70 27.11
  L 7.66 27.14
  A 0.30 0.30 0.0 0 1 7.35 26.84
  L 7.30 19.95
  A 0.30 0.30 0.0 0 1 7.57 19.65
  L 8.54 19.53
  A 0.30 0.30 0.0 0 1 8.87 19.82
  L 8.97 22.32
  A 0.30 0.30 0.0 0 0 9.26 22.61
  L 12.07 22.66
  A 0.30 0.30 0.0 0 0 12.37 22.38
  Z"
/>
<path fill="#0d0d0f" d="
  M 29.40 23.36
  A 3.87 3.87 0.0 0 1 25.53 27.23
  A 3.87 3.87 0.0 0 1 21.66 23.36
  A 3.87 3.87 0.0 0 1 25.53 19.49
  A 3.87 3.87 0.0 0 1 29.40 23.36
  Z
  M 27.92 23.39
  A 2.39 2.39 0.0 0 0 25.53 21.00
  A 2.39 2.39 0.0 0 0 23.14 23.39
  A 2.39 2.39 0.0 0 0 25.53 25.78
  A 2.39 2.39 0.0 0 0 27.92 23.39
  Z"
/>
<path fill="#0d0d0f" d="
  M 18.87 25.70
  Q 19.60 25.57 20.34 25.69
  Q 20.75 25.75 20.75 26.16
  L 20.75 26.52
  Q 20.75 27.02 20.25 27.02
  L 16.99 27.03
  Q 13.73 27.04 16.26 24.98
  Q 17.74 23.77 18.89 22.20
  A 0.70 0.70 0.0 0 0 18.41 21.09
  Q 17.17 20.94 16.03 21.60
  A 0.44 0.44 0.0 0 1 15.38 21.31
  L 15.27 20.74
  A 0.60 0.60 0.0 0 1 15.62 20.08
  Q 17.74 19.18 19.77 20.19
  A 1.14 1.13 -79.6 0 1 20.39 21.10
  Q 20.56 23.00 18.50 24.99
  Q 17.52 25.94 18.87 25.70
  Z"
/>
<circle fill="#ffe600" cx="25.53" cy="23.39" r="2.39"/>
<path fill="#3f4558" d="
  M 36.17 22.56
  L 34.40 22.60
  Q 32.93 22.63 34.13 21.77
  Q 35.93 20.49 37.82 22.37
  Q 38.20 22.76 38.21 23.31
  L 38.26 26.50
  Q 38.26 27.06 37.71 26.98
  Q 36.32 26.79 34.97 27.15
  A 1.49 1.49 0.0 0 1 33.19 25.19
  Q 33.88 23.36 35.97 24.06
  A 0.56 0.56 0.0 0 0 36.71 23.56
  L 36.74 23.16
  Q 36.78 22.55 36.17 22.56
  Z
  M 34.70 25.01
  A 0.41 0.40 -41.3 0 0 34.65 25.69
  Q 35.47 26.28 36.51 26.28
  A 0.42 0.41 -10.9 0 0 36.90 25.71
  Q 36.28 24.17 34.70 25.01
  Z"
/>
<rect fill="#3f4558" x="40.19" y="21.63" width="1.20" height="5.44" rx="0.57"/>
<path fill="#ffe600" d="
  M 34.70 25.01
  Q 36.28 24.17 36.90 25.71
  A 0.42 0.41 -10.9 0 1 36.51 26.28
  Q 35.47 26.28 34.65 25.69
  A 0.41 0.40 -41.3 0 1 34.70 25.01
  Z"
/>
<path fill="#3f4558" d="
  M 31.59 25.51
  L 31.84 26.22
  A 0.67 0.67 0.0 0 1 31.01 27.08
  Q 30.14 26.81 30.35 26.01
  Q 30.51 25.39 30.96 25.22
  A 0.49 0.48 69.4 0 1 31.59 25.51
  Z"
/>
</svg>
