<?xml version="1.0" encoding="UTF-8" standalone="no"?>
<!DOCTYPE svg PUBLIC "-//W3C//DTD SVG 1.1//EN" "http://www.w3.org/Graphics/SVG/1.1/DTD/svg11.dtd">
<svg xmlns="http://www.w3.org/2000/svg" version="1.1" viewBox="0.00 0.00 256.00 256.00">
<g stroke-width="2.00" fill="none" stroke-linecap="butt">
<path stroke="#1c2535" vector-effect="non-scaling-stroke" d="
  M 40.77 6.51
  Q 26.98 11.24 17.22 21.29
  C 13.43 25.19 10.21 30.55 6.76 35.36"
/>
<path stroke="#1c2535" vector-effect="non-scaling-stroke" d="
  M 249.38 36.98
  L 249.12 41.53
  A 0.23 0.23 0.0 0 1 248.73 41.68
  C 236.94 30.29 225.45 19.61 209.15 15.77
  C 191.98 11.72 175.24 13.03 153.99 13.41
  C 131.08 13.81 107.03 13.06 82.22 13.11
  C 67.03 13.14 50.96 13.38 36.99 18.70
  C 22.16 24.35 13.86 36.87 6.54 50.10"
/>
<path stroke="#131b2a" vector-effect="non-scaling-stroke" d="
  M 249.48 63.99
  Q 237.61 67.91 221.91 68.02
  Q 202.73 68.16 184.54 68.31
  C 171.14 68.42 158.16 70.28 156.48 86.27
  Q 154.78 102.37 157.38 121.08
  C 157.75 123.72 159.85 137.86 165.61 130.46
  Q 167.07 128.59 168.74 125.38
  Q 168.91 125.06 178.40 104.61
  A 1.18 1.15 -86.5 0 1 179.07 104.00
  Q 191.28 99.71 204.64 100.65
  A 0.99 0.96 74.3 0 1 205.38 101.08
  Q 216.88 118.39 229.59 131.95
  A 6.41 6.35 -71.3 0 1 231.23 135.30
  L 232.30 141.84
  A 1.20 1.19 -32.3 0 1 232.10 142.72
  L 227.25 149.65
  A 1.63 1.61 -79.0 0 1 226.27 150.32
  Q 220.04 151.78 214.08 150.24
  A 2.43 2.30 66.5 0 1 213.40 149.95
  C 205.14 144.86 194.86 138.22 189.45 151.40
  Q 186.95 157.53 185.44 164.00"
/>
<path stroke="#0e1321" vector-effect="non-scaling-stroke" d="
  M 185.44 164.00
  Q 182.35 182.62 176.52 200.43
  A 1.16 0.75 -33.0 0 1 176.44 200.61
  L 172.69 206.82
  A 1.05 0.98 -1.3 0 1 172.34 207.16
  L 168.83 209.18
  A 1.07 0.96 -62.1 0 1 168.45 209.32
  L 157.22 211.15
  A 1.66 1.64 58.3 0 1 155.98 210.85
  Q 147.42 204.57 145.08 197.93
  Q 143.13 192.38 139.64 173.95"
/>
<path stroke="#131b2a" vector-effect="non-scaling-stroke" d="
  M 139.64 173.95
  C 142.25 186.27 145.01 198.84 153.81 208.35
  A 1.26 1.22 71.1 0 0 154.59 208.75
  Q 162.77 209.66 170.39 207.00
  A 1.39 1.39 0.0 0 0 171.03 206.53
  Q 177.38 197.79 180.29 185.11
  Q 183.84 169.65 184.74 162.02
  A 0.22 0.16 -79.8 0 0 184.63 161.80
  A 0.21 0.17 -75.8 0 0 184.41 161.97
  L 180.23 179.63"
/>
<path stroke="#201738" vector-effect="non-scaling-stroke" d="
  M 180.23 179.63
  Q 182.36 166.00 185.32 152.54
  C 187.36 143.24 191.70 131.99 203.23 140.52
  Q 207.27 143.51 210.71 146.80
  A 2.78 2.76 -23.1 0 0 212.62 147.56
  L 219.10 147.56
  A 0.22 0.22 0.0 0 0 219.15 147.13
  L 212.10 145.53
  A 0.69 0.47 55.9 0 1 211.90 145.45
  C 210.68 144.61 208.91 143.51 207.59 142.12
  C 200.40 134.50 192.10 128.92 186.54 142.46
  C 185.11 145.96 183.54 153.73 179.88 158.16"
/>
<path stroke="#80208e" vector-effect="non-scaling-stroke" d="
  M 179.88 158.16
  L 184.11 135.39"
/>
<path stroke="#563593" vector-effect="non-scaling-stroke" d="
  M 184.11 135.39
  L 185.27 132.40"
/>
<path stroke="#201738" vector-effect="non-scaling-stroke" d="
  M 185.27 132.40
  Q 186.43 133.76 188.78 131.40
  Q 190.70 129.47 191.82 129.24
  C 195.75 128.43 200.33 129.48 202.15 133.59
  Q 202.77 135.01 204.36 137.17
  Q 210.62 145.70 220.74 145.38"
/>
<path stroke="#80208e" vector-effect="non-scaling-stroke" d="
  M 220.74 145.38
  C 225.99 146.37 230.92 144.49 230.21 138.32"
/>
<path stroke="#201738" vector-effect="non-scaling-stroke" d="
  M 230.21 138.32
  Q 230.58 135.99 229.34 134.67
  Q 219.54 124.14 210.29 111.47
  C 204.10 103.01 193.12 97.21 183.43 104.38
  C 178.27 108.20 174.64 115.67 172.56 121.81
  Q 169.72 130.21 166.93 139.74
  C 166.11 142.55 162.52 152.76 158.19 146.14
  Q 156.48 143.53 155.48 140.49"
/>
<path stroke="#141f36" vector-effect="non-scaling-stroke" d="
  M 155.48 140.49
  Q 154.46 107.38 149.82 74.44
  Q 148.89 67.85 146.71 57.64
  C 144.89 49.14 140.29 37.08 130.46 34.83
  C 123.49 33.23 117.66 37.28 113.96 43.15
  C 108.94 51.09 107.16 61.92 105.83 71.67
  Q 103.86 86.11 100.74 107.30
  C 100.48 109.03 96.89 135.08 89.85 127.12
  Q 88.31 125.39 87.98 124.74
  C 83.77 116.60 79.42 105.36 73.84 96.93
  A 1.09 1.09 0.0 0 0 73.11 96.45
  Q 64.25 94.96 55.48 96.08
  A 2.11 2.09 24.5 0 0 54.58 96.41
  Q 52.50 97.79 52.03 98.40
  Q 42.64 110.67 35.67 123.80
  A 0.18 0.18 0.0 0 0 35.96 124.01
  Q 37.97 121.80 39.04 120.08
  Q 46.45 108.20 55.70 97.53
  A 1.36 1.33 -72.1 0 1 56.54 97.09
  Q 63.80 96.19 70.77 96.97
  A 1.03 1.03 0.0 0 1 71.52 97.42
  C 77.43 106.05 81.65 114.58 81.61 125.29"
/>
<path stroke="#256a94" vector-effect="non-scaling-stroke" d="
  M 81.61 125.29
  L 80.26 120.78"
/>
<path stroke="#168994" vector-effect="non-scaling-stroke" d="
  M 80.26 120.78
  C 78.61 114.44 74.62 103.51 68.56 100.13
  Q 62.35 96.65 55.96 101.28"
/>
<path stroke="#141f36" vector-effect="non-scaling-stroke" d="
  M 55.96 101.28
  Q 50.78 103.84 47.84 109.04
  Q 44.98 114.12 40.77 121.90
  C 38.62 125.88 34.79 128.81 34.23 133.31"
/>
<path stroke="#168994" vector-effect="non-scaling-stroke" d="
  M 34.23 133.31
  Q 34.16 133.18 34.06 133.46"
/>
<path stroke="#141f36" vector-effect="non-scaling-stroke" d="
  M 34.06 133.46
  C 31.00 132.24 27.94 131.95 26.79 135.75"
/>
<path stroke="#168994" vector-effect="non-scaling-stroke" d="
  M 26.79 135.75
  C 23.57 139.41 25.31 144.19 29.75 145.64"
/>
<path stroke="#141f36" vector-effect="non-scaling-stroke" d="
  M 29.75 145.64
  C 34.47 150.57 43.77 146.51 47.87 142.83
  C 52.15 139.00 56.43 132.23 62.20 129.25
  A 2.65 2.63 -26.0 0 1 65.82 130.49
  Q 67.46 134.08 69.00 139.08
  C 70.70 144.56 71.03 148.90 73.16 154.39
  Q 73.31 154.76 77.16 164.12
  A 0.21 0.20 79.9 0 0 77.33 164.25
  Q 77.43 164.26 77.60 164.31
  Q 77.77 164.37 77.90 164.55
  C 83.24 172.36 88.11 179.24 98.92 174.75"
/>
<path stroke="#46618f" vector-effect="non-scaling-stroke" d="
  M 98.92 174.75
  Q 102.62 172.46 104.88 168.52"
/>
<path stroke="#131b2a" vector-effect="non-scaling-stroke" d="
  M 104.88 168.52
  Q 106.09 168.49 107.03 167.52"
/>
<path stroke="#141f36" vector-effect="non-scaling-stroke" d="
  M 107.03 167.52
  C 114.58 154.30 117.44 140.44 120.82 125.60
  C 121.26 123.64 124.83 109.90 129.30 114.53
  C 132.51 117.86 134.05 125.32 134.84 129.96
  Q 137.39 145.00 139.94 160.04"
/>
<path stroke="#201738" vector-effect="non-scaling-stroke" d="
  M 139.94 160.04
  L 140.50 164.78"
/>
<path stroke="#131b2a" vector-effect="non-scaling-stroke" d="
  M 140.50 164.78
  L 138.05 160.11"
/>
<path stroke="#0e1321" vector-effect="non-scaling-stroke" d="
  M 138.05 160.11
  L 134.95 147.54"
/>
<path stroke="#131b2a" vector-effect="non-scaling-stroke" d="
  M 134.95 147.54
  Q 133.76 139.64 131.84 131.91
  Q 130.96 128.33 129.33 125.83
  C 125.72 120.26 121.95 131.78 121.26 134.03
  Q 115.25 153.61 110.71 166.43
  Q 110.37 167.38 107.97 170.18
  Q 105.97 172.51 105.15 173.87
  Q 103.85 176.02 102.00 177.12
  A 1.61 1.60 -62.5 0 1 101.31 177.34
  Q 93.10 177.82 85.70 176.57
  A 1.59 1.53 71.1 0 1 84.85 176.13
  C 80.95 172.22 77.03 164.18 71.05 153.70
  C 62.40 138.53 54.67 142.13 42.56 150.54
  A 0.72 0.69 -62.2 0 1 42.14 150.68
  L 29.37 150.79
  A 0.87 0.87 0.0 0 1 28.66 150.42
  Q 23.90 143.61 22.50 135.28
  A 1.06 1.03 58.8 0 1 22.69 134.47
  Q 31.31 122.94 33.42 119.72
  Q 45.04 101.96 49.38 95.51
  A 1.13 1.08 -85.7 0 1 49.79 95.14
  L 54.62 92.55
  A 1.28 1.26 28.7 0 1 55.11 92.41
  Q 63.58 91.76 71.76 93.15
  A 4.27 4.25 -12.4 0 1 74.56 94.93
  Q 80.40 103.32 86.20 113.60
  Q 88.36 117.43 90.47 119.32
  C 94.16 122.61 96.17 115.93 96.73 113.40
  Q 99.30 101.90 98.54 90.10
  C 98.00 81.53 95.34 73.63 86.28 71.01
  Q 80.39 69.31 76.13 69.17
  Q 41.42 68.09 6.47 69.29"
/>
<path stroke="#0b0f1d" vector-effect="non-scaling-stroke" d="
  M 138.05 160.11
  L 139.64 173.95"
/>
<path stroke="#1d1434" vector-effect="non-scaling-stroke" d="
  M 140.50 164.78
  Q 142.66 185.15 150.80 203.69"
/>
<path stroke="#54acf5" vector-effect="non-scaling-stroke" d="
  M 84.00 134.18
  Q 83.30 134.29 83.25 135.01
  A 0.18 0.18 0.0 0 1 82.94 135.11
  Q 82.08 134.12 81.87 133.56
  A 0.13 0.02 -73.9 0 1 81.88 133.46
  Q 81.89 133.43 81.87 133.39
  Q 82.15 136.04 83.36 138.39
  Q 83.78 139.19 83.60 142.33"
/>
<path stroke="#4c8ffb" vector-effect="non-scaling-stroke" d="
  M 83.60 142.33
  C 78.72 147.32 79.76 152.05 80.79 158.97"
/>
<path stroke="#1d1434" vector-effect="non-scaling-stroke" d="
  M 180.23 179.63
  C 177.93 190.66 175.21 206.93 162.80 208.75
  Q 156.51 209.67 151.46 204.35"
/>
<path stroke="#8a1998" vector-effect="non-scaling-stroke" d="
  M 163.37 207.07
  Q 168.54 204.75 170.66 199.18
  C 175.66 186.06 177.76 171.86 179.88 158.16"
/>
<path stroke="#435d8b" vector-effect="non-scaling-stroke" d="
  M 105.98 166.75
  L 104.88 168.52"
/>
<path stroke="#54acf5" vector-effect="non-scaling-stroke" d="
  M 79.98 157.80
  L 80.79 158.97"
/>
<path stroke="#6d86f6" vector-effect="non-scaling-stroke" d="
  M 80.79 158.97
  Q 82.32 164.21 85.15 168.88
  Q 88.92 175.10 96.26 174.05
  A 1.41 1.40 17.1 0 0 97.10 173.61
  Q 99.95 170.53 103.12 168.23
  A 0.02 0.01 76.7 0 1 103.14 168.25
  Q 103.14 168.27 103.13 168.29
  A 0.27 0.16 81.6 0 1 103.07 168.44
  L 97.94 173.06
  A 0.25 0.25 0.0 0 0 98.09 173.49
  C 100.62 173.60 103.46 168.57 104.19 166.57
  Q 107.41 157.72 110.31 144.50
  C 111.43 139.37 111.42 135.57 111.91 130.74
  A 0.23 0.22 -15.8 0 0 111.55 130.54
  L 105.57 135.02"
/>
<path stroke="#0b0f1d" vector-effect="non-scaling-stroke" d="
  M 134.95 147.54
  C 134.73 155.62 135.22 161.72 136.22 173.97
  Q 136.30 174.86 136.12 175.38
  A 0.25 0.25 0.0 0 1 135.66 175.40
  Q 132.74 168.74 131.31 166.07
  C 128.95 161.68 125.68 157.86 120.86 162.11
  C 117.18 165.36 112.92 170.85 109.03 173.90
  Q 92.67 186.71 75.67 171.70
  C 65.70 162.91 60.97 157.01 49.78 156.10
  Q 46.28 155.81 35.35 155.54
  C 25.69 155.30 15.66 151.16 6.50 146.98"
/>
<path stroke="#8a1998" vector-effect="non-scaling-stroke" d="
  M 220.74 145.38
  C 207.08 143.01 202.24 129.68 196.75 119.02
  Q 195.95 117.46 192.59 113.96"
/>
<path stroke="#bf37f3" vector-effect="non-scaling-stroke" d="
  M 208.33 116.91
  Q 207.98 117.30 207.70 117.37
  Q 207.35 117.46 207.22 116.97
  Q 207.02 116.22 206.62 115.87
  A 0.19 0.19 0.0 0 0 206.32 116.09
  C 209.06 122.72 211.61 128.33 216.62 133.99
  A 0.04 0.03 38.0 0 1 216.63 134.03
  Q 216.63 134.04 216.62 134.06
  A 0.08 0.06 -62.9 0 1 216.51 134.12
  L 210.10 126.52
  A 2.35 2.33 -23.8 0 0 207.98 125.71
  Q 204.57 126.18 202.44 123.00
  Q 199.25 118.26 192.59 113.96"
/>
<path stroke="#602e9d" vector-effect="non-scaling-stroke" d="
  M 192.59 113.96
  Q 186.52 122.82 185.27 132.40"
/>
<path stroke="#bf37f3" vector-effect="non-scaling-stroke" d="
  M 184.11 135.39
  Q 180.93 140.79 179.80 147.48
  A 2.20 2.19 -5.3 0 1 178.39 149.18
  Q 175.97 150.05 173.29 151.48
  C 171.43 152.48 170.73 154.72 168.84 156.11"
/>
<path stroke="#446197" vector-effect="non-scaling-stroke" d="
  M 79.20 158.37
  Q 81.42 166.27 86.01 171.74
  Q 91.02 177.71 98.92 174.75"
/>
<path stroke="#24d4fa" vector-effect="non-scaling-stroke" d="
  M 80.26 120.78
  Q 80.03 121.81 79.64 122.81
  Q 79.63 122.85 79.63 122.89
  Q 78.16 118.47 78.18 118.38
  A 0.18 0.18 0.0 0 0 77.87 118.22
  Q 77.74 118.35 77.98 118.85
  A 0.73 0.73 0.0 0 1 77.88 119.63
  Q 75.19 122.97 71.77 124.84
  A 0.87 0.87 0.0 0 0 71.35 125.82
  L 79.98 157.80"
/>
<path stroke="#45cbf5" vector-effect="non-scaling-stroke" d="
  M 79.98 157.80
  Q 79.79 158.13 79.20 158.37"
/>
<path stroke="#14899b" vector-effect="non-scaling-stroke" d="
  M 79.20 158.37
  Q 78.45 156.35 77.85 154.22
  Q 73.89 140.08 70.09 125.84
  Q 67.91 117.67 64.51 111.54
  A 1.51 1.51 0.0 0 0 62.18 111.15
  Q 60.70 112.48 59.60 114.87
  C 53.54 128.10 47.69 145.89 29.75 145.64"
/>
<path stroke="#14899b" vector-effect="non-scaling-stroke" d="
  M 26.79 135.75
  C 28.85 133.62 31.46 133.88 34.06 133.46"
/>
<path stroke="#14899b" vector-effect="non-scaling-stroke" d="
  M 34.23 133.31
  C 38.26 131.80 40.91 127.90 42.77 124.08
  Q 45.95 117.56 48.96 110.96
  Q 51.54 105.31 55.96 101.28"
/>
<path stroke="#446197" vector-effect="non-scaling-stroke" d="
  M 137.21 108.49
  L 141.35 141.53"
/>
<path stroke="#54359b" vector-effect="non-scaling-stroke" d="
  M 141.35 141.53
  L 144.46 165.86"
/>
<path stroke="#7e2195" vector-effect="non-scaling-stroke" d="
  M 144.46 165.86
  Q 146.00 178.40 149.03 190.60
  Q 150.26 195.54 152.74 200.73
  Q 156.17 207.87 163.37 207.07"
/>
<path stroke="#1e1840" vector-effect="non-scaling-stroke" d="
  M 163.37 207.07
  Q 157.20 208.18 151.46 204.35"
/>
<path stroke="#111b32" vector-effect="non-scaling-stroke" d="
  M 151.46 204.35
  Q 151.19 204.18 150.80 203.69"
/>
<path stroke="#1e1840" vector-effect="non-scaling-stroke" d="
  M 150.80 203.69
  Q 144.43 185.80 141.59 166.98
  Q 141.26 164.75 139.94 160.04"
/>
<path stroke="#111b32" vector-effect="non-scaling-stroke" d="
  M 107.03 167.52
  L 105.98 166.75"
/>
<path stroke="#446197" vector-effect="non-scaling-stroke" d="
  M 105.98 166.75
  Q 109.68 158.34 111.53 150.02
  Q 114.31 137.45 116.32 123.02"
/>
<path stroke="#1e1840" vector-effect="non-scaling-stroke" d="
  M 155.48 140.49
  Q 154.95 142.21 154.03 142.07
  Q 153.37 141.96 152.29 141.01"
/>
<path stroke="#54359b" vector-effect="non-scaling-stroke" d="
  M 152.29 141.01
  L 151.61 136.19"
/>
<path stroke="#446197" vector-effect="non-scaling-stroke" d="
  M 151.61 136.19
  L 145.44 85.57"
/>
<path stroke="#1a253c" vector-effect="non-scaling-stroke" d="
  M 145.44 85.57
  Q 147.40 85.03 147.08 81.07
  C 146.17 69.88 143.95 36.31 127.58 35.93
  C 112.95 35.58 110.01 60.98 109.06 71.29
  C 108.36 78.85 107.72 82.83 109.59 88.58"
/>
<path stroke="#14899b" vector-effect="non-scaling-stroke" d="
  M 109.59 88.58
  L 104.28 128.02"
/>
<path stroke="#446197" vector-effect="non-scaling-stroke" d="
  M 104.28 128.02
  Q 102.03 144.45 97.04 160.07"
/>
<path stroke="#3c449c" vector-effect="non-scaling-stroke" d="
  M 97.04 160.07
  Q 95.62 161.60 94.86 163.35
  A 0.57 0.56 42.5 0 1 93.84 163.39
  L 90.67 157.52"
/>
<path stroke="#446197" vector-effect="non-scaling-stroke" d="
  M 90.67 157.52
  Q 86.59 146.18 84.00 134.18"
/>
<path stroke="#236a9c" vector-effect="non-scaling-stroke" d="
  M 84.00 134.18
  L 81.61 125.29"
/>
<path stroke="#0b0f1d" vector-effect="non-scaling-stroke" d="
  M 249.49 154.81
  Q 233.66 156.70 217.81 156.50
  C 208.73 156.38 200.00 157.65 193.49 164.16
  Q 189.51 168.14 188.34 169.82
  A 0.80 0.80 0.0 0 1 187.01 169.80
  L 186.77 169.43
  A 0.61 0.56 -69.2 0 1 186.71 169.28
  L 185.44 164.00"
/>
<path stroke="#8a1998" vector-effect="non-scaling-stroke" d="
  M 230.21 138.32
  C 228.73 134.38 226.37 134.12 222.38 133.85
  A 4.24 4.09 57.4 0 1 221.12 133.55
  C 214.26 130.66 211.38 123.15 208.33 116.91"
/>
<path stroke="#602e9d" vector-effect="non-scaling-stroke" d="
  M 208.33 116.91
  Q 205.37 110.48 201.23 106.51
  C 196.06 101.54 188.23 101.76 183.51 107.53
  Q 180.30 111.45 178.59 115.88
  C 173.60 128.74 171.23 142.47 168.84 156.11"
/>
<path stroke="#8a1998" vector-effect="non-scaling-stroke" d="
  M 168.84 156.11
  C 166.93 167.79 165.21 180.04 161.69 191.41
  A 0.41 0.41 0.0 0 1 160.90 191.40
  Q 157.72 179.94 156.10 168.25"
/>
<path stroke="#602e9d" vector-effect="non-scaling-stroke" d="
  M 156.10 168.25
  L 152.29 141.01"
/>
<path stroke="#6d86f6" vector-effect="non-scaling-stroke" d="
  M 83.60 142.33
  Q 85.95 146.86 87.77 152.93
  Q 88.55 155.51 90.67 157.52"
/>
<path stroke="#54acf5" vector-effect="non-scaling-stroke" d="
  M 115.35 118.65
  Q 113.70 123.76 113.54 129.60
  A 0.28 0.28 0.0 0 1 113.02 129.74
  L 111.54 127.17
  A 0.04 0.04 0.0 0 0 111.47 127.18
  L 111.38 127.60
  A 0.84 0.81 84.2 0 1 110.94 128.16
  Q 106.96 130.16 105.57 135.02"
/>
<path stroke="#4c8ffb" vector-effect="non-scaling-stroke" d="
  M 105.57 135.02
  L 104.03 139.09"
/>
<path stroke="#54acf5" vector-effect="non-scaling-stroke" d="
  M 104.03 139.09
  L 105.11 129.94"
/>
<path stroke="#14899b" vector-effect="non-scaling-stroke" d="
  M 138.19 48.04
  L 138.77 50.05"
/>
<path stroke="#14899b" vector-effect="non-scaling-stroke" d="
  M 141.41 60.54
  L 142.01 63.99"
/>
<path stroke="#45cbf5" vector-effect="non-scaling-stroke" d="
  M 142.01 63.99
  L 141.52 68.55"
/>
<path stroke="#24d4fa" vector-effect="non-scaling-stroke" d="
  M 141.52 68.55
  L 139.54 64.23
  A 3.33 3.33 0.0 0 0 135.98 62.34
  L 134.61 62.56
  A 2.47 2.46 -8.6 0 0 132.56 65.33
  L 138.45 107.50"
/>
<path stroke="#45cbf5" vector-effect="non-scaling-stroke" d="
  M 138.45 107.50
  L 137.21 108.49"
/>
<path stroke="#14899b" vector-effect="non-scaling-stroke" d="
  M 137.21 108.49
  Q 134.85 90.78 132.18 73.15
  Q 130.35 61.05 128.05 52.63
  A 0.35 0.35 0.0 0 0 127.38 52.63
  C 125.38 60.28 123.79 68.56 122.71 76.31
  Q 119.46 99.62 116.32 123.02"
/>
<path stroke="#45cbf5" vector-effect="non-scaling-stroke" d="
  M 116.32 123.02
  Q 115.51 121.08 115.35 118.65"
/>
<path stroke="#24d4fa" vector-effect="non-scaling-stroke" d="
  M 115.35 118.65
  L 120.02 83.09
  A 0.25 0.25 0.0 0 0 119.61 82.87
  Q 113.19 88.43 111.34 96.61
  C 110.35 101.01 108.57 107.37 108.27 109.82
  Q 107.05 119.95 105.11 129.94"
/>
<path stroke="#45cbf5" vector-effect="non-scaling-stroke" d="
  M 105.11 129.94
  L 104.28 128.02"
/>
<path stroke="#7d5afa" vector-effect="non-scaling-stroke" d="
  M 147.79 120.71
  Q 146.91 127.01 149.41 130.71"
/>
<path stroke="#bf37f3" vector-effect="non-scaling-stroke" d="
  M 156.10 168.25
  Q 155.46 168.57 155.13 169.06
  A 0.34 0.34 0.0 0 1 154.53 169.00
  Q 154.42 168.73 154.63 168.32
  A 0.08 0.07 1.5 0 0 154.53 168.23
  L 154.47 168.25
  A 0.18 0.11 77.4 0 0 154.41 168.44
  C 155.40 174.19 156.31 178.78 154.12 183.17
  A 1.65 1.65 0.0 0 1 151.72 183.81
  C 149.18 182.09 147.29 173.34 146.54 169.70
  Q 146.20 168.06 144.46 165.86"
/>
<path stroke="#8577f4" vector-effect="non-scaling-stroke" d="
  M 141.35 141.53
  Q 142.17 129.97 139.65 118.48"
/>
<path stroke="#6d86f6" vector-effect="non-scaling-stroke" d="
  M 104.03 139.09
  Q 102.04 150.82 97.04 160.07"
/>
<path stroke="#446197" vector-effect="non-scaling-stroke" d="
  M 143.39 71.71
  L 143.78 74.04"
/>
<path stroke="#8577f4" vector-effect="non-scaling-stroke" d="
  M 151.61 136.19
  Q 151.29 136.57 151.37 137.12
  L 151.37 137.13
  C 150.60 135.05 149.96 132.90 149.41 130.71"
/>
<path stroke="#6d86f6" vector-effect="non-scaling-stroke" d="
  M 149.41 130.71
  L 147.79 120.71"
/>
<path stroke="#8577f4" vector-effect="non-scaling-stroke" d="
  M 147.79 120.71
  Q 146.72 117.74 147.06 114.54"
/>
<path stroke="#6d86f6" vector-effect="non-scaling-stroke" d="
  M 147.06 114.54
  L 146.48 104.22
  A 0.19 0.19 0.0 0 0 146.11 104.20
  L 145.94 105.30"
/>
<path stroke="#4b6796" vector-effect="non-scaling-stroke" d="
  M 145.44 85.57
  L 143.78 74.04"
/>
<path stroke="#1a253c" vector-effect="non-scaling-stroke" d="
  M 143.78 74.04
  Q 144.14 72.68 143.39 71.71"
/>
<path stroke="#4b6796" vector-effect="non-scaling-stroke" d="
  M 143.39 71.71
  L 142.77 68.06"
/>
<path stroke="#1a253c" vector-effect="non-scaling-stroke" d="
  M 142.77 68.06
  Q 143.73 63.62 141.41 60.54"
/>
<path stroke="#1b8f9a" vector-effect="non-scaling-stroke" d="
  M 141.41 60.54
  L 138.77 50.05"
/>
<path stroke="#1a253c" vector-effect="non-scaling-stroke" d="
  M 138.77 50.05
  Q 138.97 48.55 138.19 48.04"
/>
<path stroke="#1b8f9a" vector-effect="non-scaling-stroke" d="
  M 138.19 48.04
  L 136.46 43.88"
/>
<path stroke="#1a253c" vector-effect="non-scaling-stroke" d="
  M 136.46 43.88
  Q 135.26 38.03 130.02 37.04"
/>
<path stroke="#1b8f9a" vector-effect="non-scaling-stroke" d="
  M 130.02 37.04
  C 123.53 35.71 119.75 40.98 117.95 46.23
  C 113.35 59.61 111.61 74.41 109.59 88.58"
/>
<path stroke="#54acf5" vector-effect="non-scaling-stroke" d="
  M 141.52 68.55
  Q 143.28 80.00 144.90 91.52
  Q 145.18 93.52 145.08 98.09
  Q 145.00 101.76 145.94 105.30"
/>
<path stroke="#4c8ffb" vector-effect="non-scaling-stroke" d="
  M 145.94 105.30
  L 145.93 109.02"
/>
<path stroke="#6480f9" vector-effect="non-scaling-stroke" d="
  M 145.93 109.02
  Q 141.72 112.35 139.65 118.48"
/>
<path stroke="#54acf5" vector-effect="non-scaling-stroke" d="
  M 139.65 118.48
  L 138.45 107.50"
/>
<path stroke="#446197" vector-effect="non-scaling-stroke" d="
  M 142.77 68.06
  L 142.01 63.99"
/>
<path stroke="#14899b" vector-effect="non-scaling-stroke" d="
  M 136.46 43.88
  Q 134.37 39.07 130.02 37.04"
/>
<path stroke="#7d5afa" vector-effect="non-scaling-stroke" d="
  M 147.06 114.54
  L 145.93 109.02"
/>
<path stroke="#141f36" vector-effect="non-scaling-stroke" d="
  M 70.2114 99.5323
  A 0.63 0.20 -145.4 0 0 70.6164 100.0546
  A 0.63 0.20 -145.4 0 0 71.2486 100.2477
  A 0.63 0.20 -145.4 0 0 70.8436 99.7254
  A 0.63 0.20 -145.4 0 0 70.2114 99.5323"
/>
</g>
<path fill="#161e2e" d="
  M 40.77 6.51
  Q 26.98 11.24 17.22 21.29
  C 13.43 25.19 10.21 30.55 6.76 35.36
  C 9.48 18.20 23.33 6.12 40.77 6.51
  Z"
/>
<path fill="#212b3b" d="
  M 249.38 36.98
  L 249.12 41.53
  A 0.23 0.23 0.0 0 1 248.73 41.68
  C 236.94 30.29 225.45 19.61 209.15 15.77
  C 191.98 11.72 175.24 13.03 153.99 13.41
  C 131.08 13.81 107.03 13.06 82.22 13.11
  C 67.03 13.14 50.96 13.38 36.99 18.70
  C 22.16 24.35 13.86 36.87 6.54 50.10
  L 6.76 35.36
  C 10.21 30.55 13.43 25.19 17.22 21.29
  Q 26.98 11.24 40.77 6.51
  Q 173.02 6.67 212.50 6.51
  C 218.70 6.48 223.12 6.74 228.30 8.77
  Q 244.11 14.96 248.55 32.54
  Q 249.11 34.77 249.38 36.98
  Z"
/>
<path fill="#161e2e" d="
  M 249.38 36.98
  L 249.48 63.99
  Q 237.61 67.91 221.91 68.02
  Q 202.73 68.16 184.54 68.31
  C 171.14 68.42 158.16 70.28 156.48 86.27
  Q 154.78 102.37 157.38 121.08
  C 157.75 123.72 159.85 137.86 165.61 130.46
  Q 167.07 128.59 168.74 125.38
  Q 168.91 125.06 178.40 104.61
  A 1.18 1.15 -86.5 0 1 179.07 104.00
  Q 191.28 99.71 204.64 100.65
  A 0.99 0.96 74.3 0 1 205.38 101.08
  Q 216.88 118.39 229.59 131.95
  A 6.41 6.35 -71.3 0 1 231.23 135.30
  L 232.30 141.84
  A 1.20 1.19 -32.3 0 1 232.10 142.72
  L 227.25 149.65
  A 1.63 1.61 -79.0 0 1 226.27 150.32
  Q 220.04 151.78 214.08 150.24
  A 2.43 2.30 66.5 0 1 213.40 149.95
  C 205.14 144.86 194.86 138.22 189.45 151.40
  Q 186.95 157.53 185.44 164.00
  Q 182.35 182.62 176.52 200.43
  A 1.16 0.75 -33.0 0 1 176.44 200.61
  L 172.69 206.82
  A 1.05 0.98 -1.3 0 1 172.34 207.16
  L 168.83 209.18
  A 1.07 0.96 -62.1 0 1 168.45 209.32
  L 157.22 211.15
  A 1.66 1.64 58.3 0 1 155.98 210.85
  Q 147.42 204.57 145.08 197.93
  Q 143.13 192.38 139.64 173.95
  C 142.25 186.27 145.01 198.84 153.81 208.35
  A 1.26 1.22 71.1 0 0 154.59 208.75
  Q 162.77 209.66 170.39 207.00
  A 1.39 1.39 0.0 0 0 171.03 206.53
  Q 177.38 197.79 180.29 185.11
  Q 183.84 169.65 184.74 162.02
  A 0.22 0.16 -79.8 0 0 184.63 161.80
  A 0.21 0.17 -75.8 0 0 184.41 161.97
  L 180.23 179.63
  Q 182.36 166.00 185.32 152.54
  C 187.36 143.24 191.70 131.99 203.23 140.52
  Q 207.27 143.51 210.71 146.80
  A 2.78 2.76 -23.1 0 0 212.62 147.56
  L 219.10 147.56
  A 0.22 0.22 0.0 0 0 219.15 147.13
  L 212.10 145.53
  A 0.69 0.47 55.9 0 1 211.90 145.45
  C 210.68 144.61 208.91 143.51 207.59 142.12
  C 200.40 134.50 192.10 128.92 186.54 142.46
  C 185.11 145.96 183.54 153.73 179.88 158.16
  L 184.11 135.39
  L 185.27 132.40
  Q 186.43 133.76 188.78 131.40
  Q 190.70 129.47 191.82 129.24
  C 195.75 128.43 200.33 129.48 202.15 133.59
  Q 202.77 135.01 204.36 137.17
  Q 210.62 145.70 220.74 145.38
  C 225.99 146.37 230.92 144.49 230.21 138.32
  Q 230.58 135.99 229.34 134.67
  Q 219.54 124.14 210.29 111.47
  C 204.10 103.01 193.12 97.21 183.43 104.38
  C 178.27 108.20 174.64 115.67 172.56 121.81
  Q 169.72 130.21 166.93 139.74
  C 166.11 142.55 162.52 152.76 158.19 146.14
  Q 156.48 143.53 155.48 140.49
  Q 154.46 107.38 149.82 74.44
  Q 148.89 67.85 146.71 57.64
  C 144.89 49.14 140.29 37.08 130.46 34.83
  C 123.49 33.23 117.66 37.28 113.96 43.15
  C 108.94 51.09 107.16 61.92 105.83 71.67
  Q 103.86 86.11 100.74 107.30
  C 100.48 109.03 96.89 135.08 89.85 127.12
  Q 88.31 125.39 87.98 124.74
  C 83.77 116.60 79.42 105.36 73.84 96.93
  A 1.09 1.09 0.0 0 0 73.11 96.45
  Q 64.25 94.96 55.48 96.08
  A 2.11 2.09 24.5 0 0 54.58 96.41
  Q 52.50 97.79 52.03 98.40
  Q 42.64 110.67 35.67 123.80
  A 0.18 0.18 0.0 0 0 35.96 124.01
  Q 37.97 121.80 39.04 120.08
  Q 46.45 108.20 55.70 97.53
  A 1.36 1.33 -72.1 0 1 56.54 97.09
  Q 63.80 96.19 70.77 96.97
  A 1.03 1.03 0.0 0 1 71.52 97.42
  C 77.43 106.05 81.65 114.58 81.61 125.29
  L 80.26 120.78
  C 78.61 114.44 74.62 103.51 68.56 100.13
  Q 62.35 96.65 55.96 101.28
  Q 50.78 103.84 47.84 109.04
  Q 44.98 114.12 40.77 121.90
  C 38.62 125.88 34.79 128.81 34.23 133.31
  Q 34.16 133.18 34.06 133.46
  C 31.00 132.24 27.94 131.95 26.79 135.75
  C 23.57 139.41 25.31 144.19 29.75 145.64
  C 34.47 150.57 43.77 146.51 47.87 142.83
  C 52.15 139.00 56.43 132.23 62.20 129.25
  A 2.65 2.63 -26.0 0 1 65.82 130.49
  Q 67.46 134.08 69.00 139.08
  C 70.70 144.56 71.03 148.90 73.16 154.39
  Q 73.31 154.76 77.16 164.12
  A 0.21 0.20 79.9 0 0 77.33 164.25
  Q 77.43 164.26 77.60 164.31
  Q 77.77 164.37 77.90 164.55
  C 83.24 172.36 88.11 179.24 98.92 174.75
  Q 102.62 172.46 104.88 168.52
  Q 106.09 168.49 107.03 167.52
  C 114.58 154.30 117.44 140.44 120.82 125.60
  C 121.26 123.64 124.83 109.90 129.30 114.53
  C 132.51 117.86 134.05 125.32 134.84 129.96
  Q 137.39 145.00 139.94 160.04
  L 140.50 164.78
  L 138.05 160.11
  L 134.95 147.54
  Q 133.76 139.64 131.84 131.91
  Q 130.96 128.33 129.33 125.83
  C 125.72 120.26 121.95 131.78 121.26 134.03
  Q 115.25 153.61 110.71 166.43
  Q 110.37 167.38 107.97 170.18
  Q 105.97 172.51 105.15 173.87
  Q 103.85 176.02 102.00 177.12
  A 1.61 1.60 -62.5 0 1 101.31 177.34
  Q 93.10 177.82 85.70 176.57
  A 1.59 1.53 71.1 0 1 84.85 176.13
  C 80.95 172.22 77.03 164.18 71.05 153.70
  C 62.40 138.53 54.67 142.13 42.56 150.54
  A 0.72 0.69 -62.2 0 1 42.14 150.68
  L 29.37 150.79
  A 0.87 0.87 0.0 0 1 28.66 150.42
  Q 23.90 143.61 22.50 135.28
  A 1.06 1.03 58.8 0 1 22.69 134.47
  Q 31.31 122.94 33.42 119.72
  Q 45.04 101.96 49.38 95.51
  A 1.13 1.08 -85.7 0 1 49.79 95.14
  L 54.62 92.55
  A 1.28 1.26 28.7 0 1 55.11 92.41
  Q 63.58 91.76 71.76 93.15
  A 4.27 4.25 -12.4 0 1 74.56 94.93
  Q 80.40 103.32 86.20 113.60
  Q 88.36 117.43 90.47 119.32
  C 94.16 122.61 96.17 115.93 96.73 113.40
  Q 99.30 101.90 98.54 90.10
  C 98.00 81.53 95.34 73.63 86.28 71.01
  Q 80.39 69.31 76.13 69.17
  Q 41.42 68.09 6.47 69.29
  L 6.54 50.10
  C 13.86 36.87 22.16 24.35 36.99 18.70
  C 50.96 13.38 67.03 13.14 82.22 13.11
  C 107.03 13.06 131.08 13.81 153.99 13.41
  C 175.24 13.03 191.98 11.72 209.15 15.77
  C 225.45 19.61 236.94 30.29 248.73 41.68
  A 0.23 0.23 0.0 0 0 249.12 41.53
  L 249.38 36.98
  Z
  M 70.2114 99.5323
  A 0.63 0.20 -145.4 0 0 70.6164 100.0546
  A 0.63 0.20 -145.4 0 0 71.2486 100.2477
  A 0.63 0.20 -145.4 0 0 70.8436 99.7254
  A 0.63 0.20 -145.4 0 0 70.2114 99.5323
  Z"
/>
<path fill="#121f3d" d="
  M 155.48 140.49
  Q 154.95 142.21 154.03 142.07
  Q 153.37 141.96 152.29 141.01
  L 151.61 136.19
  L 145.44 85.57
  Q 147.40 85.03 147.08 81.07
  C 146.17 69.88 143.95 36.31 127.58 35.93
  C 112.95 35.58 110.01 60.98 109.06 71.29
  C 108.36 78.85 107.72 82.83 109.59 88.58
  L 104.28 128.02
  Q 102.03 144.45 97.04 160.07
  Q 95.62 161.60 94.86 163.35
  A 0.57 0.56 42.5 0 1 93.84 163.39
  L 90.67 157.52
  Q 86.59 146.18 84.00 134.18
  L 81.61 125.29
  C 81.65 114.58 77.43 106.05 71.52 97.42
  A 1.03 1.03 0.0 0 0 70.77 96.97
  Q 63.80 96.19 56.54 97.09
  A 1.36 1.33 -72.1 0 0 55.70 97.53
  Q 46.45 108.20 39.04 120.08
  Q 37.97 121.80 35.96 124.01
  A 0.18 0.18 0.0 0 1 35.67 123.80
  Q 42.64 110.67 52.03 98.40
  Q 52.50 97.79 54.58 96.41
  A 2.11 2.09 24.5 0 1 55.48 96.08
  Q 64.25 94.96 73.11 96.45
  A 1.09 1.09 0.0 0 1 73.84 96.93
  C 79.42 105.36 83.77 116.60 87.98 124.74
  Q 88.31 125.39 89.85 127.12
  C 96.89 135.08 100.48 109.03 100.74 107.30
  Q 103.86 86.11 105.83 71.67
  C 107.16 61.92 108.94 51.09 113.96 43.15
  C 117.66 37.28 123.49 33.23 130.46 34.83
  C 140.29 37.08 144.89 49.14 146.71 57.64
  Q 148.89 67.85 149.82 74.44
  Q 154.46 107.38 155.48 140.49
  Z"
/>
<path fill="#212b3b" d="
  M 145.44 85.57
  L 143.78 74.04
  Q 144.14 72.68 143.39 71.71
  L 142.77 68.06
  Q 143.73 63.62 141.41 60.54
  L 138.77 50.05
  Q 138.97 48.55 138.19 48.04
  L 136.46 43.88
  Q 135.26 38.03 130.02 37.04
  C 123.53 35.71 119.75 40.98 117.95 46.23
  C 113.35 59.61 111.61 74.41 109.59 88.58
  C 107.72 82.83 108.36 78.85 109.06 71.29
  C 110.01 60.98 112.95 35.58 127.58 35.93
  C 143.95 36.31 146.17 69.88 147.08 81.07
  Q 147.40 85.03 145.44 85.57
  Z"
/>
<path fill="#121f3d" d="
  M 136.46 43.88
  Q 134.37 39.07 130.02 37.04
  Q 135.26 38.03 136.46 43.88
  Z"
/>
<path fill="#15f3f9" d="
  M 130.02 37.04
  Q 134.37 39.07 136.46 43.88
  L 138.19 48.04
  L 138.77 50.05
  L 141.41 60.54
  L 142.01 63.99
  L 141.52 68.55
  L 139.54 64.23
  A 3.33 3.33 0.0 0 0 135.98 62.34
  L 134.61 62.56
  A 2.47 2.46 -8.6 0 0 132.56 65.33
  L 138.45 107.50
  L 137.21 108.49
  Q 134.85 90.78 132.18 73.15
  Q 130.35 61.05 128.05 52.63
  A 0.35 0.35 0.0 0 0 127.38 52.63
  C 125.38 60.28 123.79 68.56 122.71 76.31
  Q 119.46 99.62 116.32 123.02
  Q 115.51 121.08 115.35 118.65
  L 120.02 83.09
  A 0.25 0.25 0.0 0 0 119.61 82.87
  Q 113.19 88.43 111.34 96.61
  C 110.35 101.01 108.57 107.37 108.27 109.82
  Q 107.05 119.95 105.11 129.94
  L 104.28 128.02
  L 109.59 88.58
  C 111.61 74.41 113.35 59.61 117.95 46.23
  C 119.75 40.98 123.53 35.71 130.02 37.04
  Z"
/>
<path fill="#121f3d" d="
  M 138.77 50.05
  L 138.19 48.04
  Q 138.97 48.55 138.77 50.05
  Z"
/>
<path fill="#121f3d" d="
  M 137.21 108.49
  L 141.35 141.53
  L 144.46 165.86
  Q 146.00 178.40 149.03 190.60
  Q 150.26 195.54 152.74 200.73
  Q 156.17 207.87 163.37 207.07
  Q 157.20 208.18 151.46 204.35
  Q 151.19 204.18 150.80 203.69
  Q 144.43 185.80 141.59 166.98
  Q 141.26 164.75 139.94 160.04
  Q 137.39 145.00 134.84 129.96
  C 134.05 125.32 132.51 117.86 129.30 114.53
  C 124.83 109.90 121.26 123.64 120.82 125.60
  C 117.44 140.44 114.58 154.30 107.03 167.52
  L 105.98 166.75
  Q 109.68 158.34 111.53 150.02
  Q 114.31 137.45 116.32 123.02
  Q 119.46 99.62 122.71 76.31
  C 123.79 68.56 125.38 60.28 127.38 52.63
  A 0.35 0.35 0.0 0 1 128.05 52.63
  Q 130.35 61.05 132.18 73.15
  Q 134.85 90.78 137.21 108.49
  Z"
/>
<path fill="#121f3d" d="
  M 142.77 68.06
  L 142.01 63.99
  L 141.41 60.54
  Q 143.73 63.62 142.77 68.06
  Z"
/>
<path fill="#33b5fa" d="
  M 141.52 68.55
  Q 143.28 80.00 144.90 91.52
  Q 145.18 93.52 145.08 98.09
  Q 145.00 101.76 145.94 105.30
  L 145.93 109.02
  Q 141.72 112.35 139.65 118.48
  L 138.45 107.50
  L 132.56 65.33
  A 2.47 2.46 -8.6 0 1 134.61 62.56
  L 135.98 62.34
  A 3.33 3.33 0.0 0 1 139.54 64.23
  L 141.52 68.55
  Z"
/>
<path fill="#75a3f0" d="
  M 142.01 63.99
  L 142.77 68.06
  L 143.39 71.71
  L 143.78 74.04
  L 145.44 85.57
  L 151.61 136.19
  Q 151.29 136.57 151.37 137.12
  L 151.37 137.13
  C 150.60 135.05 149.96 132.90 149.41 130.71
  L 147.79 120.71
  Q 146.72 117.74 147.06 114.54
  L 146.48 104.22
  A 0.19 0.19 0.0 0 0 146.11 104.20
  L 145.94 105.30
  Q 145.00 101.76 145.08 98.09
  Q 145.18 93.52 144.90 91.52
  Q 143.28 80.00 141.52 68.55
  L 142.01 63.99
  Z"
/>
<path fill="#101726" d="
  M 249.48 63.99
  L 249.49 154.81
  Q 233.66 156.70 217.81 156.50
  C 208.73 156.38 200.00 157.65 193.49 164.16
  Q 189.51 168.14 188.34 169.82
  A 0.80 0.80 0.0 0 1 187.01 169.80
  L 186.77 169.43
  A 0.61 0.56 -69.2 0 1 186.71 169.28
  L 185.44 164.00
  Q 186.95 157.53 189.45 151.40
  C 194.86 138.22 205.14 144.86 213.40 149.95
  A 2.43 2.30 66.5 0 0 214.08 150.24
  Q 220.04 151.78 226.27 150.32
  A 1.63 1.61 -79.0 0 0 227.25 149.65
  L 232.10 142.72
  A 1.20 1.19 -32.3 0 0 232.30 141.84
  L 231.23 135.30
  A 6.41 6.35 -71.3 0 0 229.59 131.95
  Q 216.88 118.39 205.38 101.08
  A 0.99 0.96 74.3 0 0 204.64 100.65
  Q 191.28 99.71 179.07 104.00
  A 1.18 1.15 -86.5 0 0 178.40 104.61
  Q 168.91 125.06 168.74 125.38
  Q 167.07 128.59 165.61 130.46
  C 159.85 137.86 157.75 123.72 157.38 121.08
  Q 154.78 102.37 156.48 86.27
  C 158.16 70.28 171.14 68.42 184.54 68.31
  Q 202.73 68.16 221.91 68.02
  Q 237.61 67.91 249.48 63.99
  Z"
/>
<path fill="#101726" d="
  M 134.95 147.54
  C 134.73 155.62 135.22 161.72 136.22 173.97
  Q 136.30 174.86 136.12 175.38
  A 0.25 0.25 0.0 0 1 135.66 175.40
  Q 132.74 168.74 131.31 166.07
  C 128.95 161.68 125.68 157.86 120.86 162.11
  C 117.18 165.36 112.92 170.85 109.03 173.90
  Q 92.67 186.71 75.67 171.70
  C 65.70 162.91 60.97 157.01 49.78 156.10
  Q 46.28 155.81 35.35 155.54
  C 25.69 155.30 15.66 151.16 6.50 146.98
  L 6.47 69.29
  Q 41.42 68.09 76.13 69.17
  Q 80.39 69.31 86.28 71.01
  C 95.34 73.63 98.00 81.53 98.54 90.10
  Q 99.30 101.90 96.73 113.40
  C 96.17 115.93 94.16 122.61 90.47 119.32
  Q 88.36 117.43 86.20 113.60
  Q 80.40 103.32 74.56 94.93
  A 4.27 4.25 -12.4 0 0 71.76 93.15
  Q 63.58 91.76 55.11 92.41
  A 1.28 1.26 28.7 0 0 54.62 92.55
  L 49.79 95.14
  A 1.13 1.08 -85.7 0 0 49.38 95.51
  Q 45.04 101.96 33.42 119.72
  Q 31.31 122.94 22.69 134.47
  A 1.06 1.03 58.8 0 0 22.50 135.28
  Q 23.90 143.61 28.66 150.42
  A 0.87 0.87 0.0 0 0 29.37 150.79
  L 42.14 150.68
  A 0.72 0.69 -62.2 0 0 42.56 150.54
  C 54.67 142.13 62.40 138.53 71.05 153.70
  C 77.03 164.18 80.95 172.22 84.85 176.13
  A 1.59 1.53 71.1 0 0 85.70 176.57
  Q 93.10 177.82 101.31 177.34
  A 1.61 1.60 -62.5 0 0 102.00 177.12
  Q 103.85 176.02 105.15 173.87
  Q 105.97 172.51 107.97 170.18
  Q 110.37 167.38 110.71 166.43
  Q 115.25 153.61 121.26 134.03
  C 121.95 131.78 125.72 120.26 129.33 125.83
  Q 130.96 128.33 131.84 131.91
  Q 133.76 139.64 134.95 147.54
  Z"
/>
<path fill="#121f3d" d="
  M 143.78 74.04
  L 143.39 71.71
  Q 144.14 72.68 143.78 74.04
  Z"
/>
<path fill="#33b5fa" d="
  M 115.35 118.65
  Q 113.70 123.76 113.54 129.60
  A 0.28 0.28 0.0 0 1 113.02 129.74
  L 111.54 127.17
  A 0.04 0.04 0.0 0 0 111.47 127.18
  L 111.38 127.60
  A 0.84 0.81 84.2 0 1 110.94 128.16
  Q 106.96 130.16 105.57 135.02
  L 104.03 139.09
  L 105.11 129.94
  Q 107.05 119.95 108.27 109.82
  C 108.57 107.37 110.35 101.01 111.34 96.61
  Q 113.19 88.43 119.61 82.87
  A 0.25 0.25 0.0 0 1 120.02 83.09
  L 115.35 118.65
  Z"
/>
<ellipse fill="#121f3d" cx="0.00" cy="0.00" transform="translate(70.73,99.89) rotate(-145.4)" rx="0.63" ry="0.20"/>
<path fill="#2a1042" d="
  M 230.21 138.32
  C 228.73 134.38 226.37 134.12 222.38 133.85
  A 4.24 4.09 57.4 0 1 221.12 133.55
  C 214.26 130.66 211.38 123.15 208.33 116.91
  Q 205.37 110.48 201.23 106.51
  C 196.06 101.54 188.23 101.76 183.51 107.53
  Q 180.30 111.45 178.59 115.88
  C 173.60 128.74 171.23 142.47 168.84 156.11
  C 166.93 167.79 165.21 180.04 161.69 191.41
  A 0.41 0.41 0.0 0 1 160.90 191.40
  Q 157.72 179.94 156.10 168.25
  L 152.29 141.01
  Q 153.37 141.96 154.03 142.07
  Q 154.95 142.21 155.48 140.49
  Q 156.48 143.53 158.19 146.14
  C 162.52 152.76 166.11 142.55 166.93 139.74
  Q 169.72 130.21 172.56 121.81
  C 174.64 115.67 178.27 108.20 183.43 104.38
  C 193.12 97.21 204.10 103.01 210.29 111.47
  Q 219.54 124.14 229.34 134.67
  Q 230.58 135.99 230.21 138.32
  Z"
/>
<path fill="#15f3f9" d="
  M 80.26 120.78
  Q 80.03 121.81 79.64 122.81
  Q 79.63 122.85 79.63 122.89
  Q 78.16 118.47 78.18 118.38
  A 0.18 0.18 0.0 0 0 77.87 118.22
  Q 77.74 118.35 77.98 118.85
  A 0.73 0.73 0.0 0 1 77.88 119.63
  Q 75.19 122.97 71.77 124.84
  A 0.87 0.87 0.0 0 0 71.35 125.82
  L 79.98 157.80
  Q 79.79 158.13 79.20 158.37
  Q 78.45 156.35 77.85 154.22
  Q 73.89 140.08 70.09 125.84
  Q 67.91 117.67 64.51 111.54
  A 1.51 1.51 0.0 0 0 62.18 111.15
  Q 60.70 112.48 59.60 114.87
  C 53.54 128.10 47.69 145.89 29.75 145.64
  C 25.31 144.19 23.57 139.41 26.79 135.75
  C 28.85 133.62 31.46 133.88 34.06 133.46
  Q 34.16 133.18 34.23 133.31
  C 38.26 131.80 40.91 127.90 42.77 124.08
  Q 45.95 117.56 48.96 110.96
  Q 51.54 105.31 55.96 101.28
  Q 62.35 96.65 68.56 100.13
  C 74.62 103.51 78.61 114.44 80.26 120.78
  Z"
/>
<path fill="#121f3d" d="
  M 55.96 101.28
  Q 51.54 105.31 48.96 110.96
  Q 45.95 117.56 42.77 124.08
  C 40.91 127.90 38.26 131.80 34.23 133.31
  C 34.79 128.81 38.62 125.88 40.77 121.90
  Q 44.98 114.12 47.84 109.04
  Q 50.78 103.84 55.96 101.28
  Z"
/>
<path fill="#954bf8" d="
  M 208.33 116.91
  Q 207.98 117.30 207.70 117.37
  Q 207.35 117.46 207.22 116.97
  Q 207.02 116.22 206.62 115.87
  A 0.19 0.19 0.0 0 0 206.32 116.09
  C 209.06 122.72 211.61 128.33 216.62 133.99
  A 0.04 0.03 38.0 0 1 216.63 134.03
  Q 216.63 134.04 216.62 134.06
  A 0.08 0.06 -62.9 0 1 216.51 134.12
  L 210.10 126.52
  A 2.35 2.33 -23.8 0 0 207.98 125.71
  Q 204.57 126.18 202.44 123.00
  Q 199.25 118.26 192.59 113.96
  Q 186.52 122.82 185.27 132.40
  L 184.11 135.39
  Q 180.93 140.79 179.80 147.48
  A 2.20 2.19 -5.3 0 1 178.39 149.18
  Q 175.97 150.05 173.29 151.48
  C 171.43 152.48 170.73 154.72 168.84 156.11
  C 171.23 142.47 173.60 128.74 178.59 115.88
  Q 180.30 111.45 183.51 107.53
  C 188.23 101.76 196.06 101.54 201.23 106.51
  Q 205.37 110.48 208.33 116.91
  Z"
/>
<path fill="#6569fb" d="
  M 147.06 114.54
  L 145.93 109.02
  L 145.94 105.30
  L 146.11 104.20
  A 0.19 0.19 0.0 0 1 146.48 104.22
  L 147.06 114.54
  Z"
/>
<path fill="#954bf8" d="
  M 145.93 109.02
  L 147.06 114.54
  Q 146.72 117.74 147.79 120.71
  Q 146.91 127.01 149.41 130.71
  C 149.96 132.90 150.60 135.05 151.37 137.13
  L 151.37 137.12
  Q 151.29 136.57 151.61 136.19
  L 152.29 141.01
  L 156.10 168.25
  Q 155.46 168.57 155.13 169.06
  A 0.34 0.34 0.0 0 1 154.53 169.00
  Q 154.42 168.73 154.63 168.32
  A 0.08 0.07 1.5 0 0 154.53 168.23
  L 154.47 168.25
  A 0.18 0.11 77.4 0 0 154.41 168.44
  C 155.40 174.19 156.31 178.78 154.12 183.17
  A 1.65 1.65 0.0 0 1 151.72 183.81
  C 149.18 182.09 147.29 173.34 146.54 169.70
  Q 146.20 168.06 144.46 165.86
  L 141.35 141.53
  Q 142.17 129.97 139.65 118.48
  Q 141.72 112.35 145.93 109.02
  Z"
/>
<path fill="#75a3f0" d="
  M 138.45 107.50
  L 139.65 118.48
  Q 142.17 129.97 141.35 141.53
  L 137.21 108.49
  L 138.45 107.50
  Z"
/>
<path fill="#121f3d" d="
  M 79.20 158.37
  Q 81.42 166.27 86.01 171.74
  Q 91.02 177.71 98.92 174.75
  C 88.11 179.24 83.24 172.36 77.90 164.55
  Q 77.77 164.37 77.60 164.31
  Q 77.43 164.26 77.33 164.25
  A 0.21 0.20 79.9 0 1 77.16 164.12
  Q 73.31 154.76 73.16 154.39
  C 71.03 148.90 70.70 144.56 69.00 139.08
  Q 67.46 134.08 65.82 130.49
  A 2.65 2.63 -26.0 0 0 62.20 129.25
  C 56.43 132.23 52.15 139.00 47.87 142.83
  C 43.77 146.51 34.47 150.57 29.75 145.64
  C 47.69 145.89 53.54 128.10 59.60 114.87
  Q 60.70 112.48 62.18 111.15
  A 1.51 1.51 0.0 0 1 64.51 111.54
  Q 67.91 117.67 70.09 125.84
  Q 73.89 140.08 77.85 154.22
  Q 78.45 156.35 79.20 158.37
  Z"
/>
<path fill="#e922ed" d="
  M 208.33 116.91
  C 211.38 123.15 214.26 130.66 221.12 133.55
  A 4.24 4.09 57.4 0 0 222.38 133.85
  C 226.37 134.12 228.73 134.38 230.21 138.32
  C 230.92 144.49 225.99 146.37 220.74 145.38
  C 207.08 143.01 202.24 129.68 196.75 119.02
  Q 195.95 117.46 192.59 113.96
  Q 199.25 118.26 202.44 123.00
  Q 204.57 126.18 207.98 125.71
  A 2.35 2.33 -23.8 0 1 210.10 126.52
  L 216.51 134.12
  A 0.08 0.06 -62.9 0 0 216.62 134.06
  Q 216.63 134.04 216.63 134.03
  A 0.04 0.03 38.0 0 0 216.62 133.99
  C 211.61 128.33 209.06 122.72 206.32 116.09
  A 0.19 0.19 0.0 0 1 206.62 115.87
  Q 207.02 116.22 207.22 116.97
  Q 207.35 117.46 207.70 117.37
  Q 207.98 117.30 208.33 116.91
  Z"
/>
<path fill="#2a1042" d="
  M 192.59 113.96
  Q 195.95 117.46 196.75 119.02
  C 202.24 129.68 207.08 143.01 220.74 145.38
  Q 210.62 145.70 204.36 137.17
  Q 202.77 135.01 202.15 133.59
  C 200.33 129.48 195.75 128.43 191.82 129.24
  Q 190.70 129.47 188.78 131.40
  Q 186.43 133.76 185.27 132.40
  Q 186.52 122.82 192.59 113.96
  Z"
/>
<path fill="#75a3f0" d="
  M 115.35 118.65
  Q 115.51 121.08 116.32 123.02
  Q 114.31 137.45 111.53 150.02
  Q 109.68 158.34 105.98 166.75
  L 104.88 168.52
  Q 102.62 172.46 98.92 174.75
  Q 91.02 177.71 86.01 171.74
  Q 81.42 166.27 79.20 158.37
  Q 79.79 158.13 79.98 157.80
  L 80.79 158.97
  Q 82.32 164.21 85.15 168.88
  Q 88.92 175.10 96.26 174.05
  A 1.41 1.40 17.1 0 0 97.10 173.61
  Q 99.95 170.53 103.12 168.23
  A 0.02 0.01 76.7 0 1 103.14 168.25
  Q 103.14 168.27 103.13 168.29
  A 0.27 0.16 81.6 0 1 103.07 168.44
  L 97.94 173.06
  A 0.25 0.25 0.0 0 0 98.09 173.49
  C 100.62 173.60 103.46 168.57 104.19 166.57
  Q 107.41 157.72 110.31 144.50
  C 111.43 139.37 111.42 135.57 111.91 130.74
  A 0.23 0.22 -15.8 0 0 111.55 130.54
  L 105.57 135.02
  Q 106.96 130.16 110.94 128.16
  A 0.84 0.81 84.2 0 0 111.38 127.60
  L 111.47 127.18
  A 0.04 0.04 0.0 0 1 111.54 127.17
  L 113.02 129.74
  A 0.28 0.28 0.0 0 0 113.54 129.60
  Q 113.70 123.76 115.35 118.65
  Z"
/>
<path fill="#33b5fa" d="
  M 80.26 120.78
  L 81.61 125.29
  L 84.00 134.18
  Q 83.30 134.29 83.25 135.01
  A 0.18 0.18 0.0 0 1 82.94 135.11
  Q 82.08 134.12 81.87 133.56
  A 0.13 0.02 -73.9 0 1 81.88 133.46
  Q 81.89 133.43 81.87 133.39
  Q 82.15 136.04 83.36 138.39
  Q 83.78 139.19 83.60 142.33
  C 78.72 147.32 79.76 152.05 80.79 158.97
  L 79.98 157.80
  L 71.35 125.82
  A 0.87 0.87 0.0 0 1 71.77 124.84
  Q 75.19 122.97 77.88 119.63
  A 0.73 0.73 0.0 0 0 77.98 118.85
  Q 77.74 118.35 77.87 118.22
  A 0.18 0.18 0.0 0 1 78.18 118.38
  Q 78.16 118.47 79.63 122.89
  Q 79.63 122.85 79.64 122.81
  Q 80.03 121.81 80.26 120.78
  Z"
/>
<path fill="#6569fb" d="
  M 149.41 130.71
  Q 146.91 127.01 147.79 120.71
  L 149.41 130.71
  Z"
/>
<path fill="#75a3f0" d="
  M 105.11 129.94
  L 104.03 139.09
  Q 102.04 150.82 97.04 160.07
  Q 102.03 144.45 104.28 128.02
  L 105.11 129.94
  Z"
/>
<path fill="#6569fb" d="
  M 80.79 158.97
  C 79.76 152.05 78.72 147.32 83.60 142.33
  Q 85.95 146.86 87.77 152.93
  Q 88.55 155.51 90.67 157.52
  L 93.84 163.39
  A 0.57 0.56 42.5 0 0 94.86 163.35
  Q 95.62 161.60 97.04 160.07
  Q 102.04 150.82 104.03 139.09
  L 105.57 135.02
  L 111.55 130.54
  A 0.23 0.22 -15.8 0 1 111.91 130.74
  C 111.42 135.57 111.43 139.37 110.31 144.50
  Q 107.41 157.72 104.19 166.57
  C 103.46 168.57 100.62 173.60 98.09 173.49
  A 0.25 0.25 0.0 0 1 97.94 173.06
  L 103.07 168.44
  A 0.27 0.16 81.6 0 0 103.13 168.29
  Q 103.14 168.27 103.14 168.25
  A 0.02 0.01 76.7 0 0 103.12 168.23
  Q 99.95 170.53 97.10 173.61
  A 1.41 1.40 17.1 0 1 96.26 174.05
  Q 88.92 175.10 85.15 168.88
  Q 82.32 164.21 80.79 158.97
  Z"
/>
<path fill="#2a1042" d="
  M 180.23 179.63
  C 177.93 190.66 175.21 206.93 162.80 208.75
  Q 156.51 209.67 151.46 204.35
  Q 157.20 208.18 163.37 207.07
  Q 168.54 204.75 170.66 199.18
  C 175.66 186.06 177.76 171.86 179.88 158.16
  C 183.54 153.73 185.11 145.96 186.54 142.46
  C 192.10 128.92 200.40 134.50 207.59 142.12
  C 208.91 143.51 210.68 144.61 211.90 145.45
  A 0.69 0.47 55.9 0 0 212.10 145.53
  L 219.15 147.13
  A 0.22 0.22 0.0 0 1 219.10 147.56
  L 212.62 147.56
  A 2.78 2.76 -23.1 0 1 210.71 146.80
  Q 207.27 143.51 203.23 140.52
  C 191.70 131.99 187.36 143.24 185.32 152.54
  Q 182.36 166.00 180.23 179.63
  Z"
/>
<path fill="#121f3d" d="
  M 34.06 133.46
  C 31.46 133.88 28.85 133.62 26.79 135.75
  C 27.94 131.95 31.00 132.24 34.06 133.46
  Z"
/>
<path fill="#75a3f0" d="
  M 84.00 134.18
  Q 86.59 146.18 90.67 157.52
  Q 88.55 155.51 87.77 152.93
  Q 85.95 146.86 83.60 142.33
  Q 83.78 139.19 83.36 138.39
  Q 82.15 136.04 81.87 133.39
  Q 81.89 133.43 81.88 133.46
  A 0.13 0.02 -73.9 0 0 81.87 133.56
  Q 82.08 134.12 82.94 135.11
  A 0.18 0.18 0.0 0 0 83.25 135.01
  Q 83.30 134.29 84.00 134.18
  Z"
/>
<path fill="#e922ed" d="
  M 184.11 135.39
  L 179.88 158.16
  C 177.76 171.86 175.66 186.06 170.66 199.18
  Q 168.54 204.75 163.37 207.07
  Q 156.17 207.87 152.74 200.73
  Q 150.26 195.54 149.03 190.60
  Q 146.00 178.40 144.46 165.86
  Q 146.20 168.06 146.54 169.70
  C 147.29 173.34 149.18 182.09 151.72 183.81
  A 1.65 1.65 0.0 0 0 154.12 183.17
  C 156.31 178.78 155.40 174.19 154.41 168.44
  A 0.18 0.11 77.4 0 1 154.47 168.25
  L 154.53 168.23
  A 0.08 0.07 1.5 0 1 154.63 168.32
  Q 154.42 168.73 154.53 169.00
  A 0.34 0.34 0.0 0 0 155.13 169.06
  Q 155.46 168.57 156.10 168.25
  Q 157.72 179.94 160.90 191.40
  A 0.41 0.41 0.0 0 0 161.69 191.41
  C 165.21 180.04 166.93 167.79 168.84 156.11
  C 170.73 154.72 171.43 152.48 173.29 151.48
  Q 175.97 150.05 178.39 149.18
  A 2.20 2.19 -5.3 0 0 179.80 147.48
  Q 180.93 140.79 184.11 135.39
  Z"
/>
<path fill="#050713" d="
  M 134.95 147.54
  L 138.05 160.11
  L 139.64 173.95
  Q 143.13 192.38 145.08 197.93
  Q 147.42 204.57 155.98 210.85
  A 1.66 1.64 58.3 0 0 157.22 211.15
  L 168.45 209.32
  A 1.07 0.96 -62.1 0 0 168.83 209.18
  L 172.34 207.16
  A 1.05 0.98 -1.3 0 0 172.69 206.82
  L 176.44 200.61
  A 1.16 0.75 -33.0 0 0 176.52 200.43
  Q 182.35 182.62 185.44 164.00
  L 186.71 169.28
  A 0.61 0.56 -69.2 0 0 186.77 169.43
  L 187.01 169.80
  A 0.80 0.80 0.0 0 0 188.34 169.82
  Q 189.51 168.14 193.49 164.16
  C 200.00 157.65 208.73 156.38 217.81 156.50
  Q 233.66 156.70 249.49 154.81
  Q 249.54 182.92 249.50 211.06
  Q 249.48 221.81 248.06 226.24
  C 244.67 236.82 235.99 245.33 225.12 248.36
  Q 220.99 249.52 211.78 249.51
  Q 131.36 249.46 45.35 249.52
  Q 34.45 249.52 29.84 248.07
  C 18.13 244.38 9.01 234.21 6.95 221.85
  Q 6.50 219.17 6.51 207.61
  Q 6.53 177.32 6.50 146.98
  C 15.66 151.16 25.69 155.30 35.35 155.54
  Q 46.28 155.81 49.78 156.10
  C 60.97 157.01 65.70 162.91 75.67 171.70
  Q 92.67 186.71 109.03 173.90
  C 112.92 170.85 117.18 165.36 120.86 162.11
  C 125.68 157.86 128.95 161.68 131.31 166.07
  Q 132.74 168.74 135.66 175.40
  A 0.25 0.25 0.0 0 0 136.12 175.38
  Q 136.30 174.86 136.22 173.97
  C 135.22 161.72 134.73 155.62 134.95 147.54
  Z"
/>
<path fill="#101726" d="
  M 139.64 173.95
  L 138.05 160.11
  L 140.50 164.78
  Q 142.66 185.15 150.80 203.69
  Q 151.19 204.18 151.46 204.35
  Q 156.51 209.67 162.80 208.75
  C 175.21 206.93 177.93 190.66 180.23 179.63
  L 184.41 161.97
  A 0.21 0.17 -75.8 0 1 184.63 161.80
  A 0.22 0.16 -79.8 0 1 184.74 162.02
  Q 183.84 169.65 180.29 185.11
  Q 177.38 197.79 171.03 206.53
  A 1.39 1.39 0.0 0 1 170.39 207.00
  Q 162.77 209.66 154.59 208.75
  A 1.26 1.22 71.1 0 1 153.81 208.35
  C 145.01 198.84 142.25 186.27 139.64 173.95
  Z"
/>
<path fill="#2a1042" d="
  M 150.80 203.69
  Q 142.66 185.15 140.50 164.78
  L 139.94 160.04
  Q 141.26 164.75 141.59 166.98
  Q 144.43 185.80 150.80 203.69
  Z"
/>
<path fill="#101726" d="
  M 105.98 166.75
  L 107.03 167.52
  Q 106.09 168.49 104.88 168.52
  L 105.98 166.75
  Z"
/>
</svg>
