<?xml version="1.0" encoding="UTF-8" standalone="no"?>
<!DOCTYPE svg PUBLIC "-//W3C//DTD SVG 1.1//EN" "http://www.w3.org/Graphics/SVG/1.1/DTD/svg11.dtd">
<svg xmlns="http://www.w3.org/2000/svg" version="1.1" viewBox="0.00 0.00 300.00 300.00">
<g stroke-width="2.00" fill="none" stroke-linecap="butt">
<path stroke="#8e9092" vector-effect="non-scaling-stroke" d="
  M 210.13 152.19
  Q 209.87 145.01 208.36 139.75
  Q 207.23 135.77 204.36 129.24
  C 204.02 128.47 203.40 127.81 203.03 126.96
  Q 202.33 125.36 202.23 125.17
  C 194.92 112.37 182.65 102.66 168.24 99.22
  Q 168.11 99.19 167.75 99.18
  Q 167.37 99.17 167.10 98.96
  Q 166.79 98.73 166.41 98.67
  C 155.53 96.86 143.57 96.90 133.28 101.19
  Q 122.73 105.58 116.47 115.24
  C 115.23 117.16 114.68 119.58 113.50 121.79
  Q 113.05 122.62 113.06 121.67
  Q 113.20 92.09 113.10 62.50
  Q 113.05 50.24 102.29 43.15
  Q 100.82 42.18 96.25 40.64
  C 94.25 39.96 92.11 40.04 89.97 39.72
  Q 89.30 39.62 89.30 40.31
  L 89.27 243.25
  A 0.64 0.64 0.0 0 0 89.94 243.89
  C 103.03 243.19 112.52 234.37 112.74 220.98
  Q 112.80 217.36 113.23 213.84
  Q 113.27 213.51 113.36 213.83
  C 117.94 230.23 128.58 241.54 146.00 243.49
  C 164.16 245.54 180.64 239.67 192.37 225.92
  C 197.09 220.39 199.92 216.55 202.83 210.35
  Q 204.94 205.85 206.45 200.99
  Q 210.20 188.89 211.10 177.24
  Q 212.09 164.55 210.40 149.94
  Q 210.35 149.45 210.26 149.91
  C 210.13 150.54 210.30 151.48 210.22 152.19
  Q 210.16 152.80 210.13 152.19"
/>
<path stroke="#8e9092" vector-effect="non-scaling-stroke" d="
  M 232.90 229.06
  A 14.91 14.91 0.0 0 0 217.99 214.15
  A 14.91 14.91 0.0 0 0 203.08 229.06
  A 14.91 14.91 0.0 0 0 217.99 243.97
  A 14.91 14.91 0.0 0 0 232.90 229.06"
/>
<path stroke="#8e9092" vector-effect="non-scaling-stroke" d="
  M 131.53 124.74
  C 128.77 125.61 121.79 133.56 120.33 136.23
  C 113.04 149.66 111.98 167.74 113.81 182.25
  Q 115.38 194.67 118.52 201.49
  Q 122.98 211.15 125.47 213.53
  C 130.01 217.88 133.14 219.88 138.85 221.85
  C 141.40 222.73 144.06 222.88 146.75 223.14
  C 182.35 226.58 189.39 186.22 187.10 160.52
  Q 185.77 145.56 177.92 132.80
  C 170.40 120.59 155.01 115.66 141.51 119.72
  C 137.78 120.84 134.98 121.86 132.14 124.39
  Q 131.87 124.63 131.53 124.74"
/>
</g>
<path fill="#202427" d="
  M 106.63 10.38
  Q 111.66 8.78 115.15 8.04
  C 117.42 7.56 120.65 6.52 123.53 6.38
  Q 123.89 6.36 124.11 6.24
  Q 124.25 6.15 124.39 6.05
  Q 124.62 5.86 124.93 5.83
  C 128.39 5.57 131.54 4.86 135.17 4.78
  C 137.07 4.74 138.50 4.06 140.29 4.06
  Q 150.52 4.07 160.73 4.09
  C 161.17 4.09 161.44 4.26 161.80 4.47
  Q 162.13 4.67 162.50 4.67
  Q 167.44 4.69 172.26 5.69
  C 173.07 5.86 174.40 5.58 175.32 6.23
  A 1.38 1.36 59.7 0 0 176.25 6.48
  C 178.47 6.29 179.77 7.15 181.68 7.51
  C 203.12 11.50 224.73 22.73 241.49 36.27
  C 270.47 59.70 288.67 92.23 294.36 128.87
  C 294.55 130.07 294.59 132.82 295.02 134.62
  C 295.57 136.94 295.12 139.30 295.46 141.66
  C 296.06 145.97 295.93 149.69 295.90 153.81
  C 295.88 156.77 294.95 160.37 295.36 163.91
  A 1.84 1.80 55.2 0 1 295.20 164.86
  C 294.51 166.36 294.76 168.09 294.59 169.35
  C 292.67 183.24 288.92 197.39 282.85 210.06
  C 281.77 212.31 281.00 214.65 279.76 216.76
  Q 277.81 220.07 275.93 223.41
  Q 269.99 233.95 262.18 243.18
  Q 258.80 247.18 255.31 251.10
  C 252.44 254.33 248.82 257.17 245.59 260.34
  Q 240.42 265.40 227.42 273.61
  Q 206.88 286.58 183.21 292.16
  C 180.93 292.69 178.63 293.52 176.29 293.60
  Q 175.80 293.62 175.36 293.86
  C 174.36 294.41 173.27 294.11 172.28 294.31
  Q 167.48 295.31 162.56 295.32
  Q 162.09 295.32 161.70 295.57
  Q 161.20 295.89 161.00 295.89
  Q 150.80 295.91 140.59 295.91
  Q 139.59 295.91 136.97 295.40
  C 135.34 295.08 133.62 295.40 132.03 295.10
  Q 128.71 294.49 125.34 294.17
  Q 124.88 294.13 124.48 293.90
  Q 123.52 293.37 122.39 293.57
  Q 121.90 293.66 121.42 293.51
  C 118.07 292.51 114.17 291.88 111.27 291.08
  Q 81.05 282.67 56.75 262.75
  Q 52.52 259.29 45.77 252.88
  Q 44.58 251.75 42.59 249.26
  C 41.24 247.58 39.44 245.97 38.19 244.49
  Q 12.32 213.72 5.49 173.91
  C 5.31 172.89 5.44 170.95 4.81 169.54
  A 1.80 1.72 38.5 0 1 4.67 168.51
  Q 5.04 166.36 4.12 164.45
  A 1.55 1.48 -55.0 0 1 3.99 163.60
  C 4.42 160.15 3.49 156.80 3.50 153.83
  C 3.52 149.77 3.24 145.68 3.92 141.66
  C 4.33 139.24 3.89 137.19 4.49 134.63
  Q 4.86 133.05 4.70 131.40
  Q 4.65 130.92 4.84 130.46
  C 5.42 129.02 5.20 127.51 5.43 126.24
  C 10.18 99.73 20.82 75.96 38.43 55.22
  C 39.66 53.76 41.51 52.19 42.84 50.46
  C 44.67 48.07 46.66 45.90 48.94 44.18
  C 51.70 42.10 53.99 39.56 56.77 37.26
  Q 78.55 19.27 106.63 10.38
  Z
  M 210.13 152.19
  Q 209.87 145.01 208.36 139.75
  Q 207.23 135.77 204.36 129.24
  C 204.02 128.47 203.40 127.81 203.03 126.96
  Q 202.33 125.36 202.23 125.17
  C 194.92 112.37 182.65 102.66 168.24 99.22
  Q 168.11 99.19 167.75 99.18
  Q 167.37 99.17 167.10 98.96
  Q 166.79 98.73 166.41 98.67
  C 155.53 96.86 143.57 96.90 133.28 101.19
  Q 122.73 105.58 116.47 115.24
  C 115.23 117.16 114.68 119.58 113.50 121.79
  Q 113.05 122.62 113.06 121.67
  Q 113.20 92.09 113.10 62.50
  Q 113.05 50.24 102.29 43.15
  Q 100.82 42.18 96.25 40.64
  C 94.25 39.96 92.11 40.04 89.97 39.72
  Q 89.30 39.62 89.30 40.31
  L 89.27 243.25
  A 0.64 0.64 0.0 0 0 89.94 243.89
  C 103.03 243.19 112.52 234.37 112.74 220.98
  Q 112.80 217.36 113.23 213.84
  Q 113.27 213.51 113.36 213.83
  C 117.94 230.23 128.58 241.54 146.00 243.49
  C 164.16 245.54 180.64 239.67 192.37 225.92
  C 197.09 220.39 199.92 216.55 202.83 210.35
  Q 204.94 205.85 206.45 200.99
  Q 210.20 188.89 211.10 177.24
  Q 212.09 164.55 210.40 149.94
  Q 210.35 149.45 210.26 149.91
  C 210.13 150.54 210.30 151.48 210.22 152.19
  Q 210.16 152.80 210.13 152.19
  Z
  M 232.90 229.06
  A 14.91 14.91 0.0 0 0 217.99 214.15
  A 14.91 14.91 0.0 0 0 203.08 229.06
  A 14.91 14.91 0.0 0 0 217.99 243.97
  A 14.91 14.91 0.0 0 0 232.90 229.06
  Z"
/>
<path fill="#fcfcfc" d="
  M 210.22 152.19
  C 210.30 151.48 210.13 150.54 210.26 149.91
  Q 210.35 149.45 210.40 149.94
  Q 212.09 164.55 211.10 177.24
  Q 210.20 188.89 206.45 200.99
  Q 204.94 205.85 202.83 210.35
  C 199.92 216.55 197.09 220.39 192.37 225.92
  C 180.64 239.67 164.16 245.54 146.00 243.49
  C 128.58 241.54 117.94 230.23 113.36 213.83
  Q 113.27 213.51 113.23 213.84
  Q 112.80 217.36 112.74 220.98
  C 112.52 234.37 103.03 243.19 89.94 243.89
  A 0.64 0.64 0.0 0 1 89.27 243.25
  L 89.30 40.31
  Q 89.30 39.62 89.97 39.72
  C 92.11 40.04 94.25 39.96 96.25 40.64
  Q 100.82 42.18 102.29 43.15
  Q 113.05 50.24 113.10 62.50
  Q 113.20 92.09 113.06 121.67
  Q 113.05 122.62 113.50 121.79
  C 114.68 119.58 115.23 117.16 116.47 115.24
  Q 122.73 105.58 133.28 101.19
  C 143.57 96.90 155.53 96.86 166.41 98.67
  Q 166.79 98.73 167.10 98.96
  Q 167.37 99.17 167.75 99.18
  Q 168.11 99.19 168.24 99.22
  C 182.65 102.66 194.92 112.37 202.23 125.17
  Q 202.33 125.36 203.03 126.96
  C 203.40 127.81 204.02 128.47 204.36 129.24
  Q 207.23 135.77 208.36 139.75
  Q 209.87 145.01 210.13 152.19
  Q 210.16 152.80 210.22 152.19
  Z
  M 131.53 124.74
  C 128.77 125.61 121.79 133.56 120.33 136.23
  C 113.04 149.66 111.98 167.74 113.81 182.25
  Q 115.38 194.67 118.52 201.49
  Q 122.98 211.15 125.47 213.53
  C 130.01 217.88 133.14 219.88 138.85 221.85
  C 141.40 222.73 144.06 222.88 146.75 223.14
  C 182.35 226.58 189.39 186.22 187.10 160.52
  Q 185.77 145.56 177.92 132.80
  C 170.40 120.59 155.01 115.66 141.51 119.72
  C 137.78 120.84 134.98 121.86 132.14 124.39
  Q 131.87 124.63 131.53 124.74
  Z"
/>
<path fill="#202427" d="
  M 132.14 124.39
  C 134.98 121.86 137.78 120.84 141.51 119.72
  C 155.01 115.66 170.40 120.59 177.92 132.80
  Q 185.77 145.56 187.10 160.52
  C 189.39 186.22 182.35 226.58 146.75 223.14
  C 144.06 222.88 141.40 222.73 138.85 221.85
  C 133.14 219.88 130.01 217.88 125.47 213.53
  Q 122.98 211.15 118.52 201.49
  Q 115.38 194.67 113.81 182.25
  C 111.98 167.74 113.04 149.66 120.33 136.23
  C 121.79 133.56 128.77 125.61 131.53 124.74
  Q 131.87 124.63 132.14 124.39
  Z"
/>
<circle fill="#fcfcfc" cx="217.99" cy="229.06" r="14.91"/>
</svg>
