<?xml version="1.0" encoding="UTF-8" standalone="no"?>
<!DOCTYPE svg PUBLIC "-//W3C//DTD SVG 1.1//EN" "http://www.w3.org/Graphics/SVG/1.1/DTD/svg11.dtd">
<svg xmlns="http://www.w3.org/2000/svg" version="1.1" viewBox="0.00 0.00 32.00 32.00">
<g stroke-width="2.00" fill="none" stroke-linecap="butt">
<path stroke="#175839" vector-effect="non-scaling-stroke" d="
  M 1.07 13.21
  Q 0.61 13.30 0.44 13.64
  Q 0.30 13.92 0.39 14.20"
/>
<path stroke="#020f18" vector-effect="non-scaling-stroke" d="
  M 0.39 14.20
  Q 2.79 17.92 5.08 21.53
  Q 5.22 21.76 4.28 22.53"
/>
<path stroke="#175839" vector-effect="non-scaling-stroke" d="
  M 4.28 22.53
  Q 3.92 23.72 4.37 25.34
  A 0.78 0.78 0.0 0 0 5.12 25.91
  Q 5.49 25.92 5.82 25.63
  A 0.83 0.81 -53.8 0 1 6.68 25.49
  Q 9.83 26.81 12.19 25.55
  A 1.09 1.08 40.8 0 1 13.06 25.49
  Q 15.66 26.44 19.35 26.05
  A 1.94 1.92 51.6 0 1 20.17 26.15
  Q 23.15 27.20 23.51 26.61
  Q 24.70 24.68 26.35 25.96
  A 1.24 1.24 0.0 0 0 28.35 24.91
  L 28.21 22.26"
/>
<path stroke="#020f18" vector-effect="non-scaling-stroke" d="
  M 28.21 22.26
  L 31.48 14.21"
/>
<path stroke="#175839" vector-effect="non-scaling-stroke" d="
  M 31.48 14.21
  Q 31.73 13.75 31.53 13.22"
/>
<path stroke="#020f18" vector-effect="non-scaling-stroke" d="
  M 31.53 13.22
  C 27.81 7.06 23.44 2.57 15.83 2.41
  C 8.89 2.26 3.52 7.03 1.07 13.21"
/>
<path stroke="#18664c" vector-effect="non-scaling-stroke" d="
  M 31.53 13.22
  C 28.05 13.80 27.97 10.60 25.35 10.32
  A 0.98 0.97 -12.0 0 1 24.60 9.84
  L 23.35 7.68
  A 1.53 1.52 45.4 0 0 20.72 7.66
  Q 19.95 8.94 18.25 9.47
  A 0.61 0.60 65.5 0 1 17.54 9.20
  L 15.31 5.33
  A 1.26 1.26 0.0 0 0 13.05 5.50
  L 10.85 11.13
  A 0.32 0.32 0.0 0 1 10.27 11.17
  L 9.52 9.87
  A 0.80 0.79 58.7 0 0 8.40 9.59
  Q 7.65 10.07 7.29 10.81"
/>
<path stroke="#093739" vector-effect="non-scaling-stroke" d="
  M 7.29 10.81
  C 6.21 11.23 5.27 10.85 4.42 11.19
  Q 3.77 11.44 3.51 11.98"
/>
<path stroke="#18664c" vector-effect="non-scaling-stroke" d="
  M 3.51 11.98
  Q 2.38 12.86 1.07 13.21"
/>
<path stroke="#18664c" vector-effect="non-scaling-stroke" d="
  M 31.48 14.21
  C 30.05 13.84 28.42 15.48 27.21 16.13
  A 0.84 0.84 0.0 0 1 26.14 15.89
  Q 26.07 15.79 25.93 15.61
  A 0.55 0.55 0.0 0 0 25.05 15.62
  L 23.78 17.36
  A 1.16 1.13 -82.8 0 1 23.33 17.72
  Q 21.85 18.36 21.56 16.88"
/>
<path stroke="#1f815a" vector-effect="non-scaling-stroke" d="
  M 21.56 16.88
  Q 19.58 12.45 15.57 18.93"
/>
<path stroke="#18664c" vector-effect="non-scaling-stroke" d="
  M 15.57 18.93
  Q 14.59 16.51 13.46 17.24
  A 0.59 0.53 -4.9 0 0 13.30 17.41
  L 12.19 19.33
  A 1.80 1.79 44.9 0 1 9.08 19.33
  L 6.43 14.74
  A 0.32 0.32 0.0 0 0 5.84 14.86
  Q 5.74 15.70 6.32 16.08
  A 0.40 0.40 0.0 0 1 6.24 16.79
  Q 6.20 16.80 5.69 16.62
  Q 5.17 16.44 4.95 16.15
  Q 3.12 13.82 0.39 14.20"
/>
<path stroke="#1f815a" vector-effect="non-scaling-stroke" d="
  M 3.51 11.98
  Q 4.18 11.70 4.08 12.65
  Q 3.99 13.48 4.19 13.72
  Q 4.55 14.16 4.87 14.13
  A 0.58 0.57 -81.9 0 0 5.33 13.78
  Q 6.01 12.18 7.29 10.81"
/>
<path stroke="#093739" vector-effect="non-scaling-stroke" d="
  M 15.57 18.93
  Q 15.86 21.15 18.32 21.89
  A 0.64 0.64 0.0 0 0 19.07 21.58
  L 21.56 16.88"
/>
<path stroke="#18664c" vector-effect="non-scaling-stroke" d="
  M 28.21 22.26
  Q 26.97 21.83 26.93 23.65
  A 0.37 0.36 64.9 0 1 26.85 23.88
  Q 26.78 23.97 26.62 24.11
  A 0.31 0.31 0.0 0 1 26.11 23.95
  L 25.87 22.75
  A 0.64 0.57 -76.8 0 0 25.69 22.42
  Q 24.58 21.32 23.86 23.49
  A 0.57 0.57 0.0 0 1 23.00 23.78
  Q 21.90 23.04 20.83 23.14
  A 0.89 0.87 67.5 0 1 20.10 22.83
  Q 20.06 22.78 20.02 22.74
  A 0.86 0.84 -35.9 0 0 19.10 22.60
  Q 18.10 23.06 16.97 23.11
  Q 10.53 23.40 4.28 22.53"
/>
<path stroke="#093739" vector-effect="non-scaling-stroke" d="
  M 17.66 7.06
  Q 17.73 7.67 18.20 7.80
  A 0.61 0.50 -18.0 0 0 18.80 6.87
  Q 18.59 6.76 18.02 6.70
  A 0.33 0.33 0.0 0 0 17.66 7.06"
/>
<path stroke="#093739" vector-effect="non-scaling-stroke" d="
  M 9.67 8.56
  A 0.09 0.09 0.0 0 0 9.58 8.47
  A 0.09 0.09 0.0 0 0 9.49 8.56
  A 0.09 0.09 0.0 0 0 9.58 8.65
  A 0.09 0.09 0.0 0 0 9.67 8.56"
/>
<path stroke="#1f815a" vector-effect="non-scaling-stroke" d="
  M 13.91 6.28
  C 13.43 7.50 12.85 10.96 11.37 12.05
  A 0.86 0.85 70.8 0 0 11.02 12.78
  L 11.03 13.74
  A 0.44 0.44 0.0 0 0 11.88 13.89
  L 12.79 11.56
  A 0.75 0.74 40.6 0 1 14.13 11.46
  L 15.32 13.52
  A 0.61 0.61 0.0 0 0 16.35 13.56
  Q 17.67 11.60 16.74 10.48
  C 15.62 9.15 15.47 8.35 14.86 6.32
  A 0.50 0.50 0.0 0 0 13.91 6.28"
/>
<path stroke="#1f815a" vector-effect="non-scaling-stroke" d="
  M 20.60 9.55
  A 0.78 0.76 -45.7 0 0 20.60 10.30
  L 22.23 13.11
  A 0.47 0.47 0.0 0 0 23.11 12.92
  Q 23.40 9.97 22.77 8.02
  A 0.67 0.67 0.0 0 0 21.56 7.89
  L 20.60 9.55"
/>
<path stroke="#1f815a" vector-effect="non-scaling-stroke" d="
  M 8.16 11.71
  Q 7.68 12.16 7.19 13.17
  A 0.60 0.59 -66.6 0 0 7.51 13.99
  L 8.05 14.21
  A 0.89 0.89 0.0 0 1 8.61 14.92
  Q 8.91 17.33 10.33 19.11
  A 0.39 0.38 -33.2 0 0 10.82 19.21
  L 11.09 19.05
  A 0.54 0.53 58.7 0 0 11.27 18.29
  Q 9.33 15.29 8.56 11.83
  A 0.24 0.24 0.0 0 0 8.16 11.71"
/>
<path stroke="#1f815a" vector-effect="non-scaling-stroke" d="
  M 18.74 12.92
  Q 18.48 13.50 18.33 13.82
  A 0.32 0.32 0.0 0 0 18.64 14.27
  Q 19.67 14.21 19.99 13.50
  Q 20.32 12.79 19.70 11.97
  A 0.32 0.32 0.0 0 0 19.16 12.02
  Q 19.01 12.35 18.74 12.92"
/>
<path stroke="#1f815a" vector-effect="non-scaling-stroke" d="
  M 25.91 14.92
  A 1.10 1.08 -63.1 0 0 27.86 14.27
  Q 27.88 13.53 27.00 13.41
  A 0.81 0.80 -67.2 0 0 26.28 13.71
  Q 25.62 14.55 25.91 14.92"
/>
<path stroke="#1f815a" vector-effect="non-scaling-stroke" d="
  M 24.32 14.42
  A 0.80 0.80 0.0 0 0 23.52 13.62
  A 0.80 0.80 0.0 0 0 22.72 14.42
  A 0.80 0.80 0.0 0 0 23.52 15.22
  A 0.80 0.80 0.0 0 0 24.32 14.42"
/>
</g>
<path fill="#010105" d="
  M 32.00 0.00
  L 32.00 32.00
  L 0.00 32.00
  L 0.00 0.00
  L 32.00 0.00
  Z
  M 1.07 13.21
  Q 0.61 13.30 0.44 13.64
  Q 0.30 13.92 0.39 14.20
  Q 2.79 17.92 5.08 21.53
  Q 5.22 21.76 4.28 22.53
  Q 3.92 23.72 4.37 25.34
  A 0.78 0.78 0.0 0 0 5.12 25.91
  Q 5.49 25.92 5.82 25.63
  A 0.83 0.81 -53.8 0 1 6.68 25.49
  Q 9.83 26.81 12.19 25.55
  A 1.09 1.08 40.8 0 1 13.06 25.49
  Q 15.66 26.44 19.35 26.05
  A 1.94 1.92 51.6 0 1 20.17 26.15
  Q 23.15 27.20 23.51 26.61
  Q 24.70 24.68 26.35 25.96
  A 1.24 1.24 0.0 0 0 28.35 24.91
  L 28.21 22.26
  L 31.48 14.21
  Q 31.73 13.75 31.53 13.22
  C 27.81 7.06 23.44 2.57 15.83 2.41
  C 8.89 2.26 3.52 7.03 1.07 13.21
  Z"
/>
<path fill="#021c2a" d="
  M 31.53 13.22
  C 28.05 13.80 27.97 10.60 25.35 10.32
  A 0.98 0.97 -12.0 0 1 24.60 9.84
  L 23.35 7.68
  A 1.53 1.52 45.4 0 0 20.72 7.66
  Q 19.95 8.94 18.25 9.47
  A 0.61 0.60 65.5 0 1 17.54 9.20
  L 15.31 5.33
  A 1.26 1.26 0.0 0 0 13.05 5.50
  L 10.85 11.13
  A 0.32 0.32 0.0 0 1 10.27 11.17
  L 9.52 9.87
  A 0.80 0.79 58.7 0 0 8.40 9.59
  Q 7.65 10.07 7.29 10.81
  C 6.21 11.23 5.27 10.85 4.42 11.19
  Q 3.77 11.44 3.51 11.98
  Q 2.38 12.86 1.07 13.21
  C 3.52 7.03 8.89 2.26 15.83 2.41
  C 23.44 2.57 27.81 7.06 31.53 13.22
  Z
  M 17.66 7.06
  Q 17.73 7.67 18.20 7.80
  A 0.61 0.50 -18.0 0 0 18.80 6.87
  Q 18.59 6.76 18.02 6.70
  A 0.33 0.33 0.0 0 0 17.66 7.06
  Z
  M 9.67 8.56
  A 0.09 0.09 0.0 0 0 9.58 8.47
  A 0.09 0.09 0.0 0 0 9.49 8.56
  A 0.09 0.09 0.0 0 0 9.58 8.65
  A 0.09 0.09 0.0 0 0 9.67 8.56
  Z"
/>
<path fill="#2daf6d" d="
  M 31.53 13.22
  Q 31.73 13.75 31.48 14.21
  C 30.05 13.84 28.42 15.48 27.21 16.13
  A 0.84 0.84 0.0 0 1 26.14 15.89
  Q 26.07 15.79 25.93 15.61
  A 0.55 0.55 0.0 0 0 25.05 15.62
  L 23.78 17.36
  A 1.16 1.13 -82.8 0 1 23.33 17.72
  Q 21.85 18.36 21.56 16.88
  Q 19.58 12.45 15.57 18.93
  Q 14.59 16.51 13.46 17.24
  A 0.59 0.53 -4.9 0 0 13.30 17.41
  L 12.19 19.33
  A 1.80 1.79 44.9 0 1 9.08 19.33
  L 6.43 14.74
  A 0.32 0.32 0.0 0 0 5.84 14.86
  Q 5.74 15.70 6.32 16.08
  A 0.40 0.40 0.0 0 1 6.24 16.79
  Q 6.20 16.80 5.69 16.62
  Q 5.17 16.44 4.95 16.15
  Q 3.12 13.82 0.39 14.20
  Q 0.30 13.92 0.44 13.64
  Q 0.61 13.30 1.07 13.21
  Q 2.38 12.86 3.51 11.98
  Q 4.18 11.70 4.08 12.65
  Q 3.99 13.48 4.19 13.72
  Q 4.55 14.16 4.87 14.13
  A 0.58 0.57 -81.9 0 0 5.33 13.78
  Q 6.01 12.18 7.29 10.81
  Q 7.65 10.07 8.40 9.59
  A 0.80 0.79 58.7 0 1 9.52 9.87
  L 10.27 11.17
  A 0.32 0.32 0.0 0 0 10.85 11.13
  L 13.05 5.50
  A 1.26 1.26 0.0 0 1 15.31 5.33
  L 17.54 9.20
  A 0.61 0.60 65.5 0 0 18.25 9.47
  Q 19.95 8.94 20.72 7.66
  A 1.53 1.52 45.4 0 1 23.35 7.68
  L 24.60 9.84
  A 0.98 0.97 -12.0 0 0 25.35 10.32
  C 27.97 10.60 28.05 13.80 31.53 13.22
  Z
  M 13.91 6.28
  C 13.43 7.50 12.85 10.96 11.37 12.05
  A 0.86 0.85 70.8 0 0 11.02 12.78
  L 11.03 13.74
  A 0.44 0.44 0.0 0 0 11.88 13.89
  L 12.79 11.56
  A 0.75 0.74 40.6 0 1 14.13 11.46
  L 15.32 13.52
  A 0.61 0.61 0.0 0 0 16.35 13.56
  Q 17.67 11.60 16.74 10.48
  C 15.62 9.15 15.47 8.35 14.86 6.32
  A 0.50 0.50 0.0 0 0 13.91 6.28
  Z
  M 20.60 9.55
  A 0.78 0.76 -45.7 0 0 20.60 10.30
  L 22.23 13.11
  A 0.47 0.47 0.0 0 0 23.11 12.92
  Q 23.40 9.97 22.77 8.02
  A 0.67 0.67 0.0 0 0 21.56 7.89
  L 20.60 9.55
  Z
  M 8.16 11.71
  Q 7.68 12.16 7.19 13.17
  A 0.60 0.59 -66.6 0 0 7.51 13.99
  L 8.05 14.21
  A 0.89 0.89 0.0 0 1 8.61 14.92
  Q 8.91 17.33 10.33 19.11
  A 0.39 0.38 -33.2 0 0 10.82 19.21
  L 11.09 19.05
  A 0.54 0.53 58.7 0 0 11.27 18.29
  Q 9.33 15.29 8.56 11.83
  A 0.24 0.24 0.0 0 0 8.16 11.71
  Z
  M 18.74 12.92
  Q 18.48 13.50 18.33 13.82
  A 0.32 0.32 0.0 0 0 18.64 14.27
  Q 19.67 14.21 19.99 13.50
  Q 20.32 12.79 19.70 11.97
  A 0.32 0.32 0.0 0 0 19.16 12.02
  Q 19.01 12.35 18.74 12.92
  Z
  M 25.91 14.92
  A 1.10 1.08 -63.1 0 0 27.86 14.27
  Q 27.88 13.53 27.00 13.41
  A 0.81 0.80 -67.2 0 0 26.28 13.71
  Q 25.62 14.55 25.91 14.92
  Z
  M 24.32 14.42
  A 0.80 0.80 0.0 0 0 23.52 13.62
  A 0.80 0.80 0.0 0 0 22.72 14.42
  A 0.80 0.80 0.0 0 0 23.52 15.22
  A 0.80 0.80 0.0 0 0 24.32 14.42
  Z"
/>
<path fill="#105247" d="
  M 13.91 6.28
  A 0.50 0.50 0.0 0 1 14.86 6.32
  C 15.47 8.35 15.62 9.15 16.74 10.48
  Q 17.67 11.60 16.35 13.56
  A 0.61 0.61 0.0 0 1 15.32 13.52
  L 14.13 11.46
  A 0.75 0.74 40.6 0 0 12.79 11.56
  L 11.88 13.89
  A 0.44 0.44 0.0 0 1 11.03 13.74
  L 11.02 12.78
  A 0.86 0.85 70.8 0 1 11.37 12.05
  C 12.85 10.96 13.43 7.50 13.91 6.28
  Z"
/>
<path fill="#105247" d="
  M 18.02 6.70
  Q 18.59 6.76 18.80 6.87
  A 0.61 0.50 -18.0 0 1 18.20 7.80
  Q 17.73 7.67 17.66 7.06
  A 0.33 0.33 0.0 0 1 18.02 6.70
  Z"
/>
<path fill="#105247" d="
  M 20.60 9.55
  L 21.56 7.89
  A 0.67 0.67 0.0 0 1 22.77 8.02
  Q 23.40 9.97 23.11 12.92
  A 0.47 0.47 0.0 0 1 22.23 13.11
  L 20.60 10.30
  A 0.78 0.76 -45.7 0 1 20.60 9.55
  Z"
/>
<circle fill="#105247" cx="9.58" cy="8.56" r="0.09"/>
<path fill="#105247" d="
  M 7.29 10.81
  Q 6.01 12.18 5.33 13.78
  A 0.58 0.57 -81.9 0 1 4.87 14.13
  Q 4.55 14.16 4.19 13.72
  Q 3.99 13.48 4.08 12.65
  Q 4.18 11.70 3.51 11.98
  Q 3.77 11.44 4.42 11.19
  C 5.27 10.85 6.21 11.23 7.29 10.81
  Z"
/>
<path fill="#105247" d="
  M 8.56 11.83
  Q 9.33 15.29 11.27 18.29
  A 0.54 0.53 58.7 0 1 11.09 19.05
  L 10.82 19.21
  A 0.39 0.38 -33.2 0 1 10.33 19.11
  Q 8.91 17.33 8.61 14.92
  A 0.89 0.89 0.0 0 0 8.05 14.21
  L 7.51 13.99
  A 0.60 0.59 -66.6 0 1 7.19 13.17
  Q 7.68 12.16 8.16 11.71
  A 0.24 0.24 0.0 0 1 8.56 11.83
  Z"
/>
<path fill="#105247" d="
  M 19.99 13.50
  Q 19.67 14.21 18.64 14.27
  A 0.32 0.32 0.0 0 1 18.33 13.82
  Q 18.48 13.50 18.74 12.92
  Q 19.01 12.35 19.16 12.02
  A 0.32 0.32 0.0 0 1 19.70 11.97
  Q 20.32 12.79 19.99 13.50
  Z"
/>
<path fill="#105247" d="
  M 25.91 14.92
  Q 25.62 14.55 26.28 13.71
  A 0.81 0.80 -67.2 0 1 27.00 13.41
  Q 27.88 13.53 27.86 14.27
  A 1.10 1.08 -63.1 0 1 25.91 14.92
  Z"
/>
<circle fill="#105247" cx="23.52" cy="14.42" r="0.80"/>
<path fill="#021c2a" d="
  M 15.57 18.93
  Q 15.86 21.15 18.32 21.89
  A 0.64 0.64 0.0 0 0 19.07 21.58
  L 21.56 16.88
  Q 21.85 18.36 23.33 17.72
  A 1.16 1.13 -82.8 0 0 23.78 17.36
  L 25.05 15.62
  A 0.55 0.55 0.0 0 1 25.93 15.61
  Q 26.07 15.79 26.14 15.89
  A 0.84 0.84 0.0 0 0 27.21 16.13
  C 28.42 15.48 30.05 13.84 31.48 14.21
  L 28.21 22.26
  Q 26.97 21.83 26.93 23.65
  A 0.37 0.36 64.9 0 1 26.85 23.88
  Q 26.78 23.97 26.62 24.11
  A 0.31 0.31 0.0 0 1 26.11 23.95
  L 25.87 22.75
  A 0.64 0.57 -76.8 0 0 25.69 22.42
  Q 24.58 21.32 23.86 23.49
  A 0.57 0.57 0.0 0 1 23.00 23.78
  Q 21.90 23.04 20.83 23.14
  A 0.89 0.87 67.5 0 1 20.10 22.83
  Q 20.06 22.78 20.02 22.74
  A 0.86 0.84 -35.9 0 0 19.10 22.60
  Q 18.10 23.06 16.97 23.11
  Q 10.53 23.40 4.28 22.53
  Q 5.22 21.76 5.08 21.53
  Q 2.79 17.92 0.39 14.20
  Q 3.12 13.82 4.95 16.15
  Q 5.17 16.44 5.69 16.62
  Q 6.20 16.80 6.24 16.79
  A 0.40 0.40 0.0 0 0 6.32 16.08
  Q 5.74 15.70 5.84 14.86
  A 0.32 0.32 0.0 0 1 6.43 14.74
  L 9.08 19.33
  A 1.80 1.79 44.9 0 0 12.19 19.33
  L 13.30 17.41
  A 0.59 0.53 -4.9 0 1 13.46 17.24
  Q 14.59 16.51 15.57 18.93
  Z"
/>
<path fill="#105247" d="
  M 21.56 16.88
  L 19.07 21.58
  A 0.64 0.64 0.0 0 1 18.32 21.89
  Q 15.86 21.15 15.57 18.93
  Q 19.58 12.45 21.56 16.88
  Z"
/>
<path fill="#2daf6d" d="
  M 28.21 22.26
  L 28.35 24.91
  A 1.24 1.24 0.0 0 1 26.35 25.96
  Q 24.70 24.68 23.51 26.61
  Q 23.15 27.20 20.17 26.15
  A 1.94 1.92 51.6 0 0 19.35 26.05
  Q 15.66 26.44 13.06 25.49
  A 1.09 1.08 40.8 0 0 12.19 25.55
  Q 9.83 26.81 6.68 25.49
  A 0.83 0.81 -53.8 0 0 5.82 25.63
  Q 5.49 25.92 5.12 25.91
  A 0.78 0.78 0.0 0 1 4.37 25.34
  Q 3.92 23.72 4.28 22.53
  Q 10.53 23.40 16.97 23.11
  Q 18.10 23.06 19.10 22.60
  A 0.86 0.84 -35.9 0 1 20.02 22.74
  Q 20.06 22.78 20.10 22.83
  A 0.89 0.87 67.5 0 0 20.83 23.14
  Q 21.90 23.04 23.00 23.78
  A 0.57 0.57 0.0 0 0 23.86 23.49
  Q 24.58 21.32 25.69 22.42
  A 0.64 0.57 -76.8 0 1 25.87 22.75
  L 26.11 23.95
  A 0.31 0.31 0.0 0 0 26.62 24.11
  Q 26.78 23.97 26.85 23.88
  A 0.37 0.36 64.9 0 0 26.93 23.65
  Q 26.97 21.83 28.21 22.26
  Z"
/>
</svg>
