<?xml version="1.0" encoding="UTF-8" standalone="no"?>
<!DOCTYPE svg PUBLIC "-//W3C//DTD SVG 1.1//EN" "http://www.w3.org/Graphics/SVG/1.1/DTD/svg11.dtd">
<svg xmlns="http://www.w3.org/2000/svg" version="1.1" viewBox="0.00 0.00 994.00 996.00">
<g stroke-width="2.00" fill="none" stroke-linecap="butt">
<path stroke="#97aafc" vector-effect="non-scaling-stroke" d="
  M 289.4245 91.1875
  A 89.62 89.34 -93.9 0 0 206.3869 186.6765
  A 89.62 89.34 -93.9 0 0 301.6155 270.0125
  A 89.62 89.34 -93.9 0 0 384.6531 174.5235
  A 89.62 89.34 -93.9 0 0 289.4245 91.1875"
/>
<path stroke="#97aafc" vector-effect="non-scaling-stroke" d="
  M 657.4983 91.2944
  A 89.65 89.36 -94.8 0 0 575.9534 188.1075
  A 89.65 89.36 -94.8 0 0 672.5017 269.9656
  A 89.65 89.36 -94.8 0 0 754.0466 173.1525
  A 89.65 89.36 -94.8 0 0 657.4983 91.2944"
/>
<path stroke="#97aafc" vector-effect="non-scaling-stroke" d="
  M 574.78 367.37
  Q 574.52 372.61 574.70 438.57
  Q 574.78 467.30 573.36 481.19
  C 568.03 533.09 548.46 582.39 516.97 623.74
  Q 514.22 627.35 506.63 636.63
  Q 501.50 642.91 486.45 657.43
  C 439.41 702.82 376.35 730.03 311.12 733.59
  Q 304.66 733.94 296.69 734.08
  A 1.08 1.08 0.0 0 0 295.63 735.16
  L 295.63 905.60
  A 1.53 1.53 0.0 0 0 297.17 907.13
  C 310.61 907.07 323.83 906.74 337.26 905.44
  Q 428.45 896.66 507.44 854.52
  C 585.66 812.78 650.29 748.44 692.48 670.31
  Q 738.51 585.05 745.77 486.46
  C 746.53 476.13 746.69 463.79 746.69 452.50
  Q 746.70 395.90 746.66 367.67
  A 1.16 1.16 0.0 0 0 745.50 366.51
  L 575.69 366.51
  A 0.91 0.91 0.0 0 0 574.78 367.37"
/>
</g>
<path fill="#ffffff" d="
  M 994.00 0.00
  L 994.00 996.00
  L 0.00 996.00
  L 0.00 0.00
  L 994.00 0.00
  Z
  M 289.4245 91.1875
  A 89.62 89.34 -93.9 0 0 206.3869 186.6765
  A 89.62 89.34 -93.9 0 0 301.6155 270.0125
  A 89.62 89.34 -93.9 0 0 384.6531 174.5235
  A 89.62 89.34 -93.9 0 0 289.4245 91.1875
  Z
  M 657.4983 91.2944
  A 89.65 89.36 -94.8 0 0 575.9534 188.1075
  A 89.65 89.36 -94.8 0 0 672.5017 269.9656
  A 89.65 89.36 -94.8 0 0 754.0466 173.1525
  A 89.65 89.36 -94.8 0 0 657.4983 91.2944
  Z
  M 574.78 367.37
  Q 574.52 372.61 574.70 438.57
  Q 574.78 467.30 573.36 481.19
  C 568.03 533.09 548.46 582.39 516.97 623.74
  Q 514.22 627.35 506.63 636.63
  Q 501.50 642.91 486.45 657.43
  C 439.41 702.82 376.35 730.03 311.12 733.59
  Q 304.66 733.94 296.69 734.08
  A 1.08 1.08 0.0 0 0 295.63 735.16
  L 295.63 905.60
  A 1.53 1.53 0.0 0 0 297.17 907.13
  C 310.61 907.07 323.83 906.74 337.26 905.44
  Q 428.45 896.66 507.44 854.52
  C 585.66 812.78 650.29 748.44 692.48 670.31
  Q 738.51 585.05 745.77 486.46
  C 746.53 476.13 746.69 463.79 746.69 452.50
  Q 746.70 395.90 746.66 367.67
  A 1.16 1.16 0.0 0 0 745.50 366.51
  L 575.69 366.51
  A 0.91 0.91 0.0 0 0 574.78 367.37
  Z"
/>
<ellipse fill="#2f55f8" cx="0.00" cy="0.00" transform="translate(295.52,180.60) rotate(-93.9)" rx="89.62" ry="89.34"/>
<ellipse fill="#2f55f8" cx="0.00" cy="0.00" transform="translate(665.00,180.63) rotate(-94.8)" rx="89.65" ry="89.36"/>
<path fill="#2f55f8" d="
  M 574.78 367.37
  A 0.91 0.91 0.0 0 1 575.69 366.51
  L 745.50 366.51
  A 1.16 1.16 0.0 0 1 746.66 367.67
  Q 746.70 395.90 746.69 452.50
  C 746.69 463.79 746.53 476.13 745.77 486.46
  Q 738.51 585.05 692.48 670.31
  C 650.29 748.44 585.66 812.78 507.44 854.52
  Q 428.45 896.66 337.26 905.44
  C 323.83 906.74 310.61 907.07 297.17 907.13
  A 1.53 1.53 0.0 0 1 295.63 905.60
  L 295.63 735.16
  A 1.08 1.08 0.0 0 1 296.69 734.08
  Q 304.66 733.94 311.12 733.59
  C 376.35 730.03 439.41 702.82 486.45 657.43
  Q 501.50 642.91 506.63 636.63
  Q 514.22 627.35 516.97 623.74
  C 548.46 582.39 568.03 533.09 573.36 481.19
  Q 574.78 467.30 574.70 438.57
  Q 574.52 372.61 574.78 367.37
  Z"
/>
</svg>
