<?xml version="1.0" encoding="UTF-8" standalone="no"?>
<!DOCTYPE svg PUBLIC "-//W3C//DTD SVG 1.1//EN" "http://www.w3.org/Graphics/SVG/1.1/DTD/svg11.dtd">
<svg xmlns="http://www.w3.org/2000/svg" version="1.1" viewBox="0.00 0.00 200.00 200.00">
<g stroke-width="2.00" fill="none" stroke-linecap="butt">
<path stroke="#8d959d" vector-effect="non-scaling-stroke" d="
  M 169.88 83.56
  A 71.25 71.25 0.0 0 0 98.63 12.31
  A 71.25 71.25 0.0 0 0 27.38 83.56
  A 71.25 71.25 0.0 0 0 98.63 154.81
  A 71.25 71.25 0.0 0 0 169.88 83.56"
/>
<path stroke="#8d959d" vector-effect="non-scaling-stroke" d="
  M 98.63 106.62
  Q 98.70 106.62 98.77 106.56
  Q 106.82 99.89 114.50 92.51
  C 120.33 86.91 125.34 79.99 124.32 71.48
  C 122.62 57.26 106.91 54.47 98.90 65.48
  Q 98.81 65.61 98.62 65.61
  Q 98.43 65.61 98.34 65.48
  C 90.32 54.48 74.62 57.28 72.93 71.50
  C 71.91 80.01 76.93 86.92 82.76 92.52
  Q 90.45 99.90 98.50 106.56
  Q 98.57 106.62 98.63 106.62"
/>
</g>
<path fill="#ffffff" d="
  M 200.00 0.00
  L 200.00 200.00
  L 0.00 200.00
  L 0.00 0.00
  L 200.00 0.00
  Z
  M 169.88 83.56
  A 71.25 71.25 0.0 0 0 98.63 12.31
  A 71.25 71.25 0.0 0 0 27.38 83.56
  A 71.25 71.25 0.0 0 0 98.63 154.81
  A 71.25 71.25 0.0 0 0 169.88 83.56
  Z"
/>
<path fill="#1a2a3a" d="
  M 169.88 83.56
  A 71.25 71.25 0.0 0 1 98.63 154.81
  A 71.25 71.25 0.0 0 1 27.38 83.56
  A 71.25 71.25 0.0 0 1 98.63 12.31
  A 71.25 71.25 0.0 0 1 169.88 83.56
  Z
  M 98.63 106.62
  Q 98.70 106.62 98.77 106.56
  Q 106.82 99.89 114.50 92.51
  C 120.33 86.91 125.34 79.99 124.32 71.48
  C 122.62 57.26 106.91 54.47 98.90 65.48
  Q 98.81 65.61 98.62 65.61
  Q 98.43 65.61 98.34 65.48
  C 90.32 54.48 74.62 57.28 72.93 71.50
  C 71.91 80.01 76.93 86.92 82.76 92.52
  Q 90.45 99.90 98.50 106.56
  Q 98.57 106.62 98.63 106.62
  Z"
/>
<path fill="#ffffff" d="
  M 98.62 65.61
  Q 98.81 65.61 98.90 65.48
  C 106.91 54.47 122.62 57.26 124.32 71.48
  C 125.34 79.99 120.33 86.91 114.50 92.51
  Q 106.82 99.89 98.77 106.56
  Q 98.70 106.62 98.63 106.62
  Q 98.57 106.62 98.50 106.56
  Q 90.45 99.90 82.76 92.52
  C 76.93 86.92 71.91 80.01 72.93 71.50
  C 74.62 57.28 90.32 54.48 98.34 65.48
  Q 98.43 65.61 98.62 65.61
  Z"
/>
</svg>
