<?xml version="1.0" encoding="UTF-8" standalone="no"?>
<!DOCTYPE svg PUBLIC "-//W3C//DTD SVG 1.1//EN" "http://www.w3.org/Graphics/SVG/1.1/DTD/svg11.dtd">
<svg xmlns="http://www.w3.org/2000/svg" version="1.1" viewBox="0.00 0.00 47.00 48.00">
<g stroke-width="2.00" fill="none" stroke-linecap="butt">
<path stroke="#848ce9" vector-effect="non-scaling-stroke" d="
  M 42.05 43.09
  L 40.27 41.60"
/>
<path stroke="#848ce9" vector-effect="non-scaling-stroke" d="
  M 4.82 10.27
  L 2.45 9.85"
/>
<path stroke="#8a82e9" vector-effect="non-scaling-stroke" d="
  M 28.96 37.12
  L 29.72 34.94"
/>
<path stroke="#8a82e9" vector-effect="non-scaling-stroke" d="
  M 18.58 22.79
  L 17.18 21.21"
/>
</g>
<path fill="#3ad6eb" d="
  M 42.05 43.09
  L 40.27 41.60
  Q 42.89 38.84 43.06 34.74
  Q 43.45 25.36 43.21 16.15
  C 42.92 4.59 38.51 3.94 27.34 3.83
  Q 17.42 3.74 12.77 4.11
  Q 6.57 4.60 4.82 10.27
  L 2.45 9.85
  Q 4.27 4.30 9.26 2.55
  Q 11.82 1.65 14.75 1.57
  Q 29.35 1.19 34.79 1.77
  Q 44.80 2.84 45.50 13.27
  Q 45.74 16.94 45.52 32.99
  Q 45.44 39.24 42.05 43.09
  Z"
/>
<path fill="#ce42e6" d="
  M 2.45 9.85
  L 4.82 10.27
  Q 4.30 12.52 4.25 14.75
  Q 4.08 23.18 4.26 33.00
  C 4.41 41.32 8.56 44.12 16.50 44.05
  Q 32.45 43.92 33.24 43.90
  Q 37.14 43.79 40.27 41.60
  L 42.05 43.09
  Q 38.39 46.01 32.74 46.24
  Q 17.70 46.83 13.00 46.22
  Q 2.60 44.86 1.98 34.50
  Q 1.32 23.37 2.45 9.85
  Z"
/>
<path fill="#659de3" d="
  M 12.67 22.46
  L 11.80 23.50
  A 0.50 0.50 0.0 0 1 10.91 23.19
  Q 10.90 22.72 10.94 16.34
  C 10.96 13.19 11.64 10.28 15.05 10.26
  C 18.87 10.24 19.74 13.75 19.28 16.86
  A 2.20 2.16 79.8 0 1 18.21 18.43
  L 17.63 18.77
  A 0.45 0.44 -8.1 0 1 16.97 18.28
  Q 17.19 17.31 16.99 14.10
  A 1.89 1.87 75.3 0 0 14.30 12.51
  Q 13.55 12.88 13.38 14.09
  Q 13.22 15.24 13.25 20.87
  A 2.47 2.47 0.0 0 1 12.67 22.46
  Z"
/>
<path fill="#45c2ec" d="
  M 28.96 37.12
  L 29.72 34.94
  L 32.49 34.92
  A 0.33 0.33 0.0 0 0 32.77 34.42
  Q 28.98 27.75 23.62 24.37
  A 0.50 0.49 -48.2 0 1 23.58 23.56
  Q 28.19 19.88 31.98 13.96
  A 0.70 0.69 16.3 0 0 31.39 12.89
  L 29.47 12.89
  A 2.28 2.27 16.2 0 0 27.55 13.94
  Q 24.27 19.06 18.58 22.79
  L 17.18 21.21
  Q 23.06 17.04 26.80 10.84
  A 0.51 0.50 -73.1 0 1 27.22 10.61
  L 36.21 10.61
  A 0.10 0.10 0.0 0 1 36.30 10.75
  Q 32.73 18.24 27.39 23.29
  A 0.58 0.57 44.7 0 0 27.40 24.13
  Q 32.70 28.93 36.52 36.54
  A 0.41 0.41 0.0 0 1 36.15 37.14
  L 28.96 37.12
  Z"
/>
<path fill="#ce42e6" d="
  M 17.18 21.21
  L 18.58 22.79
  C 14.59 26.02 12.03 28.83 13.59 34.18
  Q 13.90 35.26 15.16 35.33
  A 1.67 1.53 3.6 0 0 16.91 33.92
  C 17.15 30.88 17.66 28.20 20.06 26.66
  A 1.14 1.13 46.5 0 1 21.34 26.70
  Q 25.11 29.45 27.66 33.73
  C 28.15 34.56 28.80 34.88 29.72 34.94
  L 28.96 37.12
  Q 27.36 37.31 26.72 36.27
  Q 24.59 32.79 21.63 29.64
  A 1.12 1.12 0.0 0 0 19.71 30.25
  L 19.10 34.68
  A 3.12 3.11 85.0 0 1 16.98 37.21
  C 13.54 38.33 11.42 36.33 11.03 32.83
  Q 10.19 25.34 17.18 21.21
  Z"
/>
</svg>
