<?xml version="1.0" encoding="UTF-8" standalone="no"?>
<!DOCTYPE svg PUBLIC "-//W3C//DTD SVG 1.1//EN" "http://www.w3.org/Graphics/SVG/1.1/DTD/svg11.dtd">
<svg xmlns="http://www.w3.org/2000/svg" version="1.1" viewBox="0.00 0.00 400.00 400.00">
<path stroke="#fe89ba" stroke-width="2.00" fill="none" stroke-linecap="butt" vector-effect="non-scaling-stroke" d="
  M 193.64 227.93
  A 0.28 0.28 0.0 0 0 194.12 228.12
  Q 203.28 218.86 221.59 201.08
  Q 222.77 199.93 225.00 199.94
  Q 246.39 200.01 247.14 200.02
  A 0.60 0.60 0.0 0 1 247.74 200.62
  Q 247.91 227.57 247.80 234.31
  Q 247.68 241.79 248.65 244.60
  C 251.81 253.72 261.19 256.97 269.89 254.09
  C 277.96 251.43 280.06 244.13 280.04 236.25
  Q 280.01 220.33 280.01 120.71
  A 0.73 0.73 0.0 0 0 279.28 119.98
  L 120.77 119.98
  A 0.76 0.76 0.0 0 0 120.01 120.74
  L 120.01 279.31
  A 0.68 0.67 -0.0 0 0 120.69 279.98
  L 279.33 279.98
  A 0.69 0.68 0.0 0 0 280.02 279.30
  L 280.02 261.16
  A 0.34 0.34 0.0 0 0 279.53 260.86
  Q 276.36 262.49 272.96 263.76
  C 256.51 269.94 237.81 258.37 237.40 240.61
  Q 237.13 229.27 237.39 201.94
  A 0.63 0.63 0.0 0 0 236.31 201.49
  L 214.02 223.78
  A 0.65 0.64 -39.7 0 0 213.94 224.60
  L 239.86 263.04
  A 0.44 0.44 0.0 0 1 239.49 263.73
  L 228.62 263.73
  A 2.05 2.04 73.0 0 1 226.92 262.82
  L 206.39 232.38
  A 1.09 1.08 -39.4 0 0 204.73 232.22
  L 194.71 242.24
  A 3.73 3.72 -22.7 0 0 193.63 244.86
  L 193.63 263.10
  A 0.66 0.66 0.0 0 1 192.97 263.76
  L 183.65 263.76
  A 0.61 0.61 0.0 0 1 183.04 263.15
  L 183.04 172.36
  A 0.60 0.60 0.0 0 1 183.64 171.76
  L 192.95 171.76
  A 0.69 0.68 0.0 0 1 193.64 172.44
  L 193.64 227.93"
/>
<path fill="#fd1374" d="
  M 400.00 0.00
  L 400.00 400.00
  L 0.00 400.00
  L 0.00 0.00
  L 400.00 0.00
  Z
  M 193.64 227.93
  A 0.28 0.28 0.0 0 0 194.12 228.12
  Q 203.28 218.86 221.59 201.08
  Q 222.77 199.93 225.00 199.94
  Q 246.39 200.01 247.14 200.02
  A 0.60 0.60 0.0 0 1 247.74 200.62
  Q 247.91 227.57 247.80 234.31
  Q 247.68 241.79 248.65 244.60
  C 251.81 253.72 261.19 256.97 269.89 254.09
  C 277.96 251.43 280.06 244.13 280.04 236.25
  Q 280.01 220.33 280.01 120.71
  A 0.73 0.73 0.0 0 0 279.28 119.98
  L 120.77 119.98
  A 0.76 0.76 0.0 0 0 120.01 120.74
  L 120.01 279.31
  A 0.68 0.67 -0.0 0 0 120.69 279.98
  L 279.33 279.98
  A 0.69 0.68 0.0 0 0 280.02 279.30
  L 280.02 261.16
  A 0.34 0.34 0.0 0 0 279.53 260.86
  Q 276.36 262.49 272.96 263.76
  C 256.51 269.94 237.81 258.37 237.40 240.61
  Q 237.13 229.27 237.39 201.94
  A 0.63 0.63 0.0 0 0 236.31 201.49
  L 214.02 223.78
  A 0.65 0.64 -39.7 0 0 213.94 224.60
  L 239.86 263.04
  A 0.44 0.44 0.0 0 1 239.49 263.73
  L 228.62 263.73
  A 2.05 2.04 73.0 0 1 226.92 262.82
  L 206.39 232.38
  A 1.09 1.08 -39.4 0 0 204.73 232.22
  L 194.71 242.24
  A 3.73 3.72 -22.7 0 0 193.63 244.86
  L 193.63 263.10
  A 0.66 0.66 0.0 0 1 192.97 263.76
  L 183.65 263.76
  A 0.61 0.61 0.0 0 1 183.04 263.15
  L 183.04 172.36
  A 0.60 0.60 0.0 0 1 183.64 171.76
  L 192.95 171.76
  A 0.69 0.68 0.0 0 1 193.64 172.44
  L 193.64 227.93
  Z"
/>
<path fill="#ffffff" d="
  M 193.64 227.93
  L 193.64 172.44
  A 0.69 0.68 0.0 0 0 192.95 171.76
  L 183.64 171.76
  A 0.60 0.60 0.0 0 0 183.04 172.36
  L 183.04 263.15
  A 0.61 0.61 0.0 0 0 183.65 263.76
  L 192.97 263.76
  A 0.66 0.66 0.0 0 0 193.63 263.10
  L 193.63 244.86
  A 3.73 3.72 -22.7 0 1 194.71 242.24
  L 204.73 232.22
  A 1.09 1.08 -39.4 0 1 206.39 232.38
  L 226.92 262.82
  A 2.05 2.04 73.0 0 0 228.62 263.73
  L 239.49 263.73
  A 0.44 0.44 0.0 0 0 239.86 263.04
  L 213.94 224.60
  A 0.65 0.64 -39.7 0 1 214.02 223.78
  L 236.31 201.49
  A 0.63 0.63 0.0 0 1 237.39 201.94
  Q 237.13 229.27 237.40 240.61
  C 237.81 258.37 256.51 269.94 272.96 263.76
  Q 276.36 262.49 279.53 260.86
  A 0.34 0.34 0.0 0 1 280.02 261.16
  L 280.02 279.30
  A 0.69 0.68 0.0 0 1 279.33 279.98
  L 120.69 279.98
  A 0.68 0.67 -0.0 0 1 120.01 279.31
  L 120.01 120.74
  A 0.76 0.76 0.0 0 1 120.77 119.98
  L 279.28 119.98
  A 0.73 0.73 0.0 0 1 280.01 120.71
  Q 280.01 220.33 280.04 236.25
  C 280.06 244.13 277.96 251.43 269.89 254.09
  C 261.19 256.97 251.81 253.72 248.65 244.60
  Q 247.68 241.79 247.80 234.31
  Q 247.91 227.57 247.74 200.62
  A 0.60 0.60 0.0 0 0 247.14 200.02
  Q 246.39 200.01 225.00 199.94
  Q 222.77 199.93 221.59 201.08
  Q 203.28 218.86 194.12 228.12
  A 0.28 0.28 0.0 0 1 193.64 227.93
  Z"
/>
</svg>
