<?xml version="1.0" encoding="UTF-8" standalone="no"?>
<!DOCTYPE svg PUBLIC "-//W3C//DTD SVG 1.1//EN" "http://www.w3.org/Graphics/SVG/1.1/DTD/svg11.dtd">
<svg xmlns="http://www.w3.org/2000/svg" version="1.1" viewBox="0.00 0.00 32.00 32.00">
<path fill="#4e7cbd" fill-opacity="0.996" d="
  M 21.31 22.30
  L 15.17 22.54
  A 1.29 1.25 -64.2 0 0 14.48 22.79
  L 11.44 25.16
  A 0.99 0.99 0.0 0 1 9.87 24.15
  Q 10.37 22.04 8.59 21.26
  A 2.03 1.96 81.6 0 1 7.80 20.65
  Q 6.51 18.98 6.48 17.51
  C 6.34 11.71 5.82 6.57 12.89 6.55
  Q 18.83 6.53 20.24 6.59
  C 26.47 6.86 25.77 12.91 25.46 18.44
  A 1.91 1.86 62.7 0 1 25.18 19.36
  Q 24.07 21.16 22.79 21.85
  A 3.04 3.03 28.0 0 1 21.31 22.30
  Z
  M 12.23 22.79
  L 13.74 21.28
  A 1.47 1.44 -67.1 0 1 14.77 20.85
  L 20.95 20.85
  A 0.76 0.75 34.1 0 0 21.22 20.80
  C 25.00 19.46 24.23 15.34 24.05 12.04
  C 23.77 6.90 17.74 8.16 12.87 8.13
  C 6.69 8.09 7.86 13.91 8.12 17.83
  A 3.78 2.81 11.4 0 0 10.59 20.58
  Q 11.67 20.97 11.41 22.36
  A 0.49 0.48 -17.2 0 0 12.23 22.79
  Z"
/>
<rect fill="#4e7cbd" fill-opacity="0.996" x="-0.70" y="-3.91" transform="translate(16.08,14.49) rotate(0.2)" width="1.40" height="7.82" rx="0.67"/>
<path fill="#4e7cbd" fill-opacity="0.996" d="
  M 13.82 15.70
  Q 13.80 15.72 13.77 15.74
  A 0.18 0.13 -52.9 0 1 13.65 15.78
  L 10.98 15.42
  A 0.65 0.64 -54.6 0 1 10.78 14.20
  Q 10.95 14.11 12.03 14.18
  Q 12.07 14.18 12.19 14.13
  Q 12.26 14.10 12.35 14.03
  Q 12.43 13.95 12.47 13.88
  Q 12.53 13.77 12.54 13.73
  Q 12.60 12.65 12.71 12.49
  A 0.65 0.64 -28.3 0 1 13.90 12.84
  L 13.92 15.54
  A 0.18 0.13 -30.0 0 1 13.87 15.65
  Q 13.85 15.68 13.82 15.70
  Z"
/>
<path fill="#4e7cbd" fill-opacity="0.996" d="
  M 19.31 16.78
  A 0.43 0.43 0.0 0 1 18.49 16.86
  Q 17.79 15.15 18.39 12.92
  A 0.50 0.50 0.0 0 1 19.38 13.04
  Q 19.41 14.61 20.80 14.13
  A 0.62 0.61 61.3 0 1 21.48 14.33
  Q 21.75 14.68 21.64 15.09
  Q 21.55 15.43 21.24 15.45
  Q 19.56 15.55 19.31 16.78
  Z"
/>
</svg>
