<?xml version="1.0" encoding="UTF-8" standalone="no"?>
<!DOCTYPE svg PUBLIC "-//W3C//DTD SVG 1.1//EN" "http://www.w3.org/Graphics/SVG/1.1/DTD/svg11.dtd">
<svg xmlns="http://www.w3.org/2000/svg" version="1.1" viewBox="0.00 0.00 1026.00 1026.00">
<g stroke-width="2.00" fill="none" stroke-linecap="butt">
<path stroke="#705b2a" vector-effect="non-scaling-stroke" d="
  M 192.07 395.75
  A 1.16 1.16 0.0 0 0 193.23 396.98
  L 297.23 396.98
  A 2.26 2.25 -88.4 0 0 299.48 394.85
  L 301.57 358.99
  A 0.65 0.63 23.0 0 0 301.35 358.47
  Q 300.35 357.63 299.06 358.33
  A 1.33 1.29 84.9 0 0 298.45 359.08
  Q 296.80 364.27 296.43 365.16
  Q 289.83 380.99 274.94 387.46
  Q 268.31 390.34 256.73 390.73
  Q 245.32 391.12 238.12 390.13
  C 231.58 389.23 231.34 384.18 231.34 378.76
  Q 231.38 292.09 231.34 275.59
  C 231.30 263.33 236.88 262.75 247.35 262.18
  A 1.28 1.28 0.0 0 0 248.57 260.90
  L 248.57 260.38
  A 1.68 1.68 0.0 0 0 246.94 258.70
  Q 242.31 258.54 237.78 258.95
  C 229.00 259.75 220.13 259.46 211.53 259.42
  C 205.80 259.39 199.56 258.48 193.38 258.68
  A 1.27 1.27 0.0 0 0 192.16 259.87
  L 192.09 261.06
  A 1.03 1.02 1.3 0 0 193.13 262.14
  Q 194.09 262.13 200.45 262.85
  C 209.39 263.88 209.42 271.25 209.40 278.25
  Q 209.25 344.31 209.40 379.51
  Q 209.42 384.73 208.07 388.39
  C 206.21 393.43 198.16 393.97 193.58 393.54
  A 1.33 1.33 0.0 0 0 192.13 394.79
  L 192.07 395.75"
/>
<path stroke="#705b2a" vector-effect="non-scaling-stroke" d="
  M 355.7695 274.1740
  A 10.80 10.80 0.0 0 0 345.4312 262.9312
  L 342.5338 262.8098
  A 10.80 10.80 0.0 0 0 331.2910 273.1481
  L 331.1905 275.5460
  A 10.80 10.80 0.0 0 0 341.5288 286.7888
  L 344.4262 286.9102
  A 10.80 10.80 0.0 0 0 355.6690 276.5719
  L 355.7695 274.1740"
/>
<path stroke="#705b2a" vector-effect="non-scaling-stroke" d="
  M 589.0019 273.2359
  A 10.87 10.87 0.0 0 0 577.6862 262.8306
  L 574.8287 262.9504
  A 10.87 10.87 0.0 0 0 564.4235 274.2661
  L 564.5181 276.5241
  A 10.87 10.87 0.0 0 0 575.8338 286.9294
  L 578.6913 286.8096
  A 10.87 10.87 0.0 0 0 589.0965 275.4939
  L 589.0019 273.2359"
/>
<path stroke="#705b2a" vector-effect="non-scaling-stroke" d="
  M 501.05 312.71
  L 501.05 296.58
  A 0.95 0.95 0.0 0 0 500.10 295.63
  L 498.05 295.63
  A 1.15 1.14 -78.2 0 0 497.00 296.32
  C 494.03 303.08 491.28 307.81 484.12 311.11
  Q 478.35 313.78 471.61 313.76
  A 1.51 1.50 90.0 0 0 470.11 315.27
  L 470.11 317.10
  A 1.36 1.35 -88.9 0 0 471.41 318.46
  C 474.99 318.59 479.84 318.79 481.00 323.17
  Q 482.17 327.61 482.17 330.50
  Q 482.22 369.31 482.15 378.98
  Q 482.10 384.74 483.08 387.42
  C 485.79 394.84 493.27 398.74 500.77 399.49
  Q 514.80 400.90 525.99 393.27
  C 529.75 390.70 532.85 388.38 535.75 385.58
  A 1.61 1.59 75.2 0 0 536.19 384.81
  Q 536.44 383.84 536.25 383.43
  A 1.85 1.83 -29.1 0 0 533.56 382.68
  C 528.53 385.98 524.27 388.39 518.03 388.70
  C 510.40 389.09 504.15 386.48 501.81 379.14
  Q 501.05 376.75 501.05 370.64
  Q 501.07 353.47 501.08 320.42
  A 0.65 0.64 -84.8 0 1 501.84 319.78
  C 505.72 320.51 510.02 320.28 513.73 320.74
  Q 521.75 321.75 528.05 323.15
  A 2.36 2.35 17.4 0 0 530.75 321.74
  Q 532.38 317.71 530.95 312.57
  A 1.43 1.43 0.0 0 0 529.47 311.52
  L 501.80 313.41
  A 0.70 0.70 0.0 0 1 501.05 312.71"
/>
<path stroke="#705b2a" vector-effect="non-scaling-stroke" d="
  M 653.99 325.52
  Q 653.79 318.24 650.54 312.15
  Q 648.27 307.90 643.63 310.24
  Q 631.75 316.24 616.89 323.24
  A 1.45 1.44 77.5 0 0 616.06 324.55
  L 616.06 325.96
  A 1.11 1.10 -10.4 0 0 617.56 326.99
  C 624.18 324.51 634.33 319.79 635.09 331.59
  Q 635.62 339.92 635.28 381.54
  C 635.21 389.28 633.19 393.44 624.00 393.65
  A 1.72 1.72 0.0 0 0 622.32 395.44
  L 622.32 395.46
  A 1.66 1.66 0.0 0 0 623.97 396.97
  L 665.69 396.99
  A 1.67 1.67 0.0 0 0 667.36 395.40
  L 667.36 395.34
  A 1.71 1.71 0.0 0 0 665.55 393.64
  C 661.07 393.90 656.43 392.27 655.22 387.57
  Q 654.07 383.10 654.06 380.75
  Q 653.98 366.38 654.03 335.40
  C 654.03 334.03 653.85 332.26 654.86 331.36
  C 662.53 324.50 674.22 319.79 684.21 323.80
  Q 690.34 326.26 692.31 331.96
  Q 694.23 337.52 694.31 340.02
  Q 694.71 352.94 694.46 380.33
  C 694.37 390.18 692.50 392.94 682.74 393.76
  A 1.31 1.30 -2.4 0 0 681.54 395.06
  L 681.54 395.82
  A 1.08 1.07 0.3 0 0 682.61 396.89
  L 724.87 397.00
  A 1.56 1.55 0.6 0 0 726.43 395.48
  L 726.44 395.38
  A 1.71 1.71 0.0 0 0 724.69 393.65
  C 715.51 393.86 713.24 388.15 713.27 380.27
  Q 713.37 342.80 713.23 334.50
  C 713.07 324.46 708.17 314.42 698.38 310.70
  C 686.55 306.19 673.20 309.62 663.30 317.54
  Q 658.91 321.05 654.66 325.77
  A 0.39 0.38 65.2 0 1 653.99 325.52"
/>
<path stroke="#705b2a" vector-effect="non-scaling-stroke" d="
  M 322.40 395.59
  A 1.33 1.33 0.0 0 0 323.73 396.96
  L 365.93 396.93
  A 1.36 1.35 -90.0 0 0 367.28 395.57
  L 367.28 395.11
  A 1.47 1.47 0.0 0 0 365.80 393.64
  C 356.11 393.67 354.22 388.44 354.19 380.00
  Q 354.02 326.22 354.48 312.30
  A 2.23 2.20 32.1 0 0 354.23 311.24
  Q 352.71 308.43 350.11 309.63
  Q 339.34 314.64 319.49 323.85
  A 1.92 1.92 0.0 0 0 318.49 326.22
  L 318.52 326.28
  A 1.82 1.82 0.0 0 0 320.79 327.41
  Q 323.35 326.59 326.47 325.44
  C 332.94 323.06 334.99 329.10 335.30 334.01
  Q 335.46 336.38 335.37 380.96
  C 335.35 389.06 333.59 393.22 323.98 393.69
  A 1.66 1.65 88.9 0 0 322.40 395.34
  L 322.40 395.59"
/>
<path stroke="#705b2a" vector-effect="non-scaling-stroke" d="
  M 442.99 332.82
  L 442.99 314.59
  A 2.12 2.12 0.0 0 0 441.65 312.62
  Q 435.34 310.09 431.01 309.50
  Q 428.20 309.12 419.98 309.27
  C 414.54 309.37 408.02 311.13 403.73 313.53
  Q 389.09 321.75 391.98 339.32
  C 393.08 346.01 397.78 351.45 403.50 354.78
  Q 417.79 363.09 421.83 365.66
  Q 428.23 369.74 430.98 375.79
  C 432.61 379.37 432.99 387.60 429.64 390.98
  C 424.74 395.93 417.27 394.97 411.58 391.86
  Q 402.54 386.93 397.12 376.21
  Q 396.08 374.15 393.70 369.61
  A 1.64 1.64 0.0 0 0 390.61 370.38
  Q 390.72 384.97 390.74 389.06
  Q 390.77 392.34 392.68 393.47
  C 401.99 398.99 411.71 400.56 422.22 399.05
  Q 428.93 398.08 433.95 394.95
  Q 448.83 385.64 447.27 367.50
  C 446.46 358.15 438.82 352.31 431.34 348.05
  Q 422.94 343.26 415.85 338.40
  C 411.02 335.09 407.39 330.91 406.44 325.00
  C 404.44 312.47 418.70 312.72 425.85 316.64
  Q 433.33 320.74 437.70 327.77
  Q 438.60 329.21 439.14 333.08
  A 1.51 1.51 0.0 0 0 440.63 334.37
  L 441.43 334.37
  A 1.56 1.55 -0.0 0 0 442.99 332.82"
/>
<path stroke="#705b2a" vector-effect="non-scaling-stroke" d="
  M 555.68 395.61
  A 1.33 1.33 0.0 0 0 557.01 396.98
  L 599.23 396.96
  A 1.36 1.35 -90.0 0 0 600.58 395.60
  L 600.58 395.14
  A 1.47 1.47 0.0 0 0 599.10 393.67
  C 589.40 393.69 587.51 388.46 587.48 380.02
  Q 587.32 326.22 587.78 312.29
  A 2.23 2.20 32.1 0 0 587.53 311.23
  Q 586.01 308.42 583.41 309.62
  Q 572.63 314.63 552.78 323.85
  A 1.92 1.92 0.0 0 0 551.78 326.22
  L 551.81 326.28
  A 1.82 1.82 0.0 0 0 554.08 327.41
  Q 556.64 326.59 559.76 325.44
  C 566.23 323.06 568.28 329.10 568.59 334.01
  Q 568.75 336.38 568.66 380.98
  C 568.63 389.08 566.87 393.24 557.26 393.71
  A 1.66 1.65 88.9 0 0 555.68 395.36
  L 555.68 395.61"
/>
<path stroke="#705b2a" vector-effect="non-scaling-stroke" d="
  M 764.80 403.18
  A 0.47 0.47 0.0 0 1 764.97 404.03
  C 755.34 410.55 744.36 420.56 744.07 433.15
  C 743.66 450.67 760.21 458.52 775.84 459.00
  Q 798.88 459.69 817.05 445.16
  Q 829.19 435.46 833.00 420.75
  Q 833.99 416.91 833.74 409.52
  C 833.40 399.52 826.58 392.98 817.23 390.77
  Q 812.14 389.58 811.48 389.53
  Q 796.42 388.45 784.62 388.37
  C 781.76 388.35 777.27 387.62 775.25 387.30
  Q 767.71 386.08 765.68 380.56
  C 763.93 375.77 765.93 370.10 769.30 366.51
  A 1.12 1.11 29.3 0 1 770.41 366.20
  Q 786.58 370.64 802.03 363.76
  C 819.24 356.10 826.37 338.27 815.14 321.99
  A 0.47 0.47 0.0 0 1 815.53 321.26
  Q 823.60 321.36 831.87 324.88
  A 1.50 1.50 0.0 0 0 833.87 323.99
  Q 836.18 317.45 834.79 310.56
  A 1.51 1.51 0.0 0 0 833.36 309.34
  C 824.37 309.09 817.96 312.30 810.19 316.23
  A 1.32 1.31 -42.9 0 1 808.92 316.19
  Q 800.09 310.92 793.42 310.40
  Q 784.13 309.68 778.51 310.44
  C 765.97 312.14 750.91 319.63 748.85 334.01
  C 747.10 346.26 753.42 357.90 764.38 363.55
  A 0.60 0.60 0.0 0 1 764.46 364.57
  C 756.06 370.56 749.59 378.26 750.21 389.19
  C 750.72 397.99 756.90 401.52 764.80 403.18"
/>
<path stroke="#705b2a" vector-effect="non-scaling-stroke" d="
  M 630.62 769.16
  A 1.45 1.45 0.0 0 0 629.21 767.71
  C 622.17 767.48 616.56 766.21 611.51 761.22
  C 607.05 756.82 608.47 748.42 610.67 743.16
  Q 612.99 737.63 620.93 719.59
  Q 622.13 716.88 624.78 717.10
  Q 625.71 717.17 626.21 717.17
  Q 640.37 717.20 672.78 717.19
  Q 674.59 717.19 675.51 719.05
  Q 690.28 748.98 690.36 749.16
  Q 693.57 755.74 694.71 760.15
  C 696.48 767.07 687.82 767.80 683.24 767.62
  A 1.34 1.34 0.0 0 0 681.84 768.96
  L 681.84 769.81
  A 1.25 1.24 0.0 0 0 683.09 771.05
  Q 692.29 771.11 695.50 770.79
  C 708.90 769.47 723.50 771.29 734.78 771.00
  A 1.13 1.13 0.0 0 0 735.88 769.87
  L 735.88 769.45
  A 1.77 1.77 0.0 0 0 734.30 767.69
  C 727.40 766.96 723.03 762.02 719.60 756.39
  Q 715.46 749.59 711.88 742.38
  Q 667.96 654.03 657.23 632.28
  Q 656.48 630.77 654.33 630.92
  A 2.49 2.48 -79.9 0 0 652.22 632.40
  Q 624.72 694.59 602.78 743.78
  Q 599.99 750.05 595.45 757.16
  Q 588.85 767.51 578.07 767.57
  A 1.77 1.77 0.0 0 0 576.32 769.15
  L 576.29 769.37
  A 1.55 1.55 0.0 0 0 577.76 771.09
  Q 582.94 771.33 597.29 770.24
  C 605.95 769.58 618.59 771.25 629.41 770.94
  A 1.25 1.25 0.0 0 0 630.62 769.69
  L 630.62 769.16"
/>
<path stroke="#705b2a" vector-effect="non-scaling-stroke" d="
  M 240.01 712.45
  C 250.66 715.19 265.39 712.54 274.82 707.85
  Q 295.32 697.66 298.17 677.45
  Q 300.21 662.92 295.21 652.55
  C 289.27 640.26 276.03 634.58 262.71 632.88
  C 258.62 632.35 252.35 631.98 247.48 632.38
  C 241.44 632.87 237.10 632.58 229.86 633.12
  Q 215.79 634.15 200.99 632.70
  Q 200.38 632.64 194.78 632.67
  A 1.80 1.80 0.0 0 0 193.00 634.33
  L 192.99 634.42
  A 1.63 1.63 0.0 0 0 194.54 636.17
  C 205.39 636.69 210.24 637.74 210.28 649.78
  Q 210.36 681.34 210.28 752.25
  C 210.27 759.39 210.19 766.60 201.02 767.33
  Q 195.83 767.74 194.70 767.63
  A 1.57 1.56 4.3 0 0 192.97 769.11
  L 192.95 769.44
  A 1.37 1.36 -87.9 0 0 194.31 770.91
  L 254.11 770.94
  A 1.61 1.61 0.0 0 0 255.72 769.31
  L 255.72 769.25
  A 1.82 1.82 0.0 0 0 253.83 767.52
  Q 244.26 767.89 239.16 766.01
  Q 232.32 763.48 232.31 756.67
  Q 232.28 672.11 232.25 653.75
  C 232.25 647.88 231.59 639.62 237.96 638.20
  C 249.03 635.74 261.14 638.79 267.92 648.34
  C 274.56 657.67 275.23 668.25 274.50 679.74
  C 273.48 696.01 262.95 711.06 244.93 709.28
  Q 240.26 708.82 240.22 708.82
  A 1.13 1.13 0.0 0 0 238.97 709.92
  L 238.94 711.04
  A 1.43 1.42 -82.3 0 0 240.01 712.45"
/>
<path stroke="#705b2a" vector-effect="non-scaling-stroke" d="
  M 780.49 770.86
  Q 792.42 770.87 805.00 771.05
  Q 806.69 771.08 807.87 771.00
  A 1.03 1.02 88.2 0 0 808.83 769.97
  L 808.83 768.80
  A 1.15 1.14 86.7 0 0 807.56 767.66
  Q 805.93 767.83 800.86 767.32
  C 791.67 766.39 791.40 759.34 791.40 752.00
  Q 791.41 698.60 791.44 651.79
  C 791.44 644.79 792.09 638.21 800.01 637.00
  Q 804.89 636.26 807.88 636.19
  A 1.00 1.00 0.0 0 0 808.86 635.19
  L 808.86 633.94
  A 1.23 1.22 4.4 0 0 807.82 632.73
  Q 805.41 632.38 794.75 633.29
  Q 792.08 633.52 780.54 633.52
  Q 769.00 633.51 766.33 633.28
  Q 755.67 632.36 753.26 632.71
  A 1.23 1.22 -4.3 0 0 752.22 633.92
  L 752.22 635.17
  A 1.00 1.00 0.0 0 0 753.20 636.17
  Q 756.19 636.24 761.07 636.98
  C 768.99 638.20 769.63 644.78 769.63 651.78
  Q 769.62 698.59 769.59 751.99
  C 769.58 759.33 769.31 766.38 760.12 767.30
  Q 755.05 767.81 753.42 767.64
  A 1.15 1.14 -86.6 0 0 752.14 768.78
  L 752.14 769.95
  A 1.03 1.02 -88.2 0 0 753.10 770.98
  Q 754.28 771.06 755.97 771.03
  Q 768.55 770.86 780.49 770.86"
/>
<path stroke="#705b2a" vector-effect="non-scaling-stroke" d="
  M 443.70 684.27
  C 418.26 691.11 403.52 713.81 410.64 740.29
  C 417.75 766.77 441.89 779.03 467.33 772.19
  C 492.77 765.36 507.51 742.66 500.40 716.17
  C 493.28 689.69 469.15 677.43 443.70 684.27"
/>
<path stroke="#705b2a" vector-effect="non-scaling-stroke" d="
  M 353.22 699.03
  Q 352.92 691.03 349.24 685.37
  C 347.63 682.90 345.72 682.88 343.14 684.16
  Q 333.20 689.13 316.40 697.12
  A 2.00 1.99 77.3 0 0 315.27 698.92
  L 315.27 699.76
  A 1.21 1.21 0.0 0 0 316.92 700.89
  C 325.51 697.56 334.42 694.06 334.52 708.26
  Q 334.72 734.63 334.49 756.25
  C 334.40 764.44 331.23 767.44 323.16 767.67
  A 1.69 1.69 0.0 0 0 321.53 769.21
  L 321.51 769.50
  A 1.28 1.28 0.0 0 0 322.78 770.89
  L 372.94 770.96
  A 1.62 1.62 0.0 0 0 374.56 769.32
  L 374.56 769.28
  A 1.80 1.80 0.0 0 0 372.67 767.60
  C 365.10 767.96 355.44 767.12 353.99 758.24
  C 353.59 755.74 353.25 753.92 353.25 751.89
  Q 353.26 748.62 353.24 707.32
  A 3.22 3.20 67.2 0 1 354.14 705.09
  C 358.59 700.47 365.58 692.73 371.48 697.83
  C 375.05 700.92 377.43 705.09 383.94 704.40
  C 392.44 703.50 395.19 692.94 388.82 687.55
  C 382.03 681.81 373.86 682.12 366.83 687.32
  Q 359.91 692.44 353.83 699.25
  A 0.35 0.35 0.0 0 1 353.22 699.03"
/>
<path stroke="#705b2a" vector-effect="non-scaling-stroke" d="
  M 790.46 363.06
  C 795.12 361.76 798.35 358.18 799.60 353.60
  C 802.46 343.08 800.87 329.31 792.91 320.83
  C 786.93 314.47 775.10 310.79 769.96 320.71
  C 767.44 325.58 767.81 335.01 768.60 340.16
  Q 770.10 349.85 776.38 357.23
  C 779.53 360.93 785.38 364.47 790.46 363.06"
/>
<path stroke="#705b2a" vector-effect="non-scaling-stroke" d="
  M 771.66 404.97
  Q 762.17 411.74 762.15 423.78
  C 762.12 442.92 777.34 453.61 795.32 450.83
  C 811.20 448.37 819.41 434.88 817.07 419.46
  C 815.65 410.09 808.05 406.39 799.49 405.75
  Q 785.84 404.73 772.89 404.59
  A 2.09 2.06 27.4 0 0 771.66 404.97"
/>
<path stroke="#705b2a" vector-effect="non-scaling-stroke" d="
  M 647.30 661.83
  A 0.42 0.42 0.0 0 0 646.54 661.84
  L 625.09 710.28
  A 0.42 0.42 0.0 0 0 625.48 710.87
  L 670.79 710.87
  A 0.42 0.42 0.0 0 0 671.17 710.26
  L 647.30 661.83"
/>
<path stroke="#705b2a" vector-effect="non-scaling-stroke" d="
  M 431.21 730.01
  C 432.39 745.30 441.62 768.82 460.73 768.49
  C 472.13 768.30 477.62 758.60 479.21 748.53
  Q 480.63 739.57 479.90 730.75
  Q 479.72 728.56 479.55 726.41
  C 478.37 711.11 469.15 687.59 450.03 687.92
  C 438.63 688.11 433.14 697.81 431.55 707.88
  Q 430.13 716.84 430.86 725.66
  Q 431.04 727.86 431.21 730.01"
/>
</g>
<path fill="#0d0d0d" d="
  M 1026.00 0.00
  L 1026.00 1026.00
  L 0.00 1026.00
  L 0.00 0.00
  L 1026.00 0.00
  Z
  M 192.07 395.75
  A 1.16 1.16 0.0 0 0 193.23 396.98
  L 297.23 396.98
  A 2.26 2.25 -88.4 0 0 299.48 394.85
  L 301.57 358.99
  A 0.65 0.63 23.0 0 0 301.35 358.47
  Q 300.35 357.63 299.06 358.33
  A 1.33 1.29 84.9 0 0 298.45 359.08
  Q 296.80 364.27 296.43 365.16
  Q 289.83 380.99 274.94 387.46
  Q 268.31 390.34 256.73 390.73
  Q 245.32 391.12 238.12 390.13
  C 231.58 389.23 231.34 384.18 231.34 378.76
  Q 231.38 292.09 231.34 275.59
  C 231.30 263.33 236.88 262.75 247.35 262.18
  A 1.28 1.28 0.0 0 0 248.57 260.90
  L 248.57 260.38
  A 1.68 1.68 0.0 0 0 246.94 258.70
  Q 242.31 258.54 237.78 258.95
  C 229.00 259.75 220.13 259.46 211.53 259.42
  C 205.80 259.39 199.56 258.48 193.38 258.68
  A 1.27 1.27 0.0 0 0 192.16 259.87
  L 192.09 261.06
  A 1.03 1.02 1.3 0 0 193.13 262.14
  Q 194.09 262.13 200.45 262.85
  C 209.39 263.88 209.42 271.25 209.40 278.25
  Q 209.25 344.31 209.40 379.51
  Q 209.42 384.73 208.07 388.39
  C 206.21 393.43 198.16 393.97 193.58 393.54
  A 1.33 1.33 0.0 0 0 192.13 394.79
  L 192.07 395.75
  Z
  M 355.7695 274.1740
  A 10.80 10.80 0.0 0 0 345.4312 262.9312
  L 342.5338 262.8098
  A 10.80 10.80 0.0 0 0 331.2910 273.1481
  L 331.1905 275.5460
  A 10.80 10.80 0.0 0 0 341.5288 286.7888
  L 344.4262 286.9102
  A 10.80 10.80 0.0 0 0 355.6690 276.5719
  L 355.7695 274.1740
  Z
  M 589.0019 273.2359
  A 10.87 10.87 0.0 0 0 577.6862 262.8306
  L 574.8287 262.9504
  A 10.87 10.87 0.0 0 0 564.4235 274.2661
  L 564.5181 276.5241
  A 10.87 10.87 0.0 0 0 575.8338 286.9294
  L 578.6913 286.8096
  A 10.87 10.87 0.0 0 0 589.0965 275.4939
  L 589.0019 273.2359
  Z
  M 501.05 312.71
  L 501.05 296.58
  A 0.95 0.95 0.0 0 0 500.10 295.63
  L 498.05 295.63
  A 1.15 1.14 -78.2 0 0 497.00 296.32
  C 494.03 303.08 491.28 307.81 484.12 311.11
  Q 478.35 313.78 471.61 313.76
  A 1.51 1.50 90.0 0 0 470.11 315.27
  L 470.11 317.10
  A 1.36 1.35 -88.9 0 0 471.41 318.46
  C 474.99 318.59 479.84 318.79 481.00 323.17
  Q 482.17 327.61 482.17 330.50
  Q 482.22 369.31 482.15 378.98
  Q 482.10 384.74 483.08 387.42
  C 485.79 394.84 493.27 398.74 500.77 399.49
  Q 514.80 400.90 525.99 393.27
  C 529.75 390.70 532.85 388.38 535.75 385.58
  A 1.61 1.59 75.2 0 0 536.19 384.81
  Q 536.44 383.84 536.25 383.43
  A 1.85 1.83 -29.1 0 0 533.56 382.68
  C 528.53 385.98 524.27 388.39 518.03 388.70
  C 510.40 389.09 504.15 386.48 501.81 379.14
  Q 501.05 376.75 501.05 370.64
  Q 501.07 353.47 501.08 320.42
  A 0.65 0.64 -84.8 0 1 501.84 319.78
  C 505.72 320.51 510.02 320.28 513.73 320.74
  Q 521.75 321.75 528.05 323.15
  A 2.36 2.35 17.4 0 0 530.75 321.74
  Q 532.38 317.71 530.95 312.57
  A 1.43 1.43 0.0 0 0 529.47 311.52
  L 501.80 313.41
  A 0.70 0.70 0.0 0 1 501.05 312.71
  Z
  M 653.99 325.52
  Q 653.79 318.24 650.54 312.15
  Q 648.27 307.90 643.63 310.24
  Q 631.75 316.24 616.89 323.24
  A 1.45 1.44 77.5 0 0 616.06 324.55
  L 616.06 325.96
  A 1.11 1.10 -10.4 0 0 617.56 326.99
  C 624.18 324.51 634.33 319.79 635.09 331.59
  Q 635.62 339.92 635.28 381.54
  C 635.21 389.28 633.19 393.44 624.00 393.65
  A 1.72 1.72 0.0 0 0 622.32 395.44
  L 622.32 395.46
  A 1.66 1.66 0.0 0 0 623.97 396.97
  L 665.69 396.99
  A 1.67 1.67 0.0 0 0 667.36 395.40
  L 667.36 395.34
  A 1.71 1.71 0.0 0 0 665.55 393.64
  C 661.07 393.90 656.43 392.27 655.22 387.57
  Q 654.07 383.10 654.06 380.75
  Q 653.98 366.38 654.03 335.40
  C 654.03 334.03 653.85 332.26 654.86 331.36
  C 662.53 324.50 674.22 319.79 684.21 323.80
  Q 690.34 326.26 692.31 331.96
  Q 694.23 337.52 694.31 340.02
  Q 694.71 352.94 694.46 380.33
  C 694.37 390.18 692.50 392.94 682.74 393.76
  A 1.31 1.30 -2.4 0 0 681.54 395.06
  L 681.54 395.82
  A 1.08 1.07 0.3 0 0 682.61 396.89
  L 724.87 397.00
  A 1.56 1.55 0.6 0 0 726.43 395.48
  L 726.44 395.38
  A 1.71 1.71 0.0 0 0 724.69 393.65
  C 715.51 393.86 713.24 388.15 713.27 380.27
  Q 713.37 342.80 713.23 334.50
  C 713.07 324.46 708.17 314.42 698.38 310.70
  C 686.55 306.19 673.20 309.62 663.30 317.54
  Q 658.91 321.05 654.66 325.77
  A 0.39 0.38 65.2 0 1 653.99 325.52
  Z
  M 322.40 395.59
  A 1.33 1.33 0.0 0 0 323.73 396.96
  L 365.93 396.93
  A 1.36 1.35 -90.0 0 0 367.28 395.57
  L 367.28 395.11
  A 1.47 1.47 0.0 0 0 365.80 393.64
  C 356.11 393.67 354.22 388.44 354.19 380.00
  Q 354.02 326.22 354.48 312.30
  A 2.23 2.20 32.1 0 0 354.23 311.24
  Q 352.71 308.43 350.11 309.63
  Q 339.34 314.64 319.49 323.85
  A 1.92 1.92 0.0 0 0 318.49 326.22
  L 318.52 326.28
  A 1.82 1.82 0.0 0 0 320.79 327.41
  Q 323.35 326.59 326.47 325.44
  C 332.94 323.06 334.99 329.10 335.30 334.01
  Q 335.46 336.38 335.37 380.96
  C 335.35 389.06 333.59 393.22 323.98 393.69
  A 1.66 1.65 88.9 0 0 322.40 395.34
  L 322.40 395.59
  Z
  M 442.99 332.82
  L 442.99 314.59
  A 2.12 2.12 0.0 0 0 441.65 312.62
  Q 435.34 310.09 431.01 309.50
  Q 428.20 309.12 419.98 309.27
  C 414.54 309.37 408.02 311.13 403.73 313.53
  Q 389.09 321.75 391.98 339.32
  C 393.08 346.01 397.78 351.45 403.50 354.78
  Q 417.79 363.09 421.83 365.66
  Q 428.23 369.74 430.98 375.79
  C 432.61 379.37 432.99 387.60 429.64 390.98
  C 424.74 395.93 417.27 394.97 411.58 391.86
  Q 402.54 386.93 397.12 376.21
  Q 396.08 374.15 393.70 369.61
  A 1.64 1.64 0.0 0 0 390.61 370.38
  Q 390.72 384.97 390.74 389.06
  Q 390.77 392.34 392.68 393.47
  C 401.99 398.99 411.71 400.56 422.22 399.05
  Q 428.93 398.08 433.95 394.95
  Q 448.83 385.64 447.27 367.50
  C 446.46 358.15 438.82 352.31 431.34 348.05
  Q 422.94 343.26 415.85 338.40
  C 411.02 335.09 407.39 330.91 406.44 325.00
  C 404.44 312.47 418.70 312.72 425.85 316.64
  Q 433.33 320.74 437.70 327.77
  Q 438.60 329.21 439.14 333.08
  A 1.51 1.51 0.0 0 0 440.63 334.37
  L 441.43 334.37
  A 1.56 1.55 -0.0 0 0 442.99 332.82
  Z
  M 555.68 395.61
  A 1.33 1.33 0.0 0 0 557.01 396.98
  L 599.23 396.96
  A 1.36 1.35 -90.0 0 0 600.58 395.60
  L 600.58 395.14
  A 1.47 1.47 0.0 0 0 599.10 393.67
  C 589.40 393.69 587.51 388.46 587.48 380.02
  Q 587.32 326.22 587.78 312.29
  A 2.23 2.20 32.1 0 0 587.53 311.23
  Q 586.01 308.42 583.41 309.62
  Q 572.63 314.63 552.78 323.85
  A 1.92 1.92 0.0 0 0 551.78 326.22
  L 551.81 326.28
  A 1.82 1.82 0.0 0 0 554.08 327.41
  Q 556.64 326.59 559.76 325.44
  C 566.23 323.06 568.28 329.10 568.59 334.01
  Q 568.75 336.38 568.66 380.98
  C 568.63 389.08 566.87 393.24 557.26 393.71
  A 1.66 1.65 88.9 0 0 555.68 395.36
  L 555.68 395.61
  Z
  M 764.80 403.18
  A 0.47 0.47 0.0 0 1 764.97 404.03
  C 755.34 410.55 744.36 420.56 744.07 433.15
  C 743.66 450.67 760.21 458.52 775.84 459.00
  Q 798.88 459.69 817.05 445.16
  Q 829.19 435.46 833.00 420.75
  Q 833.99 416.91 833.74 409.52
  C 833.40 399.52 826.58 392.98 817.23 390.77
  Q 812.14 389.58 811.48 389.53
  Q 796.42 388.45 784.62 388.37
  C 781.76 388.35 777.27 387.62 775.25 387.30
  Q 767.71 386.08 765.68 380.56
  C 763.93 375.77 765.93 370.10 769.30 366.51
  A 1.12 1.11 29.3 0 1 770.41 366.20
  Q 786.58 370.64 802.03 363.76
  C 819.24 356.10 826.37 338.27 815.14 321.99
  A 0.47 0.47 0.0 0 1 815.53 321.26
  Q 823.60 321.36 831.87 324.88
  A 1.50 1.50 0.0 0 0 833.87 323.99
  Q 836.18 317.45 834.79 310.56
  A 1.51 1.51 0.0 0 0 833.36 309.34
  C 824.37 309.09 817.96 312.30 810.19 316.23
  A 1.32 1.31 -42.9 0 1 808.92 316.19
  Q 800.09 310.92 793.42 310.40
  Q 784.13 309.68 778.51 310.44
  C 765.97 312.14 750.91 319.63 748.85 334.01
  C 747.10 346.26 753.42 357.90 764.38 363.55
  A 0.60 0.60 0.0 0 1 764.46 364.57
  C 756.06 370.56 749.59 378.26 750.21 389.19
  C 750.72 397.99 756.90 401.52 764.80 403.18
  Z
  M 630.62 769.16
  A 1.45 1.45 0.0 0 0 629.21 767.71
  C 622.17 767.48 616.56 766.21 611.51 761.22
  C 607.05 756.82 608.47 748.42 610.67 743.16
  Q 612.99 737.63 620.93 719.59
  Q 622.13 716.88 624.78 717.10
  Q 625.71 717.17 626.21 717.17
  Q 640.37 717.20 672.78 717.19
  Q 674.59 717.19 675.51 719.05
  Q 690.28 748.98 690.36 749.16
  Q 693.57 755.74 694.71 760.15
  C 696.48 767.07 687.82 767.80 683.24 767.62
  A 1.34 1.34 0.0 0 0 681.84 768.96
  L 681.84 769.81
  A 1.25 1.24 0.0 0 0 683.09 771.05
  Q 692.29 771.11 695.50 770.79
  C 708.90 769.47 723.50 771.29 734.78 771.00
  A 1.13 1.13 0.0 0 0 735.88 769.87
  L 735.88 769.45
  A 1.77 1.77 0.0 0 0 734.30 767.69
  C 727.40 766.96 723.03 762.02 719.60 756.39
  Q 715.46 749.59 711.88 742.38
  Q 667.96 654.03 657.23 632.28
  Q 656.48 630.77 654.33 630.92
  A 2.49 2.48 -79.9 0 0 652.22 632.40
  Q 624.72 694.59 602.78 743.78
  Q 599.99 750.05 595.45 757.16
  Q 588.85 767.51 578.07 767.57
  A 1.77 1.77 0.0 0 0 576.32 769.15
  L 576.29 769.37
  A 1.55 1.55 0.0 0 0 577.76 771.09
  Q 582.94 771.33 597.29 770.24
  C 605.95 769.58 618.59 771.25 629.41 770.94
  A 1.25 1.25 0.0 0 0 630.62 769.69
  L 630.62 769.16
  Z
  M 240.01 712.45
  C 250.66 715.19 265.39 712.54 274.82 707.85
  Q 295.32 697.66 298.17 677.45
  Q 300.21 662.92 295.21 652.55
  C 289.27 640.26 276.03 634.58 262.71 632.88
  C 258.62 632.35 252.35 631.98 247.48 632.38
  C 241.44 632.87 237.10 632.58 229.86 633.12
  Q 215.79 634.15 200.99 632.70
  Q 200.38 632.64 194.78 632.67
  A 1.80 1.80 0.0 0 0 193.00 634.33
  L 192.99 634.42
  A 1.63 1.63 0.0 0 0 194.54 636.17
  C 205.39 636.69 210.24 637.74 210.28 649.78
  Q 210.36 681.34 210.28 752.25
  C 210.27 759.39 210.19 766.60 201.02 767.33
  Q 195.83 767.74 194.70 767.63
  A 1.57 1.56 4.3 0 0 192.97 769.11
  L 192.95 769.44
  A 1.37 1.36 -87.9 0 0 194.31 770.91
  L 254.11 770.94
  A 1.61 1.61 0.0 0 0 255.72 769.31
  L 255.72 769.25
  A 1.82 1.82 0.0 0 0 253.83 767.52
  Q 244.26 767.89 239.16 766.01
  Q 232.32 763.48 232.31 756.67
  Q 232.28 672.11 232.25 653.75
  C 232.25 647.88 231.59 639.62 237.96 638.20
  C 249.03 635.74 261.14 638.79 267.92 648.34
  C 274.56 657.67 275.23 668.25 274.50 679.74
  C 273.48 696.01 262.95 711.06 244.93 709.28
  Q 240.26 708.82 240.22 708.82
  A 1.13 1.13 0.0 0 0 238.97 709.92
  L 238.94 711.04
  A 1.43 1.42 -82.3 0 0 240.01 712.45
  Z
  M 780.49 770.86
  Q 792.42 770.87 805.00 771.05
  Q 806.69 771.08 807.87 771.00
  A 1.03 1.02 88.2 0 0 808.83 769.97
  L 808.83 768.80
  A 1.15 1.14 86.7 0 0 807.56 767.66
  Q 805.93 767.83 800.86 767.32
  C 791.67 766.39 791.40 759.34 791.40 752.00
  Q 791.41 698.60 791.44 651.79
  C 791.44 644.79 792.09 638.21 800.01 637.00
  Q 804.89 636.26 807.88 636.19
  A 1.00 1.00 0.0 0 0 808.86 635.19
  L 808.86 633.94
  A 1.23 1.22 4.4 0 0 807.82 632.73
  Q 805.41 632.38 794.75 633.29
  Q 792.08 633.52 780.54 633.52
  Q 769.00 633.51 766.33 633.28
  Q 755.67 632.36 753.26 632.71
  A 1.23 1.22 -4.3 0 0 752.22 633.92
  L 752.22 635.17
  A 1.00 1.00 0.0 0 0 753.20 636.17
  Q 756.19 636.24 761.07 636.98
  C 768.99 638.20 769.63 644.78 769.63 651.78
  Q 769.62 698.59 769.59 751.99
  C 769.58 759.33 769.31 766.38 760.12 767.30
  Q 755.05 767.81 753.42 767.64
  A 1.15 1.14 -86.6 0 0 752.14 768.78
  L 752.14 769.95
  A 1.03 1.02 -88.2 0 0 753.10 770.98
  Q 754.28 771.06 755.97 771.03
  Q 768.55 770.86 780.49 770.86
  Z
  M 443.70 684.27
  C 418.26 691.11 403.52 713.81 410.64 740.29
  C 417.75 766.77 441.89 779.03 467.33 772.19
  C 492.77 765.36 507.51 742.66 500.40 716.17
  C 493.28 689.69 469.15 677.43 443.70 684.27
  Z
  M 353.22 699.03
  Q 352.92 691.03 349.24 685.37
  C 347.63 682.90 345.72 682.88 343.14 684.16
  Q 333.20 689.13 316.40 697.12
  A 2.00 1.99 77.3 0 0 315.27 698.92
  L 315.27 699.76
  A 1.21 1.21 0.0 0 0 316.92 700.89
  C 325.51 697.56 334.42 694.06 334.52 708.26
  Q 334.72 734.63 334.49 756.25
  C 334.40 764.44 331.23 767.44 323.16 767.67
  A 1.69 1.69 0.0 0 0 321.53 769.21
  L 321.51 769.50
  A 1.28 1.28 0.0 0 0 322.78 770.89
  L 372.94 770.96
  A 1.62 1.62 0.0 0 0 374.56 769.32
  L 374.56 769.28
  A 1.80 1.80 0.0 0 0 372.67 767.60
  C 365.10 767.96 355.44 767.12 353.99 758.24
  C 353.59 755.74 353.25 753.92 353.25 751.89
  Q 353.26 748.62 353.24 707.32
  A 3.22 3.20 67.2 0 1 354.14 705.09
  C 358.59 700.47 365.58 692.73 371.48 697.83
  C 375.05 700.92 377.43 705.09 383.94 704.40
  C 392.44 703.50 395.19 692.94 388.82 687.55
  C 382.03 681.81 373.86 682.12 366.83 687.32
  Q 359.91 692.44 353.83 699.25
  A 0.35 0.35 0.0 0 1 353.22 699.03
  Z"
/>
<path fill="#d3a846" d="
  M 192.07 395.75
  L 192.13 394.79
  A 1.33 1.33 0.0 0 1 193.58 393.54
  C 198.16 393.97 206.21 393.43 208.07 388.39
  Q 209.42 384.73 209.40 379.51
  Q 209.25 344.31 209.40 278.25
  C 209.42 271.25 209.39 263.88 200.45 262.85
  Q 194.09 262.13 193.13 262.14
  A 1.03 1.02 1.3 0 1 192.09 261.06
  L 192.16 259.87
  A 1.27 1.27 0.0 0 1 193.38 258.68
  C 199.56 258.48 205.80 259.39 211.53 259.42
  C 220.13 259.46 229.00 259.75 237.78 258.95
  Q 242.31 258.54 246.94 258.70
  A 1.68 1.68 0.0 0 1 248.57 260.38
  L 248.57 260.90
  A 1.28 1.28 0.0 0 1 247.35 262.18
  C 236.88 262.75 231.30 263.33 231.34 275.59
  Q 231.38 292.09 231.34 378.76
  C 231.34 384.18 231.58 389.23 238.12 390.13
  Q 245.32 391.12 256.73 390.73
  Q 268.31 390.34 274.94 387.46
  Q 289.83 380.99 296.43 365.16
  Q 296.80 364.27 298.45 359.08
  A 1.33 1.29 84.9 0 1 299.06 358.33
  Q 300.35 357.63 301.35 358.47
  A 0.65 0.63 23.0 0 1 301.57 358.99
  L 299.48 394.85
  A 2.26 2.25 -88.4 0 1 297.23 396.98
  L 193.23 396.98
  A 1.16 1.16 0.0 0 1 192.07 395.75
  Z"
/>
<rect fill="#d3a846" x="-12.25" y="-12.00" transform="translate(343.48,274.86) rotate(2.4)" width="24.50" height="24.00" rx="10.80"/>
<rect fill="#d3a846" x="-12.30" y="-12.00" transform="translate(576.76,274.88) rotate(-2.4)" width="24.60" height="24.00" rx="10.87"/>
<path fill="#d3a846" d="
  M 501.80 313.41
  L 529.47 311.52
  A 1.43 1.43 0.0 0 1 530.95 312.57
  Q 532.38 317.71 530.75 321.74
  A 2.36 2.35 17.4 0 1 528.05 323.15
  Q 521.75 321.75 513.73 320.74
  C 510.02 320.28 505.72 320.51 501.84 319.78
  A 0.65 0.64 -84.8 0 0 501.08 320.42
  Q 501.07 353.47 501.05 370.64
  Q 501.05 376.75 501.81 379.14
  C 504.15 386.48 510.40 389.09 518.03 388.70
  C 524.27 388.39 528.53 385.98 533.56 382.68
  A 1.85 1.83 -29.1 0 1 536.25 383.43
  Q 536.44 383.84 536.19 384.81
  A 1.61 1.59 75.2 0 1 535.75 385.58
  C 532.85 388.38 529.75 390.70 525.99 393.27
  Q 514.80 400.90 500.77 399.49
  C 493.27 398.74 485.79 394.84 483.08 387.42
  Q 482.10 384.74 482.15 378.98
  Q 482.22 369.31 482.17 330.50
  Q 482.17 327.61 481.00 323.17
  C 479.84 318.79 474.99 318.59 471.41 318.46
  A 1.36 1.35 -88.9 0 1 470.11 317.10
  L 470.11 315.27
  A 1.51 1.50 -90.0 0 1 471.61 313.76
  Q 478.35 313.78 484.12 311.11
  C 491.28 307.81 494.03 303.08 497.00 296.32
  A 1.15 1.14 -78.2 0 1 498.05 295.63
  L 500.10 295.63
  A 0.95 0.95 0.0 0 1 501.05 296.58
  L 501.05 312.71
  A 0.70 0.70 0.0 0 0 501.80 313.41
  Z"
/>
<path fill="#d3a846" d="
  M 653.99 325.52
  A 0.39 0.38 65.2 0 0 654.66 325.77
  Q 658.91 321.05 663.30 317.54
  C 673.20 309.62 686.55 306.19 698.38 310.70
  C 708.17 314.42 713.07 324.46 713.23 334.50
  Q 713.37 342.80 713.27 380.27
  C 713.24 388.15 715.51 393.86 724.69 393.65
  A 1.71 1.71 0.0 0 1 726.44 395.38
  L 726.43 395.48
  A 1.56 1.55 0.6 0 1 724.87 397.00
  L 682.61 396.89
  A 1.08 1.07 0.3 0 1 681.54 395.82
  L 681.54 395.06
  A 1.31 1.30 -2.4 0 1 682.74 393.76
  C 692.50 392.94 694.37 390.18 694.46 380.33
  Q 694.71 352.94 694.31 340.02
  Q 694.23 337.52 692.31 331.96
  Q 690.34 326.26 684.21 323.80
  C 674.22 319.79 662.53 324.50 654.86 331.36
  C 653.85 332.26 654.03 334.03 654.03 335.40
  Q 653.98 366.38 654.06 380.75
  Q 654.07 383.10 655.22 387.57
  C 656.43 392.27 661.07 393.90 665.55 393.64
  A 1.71 1.71 0.0 0 1 667.36 395.34
  L 667.36 395.40
  A 1.67 1.67 0.0 0 1 665.69 396.99
  L 623.97 396.97
  A 1.66 1.66 0.0 0 1 622.32 395.46
  L 622.32 395.44
  A 1.72 1.72 0.0 0 1 624.00 393.65
  C 633.19 393.44 635.21 389.28 635.28 381.54
  Q 635.62 339.92 635.09 331.59
  C 634.33 319.79 624.18 324.51 617.56 326.99
  A 1.11 1.10 -10.4 0 1 616.06 325.96
  L 616.06 324.55
  A 1.45 1.44 77.5 0 1 616.89 323.24
  Q 631.75 316.24 643.63 310.24
  Q 648.27 307.90 650.54 312.15
  Q 653.79 318.24 653.99 325.52
  Z"
/>
<path fill="#d3a846" d="
  M 322.40 395.59
  L 322.40 395.34
  A 1.66 1.65 88.9 0 1 323.98 393.69
  C 333.59 393.22 335.35 389.06 335.37 380.96
  Q 335.46 336.38 335.30 334.01
  C 334.99 329.10 332.94 323.06 326.47 325.44
  Q 323.35 326.59 320.79 327.41
  A 1.82 1.82 0.0 0 1 318.52 326.28
  L 318.49 326.22
  A 1.92 1.92 0.0 0 1 319.49 323.85
  Q 339.34 314.64 350.11 309.63
  Q 352.71 308.43 354.23 311.24
  A 2.23 2.20 32.1 0 1 354.48 312.30
  Q 354.02 326.22 354.19 380.00
  C 354.22 388.44 356.11 393.67 365.80 393.64
  A 1.47 1.47 0.0 0 1 367.28 395.11
  L 367.28 395.57
  A 1.36 1.35 -90.0 0 1 365.93 396.93
  L 323.73 396.96
  A 1.33 1.33 0.0 0 1 322.40 395.59
  Z"
/>
<path fill="#d3a846" d="
  M 442.99 332.82
  A 1.56 1.55 -0.0 0 1 441.43 334.37
  L 440.63 334.37
  A 1.51 1.51 0.0 0 1 439.14 333.08
  Q 438.60 329.21 437.70 327.77
  Q 433.33 320.74 425.85 316.64
  C 418.70 312.72 404.44 312.47 406.44 325.00
  C 407.39 330.91 411.02 335.09 415.85 338.40
  Q 422.94 343.26 431.34 348.05
  C 438.82 352.31 446.46 358.15 447.27 367.50
  Q 448.83 385.64 433.95 394.95
  Q 428.93 398.08 422.22 399.05
  C 411.71 400.56 401.99 398.99 392.68 393.47
  Q 390.77 392.34 390.74 389.06
  Q 390.72 384.97 390.61 370.38
  A 1.64 1.64 0.0 0 1 393.70 369.61
  Q 396.08 374.15 397.12 376.21
  Q 402.54 386.93 411.58 391.86
  C 417.27 394.97 424.74 395.93 429.64 390.98
  C 432.99 387.60 432.61 379.37 430.98 375.79
  Q 428.23 369.74 421.83 365.66
  Q 417.79 363.09 403.50 354.78
  C 397.78 351.45 393.08 346.01 391.98 339.32
  Q 389.09 321.75 403.73 313.53
  C 408.02 311.13 414.54 309.37 419.98 309.27
  Q 428.20 309.12 431.01 309.50
  Q 435.34 310.09 441.65 312.62
  A 2.12 2.12 0.0 0 1 442.99 314.59
  L 442.99 332.82
  Z"
/>
<path fill="#d3a846" d="
  M 555.68 395.61
  L 555.68 395.36
  A 1.66 1.65 88.9 0 1 557.26 393.71
  C 566.87 393.24 568.63 389.08 568.66 380.98
  Q 568.75 336.38 568.59 334.01
  C 568.28 329.10 566.23 323.06 559.76 325.44
  Q 556.64 326.59 554.08 327.41
  A 1.82 1.82 0.0 0 1 551.81 326.28
  L 551.78 326.22
  A 1.92 1.92 0.0 0 1 552.78 323.85
  Q 572.63 314.63 583.41 309.62
  Q 586.01 308.42 587.53 311.23
  A 2.23 2.20 32.1 0 1 587.78 312.29
  Q 587.32 326.22 587.48 380.02
  C 587.51 388.46 589.40 393.69 599.10 393.67
  A 1.47 1.47 0.0 0 1 600.58 395.14
  L 600.58 395.60
  A 1.36 1.35 -90.0 0 1 599.23 396.96
  L 557.01 396.98
  A 1.33 1.33 0.0 0 1 555.68 395.61
  Z"
/>
<path fill="#d3a846" d="
  M 764.80 403.18
  C 756.90 401.52 750.72 397.99 750.21 389.19
  C 749.59 378.26 756.06 370.56 764.46 364.57
  A 0.60 0.60 0.0 0 0 764.38 363.55
  C 753.42 357.90 747.10 346.26 748.85 334.01
  C 750.91 319.63 765.97 312.14 778.51 310.44
  Q 784.13 309.68 793.42 310.40
  Q 800.09 310.92 808.92 316.19
  A 1.32 1.31 -42.9 0 0 810.19 316.23
  C 817.96 312.30 824.37 309.09 833.36 309.34
  A 1.51 1.51 0.0 0 1 834.79 310.56
  Q 836.18 317.45 833.87 323.99
  A 1.50 1.50 0.0 0 1 831.87 324.88
  Q 823.60 321.36 815.53 321.26
  A 0.47 0.47 0.0 0 0 815.14 321.99
  C 826.37 338.27 819.24 356.10 802.03 363.76
  Q 786.58 370.64 770.41 366.20
  A 1.12 1.11 29.3 0 0 769.30 366.51
  C 765.93 370.10 763.93 375.77 765.68 380.56
  Q 767.71 386.08 775.25 387.30
  C 777.27 387.62 781.76 388.35 784.62 388.37
  Q 796.42 388.45 811.48 389.53
  Q 812.14 389.58 817.23 390.77
  C 826.58 392.98 833.40 399.52 833.74 409.52
  Q 833.99 416.91 833.00 420.75
  Q 829.19 435.46 817.05 445.16
  Q 798.88 459.69 775.84 459.00
  C 760.21 458.52 743.66 450.67 744.07 433.15
  C 744.36 420.56 755.34 410.55 764.97 404.03
  A 0.47 0.47 0.0 0 0 764.80 403.18
  Z
  M 790.46 363.06
  C 795.12 361.76 798.35 358.18 799.60 353.60
  C 802.46 343.08 800.87 329.31 792.91 320.83
  C 786.93 314.47 775.10 310.79 769.96 320.71
  C 767.44 325.58 767.81 335.01 768.60 340.16
  Q 770.10 349.85 776.38 357.23
  C 779.53 360.93 785.38 364.47 790.46 363.06
  Z
  M 771.66 404.97
  Q 762.17 411.74 762.15 423.78
  C 762.12 442.92 777.34 453.61 795.32 450.83
  C 811.20 448.37 819.41 434.88 817.07 419.46
  C 815.65 410.09 808.05 406.39 799.49 405.75
  Q 785.84 404.73 772.89 404.59
  A 2.09 2.06 27.4 0 0 771.66 404.97
  Z"
/>
<path fill="#0d0d0d" d="
  M 799.60 353.60
  C 798.35 358.18 795.12 361.76 790.46 363.06
  C 785.38 364.47 779.53 360.93 776.38 357.23
  Q 770.10 349.85 768.60 340.16
  C 767.81 335.01 767.44 325.58 769.96 320.71
  C 775.10 310.79 786.93 314.47 792.91 320.83
  C 800.87 329.31 802.46 343.08 799.60 353.60
  Z"
/>
<path fill="#0d0d0d" d="
  M 771.66 404.97
  A 2.09 2.06 27.4 0 1 772.89 404.59
  Q 785.84 404.73 799.49 405.75
  C 808.05 406.39 815.65 410.09 817.07 419.46
  C 819.41 434.88 811.20 448.37 795.32 450.83
  C 777.34 453.61 762.12 442.92 762.15 423.78
  Q 762.17 411.74 771.66 404.97
  Z"
/>
<path fill="#d3a846" d="
  M 630.62 769.16
  L 630.62 769.69
  A 1.25 1.25 0.0 0 1 629.41 770.94
  C 618.59 771.25 605.95 769.58 597.29 770.24
  Q 582.94 771.33 577.76 771.09
  A 1.55 1.55 0.0 0 1 576.29 769.37
  L 576.32 769.15
  A 1.77 1.77 0.0 0 1 578.07 767.57
  Q 588.85 767.51 595.45 757.16
  Q 599.99 750.05 602.78 743.78
  Q 624.72 694.59 652.22 632.40
  A 2.49 2.48 -79.9 0 1 654.33 630.92
  Q 656.48 630.77 657.23 632.28
  Q 667.96 654.03 711.88 742.38
  Q 715.46 749.59 719.60 756.39
  C 723.03 762.02 727.40 766.96 734.30 767.69
  A 1.77 1.77 0.0 0 1 735.88 769.45
  L 735.88 769.87
  A 1.13 1.13 0.0 0 1 734.78 771.00
  C 723.50 771.29 708.90 769.47 695.50 770.79
  Q 692.29 771.11 683.09 771.05
  A 1.25 1.24 -0.0 0 1 681.84 769.81
  L 681.84 768.96
  A 1.34 1.34 0.0 0 1 683.24 767.62
  C 687.82 767.80 696.48 767.07 694.71 760.15
  Q 693.57 755.74 690.36 749.16
  Q 690.28 748.98 675.51 719.05
  Q 674.59 717.19 672.78 717.19
  Q 640.37 717.20 626.21 717.17
  Q 625.71 717.17 624.78 717.10
  Q 622.13 716.88 620.93 719.59
  Q 612.99 737.63 610.67 743.16
  C 608.47 748.42 607.05 756.82 611.51 761.22
  C 616.56 766.21 622.17 767.48 629.21 767.71
  A 1.45 1.45 0.0 0 1 630.62 769.16
  Z
  M 647.30 661.83
  A 0.42 0.42 0.0 0 0 646.54 661.84
  L 625.09 710.28
  A 0.42 0.42 0.0 0 0 625.48 710.87
  L 670.79 710.87
  A 0.42 0.42 0.0 0 0 671.17 710.26
  L 647.30 661.83
  Z"
/>
<path fill="#d3a846" d="
  M 240.01 712.45
  A 1.43 1.42 -82.3 0 1 238.94 711.04
  L 238.97 709.92
  A 1.13 1.13 0.0 0 1 240.22 708.82
  Q 240.26 708.82 244.93 709.28
  C 262.95 711.06 273.48 696.01 274.50 679.74
  C 275.23 668.25 274.56 657.67 267.92 648.34
  C 261.14 638.79 249.03 635.74 237.96 638.20
  C 231.59 639.62 232.25 647.88 232.25 653.75
  Q 232.28 672.11 232.31 756.67
  Q 232.32 763.48 239.16 766.01
  Q 244.26 767.89 253.83 767.52
  A 1.82 1.82 0.0 0 1 255.72 769.25
  L 255.72 769.31
  A 1.61 1.61 0.0 0 1 254.11 770.94
  L 194.31 770.91
  A 1.37 1.36 -87.9 0 1 192.95 769.44
  L 192.97 769.11
  A 1.57 1.56 4.3 0 1 194.70 767.63
  Q 195.83 767.74 201.02 767.33
  C 210.19 766.60 210.27 759.39 210.28 752.25
  Q 210.36 681.34 210.28 649.78
  C 210.24 637.74 205.39 636.69 194.54 636.17
  A 1.63 1.63 0.0 0 1 192.99 634.42
  L 193.00 634.33
  A 1.80 1.80 0.0 0 1 194.78 632.67
  Q 200.38 632.64 200.99 632.70
  Q 215.79 634.15 229.86 633.12
  C 237.10 632.58 241.44 632.87 247.48 632.38
  C 252.35 631.98 258.62 632.35 262.71 632.88
  C 276.03 634.58 289.27 640.26 295.21 652.55
  Q 300.21 662.92 298.17 677.45
  Q 295.32 697.66 274.82 707.85
  C 265.39 712.54 250.66 715.19 240.01 712.45
  Z"
/>
<path fill="#d3a846" d="
  M 780.54 633.52
  Q 792.08 633.52 794.75 633.29
  Q 805.41 632.38 807.82 632.73
  A 1.23 1.22 4.4 0 1 808.86 633.94
  L 808.86 635.19
  A 1.00 1.00 0.0 0 1 807.88 636.19
  Q 804.89 636.26 800.01 637.00
  C 792.09 638.21 791.44 644.79 791.44 651.79
  Q 791.41 698.60 791.40 752.00
  C 791.40 759.34 791.67 766.39 800.86 767.32
  Q 805.93 767.83 807.56 767.66
  A 1.15 1.14 86.7 0 1 808.83 768.80
  L 808.83 769.97
  A 1.03 1.02 88.2 0 1 807.87 771.00
  Q 806.69 771.08 805.00 771.05
  Q 792.42 770.87 780.49 770.86
  Q 768.55 770.86 755.97 771.03
  Q 754.28 771.06 753.10 770.98
  A 1.03 1.02 -88.2 0 1 752.14 769.95
  L 752.14 768.78
  A 1.15 1.14 -86.6 0 1 753.42 767.64
  Q 755.05 767.81 760.12 767.30
  C 769.31 766.38 769.58 759.33 769.59 751.99
  Q 769.62 698.59 769.63 651.78
  C 769.63 644.78 768.99 638.20 761.07 636.98
  Q 756.19 636.24 753.20 636.17
  A 1.00 1.00 0.0 0 1 752.22 635.17
  L 752.22 633.92
  A 1.23 1.22 -4.3 0 1 753.26 632.71
  Q 755.67 632.36 766.33 633.28
  Q 769.00 633.51 780.54 633.52
  Z"
/>
<path fill="#0d0d0d" d="
  M 647.30 661.83
  L 671.17 710.26
  A 0.42 0.42 0.0 0 1 670.79 710.87
  L 625.48 710.87
  A 0.42 0.42 0.0 0 1 625.09 710.28
  L 646.54 661.84
  A 0.42 0.42 0.0 0 1 647.30 661.83
  Z"
/>
<path fill="#d3a846" d="
  M 500.40 716.17
  C 507.51 742.66 492.77 765.36 467.33 772.19
  C 441.89 779.03 417.75 766.77 410.64 740.29
  C 403.52 713.81 418.26 691.11 443.70 684.27
  C 469.15 677.43 493.28 689.69 500.40 716.17
  Z
  M 431.21 730.01
  C 432.39 745.30 441.62 768.82 460.73 768.49
  C 472.13 768.30 477.62 758.60 479.21 748.53
  Q 480.63 739.57 479.90 730.75
  Q 479.72 728.56 479.55 726.41
  C 478.37 711.11 469.15 687.59 450.03 687.92
  C 438.63 688.11 433.14 697.81 431.55 707.88
  Q 430.13 716.84 430.86 725.66
  Q 431.04 727.86 431.21 730.01
  Z"
/>
<path fill="#d3a846" d="
  M 353.22 699.03
  A 0.35 0.35 0.0 0 0 353.83 699.25
  Q 359.91 692.44 366.83 687.32
  C 373.86 682.12 382.03 681.81 388.82 687.55
  C 395.19 692.94 392.44 703.50 383.94 704.40
  C 377.43 705.09 375.05 700.92 371.48 697.83
  C 365.58 692.73 358.59 700.47 354.14 705.09
  A 3.22 3.20 67.2 0 0 353.24 707.32
  Q 353.26 748.62 353.25 751.89
  C 353.25 753.92 353.59 755.74 353.99 758.24
  C 355.44 767.12 365.10 767.96 372.67 767.60
  A 1.80 1.80 0.0 0 1 374.56 769.28
  L 374.56 769.32
  A 1.62 1.62 0.0 0 1 372.94 770.96
  L 322.78 770.89
  A 1.28 1.28 0.0 0 1 321.51 769.50
  L 321.53 769.21
  A 1.69 1.69 0.0 0 1 323.16 767.67
  C 331.23 767.44 334.40 764.44 334.49 756.25
  Q 334.72 734.63 334.52 708.26
  C 334.42 694.06 325.51 697.56 316.92 700.89
  A 1.21 1.21 0.0 0 1 315.27 699.76
  L 315.27 698.92
  A 2.00 1.99 77.3 0 1 316.40 697.12
  Q 333.20 689.13 343.14 684.16
  C 345.72 682.88 347.63 682.90 349.24 685.37
  Q 352.92 691.03 353.22 699.03
  Z"
/>
<path fill="#0d0d0d" d="
  M 479.55 726.41
  Q 479.72 728.56 479.90 730.75
  Q 480.63 739.57 479.21 748.53
  C 477.62 758.60 472.13 768.30 460.73 768.49
  C 441.62 768.82 432.39 745.30 431.21 730.01
  Q 431.04 727.86 430.86 725.66
  Q 430.13 716.84 431.55 707.88
  C 433.14 697.81 438.63 688.11 450.03 687.92
  C 469.15 687.59 478.37 711.11 479.55 726.41
  Z"
/>
</svg>
