<?xml version="1.0" encoding="UTF-8" standalone="no"?>
<!DOCTYPE svg PUBLIC "-//W3C//DTD SVG 1.1//EN" "http://www.w3.org/Graphics/SVG/1.1/DTD/svg11.dtd">
<svg xmlns="http://www.w3.org/2000/svg" version="1.1" viewBox="0.00 0.00 128.00 128.00">
<g stroke-width="2.00" fill="none" stroke-linecap="butt">
<path stroke="#2091f6" vector-effect="non-scaling-stroke" d="
  M 19.74 0.88
  L 18.07 127.50"
/>
<path stroke="#3f7ef3" vector-effect="non-scaling-stroke" d="
  M 30.47 6.96
  C 28.47 45.60 30.20 83.63 27.36 122.82"
/>
<path stroke="#6664f2" vector-effect="non-scaling-stroke" d="
  M 55.74 21.41
  L 57.59 53.62"
/>
<path stroke="#6664f2" vector-effect="non-scaling-stroke" d="
  M 54.48 77.23
  Q 53.49 92.31 54.06 107.34"
/>
<path stroke="#aa2bf1" vector-effect="non-scaling-stroke" d="
  M 93.81 50.11
  Q 93.88 60.28 95.47 70.34"
/>
<path stroke="#6e5cf2" vector-effect="non-scaling-stroke" d="
  M 77.11 70.70
  Q 74.81 64.78 74.68 58.02
  Q 74.58 52.49 73.60 40.20"
/>
</g>
<path fill="#1399f7" d="
  M 19.74 0.88
  L 18.07 127.50
  Q 11.41 127.79 8.75 123.42
  Q 7.15 120.79 7.16 113.80
  Q 7.20 61.40 7.21 9.01
  C 7.21 2.79 13.82 -0.97 19.74 0.88
  Z"
/>
<path fill="#2c89f4" d="
  M 30.47 6.96
  C 28.47 45.60 30.20 83.63 27.36 122.82
  Q 22.96 125.99 18.07 127.50
  L 19.74 0.88
  L 30.47 6.96
  Z"
/>
<path fill="#8b45f2" d="
  M 93.81 50.11
  Q 93.88 60.28 95.47 70.34
  L 66.84 118.08
  A 0.17 0.17 0.0 0 1 66.53 117.96
  L 77.11 70.70
  Q 74.81 64.78 74.68 58.02
  Q 74.58 52.49 73.60 40.20
  L 94.97 5.66
  A 0.13 0.13 0.0 0 1 95.21 5.75
  L 85.29 49.76
  A 0.34 0.34 0.0 0 0 85.63 50.18
  L 93.81 50.11
  Z"
/>
<path fill="#5173f1" d="
  M 30.47 6.96
  L 55.74 21.41
  L 57.59 53.62
  L 43.22 76.59
  A 0.41 0.40 16.5 0 0 43.56 77.21
  L 54.48 77.23
  Q 53.49 92.31 54.06 107.34
  L 27.36 122.82
  C 30.20 83.63 28.47 45.60 30.47 6.96
  Z"
/>
<path fill="#7a54f2" d="
  M 57.59 53.62
  L 55.74 21.41
  L 71.32 30.33
  A 0.63 0.63 0.0 0 1 71.54 31.21
  L 57.59 53.62
  Z"
/>
<path fill="#5173f1" d="
  M 77.11 70.70
  L 55.32 70.56
  A 0.25 0.25 0.0 0 1 55.11 70.18
  L 73.60 40.20
  Q 74.58 52.49 74.68 58.02
  Q 74.81 64.78 77.11 70.70
  Z"
/>
<path fill="#c911ef" d="
  M 95.47 70.34
  Q 93.88 60.28 93.81 50.11
  L 107.17 50.09
  A 0.32 0.32 0.0 0 1 107.45 50.57
  L 95.47 70.34
  Z"
/>
<path fill="#c911ef" d="
  M 94.71 84.09
  L 112.52 54.52
  A 0.68 0.68 0.0 0 1 113.38 54.25
  Q 118.67 56.55 120.21 60.53
  C 122.02 65.19 119.64 70.03 115.46 72.46
  Q 102.88 79.75 95.03 84.42
  A 0.24 0.24 0.0 0 1 94.71 84.09
  Z"
/>
<path fill="#7a54f2" d="
  M 54.06 107.34
  Q 53.49 92.31 54.48 77.23
  L 68.61 77.22
  A 0.37 0.37 0.0 0 1 68.97 77.67
  L 63.63 101.34
  A 1.18 1.18 0.0 0 1 63.09 102.09
  L 54.06 107.34
  Z"
/>
</svg>
