<svg width="240" height="240" viewBox="0 0 240 240" fill="none" xmlns="http://www.w3.org/2000/svg">
<g clip-path="url(#clip0_1237_3664)">
<rect width="240" height="240" fill="#060D20"/>
<g filter="url(#filter0_d_1237_3664)">
<mask id="path-1-inside-1_1237_3664" fill="white">
<path d="M240 120C240 186.274 186.274 240 120 240C53.7258 240 0 186.274 0 120C0 53.7258 53.7258 0 120 0C186.274 0 240 53.7258 240 120Z"/>
</mask>
<g clip-path="url(#paint0_angular_1237_3664_clip_path)" data-figma-skip-parse="true" mask="url(#path-1-inside-1_1237_3664)"><g transform="matrix(0 0.12 -0.12 0 120 120)"></g></g><path d="M240 120H233C233 182.408 182.408 233 120 233V240V247C190.14 247 247 190.14 247 120H240ZM120 240V233C57.5918 233 7 182.408 7 120H0H-7C-7 190.14 49.8598 247 120 247V240ZM0 120H7C7 57.5918 57.5918 7 120 7V0V-7C49.8598 -7 -7 49.8598 -7 120H0ZM120 0V7C182.408 7 233 57.5918 233 120H240H247C247 49.8598 190.14 -7 120 -7V0Z" data-figma-gradient-fill="{&#34;type&#34;:&#34;GRADIENT_ANGULAR&#34;,&#34;stops&#34;:[{&#34;color&#34;:{&#34;r&#34;:0.25490197539329529,&#34;g&#34;:0.29803922772407532,&#34;b&#34;:0.82352942228317261,&#34;a&#34;:0.0},&#34;position&#34;:0.0},{&#34;color&#34;:{&#34;r&#34;:0.25490197539329529,&#34;g&#34;:0.29803922772407532,&#34;b&#34;:0.82352942228317261,&#34;a&#34;:0.0},&#34;position&#34;:0.34999999403953552},{&#34;color&#34;:{&#34;r&#34;:0.25490197539329529,&#34;g&#34;:0.29803922772407532,&#34;b&#34;:0.82352942228317261,&#34;a&#34;:1.0},&#34;position&#34;:0.44999998807907104},{&#34;color&#34;:{&#34;r&#34;:0.25490197539329529,&#34;g&#34;:0.29803922772407532,&#34;b&#34;:0.82352942228317261,&#34;a&#34;:1.0},&#34;position&#34;:0.55000001192092896},{&#34;color&#34;:{&#34;r&#34;:0.25490197539329529,&#34;g&#34;:0.29803922772407532,&#34;b&#34;:0.82352942228317261,&#34;a&#34;:0.0},&#34;position&#34;:0.64999997615814209},{&#34;color&#34;:{&#34;r&#34;:0.25490197539329529,&#34;g&#34;:0.29803922772407532,&#34;b&#34;:0.82352942228317261,&#34;a&#34;:0.0},&#34;position&#34;:1.0}],&#34;stopsVar&#34;:[{&#34;color&#34;:{&#34;r&#34;:0.25490197539329529,&#34;g&#34;:0.29803922772407532,&#34;b&#34;:0.82352942228317261,&#34;a&#34;:0.0},&#34;position&#34;:0.0},{&#34;color&#34;:{&#34;r&#34;:0.25490197539329529,&#34;g&#34;:0.29803922772407532,&#34;b&#34;:0.82352942228317261,&#34;a&#34;:0.0},&#34;position&#34;:0.34999999403953552},{&#34;color&#34;:{&#34;r&#34;:0.25490197539329529,&#34;g&#34;:0.29803922772407532,&#34;b&#34;:0.82352942228317261,&#34;a&#34;:1.0},&#34;position&#34;:0.44999998807907104},{&#34;color&#34;:{&#34;r&#34;:0.25490197539329529,&#34;g&#34;:0.29803922772407532,&#34;b&#34;:0.82352942228317261,&#34;a&#34;:1.0},&#34;position&#34;:0.55000001192092896},{&#34;color&#34;:{&#34;r&#34;:0.25490197539329529,&#34;g&#34;:0.29803922772407532,&#34;b&#34;:0.82352942228317261,&#34;a&#34;:0.0},&#34;position&#34;:0.64999997615814209},{&#34;color&#34;:{&#34;r&#34;:0.25490197539329529,&#34;g&#34;:0.29803922772407532,&#34;b&#34;:0.82352942228317261,&#34;a&#34;:0.0},&#34;position&#34;:1.0}],&#34;transform&#34;:{&#34;m00&#34;:1.4695762442780251e-14,&#34;m01&#34;:-240.0,&#34;m02&#34;:240.0,&#34;m10&#34;:240.0,&#34;m11&#34;:1.4695762442780251e-14,&#34;m12&#34;:-1.4695762442780251e-14},&#34;opacity&#34;:1.0,&#34;blendMode&#34;:&#34;NORMAL&#34;,&#34;visible&#34;:true}" mask="url(#path-1-inside-1_1237_3664)"/>
</g>
<g clip-path="url(#clip1_1237_3664)">
<g filter="url(#filter1_f_1237_3664)">
<circle cx="120" cy="-159.422" r="217.222" fill="#414CD2" fill-opacity="0.5"/>
</g>
<g filter="url(#filter2_f_1237_3664)">
<ellipse cx="347.422" cy="-17.0003" rx="173.022" ry="74.8" fill="#060D20"/>
</g>
<g filter="url(#filter3_f_1237_3664)">
<ellipse cx="-107.423" cy="-17.0003" rx="173.022" ry="74.8" fill="#060D20"/>
</g>
</g>
<path d="M92.4043 141.095C93.3481 141.221 94.3105 141.287 95.2871 141.287H115.957V148.104C115.957 153.232 112.679 157.591 108.105 159.208V180.541C108.105 182.709 106.348 184.467 104.181 184.467C102.013 184.467 100.255 182.709 100.255 180.541V159.208C95.6815 157.591 92.4044 153.232 92.4043 148.104V141.095ZM72.7764 61.5391C74.9443 61.5391 76.7021 63.2969 76.7021 65.4648V86.7979C81.0185 88.3239 84.1777 92.2933 84.5195 97.0449C77.5235 101.04 72.7775 108.807 72.7773 117.733C72.7773 126.66 77.5242 134.427 84.5205 138.422C84.1803 143.175 81.0197 147.146 76.7021 148.673V170.007C76.702 172.175 74.9442 173.932 72.7764 173.932C70.6085 173.932 68.8507 172.175 68.8506 170.007V148.673C64.2774 147.056 61 142.696 61 137.569V97.9014C61.0002 92.7745 64.2774 88.4148 68.8506 86.7979V65.4648C68.8507 63.297 70.6085 61.5391 72.7764 61.5391ZM166.988 61.5391C169.156 61.5392 170.914 63.297 170.914 65.4648V86.7979C175.487 88.4148 178.764 92.7745 178.765 97.9014V137.569C178.765 142.696 175.487 147.056 170.914 148.673V170.007C170.914 172.175 169.156 173.932 166.988 173.932C164.82 173.932 163.063 172.175 163.062 170.007V148.673C158.745 147.146 155.585 143.176 155.244 138.423C162.241 134.428 166.989 126.661 166.989 117.733C166.989 108.806 162.241 101.038 155.244 97.0439C155.586 92.2925 158.746 88.3227 163.062 86.7969V65.4648C163.063 63.2969 164.82 61.5391 166.988 61.5391ZM147.36 148.104C147.36 153.232 144.083 157.591 139.51 159.208V166.492C139.51 168.66 137.752 170.417 135.584 170.417C133.416 170.417 131.658 168.66 131.658 166.492V159.207C127.085 157.59 123.808 153.231 123.808 148.104V141.287H144.479C145.456 141.287 146.417 141.221 147.36 141.095V148.104ZM103.933 108.531C108.79 108.531 112.727 112.651 112.728 117.733C112.728 122.816 108.79 126.937 103.933 126.937C99.0753 126.936 95.1377 122.816 95.1377 117.733C95.1379 112.651 99.0754 108.531 103.933 108.531ZM135.833 108.531C140.69 108.531 144.629 112.651 144.629 117.733C144.629 122.816 140.69 126.937 135.833 126.937C130.976 126.936 127.038 122.816 127.038 117.733C127.038 112.651 130.976 108.532 135.833 108.531ZM104.181 51C106.348 51.0002 108.105 52.758 108.105 54.9258V76.2578C112.679 77.8745 115.957 82.235 115.957 87.3623V94.1807H95.2871C94.3105 94.1807 93.3481 94.2458 92.4043 94.3721V87.3623C92.4044 82.2351 95.6813 77.8746 100.255 76.2578V54.9258C100.255 52.7579 102.013 51 104.181 51ZM135.584 51C137.752 51 139.51 52.7579 139.51 54.9258V62.209C144.083 63.8258 147.36 68.1863 147.36 73.3135V94.3721C146.417 94.246 145.456 94.1807 144.479 94.1807H123.808V73.3135C123.808 68.1864 127.085 63.8259 131.658 62.209V54.9258C131.658 52.7579 133.416 51.0001 135.584 51Z" fill="white"/>
</g>
<defs>
<filter id="filter0_d_1237_3664" x="-4" y="0" width="248" height="248" filterUnits="userSpaceOnUse" color-interpolation-filters="sRGB">
<feFlood flood-opacity="0" result="BackgroundImageFix"/>
<feColorMatrix in="SourceAlpha" type="matrix" values="0 0 0 0 0 0 0 0 0 0 0 0 0 0 0 0 0 0 127 0" result="hardAlpha"/>
<feOffset dy="4"/>
<feGaussianBlur stdDeviation="2"/>
<feComposite in2="hardAlpha" operator="out"/>
<feColorMatrix type="matrix" values="0 0 0 0 0 0 0 0 0 0 0 0 0 0 0 0 0 0 0.25 0"/>
<feBlend mode="normal" in2="BackgroundImageFix" result="effect1_dropShadow_1237_3664"/>
<feBlend mode="normal" in="SourceGraphic" in2="effect1_dropShadow_1237_3664" result="shape"/>
</filter>
<clipPath id="paint0_angular_1237_3664_clip_path"><path d="M240 120H233C233 182.408 182.408 233 120 233V240V247C190.14 247 247 190.14 247 120H240ZM120 240V233C57.5918 233 7 182.408 7 120H0H-7C-7 190.14 49.8598 247 120 247V240ZM0 120H7C7 57.5918 57.5918 7 120 7V0V-7C49.8598 -7 -7 49.8598 -7 120H0ZM120 0V7C182.408 7 233 57.5918 233 120H240H247C247 49.8598 190.14 -7 120 -7V0Z" mask="url(#path-1-inside-1_1237_3664)"/></clipPath><filter id="filter1_f_1237_3664" x="-399.444" y="-678.867" width="1038.89" height="1038.89" filterUnits="userSpaceOnUse" color-interpolation-filters="sRGB">
<feFlood flood-opacity="0" result="BackgroundImageFix"/>
<feBlend mode="normal" in="SourceGraphic" in2="BackgroundImageFix" result="shape"/>
<feGaussianBlur stdDeviation="151.111" result="effect1_foregroundBlur_1237_3664"/>
</filter>
<filter id="filter2_f_1237_3664" x="98.8444" y="-167.356" width="497.156" height="300.711" filterUnits="userSpaceOnUse" color-interpolation-filters="sRGB">
<feFlood flood-opacity="0" result="BackgroundImageFix"/>
<feBlend mode="normal" in="SourceGraphic" in2="BackgroundImageFix" result="shape"/>
<feGaussianBlur stdDeviation="37.7778" result="effect1_foregroundBlur_1237_3664"/>
</filter>
<filter id="filter3_f_1237_3664" x="-356" y="-167.356" width="497.156" height="300.711" filterUnits="userSpaceOnUse" color-interpolation-filters="sRGB">
<feFlood flood-opacity="0" result="BackgroundImageFix"/>
<feBlend mode="normal" in="SourceGraphic" in2="BackgroundImageFix" result="shape"/>
<feGaussianBlur stdDeviation="37.7778" result="effect1_foregroundBlur_1237_3664"/>
</filter>
<clipPath id="clip0_1237_3664">
<rect width="240" height="240" fill="white"/>
</clipPath>
<clipPath id="clip1_1237_3664">
<rect width="544" height="453.333" fill="white" transform="translate(-152)"/>
</clipPath>
</defs>
</svg>
