<?xml version="1.0" encoding="UTF-8" standalone="no"?>
<!DOCTYPE svg PUBLIC "-//W3C//DTD SVG 1.1//EN" "http://www.w3.org/Graphics/SVG/1.1/DTD/svg11.dtd">
<svg xmlns="http://www.w3.org/2000/svg" version="1.1" viewBox="0.00 0.00 276.00 274.00">
<g stroke-width="2.00" fill="none" stroke-linecap="butt">
<path stroke="#ba9ff2" vector-effect="non-scaling-stroke" d="
  M 138.00 220.02
  C 141.35 220.02 144.88 217.48 147.58 215.23
  Q 150.14 213.09 153.16 211.15
  Q 165.75 203.02 180.27 200.87
  Q 182.28 200.57 190.72 199.86
  Q 197.03 199.33 201.13 198.45
  Q 212.08 196.09 221.64 189.55
  C 224.72 187.45 227.07 184.92 229.84 183.02
  A 3.26 3.08 -86.8 0 0 230.59 182.31
  C 233.07 179.00 235.91 176.27 238.33 172.50
  Q 247.81 157.72 247.95 139.74
  Q 248.18 110.09 247.88 99.32
  Q 247.69 92.80 245.41 87.98
  Q 239.83 76.20 228.00 71.74
  Q 222.88 69.81 207.76 69.93
  Q 188.96 70.07 186.26 70.21
  Q 170.94 70.99 155.42 77.27
  C 151.00 79.06 147.12 81.64 141.93 84.52
  Q 141.39 84.82 140.12 86.05
  Q 139.08 87.05 138.01 87.05
  Q 136.93 87.05 135.90 86.05
  Q 134.63 84.82 134.09 84.52
  C 128.90 81.64 125.02 79.06 120.60 77.27
  Q 105.08 70.99 89.76 70.21
  Q 87.06 70.07 68.26 69.92
  Q 53.14 69.80 48.02 71.73
  Q 36.19 76.19 30.61 87.97
  Q 28.33 92.79 28.14 99.31
  Q 27.84 110.08 28.06 139.73
  Q 28.20 157.71 37.68 172.49
  C 40.10 176.26 42.94 178.99 45.42 182.30
  A 3.26 3.08 86.8 0 0 46.17 183.01
  C 48.94 184.91 51.29 187.44 54.37 189.54
  Q 63.93 196.08 74.88 198.44
  Q 78.98 199.32 85.29 199.86
  Q 93.73 200.57 95.74 200.87
  Q 110.26 203.02 122.85 211.15
  Q 125.87 213.09 128.43 215.23
  C 131.13 217.48 134.66 220.02 138.00 220.02"
/>
<path stroke="#ba9ff2" vector-effect="non-scaling-stroke" d="
  M 138.01 197.05
  C 139.13 197.05 139.93 195.97 140.75 195.42
  Q 160.05 182.41 183.01 180.48
  Q 184.60 180.34 192.97 179.58
  Q 203.11 178.65 212.07 171.75
  Q 228.09 159.39 228.04 138.29
  Q 227.95 107.07 227.99 103.03
  C 228.05 97.44 227.42 94.51 223.30 91.44
  Q 221.32 89.96 213.80 89.96
  Q 190.68 89.95 188.00 90.09
  Q 167.81 91.09 151.95 101.96
  C 148.52 104.31 142.88 110.01 137.99 110.02
  C 133.10 110.02 127.46 104.32 124.03 101.97
  Q 108.16 91.11 87.97 90.12
  Q 85.29 89.98 62.17 90.00
  Q 54.65 90.00 52.67 91.48
  C 48.55 94.56 47.92 97.49 47.99 103.08
  Q 48.03 107.12 47.95 138.34
  Q 47.92 159.44 63.94 171.79
  Q 72.91 178.68 83.05 179.61
  Q 91.42 180.36 93.01 180.50
  Q 115.97 182.42 135.28 195.42
  C 136.09 195.97 136.89 197.05 138.01 197.05"
/>
<path stroke="#ba9ff2" vector-effect="non-scaling-stroke" d="
  M 91.19 142.83
  C 96.44 146.31 97.88 153.09 100.28 156.19
  A 5.30 4.83 4.2 0 0 100.96 156.91
  Q 107.78 162.69 114.82 157.34
  A 0.49 0.39 -85.5 0 0 114.94 157.21
  L 117.33 153.62
  A 1.42 1.41 68.8 0 0 117.54 153.14
  Q 118.34 149.69 117.62 147.47
  Q 114.52 138.03 107.68 130.56
  Q 106.00 128.72 102.20 126.20
  Q 98.40 123.69 96.06 122.85
  Q 86.51 119.47 76.61 120.29
  Q 74.29 120.49 71.42 122.57
  A 1.42 1.41 -1.7 0 0 71.06 122.96
  L 68.69 126.55
  A 0.49 0.39 -27.4 0 0 68.61 126.72
  Q 66.43 135.28 74.41 139.31
  A 5.30 4.83 62.9 0 0 75.34 139.66
  C 79.13 140.66 85.93 139.34 91.19 142.83"
/>
<path stroke="#ba9ff2" vector-effect="non-scaling-stroke" d="
  M 177.55 152.50
  C 180.14 147.58 181.59 143.75 187.16 141.47
  Q 189.27 140.60 198.86 139.85
  Q 203.70 139.47 206.39 134.91
  C 206.84 134.15 207.25 133.91 207.49 133.01
  Q 208.65 128.57 206.38 124.69
  Q 205.34 122.93 202.96 121.55
  Q 200.45 120.10 198.49 120.09
  C 190.72 120.05 181.67 121.36 175.35 125.24
  Q 169.91 128.57 166.25 132.77
  Q 165.70 133.39 162.10 138.63
  A 2.89 2.82 -21.9 0 0 161.69 139.56
  C 160.99 142.38 158.80 145.02 158.27 148.02
  C 157.64 151.62 159.11 156.92 163.12 158.28
  C 163.46 158.39 163.69 158.66 163.92 158.94
  A 1.58 1.55 77.3 0 0 164.72 159.46
  Q 170.12 160.93 174.54 157.50
  C 175.64 156.64 175.97 154.70 176.88 154.12
  Q 177.61 153.66 177.47 153.03
  A 0.76 0.76 0.0 0 1 177.55 152.50"
/>
</g>
<path fill="#743ee4" d="
  M 276.00 0.00
  L 276.00 274.00
  L 0.00 274.00
  L 0.00 0.00
  L 276.00 0.00
  Z
  M 138.00 220.02
  C 141.35 220.02 144.88 217.48 147.58 215.23
  Q 150.14 213.09 153.16 211.15
  Q 165.75 203.02 180.27 200.87
  Q 182.28 200.57 190.72 199.86
  Q 197.03 199.33 201.13 198.45
  Q 212.08 196.09 221.64 189.55
  C 224.72 187.45 227.07 184.92 229.84 183.02
  A 3.26 3.08 -86.8 0 0 230.59 182.31
  C 233.07 179.00 235.91 176.27 238.33 172.50
  Q 247.81 157.72 247.95 139.74
  Q 248.18 110.09 247.88 99.32
  Q 247.69 92.80 245.41 87.98
  Q 239.83 76.20 228.00 71.74
  Q 222.88 69.81 207.76 69.93
  Q 188.96 70.07 186.26 70.21
  Q 170.94 70.99 155.42 77.27
  C 151.00 79.06 147.12 81.64 141.93 84.52
  Q 141.39 84.82 140.12 86.05
  Q 139.08 87.05 138.01 87.05
  Q 136.93 87.05 135.90 86.05
  Q 134.63 84.82 134.09 84.52
  C 128.90 81.64 125.02 79.06 120.60 77.27
  Q 105.08 70.99 89.76 70.21
  Q 87.06 70.07 68.26 69.92
  Q 53.14 69.80 48.02 71.73
  Q 36.19 76.19 30.61 87.97
  Q 28.33 92.79 28.14 99.31
  Q 27.84 110.08 28.06 139.73
  Q 28.20 157.71 37.68 172.49
  C 40.10 176.26 42.94 178.99 45.42 182.30
  A 3.26 3.08 86.8 0 0 46.17 183.01
  C 48.94 184.91 51.29 187.44 54.37 189.54
  Q 63.93 196.08 74.88 198.44
  Q 78.98 199.32 85.29 199.86
  Q 93.73 200.57 95.74 200.87
  Q 110.26 203.02 122.85 211.15
  Q 125.87 213.09 128.43 215.23
  C 131.13 217.48 134.66 220.02 138.00 220.02
  Z"
/>
<path fill="#ffffff" d="
  M 138.01 87.05
  Q 139.08 87.05 140.12 86.05
  Q 141.39 84.82 141.93 84.52
  C 147.12 81.64 151.00 79.06 155.42 77.27
  Q 170.94 70.99 186.26 70.21
  Q 188.96 70.07 207.76 69.93
  Q 222.88 69.81 228.00 71.74
  Q 239.83 76.20 245.41 87.98
  Q 247.69 92.80 247.88 99.32
  Q 248.18 110.09 247.95 139.74
  Q 247.81 157.72 238.33 172.50
  C 235.91 176.27 233.07 179.00 230.59 182.31
  A 3.26 3.08 -86.8 0 1 229.84 183.02
  C 227.07 184.92 224.72 187.45 221.64 189.55
  Q 212.08 196.09 201.13 198.45
  Q 197.03 199.33 190.72 199.86
  Q 182.28 200.57 180.27 200.87
  Q 165.75 203.02 153.16 211.15
  Q 150.14 213.09 147.58 215.23
  C 144.88 217.48 141.35 220.02 138.00 220.02
  C 134.66 220.02 131.13 217.48 128.43 215.23
  Q 125.87 213.09 122.85 211.15
  Q 110.26 203.02 95.74 200.87
  Q 93.73 200.57 85.29 199.86
  Q 78.98 199.32 74.88 198.44
  Q 63.93 196.08 54.37 189.54
  C 51.29 187.44 48.94 184.91 46.17 183.01
  A 3.26 3.08 86.8 0 1 45.42 182.30
  C 42.94 178.99 40.10 176.26 37.68 172.49
  Q 28.20 157.71 28.06 139.73
  Q 27.84 110.08 28.14 99.31
  Q 28.33 92.79 30.61 87.97
  Q 36.19 76.19 48.02 71.73
  Q 53.14 69.80 68.26 69.92
  Q 87.06 70.07 89.76 70.21
  Q 105.08 70.99 120.60 77.27
  C 125.02 79.06 128.90 81.64 134.09 84.52
  Q 134.63 84.82 135.90 86.05
  Q 136.93 87.05 138.01 87.05
  Z
  M 138.01 197.05
  C 139.13 197.05 139.93 195.97 140.75 195.42
  Q 160.05 182.41 183.01 180.48
  Q 184.60 180.34 192.97 179.58
  Q 203.11 178.65 212.07 171.75
  Q 228.09 159.39 228.04 138.29
  Q 227.95 107.07 227.99 103.03
  C 228.05 97.44 227.42 94.51 223.30 91.44
  Q 221.32 89.96 213.80 89.96
  Q 190.68 89.95 188.00 90.09
  Q 167.81 91.09 151.95 101.96
  C 148.52 104.31 142.88 110.01 137.99 110.02
  C 133.10 110.02 127.46 104.32 124.03 101.97
  Q 108.16 91.11 87.97 90.12
  Q 85.29 89.98 62.17 90.00
  Q 54.65 90.00 52.67 91.48
  C 48.55 94.56 47.92 97.49 47.99 103.08
  Q 48.03 107.12 47.95 138.34
  Q 47.92 159.44 63.94 171.79
  Q 72.91 178.68 83.05 179.61
  Q 91.42 180.36 93.01 180.50
  Q 115.97 182.42 135.28 195.42
  C 136.09 195.97 136.89 197.05 138.01 197.05
  Z"
/>
<path fill="#743ee4" d="
  M 137.99 110.02
  C 142.88 110.01 148.52 104.31 151.95 101.96
  Q 167.81 91.09 188.00 90.09
  Q 190.68 89.95 213.80 89.96
  Q 221.32 89.96 223.30 91.44
  C 227.42 94.51 228.05 97.44 227.99 103.03
  Q 227.95 107.07 228.04 138.29
  Q 228.09 159.39 212.07 171.75
  Q 203.11 178.65 192.97 179.58
  Q 184.60 180.34 183.01 180.48
  Q 160.05 182.41 140.75 195.42
  C 139.93 195.97 139.13 197.05 138.01 197.05
  C 136.89 197.05 136.09 195.97 135.28 195.42
  Q 115.97 182.42 93.01 180.50
  Q 91.42 180.36 83.05 179.61
  Q 72.91 178.68 63.94 171.79
  Q 47.92 159.44 47.95 138.34
  Q 48.03 107.12 47.99 103.08
  C 47.92 97.49 48.55 94.56 52.67 91.48
  Q 54.65 90.00 62.17 90.00
  Q 85.29 89.98 87.97 90.12
  Q 108.16 91.11 124.03 101.97
  C 127.46 104.32 133.10 110.02 137.99 110.02
  Z
  M 91.19 142.83
  C 96.44 146.31 97.88 153.09 100.28 156.19
  A 5.30 4.83 4.2 0 0 100.96 156.91
  Q 107.78 162.69 114.82 157.34
  A 0.49 0.39 -85.5 0 0 114.94 157.21
  L 117.33 153.62
  A 1.42 1.41 68.8 0 0 117.54 153.14
  Q 118.34 149.69 117.62 147.47
  Q 114.52 138.03 107.68 130.56
  Q 106.00 128.72 102.20 126.20
  Q 98.40 123.69 96.06 122.85
  Q 86.51 119.47 76.61 120.29
  Q 74.29 120.49 71.42 122.57
  A 1.42 1.41 -1.7 0 0 71.06 122.96
  L 68.69 126.55
  A 0.49 0.39 -27.4 0 0 68.61 126.72
  Q 66.43 135.28 74.41 139.31
  A 5.30 4.83 62.9 0 0 75.34 139.66
  C 79.13 140.66 85.93 139.34 91.19 142.83
  Z
  M 177.55 152.50
  C 180.14 147.58 181.59 143.75 187.16 141.47
  Q 189.27 140.60 198.86 139.85
  Q 203.70 139.47 206.39 134.91
  C 206.84 134.15 207.25 133.91 207.49 133.01
  Q 208.65 128.57 206.38 124.69
  Q 205.34 122.93 202.96 121.55
  Q 200.45 120.10 198.49 120.09
  C 190.72 120.05 181.67 121.36 175.35 125.24
  Q 169.91 128.57 166.25 132.77
  Q 165.70 133.39 162.10 138.63
  A 2.89 2.82 -21.9 0 0 161.69 139.56
  C 160.99 142.38 158.80 145.02 158.27 148.02
  C 157.64 151.62 159.11 156.92 163.12 158.28
  C 163.46 158.39 163.69 158.66 163.92 158.94
  A 1.58 1.55 77.3 0 0 164.72 159.46
  Q 170.12 160.93 174.54 157.50
  C 175.64 156.64 175.97 154.70 176.88 154.12
  Q 177.61 153.66 177.47 153.03
  A 0.76 0.76 0.0 0 1 177.55 152.50
  Z"
/>
<path fill="#ffffff" d="
  M 102.20 126.20
  Q 106.00 128.72 107.68 130.56
  Q 114.52 138.03 117.62 147.47
  Q 118.34 149.69 117.54 153.14
  A 1.42 1.41 68.8 0 1 117.33 153.62
  L 114.94 157.21
  A 0.49 0.39 -85.5 0 1 114.82 157.34
  Q 107.78 162.69 100.96 156.91
  A 5.30 4.83 4.2 0 1 100.28 156.19
  C 97.88 153.09 96.44 146.31 91.19 142.83
  C 85.93 139.34 79.13 140.66 75.34 139.66
  A 5.30 4.83 62.9 0 1 74.41 139.31
  Q 66.43 135.28 68.61 126.72
  A 0.49 0.39 -27.4 0 1 68.69 126.55
  L 71.06 122.96
  A 1.42 1.41 -1.7 0 1 71.42 122.57
  Q 74.29 120.49 76.61 120.29
  Q 86.51 119.47 96.06 122.85
  Q 98.40 123.69 102.20 126.20
  Z"
/>
<path fill="#ffffff" d="
  M 177.47 153.03
  Q 177.61 153.66 176.88 154.12
  C 175.97 154.70 175.64 156.64 174.54 157.50
  Q 170.12 160.93 164.72 159.46
  A 1.58 1.55 77.3 0 1 163.92 158.94
  C 163.69 158.66 163.46 158.39 163.12 158.28
  C 159.11 156.92 157.64 151.62 158.27 148.02
  C 158.80 145.02 160.99 142.38 161.69 139.56
  A 2.89 2.82 -21.9 0 1 162.10 138.63
  Q 165.70 133.39 166.25 132.77
  Q 169.91 128.57 175.35 125.24
  C 181.67 121.36 190.72 120.05 198.49 120.09
  Q 200.45 120.10 202.96 121.55
  Q 205.34 122.93 206.38 124.69
  Q 208.65 128.57 207.49 133.01
  C 207.25 133.91 206.84 134.15 206.39 134.91
  Q 203.70 139.47 198.86 139.85
  Q 189.27 140.60 187.16 141.47
  C 181.59 143.75 180.14 147.58 177.55 152.50
  A 0.76 0.76 0.0 0 0 177.47 153.03
  Z"
/>
</svg>
