<?xml version="1.0" encoding="UTF-8" standalone="no"?>
<!DOCTYPE svg PUBLIC "-//W3C//DTD SVG 1.1//EN" "http://www.w3.org/Graphics/SVG/1.1/DTD/svg11.dtd">
<svg xmlns="http://www.w3.org/2000/svg" version="1.1" viewBox="0.00 0.00 125.00 125.00">
<path fill="#201f1f" d="
  M 61.07 39.33
  L 73.16 21.74
  A 1.70 1.69 -57.7 0 1 75.41 21.23
  Q 83.75 26.03 90.34 29.32
  C 98.61 33.45 106.05 36.05 115.58 39.72
  A 1.68 1.68 0.0 0 1 116.53 41.90
  Q 106.02 68.58 91.28 95.66
  A 1.20 1.19 -65.3 0 1 89.81 96.21
  Q 78.68 91.98 68.64 86.14
  A 0.83 0.81 41.1 0 0 67.73 86.19
  Q 53.93 96.52 39.61 104.37
  A 1.86 1.86 0.0 0 1 37.12 103.69
  Q 19.16 73.55 17.89 71.47
  Q 13.09 63.65 9.21 58.46
  A 1.31 1.31 0.0 0 1 9.48 56.63
  C 22.73 46.75 38.74 37.48 51.38 28.62
  A 1.52 1.51 55.9 0 1 53.52 29.04
  L 60.20 39.32
  A 0.52 0.52 0.0 0 0 61.07 39.33
  Z
  M 70.84 84.30
  L 89.04 92.94
  A 0.37 0.36 26.2 0 0 89.52 92.78
  Q 103.08 67.78 113.08 42.47
  A 0.63 0.63 0.0 0 0 112.69 41.64
  Q 92.83 35.13 75.35 24.58
  A 0.41 0.39 -56.7 0 0 74.81 24.70
  L 62.80 42.18
  A 0.84 0.83 -44.7 0 0 62.79 43.10
  L 64.16 45.20
  A 0.44 0.43 -44.7 0 0 64.89 45.20
  L 75.02 29.20
  A 1.26 1.25 -57.4 0 1 76.76 28.81
  Q 91.38 38.29 106.65 44.97
  A 1.47 1.47 0.0 0 1 107.44 46.82
  Q 104.64 54.52 100.87 62.12
  Q 93.70 76.57 88.58 86.58
  A 1.69 1.69 0.0 0 1 86.36 87.35
  L 74.22 81.68
  A 0.21 0.20 -46.4 0 0 74.02 81.69
  L 70.80 83.78
  A 0.30 0.30 0.0 0 0 70.84 84.30
  Z
  M 12.84 58.38
  C 21.64 71.33 29.37 84.95 38.75 100.89
  A 0.43 0.42 60.3 0 0 39.32 101.05
  C 53.23 93.30 63.76 85.65 78.83 74.24
  A 0.45 0.44 -35.1 0 0 78.94 73.65
  L 52.21 32.50
  A 0.57 0.56 56.9 0 0 51.43 32.33
  L 13.07 57.24
  A 0.82 0.82 0.0 0 0 12.84 58.38
  Z
  M 103.69 46.72
  Q 99.29 45.29 94.28 42.51
  Q 79.33 34.23 77.10 32.47
  A 0.48 0.48 0.0 0 0 76.39 32.59
  L 66.57 48.10
  A 0.87 0.87 0.0 0 0 66.57 49.04
  L 73.75 60.08
  A 0.81 0.81 0.0 0 0 74.66 60.42
  C 77.19 59.67 77.10 61.24 77.93 62.90
  A 0.97 0.94 -8.6 0 0 78.66 63.42
  C 81.32 63.80 82.31 63.19 83.76 66.00
  A 1.12 1.12 0.0 0 0 84.57 66.61
  L 87.59 67.19
  A 1.12 1.12 0.0 0 1 88.48 68.49
  L 88.43 68.80
  A 1.59 1.58 -79.9 0 1 86.59 70.09
  L 82.87 69.43
  A 1.67 1.60 70.3 0 1 82.01 69.00
  Q 81.19 68.24 80.93 67.27
  A 0.81 0.80 89.4 0 0 80.33 66.68
  Q 79.32 66.46 78.25 66.52
  A 0.22 0.21 -17.9 0 0 78.08 66.85
  L 82.60 73.80
  A 1.36 1.35 -33.0 0 1 82.20 75.67
  L 77.37 78.80
  A 0.62 0.62 0.0 0 0 77.44 79.87
  L 85.88 83.87
  A 0.63 0.63 0.0 0 0 86.71 83.59
  Q 94.80 68.07 100.66 55.69
  Q 102.28 52.26 104.06 47.50
  A 0.60 0.59 -70.8 0 0 103.69 46.72
  Z"
/>
<path fill="#201f1f" d="
  M 49.40 37.57
  A 1.61 1.61 0.0 0 1 51.63 38.03
  L 72.91 70.32
  A 4.46 4.09 56.6 0 1 71.95 76.29
  L 44.85 94.16
  A 4.46 4.09 56.6 0 1 38.99 92.69
  L 17.70 60.40
  A 1.61 1.61 0.0 0 1 18.16 58.17
  L 49.40 37.57
  Z
  M 50.4486 41.7441
  A 1.10 1.10 0.0 0 0 48.9247 41.4313
  L 21.8256 59.2999
  A 1.10 1.10 0.0 0 0 21.5128 60.8238
  L 41.6714 91.3959
  A 1.10 1.10 0.0 0 0 43.1953 91.7087
  L 70.2944 73.8401
  A 1.10 1.10 0.0 0 0 70.6072 72.3162
  L 50.4486 41.7441
  Z"
/>
<path fill="#201f1f" d="
  M 80.10 42.93
  A 0.31 0.31 0.0 0 0 80.54 43.28
  C 84.14 41.43 84.93 43.99 85.90 46.51
  A 1.08 1.08 0.0 0 0 86.79 47.19
  C 87.68 47.28 88.47 46.73 89.44 46.89
  C 92.66 47.40 92.19 51.54 95.66 50.57
  A 2.02 2.01 65.5 0 1 97.89 51.41
  L 97.94 51.49
  A 1.19 1.19 0.0 0 1 97.38 53.24
  Q 92.31 55.30 89.64 50.59
  A 1.33 1.32 67.0 0 0 88.11 49.97
  Q 83.93 51.19 82.79 46.34
  A 0.67 0.66 -15.5 0 0 81.93 45.86
  L 79.73 46.61
  A 1.46 1.45 48.9 0 1 78.62 46.53
  Q 76.43 45.42 77.29 43.13
  A 0.41 0.41 0.0 0 0 76.82 42.58
  Q 75.66 42.81 75.14 42.68
  A 1.24 1.24 0.0 0 1 74.53 40.66
  C 76.99 37.91 81.23 38.53 80.10 42.93
  Z"
/>
<path fill="#201f1f" d="
  M 80.74 53.68
  A 0.77 0.76 -2.4 0 0 81.58 54.45
  C 84.33 54.18 85.23 53.94 86.79 56.41
  Q 87.95 58.25 91.26 58.27
  A 1.42 1.42 0.0 0 1 92.66 59.87
  L 92.65 59.96
  A 1.51 1.50 9.0 0 1 90.89 61.24
  C 88.45 60.81 85.54 60.36 84.40 58.19
  A 1.24 1.23 72.3 0 0 83.17 57.55
  C 80.44 57.89 78.67 57.03 78.01 54.41
  Q 77.70 53.19 75.88 53.49
  A 0.94 0.93 68.9 0 1 74.96 53.08
  L 74.06 51.70
  A 0.92 0.92 0.0 0 0 73.28 51.27
  C 71.74 51.27 70.73 49.79 72.13 48.60
  Q 73.86 47.12 75.50 48.09
  A 0.85 0.82 -1.2 0 1 75.75 48.32
  L 76.62 49.66
  A 1.19 1.18 72.3 0 0 77.67 50.21
  Q 80.81 50.11 80.74 53.68
  Z"
/>
<path fill="#201f1f" d="
  M 48.43 58.23
  L 54.49 67.56
  A 0.55 0.54 -32.8 0 1 54.32 68.32
  L 43.26 75.51
  A 0.36 0.36 0.0 0 1 42.76 75.40
  L 36.02 65.03
  A 0.20 0.20 0.0 0 0 35.65 65.17
  L 36.01 67.80
  A 0.89 0.88 69.9 0 1 35.62 68.65
  L 34.22 69.56
  A 0.58 0.58 0.0 0 1 33.39 69.34
  L 30.02 62.62
  A 0.53 0.51 49.4 0 1 30.05 62.09
  L 34.31 55.89
  A 0.85 0.83 -59.2 0 1 35.38 55.61
  Q 38.25 57.07 40.31 54.05
  Q 40.65 53.53 40.48 52.87
  Q 40.38 52.51 40.38 52.23
  A 0.72 0.71 -3.8 0 1 40.99 51.54
  L 48.10 50.57
  A 0.87 0.85 -19.5 0 1 48.94 50.96
  L 52.71 56.76
  A 0.40 0.40 0.0 0 1 52.52 57.35
  Q 51.67 57.69 50.80 58.52
  A 0.90 0.89 -45.2 0 1 49.56 58.53
  Q 49.10 58.09 48.65 57.94
  A 0.19 0.19 0.0 0 0 48.43 58.23
  Z"
/>
<path fill="#201f1f" d="
  M 61.04 69.37
  L 61.29 69.55
  A 0.61 0.61 0.0 0 1 61.37 70.49
  Q 58.14 73.64 54.45 74.49
  A 2.81 2.72 17.7 0 0 53.28 75.07
  C 50.97 76.98 50.50 79.98 46.21 79.76
  A 1.40 1.39 -70.9 0 0 44.97 80.37
  L 42.80 83.53
  A 1.05 1.04 34.4 0 1 41.34 83.80
  L 41.02 83.59
  A 0.79 0.78 37.2 0 1 40.86 82.44
  L 44.09 78.56
  A 2.10 2.06 -73.8 0 1 45.41 77.82
  L 48.02 77.47
  A 1.12 1.11 18.8 0 0 48.64 77.17
  C 50.04 75.82 51.31 73.23 53.77 72.54
  Q 56.95 71.65 59.38 69.47
  A 1.36 1.36 0.0 0 1 61.04 69.37
  Z"
/>
<path fill="#201f1f" d="
  M 63.81 73.70
  L 64.04 73.87
  A 0.58 0.57 -48.8 0 1 64.10 74.76
  Q 60.99 77.69 57.47 78.43
  A 2.66 2.58 18.8 0 0 56.36 78.96
  C 54.13 80.72 53.63 83.56 49.57 83.27
  A 1.33 1.32 -69.8 0 0 48.39 83.83
  L 46.28 86.78
  A 0.99 0.99 0.0 0 1 44.89 87.01
  L 44.59 86.81
  A 0.75 0.74 38.3 0 1 44.46 85.71
  L 47.59 82.10
  A 1.99 1.95 -72.7 0 1 48.85 81.42
  L 51.33 81.14
  A 1.06 1.05 19.9 0 0 51.92 80.86
  C 53.27 79.61 54.52 77.18 56.87 76.57
  Q 59.89 75.78 62.23 73.76
  A 1.29 1.29 0.0 0 1 63.81 73.70
  Z"
/>
</svg>
