<?xml version="1.0" encoding="UTF-8" standalone="no"?>
<!DOCTYPE svg PUBLIC "-//W3C//DTD SVG 1.1//EN" "http://www.w3.org/Graphics/SVG/1.1/DTD/svg11.dtd">
<svg xmlns="http://www.w3.org/2000/svg" version="1.1" viewBox="0.00 0.00 240.00 240.00">
<g stroke-width="2.00" fill="none" stroke-linecap="butt">
<path stroke="#322f31" vector-effect="non-scaling-stroke" d="
  M 72.22 51.12
  Q 71.27 57.54 71.61 65.75
  Q 71.72 68.21 70.88 72.63
  A 2.99 2.33 56.3 0 0 70.85 73.04
  L 70.88 78.89
  A 2.06 1.57 59.1 0 1 70.83 79.33
  L 68.14 89.51
  A 1.19 1.01 -24.4 0 1 67.97 89.87
  Q 65.66 93.20 65.08 97.30
  A 3.43 3.18 64.7 0 1 64.77 98.28
  Q 63.08 101.70 62.19 106.56"
/>
<path stroke="#4e4d4f" vector-effect="non-scaling-stroke" d="
  M 62.19 106.56
  L 58.23 119.38"
/>
<path stroke="#797979" vector-effect="non-scaling-stroke" d="
  M 58.23 119.38
  Q 57.05 123.10 55.80 127.10
  Q 55.38 128.45 54.92 129.21
  A 1.94 1.89 -28.3 0 0 54.65 130.07
  Q 54.50 133.02 52.96 135.43
  A 2.77 2.57 71.9 0 0 52.65 136.10
  Q 51.55 139.77 51.40 140.73
  Q 50.30 147.73 55.54 151.95
  Q 55.99 152.31 56.47 152.34
  A 0.07 0.07 0.0 0 1 56.51 152.47
  Q 56.36 152.62 56.45 152.67
  Q 57.09 153.02 59.90 153.95
  A 3.25 3.11 53.8 0 0 60.86 154.12
  Q 70.03 154.31 83.75 154.28
  Q 174.08 154.07 177.26 154.06
  C 184.89 154.01 190.02 146.53 187.71 139.34
  Q 185.17 131.46 176.42 105.32"
/>
<path stroke="#322f31" vector-effect="non-scaling-stroke" d="
  M 176.42 105.32
  Q 176.76 103.99 176.13 104.20"
/>
<path stroke="#4e4d4f" vector-effect="non-scaling-stroke" d="
  M 176.13 104.20
  Q 176.07 104.19 176.01 104.18"
/>
<path stroke="#797979" vector-effect="non-scaling-stroke" d="
  M 176.01 104.18
  L 168.15 80.74
  A 4.67 4.52 32.8 0 1 167.93 79.80
  C 167.72 78.13 167.39 75.99 167.39 74.53
  Q 167.30 59.34 167.38 53.98
  Q 167.47 48.36 166.14 46.19
  Q 164.02 42.73 159.76 41.19
  A 1.84 1.79 53.9 0 0 159.06 41.07
  Q 123.77 41.59 88.50 41.09
  Q 80.41 40.98 77.68 42.23
  Q 72.75 44.49 72.22 51.12"
/>
<path stroke="#c7c6c7" vector-effect="non-scaling-stroke" d="
  M 176.01 104.18
  Q 175.81 104.69 176.21 104.97"
/>
<path stroke="#aba7aa" vector-effect="non-scaling-stroke" d="
  M 176.21 104.97
  Q 176.38 105.14 176.42 105.32"
/>
<path stroke="#c7c6c7" vector-effect="non-scaling-stroke" d="
  M 58.23 119.38
  Q 59.87 117.61 60.49 115.28
  Q 61.14 112.84 61.17 112.76
  Q 62.83 107.85 64.52 102.44"
/>
<path stroke="#aba7aa" vector-effect="non-scaling-stroke" d="
  M 64.52 102.44
  L 71.10 81.75"
/>
<path stroke="#c7c6c7" vector-effect="non-scaling-stroke" d="
  M 71.10 81.75
  Q 72.79 78.44 72.77 73.50
  Q 72.70 56.76 72.36 52.19"
/>
<path stroke="#aba7aa" vector-effect="non-scaling-stroke" d="
  M 72.36 52.19
  Q 72.46 51.65 72.22 51.12"
/>
<path stroke="#807c80" vector-effect="non-scaling-stroke" d="
  M 176.21 104.97
  L 176.13 104.20"
/>
<path stroke="#807c80" vector-effect="non-scaling-stroke" d="
  M 72.36 52.19
  Q 71.99 63.11 72.13 74.00
  Q 72.18 77.38 71.10 81.75"
/>
<path stroke="#807c80" vector-effect="non-scaling-stroke" d="
  M 64.52 102.44
  L 62.19 106.56"
/>
<path stroke="#7b6605" vector-effect="non-scaling-stroke" d="
  M 22.51 194.32
  Q 23.97 194.32 24.07 194.29
  A 0.95 0.94 1.6 0 0 24.74 193.67
  L 30.46 175.95
  A 0.11 0.11 0.0 0 1 30.66 175.98
  L 30.65 193.91
  A 0.41 0.41 0.0 0 0 31.05 194.32
  L 34.94 194.32
  A 0.41 0.40 0.1 0 0 35.35 193.92
  L 35.37 170.28
  A 0.41 0.41 0.0 0 0 34.97 169.87
  L 28.80 169.86
  A 0.79 0.79 0.0 0 0 28.04 170.42
  L 22.72 187.25
  A 0.29 0.06 -75.0 0 1 22.61 187.48
  Q 22.56 187.50 22.48 187.50
  Q 22.48 187.50 22.42 187.47
  A 0.29 0.06 75.1 0 1 22.31 187.25
  L 17.02 170.41
  A 0.79 0.79 0.0 0 0 16.27 169.85
  L 10.10 169.84
  A 0.41 0.41 0.0 0 0 9.69 170.25
  L 9.67 193.90
  A 0.41 0.40 0.0 0 0 10.08 194.30
  L 13.96 194.30
  A 0.41 0.41 0.0 0 0 14.37 193.89
  L 14.39 175.97
  A 0.11 0.11 0.0 0 1 14.60 175.94
  L 20.28 193.67
  A 0.95 0.94 -1.5 0 0 20.94 194.29
  Q 21.04 194.32 22.51 194.32"
/>
<path stroke="#7b6605" vector-effect="non-scaling-stroke" d="
  M 43.5936 170.2318
  A 0.39 0.39 0.0 0 0 43.2023 169.8431
  L 39.2623 169.8569
  A 0.39 0.39 0.0 0 0 38.8737 170.2482
  L 38.8864 173.8882
  A 0.39 0.39 0.0 0 0 39.2777 174.2769
  L 43.2177 174.2631
  A 0.39 0.39 0.0 0 0 43.6063 173.8718
  L 43.5936 170.2318"
/>
<path stroke="#7b6605" vector-effect="non-scaling-stroke" d="
  M 77.98 194.38
  Q 79.44 194.38 79.55 194.35
  A 0.96 0.94 1.5 0 0 80.21 193.73
  L 85.93 175.94
  A 0.11 0.11 0.0 0 1 86.14 175.97
  L 86.14 193.96
  A 0.41 0.41 0.0 0 0 86.55 194.37
  L 90.45 194.37
  A 0.41 0.40 -0.0 0 0 90.86 193.97
  L 90.86 170.24
  A 0.41 0.41 0.0 0 0 90.45 169.83
  L 84.26 169.83
  A 0.80 0.79 8.4 0 0 83.50 170.39
  L 78.18 187.29
  A 0.29 0.06 -75.1 0 1 78.07 187.51
  Q 78.01 187.54 77.94 187.54
  Q 77.93 187.54 77.88 187.51
  A 0.29 0.06 75.1 0 1 77.77 187.29
  L 72.44 170.39
  A 0.80 0.79 -8.4 0 0 71.68 169.83
  L 65.49 169.83
  A 0.41 0.41 0.0 0 0 65.08 170.24
  L 65.09 193.97
  A 0.41 0.40 -0.0 0 0 65.50 194.37
  L 69.40 194.37
  A 0.41 0.41 0.0 0 0 69.81 193.96
  L 69.81 175.97
  A 0.11 0.11 0.0 0 1 70.02 175.94
  L 75.74 193.73
  A 0.96 0.94 -1.5 0 0 76.40 194.35
  Q 76.51 194.38 77.98 194.38"
/>
<path stroke="#797979" vector-effect="non-scaling-stroke" d="
  M 185.50 193.95
  L 185.50 186.63
  A 0.63 0.63 0.0 0 1 186.14 186.00
  C 190.52 186.04 195.64 186.12 197.86 181.77
  Q 199.76 178.06 198.16 174.19
  C 195.91 168.71 188.17 169.81 181.32 169.90
  A 0.63 0.62 89.5 0 0 180.71 170.53
  L 180.70 193.91
  A 0.42 0.42 0.0 0 0 181.12 194.33
  L 185.12 194.33
  A 0.38 0.38 0.0 0 0 185.50 193.95"
/>
<path stroke="#7b6605" vector-effect="non-scaling-stroke" d="
  M 131.40 171.75
  A 0.28 0.28 0.0 0 0 131.12 172.03
  L 131.12 176.27
  A 0.44 0.44 0.0 0 1 130.68 176.71
  L 129.44 176.71
  A 0.56 0.56 0.0 0 0 128.88 177.27
  L 128.88 180.12
  A 0.49 0.49 0.0 0 0 129.53 180.59
  Q 130.25 180.36 130.53 180.43
  A 0.79 0.78 -83.2 0 1 131.14 181.21
  Q 131.09 184.09 131.11 189.36
  C 131.12 194.56 135.60 194.63 139.56 194.30
  A 0.26 0.26 0.0 0 0 139.80 194.04
  L 139.80 191.01
  A 0.23 0.23 0.0 0 0 139.55 190.78
  Q 137.93 190.95 136.54 190.56
  A 0.97 0.96 7.9 0 1 135.83 189.63
  L 135.83 181.11
  A 0.61 0.60 -90.0 0 1 136.43 180.50
  L 139.30 180.50
  A 0.55 0.54 90.0 0 0 139.84 179.95
  L 139.84 177.18
  A 0.47 0.47 0.0 0 0 139.37 176.71
  L 136.26 176.71
  A 0.46 0.45 90.0 0 1 135.81 176.25
  L 135.81 172.04
  A 0.29 0.29 0.0 0 0 135.52 171.75
  L 131.40 171.75"
/>
<path stroke="#7b6605" vector-effect="non-scaling-stroke" d="
  M 105.25 192.64
  L 105.25 193.73
  A 0.63 0.63 0.0 0 0 105.88 194.36
  L 109.52 194.36
  A 0.49 0.48 88.3 0 0 110.00 193.84
  Q 109.70 188.77 109.84 182.96
  Q 109.96 177.48 104.46 176.37
  C 99.45 175.36 95.85 177.03 94.07 181.62
  A 0.40 0.40 0.0 0 0 94.44 182.16
  L 97.66 182.16
  A 1.21 1.19 -72.9 0 0 98.66 181.62
  L 99.41 180.47
  A 0.67 0.65 4.3 0 1 99.71 180.22
  Q 104.28 178.25 105.21 182.70
  A 0.63 0.63 0.0 0 1 104.60 183.46
  Q 101.20 183.49 98.68 183.88
  C 94.97 184.46 92.56 187.30 93.85 191.01
  C 95.42 195.49 101.85 195.37 104.75 192.44
  A 0.29 0.29 0.0 0 1 105.25 192.64"
/>
<path stroke="#7b6605" vector-effect="non-scaling-stroke" d="
  M 127.06 181.47
  A 0.44 0.44 0.0 0 0 127.48 180.90
  Q 126.09 176.44 121.32 176.15
  C 116.64 175.86 111.54 177.82 112.67 183.38
  C 113.32 186.62 118.59 187.17 121.68 187.75
  A 1.45 1.44 12.7 0 1 122.82 189.53
  Q 122.49 190.75 121.29 191.02
  Q 117.83 191.81 116.70 189.36
  A 1.02 1.00 77.7 0 0 115.78 188.76
  L 112.45 188.76
  A 0.60 0.60 0.0 0 0 111.87 189.50
  Q 112.52 192.19 114.12 193.20
  C 117.21 195.16 123.85 195.54 126.35 192.24
  Q 128.16 189.85 127.22 186.88
  A 3.78 3.76 -1.1 0 0 124.61 184.38
  Q 122.57 183.82 118.17 182.89
  A 1.56 1.54 -81.2 0 1 116.96 181.22
  Q 117.03 180.51 117.86 180.12
  Q 120.98 178.67 122.81 181.02
  A 1.17 1.17 0.0 0 0 123.73 181.47
  L 127.06 181.47"
/>
<path stroke="#7b6605" vector-effect="non-scaling-stroke" d="
  M 158.58 186.17
  Q 158.73 182.61 157.26 180.05
  C 153.42 173.38 143.17 175.56 141.57 182.78
  C 140.50 187.59 141.97 192.30 146.87 194.08
  C 151.03 195.59 156.00 194.19 158.02 189.98
  A 0.51 0.50 12.6 0 0 157.56 189.26
  L 154.46 189.26
  A 1.62 1.60 22.3 0 0 153.32 189.73
  C 151.04 191.99 146.36 191.24 145.88 187.45
  A 0.59 0.59 0.0 0 1 146.47 186.79
  L 157.93 186.79
  A 0.65 0.65 0.0 0 0 158.58 186.17"
/>
<path stroke="#7b6605" vector-effect="non-scaling-stroke" d="
  M 160.64 177.39
  L 160.64 193.77
  A 0.56 0.56 0.0 0 0 161.20 194.33
  L 164.84 194.33
  A 0.60 0.60 0.0 0 0 165.44 193.72
  Q 165.30 187.74 165.52 184.04
  Q 165.75 180.17 170.96 180.55
  A 0.32 0.31 1.7 0 0 171.30 180.24
  L 171.30 176.49
  A 0.26 0.26 0.0 0 0 171.05 176.23
  Q 167.36 176.13 165.63 178.78
  A 0.42 0.42 0.0 0 1 164.87 178.66
  Q 164.79 178.36 164.98 177.50
  A 0.66 0.66 0.0 0 0 164.34 176.70
  L 161.33 176.70
  A 0.69 0.69 0.0 0 0 160.64 177.39"
/>
<path stroke="#797979" vector-effect="non-scaling-stroke" d="
  M 201.21 177.36
  L 201.08 193.78
  A 0.56 0.56 0.0 0 0 201.64 194.34
  L 205.28 194.37
  A 0.60 0.60 0.0 0 0 205.89 193.76
  Q 205.80 187.77 206.05 184.07
  Q 206.31 180.19 211.52 180.61
  A 0.32 0.31 2.2 0 0 211.87 180.30
  L 211.90 176.55
  A 0.26 0.26 0.0 0 0 211.65 176.28
  Q 207.95 176.15 206.20 178.80
  A 0.42 0.42 0.0 0 1 205.44 178.67
  Q 205.36 178.37 205.56 177.51
  A 0.66 0.66 0.0 0 0 204.92 176.70
  L 201.91 176.68
  A 0.69 0.69 0.0 0 0 201.21 177.36"
/>
<path stroke="#797979" vector-effect="non-scaling-stroke" d="
  M 230.3046 184.5537
  A 8.06 8.06 0.0 0 0 222.5163 176.2309
  L 220.9571 176.1792
  A 8.06 8.06 0.0 0 0 212.6343 183.9676
  L 212.5554 186.3463
  A 8.06 8.06 0.0 0 0 220.3437 194.6691
  L 221.9029 194.7208
  A 8.06 8.06 0.0 0 0 230.2257 186.9324
  L 230.3046 184.5537"
/>
<path stroke="#7b6605" vector-effect="non-scaling-stroke" d="
  M 43.60 176.93
  A 0.35 0.35 0.0 0 0 43.25 176.58
  L 39.23 176.58
  A 0.35 0.35 0.0 0 0 38.88 176.93
  L 38.88 193.99
  A 0.35 0.35 0.0 0 0 39.23 194.34
  L 43.25 194.34
  A 0.35 0.35 0.0 0 0 43.60 193.99
  L 43.60 176.93"
/>
<path stroke="#7b6605" vector-effect="non-scaling-stroke" d="
  M 54.03 188.53
  Q 54.07 188.53 54.28 188.60
  A 0.06 0.06 0.0 0 1 54.31 188.63
  L 57.43 194.13
  A 0.51 0.50 -13.4 0 0 57.88 194.40
  L 62.55 194.40
  A 0.05 0.05 0.0 0 0 62.59 194.32
  L 57.36 185.25
  A 0.62 0.62 0.0 0 1 57.38 184.60
  L 62.45 176.88
  A 0.16 0.16 0.0 0 0 62.31 176.64
  L 57.43 176.64
  A 0.48 0.46 -73.7 0 0 57.03 176.87
  Q 55.74 179.01 54.41 181.49
  Q 54.32 181.66 54.08 181.66
  Q 53.85 181.66 53.76 181.49
  Q 52.47 178.98 51.21 176.82
  A 0.48 0.46 74.6 0 0 50.82 176.59
  L 45.94 176.51
  A 0.16 0.16 0.0 0 0 45.80 176.75
  L 50.74 184.55
  A 0.62 0.62 0.0 0 1 50.75 185.20
  L 45.38 194.19
  A 0.05 0.05 0.0 0 0 45.42 194.27
  L 50.09 194.34
  A 0.51 0.50 14.3 0 0 50.54 194.08
  L 53.75 188.63
  A 0.06 0.06 0.0 0 1 53.78 188.60
  Q 54.00 188.53 54.03 188.53"
/>
<path stroke="#c7c6c7" vector-effect="non-scaling-stroke" d="
  M 77.29 50.45
  L 76.74 80.72"
/>
<path stroke="#797979" vector-effect="non-scaling-stroke" d="
  M 76.74 80.72
  Q 72.42 93.24 68.57 105.80
  Q 68.37 106.44 68.39 106.69
  A 1.12 1.07 60.4 0 1 68.23 107.33
  Q 67.05 109.29 65.91 112.99
  Q 63.34 121.36 60.24 129.54
  Q 59.06 132.65 58.88 134.22
  A 3.03 2.99 -30.6 0 1 58.66 135.05
  Q 56.03 140.91 56.40 144.52
  Q 56.59 146.39 59.81 149.12"
/>
<path stroke="#c7c6c7" vector-effect="non-scaling-stroke" d="
  M 59.81 149.12
  Q 87.80 150.03 115.98 148.99"
/>
<path stroke="#797979" vector-effect="non-scaling-stroke" d="
  M 115.98 148.99
  Q 145.06 148.90 174.22 148.95
  C 176.90 148.95 179.90 149.51 181.67 147.21
  Q 184.13 144.01 182.69 139.89
  Q 177.79 125.89 173.23 111.82"
/>
<path stroke="#c7c6c7" vector-effect="non-scaling-stroke" d="
  M 173.23 111.82
  Q 173.36 110.72 172.72 109.94"
/>
<path stroke="#aba7aa" vector-effect="non-scaling-stroke" d="
  M 172.72 109.94
  Q 172.62 109.98 172.51 110.03"
/>
<path stroke="#797979" vector-effect="non-scaling-stroke" d="
  M 172.51 110.03
  L 171.19 106.22"
/>
<path stroke="#aba7aa" vector-effect="non-scaling-stroke" d="
  M 171.19 106.22
  Q 169.89 99.71 167.06 93.51"
/>
<path stroke="#797979" vector-effect="non-scaling-stroke" d="
  M 167.06 93.51
  Q 165.77 88.13 165.13 86.87
  Q 163.91 84.49 163.13 82.11"
/>
<path stroke="#aba7aa" vector-effect="non-scaling-stroke" d="
  M 163.13 82.11
  L 162.57 68.77"
/>
<path stroke="#c7c6c7" vector-effect="non-scaling-stroke" d="
  M 162.57 68.77
  Q 162.40 68.76 162.23 68.74"
/>
<path stroke="#aba7aa" vector-effect="non-scaling-stroke" d="
  M 162.23 68.74
  Q 162.95 59.33 162.23 50.27"
/>
<path stroke="#797979" vector-effect="non-scaling-stroke" d="
  M 162.23 50.27
  Q 161.30 46.23 158.32 46.17
  Q 133.04 45.69 83.00 46.18
  Q 78.44 46.22 77.29 50.45"
/>
<path stroke="#322f31" vector-effect="non-scaling-stroke" d="
  M 162.23 50.27
  Q 161.64 57.04 161.84 61.00
  Q 162.20 67.94 161.61 72.49
  Q 160.88 78.08 163.13 82.11"
/>
<path stroke="#322f31" vector-effect="non-scaling-stroke" d="
  M 167.06 93.51
  Q 167.00 96.85 168.64 99.63
  A 3.31 3.27 27.4 0 1 169.07 100.96
  Q 169.35 104.07 171.19 106.22"
/>
<path stroke="#322f31" vector-effect="non-scaling-stroke" d="
  M 172.51 110.03
  Q 172.15 111.38 173.05 111.82"
/>
<path stroke="#4e4d4f" vector-effect="non-scaling-stroke" d="
  M 173.05 111.82
  Q 173.14 111.82 173.23 111.82"
/>
<path stroke="#4e4d4f" vector-effect="non-scaling-stroke" d="
  M 115.98 148.99
  L 59.81 149.12"
/>
<path stroke="#4e4d4f" vector-effect="non-scaling-stroke" d="
  M 76.74 80.72
  Q 77.26 79.60 77.39 78.22
  A 0.07 0.05 -50.5 0 1 77.51 78.19
  Q 77.51 78.25 77.53 78.33
  A 0.08 0.02 -74.5 0 0 77.59 78.23
  Q 77.85 76.05 77.87 74.00
  Q 78.01 62.19 77.29 50.45"
/>
<path stroke="#807c80" vector-effect="non-scaling-stroke" d="
  M 172.72 109.94
  Q 172.73 110.92 173.05 111.82"
/>
<path stroke="#807c80" vector-effect="non-scaling-stroke" d="
  M 162.23 68.74
  Q 162.20 73.35 162.21 78.00
  Q 162.21 78.28 162.32 78.43
  A 0.13 0.13 0.0 0 0 162.55 78.35
  L 162.57 68.77"
/>
<path stroke="#7b6605" vector-effect="non-scaling-stroke" d="
  M 155.8969 69.7298
  A 13.76 13.02 -2.5 0 0 141.5821 57.3224
  A 13.76 13.02 -2.5 0 0 128.4031 70.9302
  A 13.76 13.02 -2.5 0 0 142.7179 83.3376
  A 13.76 13.02 -2.5 0 0 155.8969 69.7298"
/>
<path stroke="#7b6605" vector-effect="non-scaling-stroke" d="
  M 113.9595 67.7450
  A 12.78 12.52 -14.2 0 0 98.4988 58.7425
  A 12.78 12.52 -14.2 0 0 89.1805 74.0150
  A 12.78 12.52 -14.2 0 0 104.6412 83.0175
  A 12.78 12.52 -14.2 0 0 113.9595 67.7450"
/>
<path stroke="#797979" vector-effect="non-scaling-stroke" d="
  M 75.54 125.60
  Q 76.85 126.33 78.81 126.36
  A 0.63 0.62 85.0 0 1 79.42 126.88
  Q 79.53 127.51 79.28 128.13"
/>
<path stroke="#322f31" vector-effect="non-scaling-stroke" d="
  M 79.28 128.13
  Q 77.25 131.53 76.90 135.25
  A 4.46 4.23 58.7 0 1 76.69 136.22
  C 76.07 137.99 74.82 142.29 76.85 143.47
  Q 80.25 145.44 81.87 141.87
  A 2.15 2.12 62.9 0 0 81.98 141.52
  L 83.98 132.80
  A 0.20 0.04 -79.1 0 1 84.00 132.75
  Q 84.95 130.73 84.44 127.91"
/>
<path stroke="#797979" vector-effect="non-scaling-stroke" d="
  M 84.44 127.91
  Q 85.94 126.82 89.35 126.92"
/>
<path stroke="#4e4d4f" vector-effect="non-scaling-stroke" d="
  M 89.35 126.92
  Q 91.30 124.12 90.85 121.34
  Q 90.69 120.39 87.99 119.67
  A 0.84 0.83 -76.9 0 1 87.39 118.69
  L 89.75 107.34"
/>
<path stroke="#797979" vector-effect="non-scaling-stroke" d="
  M 89.75 107.34
  L 90.72 102.95"
/>
<path stroke="#322f31" vector-effect="non-scaling-stroke" d="
  M 90.72 102.95
  Q 92.60 99.78 92.67 96.16
  A 2.86 2.74 -55.7 0 0 92.50 95.14
  Q 91.72 93.00 89.22 93.06
  C 87.29 93.10 86.19 95.46 85.89 97.00
  Q 83.74 108.12 80.82 116.87
  A 2.28 2.27 -86.2 0 1 79.09 118.39
  L 76.93 118.81
  A 1.56 1.56 0.0 0 0 75.75 119.86
  L 74.37 124.14
  A 1.02 0.99 -51.0 0 0 74.44 124.92
  Q 75.84 127.60 75.54 125.60"
/>
<path stroke="#aba7aa" vector-effect="non-scaling-stroke" d="
  M 90.72 102.95
  Q 90.81 100.34 91.41 97.72
  Q 91.97 95.27 90.12 94.12
  A 1.30 1.30 0.0 0 0 88.36 94.49
  Q 87.09 96.39 86.64 98.68
  Q 84.73 108.30 83.71 112.53
  Q 82.69 116.81 81.98 119.28
  A 0.70 0.68 -79.2 0 1 81.26 119.78
  Q 75.65 119.30 75.54 125.60"
/>
<path stroke="#c7c6c7" vector-effect="non-scaling-stroke" d="
  M 89.75 107.34
  Q 87.28 111.91 86.97 116.82
  A 1.51 1.49 62.0 0 1 86.77 117.49
  C 85.82 119.18 86.71 120.95 88.79 120.57
  A 0.70 0.69 -13.1 0 1 89.59 121.06
  Q 90.22 123.27 89.35 126.92"
/>
<path stroke="#aba7aa" vector-effect="non-scaling-stroke" d="
  M 84.44 127.91
  L 81.09 141.82
  A 2.30 2.29 -78.0 0 1 78.45 143.54
  L 78.15 143.49
  A 2.08 2.08 0.0 0 1 76.49 141.00
  L 79.28 128.13"
/>
<path stroke="#797979" vector-effect="non-scaling-stroke" d="
  M 107.94 93.74
  Q 106.25 94.30 106.21 96.16"
/>
<path stroke="#322f31" vector-effect="non-scaling-stroke" d="
  M 106.21 96.16
  Q 104.75 102.73 105.16 108.98
  A 1.37 1.35 -5.0 0 1 103.94 110.42
  Q 100.86 110.75 100.36 111.79
  Q 99.08 114.44 99.37 117.19
  A 0.79 0.74 -66.9 0 0 99.50 117.55
  Q 99.99 118.27 100.70 117.99"
/>
<path stroke="#797979" vector-effect="non-scaling-stroke" d="
  M 100.70 117.99
  L 104.04 118.06
  A 1.13 1.13 0.0 0 1 105.15 119.25
  Q 104.65 129.47 104.10 139.75
  Q 104.01 141.42 104.27 142.58
  A 2.37 2.15 -10.6 0 0 106.91 144.20
  C 109.21 143.84 109.12 140.34 109.20 138.47
  Q 109.62 129.10 110.11 119.71"
/>
<path stroke="#322f31" vector-effect="non-scaling-stroke" d="
  M 110.11 119.71
  L 110.33 122.05
  A 0.11 0.11 0.0 0 0 110.54 122.04
  L 110.54 120.30
  A 1.01 1.01 0.0 0 1 111.55 119.29
  L 114.11 119.29
  A 1.80 1.80 0.0 0 0 115.91 117.49
  L 115.91 112.53
  A 2.35 2.34 0.0 0 0 113.56 110.19
  L 112.37 110.19
  A 0.77 0.77 0.0 0 1 111.60 109.42
  L 111.60 95.18"
/>
<path stroke="#4e4d4f" vector-effect="non-scaling-stroke" d="
  M 111.60 95.18
  Q 109.62 92.48 107.94 93.74"
/>
<path stroke="#807c80" vector-effect="non-scaling-stroke" d="
  M 111.60 95.18
  L 111.08 110.04
  A 0.62 0.61 -84.1 0 0 111.59 110.67
  L 114.80 111.19"
/>
<path stroke="#c7c6c7" vector-effect="non-scaling-stroke" d="
  M 114.80 111.19
  L 111.30 111.32
  A 0.89 0.88 88.8 0 1 110.38 110.43
  L 110.38 102.52
  A 2.72 2.01 -47.7 0 1 110.43 102.03
  Q 111.13 99.08 110.96 95.71
  A 1.47 1.46 -67.7 0 0 110.59 94.82
  Q 109.58 93.74 107.94 93.74"
/>
<path stroke="#aba7aa" vector-effect="non-scaling-stroke" d="
  M 114.80 111.19
  L 115.18 116.89
  A 0.82 0.82 0.0 0 1 114.53 117.75
  Q 113.51 117.97 112.14 117.86
  Q 111.07 117.77 110.55 118.19
  Q 109.96 118.68 110.11 119.71"
/>
<path stroke="#aba7aa" vector-effect="non-scaling-stroke" d="
  M 100.70 117.99
  Q 99.47 116.45 101.09 112.66
  A 1.93 1.92 -85.7 0 1 102.36 111.56
  Q 103.47 111.26 104.90 111.42
  A 1.03 1.03 0.0 0 0 106.05 110.41
  L 106.21 96.16"
/>
<path stroke="#322f31" vector-effect="non-scaling-stroke" d="
  M 126.11 94.73
  Q 125.79 94.57 125.46 95.12
  A 1.10 1.06 -30.0 0 0 125.32 95.61
  Q 124.74 110.05 124.85 114.75
  Q 124.90 117.10 125.97 126.31"
/>
<path stroke="#4e4d4f" vector-effect="non-scaling-stroke" d="
  M 125.97 126.31
  Q 126.11 127.09 125.89 127.68
  A 1.09 1.06 6.9 0 1 124.99 128.37
  L 122.49 128.62
  A 0.93 0.93 0.0 0 0 121.95 128.86
  Q 121.30 129.43 121.27 130.37"
/>
<path stroke="#797979" vector-effect="non-scaling-stroke" d="
  M 121.27 130.37
  L 120.93 135.06
  A 0.75 0.74 2.1 0 0 121.68 135.86
  L 125.91 135.86
  A 0.76 0.76 0.0 0 1 126.67 136.60
  L 126.84 141.41
  A 3.00 2.98 -85.1 0 0 129.21 144.24
  L 129.35 144.28
  A 1.88 1.88 0.0 0 0 131.68 142.39
  L 131.49 136.45
  A 0.61 0.61 0.0 0 1 132.10 135.82
  L 135.62 135.82
  A 1.20 1.20 0.0 0 0 136.82 134.62
  L 136.82 130.22
  A 1.72 1.72 0.0 0 0 135.10 128.50
  L 132.18 128.50
  A 0.64 0.64 0.0 0 1 131.54 127.93
  L 131.27 125.37"
/>
<path stroke="#4e4d4f" vector-effect="non-scaling-stroke" d="
  M 131.27 125.37
  Q 131.90 110.24 130.46 95.19"
/>
<path stroke="#797979" vector-effect="non-scaling-stroke" d="
  M 130.46 95.19
  Q 129.64 93.77 128.48 93.59
  Q 126.87 93.34 126.11 94.73"
/>
<path stroke="#c7c6c7" vector-effect="non-scaling-stroke" d="
  M 130.46 95.19
  Q 129.84 110.37 131.27 125.37"
/>
<path stroke="#c7c6c7" vector-effect="non-scaling-stroke" d="
  M 121.27 130.37
  Q 122.15 129.24 123.24 128.78
  A 1.26 1.25 41.6 0 1 124.12 128.73
  Q 126.64 129.50 126.81 127.19
  Q 127.12 122.76 126.73 117.06
  C 126.22 109.51 126.18 102.50 126.04 95.21"
/>
<path stroke="#aba7aa" vector-effect="non-scaling-stroke" d="
  M 126.04 95.21
  L 126.11 94.73"
/>
<path stroke="#807c80" vector-effect="non-scaling-stroke" d="
  M 126.04 95.21
  Q 125.63 95.48 125.60 95.81
  C 125.31 98.95 125.84 102.75 125.87 105.40
  Q 125.99 115.76 125.97 126.31"
/>
<path stroke="#797979" vector-effect="non-scaling-stroke" d="
  M 151.66 99.72
  A 2.86 2.86 0.0 0 0 148.80 96.86
  A 2.86 2.86 0.0 0 0 145.94 99.72
  A 2.86 2.86 0.0 0 0 148.80 102.58
  A 2.86 2.86 0.0 0 0 151.66 99.72"
/>
<path stroke="#797979" vector-effect="non-scaling-stroke" d="
  M 142.40 99.77
  A 2.75 2.75 0.0 0 0 139.65 97.02
  A 2.75 2.75 0.0 0 0 136.90 99.77
  A 2.75 2.75 0.0 0 0 139.65 102.52
  A 2.75 2.75 0.0 0 0 142.40 99.77"
/>
<path stroke="#797979" vector-effect="non-scaling-stroke" d="
  M 160.45 99.58
  A 2.70 2.70 0.0 0 0 157.75 96.88
  A 2.70 2.70 0.0 0 0 155.05 99.58
  A 2.70 2.70 0.0 0 0 157.75 102.28
  A 2.70 2.70 0.0 0 0 160.45 99.58"
/>
<path stroke="#797979" vector-effect="non-scaling-stroke" d="
  M 161.83 110.62
  A 2.89 2.89 0.0 0 0 158.94 107.73
  A 2.89 2.89 0.0 0 0 156.05 110.62
  A 2.89 2.89 0.0 0 0 158.94 113.51
  A 2.89 2.89 0.0 0 0 161.83 110.62"
/>
<path stroke="#797979" vector-effect="non-scaling-stroke" d="
  M 152.47 110.73
  A 2.80 2.80 0.0 0 0 149.67 107.93
  A 2.80 2.80 0.0 0 0 146.87 110.73
  A 2.80 2.80 0.0 0 0 149.67 113.53
  A 2.80 2.80 0.0 0 0 152.47 110.73"
/>
<path stroke="#797979" vector-effect="non-scaling-stroke" d="
  M 143.25 110.80
  A 2.75 2.75 0.0 0 0 140.50 108.05
  A 2.75 2.75 0.0 0 0 137.75 110.80
  A 2.75 2.75 0.0 0 0 140.50 113.55
  A 2.75 2.75 0.0 0 0 143.25 110.80"
/>
<path stroke="#797979" vector-effect="non-scaling-stroke" d="
  M 150.11 123.92
  C 154.26 124.54 154.76 119.07 150.93 118.50
  C 147.09 117.92 145.96 123.30 150.11 123.92"
/>
<path stroke="#797979" vector-effect="non-scaling-stroke" d="
  M 143.83 121.31
  A 2.77 2.77 0.0 0 0 141.06 118.54
  A 2.77 2.77 0.0 0 0 138.29 121.31
  A 2.77 2.77 0.0 0 0 141.06 124.08
  A 2.77 2.77 0.0 0 0 143.83 121.31"
/>
<path stroke="#797979" vector-effect="non-scaling-stroke" d="
  M 156.8515 120.8364
  A 2.96 2.78 -170.4 0 0 159.3064 124.0711
  A 2.96 2.78 -170.4 0 0 162.6885 121.8236
  A 2.96 2.78 -170.4 0 0 160.2336 118.5889
  A 2.96 2.78 -170.4 0 0 156.8515 120.8364"
/>
<path stroke="#797979" vector-effect="non-scaling-stroke" d="
  M 185.45 174.60
  L 185.57 181.21
  A 0.59 0.59 0.0 0 0 186.17 181.79
  L 189.83 181.73
  A 4.33 3.71 -1.0 0 0 194.09 177.95
  L 194.09 177.57
  A 4.33 3.71 -1.0 0 0 189.69 173.93
  L 186.03 174.00
  A 0.59 0.59 0.0 0 0 185.45 174.60"
/>
<path stroke="#7b6605" vector-effect="non-scaling-stroke" d="
  M 105.20 187.15
  A 0.46 0.46 0.0 0 0 104.78 186.64
  Q 101.70 186.43 99.49 187.19
  A 1.87 1.85 -24.6 0 0 98.47 189.89
  Q 99.04 190.86 100.25 190.96
  Q 104.76 191.34 105.20 187.15"
/>
<path stroke="#7b6605" vector-effect="non-scaling-stroke" d="
  M 146.22 183.57
  L 153.72 183.49
  A 0.18 0.18 0.0 0 0 153.90 183.31
  L 153.90 183.19
  A 3.84 3.58 -0.6 0 0 150.02 179.65
  L 149.84 179.65
  A 3.84 3.58 -0.6 0 0 146.04 183.27
  L 146.04 183.39
  A 0.18 0.18 0.0 0 0 146.22 183.57"
/>
<path stroke="#797979" vector-effect="non-scaling-stroke" d="
  M 221.3907 179.8701
  A 5.59 4.48 -90.3 0 0 216.9401 185.4835
  A 5.59 4.48 -90.3 0 0 221.4493 191.0499
  A 5.59 4.48 -90.3 0 0 225.8999 185.4365
  A 5.59 4.48 -90.3 0 0 221.3907 179.8701"
/>
</g>
<path fill="#000000" d="
  M 240.00 0.00
  L 240.00 240.00
  L 0.00 240.00
  L 0.00 0.00
  L 240.00 0.00
  Z
  M 72.22 51.12
  Q 71.27 57.54 71.61 65.75
  Q 71.72 68.21 70.88 72.63
  A 2.99 2.33 56.3 0 0 70.85 73.04
  L 70.88 78.89
  A 2.06 1.57 59.1 0 1 70.83 79.33
  L 68.14 89.51
  A 1.19 1.01 -24.4 0 1 67.97 89.87
  Q 65.66 93.20 65.08 97.30
  A 3.43 3.18 64.7 0 1 64.77 98.28
  Q 63.08 101.70 62.19 106.56
  L 58.23 119.38
  Q 57.05 123.10 55.80 127.10
  Q 55.38 128.45 54.92 129.21
  A 1.94 1.89 -28.3 0 0 54.65 130.07
  Q 54.50 133.02 52.96 135.43
  A 2.77 2.57 71.9 0 0 52.65 136.10
  Q 51.55 139.77 51.40 140.73
  Q 50.30 147.73 55.54 151.95
  Q 55.99 152.31 56.47 152.34
  A 0.07 0.07 0.0 0 1 56.51 152.47
  Q 56.36 152.62 56.45 152.67
  Q 57.09 153.02 59.90 153.95
  A 3.25 3.11 53.8 0 0 60.86 154.12
  Q 70.03 154.31 83.75 154.28
  Q 174.08 154.07 177.26 154.06
  C 184.89 154.01 190.02 146.53 187.71 139.34
  Q 185.17 131.46 176.42 105.32
  Q 176.76 103.99 176.13 104.20
  Q 176.07 104.19 176.01 104.18
  L 168.15 80.74
  A 4.67 4.52 32.8 0 1 167.93 79.80
  C 167.72 78.13 167.39 75.99 167.39 74.53
  Q 167.30 59.34 167.38 53.98
  Q 167.47 48.36 166.14 46.19
  Q 164.02 42.73 159.76 41.19
  A 1.84 1.79 53.9 0 0 159.06 41.07
  Q 123.77 41.59 88.50 41.09
  Q 80.41 40.98 77.68 42.23
  Q 72.75 44.49 72.22 51.12
  Z
  M 22.51 194.32
  Q 23.97 194.32 24.07 194.29
  A 0.95 0.94 1.6 0 0 24.74 193.67
  L 30.46 175.95
  A 0.11 0.11 0.0 0 1 30.66 175.98
  L 30.65 193.91
  A 0.41 0.41 0.0 0 0 31.05 194.32
  L 34.94 194.32
  A 0.41 0.40 0.1 0 0 35.35 193.92
  L 35.37 170.28
  A 0.41 0.41 0.0 0 0 34.97 169.87
  L 28.80 169.86
  A 0.79 0.79 0.0 0 0 28.04 170.42
  L 22.72 187.25
  A 0.29 0.06 -75.0 0 1 22.61 187.48
  Q 22.56 187.50 22.48 187.50
  Q 22.48 187.50 22.42 187.47
  A 0.29 0.06 75.1 0 1 22.31 187.25
  L 17.02 170.41
  A 0.79 0.79 0.0 0 0 16.27 169.85
  L 10.10 169.84
  A 0.41 0.41 0.0 0 0 9.69 170.25
  L 9.67 193.90
  A 0.41 0.40 0.0 0 0 10.08 194.30
  L 13.96 194.30
  A 0.41 0.41 0.0 0 0 14.37 193.89
  L 14.39 175.97
  A 0.11 0.11 0.0 0 1 14.60 175.94
  L 20.28 193.67
  A 0.95 0.94 -1.5 0 0 20.94 194.29
  Q 21.04 194.32 22.51 194.32
  Z
  M 43.5936 170.2318
  A 0.39 0.39 0.0 0 0 43.2023 169.8431
  L 39.2623 169.8569
  A 0.39 0.39 0.0 0 0 38.8737 170.2482
  L 38.8864 173.8882
  A 0.39 0.39 0.0 0 0 39.2777 174.2769
  L 43.2177 174.2631
  A 0.39 0.39 0.0 0 0 43.6063 173.8718
  L 43.5936 170.2318
  Z
  M 77.98 194.38
  Q 79.44 194.38 79.55 194.35
  A 0.96 0.94 1.5 0 0 80.21 193.73
  L 85.93 175.94
  A 0.11 0.11 0.0 0 1 86.14 175.97
  L 86.14 193.96
  A 0.41 0.41 0.0 0 0 86.55 194.37
  L 90.45 194.37
  A 0.41 0.40 -0.0 0 0 90.86 193.97
  L 90.86 170.24
  A 0.41 0.41 0.0 0 0 90.45 169.83
  L 84.26 169.83
  A 0.80 0.79 8.4 0 0 83.50 170.39
  L 78.18 187.29
  A 0.29 0.06 -75.1 0 1 78.07 187.51
  Q 78.01 187.54 77.94 187.54
  Q 77.93 187.54 77.88 187.51
  A 0.29 0.06 75.1 0 1 77.77 187.29
  L 72.44 170.39
  A 0.80 0.79 -8.4 0 0 71.68 169.83
  L 65.49 169.83
  A 0.41 0.41 0.0 0 0 65.08 170.24
  L 65.09 193.97
  A 0.41 0.40 -0.0 0 0 65.50 194.37
  L 69.40 194.37
  A 0.41 0.41 0.0 0 0 69.81 193.96
  L 69.81 175.97
  A 0.11 0.11 0.0 0 1 70.02 175.94
  L 75.74 193.73
  A 0.96 0.94 -1.5 0 0 76.40 194.35
  Q 76.51 194.38 77.98 194.38
  Z
  M 185.50 193.95
  L 185.50 186.63
  A 0.63 0.63 0.0 0 1 186.14 186.00
  C 190.52 186.04 195.64 186.12 197.86 181.77
  Q 199.76 178.06 198.16 174.19
  C 195.91 168.71 188.17 169.81 181.32 169.90
  A 0.63 0.62 89.5 0 0 180.71 170.53
  L 180.70 193.91
  A 0.42 0.42 0.0 0 0 181.12 194.33
  L 185.12 194.33
  A 0.38 0.38 0.0 0 0 185.50 193.95
  Z
  M 131.40 171.75
  A 0.28 0.28 0.0 0 0 131.12 172.03
  L 131.12 176.27
  A 0.44 0.44 0.0 0 1 130.68 176.71
  L 129.44 176.71
  A 0.56 0.56 0.0 0 0 128.88 177.27
  L 128.88 180.12
  A 0.49 0.49 0.0 0 0 129.53 180.59
  Q 130.25 180.36 130.53 180.43
  A 0.79 0.78 -83.2 0 1 131.14 181.21
  Q 131.09 184.09 131.11 189.36
  C 131.12 194.56 135.60 194.63 139.56 194.30
  A 0.26 0.26 0.0 0 0 139.80 194.04
  L 139.80 191.01
  A 0.23 0.23 0.0 0 0 139.55 190.78
  Q 137.93 190.95 136.54 190.56
  A 0.97 0.96 7.9 0 1 135.83 189.63
  L 135.83 181.11
  A 0.61 0.60 -90.0 0 1 136.43 180.50
  L 139.30 180.50
  A 0.55 0.54 90.0 0 0 139.84 179.95
  L 139.84 177.18
  A 0.47 0.47 0.0 0 0 139.37 176.71
  L 136.26 176.71
  A 0.46 0.45 90.0 0 1 135.81 176.25
  L 135.81 172.04
  A 0.29 0.29 0.0 0 0 135.52 171.75
  L 131.40 171.75
  Z
  M 105.25 192.64
  L 105.25 193.73
  A 0.63 0.63 0.0 0 0 105.88 194.36
  L 109.52 194.36
  A 0.49 0.48 88.3 0 0 110.00 193.84
  Q 109.70 188.77 109.84 182.96
  Q 109.96 177.48 104.46 176.37
  C 99.45 175.36 95.85 177.03 94.07 181.62
  A 0.40 0.40 0.0 0 0 94.44 182.16
  L 97.66 182.16
  A 1.21 1.19 -72.9 0 0 98.66 181.62
  L 99.41 180.47
  A 0.67 0.65 4.3 0 1 99.71 180.22
  Q 104.28 178.25 105.21 182.70
  A 0.63 0.63 0.0 0 1 104.60 183.46
  Q 101.20 183.49 98.68 183.88
  C 94.97 184.46 92.56 187.30 93.85 191.01
  C 95.42 195.49 101.85 195.37 104.75 192.44
  A 0.29 0.29 0.0 0 1 105.25 192.64
  Z
  M 127.06 181.47
  A 0.44 0.44 0.0 0 0 127.48 180.90
  Q 126.09 176.44 121.32 176.15
  C 116.64 175.86 111.54 177.82 112.67 183.38
  C 113.32 186.62 118.59 187.17 121.68 187.75
  A 1.45 1.44 12.7 0 1 122.82 189.53
  Q 122.49 190.75 121.29 191.02
  Q 117.83 191.81 116.70 189.36
  A 1.02 1.00 77.7 0 0 115.78 188.76
  L 112.45 188.76
  A 0.60 0.60 0.0 0 0 111.87 189.50
  Q 112.52 192.19 114.12 193.20
  C 117.21 195.16 123.85 195.54 126.35 192.24
  Q 128.16 189.85 127.22 186.88
  A 3.78 3.76 -1.1 0 0 124.61 184.38
  Q 122.57 183.82 118.17 182.89
  A 1.56 1.54 -81.2 0 1 116.96 181.22
  Q 117.03 180.51 117.86 180.12
  Q 120.98 178.67 122.81 181.02
  A 1.17 1.17 0.0 0 0 123.73 181.47
  L 127.06 181.47
  Z
  M 158.58 186.17
  Q 158.73 182.61 157.26 180.05
  C 153.42 173.38 143.17 175.56 141.57 182.78
  C 140.50 187.59 141.97 192.30 146.87 194.08
  C 151.03 195.59 156.00 194.19 158.02 189.98
  A 0.51 0.50 12.6 0 0 157.56 189.26
  L 154.46 189.26
  A 1.62 1.60 22.3 0 0 153.32 189.73
  C 151.04 191.99 146.36 191.24 145.88 187.45
  A 0.59 0.59 0.0 0 1 146.47 186.79
  L 157.93 186.79
  A 0.65 0.65 0.0 0 0 158.58 186.17
  Z
  M 160.64 177.39
  L 160.64 193.77
  A 0.56 0.56 0.0 0 0 161.20 194.33
  L 164.84 194.33
  A 0.60 0.60 0.0 0 0 165.44 193.72
  Q 165.30 187.74 165.52 184.04
  Q 165.75 180.17 170.96 180.55
  A 0.32 0.31 1.7 0 0 171.30 180.24
  L 171.30 176.49
  A 0.26 0.26 0.0 0 0 171.05 176.23
  Q 167.36 176.13 165.63 178.78
  A 0.42 0.42 0.0 0 1 164.87 178.66
  Q 164.79 178.36 164.98 177.50
  A 0.66 0.66 0.0 0 0 164.34 176.70
  L 161.33 176.70
  A 0.69 0.69 0.0 0 0 160.64 177.39
  Z
  M 201.21 177.36
  L 201.08 193.78
  A 0.56 0.56 0.0 0 0 201.64 194.34
  L 205.28 194.37
  A 0.60 0.60 0.0 0 0 205.89 193.76
  Q 205.80 187.77 206.05 184.07
  Q 206.31 180.19 211.52 180.61
  A 0.32 0.31 2.2 0 0 211.87 180.30
  L 211.90 176.55
  A 0.26 0.26 0.0 0 0 211.65 176.28
  Q 207.95 176.15 206.20 178.80
  A 0.42 0.42 0.0 0 1 205.44 178.67
  Q 205.36 178.37 205.56 177.51
  A 0.66 0.66 0.0 0 0 204.92 176.70
  L 201.91 176.68
  A 0.69 0.69 0.0 0 0 201.21 177.36
  Z
  M 230.3046 184.5537
  A 8.06 8.06 0.0 0 0 222.5163 176.2309
  L 220.9571 176.1792
  A 8.06 8.06 0.0 0 0 212.6343 183.9676
  L 212.5554 186.3463
  A 8.06 8.06 0.0 0 0 220.3437 194.6691
  L 221.9029 194.7208
  A 8.06 8.06 0.0 0 0 230.2257 186.9324
  L 230.3046 184.5537
  Z
  M 43.60 176.93
  A 0.35 0.35 0.0 0 0 43.25 176.58
  L 39.23 176.58
  A 0.35 0.35 0.0 0 0 38.88 176.93
  L 38.88 193.99
  A 0.35 0.35 0.0 0 0 39.23 194.34
  L 43.25 194.34
  A 0.35 0.35 0.0 0 0 43.60 193.99
  L 43.60 176.93
  Z
  M 54.03 188.53
  Q 54.07 188.53 54.28 188.60
  A 0.06 0.06 0.0 0 1 54.31 188.63
  L 57.43 194.13
  A 0.51 0.50 -13.4 0 0 57.88 194.40
  L 62.55 194.40
  A 0.05 0.05 0.0 0 0 62.59 194.32
  L 57.36 185.25
  A 0.62 0.62 0.0 0 1 57.38 184.60
  L 62.45 176.88
  A 0.16 0.16 0.0 0 0 62.31 176.64
  L 57.43 176.64
  A 0.48 0.46 -73.7 0 0 57.03 176.87
  Q 55.74 179.01 54.41 181.49
  Q 54.32 181.66 54.08 181.66
  Q 53.85 181.66 53.76 181.49
  Q 52.47 178.98 51.21 176.82
  A 0.48 0.46 74.6 0 0 50.82 176.59
  L 45.94 176.51
  A 0.16 0.16 0.0 0 0 45.80 176.75
  L 50.74 184.55
  A 0.62 0.62 0.0 0 1 50.75 185.20
  L 45.38 194.19
  A 0.05 0.05 0.0 0 0 45.42 194.27
  L 50.09 194.34
  A 0.51 0.50 14.3 0 0 50.54 194.08
  L 53.75 188.63
  A 0.06 0.06 0.0 0 1 53.78 188.60
  Q 54.00 188.53 54.03 188.53
  Z"
/>
<path fill="#f1f1f1" d="
  M 176.01 104.18
  Q 175.81 104.69 176.21 104.97
  Q 176.38 105.14 176.42 105.32
  Q 185.17 131.46 187.71 139.34
  C 190.02 146.53 184.89 154.01 177.26 154.06
  Q 174.08 154.07 83.75 154.28
  Q 70.03 154.31 60.86 154.12
  A 3.25 3.11 53.8 0 1 59.90 153.95
  Q 57.09 153.02 56.45 152.67
  Q 56.36 152.62 56.51 152.47
  A 0.07 0.07 0.0 0 0 56.47 152.34
  Q 55.99 152.31 55.54 151.95
  Q 50.30 147.73 51.40 140.73
  Q 51.55 139.77 52.65 136.10
  A 2.77 2.57 71.9 0 1 52.96 135.43
  Q 54.50 133.02 54.65 130.07
  A 1.94 1.89 -28.3 0 1 54.92 129.21
  Q 55.38 128.45 55.80 127.10
  Q 57.05 123.10 58.23 119.38
  Q 59.87 117.61 60.49 115.28
  Q 61.14 112.84 61.17 112.76
  Q 62.83 107.85 64.52 102.44
  L 71.10 81.75
  Q 72.79 78.44 72.77 73.50
  Q 72.70 56.76 72.36 52.19
  Q 72.46 51.65 72.22 51.12
  Q 72.75 44.49 77.68 42.23
  Q 80.41 40.98 88.50 41.09
  Q 123.77 41.59 159.06 41.07
  A 1.84 1.79 53.9 0 1 159.76 41.19
  Q 164.02 42.73 166.14 46.19
  Q 167.47 48.36 167.38 53.98
  Q 167.30 59.34 167.39 74.53
  C 167.39 75.99 167.72 78.13 167.93 79.80
  A 4.67 4.52 32.8 0 0 168.15 80.74
  L 176.01 104.18
  Z
  M 77.29 50.45
  L 76.74 80.72
  Q 72.42 93.24 68.57 105.80
  Q 68.37 106.44 68.39 106.69
  A 1.12 1.07 60.4 0 1 68.23 107.33
  Q 67.05 109.29 65.91 112.99
  Q 63.34 121.36 60.24 129.54
  Q 59.06 132.65 58.88 134.22
  A 3.03 2.99 -30.6 0 1 58.66 135.05
  Q 56.03 140.91 56.40 144.52
  Q 56.59 146.39 59.81 149.12
  Q 87.80 150.03 115.98 148.99
  Q 145.06 148.90 174.22 148.95
  C 176.90 148.95 179.90 149.51 181.67 147.21
  Q 184.13 144.01 182.69 139.89
  Q 177.79 125.89 173.23 111.82
  Q 173.36 110.72 172.72 109.94
  Q 172.62 109.98 172.51 110.03
  L 171.19 106.22
  Q 169.89 99.71 167.06 93.51
  Q 165.77 88.13 165.13 86.87
  Q 163.91 84.49 163.13 82.11
  L 162.57 68.77
  Q 162.40 68.76 162.23 68.74
  Q 162.95 59.33 162.23 50.27
  Q 161.30 46.23 158.32 46.17
  Q 133.04 45.69 83.00 46.18
  Q 78.44 46.22 77.29 50.45
  Z"
/>
<path fill="#000000" d="
  M 162.23 50.27
  Q 161.64 57.04 161.84 61.00
  Q 162.20 67.94 161.61 72.49
  Q 160.88 78.08 163.13 82.11
  Q 163.91 84.49 165.13 86.87
  Q 165.77 88.13 167.06 93.51
  Q 167.00 96.85 168.64 99.63
  A 3.31 3.27 27.4 0 1 169.07 100.96
  Q 169.35 104.07 171.19 106.22
  L 172.51 110.03
  Q 172.15 111.38 173.05 111.82
  Q 173.14 111.82 173.23 111.82
  Q 177.79 125.89 182.69 139.89
  Q 184.13 144.01 181.67 147.21
  C 179.90 149.51 176.90 148.95 174.22 148.95
  Q 145.06 148.90 115.98 148.99
  L 59.81 149.12
  Q 56.59 146.39 56.40 144.52
  Q 56.03 140.91 58.66 135.05
  A 3.03 2.99 -30.6 0 0 58.88 134.22
  Q 59.06 132.65 60.24 129.54
  Q 63.34 121.36 65.91 112.99
  Q 67.05 109.29 68.23 107.33
  A 1.12 1.07 60.4 0 0 68.39 106.69
  Q 68.37 106.44 68.57 105.80
  Q 72.42 93.24 76.74 80.72
  Q 77.26 79.60 77.39 78.22
  A 0.07 0.05 -50.5 0 1 77.51 78.19
  Q 77.51 78.25 77.53 78.33
  A 0.08 0.02 -74.5 0 0 77.59 78.23
  Q 77.85 76.05 77.87 74.00
  Q 78.01 62.19 77.29 50.45
  Q 78.44 46.22 83.00 46.18
  Q 133.04 45.69 158.32 46.17
  Q 161.30 46.23 162.23 50.27
  Z
  M 155.8969 69.7298
  A 13.76 13.02 -2.5 0 0 141.5821 57.3224
  A 13.76 13.02 -2.5 0 0 128.4031 70.9302
  A 13.76 13.02 -2.5 0 0 142.7179 83.3376
  A 13.76 13.02 -2.5 0 0 155.8969 69.7298
  Z
  M 113.9595 67.7450
  A 12.78 12.52 -14.2 0 0 98.4988 58.7425
  A 12.78 12.52 -14.2 0 0 89.1805 74.0150
  A 12.78 12.52 -14.2 0 0 104.6412 83.0175
  A 12.78 12.52 -14.2 0 0 113.9595 67.7450
  Z
  M 75.54 125.60
  Q 76.85 126.33 78.81 126.36
  A 0.63 0.62 85.0 0 1 79.42 126.88
  Q 79.53 127.51 79.28 128.13
  Q 77.25 131.53 76.90 135.25
  A 4.46 4.23 58.7 0 1 76.69 136.22
  C 76.07 137.99 74.82 142.29 76.85 143.47
  Q 80.25 145.44 81.87 141.87
  A 2.15 2.12 62.9 0 0 81.98 141.52
  L 83.98 132.80
  A 0.20 0.04 -79.1 0 1 84.00 132.75
  Q 84.95 130.73 84.44 127.91
  Q 85.94 126.82 89.35 126.92
  Q 91.30 124.12 90.85 121.34
  Q 90.69 120.39 87.99 119.67
  A 0.84 0.83 -76.9 0 1 87.39 118.69
  L 89.75 107.34
  L 90.72 102.95
  Q 92.60 99.78 92.67 96.16
  A 2.86 2.74 -55.7 0 0 92.50 95.14
  Q 91.72 93.00 89.22 93.06
  C 87.29 93.10 86.19 95.46 85.89 97.00
  Q 83.74 108.12 80.82 116.87
  A 2.28 2.27 -86.2 0 1 79.09 118.39
  L 76.93 118.81
  A 1.56 1.56 0.0 0 0 75.75 119.86
  L 74.37 124.14
  A 1.02 0.99 -51.0 0 0 74.44 124.92
  Q 75.84 127.60 75.54 125.60
  Z
  M 107.94 93.74
  Q 106.25 94.30 106.21 96.16
  Q 104.75 102.73 105.16 108.98
  A 1.37 1.35 -5.0 0 1 103.94 110.42
  Q 100.86 110.75 100.36 111.79
  Q 99.08 114.44 99.37 117.19
  A 0.79 0.74 -66.9 0 0 99.50 117.55
  Q 99.99 118.27 100.70 117.99
  L 104.04 118.06
  A 1.13 1.13 0.0 0 1 105.15 119.25
  Q 104.65 129.47 104.10 139.75
  Q 104.01 141.42 104.27 142.58
  A 2.37 2.15 -10.6 0 0 106.91 144.20
  C 109.21 143.84 109.12 140.34 109.20 138.47
  Q 109.62 129.10 110.11 119.71
  L 110.33 122.05
  A 0.11 0.11 0.0 0 0 110.54 122.04
  L 110.54 120.30
  A 1.01 1.01 0.0 0 1 111.55 119.29
  L 114.11 119.29
  A 1.80 1.80 0.0 0 0 115.91 117.49
  L 115.91 112.53
  A 2.35 2.34 0.0 0 0 113.56 110.19
  L 112.37 110.19
  A 0.77 0.77 0.0 0 1 111.60 109.42
  L 111.60 95.18
  Q 109.62 92.48 107.94 93.74
  Z
  M 126.11 94.73
  Q 125.79 94.57 125.46 95.12
  A 1.10 1.06 -30.0 0 0 125.32 95.61
  Q 124.74 110.05 124.85 114.75
  Q 124.90 117.10 125.97 126.31
  Q 126.11 127.09 125.89 127.68
  A 1.09 1.06 6.9 0 1 124.99 128.37
  L 122.49 128.62
  A 0.93 0.93 0.0 0 0 121.95 128.86
  Q 121.30 129.43 121.27 130.37
  L 120.93 135.06
  A 0.75 0.74 2.1 0 0 121.68 135.86
  L 125.91 135.86
  A 0.76 0.76 0.0 0 1 126.67 136.60
  L 126.84 141.41
  A 3.00 2.98 -85.1 0 0 129.21 144.24
  L 129.35 144.28
  A 1.88 1.88 0.0 0 0 131.68 142.39
  L 131.49 136.45
  A 0.61 0.61 0.0 0 1 132.10 135.82
  L 135.62 135.82
  A 1.20 1.20 0.0 0 0 136.82 134.62
  L 136.82 130.22
  A 1.72 1.72 0.0 0 0 135.10 128.50
  L 132.18 128.50
  A 0.64 0.64 0.0 0 1 131.54 127.93
  L 131.27 125.37
  Q 131.90 110.24 130.46 95.19
  Q 129.64 93.77 128.48 93.59
  Q 126.87 93.34 126.11 94.73
  Z
  M 151.66 99.72
  A 2.86 2.86 0.0 0 0 148.80 96.86
  A 2.86 2.86 0.0 0 0 145.94 99.72
  A 2.86 2.86 0.0 0 0 148.80 102.58
  A 2.86 2.86 0.0 0 0 151.66 99.72
  Z
  M 142.40 99.77
  A 2.75 2.75 0.0 0 0 139.65 97.02
  A 2.75 2.75 0.0 0 0 136.90 99.77
  A 2.75 2.75 0.0 0 0 139.65 102.52
  A 2.75 2.75 0.0 0 0 142.40 99.77
  Z
  M 160.45 99.58
  A 2.70 2.70 0.0 0 0 157.75 96.88
  A 2.70 2.70 0.0 0 0 155.05 99.58
  A 2.70 2.70 0.0 0 0 157.75 102.28
  A 2.70 2.70 0.0 0 0 160.45 99.58
  Z
  M 161.83 110.62
  A 2.89 2.89 0.0 0 0 158.94 107.73
  A 2.89 2.89 0.0 0 0 156.05 110.62
  A 2.89 2.89 0.0 0 0 158.94 113.51
  A 2.89 2.89 0.0 0 0 161.83 110.62
  Z
  M 152.47 110.73
  A 2.80 2.80 0.0 0 0 149.67 107.93
  A 2.80 2.80 0.0 0 0 146.87 110.73
  A 2.80 2.80 0.0 0 0 149.67 113.53
  A 2.80 2.80 0.0 0 0 152.47 110.73
  Z
  M 143.25 110.80
  A 2.75 2.75 0.0 0 0 140.50 108.05
  A 2.75 2.75 0.0 0 0 137.75 110.80
  A 2.75 2.75 0.0 0 0 140.50 113.55
  A 2.75 2.75 0.0 0 0 143.25 110.80
  Z
  M 150.11 123.92
  C 154.26 124.54 154.76 119.07 150.93 118.50
  C 147.09 117.92 145.96 123.30 150.11 123.92
  Z
  M 143.83 121.31
  A 2.77 2.77 0.0 0 0 141.06 118.54
  A 2.77 2.77 0.0 0 0 138.29 121.31
  A 2.77 2.77 0.0 0 0 141.06 124.08
  A 2.77 2.77 0.0 0 0 143.83 121.31
  Z
  M 156.8515 120.8364
  A 2.96 2.78 -170.4 0 0 159.3064 124.0711
  A 2.96 2.78 -170.4 0 0 162.6885 121.8236
  A 2.96 2.78 -170.4 0 0 160.2336 118.5889
  A 2.96 2.78 -170.4 0 0 156.8515 120.8364
  Z"
/>
<path fill="#645d62" d="
  M 162.23 68.74
  Q 162.20 73.35 162.21 78.00
  Q 162.21 78.28 162.32 78.43
  A 0.13 0.13 0.0 0 0 162.55 78.35
  L 162.57 68.77
  L 163.13 82.11
  Q 160.88 78.08 161.61 72.49
  Q 162.20 67.94 161.84 61.00
  Q 161.64 57.04 162.23 50.27
  Q 162.95 59.33 162.23 68.74
  Z"
/>
<path fill="#9c9a9d" d="
  M 77.29 50.45
  Q 78.01 62.19 77.87 74.00
  Q 77.85 76.05 77.59 78.23
  A 0.08 0.02 -74.5 0 1 77.53 78.33
  Q 77.51 78.25 77.51 78.19
  A 0.07 0.05 -50.5 0 0 77.39 78.22
  Q 77.26 79.60 76.74 80.72
  L 77.29 50.45
  Z"
/>
<path fill="#645d62" d="
  M 72.22 51.12
  Q 72.46 51.65 72.36 52.19
  Q 71.99 63.11 72.13 74.00
  Q 72.18 77.38 71.10 81.75
  L 64.52 102.44
  L 62.19 106.56
  Q 63.08 101.70 64.77 98.28
  A 3.43 3.18 64.7 0 0 65.08 97.30
  Q 65.66 93.20 67.97 89.87
  A 1.19 1.01 -24.4 0 0 68.14 89.51
  L 70.83 79.33
  A 2.06 1.57 59.1 0 0 70.88 78.89
  L 70.85 73.04
  A 2.99 2.33 56.3 0 1 70.88 72.63
  Q 71.72 68.21 71.61 65.75
  Q 71.27 57.54 72.22 51.12
  Z"
/>
<path fill="#9c9a9d" d="
  M 72.36 52.19
  Q 72.70 56.76 72.77 73.50
  Q 72.79 78.44 71.10 81.75
  Q 72.18 77.38 72.13 74.00
  Q 71.99 63.11 72.36 52.19
  Z"
/>
<ellipse fill="#f6cc09" cx="0.00" cy="0.00" transform="translate(142.15,70.33) rotate(-2.5)" rx="13.76" ry="13.02"/>
<ellipse fill="#f6cc09" cx="0.00" cy="0.00" transform="translate(101.57,70.88) rotate(-14.2)" rx="12.78" ry="12.52"/>
<path fill="#9c9a9d" d="
  M 162.57 68.77
  L 162.55 78.35
  A 0.13 0.13 0.0 0 1 162.32 78.43
  Q 162.21 78.28 162.21 78.00
  Q 162.20 73.35 162.23 68.74
  Q 162.40 68.76 162.57 68.77
  Z"
/>
<path fill="#645d62" d="
  M 90.72 102.95
  Q 90.81 100.34 91.41 97.72
  Q 91.97 95.27 90.12 94.12
  A 1.30 1.30 0.0 0 0 88.36 94.49
  Q 87.09 96.39 86.64 98.68
  Q 84.73 108.30 83.71 112.53
  Q 82.69 116.81 81.98 119.28
  A 0.70 0.68 -79.2 0 1 81.26 119.78
  Q 75.65 119.30 75.54 125.60
  Q 75.84 127.60 74.44 124.92
  A 1.02 0.99 -51.0 0 1 74.37 124.14
  L 75.75 119.86
  A 1.56 1.56 0.0 0 1 76.93 118.81
  L 79.09 118.39
  A 2.28 2.27 -86.2 0 0 80.82 116.87
  Q 83.74 108.12 85.89 97.00
  C 86.19 95.46 87.29 93.10 89.22 93.06
  Q 91.72 93.00 92.50 95.14
  A 2.86 2.74 -55.7 0 1 92.67 96.16
  Q 92.60 99.78 90.72 102.95
  Z"
/>
<path fill="#9c9a9d" d="
  M 111.60 95.18
  L 111.08 110.04
  A 0.62 0.61 -84.1 0 0 111.59 110.67
  L 114.80 111.19
  L 111.30 111.32
  A 0.89 0.88 88.8 0 1 110.38 110.43
  L 110.38 102.52
  A 2.72 2.01 -47.7 0 1 110.43 102.03
  Q 111.13 99.08 110.96 95.71
  A 1.47 1.46 -67.7 0 0 110.59 94.82
  Q 109.58 93.74 107.94 93.74
  Q 109.62 92.48 111.60 95.18
  Z"
/>
<path fill="#f1f1f1" d="
  M 130.46 95.19
  Q 129.84 110.37 131.27 125.37
  L 131.54 127.93
  A 0.64 0.64 0.0 0 0 132.18 128.50
  L 135.10 128.50
  A 1.72 1.72 0.0 0 1 136.82 130.22
  L 136.82 134.62
  A 1.20 1.20 0.0 0 1 135.62 135.82
  L 132.10 135.82
  A 0.61 0.61 0.0 0 0 131.49 136.45
  L 131.68 142.39
  A 1.88 1.88 0.0 0 1 129.35 144.28
  L 129.21 144.24
  A 3.00 2.98 -85.1 0 1 126.84 141.41
  L 126.67 136.60
  A 0.76 0.76 0.0 0 0 125.91 135.86
  L 121.68 135.86
  A 0.75 0.74 2.1 0 1 120.93 135.06
  L 121.27 130.37
  Q 122.15 129.24 123.24 128.78
  A 1.26 1.25 41.6 0 1 124.12 128.73
  Q 126.64 129.50 126.81 127.19
  Q 127.12 122.76 126.73 117.06
  C 126.22 109.51 126.18 102.50 126.04 95.21
  L 126.11 94.73
  Q 126.87 93.34 128.48 93.59
  Q 129.64 93.77 130.46 95.19
  Z"
/>
<path fill="#f1f1f1" d="
  M 107.94 93.74
  Q 109.58 93.74 110.59 94.82
  A 1.47 1.46 -67.7 0 1 110.96 95.71
  Q 111.13 99.08 110.43 102.03
  A 2.72 2.01 -47.7 0 0 110.38 102.52
  L 110.38 110.43
  A 0.89 0.88 88.8 0 0 111.30 111.32
  L 114.80 111.19
  L 115.18 116.89
  A 0.82 0.82 0.0 0 1 114.53 117.75
  Q 113.51 117.97 112.14 117.86
  Q 111.07 117.77 110.55 118.19
  Q 109.96 118.68 110.11 119.71
  Q 109.62 129.10 109.20 138.47
  C 109.12 140.34 109.21 143.84 106.91 144.20
  A 2.37 2.15 -10.6 0 1 104.27 142.58
  Q 104.01 141.42 104.10 139.75
  Q 104.65 129.47 105.15 119.25
  A 1.13 1.13 0.0 0 0 104.04 118.06
  L 100.70 117.99
  Q 99.47 116.45 101.09 112.66
  A 1.93 1.92 -85.7 0 1 102.36 111.56
  Q 103.47 111.26 104.90 111.42
  A 1.03 1.03 0.0 0 0 106.05 110.41
  L 106.21 96.16
  Q 106.25 94.30 107.94 93.74
  Z"
/>
<path fill="#645d62" d="
  M 171.19 106.22
  Q 169.35 104.07 169.07 100.96
  A 3.31 3.27 27.4 0 0 168.64 99.63
  Q 167.00 96.85 167.06 93.51
  Q 169.89 99.71 171.19 106.22
  Z"
/>
<path fill="#f1f1f1" d="
  M 90.72 102.95
  L 89.75 107.34
  Q 87.28 111.91 86.97 116.82
  A 1.51 1.49 62.0 0 1 86.77 117.49
  C 85.82 119.18 86.71 120.95 88.79 120.57
  A 0.70 0.69 -13.1 0 1 89.59 121.06
  Q 90.22 123.27 89.35 126.92
  Q 85.94 126.82 84.44 127.91
  L 81.09 141.82
  A 2.30 2.29 -78.0 0 1 78.45 143.54
  L 78.15 143.49
  A 2.08 2.08 0.0 0 1 76.49 141.00
  L 79.28 128.13
  Q 79.53 127.51 79.42 126.88
  A 0.63 0.62 85.0 0 0 78.81 126.36
  Q 76.85 126.33 75.54 125.60
  Q 75.65 119.30 81.26 119.78
  A 0.70 0.68 -79.2 0 0 81.98 119.28
  Q 82.69 116.81 83.71 112.53
  Q 84.73 108.30 86.64 98.68
  Q 87.09 96.39 88.36 94.49
  A 1.30 1.30 0.0 0 1 90.12 94.12
  Q 91.97 95.27 91.41 97.72
  Q 90.81 100.34 90.72 102.95
  Z"
/>
<path fill="#645d62" d="
  M 126.11 94.73
  L 126.04 95.21
  Q 125.63 95.48 125.60 95.81
  C 125.31 98.95 125.84 102.75 125.87 105.40
  Q 125.99 115.76 125.97 126.31
  Q 124.90 117.10 124.85 114.75
  Q 124.74 110.05 125.32 95.61
  A 1.10 1.06 -30.0 0 1 125.46 95.12
  Q 125.79 94.57 126.11 94.73
  Z"
/>
<path fill="#645d62" d="
  M 110.11 119.71
  Q 109.96 118.68 110.55 118.19
  Q 111.07 117.77 112.14 117.86
  Q 113.51 117.97 114.53 117.75
  A 0.82 0.82 0.0 0 0 115.18 116.89
  L 114.80 111.19
  L 111.59 110.67
  A 0.62 0.61 -84.1 0 1 111.08 110.04
  L 111.60 95.18
  L 111.60 109.42
  A 0.77 0.77 0.0 0 0 112.37 110.19
  L 113.56 110.19
  A 2.35 2.34 -0.0 0 1 115.91 112.53
  L 115.91 117.49
  A 1.80 1.80 0.0 0 1 114.11 119.29
  L 111.55 119.29
  A 1.01 1.01 0.0 0 0 110.54 120.30
  L 110.54 122.04
  A 0.11 0.11 0.0 0 1 110.33 122.05
  L 110.11 119.71
  Z"
/>
<path fill="#9c9a9d" d="
  M 126.04 95.21
  C 126.18 102.50 126.22 109.51 126.73 117.06
  Q 127.12 122.76 126.81 127.19
  Q 126.64 129.50 124.12 128.73
  A 1.26 1.25 41.6 0 0 123.24 128.78
  Q 122.15 129.24 121.27 130.37
  Q 121.30 129.43 121.95 128.86
  A 0.93 0.93 0.0 0 1 122.49 128.62
  L 124.99 128.37
  A 1.09 1.06 6.9 0 0 125.89 127.68
  Q 126.11 127.09 125.97 126.31
  Q 125.99 115.76 125.87 105.40
  C 125.84 102.75 125.31 98.95 125.60 95.81
  Q 125.63 95.48 126.04 95.21
  Z"
/>
<path fill="#9c9a9d" d="
  M 131.27 125.37
  Q 129.84 110.37 130.46 95.19
  Q 131.90 110.24 131.27 125.37
  Z"
/>
<path fill="#645d62" d="
  M 106.21 96.16
  L 106.05 110.41
  A 1.03 1.03 0.0 0 1 104.90 111.42
  Q 103.47 111.26 102.36 111.56
  A 1.93 1.92 -85.7 0 0 101.09 112.66
  Q 99.47 116.45 100.70 117.99
  Q 99.99 118.27 99.50 117.55
  A 0.79 0.74 -66.9 0 1 99.37 117.19
  Q 99.08 114.44 100.36 111.79
  Q 100.86 110.75 103.94 110.42
  A 1.37 1.35 -5.0 0 0 105.16 108.98
  Q 104.75 102.73 106.21 96.16
  Z"
/>
<circle fill="#f1f1f1" cx="148.80" cy="99.72" r="2.86"/>
<circle fill="#f1f1f1" cx="139.65" cy="99.77" r="2.75"/>
<circle fill="#f1f1f1" cx="157.75" cy="99.58" r="2.70"/>
<path fill="#9c9a9d" d="
  M 64.52 102.44
  Q 62.83 107.85 61.17 112.76
  Q 61.14 112.84 60.49 115.28
  Q 59.87 117.61 58.23 119.38
  L 62.19 106.56
  L 64.52 102.44
  Z"
/>
<path fill="#645d62" d="
  M 176.42 105.32
  Q 176.38 105.14 176.21 104.97
  L 176.13 104.20
  Q 176.76 103.99 176.42 105.32
  Z"
/>
<path fill="#9c9a9d" d="
  M 176.13 104.20
  L 176.21 104.97
  Q 175.81 104.69 176.01 104.18
  Q 176.07 104.19 176.13 104.20
  Z"
/>
<path fill="#9c9a9d" d="
  M 89.75 107.34
  L 87.39 118.69
  A 0.84 0.83 -76.9 0 0 87.99 119.67
  Q 90.69 120.39 90.85 121.34
  Q 91.30 124.12 89.35 126.92
  Q 90.22 123.27 89.59 121.06
  A 0.70 0.69 -13.1 0 0 88.79 120.57
  C 86.71 120.95 85.82 119.18 86.77 117.49
  A 1.51 1.49 62.0 0 0 86.97 116.82
  Q 87.28 111.91 89.75 107.34
  Z"
/>
<circle fill="#f1f1f1" cx="158.94" cy="110.62" r="2.89"/>
<circle fill="#f1f1f1" cx="149.67" cy="110.73" r="2.80"/>
<circle fill="#f1f1f1" cx="140.50" cy="110.80" r="2.75"/>
<path fill="#645d62" d="
  M 172.72 109.94
  Q 172.73 110.92 173.05 111.82
  Q 172.15 111.38 172.51 110.03
  Q 172.62 109.98 172.72 109.94
  Z"
/>
<path fill="#9c9a9d" d="
  M 173.23 111.82
  Q 173.14 111.82 173.05 111.82
  Q 172.73 110.92 172.72 109.94
  Q 173.36 110.72 173.23 111.82
  Z"
/>
<path fill="#f1f1f1" d="
  M 150.93 118.50
  C 154.76 119.07 154.26 124.54 150.11 123.92
  C 145.96 123.30 147.09 117.92 150.93 118.50
  Z"
/>
<circle fill="#f1f1f1" cx="141.06" cy="121.31" r="2.77"/>
<ellipse fill="#f1f1f1" cx="0.00" cy="0.00" transform="translate(159.77,121.33) rotate(-170.4)" rx="2.96" ry="2.78"/>
<path fill="#645d62" d="
  M 79.28 128.13
  L 76.49 141.00
  A 2.08 2.08 0.0 0 0 78.15 143.49
  L 78.45 143.54
  A 2.30 2.29 -78.0 0 0 81.09 141.82
  L 84.44 127.91
  Q 84.95 130.73 84.00 132.75
  A 0.20 0.04 -79.1 0 0 83.98 132.80
  L 81.98 141.52
  A 2.15 2.12 62.9 0 1 81.87 141.87
  Q 80.25 145.44 76.85 143.47
  C 74.82 142.29 76.07 137.99 76.69 136.22
  A 4.46 4.23 58.7 0 0 76.90 135.25
  Q 77.25 131.53 79.28 128.13
  Z"
/>
<path fill="#9c9a9d" d="
  M 115.98 148.99
  Q 87.80 150.03 59.81 149.12
  L 115.98 148.99
  Z"
/>
<path fill="#f6cc09" d="
  M 22.51 194.32
  Q 21.04 194.32 20.94 194.29
  A 0.95 0.94 -1.5 0 1 20.28 193.67
  L 14.60 175.94
  A 0.11 0.11 0.0 0 0 14.39 175.97
  L 14.37 193.89
  A 0.41 0.41 0.0 0 1 13.96 194.30
  L 10.08 194.30
  A 0.41 0.40 0.0 0 1 9.67 193.90
  L 9.69 170.25
  A 0.41 0.41 0.0 0 1 10.10 169.84
  L 16.27 169.85
  A 0.79 0.79 0.0 0 1 17.02 170.41
  L 22.31 187.25
  A 0.29 0.06 75.1 0 0 22.42 187.47
  Q 22.48 187.50 22.48 187.50
  Q 22.56 187.50 22.61 187.48
  A 0.29 0.06 -75.0 0 0 22.72 187.25
  L 28.04 170.42
  A 0.79 0.79 0.0 0 1 28.80 169.86
  L 34.97 169.87
  A 0.41 0.41 0.0 0 1 35.37 170.28
  L 35.35 193.92
  A 0.41 0.40 0.1 0 1 34.94 194.32
  L 31.05 194.32
  A 0.41 0.41 0.0 0 1 30.65 193.91
  L 30.66 175.98
  A 0.11 0.11 0.0 0 0 30.46 175.95
  L 24.74 193.67
  A 0.95 0.94 1.6 0 1 24.07 194.29
  Q 23.97 194.32 22.51 194.32
  Z"
/>
<rect fill="#f6cc09" x="-2.36" y="-2.21" transform="translate(41.24,172.06) rotate(-0.2)" width="4.72" height="4.42" rx="0.39"/>
<path fill="#f6cc09" d="
  M 77.94 187.54
  Q 78.01 187.54 78.07 187.51
  A 0.29 0.06 -75.1 0 0 78.18 187.29
  L 83.50 170.39
  A 0.80 0.79 8.4 0 1 84.26 169.83
  L 90.45 169.83
  A 0.41 0.41 0.0 0 1 90.86 170.24
  L 90.86 193.97
  A 0.41 0.40 0.0 0 1 90.45 194.37
  L 86.55 194.37
  A 0.41 0.41 0.0 0 1 86.14 193.96
  L 86.14 175.97
  A 0.11 0.11 0.0 0 0 85.93 175.94
  L 80.21 193.73
  A 0.96 0.94 1.5 0 1 79.55 194.35
  Q 79.44 194.38 77.98 194.38
  Q 76.51 194.38 76.40 194.35
  A 0.96 0.94 -1.5 0 1 75.74 193.73
  L 70.02 175.94
  A 0.11 0.11 0.0 0 0 69.81 175.97
  L 69.81 193.96
  A 0.41 0.41 0.0 0 1 69.40 194.37
  L 65.50 194.37
  A 0.41 0.40 -0.0 0 1 65.09 193.97
  L 65.08 170.24
  A 0.41 0.41 0.0 0 1 65.49 169.83
  L 71.68 169.83
  A 0.80 0.79 -8.4 0 1 72.44 170.39
  L 77.77 187.29
  A 0.29 0.06 75.1 0 0 77.88 187.51
  Q 77.93 187.54 77.94 187.54
  Z"
/>
<path fill="#f1f1f1" d="
  M 185.50 193.95
  A 0.38 0.38 0.0 0 1 185.12 194.33
  L 181.12 194.33
  A 0.42 0.42 0.0 0 1 180.70 193.91
  L 180.71 170.53
  A 0.63 0.62 89.5 0 1 181.32 169.90
  C 188.17 169.81 195.91 168.71 198.16 174.19
  Q 199.76 178.06 197.86 181.77
  C 195.64 186.12 190.52 186.04 186.14 186.00
  A 0.63 0.63 0.0 0 0 185.50 186.63
  L 185.50 193.95
  Z
  M 185.45 174.60
  L 185.57 181.21
  A 0.59 0.59 0.0 0 0 186.17 181.79
  L 189.83 181.73
  A 4.33 3.71 -1.0 0 0 194.09 177.95
  L 194.09 177.57
  A 4.33 3.71 -1.0 0 0 189.69 173.93
  L 186.03 174.00
  A 0.59 0.59 0.0 0 0 185.45 174.60
  Z"
/>
<path fill="#f6cc09" d="
  M 135.81 172.04
  L 135.81 176.25
  A 0.46 0.45 90.0 0 0 136.26 176.71
  L 139.37 176.71
  A 0.47 0.47 0.0 0 1 139.84 177.18
  L 139.84 179.95
  A 0.55 0.54 90.0 0 1 139.30 180.50
  L 136.43 180.50
  A 0.61 0.60 -90.0 0 0 135.83 181.11
  L 135.83 189.63
  A 0.97 0.96 7.9 0 0 136.54 190.56
  Q 137.93 190.95 139.55 190.78
  A 0.23 0.23 0.0 0 1 139.80 191.01
  L 139.80 194.04
  A 0.26 0.26 0.0 0 1 139.56 194.30
  C 135.60 194.63 131.12 194.56 131.11 189.36
  Q 131.09 184.09 131.14 181.21
  A 0.79 0.78 -83.2 0 0 130.53 180.43
  Q 130.25 180.36 129.53 180.59
  A 0.49 0.49 0.0 0 1 128.88 180.12
  L 128.88 177.27
  A 0.56 0.56 0.0 0 1 129.44 176.71
  L 130.68 176.71
  A 0.44 0.44 0.0 0 0 131.12 176.27
  L 131.12 172.03
  A 0.28 0.28 0.0 0 1 131.40 171.75
  L 135.52 171.75
  A 0.29 0.29 0.0 0 1 135.81 172.04
  Z"
/>
<path fill="#000000" d="
  M 185.45 174.60
  A 0.59 0.59 0.0 0 1 186.03 174.00
  L 189.69 173.93
  A 4.33 3.71 -1.0 0 1 194.09 177.57
  L 194.09 177.95
  A 4.33 3.71 -1.0 0 1 189.83 181.73
  L 186.17 181.79
  A 0.59 0.59 0.0 0 1 185.57 181.21
  L 185.45 174.60
  Z"
/>
<path fill="#f6cc09" d="
  M 105.25 192.64
  A 0.29 0.29 0.0 0 0 104.75 192.44
  C 101.85 195.37 95.42 195.49 93.85 191.01
  C 92.56 187.30 94.97 184.46 98.68 183.88
  Q 101.20 183.49 104.60 183.46
  A 0.63 0.63 0.0 0 0 105.21 182.70
  Q 104.28 178.25 99.71 180.22
  A 0.67 0.65 4.3 0 0 99.41 180.47
  L 98.66 181.62
  A 1.21 1.19 -72.9 0 1 97.66 182.16
  L 94.44 182.16
  A 0.40 0.40 0.0 0 1 94.07 181.62
  C 95.85 177.03 99.45 175.36 104.46 176.37
  Q 109.96 177.48 109.84 182.96
  Q 109.70 188.77 110.00 193.84
  A 0.49 0.48 88.3 0 1 109.52 194.36
  L 105.88 194.36
  A 0.63 0.63 0.0 0 1 105.25 193.73
  L 105.25 192.64
  Z
  M 105.20 187.15
  A 0.46 0.46 0.0 0 0 104.78 186.64
  Q 101.70 186.43 99.49 187.19
  A 1.87 1.85 -24.6 0 0 98.47 189.89
  Q 99.04 190.86 100.25 190.96
  Q 104.76 191.34 105.20 187.15
  Z"
/>
<path fill="#f6cc09" d="
  M 127.06 181.47
  L 123.73 181.47
  A 1.17 1.17 0.0 0 1 122.81 181.02
  Q 120.98 178.67 117.86 180.12
  Q 117.03 180.51 116.96 181.22
  A 1.56 1.54 -81.2 0 0 118.17 182.89
  Q 122.57 183.82 124.61 184.38
  A 3.78 3.76 -1.1 0 1 127.22 186.88
  Q 128.16 189.85 126.35 192.24
  C 123.85 195.54 117.21 195.16 114.12 193.20
  Q 112.52 192.19 111.87 189.50
  A 0.60 0.60 0.0 0 1 112.45 188.76
  L 115.78 188.76
  A 1.02 1.00 77.7 0 1 116.70 189.36
  Q 117.83 191.81 121.29 191.02
  Q 122.49 190.75 122.82 189.53
  A 1.45 1.44 12.7 0 0 121.68 187.75
  C 118.59 187.17 113.32 186.62 112.67 183.38
  C 111.54 177.82 116.64 175.86 121.32 176.15
  Q 126.09 176.44 127.48 180.90
  A 0.44 0.44 0.0 0 1 127.06 181.47
  Z"
/>
<path fill="#f6cc09" d="
  M 157.93 186.79
  L 146.47 186.79
  A 0.59 0.59 0.0 0 0 145.88 187.45
  C 146.36 191.24 151.04 191.99 153.32 189.73
  A 1.62 1.60 22.3 0 1 154.46 189.26
  L 157.56 189.26
  A 0.51 0.50 12.6 0 1 158.02 189.98
  C 156.00 194.19 151.03 195.59 146.87 194.08
  C 141.97 192.30 140.50 187.59 141.57 182.78
  C 143.17 175.56 153.42 173.38 157.26 180.05
  Q 158.73 182.61 158.58 186.17
  A 0.65 0.65 0.0 0 1 157.93 186.79
  Z
  M 146.22 183.57
  L 153.72 183.49
  A 0.18 0.18 0.0 0 0 153.90 183.31
  L 153.90 183.19
  A 3.84 3.58 -0.6 0 0 150.02 179.65
  L 149.84 179.65
  A 3.84 3.58 -0.6 0 0 146.04 183.27
  L 146.04 183.39
  A 0.18 0.18 0.0 0 0 146.22 183.57
  Z"
/>
<path fill="#f6cc09" d="
  M 160.64 177.39
  A 0.69 0.69 0.0 0 1 161.33 176.70
  L 164.34 176.70
  A 0.66 0.66 0.0 0 1 164.98 177.50
  Q 164.79 178.36 164.87 178.66
  A 0.42 0.42 0.0 0 0 165.63 178.78
  Q 167.36 176.13 171.05 176.23
  A 0.26 0.26 0.0 0 1 171.30 176.49
  L 171.30 180.24
  A 0.32 0.31 1.7 0 1 170.96 180.55
  Q 165.75 180.17 165.52 184.04
  Q 165.30 187.74 165.44 193.72
  A 0.60 0.60 0.0 0 1 164.84 194.33
  L 161.20 194.33
  A 0.56 0.56 0.0 0 1 160.64 193.77
  L 160.64 177.39
  Z"
/>
<path fill="#f1f1f1" d="
  M 201.21 177.36
  A 0.69 0.69 0.0 0 1 201.91 176.68
  L 204.92 176.70
  A 0.66 0.66 0.0 0 1 205.56 177.51
  Q 205.36 178.37 205.44 178.67
  A 0.42 0.42 0.0 0 0 206.20 178.80
  Q 207.95 176.15 211.65 176.28
  A 0.26 0.26 0.0 0 1 211.90 176.55
  L 211.87 180.30
  A 0.32 0.31 2.2 0 1 211.52 180.61
  Q 206.31 180.19 206.05 184.07
  Q 205.80 187.77 205.89 193.76
  A 0.60 0.60 0.0 0 1 205.28 194.37
  L 201.64 194.34
  A 0.56 0.56 0.0 0 1 201.08 193.78
  L 201.21 177.36
  Z"
/>
<path fill="#f1f1f1" d="
  M 230.2257 186.9324
  A 8.06 8.06 0.0 0 1 221.9029 194.7208
  L 220.3437 194.6691
  A 8.06 8.06 0.0 0 1 212.5554 186.3463
  L 212.6343 183.9676
  A 8.06 8.06 0.0 0 1 220.9571 176.1792
  L 222.5163 176.2309
  A 8.06 8.06 0.0 0 1 230.3046 184.5537
  L 230.2257 186.9324
  Z
  M 221.3907 179.8701
  A 5.59 4.48 -90.3 0 0 216.9401 185.4835
  A 5.59 4.48 -90.3 0 0 221.4493 191.0499
  A 5.59 4.48 -90.3 0 0 225.8999 185.4365
  A 5.59 4.48 -90.3 0 0 221.3907 179.8701
  Z"
/>
<rect fill="#f6cc09" x="38.88" y="176.58" width="4.72" height="17.76" rx="0.35"/>
<path fill="#f6cc09" d="
  M 54.08 181.66
  Q 54.32 181.66 54.41 181.49
  Q 55.74 179.01 57.03 176.87
  A 0.48 0.46 -73.7 0 1 57.43 176.64
  L 62.31 176.64
  A 0.16 0.16 0.0 0 1 62.45 176.88
  L 57.38 184.60
  A 0.62 0.62 0.0 0 0 57.36 185.25
  L 62.59 194.32
  A 0.05 0.05 0.0 0 1 62.55 194.40
  L 57.88 194.40
  A 0.51 0.50 -13.4 0 1 57.43 194.13
  L 54.31 188.63
  A 0.06 0.06 0.0 0 0 54.28 188.60
  Q 54.07 188.53 54.03 188.53
  Q 54.00 188.53 53.78 188.60
  A 0.06 0.06 0.0 0 0 53.75 188.63
  L 50.54 194.08
  A 0.51 0.50 14.3 0 1 50.09 194.34
  L 45.42 194.27
  A 0.05 0.05 0.0 0 1 45.38 194.19
  L 50.75 185.20
  A 0.62 0.62 0.0 0 0 50.74 184.55
  L 45.80 176.75
  A 0.16 0.16 0.0 0 1 45.94 176.51
  L 50.82 176.59
  A 0.48 0.46 74.6 0 1 51.21 176.82
  Q 52.47 178.98 53.76 181.49
  Q 53.85 181.66 54.08 181.66
  Z"
/>
<path fill="#000000" d="
  M 146.22 183.57
  A 0.18 0.18 0.0 0 1 146.04 183.39
  L 146.04 183.27
  A 3.84 3.58 -0.6 0 1 149.84 179.65
  L 150.02 179.65
  A 3.84 3.58 -0.6 0 1 153.90 183.19
  L 153.90 183.31
  A 0.18 0.18 0.0 0 1 153.72 183.49
  L 146.22 183.57
  Z"
/>
<ellipse fill="#000000" cx="0.00" cy="0.00" transform="translate(221.42,185.46) rotate(-90.3)" rx="5.59" ry="4.48"/>
<path fill="#000000" d="
  M 105.20 187.15
  Q 104.76 191.34 100.25 190.96
  Q 99.04 190.86 98.47 189.89
  A 1.87 1.85 -24.6 0 1 99.49 187.19
  Q 101.70 186.43 104.78 186.64
  A 0.46 0.46 0.0 0 1 105.20 187.15
  Z"
/>
</svg>
