<?xml version="1.0" encoding="UTF-8" standalone="no"?>
<!DOCTYPE svg PUBLIC "-//W3C//DTD SVG 1.1//EN" "http://www.w3.org/Graphics/SVG/1.1/DTD/svg11.dtd">
<svg xmlns="http://www.w3.org/2000/svg" version="1.1" viewBox="0.00 0.00 66.00 60.00">
<g stroke-width="2.00" fill="none" stroke-linecap="butt">
<path stroke="#919cc4" vector-effect="non-scaling-stroke" d="
  M 48.9917 19.4838
  A 4.51 4.51 0.0 0 0 44.4738 14.9817
  L 23.4938 15.0183
  A 4.51 4.51 0.0 0 0 18.9917 19.5362
  L 19.0283 40.5162
  A 4.51 4.51 0.0 0 0 23.5462 45.0183
  L 44.5262 44.9817
  A 4.51 4.51 0.0 0 0 49.0283 40.4638
  L 48.9917 19.4838"
/>
<path stroke="#919cc4" vector-effect="non-scaling-stroke" d="
  M 25.0524 19.0576
  A 0.89 0.89 0.0 0 0 24.2234 18.1106
  L 23.1258 18.0377
  A 0.89 0.89 0.0 0 0 22.1788 18.8667
  L 22.0476 20.8424
  A 0.89 0.89 0.0 0 0 22.8766 21.7894
  L 23.9742 21.8623
  A 0.89 0.89 0.0 0 0 24.9212 21.0333
  L 25.0524 19.0576"
/>
<path stroke="#919cc4" vector-effect="non-scaling-stroke" d="
  M 39.9982 18.5705
  A 0.54 0.54 0.0 0 0 39.4591 18.0295
  L 28.5592 18.0105
  A 0.54 0.54 0.0 0 0 28.0182 18.5496
  L 28.0018 27.9495
  A 0.54 0.54 0.0 0 0 28.5409 28.4905
  L 39.4408 28.5095
  A 0.54 0.54 0.0 0 0 39.9818 27.9704
  L 39.9982 18.5705"
/>
<path stroke="#919cc4" vector-effect="non-scaling-stroke" d="
  M 45.8940 18.7774
  A 0.74 0.74 0.0 0 0 45.1374 18.0544
  L 43.7178 18.0866
  A 0.74 0.74 0.0 0 0 42.9947 18.8432
  L 43.0460 21.1026
  A 0.74 0.74 0.0 0 0 43.8026 21.8256
  L 45.2222 21.7934
  A 0.74 0.74 0.0 0 0 45.9453 21.0368
  L 45.8940 18.7774"
/>
<path stroke="#919cc4" vector-effect="non-scaling-stroke" d="
  M 24.9746 25.2951
  A 0.59 0.59 0.0 0 0 24.3866 24.7030
  L 22.6466 24.6970
  A 0.59 0.59 0.0 0 0 22.0546 25.2849
  L 22.0454 27.9049
  A 0.59 0.59 0.0 0 0 22.6334 28.4970
  L 24.3734 28.5030
  A 0.59 0.59 0.0 0 0 24.9654 27.9151
  L 24.9746 25.2951"
/>
<path stroke="#919cc4" vector-effect="non-scaling-stroke" d="
  M 45.9769 25.2381
  A 0.49 0.49 0.0 0 0 45.4929 24.7421
  L 43.5330 24.7182
  A 0.49 0.49 0.0 0 0 43.0371 25.2021
  L 43.0031 27.9819
  A 0.49 0.49 0.0 0 0 43.4871 28.4779
  L 45.4470 28.5018
  A 0.49 0.49 0.0 0 0 45.9429 28.0179
  L 45.9769 25.2381"
/>
<path stroke="#919cc4" vector-effect="non-scaling-stroke" d="
  M 24.9737 32.0457
  A 0.51 0.51 0.0 0 0 24.4727 31.5269
  L 22.5730 31.4937
  A 0.51 0.51 0.0 0 0 22.0541 31.9947
  L 22.0063 34.7343
  A 0.51 0.51 0.0 0 0 22.5073 35.2531
  L 24.4070 35.2863
  A 0.51 0.51 0.0 0 0 24.9259 34.7853
  L 24.9737 32.0457"
/>
<path stroke="#919cc4" vector-effect="non-scaling-stroke" d="
  M 40.00 32.01
  A 0.53 0.53 0.0 0 0 39.47 31.48
  L 28.53 31.48
  A 0.53 0.53 0.0 0 0 28.00 32.01
  L 28.00 41.47
  A 0.53 0.53 0.0 0 0 28.53 42.00
  L 39.47 42.00
  A 0.53 0.53 0.0 0 0 40.00 41.47
  L 40.00 32.01"
/>
<path stroke="#919cc4" vector-effect="non-scaling-stroke" d="
  M 45.9851 31.9552
  A 0.43 0.43 0.0 0 0 45.5566 31.5237
  L 43.4566 31.5163
  A 0.43 0.43 0.0 0 0 43.0251 31.9448
  L 43.0149 34.8448
  A 0.43 0.43 0.0 0 0 43.4434 35.2763
  L 45.5434 35.2837
  A 0.43 0.43 0.0 0 0 45.9749 34.8552
  L 45.9851 31.9552"
/>
<path stroke="#919cc4" vector-effect="non-scaling-stroke" d="
  M 24.41 38.25
  L 22.53 38.31
  A 0.54 0.54 0.0 0 0 22.01 38.87
  L 22.08 41.00
  A 1.07 1.07 0.0 0 0 23.18 42.03
  L 24.00 42.01
  A 1.07 1.07 0.0 0 0 25.03 40.90
  L 24.97 38.77
  A 0.54 0.54 0.0 0 0 24.41 38.25"
/>
<path stroke="#919cc4" vector-effect="non-scaling-stroke" d="
  M 45.57 38.30
  L 43.45 38.24
  A 0.42 0.42 0.0 0 0 43.02 38.65
  L 42.96 40.99
  A 1.06 0.98 1.5 0 0 43.99 42.00
  L 44.83 42.02
  A 1.06 0.98 1.5 0 0 45.92 41.07
  L 45.98 38.73
  A 0.42 0.42 0.0 0 0 45.57 38.30"
/>
</g>
<path fill="#233889" d="
  M 66.00 0.00
  L 66.00 60.00
  L 0.00 60.00
  L 0.00 0.00
  L 66.00 0.00
  Z
  M 48.9917 19.4838
  A 4.51 4.51 0.0 0 0 44.4738 14.9817
  L 23.4938 15.0183
  A 4.51 4.51 0.0 0 0 18.9917 19.5362
  L 19.0283 40.5162
  A 4.51 4.51 0.0 0 0 23.5462 45.0183
  L 44.5262 44.9817
  A 4.51 4.51 0.0 0 0 49.0283 40.4638
  L 48.9917 19.4838
  Z"
/>
<path fill="#ffffff" d="
  M 49.0283 40.4638
  A 4.51 4.51 0.0 0 1 44.5262 44.9817
  L 23.5462 45.0183
  A 4.51 4.51 0.0 0 1 19.0283 40.5162
  L 18.9917 19.5362
  A 4.51 4.51 0.0 0 1 23.4938 15.0183
  L 44.4738 14.9817
  A 4.51 4.51 0.0 0 1 48.9917 19.4838
  L 49.0283 40.4638
  Z
  M 25.0524 19.0576
  A 0.89 0.89 0.0 0 0 24.2234 18.1106
  L 23.1258 18.0377
  A 0.89 0.89 0.0 0 0 22.1788 18.8667
  L 22.0476 20.8424
  A 0.89 0.89 0.0 0 0 22.8766 21.7894
  L 23.9742 21.8623
  A 0.89 0.89 0.0 0 0 24.9212 21.0333
  L 25.0524 19.0576
  Z
  M 39.9982 18.5705
  A 0.54 0.54 0.0 0 0 39.4591 18.0295
  L 28.5592 18.0105
  A 0.54 0.54 0.0 0 0 28.0182 18.5496
  L 28.0018 27.9495
  A 0.54 0.54 0.0 0 0 28.5409 28.4905
  L 39.4408 28.5095
  A 0.54 0.54 0.0 0 0 39.9818 27.9704
  L 39.9982 18.5705
  Z
  M 45.8940 18.7774
  A 0.74 0.74 0.0 0 0 45.1374 18.0544
  L 43.7178 18.0866
  A 0.74 0.74 0.0 0 0 42.9947 18.8432
  L 43.0460 21.1026
  A 0.74 0.74 0.0 0 0 43.8026 21.8256
  L 45.2222 21.7934
  A 0.74 0.74 0.0 0 0 45.9453 21.0368
  L 45.8940 18.7774
  Z
  M 24.9746 25.2951
  A 0.59 0.59 0.0 0 0 24.3866 24.7030
  L 22.6466 24.6970
  A 0.59 0.59 0.0 0 0 22.0546 25.2849
  L 22.0454 27.9049
  A 0.59 0.59 0.0 0 0 22.6334 28.4970
  L 24.3734 28.5030
  A 0.59 0.59 0.0 0 0 24.9654 27.9151
  L 24.9746 25.2951
  Z
  M 45.9769 25.2381
  A 0.49 0.49 0.0 0 0 45.4929 24.7421
  L 43.5330 24.7182
  A 0.49 0.49 0.0 0 0 43.0371 25.2021
  L 43.0031 27.9819
  A 0.49 0.49 0.0 0 0 43.4871 28.4779
  L 45.4470 28.5018
  A 0.49 0.49 0.0 0 0 45.9429 28.0179
  L 45.9769 25.2381
  Z
  M 24.9737 32.0457
  A 0.51 0.51 0.0 0 0 24.4727 31.5269
  L 22.5730 31.4937
  A 0.51 0.51 0.0 0 0 22.0541 31.9947
  L 22.0063 34.7343
  A 0.51 0.51 0.0 0 0 22.5073 35.2531
  L 24.4070 35.2863
  A 0.51 0.51 0.0 0 0 24.9259 34.7853
  L 24.9737 32.0457
  Z
  M 40.00 32.01
  A 0.53 0.53 0.0 0 0 39.47 31.48
  L 28.53 31.48
  A 0.53 0.53 0.0 0 0 28.00 32.01
  L 28.00 41.47
  A 0.53 0.53 0.0 0 0 28.53 42.00
  L 39.47 42.00
  A 0.53 0.53 0.0 0 0 40.00 41.47
  L 40.00 32.01
  Z
  M 45.9851 31.9552
  A 0.43 0.43 0.0 0 0 45.5566 31.5237
  L 43.4566 31.5163
  A 0.43 0.43 0.0 0 0 43.0251 31.9448
  L 43.0149 34.8448
  A 0.43 0.43 0.0 0 0 43.4434 35.2763
  L 45.5434 35.2837
  A 0.43 0.43 0.0 0 0 45.9749 34.8552
  L 45.9851 31.9552
  Z
  M 24.41 38.25
  L 22.53 38.31
  A 0.54 0.54 0.0 0 0 22.01 38.87
  L 22.08 41.00
  A 1.07 1.07 0.0 0 0 23.18 42.03
  L 24.00 42.01
  A 1.07 1.07 0.0 0 0 25.03 40.90
  L 24.97 38.77
  A 0.54 0.54 0.0 0 0 24.41 38.25
  Z
  M 45.57 38.30
  L 43.45 38.24
  A 0.42 0.42 0.0 0 0 43.02 38.65
  L 42.96 40.99
  A 1.06 0.98 1.5 0 0 43.99 42.00
  L 44.83 42.02
  A 1.06 0.98 1.5 0 0 45.92 41.07
  L 45.98 38.73
  A 0.42 0.42 0.0 0 0 45.57 38.30
  Z"
/>
<rect fill="#233889" x="-1.44" y="-1.88" transform="translate(23.55,19.95) rotate(3.8)" width="2.88" height="3.76" rx="0.89"/>
<rect fill="#233889" x="-5.99" y="-5.24" transform="translate(34.00,23.26) rotate(0.1)" width="11.98" height="10.48" rx="0.54"/>
<rect fill="#233889" x="-1.45" y="-1.87" transform="translate(44.47,19.94) rotate(-1.3)" width="2.90" height="3.74" rx="0.74"/>
<rect fill="#233889" x="-1.46" y="-1.90" transform="translate(23.51,26.60) rotate(0.2)" width="2.92" height="3.80" rx="0.59"/>
<rect fill="#233889" x="-1.47" y="-1.88" transform="translate(44.49,26.61) rotate(0.7)" width="2.94" height="3.76" rx="0.49"/>
<rect fill="#233889" x="-1.46" y="-1.88" transform="translate(23.49,33.39) rotate(1.0)" width="2.92" height="3.76" rx="0.51"/>
<rect fill="#233889" x="28.00" y="31.48" width="12.00" height="10.52" rx="0.53"/>
<rect fill="#233889" x="-1.48" y="-1.88" transform="translate(44.50,33.40) rotate(0.2)" width="2.96" height="3.76" rx="0.43"/>
<path fill="#233889" d="
  M 24.41 38.25
  A 0.54 0.54 0.0 0 1 24.97 38.77
  L 25.03 40.90
  A 1.07 1.07 0.0 0 1 24.00 42.01
  L 23.18 42.03
  A 1.07 1.07 0.0 0 1 22.08 41.00
  L 22.01 38.87
  A 0.54 0.54 0.0 0 1 22.53 38.31
  L 24.41 38.25
  Z"
/>
<path fill="#233889" d="
  M 45.57 38.30
  A 0.42 0.42 0.0 0 1 45.98 38.73
  L 45.92 41.07
  A 1.06 0.98 1.5 0 1 44.83 42.02
  L 43.99 42.00
  A 1.06 0.98 1.5 0 1 42.96 40.99
  L 43.02 38.65
  A 0.42 0.42 0.0 0 1 43.45 38.24
  L 45.57 38.30
  Z"
/>
</svg>
