<?xml version="1.0" encoding="UTF-8" standalone="no"?>
<!DOCTYPE svg PUBLIC "-//W3C//DTD SVG 1.1//EN" "http://www.w3.org/Graphics/SVG/1.1/DTD/svg11.dtd">
<svg xmlns="http://www.w3.org/2000/svg" version="1.1" viewBox="0.00 0.00 180.00 180.00">
<g stroke-width="2.00" fill="none" stroke-linecap="butt">
<path stroke="#8099cc" vector-effect="non-scaling-stroke" d="
  M 49.00 147.65
  A 0.97 0.97 0.0 0 0 50.29 148.32
  Q 66.85 142.07 84.49 134.26
  C 90.55 131.57 96.58 129.06 101.78 125.54
  C 112.83 118.07 118.93 108.07 123.26 95.50
  C 126.63 85.71 140.48 82.90 147.68 79.41
  C 150.96 77.82 160.64 71.84 158.64 67.29
  C 157.17 63.94 152.83 61.95 150.01 61.22
  C 140.36 58.69 132.97 56.63 126.58 51.40
  Q 125.90 50.85 116.04 42.47
  Q 109.40 36.82 99.95 34.51
  C 83.76 30.55 65.40 29.45 50.21 37.75
  C 33.63 46.80 21.86 63.43 21.18 82.42
  C 20.69 96.28 27.34 111.32 37.71 120.05
  Q 47.09 127.94 47.78 128.34
  A 1.31 1.25 -84.5 0 1 48.37 129.09
  Q 48.96 131.14 48.91 132.94
  Q 48.57 144.98 48.60 145.67
  A 4.01 3.77 -54.5 0 0 48.72 146.55
  L 49.00 147.65"
/>
<path stroke="#8099cc" vector-effect="non-scaling-stroke" d="
  M 116.33 54.97
  C 112.22 47.21 102.39 44.75 94.01 45.39
  Q 82.37 46.29 71.99 49.50
  A 0.81 0.81 0.0 0 0 71.44 50.46
  Q 71.95 52.56 73.77 55.12
  C 82.14 66.88 94.26 69.74 107.94 70.61
  Q 129.34 71.98 145.34 68.30
  Q 148.08 67.67 149.21 67.10
  A 0.43 0.43 0.0 0 0 149.07 66.29
  Q 147.12 66.04 146.50 66.01
  Q 139.23 65.70 124.19 64.95
  Q 120.08 64.75 116.83 64.30
  C 109.77 63.31 98.68 62.23 93.94 56.61
  A 0.78 0.78 0.0 0 1 94.01 55.54
  C 97.99 51.80 107.20 52.70 112.08 54.22
  Q 113.20 54.57 115.90 55.47
  A 0.36 0.35 -4.5 0 0 116.33 54.97"
/>
</g>
<path fill="#ffffff" d="
  M 180.00 0.00
  L 180.00 180.00
  L 0.00 180.00
  L 0.00 0.00
  L 180.00 0.00
  Z
  M 49.00 147.65
  A 0.97 0.97 0.0 0 0 50.29 148.32
  Q 66.85 142.07 84.49 134.26
  C 90.55 131.57 96.58 129.06 101.78 125.54
  C 112.83 118.07 118.93 108.07 123.26 95.50
  C 126.63 85.71 140.48 82.90 147.68 79.41
  C 150.96 77.82 160.64 71.84 158.64 67.29
  C 157.17 63.94 152.83 61.95 150.01 61.22
  C 140.36 58.69 132.97 56.63 126.58 51.40
  Q 125.90 50.85 116.04 42.47
  Q 109.40 36.82 99.95 34.51
  C 83.76 30.55 65.40 29.45 50.21 37.75
  C 33.63 46.80 21.86 63.43 21.18 82.42
  C 20.69 96.28 27.34 111.32 37.71 120.05
  Q 47.09 127.94 47.78 128.34
  A 1.31 1.25 -84.5 0 1 48.37 129.09
  Q 48.96 131.14 48.91 132.94
  Q 48.57 144.98 48.60 145.67
  A 4.01 3.77 -54.5 0 0 48.72 146.55
  L 49.00 147.65
  Z"
/>
<path fill="#003399" d="
  M 49.00 147.65
  L 48.72 146.55
  A 4.01 3.77 -54.5 0 1 48.60 145.67
  Q 48.57 144.98 48.91 132.94
  Q 48.96 131.14 48.37 129.09
  A 1.31 1.25 -84.5 0 0 47.78 128.34
  Q 47.09 127.94 37.71 120.05
  C 27.34 111.32 20.69 96.28 21.18 82.42
  C 21.86 63.43 33.63 46.80 50.21 37.75
  C 65.40 29.45 83.76 30.55 99.95 34.51
  Q 109.40 36.82 116.04 42.47
  Q 125.90 50.85 126.58 51.40
  C 132.97 56.63 140.36 58.69 150.01 61.22
  C 152.83 61.95 157.17 63.94 158.64 67.29
  C 160.64 71.84 150.96 77.82 147.68 79.41
  C 140.48 82.90 126.63 85.71 123.26 95.50
  C 118.93 108.07 112.83 118.07 101.78 125.54
  C 96.58 129.06 90.55 131.57 84.49 134.26
  Q 66.85 142.07 50.29 148.32
  A 0.97 0.97 0.0 0 1 49.00 147.65
  Z
  M 116.33 54.97
  C 112.22 47.21 102.39 44.75 94.01 45.39
  Q 82.37 46.29 71.99 49.50
  A 0.81 0.81 0.0 0 0 71.44 50.46
  Q 71.95 52.56 73.77 55.12
  C 82.14 66.88 94.26 69.74 107.94 70.61
  Q 129.34 71.98 145.34 68.30
  Q 148.08 67.67 149.21 67.10
  A 0.43 0.43 0.0 0 0 149.07 66.29
  Q 147.12 66.04 146.50 66.01
  Q 139.23 65.70 124.19 64.95
  Q 120.08 64.75 116.83 64.30
  C 109.77 63.31 98.68 62.23 93.94 56.61
  A 0.78 0.78 0.0 0 1 94.01 55.54
  C 97.99 51.80 107.20 52.70 112.08 54.22
  Q 113.20 54.57 115.90 55.47
  A 0.36 0.35 -4.5 0 0 116.33 54.97
  Z"
/>
<path fill="#ffffff" d="
  M 115.90 55.47
  Q 113.20 54.57 112.08 54.22
  C 107.20 52.70 97.99 51.80 94.01 55.54
  A 0.78 0.78 0.0 0 0 93.94 56.61
  C 98.68 62.23 109.77 63.31 116.83 64.30
  Q 120.08 64.75 124.19 64.95
  Q 139.23 65.70 146.50 66.01
  Q 147.12 66.04 149.07 66.29
  A 0.43 0.43 0.0 0 1 149.21 67.10
  Q 148.08 67.67 145.34 68.30
  Q 129.34 71.98 107.94 70.61
  C 94.26 69.74 82.14 66.88 73.77 55.12
  Q 71.95 52.56 71.44 50.46
  A 0.81 0.81 0.0 0 1 71.99 49.50
  Q 82.37 46.29 94.01 45.39
  C 102.39 44.75 112.22 47.21 116.33 54.97
  A 0.36 0.35 -4.5 0 1 115.90 55.47
  Z"
/>
</svg>
