<?xml version="1.0" encoding="UTF-8" standalone="no"?>
<!DOCTYPE svg PUBLIC "-//W3C//DTD SVG 1.1//EN" "http://www.w3.org/Graphics/SVG/1.1/DTD/svg11.dtd">
<svg xmlns="http://www.w3.org/2000/svg" version="1.1" viewBox="0.00 0.00 512.00 512.00">
<g stroke-width="2.00" fill="none" stroke-linecap="butt">
<path stroke="#d3552b" stroke-opacity="0.745" vector-effect="non-scaling-stroke" d="
  M 196.32 35.62
  Q 194.60 36.43 192.26 35.69"
/>
<path stroke="#e26036" stroke-opacity="0.867" vector-effect="non-scaling-stroke" d="
  M 315.75 35.45
  L 196.32 35.62"
/>
<path stroke="#d65226" stroke-opacity="0.612" vector-effect="non-scaling-stroke" d="
  M 320.07 40.19
  L 320.18 64.22"
/>
<path stroke="#e05b2e" stroke-opacity="0.843" vector-effect="non-scaling-stroke" d="
  M 320.18 64.22
  Q 319.84 66.19 320.22 67.36
  Q 320.40 67.92 320.98 67.92
  L 407.30 67.95"
/>
<path stroke="#e26036" stroke-opacity="0.867" vector-effect="non-scaling-stroke" d="
  M 407.30 67.95
  Q 407.83 67.86 408.16 68.54
  C 408.47 69.19 408.26 71.08 408.49 72.05"
/>
<path stroke="#f7693e" stroke-opacity="0.969" vector-effect="non-scaling-stroke" d="
  M 408.49 72.05
  L 408.52 471.82"
/>
<path stroke="#ed683f" stroke-opacity="0.925" vector-effect="non-scaling-stroke" d="
  M 408.52 471.82
  Q 407.85 473.70 408.54 475.93"
/>
<path stroke="#d65226" stroke-opacity="0.612" vector-effect="non-scaling-stroke" d="
  M 408.54 475.93
  Q 408.03 476.04 407.72 476.24"
/>
<path stroke="#ed683f" stroke-opacity="0.925" vector-effect="non-scaling-stroke" d="
  M 407.72 476.24
  C 314.31 475.68 220.88 476.06 127.47 476.07
  C 120.68 476.07 112.88 476.56 105.55 476.57
  A 0.87 0.84 -62.4 0 0 105.04 476.74
  Q 104.73 476.96 104.29 476.97"
/>
<path stroke="#d3552b" stroke-opacity="0.745" vector-effect="non-scaling-stroke" d="
  M 104.29 476.97
  Q 102.93 475.64 100.30 476.21"
/>
<path stroke="#d65226" stroke-opacity="0.612" vector-effect="non-scaling-stroke" d="
  M 99.95 475.73
  Q 100.22 474.25 99.78 472.79"
/>
<path stroke="#d3552b" stroke-opacity="0.745" vector-effect="non-scaling-stroke" d="
  M 99.78 472.79
  L 99.80 72.21"
/>
<path stroke="#d65226" stroke-opacity="0.612" vector-effect="non-scaling-stroke" d="
  M 100.16 67.83
  L 104.28 67.96"
/>
<path stroke="#e05b2e" stroke-opacity="0.843" vector-effect="non-scaling-stroke" d="
  M 104.28 67.96
  Q 145.70 68.02 187.19 68.00
  Q 187.54 68.00 187.79 67.87
  Q 188.18 67.68 188.27 67.46"
/>
<path stroke="#f7693e" stroke-opacity="0.969" vector-effect="non-scaling-stroke" d="
  M 188.27 67.46
  L 190.95 67.80
  Q 191.47 67.86 191.60 67.36
  Q 192.01 65.89 191.15 64.32"
/>
<path stroke="#e26036" stroke-opacity="0.867" vector-effect="non-scaling-stroke" d="
  M 191.15 64.32
  Q 191.85 64.25 191.88 63.63
  Q 192.30 53.39 191.70 40.57"
/>
<path stroke="#d3552b" stroke-opacity="0.745" vector-effect="non-scaling-stroke" d="
  M 191.70 40.57
  Q 192.25 38.25 191.76 36.23"
/>
<path stroke="#d65226" stroke-opacity="0.612" vector-effect="non-scaling-stroke" d="
  M 319.97 35.94
  Q 318.61 35.98 317.26 36.08
  Q 315.89 36.19 315.75 35.45"
/>
<path stroke="#f7693e" stroke-opacity="0.969" vector-effect="non-scaling-stroke" d="
  M 207.98 48.04
  L 205.17 48.39
  Q 204.60 48.46 204.58 49.03
  L 204.48 52.26"
/>
<path stroke="#e26036" stroke-opacity="0.867" vector-effect="non-scaling-stroke" d="
  M 204.48 52.26
  L 204.03 99.31
  A 0.66 0.65 7.1 0 0 204.54 99.96
  Q 205.72 100.24 207.03 99.98"
/>
<path stroke="#ed683f" stroke-opacity="0.925" vector-effect="non-scaling-stroke" d="
  M 207.03 99.98
  Q 207.15 100.15 207.47 100.23
  Q 207.90 100.34 207.89 100.78
  L 207.85 102.74
  Q 207.82 103.92 208.99 103.92
  L 303.06 103.90
  A 0.80 0.80 0.0 0 0 303.80 103.40
  Q 304.32 102.08 303.36 100.93
  Q 303.28 100.83 303.16 100.89
  Q 303.03 100.97 302.94 101.06
  Q 302.88 101.12 302.87 101.03
  Q 302.81 100.54 302.97 100.13"
/>
<path stroke="#d65226" stroke-opacity="0.612" vector-effect="non-scaling-stroke" d="
  M 302.97 100.13
  Q 303.91 100.24 303.92 99.25
  Q 304.09 75.54 303.87 51.73"
/>
<path stroke="#e05b2e" stroke-opacity="0.843" vector-effect="non-scaling-stroke" d="
  M 303.87 51.73
  Q 304.30 49.93 303.81 48.55
  Q 303.63 48.03 303.08 48.03
  L 207.98 48.04"
/>
<path stroke="#f7693e" stroke-opacity="0.969" vector-effect="non-scaling-stroke" d="
  M 115.95 81.14
  Q 113.07 80.25 112.63 82.73
  Q 112.06 85.96 112.06 89.25
  Q 112.02 274.49 112.05 459.73
  C 112.05 460.71 112.36 461.79 112.39 462.85
  Q 112.41 463.40 112.94 463.52
  Q 114.42 463.88 115.95 463.02"
/>
<path stroke="#d65528" stroke-opacity="0.800" vector-effect="non-scaling-stroke" d="
  M 115.95 463.02
  Q 115.91 463.25 115.96 463.47
  Q 116.08 463.99 116.62 463.99
  L 392.71 463.98"
/>
<path stroke="#e26036" stroke-opacity="0.867" vector-effect="non-scaling-stroke" d="
  M 392.71 463.98
  L 395.15 463.91
  Q 395.75 463.89 395.88 463.31
  Q 396.21 461.78 395.47 460.31"
/>
<path stroke="#d15226" stroke-opacity="0.722" vector-effect="non-scaling-stroke" d="
  M 395.47 460.31
  Q 396.02 459.95 396.02 459.25
  Q 395.62 271.60 395.93 83.97"
/>
<path stroke="#e26036" stroke-opacity="0.867" vector-effect="non-scaling-stroke" d="
  M 395.93 83.97
  Q 395.53 82.60 395.63 80.90
  Q 395.68 80.15 394.92 80.15
  L 321.16 80.13
  A 0.92 0.91 10.9 0 0 320.31 80.70
  Q 319.64 82.40 321.04 83.92"
/>
<path stroke="#d65226" stroke-opacity="0.612" vector-effect="non-scaling-stroke" d="
  M 321.04 83.92
  Q 320.56 83.90 320.31 84.02
  Q 320.08 84.14 320.08 84.58
  Q 319.95 98.43 320.03 112.30"
/>
<path stroke="#d3552b" stroke-opacity="0.745" vector-effect="non-scaling-stroke" d="
  M 316.11 116.14
  L 311.70 116.02"
/>
<path stroke="#d65528" stroke-opacity="0.800" vector-effect="non-scaling-stroke" d="
  M 311.70 116.02
  L 196.40 116.05"
/>
<path stroke="#d65226" stroke-opacity="0.612" vector-effect="non-scaling-stroke" d="
  M 196.40 116.05
  L 192.29 116.16"
/>
<path stroke="#d15226" stroke-opacity="0.722" vector-effect="non-scaling-stroke" d="
  M 191.97 115.95
  L 191.87 111.73"
/>
<path stroke="#e26036" stroke-opacity="0.867" vector-effect="non-scaling-stroke" d="
  M 191.87 111.73
  L 191.95 84.89
  Q 191.96 84.09 191.17 83.95
  Q 189.84 83.71 188.06 84.22"
/>
<path stroke="#e26036" stroke-opacity="0.867" vector-effect="non-scaling-stroke" d="
  M 187.51 84.00
  L 188.20 81.24
  Q 188.49 80.11 187.32 80.11
  Q 152.07 80.16 116.75 80.20
  Q 115.87 80.20 115.95 81.14"
/>
<path stroke="#e05b2e" stroke-opacity="0.843" vector-effect="non-scaling-stroke" d="
  M 228.03 67.48
  Q 226.56 68.36 224.24 67.61"
/>
<path stroke="#f7693e" stroke-opacity="0.969" vector-effect="non-scaling-stroke" d="
  M 263.72 67.51
  L 228.03 67.48"
/>
<path stroke="#d65226" stroke-opacity="0.612" vector-effect="non-scaling-stroke" d="
  M 268.01 72.21
  L 268.02 75.92"
/>
<path stroke="#e05b2e" stroke-opacity="0.843" vector-effect="non-scaling-stroke" d="
  M 267.93 76.44
  L 265.92 76.11
  A 1.45 1.44 5.4 0 0 264.24 77.50
  L 264.19 79.90"
/>
<path stroke="#d15226" stroke-opacity="0.722" vector-effect="non-scaling-stroke" d="
  M 263.55 80.29
  L 255.55 80.04"
/>
<path stroke="#d3552b" stroke-opacity="0.745" vector-effect="non-scaling-stroke" d="
  M 255.55 80.04
  L 227.97 80.05"
/>
<path stroke="#d65226" stroke-opacity="0.612" vector-effect="non-scaling-stroke" d="
  M 227.97 80.05
  L 224.27 80.03"
/>
<path stroke="#d15226" stroke-opacity="0.722" vector-effect="non-scaling-stroke" d="
  M 223.80 79.56
  Q 224.38 77.58 223.63 75.78"
/>
<path stroke="#e05b2e" stroke-opacity="0.843" vector-effect="non-scaling-stroke" d="
  M 223.63 75.78
  L 223.84 68.20"
/>
<path stroke="#ee5c29" stroke-opacity="0.533" vector-effect="non-scaling-stroke" d="
  M 224.24 67.61
  L 223.84 68.20"
/>
<path stroke="#d65226" stroke-opacity="0.612" vector-effect="non-scaling-stroke" d="
  M 267.82 67.79
  Q 264.81 68.64 263.72 67.51"
/>
<path stroke="#e05b2e" stroke-opacity="0.843" vector-effect="non-scaling-stroke" d="
  M 291.38 147.76
  Q 291.35 147.81 291.31 147.86
  Q 291.24 147.97 291.11 147.97
  L 148.36 147.75"
/>
<path stroke="#e26036" stroke-opacity="0.867" vector-effect="non-scaling-stroke" d="
  M 292.25 148.08
  L 292.09 150.78
  A 1.23 1.22 -3.4 0 0 293.53 152.05
  L 295.84 151.65"
/>
<path stroke="#e26036" stroke-opacity="0.867" vector-effect="non-scaling-stroke" d="
  M 295.91 156.25
  Q 294.87 156.38 293.65 155.95
  Q 293.22 155.80 292.83 156.05
  Q 291.54 156.89 292.23 158.53
  Q 292.64 159.52 292.46 159.92"
/>
<path stroke="#ee5c29" stroke-opacity="0.533" vector-effect="non-scaling-stroke" d="
  M 292.46 159.92
  Q 291.90 159.93 291.72 160.15"
/>
<path stroke="#e26036" stroke-opacity="0.867" vector-effect="non-scaling-stroke" d="
  M 291.72 160.15
  L 148.25 160.17"
/>
<path stroke="#ee5c29" stroke-opacity="0.533" vector-effect="non-scaling-stroke" d="
  M 148.25 160.17
  Q 148.13 160.17 147.73 159.96"
/>
<path stroke="#e26036" stroke-opacity="0.867" vector-effect="non-scaling-stroke" d="
  M 147.73 159.96
  L 147.92 157.40
  Q 148.03 155.90 146.53 156.05
  L 144.10 156.29"
/>
<path stroke="#e26036" stroke-opacity="0.867" vector-effect="non-scaling-stroke" d="
  M 144.21 151.16
  Q 145.73 152.28 147.10 151.98
  A 1.07 1.06 -8.8 0 0 147.94 150.84
  L 147.68 148.16"
/>
<path stroke="#d65226" stroke-opacity="0.612" vector-effect="non-scaling-stroke" d="
  M 328.24 147.85
  Q 326.46 148.28 324.31 147.72"
/>
<path stroke="#d65226" stroke-opacity="0.612" vector-effect="non-scaling-stroke" d="
  M 367.98 152.27
  L 367.98 156.37"
/>
<path stroke="#d65226" stroke-opacity="0.612" vector-effect="non-scaling-stroke" d="
  M 367.64 160.11
  Q 365.45 159.71 363.75 160.24"
/>
<path stroke="#e26036" stroke-opacity="0.867" vector-effect="non-scaling-stroke" d="
  M 363.75 160.24
  Q 343.12 159.94 329.25 160.24
  Q 328.59 160.25 328.26 161.01"
/>
<path stroke="#d65226" stroke-opacity="0.612" vector-effect="non-scaling-stroke" d="
  M 328.26 161.01
  Q 328.40 160.09 327.00 160.02
  Q 325.78 159.95 324.74 160.29"
/>
<path stroke="#d65226" stroke-opacity="0.612" vector-effect="non-scaling-stroke" d="
  M 323.91 159.63
  L 323.86 152.22"
/>
<path stroke="#e05b2e" stroke-opacity="0.843" vector-effect="non-scaling-stroke" d="
  M 363.76 147.91
  L 328.24 147.85"
/>
<path stroke="#d65226" stroke-opacity="0.612" vector-effect="non-scaling-stroke" d="
  M 367.63 147.91
  Q 365.48 148.32 363.76 147.91"
/>
<path stroke="#d65226" stroke-opacity="0.612" vector-effect="non-scaling-stroke" d="
  M 152.20 191.99
  L 148.24 191.84"
/>
<path stroke="#d3552b" stroke-opacity="0.745" vector-effect="non-scaling-stroke" d="
  M 364.05 191.99
  L 152.20 191.99"
/>
<path stroke="#e26036" stroke-opacity="0.867" vector-effect="non-scaling-stroke" d="
  M 364.05 191.99
  L 364.55 195.21
  Q 364.64 195.74 365.16 195.65
  L 367.89 195.19"
/>
<path stroke="#d65226" stroke-opacity="0.612" vector-effect="non-scaling-stroke" d="
  M 368.04 195.94
  L 367.99 203.73"
/>
<path stroke="#d15226" stroke-opacity="0.722" vector-effect="non-scaling-stroke" d="
  M 367.79 204.10
  Q 365.44 203.61 363.95 204.62"
/>
<path stroke="#f7693e" stroke-opacity="0.969" vector-effect="non-scaling-stroke" d="
  M 363.95 204.62
  L 148.23 204.49"
/>
<path stroke="#d65226" stroke-opacity="0.612" vector-effect="non-scaling-stroke" d="
  M 148.23 204.49
  Q 147.13 203.51 144.17 204.08"
/>
<path stroke="#d65528" stroke-opacity="0.800" vector-effect="non-scaling-stroke" d="
  M 144.16 195.32
  Q 145.58 196.41 147.36 195.95
  Q 147.85 195.82 147.94 195.33
  Q 148.21 193.80 147.62 192.22"
/>
<path stroke="#d65226" stroke-opacity="0.612" vector-effect="non-scaling-stroke" d="
  M 363.56 235.99
  L 148.21 235.99"
/>
<path stroke="#e05b2e" stroke-opacity="0.843" vector-effect="non-scaling-stroke" d="
  M 363.56 235.99
  L 364.45 238.98
  Q 364.59 239.46 365.09 239.49
  L 367.94 239.71"
/>
<path stroke="#d65226" stroke-opacity="0.612" vector-effect="non-scaling-stroke" d="
  M 368.02 239.98
  L 367.94 247.52"
/>
<path stroke="#e05b2e" stroke-opacity="0.843" vector-effect="non-scaling-stroke" d="
  M 367.94 247.52
  Q 366.78 248.48 365.00 248.55
  Q 364.51 248.57 364.46 249.06
  L 364.18 251.69"
/>
<path stroke="#d65226" stroke-opacity="0.612" vector-effect="non-scaling-stroke" d="
  M 363.74 252.01
  L 148.26 252.01"
/>
<path stroke="#d15226" stroke-opacity="0.722" vector-effect="non-scaling-stroke" d="
  M 148.26 252.01
  L 148.00 249.11
  A 1.30 1.29 86.7 0 0 146.68 247.93
  Q 144.49 248.00 144.08 247.28"
/>
<path stroke="#ee5c29" stroke-opacity="0.533" vector-effect="non-scaling-stroke" d="
  M 144.08 247.28
  L 144.22 239.96"
/>
<path stroke="#d15226" stroke-opacity="0.722" vector-effect="non-scaling-stroke" d="
  M 147.95 236.22
  L 147.79 239.31
  A 0.86 0.85 -86.7 0 1 146.88 240.13
  L 144.22 239.96"
/>
<path stroke="#d65528" stroke-opacity="0.800" vector-effect="non-scaling-stroke" d="
  M 152.06 279.96
  Q 149.99 280.15 148.27 279.73"
/>
<path stroke="#e26036" stroke-opacity="0.867" vector-effect="non-scaling-stroke" d="
  M 359.44 279.96
  L 152.06 279.96"
/>
<path stroke="#d65226" stroke-opacity="0.612" vector-effect="non-scaling-stroke" d="
  M 368.00 284.49
  L 367.98 288.31"
/>
<path stroke="#d65226" stroke-opacity="0.612" vector-effect="non-scaling-stroke" d="
  M 367.65 292.09
  L 363.73 292.09"
/>
<path stroke="#e26036" stroke-opacity="0.867" vector-effect="non-scaling-stroke" d="
  M 363.73 292.09
  L 148.24 292.09"
/>
<path stroke="#ee5c29" stroke-opacity="0.533" vector-effect="non-scaling-stroke" d="
  M 148.24 292.09
  Q 148.28 292.25 147.52 291.90"
/>
<path stroke="#e26036" stroke-opacity="0.867" vector-effect="non-scaling-stroke" d="
  M 147.52 291.90
  Q 147.98 290.46 147.94 288.89
  A 0.88 0.86 -86.5 0 0 147.21 288.05
  Q 145.75 287.82 144.20 288.78"
/>
<path stroke="#ee5c29" stroke-opacity="0.533" vector-effect="non-scaling-stroke" d="
  M 143.96 287.78
  L 143.98 284.19"
/>
<path stroke="#e26036" stroke-opacity="0.867" vector-effect="non-scaling-stroke" d="
  M 144.20 283.40
  Q 145.73 284.26 146.81 284.05
  A 1.62 1.61 -18.8 0 0 147.95 281.75
  Q 147.50 280.83 147.75 280.14"
/>
<path stroke="#e05b2e" stroke-opacity="0.843" vector-effect="non-scaling-stroke" d="
  M 363.58 279.83
  L 359.44 279.96"
/>
<path stroke="#d65226" stroke-opacity="0.612" vector-effect="non-scaling-stroke" d="
  M 367.67 279.91
  Q 365.32 280.29 363.58 279.83"
/>
<path stroke="#242f84" stroke-opacity="0.722" vector-effect="non-scaling-stroke" d="
  M 304.23 331.51
  L 304.09 328.38
  Q 304.06 327.77 303.46 327.87
  Q 301.18 328.23 299.04 327.31
  A 1.08 1.06 47.5 0 0 298.29 327.27
  Q 295.40 328.20 292.58 327.66"
/>
<path stroke="#242f84" stroke-opacity="0.722" vector-effect="non-scaling-stroke" d="
  M 291.01 331.51
  L 292.14 327.96"
/>
<path stroke="#1f3da8" stroke-opacity="0.929" vector-effect="non-scaling-stroke" d="
  M 304.23 331.51
  L 304.36 435.83"
/>
<path stroke="#0a2994" stroke-opacity="0.612" vector-effect="non-scaling-stroke" d="
  M 304.36 435.83
  Q 303.68 437.13 303.91 439.44
  Q 303.96 440.05 303.35 440.04
  L 296.04 439.95"
/>
<path stroke="#1f3da8" stroke-opacity="0.929" vector-effect="non-scaling-stroke" d="
  M 291.87 436.19
  L 291.33 432.90
  Q 291.28 432.62 290.99 432.25
  Q 290.87 432.10 290.71 432.07
  Q 290.17 432.00 289.97 431.50
  Q 289.07 429.26 289.13 426.13
  Q 289.14 425.73 288.83 425.53
  Q 288.39 425.25 288.52 425.76
  L 288.62 426.18
  Q 288.75 426.68 288.29 426.43
  Q 286.59 425.50 285.99 427.03"
/>
<path stroke="#1f3da8" stroke-opacity="0.929" vector-effect="non-scaling-stroke" d="
  M 285.99 427.03
  C 284.12 426.71 284.04 428.38 282.20 428.61
  Q 281.71 428.68 281.39 429.06
  L 279.11 431.77"
/>
<path stroke="#242f84" stroke-opacity="0.722" vector-effect="non-scaling-stroke" d="
  M 279.11 431.77
  Q 279.04 431.90 278.97 432.03
  Q 278.83 432.26 279.09 432.33
  Q 279.25 432.37 279.48 432.30"
/>
<path stroke="#0a2994" stroke-opacity="0.612" vector-effect="non-scaling-stroke" d="
  M 255.93 439.89
  L 239.74 439.81"
/>
<path stroke="#1f3da8" stroke-opacity="0.929" vector-effect="non-scaling-stroke" d="
  M 231.49 438.95
  Q 229.40 436.71 226.50 436.00
  Q 223.23 435.19 220.75 433.85
  Q 220.50 433.71 220.31 433.45
  Q 220.12 433.19 219.92 432.94
  Q 219.63 432.59 219.19 432.47
  Q 217.55 432.04 216.23 430.92
  Q 215.87 430.62 215.40 430.65
  Q 214.62 430.69 214.13 430.01
  C 212.80 428.20 210.53 427.20 209.06 425.69
  Q 207.92 424.51 206.70 423.37
  Q 206.34 423.02 205.84 423.12
  Q 204.69 423.35 204.20 422.43
  Q 204.07 422.19 203.83 422.05
  Q 203.20 421.67 203.11 420.96
  Q 203.06 420.52 202.63 420.43
  L 200.89 420.08"
/>
<path stroke="#242f84" stroke-opacity="0.722" vector-effect="non-scaling-stroke" d="
  M 229.28 327.74
  Q 231.24 327.93 232.26 327.16"
/>
<path stroke="#1f3da8" stroke-opacity="0.929" vector-effect="non-scaling-stroke" d="
  M 291.01 331.51
  Q 290.06 333.70 290.53 336.13
  C 290.93 338.19 290.56 339.87 290.97 341.82
  A 1.33 1.32 -9.3 0 1 289.82 343.41
  Q 287.76 343.65 286.41 342.39
  Q 286.12 342.13 285.95 341.79
  Q 285.36 340.67 284.17 340.16
  Q 283.72 339.96 283.44 339.56
  Q 282.27 337.85 280.31 336.97
  Q 279.80 336.74 279.88 336.17
  Q 279.95 335.64 279.56 335.26
  A 0.51 0.48 -22.2 0 0 279.22 335.13
  L 276.50 335.13
  Q 276.15 335.13 276.09 334.78
  Q 275.92 333.71 274.92 333.32
  Q 274.51 333.16 274.31 332.77
  Q 273.84 331.86 272.82 332.13
  Q 272.47 332.23 272.22 331.98
  L 271.99 331.74
  Q 271.75 331.50 271.42 331.52
  L 268.79 331.67
  Q 268.12 331.70 268.12 331.03
  L 268.12 330.51
  A 0.50 0.50 0.0 0 0 267.44 330.05
  Q 266.47 330.42 266.14 329.81
  Q 265.93 329.43 265.50 329.34
  Q 263.97 329.01 261.03 327.61
  Q 258.55 326.43 253.27 326.14
  Q 252.76 326.11 252.33 325.85
  Q 250.96 325.00 249.75 325.13
  Q 245.49 325.59 242.99 325.33
  C 241.98 325.23 240.42 326.28 238.95 326.29
  Q 236.50 326.30 234.03 326.77"
/>
<path stroke="#1f3da8" stroke-opacity="0.929" vector-effect="non-scaling-stroke" d="
  M 288.75 340.75
  Q 288.54 341.05 288.15 341.20
  A 0.74 0.73 45.5 0 0 288.14 342.57
  Q 290.46 343.52 290.55 341.75
  Q 290.61 340.64 290.61 339.51
  Q 290.62 338.89 290.00 338.88
  Q 289.87 338.88 289.74 338.87
  Q 289.52 338.85 289.02 339.52
  Q 288.74 339.89 289.13 340.13
  A 0.73 0.03 -56.3 0 1 288.75 340.75"
/>
<path stroke="#1f3da8" stroke-opacity="0.929" vector-effect="non-scaling-stroke" d="
  M 262.74 419.24
  Q 263.82 418.93 264.25 419.27
  A 0.48 0.48 0.0 0 1 264.25 420.03
  L 262.79 421.16
  Q 262.56 421.35 262.25 421.33
  Q 261.85 421.31 261.64 421.65
  Q 263.13 421.11 264.72 420.76
  Q 265.15 420.66 265.36 420.28
  Q 265.72 419.63 266.61 419.94
  A 0.90 0.88 -58.3 0 0 267.55 419.71
  Q 268.03 419.20 268.78 419.38
  Q 269.25 419.48 269.59 419.15
  L 271.71 417.14
  Q 272.05 416.81 272.15 416.35
  Q 272.29 415.67 273.02 415.54
  A 0.09 0.09 0.0 0 0 273.01 415.37
  Q 272.87 415.36 272.74 415.36
  Q 272.51 415.35 272.64 415.17
  Q 274.96 411.94 278.81 410.96
  Q 279.21 410.86 279.14 410.45
  Q 279.00 409.63 279.44 408.89
  A 1.26 1.26 0.0 0 1 280.15 408.34
  Q 280.80 408.14 281.00 407.53
  A 0.58 0.57 2.6 0 1 281.43 407.14
  Q 281.95 407.04 282.08 407.40
  Q 282.18 407.67 282.46 407.66
  Q 282.76 407.65 283.00 407.54
  Q 283.22 407.43 283.31 407.19
  Q 283.62 406.29 283.03 405.66
  Q 282.69 405.30 283.05 404.96
  Q 283.46 404.58 283.32 404.26"
/>
<path stroke="#1f3da8" stroke-opacity="0.929" vector-effect="non-scaling-stroke" d="
  M 287.48 396.20
  Q 287.54 396.27 287.56 396.40
  Q 287.63 396.75 287.63 396.50
  L 287.63 396.00
  A 0.30 0.30 0.0 0 1 287.67 395.85
  Q 288.21 394.96 289.11 394.42
  A 1.08 1.03 87.2 0 0 289.57 393.89
  L 290.62 391.27
  Q 290.77 390.89 290.81 390.48
  C 291.26 386.10 291.92 382.43 291.30 377.20
  Q 291.30 377.14 291.27 377.20
  Q 291.26 377.23 291.24 377.27
  Q 291.12 377.48 291.12 377.25
  L 291.12 376.59
  Q 291.12 376.28 290.98 376.56
  Q 290.58 377.36 289.47 376.62
  A 0.32 0.32 0.0 0 0 289.01 376.74
  Q 288.93 376.89 288.87 377.04
  Q 288.72 377.39 288.39 377.20
  Q 288.26 377.12 288.10 377.01"
/>
<path stroke="#1f3da8" stroke-opacity="0.929" vector-effect="non-scaling-stroke" d="
  M 288.02 371.72
  C 288.15 369.44 287.56 364.73 285.12 363.60
  A 1.42 1.42 0.0 0 1 284.48 362.99
  Q 283.69 361.43 281.68 361.18"
/>
</g>
<path fill="#7c3928" fill-opacity="0.490" d="
  M 195.44 32.03
  L 196.32 35.62
  Q 194.60 36.43 192.26 35.69
  Q 191.85 34.15 192.04 32.52
  Q 192.09 32.02 192.59 32.02
  L 195.44 32.03
  Z"
/>
<path fill="#bc5d43" fill-opacity="0.733" d="
  M 316.02 32.03
  L 315.75 35.45
  L 196.32 35.62
  L 195.44 32.03
  L 316.02 32.03
  Z"
/>
<path fill="#230d0b" fill-opacity="0.224" d="
  M 319.97 35.94
  Q 318.61 35.98 317.26 36.08
  Q 315.89 36.19 315.75 35.45
  L 316.02 32.03
  L 319.19 32.09
  Q 319.80 32.10 319.82 32.70
  L 319.97 35.94
  Z"
/>
<path fill="#fe622c" d="
  M 196.32 35.62
  L 315.75 35.45
  Q 315.89 36.19 317.26 36.08
  Q 318.61 35.98 319.97 35.94
  L 320.07 40.19
  L 320.18 64.22
  Q 319.84 66.19 320.22 67.36
  Q 320.40 67.92 320.98 67.92
  L 407.30 67.95
  Q 407.83 67.86 408.16 68.54
  C 408.47 69.19 408.26 71.08 408.49 72.05
  L 408.52 471.82
  Q 407.85 473.70 408.54 475.93
  Q 408.03 476.04 407.72 476.24
  C 314.31 475.68 220.88 476.06 127.47 476.07
  C 120.68 476.07 112.88 476.56 105.55 476.57
  A 0.87 0.84 -62.4 0 0 105.04 476.74
  Q 104.73 476.96 104.29 476.97
  Q 102.93 475.64 100.30 476.21
  Q 100.04 476.35 99.95 475.73
  Q 100.22 474.25 99.78 472.79
  L 99.80 72.21
  L 100.16 67.83
  L 104.28 67.96
  Q 145.70 68.02 187.19 68.00
  Q 187.54 68.00 187.79 67.87
  Q 188.18 67.68 188.27 67.46
  L 190.95 67.80
  Q 191.47 67.86 191.60 67.36
  Q 192.01 65.89 191.15 64.32
  Q 191.85 64.25 191.88 63.63
  Q 192.30 53.39 191.70 40.57
  Q 192.25 38.25 191.76 36.23
  Q 191.91 35.96 192.26 35.69
  Q 194.60 36.43 196.32 35.62
  Z
  M 207.98 48.04
  L 205.17 48.39
  Q 204.60 48.46 204.58 49.03
  L 204.48 52.26
  L 204.03 99.31
  A 0.66 0.65 7.1 0 0 204.54 99.96
  Q 205.72 100.24 207.03 99.98
  Q 207.15 100.15 207.47 100.23
  Q 207.90 100.34 207.89 100.78
  L 207.85 102.74
  Q 207.82 103.92 208.99 103.92
  L 303.06 103.90
  A 0.80 0.80 0.0 0 0 303.80 103.40
  Q 304.32 102.08 303.36 100.93
  Q 303.28 100.83 303.16 100.89
  Q 303.03 100.97 302.94 101.06
  Q 302.88 101.12 302.87 101.03
  Q 302.81 100.54 302.97 100.13
  Q 303.91 100.24 303.92 99.25
  Q 304.09 75.54 303.87 51.73
  Q 304.30 49.93 303.81 48.55
  Q 303.63 48.03 303.08 48.03
  L 207.98 48.04
  Z
  M 115.95 81.14
  Q 113.07 80.25 112.63 82.73
  Q 112.06 85.96 112.06 89.25
  Q 112.02 274.49 112.05 459.73
  C 112.05 460.71 112.36 461.79 112.39 462.85
  Q 112.41 463.40 112.94 463.52
  Q 114.42 463.88 115.95 463.02
  Q 115.91 463.25 115.96 463.47
  Q 116.08 463.99 116.62 463.99
  L 392.71 463.98
  L 395.15 463.91
  Q 395.75 463.89 395.88 463.31
  Q 396.21 461.78 395.47 460.31
  Q 396.02 459.95 396.02 459.25
  Q 395.62 271.60 395.93 83.97
  Q 395.53 82.60 395.63 80.90
  Q 395.68 80.15 394.92 80.15
  L 321.16 80.13
  A 0.92 0.91 10.9 0 0 320.31 80.70
  Q 319.64 82.40 321.04 83.92
  Q 320.56 83.90 320.31 84.02
  Q 320.08 84.14 320.08 84.58
  Q 319.95 98.43 320.03 112.30
  L 319.87 115.34
  A 0.63 0.61 -1.1 0 1 319.29 115.93
  L 316.11 116.14
  L 311.70 116.02
  L 196.40 116.05
  L 192.29 116.16
  L 191.97 115.95
  L 191.87 111.73
  L 191.95 84.89
  Q 191.96 84.09 191.17 83.95
  Q 189.84 83.71 188.06 84.22
  Q 187.89 83.66 187.51 84.00
  L 188.20 81.24
  Q 188.49 80.11 187.32 80.11
  Q 152.07 80.16 116.75 80.20
  Q 115.87 80.20 115.95 81.14
  Z"
/>
<path fill="#7c3928" fill-opacity="0.490" d="
  M 191.76 36.23
  Q 192.25 38.25 191.70 40.57
  L 188.09 39.49
  L 188.13 36.58
  Q 188.14 36.02 188.69 35.98
  Q 190.24 35.84 191.76 36.23
  Z"
/>
<path fill="#bc5d43" fill-opacity="0.733" d="
  M 188.09 39.49
  L 191.70 40.57
  Q 192.30 53.39 191.88 63.63
  Q 191.85 64.25 191.15 64.32
  Q 189.54 64.38 188.06 63.56
  L 188.09 39.49
  Z"
/>
<path fill="#230d0b" fill-opacity="0.224" d="
  M 323.89 64.04
  L 320.18 64.22
  L 320.07 40.19
  Q 321.57 40.13 322.71 39.68
  A 0.88 0.88 0.0 0 1 323.92 40.50
  L 323.89 64.04
  Z"
/>
<path fill="#b45132" fill-opacity="0.682" d="
  M 303.87 51.73
  L 300.32 51.96
  L 208.25 51.69
  Q 207.43 50.17 207.98 48.04
  L 303.08 48.03
  Q 303.63 48.03 303.81 48.55
  Q 304.30 49.93 303.87 51.73
  Z"
/>
<path fill="#ef7151" fill-opacity="0.933" d="
  M 207.98 48.04
  Q 207.43 50.17 208.25 51.69
  Q 207.77 51.93 207.72 52.23
  Q 206.33 51.53 204.48 52.26
  L 204.58 49.03
  Q 204.60 48.46 205.17 48.39
  L 207.98 48.04
  Z"
/>
<path fill="#bc5d43" fill-opacity="0.733" d="
  M 207.72 52.23
  L 207.71 99.70
  Q 207.39 99.53 207.03 99.98
  Q 205.72 100.24 204.54 99.96
  A 0.66 0.65 7.1 0 1 204.03 99.31
  L 204.48 52.26
  Q 206.33 51.53 207.72 52.23
  Z"
/>
<path fill="#230d0b" fill-opacity="0.224" d="
  M 303.87 51.73
  Q 304.09 75.54 303.92 99.25
  Q 303.91 100.24 302.97 100.13
  L 300.28 100.00
  L 300.32 51.96
  L 303.87 51.73
  Z"
/>
<path fill="#ef7151" fill-opacity="0.933" d="
  M 188.06 63.56
  Q 189.54 64.38 191.15 64.32
  Q 192.01 65.89 191.60 67.36
  Q 191.47 67.86 190.95 67.80
  L 188.27 67.46
  Q 188.42 65.68 187.51 64.03
  Q 187.65 64.18 187.79 64.20
  Q 187.94 64.23 188.04 64.06
  Q 188.19 63.82 188.06 63.56
  Z"
/>
<path fill="#230d0b" fill-opacity="0.224" d="
  M 103.77 64.03
  L 104.28 67.96
  L 100.16 67.83
  L 100.06 64.70
  Q 100.04 64.15 100.59 64.13
  L 103.77 64.03
  Z"
/>
<path fill="#b45132" fill-opacity="0.682" d="
  M 187.51 64.03
  Q 188.42 65.68 188.27 67.46
  Q 188.18 67.68 187.79 67.87
  Q 187.54 68.00 187.19 68.00
  Q 145.70 68.02 104.28 67.96
  L 103.77 64.03
  L 187.51 64.03
  Z"
/>
<path fill="#b45132" fill-opacity="0.682" d="
  M 227.55 64.04
  L 228.03 67.48
  Q 226.56 68.36 224.24 67.61
  L 224.01 64.10
  L 227.55 64.04
  Z"
/>
<path fill="#ef7151" fill-opacity="0.933" d="
  M 227.55 64.04
  L 264.05 64.07
  L 263.72 67.51
  L 228.03 67.48
  L 227.55 64.04
  Z"
/>
<path fill="#230d0b" fill-opacity="0.224" d="
  M 267.82 67.79
  Q 264.81 68.64 263.72 67.51
  L 264.05 64.07
  L 267.02 64.04
  Q 267.59 64.03 267.74 64.57
  Q 268.18 66.10 267.82 67.79
  Z"
/>
<path fill="#b45132" fill-opacity="0.682" d="
  M 323.89 64.04
  L 407.23 64.07
  Q 407.77 64.07 407.89 64.60
  Q 408.23 66.03 407.69 67.84
  Q 407.48 67.82 407.30 67.95
  L 320.98 67.92
  Q 320.40 67.92 320.22 67.36
  Q 319.84 66.19 320.18 64.22
  L 323.89 64.04
  Z"
/>
<path fill="#030203" fill-opacity="0.067" d="
  M 224.01 64.10
  L 224.24 67.61
  L 223.84 68.20
  L 220.23 67.92
  L 220.41 64.79
  Q 220.44 64.27 220.95 64.17
  Q 222.25 63.90 223.37 64.43
  Q 223.56 64.52 223.70 64.35
  Q 223.80 64.23 224.01 64.10
  Z"
/>
<path fill="#fe622c" d="
  M 228.03 67.48
  L 263.72 67.51
  Q 264.81 68.64 267.82 67.79
  L 268.01 72.21
  L 268.02 75.92
  L 267.93 76.44
  L 265.92 76.11
  A 1.45 1.44 5.4 0 0 264.24 77.50
  L 264.19 79.90
  Q 263.73 80.04 263.55 80.29
  L 255.55 80.04
  L 227.97 80.05
  L 224.27 80.03
  Q 223.83 80.09 223.80 79.56
  Q 224.38 77.58 223.63 75.78
  L 223.84 68.20
  L 224.24 67.61
  Q 226.56 68.36 228.03 67.48
  Z"
/>
<path fill="#bc5d43" fill-opacity="0.733" d="
  M 407.69 67.84
  Q 409.35 68.27 411.21 68.03
  Q 411.76 67.95 411.75 68.51
  L 411.70 71.67
  Q 410.28 71.57 408.49 72.05
  C 408.26 71.08 408.47 69.19 408.16 68.54
  Q 407.83 67.86 407.30 67.95
  Q 407.48 67.82 407.69 67.84
  Z"
/>
<path fill="#b45132" fill-opacity="0.682" d="
  M 220.23 67.92
  L 223.84 68.20
  L 223.63 75.78
  L 220.21 76.37
  L 220.23 67.92
  Z"
/>
<path fill="#7c3928" fill-opacity="0.490" d="
  M 99.80 72.21
  L 99.78 472.79
  Q 98.15 471.42 96.39 472.52
  L 96.05 72.44
  A 0.68 0.67 -85.9 0 1 96.82 71.77
  L 99.80 72.21
  Z"
/>
<path fill="#230d0b" fill-opacity="0.224" d="
  M 268.02 75.92
  L 268.01 72.21
  Q 269.75 72.22 270.63 71.89
  Q 271.50 71.55 271.61 72.48
  L 271.88 74.76
  Q 271.99 75.70 271.06 75.75
  L 268.02 75.92
  Z"
/>
<path fill="#ef7151" fill-opacity="0.933" d="
  M 411.70 71.67
  Q 412.17 72.46 411.99 72.95
  L 411.98 471.79
  Q 411.97 471.90 411.96 472.01
  Q 410.16 472.38 408.52 471.82
  L 408.49 72.05
  Q 410.28 71.57 411.70 71.67
  Z"
/>
<path fill="#030203" fill-opacity="0.067" d="
  M 411.98 471.79
  L 411.99 72.95
  Q 413.37 71.57 415.35 72.32
  Q 415.87 72.52 415.87 73.07
  L 415.88 471.03
  Q 415.88 471.58 415.34 471.73
  Q 413.73 472.16 411.98 471.79
  Z"
/>
<path fill="#6d2f1a" fill-opacity="0.443" d="
  M 223.63 75.78
  Q 224.38 77.58 223.80 79.56
  Q 222.11 80.23 220.65 79.85
  Q 220.11 79.71 220.12 79.15
  L 220.21 76.37
  L 223.63 75.78
  Z"
/>
<path fill="#b45132" fill-opacity="0.682" d="
  M 267.93 76.44
  L 267.92 79.25
  Q 267.92 79.81 267.37 79.91
  Q 265.85 80.18 264.19 79.90
  L 264.24 77.50
  A 1.45 1.44 5.4 0 1 265.92 76.11
  L 267.93 76.44
  Z"
/>
<path fill="#bc5d43" fill-opacity="0.733" d="
  M 187.51 84.00
  L 119.19 84.00
  L 116.55 83.93
  L 115.95 81.14
  Q 115.87 80.20 116.75 80.20
  Q 152.07 80.16 187.32 80.11
  Q 188.49 80.11 188.20 81.24
  L 187.51 84.00
  Z"
/>
<path fill="#230d0b" fill-opacity="0.224" d="
  M 224.27 80.03
  L 227.97 80.05
  Q 228.33 81.90 227.47 83.89
  L 224.58 83.87
  A 0.67 0.67 0.0 0 1 223.91 83.12
  L 224.27 80.03
  Z"
/>
<path fill="#7c3928" fill-opacity="0.490" d="
  M 227.97 80.05
  L 255.55 80.04
  L 255.42 80.34
  A 0.18 0.18 0.0 0 0 255.71 80.54
  Q 255.80 80.45 255.90 80.35
  A 0.07 0.07 0.0 0 1 256.02 80.39
  L 256.16 81.30
  Q 256.21 81.64 256.56 81.64
  L 259.29 81.60
  Q 259.69 81.59 259.76 81.98
  Q 259.94 82.97 259.73 83.90
  L 227.47 83.89
  Q 228.33 81.90 227.97 80.05
  Z"
/>
<path fill="#6d2f1a" fill-opacity="0.443" d="
  M 255.55 80.04
  L 263.55 80.29
  Q 264.20 81.63 263.97 83.25
  Q 263.90 83.74 263.41 83.76
  L 259.73 83.90
  Q 259.94 82.97 259.76 81.98
  Q 259.69 81.59 259.29 81.60
  L 256.56 81.64
  Q 256.21 81.64 256.16 81.30
  L 256.02 80.39
  A 0.07 0.07 0.0 0 0 255.90 80.35
  Q 255.80 80.45 255.71 80.54
  A 0.18 0.18 0.0 0 1 255.42 80.34
  L 255.55 80.04
  Z"
/>
<path fill="#bc5d43" fill-opacity="0.733" d="
  M 395.93 83.97
  L 392.08 84.01
  L 323.63 83.99
  L 321.04 83.92
  Q 319.64 82.40 320.31 80.70
  A 0.92 0.91 10.9 0 1 321.16 80.13
  L 394.92 80.15
  Q 395.68 80.15 395.63 80.90
  Q 395.53 82.60 395.93 83.97
  Z"
/>
<path fill="#ef7151" fill-opacity="0.933" d="
  M 115.95 81.14
  L 116.55 83.93
  Q 116.31 83.86 116.18 83.90
  Q 116.06 83.95 116.06 84.16
  Q 115.94 269.98 116.02 455.79
  Q 115.78 458.53 116.28 460.01
  L 115.95 463.02
  Q 114.42 463.88 112.94 463.52
  Q 112.41 463.40 112.39 462.85
  C 112.36 461.79 112.05 460.71 112.05 459.73
  Q 112.02 274.49 112.06 89.25
  Q 112.06 85.96 112.63 82.73
  Q 113.07 80.25 115.95 81.14
  Z"
/>
<path fill="#030203" fill-opacity="0.067" d="
  M 116.55 83.93
  L 119.19 84.00
  Q 119.85 91.72 119.85 105.00
  Q 119.89 279.91 119.85 455.18
  A 0.71 0.71 0.0 0 1 119.12 455.89
  L 116.02 455.79
  Q 115.94 269.98 116.06 84.16
  Q 116.06 83.95 116.18 83.90
  Q 116.31 83.86 116.55 83.93
  Z"
/>
<path fill="#bc5d43" fill-opacity="0.733" d="
  M 191.87 111.73
  Q 190.15 112.10 188.75 112.00
  Q 188.45 111.97 188.30 112.46
  Q 188.31 112.31 188.22 112.13
  Q 188.09 111.89 188.09 111.61
  L 188.06 84.22
  Q 189.84 83.71 191.17 83.95
  Q 191.96 84.09 191.95 84.89
  L 191.87 111.73
  Z"
/>
<path fill="#230d0b" fill-opacity="0.224" d="
  M 321.04 83.92
  L 323.63 83.99
  L 324.01 110.62
  Q 324.04 112.70 321.97 112.50
  L 320.03 112.30
  Q 319.95 98.43 320.08 84.58
  Q 320.08 84.14 320.31 84.02
  Q 320.56 83.90 321.04 83.92
  Z"
/>
<path fill="#6d2f1a" fill-opacity="0.443" d="
  M 395.93 83.97
  Q 395.62 271.60 396.02 459.25
  Q 396.02 459.95 395.47 460.31
  L 392.32 459.79
  L 392.08 84.01
  L 395.93 83.97
  Z"
/>
<path fill="#d96e55" fill-opacity="0.851" d="
  M 207.71 99.70
  Q 207.77 99.81 207.83 99.92
  Q 207.87 100.00 207.96 100.00
  L 300.28 100.00
  L 302.97 100.13
  Q 302.81 100.54 302.87 101.03
  Q 302.88 101.12 302.94 101.06
  Q 303.03 100.97 303.16 100.89
  Q 303.28 100.83 303.36 100.93
  Q 304.32 102.08 303.80 103.40
  A 0.80 0.80 0.0 0 1 303.06 103.90
  L 208.99 103.92
  Q 207.82 103.92 207.85 102.74
  L 207.89 100.78
  Q 207.90 100.34 207.47 100.23
  Q 207.15 100.15 207.03 99.98
  Q 207.39 99.53 207.71 99.70
  Z"
/>
<path fill="#6d2f1a" fill-opacity="0.443" d="
  M 191.87 111.73
  L 191.97 115.95
  L 188.90 116.01
  A 0.79 0.79 0.0 0 1 188.09 115.15
  L 188.30 112.46
  Q 188.45 111.97 188.75 112.00
  Q 190.15 112.10 191.87 111.73
  Z"
/>
<path fill="#230d0b" fill-opacity="0.224" d="
  M 196.40 116.05
  L 195.66 119.91
  L 192.59 119.83
  Q 192.06 119.81 192.02 119.28
  Q 191.90 117.74 192.29 116.16
  L 196.40 116.05
  Z"
/>
<path fill="#923e20" fill-opacity="0.596" d="
  M 311.70 116.02
  L 312.14 119.92
  L 195.66 119.91
  L 196.40 116.05
  L 311.70 116.02
  Z"
/>
<path fill="#7c3928" fill-opacity="0.490" d="
  M 311.70 116.02
  L 316.11 116.14
  L 316.12 119.18
  Q 316.13 119.68 315.63 119.71
  L 312.14 119.92
  L 311.70 116.02
  Z"
/>
<path fill="#b45132" fill-opacity="0.682" d="
  M 291.38 147.76
  Q 291.35 147.81 291.31 147.86
  Q 291.24 147.97 291.11 147.97
  L 148.36 147.75
  L 148.05 144.50
  Q 148.00 144.01 148.49 144.01
  L 291.49 144.01
  Q 291.97 144.01 291.97 144.49
  L 291.95 146.49
  Q 291.94 146.89 291.58 147.05
  Q 291.18 147.22 291.38 147.76
  Z"
/>
<path fill="#230d0b" fill-opacity="0.224" d="
  M 327.79 144.06
  L 328.24 147.85
  Q 326.46 148.28 324.31 147.72
  L 324.02 144.54
  Q 323.98 143.99 324.53 144.00
  L 327.79 144.06
  Z"
/>
<path fill="#b45132" fill-opacity="0.682" d="
  M 364.05 144.09
  L 363.76 147.91
  L 328.24 147.85
  L 327.79 144.06
  L 364.05 144.09
  Z"
/>
<path fill="#230d0b" fill-opacity="0.224" d="
  M 364.05 144.09
  L 367.23 144.19
  A 0.63 0.63 0.0 0 1 367.83 144.76
  Q 368.00 146.31 367.63 147.91
  Q 365.48 148.32 363.76 147.91
  L 364.05 144.09
  Z"
/>
<path fill="#fe622c" d="
  M 328.24 147.85
  L 363.76 147.91
  Q 365.48 148.32 367.63 147.91
  Q 368.19 149.70 367.98 152.27
  L 367.98 156.37
  Q 368.24 158.56 367.64 160.11
  Q 365.45 159.71 363.75 160.24
  Q 343.12 159.94 329.25 160.24
  Q 328.59 160.25 328.26 161.01
  Q 328.40 160.09 327.00 160.02
  Q 325.78 159.95 324.74 160.29
  Q 324.01 160.27 323.91 159.63
  L 323.86 152.22
  L 324.31 147.72
  Q 326.46 148.28 328.24 147.85
  Z"
/>
<path fill="#fe622c" d="
  M 148.36 147.75
  L 291.11 147.97
  Q 291.24 147.97 291.31 147.86
  Q 291.35 147.81 291.38 147.76
  Q 291.48 147.58 292.25 148.08
  L 292.09 150.78
  A 1.23 1.22 -3.4 0 0 293.53 152.05
  L 295.84 151.65
  L 295.91 156.25
  Q 294.87 156.38 293.65 155.95
  Q 293.22 155.80 292.83 156.05
  Q 291.54 156.89 292.23 158.53
  Q 292.64 159.52 292.46 159.92
  Q 291.90 159.93 291.72 160.15
  L 148.25 160.17
  Q 148.13 160.17 147.73 159.96
  L 147.92 157.40
  Q 148.03 155.90 146.53 156.05
  L 144.10 156.29
  L 144.21 151.16
  Q 145.73 152.28 147.10 151.98
  A 1.07 1.06 -8.8 0 0 147.94 150.84
  L 147.68 148.16
  L 148.36 147.75
  Z"
/>
<path fill="#bc5d43" fill-opacity="0.733" d="
  M 147.68 148.16
  L 147.94 150.84
  A 1.07 1.06 -8.8 0 1 147.10 151.98
  Q 145.73 152.28 144.21 151.16
  Q 143.92 149.97 144.05 148.48
  Q 144.10 147.98 144.59 148.01
  L 147.68 148.16
  Z"
/>
<path fill="#bc5d43" fill-opacity="0.733" d="
  M 292.25 148.08
  L 295.27 148.05
  Q 295.78 148.05 295.79 148.56
  L 295.84 151.65
  L 293.53 152.05
  A 1.23 1.22 -3.4 0 1 292.09 150.78
  L 292.25 148.08
  Z"
/>
<path fill="#230d0b" fill-opacity="0.224" d="
  M 323.86 152.22
  L 323.91 159.63
  L 320.75 159.89
  A 0.60 0.59 -0.4 0 1 320.10 159.26
  L 320.26 156.75
  Q 320.28 156.41 320.21 156.08
  Q 319.83 154.17 320.06 152.27
  Q 320.14 151.67 320.74 151.76
  L 323.86 152.22
  Z"
/>
<path fill="#230d0b" fill-opacity="0.224" d="
  M 367.98 156.37
  L 367.98 152.27
  L 370.96 151.71
  Q 371.93 151.53 371.92 152.51
  L 371.87 155.47
  Q 371.86 156.38 370.95 156.38
  L 367.98 156.37
  Z"
/>
<path fill="#bc5d43" fill-opacity="0.733" d="
  M 295.91 156.25
  L 295.82 160.01
  L 292.46 159.92
  Q 292.64 159.52 292.23 158.53
  Q 291.54 156.89 292.83 156.05
  Q 293.22 155.80 293.65 155.95
  Q 294.87 156.38 295.91 156.25
  Z"
/>
<path fill="#bc5d43" fill-opacity="0.733" d="
  M 147.73 159.96
  L 144.13 160.05
  L 144.10 156.29
  L 146.53 156.05
  Q 148.03 155.90 147.92 157.40
  L 147.73 159.96
  Z"
/>
<path fill="#030203" fill-opacity="0.067" d="
  M 144.13 160.05
  L 147.73 159.96
  Q 148.13 160.17 148.25 160.17
  Q 148.22 162.04 147.75 163.27
  Q 146.30 164.45 144.53 163.87
  Q 144.07 163.71 144.08 163.23
  L 144.13 160.05
  Z"
/>
<path fill="#bc5d43" fill-opacity="0.733" d="
  M 291.72 160.15
  L 291.99 163.83
  Q 289.52 163.90 287.00 163.91
  Q 217.75 163.99 148.50 163.91
  Q 147.90 163.91 147.75 163.27
  Q 148.22 162.04 148.25 160.17
  L 291.72 160.15
  Z"
/>
<path fill="#030203" fill-opacity="0.067" d="
  M 292.46 159.92
  L 295.82 160.01
  L 295.91 163.23
  A 0.49 0.49 0.0 0 1 295.44 163.73
  L 291.99 163.83
  L 291.72 160.15
  Q 291.90 159.93 292.46 159.92
  Z"
/>
<path fill="#230d0b" fill-opacity="0.224" d="
  M 328.26 161.01
  Q 328.04 162.67 327.31 163.86
  Q 325.88 164.08 324.54 163.83
  Q 324.05 163.74 324.04 163.24
  Q 324.01 161.68 324.74 160.29
  Q 325.78 159.95 327.00 160.02
  Q 328.40 160.09 328.26 161.01
  Z"
/>
<path fill="#bc5d43" fill-opacity="0.733" d="
  M 363.75 160.24
  L 364.21 163.82
  L 327.31 163.86
  Q 328.04 162.67 328.26 161.01
  Q 328.59 160.25 329.25 160.24
  Q 343.12 159.94 363.75 160.24
  Z"
/>
<path fill="#230d0b" fill-opacity="0.224" d="
  M 367.64 160.11
  Q 368.06 161.55 368.00 163.01
  Q 367.98 163.55 367.47 163.71
  Q 365.93 164.21 364.21 163.82
  L 363.75 160.24
  Q 365.45 159.71 367.64 160.11
  Z"
/>
<path fill="#230d0b" fill-opacity="0.224" d="
  M 152.20 188.01
  L 152.20 191.99
  L 148.24 191.84
  L 148.01 188.72
  Q 147.96 188.11 148.58 188.09
  L 152.20 188.01
  Z"
/>
<path fill="#7c3928" fill-opacity="0.490" d="
  M 152.20 188.01
  L 363.99 188.03
  L 364.05 191.99
  L 152.20 191.99
  L 152.20 188.01
  Z"
/>
<path fill="#030203" fill-opacity="0.067" d="
  M 363.99 188.03
  L 366.78 188.41
  A 0.90 0.90 0.0 0 1 367.50 188.98
  Q 368.04 190.36 367.82 191.98
  L 364.05 191.99
  L 363.99 188.03
  Z"
/>
<path fill="#fe622c" d="
  M 148.24 191.84
  L 152.20 191.99
  L 364.05 191.99
  L 364.55 195.21
  Q 364.64 195.74 365.16 195.65
  L 367.89 195.19
  Q 367.91 195.81 368.04 195.94
  L 367.99 203.73
  Q 368.04 204.17 367.79 204.10
  Q 365.44 203.61 363.95 204.62
  L 148.23 204.49
  Q 147.13 203.51 144.17 204.08
  L 144.16 195.32
  Q 145.58 196.41 147.36 195.95
  Q 147.85 195.82 147.94 195.33
  Q 148.21 193.80 147.62 192.22
  Q 148.00 192.09 148.24 191.84
  Z"
/>
<path fill="#923e20" fill-opacity="0.596" d="
  M 147.62 192.22
  Q 148.21 193.80 147.94 195.33
  Q 147.85 195.82 147.36 195.95
  Q 145.58 196.41 144.16 195.32
  Q 143.87 193.96 144.05 192.55
  Q 144.11 192.10 144.56 192.04
  Q 146.17 191.82 147.62 192.22
  Z"
/>
<path fill="#bc5d43" fill-opacity="0.733" d="
  M 364.05 191.99
  L 367.82 191.98
  Q 368.19 193.60 367.89 195.19
  L 365.16 195.65
  Q 364.64 195.74 364.55 195.21
  L 364.05 191.99
  Z"
/>
<path fill="#230d0b" fill-opacity="0.224" d="
  M 367.99 203.73
  L 368.04 195.94
  L 371.14 195.83
  A 0.84 0.84 0.0 0 1 372.01 196.70
  L 371.76 203.08
  Q 371.72 203.95 370.86 203.90
  L 367.99 203.73
  Z"
/>
<path fill="#230d0b" fill-opacity="0.224" d="
  M 144.17 204.08
  Q 147.13 203.51 148.23 204.49
  L 147.84 207.80
  Q 146.18 208.20 144.68 207.81
  Q 144.15 207.68 144.16 207.13
  L 144.17 204.08
  Z"
/>
<path fill="#ef7151" fill-opacity="0.933" d="
  M 363.95 204.62
  Q 363.78 206.18 364.18 207.73
  L 360.30 207.99
  L 152.20 207.99
  L 147.84 207.80
  L 148.23 204.49
  L 363.95 204.62
  Z"
/>
<path fill="#6d2f1a" fill-opacity="0.443" d="
  M 367.79 204.10
  L 367.93 207.11
  Q 367.95 207.65 367.43 207.80
  Q 365.88 208.25 364.18 207.73
  Q 363.78 206.18 363.95 204.62
  Q 365.44 203.61 367.79 204.10
  Z"
/>
<path fill="#030203" fill-opacity="0.067" d="
  M 152.20 207.99
  L 360.30 207.99
  L 360.30 210.92
  A 1.02 1.01 -89.7 0 1 359.28 211.94
  Q 310.28 211.64 261.25 211.66
  C 255.69 211.66 250.03 211.96 244.48 211.61
  C 243.21 211.52 242.01 211.88 240.83 211.80
  C 236.93 211.53 232.92 211.71 228.99 211.66
  C 225.08 211.61 221.10 211.86 217.17 211.78
  C 202.64 211.49 188.10 211.90 173.58 211.91
  Q 173.43 211.91 171.96 211.65
  C 171.11 211.49 170.46 211.94 169.69 211.94
  C 164.30 211.97 159.32 211.47 153.77 212.14
  A 1.44 1.43 -3.0 0 1 152.16 210.69
  L 152.20 207.99
  Z"
/>
<path fill="#230d0b" fill-opacity="0.224" d="
  M 363.75 236.02
  Q 363.66 236.01 363.56 235.99
  L 148.21 235.99
  L 148.22 232.52
  Q 148.22 232.00 148.75 232.00
  L 363.20 232.01
  A 0.64 0.64 0.0 0 1 363.84 232.67
  L 363.75 236.02
  Z"
/>
<path fill="#6d2f1a" fill-opacity="0.443" d="
  M 147.95 236.22
  L 147.79 239.31
  A 0.86 0.85 -86.7 0 1 146.88 240.13
  L 144.22 239.96
  L 143.91 236.92
  Q 144.16 235.93 145.00 235.93
  Q 146.53 235.91 147.95 236.22
  Z"
/>
<path fill="#fe622c" d="
  M 148.21 235.99
  L 363.56 235.99
  L 364.45 238.98
  Q 364.59 239.46 365.09 239.49
  L 367.94 239.71
  Q 367.98 239.84 368.02 239.98
  L 367.94 247.52
  Q 366.78 248.48 365.00 248.55
  Q 364.51 248.57 364.46 249.06
  L 364.18 251.69
  Q 364.02 251.87 363.74 252.01
  L 148.26 252.01
  L 148.00 249.11
  A 1.30 1.29 86.7 0 0 146.68 247.93
  Q 144.49 248.00 144.08 247.28
  L 144.22 239.96
  L 146.88 240.13
  A 0.86 0.85 -86.7 0 0 147.79 239.31
  L 147.95 236.22
  Q 148.23 235.74 148.21 235.99
  Z"
/>
<path fill="#b45132" fill-opacity="0.682" d="
  M 363.56 235.99
  Q 363.66 236.01 363.75 236.02
  L 366.99 236.11
  Q 367.54 236.12 367.68 236.66
  Q 368.06 238.14 367.94 239.71
  L 365.09 239.49
  Q 364.59 239.46 364.45 238.98
  L 363.56 235.99
  Z"
/>
<path fill="#030203" fill-opacity="0.067" d="
  M 143.91 236.92
  L 144.22 239.96
  L 144.08 247.28
  Q 144.21 248.43 143.96 249.57
  Q 143.47 248.98 143.64 248.33
  Q 143.78 247.78 143.22 247.88
  Q 140.36 248.40 140.31 246.74
  Q 140.24 244.18 140.07 241.30
  A 1.11 1.10 -1.7 0 1 141.18 240.13
  L 143.23 240.13
  Q 143.73 240.13 143.67 239.63
  Q 143.46 238.09 143.91 236.92
  Z"
/>
<path fill="#230d0b" fill-opacity="0.224" d="
  M 368.02 239.98
  L 370.83 240.38
  Q 371.80 240.51 371.78 241.50
  L 371.68 246.75
  Q 371.67 247.73 370.69 247.66
  Q 369.70 247.59 368.00 248.22
  L 367.94 247.52
  L 368.02 239.98
  Z"
/>
<path fill="#6d2f1a" fill-opacity="0.443" d="
  M 144.08 247.28
  Q 144.49 248.00 146.68 247.93
  A 1.30 1.29 86.7 0 1 148.00 249.11
  L 148.26 252.01
  L 144.76 251.89
  Q 144.19 251.87 144.13 251.30
  L 143.96 249.57
  Q 144.21 248.43 144.08 247.28
  Z"
/>
<path fill="#b45132" fill-opacity="0.682" d="
  M 367.94 247.52
  L 368.00 248.22
  L 367.73 251.18
  Q 367.69 251.70 367.17 251.70
  L 364.18 251.69
  L 364.46 249.06
  Q 364.51 248.57 365.00 248.55
  Q 366.78 248.48 367.94 247.52
  Z"
/>
<path fill="#230d0b" fill-opacity="0.224" d="
  M 148.26 252.01
  L 363.74 252.01
  L 363.79 254.69
  A 1.27 1.26 89.6 0 1 362.53 255.98
  L 149.01 255.98
  A 0.70 0.70 0.0 0 1 148.32 255.17
  Q 148.58 253.51 148.26 252.01
  Z"
/>
<path fill="#923e20" fill-opacity="0.596" d="
  M 151.77 276.01
  L 152.06 279.96
  Q 149.99 280.15 148.27 279.73
  L 148.00 276.57
  Q 147.96 276.02 148.51 276.02
  L 151.77 276.01
  Z"
/>
<path fill="#bc5d43" fill-opacity="0.733" d="
  M 151.77 276.01
  L 359.49 276.01
  Q 359.97 277.35 359.44 279.96
  L 152.06 279.96
  L 151.77 276.01
  Z"
/>
<path fill="#b45132" fill-opacity="0.682" d="
  M 359.49 276.01
  L 364.04 276.18
  L 363.58 279.83
  L 359.44 279.96
  Q 359.97 277.35 359.49 276.01
  Z"
/>
<path fill="#230d0b" fill-opacity="0.224" d="
  M 367.67 279.91
  Q 365.32 280.29 363.58 279.83
  L 364.04 276.18
  L 367.24 276.15
  Q 367.88 276.14 367.84 276.77
  L 367.67 279.91
  Z"
/>
<path fill="#fe622c" d="
  M 148.27 279.73
  Q 149.99 280.15 152.06 279.96
  L 359.44 279.96
  L 363.58 279.83
  Q 365.32 280.29 367.67 279.91
  L 368.00 284.49
  L 367.98 288.31
  Q 368.19 290.55 367.65 292.09
  L 363.73 292.09
  L 148.24 292.09
  Q 148.28 292.25 147.52 291.90
  Q 147.98 290.46 147.94 288.89
  A 0.88 0.86 -86.5 0 0 147.21 288.05
  Q 145.75 287.82 144.20 288.78
  Q 144.15 288.18 143.96 287.78
  L 143.98 284.19
  L 144.20 283.40
  Q 145.73 284.26 146.81 284.05
  A 1.62 1.61 -18.8 0 0 147.95 281.75
  Q 147.50 280.83 147.75 280.14
  L 148.27 279.73
  Z"
/>
<path fill="#bc5d43" fill-opacity="0.733" d="
  M 147.75 280.14
  Q 147.50 280.83 147.95 281.75
  A 1.62 1.61 -18.8 0 1 146.81 284.05
  Q 145.73 284.26 144.20 283.40
  Q 143.87 281.98 144.13 280.54
  Q 144.22 280.04 144.72 280.06
  L 147.75 280.14
  Z"
/>
<path fill="#230d0b" fill-opacity="0.224" d="
  M 367.98 288.31
  L 368.00 284.49
  L 370.72 283.67
  A 0.87 0.87 0.0 0 1 371.81 284.28
  Q 372.28 286.09 371.73 287.87
  Q 371.57 288.38 371.04 288.37
  L 367.98 288.31
  Z"
/>
<path fill="#030203" fill-opacity="0.067" d="
  M 143.98 284.19
  L 143.96 287.78
  L 140.85 287.97
  A 0.68 0.67 88.0 0 1 140.13 287.29
  L 140.13 284.74
  Q 140.13 284.09 140.78 284.11
  L 143.98 284.19
  Z"
/>
<path fill="#bc5d43" fill-opacity="0.733" d="
  M 147.52 291.90
  L 144.04 291.95
  L 144.20 288.78
  Q 145.75 287.82 147.21 288.05
  A 0.88 0.86 -86.5 0 1 147.94 288.89
  Q 147.98 290.46 147.52 291.90
  Z"
/>
<path fill="#030203" fill-opacity="0.067" d="
  M 144.04 291.95
  L 147.52 291.90
  Q 148.28 292.25 148.24 292.09
  L 147.79 295.34
  Q 146.17 296.30 144.60 295.85
  Q 144.13 295.72 144.12 295.23
  L 144.04 291.95
  Z"
/>
<path fill="#bc5d43" fill-opacity="0.733" d="
  M 363.73 292.09
  L 364.20 295.93
  Q 256.49 296.02 148.75 295.98
  Q 147.90 295.98 147.79 295.34
  L 148.24 292.09
  L 363.73 292.09
  Z"
/>
<path fill="#230d0b" fill-opacity="0.224" d="
  M 367.65 292.09
  L 367.89 295.06
  Q 367.93 295.61 367.40 295.75
  Q 365.94 296.11 364.20 295.93
  L 363.73 292.09
  L 367.65 292.09
  Z"
/>
<path fill="#6d2f1a" fill-opacity="0.443" d="
  M 307.69 330.88
  Q 306.38 332.27 304.23 331.51
  L 304.09 328.38
  Q 304.06 327.77 303.46 327.87
  Q 301.18 328.23 299.04 327.31
  A 1.08 1.06 47.5 0 0 298.29 327.27
  Q 295.40 328.20 292.58 327.66
  Q 292.15 326.23 292.34 324.71
  Q 292.40 324.17 292.95 324.16
  L 303.10 324.08
  Q 303.67 324.08 303.81 324.63
  Q 304.14 325.86 303.85 327.09
  A 0.82 0.82 0.0 0 0 304.79 328.08
  Q 305.99 327.87 307.17 328.07
  Q 307.69 328.16 307.83 328.67
  Q 308.19 329.91 307.69 330.88
  Z"
/>
<path fill="#3f4e9c" fill-opacity="0.859" d="
  M 284.18 337.19
  Q 284.91 340.78 288.07 339.11
  Q 288.52 338.87 288.48 338.37
  L 288.34 336.16
  Q 288.24 333.40 289.11 331.38
  L 291.01 331.51
  Q 290.06 333.70 290.53 336.13
  C 290.93 338.19 290.56 339.87 290.97 341.82
  A 1.33 1.32 -9.3 0 1 289.82 343.41
  Q 287.76 343.65 286.41 342.39
  Q 286.12 342.13 285.95 341.79
  Q 285.36 340.67 284.17 340.16
  Q 283.72 339.96 283.44 339.56
  Q 282.27 337.85 280.31 336.97
  Q 279.80 336.74 279.88 336.17
  Q 279.95 335.64 279.56 335.26
  A 0.51 0.48 -22.2 0 0 279.22 335.13
  L 276.50 335.13
  Q 276.15 335.13 276.09 334.78
  Q 275.92 333.71 274.92 333.32
  Q 274.51 333.16 274.31 332.77
  Q 273.84 331.86 272.82 332.13
  Q 272.47 332.23 272.22 331.98
  L 271.99 331.74
  Q 271.75 331.50 271.42 331.52
  L 268.79 331.67
  Q 268.12 331.70 268.12 331.03
  L 268.12 330.51
  A 0.50 0.50 0.0 0 0 267.44 330.05
  Q 266.47 330.42 266.14 329.81
  Q 265.93 329.43 265.50 329.34
  Q 263.97 329.01 261.03 327.61
  Q 258.55 326.43 253.27 326.14
  Q 252.76 326.11 252.33 325.85
  Q 250.96 325.00 249.75 325.13
  Q 245.49 325.59 242.99 325.33
  C 241.98 325.23 240.42 326.28 238.95 326.29
  Q 236.50 326.30 234.03 326.77
  C 236.42 325.85 238.18 325.15 240.90 325.23
  C 243.71 325.31 246.21 324.83 249.15 325.02
  C 250.81 325.13 252.37 324.78 253.93 325.03
  Q 256.65 325.46 259.29 326.18
  Q 259.67 326.28 260.05 326.21
  Q 260.69 326.09 261.25 326.58
  Q 261.59 326.87 262.04 326.87
  L 262.97 326.87
  Q 263.46 326.87 263.86 327.14
  Q 265.44 328.19 267.28 327.84
  Q 267.80 327.74 268.23 328.05
  C 269.36 328.87 270.66 329.01 271.72 329.62
  Q 274.69 331.30 277.74 332.83
  C 279.28 333.61 280.01 335.13 281.64 335.67
  Q 283.25 336.20 284.18 337.19
  Z
  M 288.75 340.75
  Q 288.54 341.05 288.15 341.20
  A 0.74 0.73 45.5 0 0 288.14 342.57
  Q 290.46 343.52 290.55 341.75
  Q 290.61 340.64 290.61 339.51
  Q 290.62 338.89 290.00 338.88
  Q 289.87 338.88 289.74 338.87
  Q 289.52 338.85 289.02 339.52
  Q 288.74 339.89 289.13 340.13
  A 0.73 0.03 -56.3 0 1 288.75 340.75
  Z"
/>
<path fill="#042fb3" d="
  M 291.01 331.51
  L 292.14 327.96
  L 292.58 327.66
  Q 295.40 328.20 298.29 327.27
  A 1.08 1.06 47.5 0 1 299.04 327.31
  Q 301.18 328.23 303.46 327.87
  Q 304.06 327.77 304.09 328.38
  L 304.23 331.51
  L 304.36 435.83
  Q 303.68 437.13 303.91 439.44
  Q 303.96 440.05 303.35 440.04
  L 296.04 439.95
  L 292.76 439.91
  A 0.68 0.68 0.0 0 1 292.11 439.10
  Q 292.45 437.48 291.87 436.19
  L 291.33 432.90
  Q 291.28 432.62 290.99 432.25
  Q 290.87 432.10 290.71 432.07
  Q 290.17 432.00 289.97 431.50
  Q 289.07 429.26 289.13 426.13
  Q 289.14 425.73 288.83 425.53
  Q 288.39 425.25 288.52 425.76
  L 288.62 426.18
  Q 288.75 426.68 288.29 426.43
  Q 286.59 425.50 285.99 427.03
  C 284.12 426.71 284.04 428.38 282.20 428.61
  Q 281.71 428.68 281.39 429.06
  L 279.11 431.77
  Q 279.04 431.90 278.97 432.03
  Q 278.83 432.26 279.09 432.33
  Q 279.25 432.37 279.48 432.30
  Q 278.09 433.38 276.73 434.49
  Q 276.42 435.34 275.68 435.04
  Q 275.20 434.85 274.72 435.03
  C 273.11 435.63 271.54 435.95 269.96 436.63
  Q 263.31 439.53 255.93 439.89
  L 239.74 439.81
  L 231.49 438.95
  Q 229.40 436.71 226.50 436.00
  Q 223.23 435.19 220.75 433.85
  Q 220.50 433.71 220.31 433.45
  Q 220.12 433.19 219.92 432.94
  Q 219.63 432.59 219.19 432.47
  Q 217.55 432.04 216.23 430.92
  Q 215.87 430.62 215.40 430.65
  Q 214.62 430.69 214.13 430.01
  C 212.80 428.20 210.53 427.20 209.06 425.69
  Q 207.92 424.51 206.70 423.37
  Q 206.34 423.02 205.84 423.12
  Q 204.69 423.35 204.20 422.43
  Q 204.07 422.19 203.83 422.05
  Q 203.20 421.67 203.11 420.96
  Q 203.06 420.52 202.63 420.43
  L 200.89 420.08
  Q 199.37 417.41 196.98 415.36
  Q 196.57 415.01 196.50 414.48
  Q 196.26 412.62 194.68 411.60
  A 1.57 1.53 -86.2 0 1 194.10 410.92
  C 191.37 404.76 188.57 398.86 187.95 392.14
  Q 186.87 380.36 188.50 368.63
  Q 188.79 366.58 189.82 364.31
  C 193.25 356.78 196.51 349.95 203.16 344.06
  C 204.19 343.15 204.81 341.99 205.83 341.17
  C 208.00 339.44 209.88 337.55 212.15 336.10
  C 217.70 332.57 222.63 329.79 229.28 327.74
  Q 231.24 327.93 232.26 327.16
  L 234.03 326.77
  Q 236.50 326.30 238.95 326.29
  C 240.42 326.28 241.98 325.23 242.99 325.33
  Q 245.49 325.59 249.75 325.13
  Q 250.96 325.00 252.33 325.85
  Q 252.76 326.11 253.27 326.14
  Q 258.55 326.43 261.03 327.61
  Q 263.97 329.01 265.50 329.34
  Q 265.93 329.43 266.14 329.81
  Q 266.47 330.42 267.44 330.05
  A 0.50 0.50 0.0 0 1 268.12 330.51
  L 268.12 331.03
  Q 268.12 331.70 268.79 331.67
  L 271.42 331.52
  Q 271.75 331.50 271.99 331.74
  L 272.22 331.98
  Q 272.47 332.23 272.82 332.13
  Q 273.84 331.86 274.31 332.77
  Q 274.51 333.16 274.92 333.32
  Q 275.92 333.71 276.09 334.78
  Q 276.15 335.13 276.50 335.13
  L 279.22 335.13
  A 0.51 0.48 -22.2 0 1 279.56 335.26
  Q 279.95 335.64 279.88 336.17
  Q 279.80 336.74 280.31 336.97
  Q 282.27 337.85 283.44 339.56
  Q 283.72 339.96 284.17 340.16
  Q 285.36 340.67 285.95 341.79
  Q 286.12 342.13 286.41 342.39
  Q 287.76 343.65 289.82 343.41
  A 1.33 1.32 -9.3 0 0 290.97 341.82
  C 290.56 339.87 290.93 338.19 290.53 336.13
  Q 290.06 333.70 291.01 331.51
  Z
  M 262.74 419.24
  Q 263.82 418.93 264.25 419.27
  A 0.48 0.48 0.0 0 1 264.25 420.03
  L 262.79 421.16
  Q 262.56 421.35 262.25 421.33
  Q 261.85 421.31 261.64 421.65
  Q 263.13 421.11 264.72 420.76
  Q 265.15 420.66 265.36 420.28
  Q 265.72 419.63 266.61 419.94
  A 0.90 0.88 -58.3 0 0 267.55 419.71
  Q 268.03 419.20 268.78 419.38
  Q 269.25 419.48 269.59 419.15
  L 271.71 417.14
  Q 272.05 416.81 272.15 416.35
  Q 272.29 415.67 273.02 415.54
  A 0.09 0.09 0.0 0 0 273.01 415.37
  Q 272.87 415.36 272.74 415.36
  Q 272.51 415.35 272.64 415.17
  Q 274.96 411.94 278.81 410.96
  Q 279.21 410.86 279.14 410.45
  Q 279.00 409.63 279.44 408.89
  A 1.26 1.26 0.0 0 1 280.15 408.34
  Q 280.80 408.14 281.00 407.53
  A 0.58 0.57 2.6 0 1 281.43 407.14
  Q 281.95 407.04 282.08 407.40
  Q 282.18 407.67 282.46 407.66
  Q 282.76 407.65 283.00 407.54
  Q 283.22 407.43 283.31 407.19
  Q 283.62 406.29 283.03 405.66
  Q 282.69 405.30 283.05 404.96
  Q 283.46 404.58 283.32 404.26
  Q 283.15 404.04 283.52 403.86
  Q 283.82 403.72 283.83 403.40
  C 283.91 401.27 284.74 396.87 286.56 395.46
  Q 286.76 395.31 286.64 395.53
  L 286.51 395.77
  Q 286.42 395.95 286.60 396.04
  Q 287.14 396.33 287.48 396.20
  Q 287.54 396.27 287.56 396.40
  Q 287.63 396.75 287.63 396.50
  L 287.63 396.00
  A 0.30 0.30 0.0 0 1 287.67 395.85
  Q 288.21 394.96 289.11 394.42
  A 1.08 1.03 87.2 0 0 289.57 393.89
  L 290.62 391.27
  Q 290.77 390.89 290.81 390.48
  C 291.26 386.10 291.92 382.43 291.30 377.20
  Q 291.30 377.14 291.27 377.20
  Q 291.26 377.23 291.24 377.27
  Q 291.12 377.48 291.12 377.25
  L 291.12 376.59
  Q 291.12 376.28 290.98 376.56
  Q 290.58 377.36 289.47 376.62
  A 0.32 0.32 0.0 0 0 289.01 376.74
  Q 288.93 376.89 288.87 377.04
  Q 288.72 377.39 288.39 377.20
  Q 288.26 377.12 288.10 377.01
  L 288.02 371.72
  C 288.15 369.44 287.56 364.73 285.12 363.60
  A 1.42 1.42 0.0 0 1 284.48 362.99
  Q 283.69 361.43 281.68 361.18
  C 272.91 349.43 260.88 344.42 246.26 344.05
  C 241.37 343.92 237.72 345.49 233.52 346.75
  C 227.32 348.60 222.23 351.44 217.46 355.82
  C 214.89 358.19 211.97 362.19 210.49 365.37
  C 209.22 368.09 207.56 370.39 207.22 373.40
  C 206.42 380.54 206.04 393.78 209.82 399.66
  C 210.86 401.28 211.55 403.01 212.67 404.39
  Q 217.54 410.32 223.71 414.92
  C 225.74 416.44 228.14 417.08 230.48 418.19
  Q 233.47 419.59 235.77 420.01
  Q 249.37 422.46 262.74 419.24
  Z"
/>
<path fill="#6d2f1a" fill-opacity="0.443" d="
  M 232.26 327.16
  Q 231.24 327.93 229.28 327.74
  Q 230.67 326.56 232.26 327.16
  Z"
/>
<path fill="#6d2f1a" fill-opacity="0.443" d="
  M 292.14 327.96
  L 291.01 331.51
  L 289.11 331.38
  Q 289.33 330.56 288.76 330.36
  Q 288.25 329.37 288.78 328.70
  Q 289.10 328.30 289.60 328.35
  Q 291.05 328.51 292.14 327.96
  Z"
/>
<path fill="#3f4e9c" fill-opacity="0.859" d="
  M 307.69 330.88
  L 307.97 435.98
  L 304.36 435.83
  L 304.23 331.51
  Q 306.38 332.27 307.69 330.88
  Z"
/>
<path fill="#230d0b" fill-opacity="0.224" d="
  M 288.34 336.16
  L 288.48 338.37
  Q 288.52 338.87 288.07 339.11
  Q 284.91 340.78 284.18 337.19
  L 286.26 337.72
  A 0.74 0.74 0.0 0 0 286.98 337.52
  L 288.34 336.16
  Z"
/>
<path fill="#042fb3" d="
  M 289.13 340.13
  Q 288.74 339.89 289.02 339.52
  Q 289.52 338.85 289.74 338.87
  Q 289.87 338.88 290.00 338.88
  Q 290.62 338.89 290.61 339.51
  Q 290.61 340.64 290.55 341.75
  Q 290.46 343.52 288.14 342.57
  A 0.74 0.73 45.5 0 1 288.15 341.20
  Q 288.54 341.05 288.75 340.75
  A 0.73 0.03 -56.3 0 0 289.13 340.13
  Z"
/>
<path fill="#3f4e9c" fill-opacity="0.859" d="
  M 281.68 361.18
  Q 283.69 361.43 284.48 362.99
  A 1.42 1.42 0.0 0 0 285.12 363.60
  C 287.56 364.73 288.15 369.44 288.02 371.72
  Q 287.66 371.49 287.48 370.94
  Q 287.41 370.39 287.12 369.91
  Q 286.88 369.51 286.42 369.43
  Q 285.31 369.21 285.02 368.13
  Q 284.96 367.91 284.76 368.01
  Q 284.64 368.08 284.55 368.25
  L 283.83 364.21
  Q 283.74 363.69 283.29 363.39
  Q 281.84 362.42 281.68 361.18
  Z"
/>
<path fill="#6d2f1a" fill-opacity="0.443" d="
  M 287.48 370.94
  Q 287.29 371.15 287.41 371.60
  Q 287.49 371.90 287.19 371.80
  Q 286.77 371.65 286.81 371.93
  Q 286.78 370.25 285.14 369.53
  Q 284.67 369.04 284.55 368.25
  Q 284.64 368.08 284.76 368.01
  Q 284.96 367.91 285.02 368.13
  Q 285.31 369.21 286.42 369.43
  Q 286.88 369.51 287.12 369.91
  Q 287.41 370.39 287.48 370.94
  Z"
/>
<path fill="#230d0b" fill-opacity="0.224" d="
  M 285.14 369.53
  Q 286.78 370.25 286.81 371.93
  Q 285.36 371.27 285.14 369.53
  Z"
/>
<path fill="#3f4e9c" fill-opacity="0.859" d="
  M 287.48 396.20
  L 288.10 377.01
  Q 288.26 377.12 288.39 377.20
  Q 288.72 377.39 288.87 377.04
  Q 288.93 376.89 289.01 376.74
  A 0.32 0.32 0.0 0 1 289.47 376.62
  Q 290.58 377.36 290.98 376.56
  Q 291.12 376.28 291.12 376.59
  L 291.12 377.25
  Q 291.12 377.48 291.24 377.27
  Q 291.26 377.23 291.27 377.20
  Q 291.30 377.14 291.30 377.20
  C 291.92 382.43 291.26 386.10 290.81 390.48
  Q 290.77 390.89 290.62 391.27
  L 289.57 393.89
  A 1.08 1.03 87.2 0 1 289.11 394.42
  Q 288.21 394.96 287.67 395.85
  A 0.30 0.30 0.0 0 0 287.63 396.00
  L 287.63 396.50
  Q 287.63 396.75 287.56 396.40
  Q 287.54 396.27 287.48 396.20
  Z"
/>
<path fill="#3f4e9c" fill-opacity="0.859" d="
  M 283.32 404.26
  Q 283.46 404.58 283.05 404.96
  Q 282.69 405.30 283.03 405.66
  Q 283.62 406.29 283.31 407.19
  Q 283.22 407.43 283.00 407.54
  Q 282.76 407.65 282.46 407.66
  Q 282.18 407.67 282.08 407.40
  Q 281.95 407.04 281.43 407.14
  A 0.58 0.57 2.6 0 0 281.00 407.53
  Q 280.80 408.14 280.15 408.34
  A 1.26 1.26 0.0 0 0 279.44 408.89
  Q 279.00 409.63 279.14 410.45
  Q 279.21 410.86 278.81 410.96
  Q 274.96 411.94 272.64 415.17
  Q 272.51 415.35 272.74 415.36
  Q 272.87 415.36 273.01 415.37
  A 0.09 0.09 0.0 0 1 273.02 415.54
  Q 272.29 415.67 272.15 416.35
  Q 272.05 416.81 271.71 417.14
  L 269.59 419.15
  Q 269.25 419.48 268.78 419.38
  Q 268.03 419.20 267.55 419.71
  A 0.90 0.88 -58.3 0 1 266.61 419.94
  Q 265.72 419.63 265.36 420.28
  Q 265.15 420.66 264.72 420.76
  Q 263.13 421.11 261.64 421.65
  Q 261.85 421.31 262.25 421.33
  Q 262.56 421.35 262.79 421.16
  L 264.25 420.03
  A 0.48 0.48 0.0 0 0 264.25 419.27
  Q 263.82 418.93 262.74 419.24
  C 266.10 417.64 269.74 416.05 272.49 413.54
  C 274.09 412.08 276.84 411.89 276.69 408.97
  A 0.46 0.46 0.0 0 1 277.17 408.48
  Q 280.47 408.64 280.56 405.26
  A 0.99 0.99 0.0 0 1 281.76 404.33
  Q 282.23 404.44 283.32 404.26
  Z"
/>
<path fill="#3f4e9c" fill-opacity="0.859" d="
  M 200.89 420.08
  L 202.63 420.43
  Q 203.06 420.52 203.11 420.96
  Q 203.20 421.67 203.83 422.05
  Q 204.07 422.19 204.20 422.43
  Q 204.69 423.35 205.84 423.12
  Q 206.34 423.02 206.70 423.37
  Q 207.92 424.51 209.06 425.69
  C 210.53 427.20 212.80 428.20 214.13 430.01
  Q 214.62 430.69 215.40 430.65
  Q 215.87 430.62 216.23 430.92
  Q 217.55 432.04 219.19 432.47
  Q 219.63 432.59 219.92 432.94
  Q 220.12 433.19 220.31 433.45
  Q 220.50 433.71 220.75 433.85
  Q 223.23 435.19 226.50 436.00
  Q 229.40 436.71 231.49 438.95
  C 228.06 438.64 226.01 436.64 223.31 435.75
  C 221.23 435.06 219.49 434.51 217.60 433.20
  Q 215.31 431.62 212.82 430.39
  Q 212.36 430.16 212.12 429.72
  Q 212.01 429.52 211.89 429.34
  Q 211.78 429.15 211.57 429.03
  Q 209.92 428.10 208.34 427.04
  Q 206.96 426.12 205.48 424.60
  Q 203.27 422.33 200.89 420.08
  Z"
/>
<path fill="#3f4e9c" fill-opacity="0.859" d="
  M 291.87 436.19
  Q 290.42 435.29 289.69 436.05
  Q 289.38 436.36 288.95 436.25
  Q 288.22 436.06 288.32 434.99
  Q 288.85 429.54 288.44 427.73
  Q 288.14 426.39 285.99 427.03
  Q 286.59 425.50 288.29 426.43
  Q 288.75 426.68 288.62 426.18
  L 288.52 425.76
  Q 288.39 425.25 288.83 425.53
  Q 289.14 425.73 289.13 426.13
  Q 289.07 429.26 289.97 431.50
  Q 290.17 432.00 290.71 432.07
  Q 290.87 432.10 290.99 432.25
  Q 291.28 432.62 291.33 432.90
  L 291.87 436.19
  Z"
/>
<path fill="#3f4e9c" fill-opacity="0.859" d="
  M 285.99 427.03
  Q 284.04 428.29 282.97 430.52
  Q 282.17 429.86 281.59 430.82
  A 1.58 1.54 2.4 0 1 280.93 431.41
  Q 280.07 431.83 279.11 431.77
  L 281.39 429.06
  Q 281.71 428.68 282.20 428.61
  C 284.04 428.38 284.12 426.71 285.99 427.03
  Z"
/>
<path fill="#6d2f1a" fill-opacity="0.443" d="
  M 282.97 430.52
  Q 281.79 432.32 279.48 432.30
  Q 279.25 432.37 279.09 432.33
  Q 278.83 432.26 278.97 432.03
  Q 279.04 431.90 279.11 431.77
  Q 280.07 431.83 280.93 431.41
  A 1.58 1.54 2.4 0 0 281.59 430.82
  Q 282.17 429.86 282.97 430.52
  Z"
/>
<path fill="#230d0b" fill-opacity="0.224" d="
  M 304.36 435.83
  L 307.97 435.98
  L 307.94 439.24
  Q 307.94 439.96 307.22 439.98
  L 300.71 440.18
  Q 300.13 440.20 300.13 440.79
  L 300.13 442.85
  A 1.02 1.02 0.0 0 1 299.16 443.87
  L 296.98 444.00
  Q 296.11 444.05 296.09 443.18
  L 296.04 439.95
  L 303.35 440.04
  Q 303.96 440.05 303.91 439.44
  Q 303.68 437.13 304.36 435.83
  Z"
/>
<path fill="#230d0b" fill-opacity="0.224" d="
  M 239.74 439.81
  L 255.93 439.89
  L 255.60 442.80
  Q 255.53 443.42 254.91 443.44
  L 240.31 443.79
  Q 239.63 443.81 239.89 443.18
  Q 240.79 441.03 239.74 439.81
  Z"
/>
<path fill="#bc5d43" fill-opacity="0.733" d="
  M 392.32 459.79
  L 395.47 460.31
  Q 396.21 461.78 395.88 463.31
  Q 395.75 463.89 395.15 463.91
  L 392.71 463.98
  Q 392.13 462.74 392.11 461.69
  Q 392.10 461.27 391.83 460.96
  Q 391.55 460.64 391.53 460.01
  Q 391.90 460.41 392.32 459.79
  Z"
/>
<path fill="#923e20" fill-opacity="0.596" d="
  M 391.53 460.01
  Q 391.55 460.64 391.83 460.96
  Q 392.10 461.27 392.11 461.69
  Q 392.13 462.74 392.71 463.98
  L 116.62 463.99
  Q 116.08 463.99 115.96 463.47
  Q 115.91 463.25 115.95 463.02
  L 116.28 460.01
  L 391.53 460.01
  Z"
/>
<path fill="#d96e55" fill-opacity="0.851" d="
  M 408.52 471.82
  Q 410.16 472.38 411.96 472.01
  L 411.72 475.97
  L 408.54 475.93
  Q 407.85 473.70 408.52 471.82
  Z"
/>
<path fill="#230d0b" fill-opacity="0.224" d="
  M 99.78 472.79
  Q 100.22 474.25 99.95 475.73
  Q 98.15 476.39 96.76 475.87
  A 0.91 0.90 5.2 0 1 96.18 475.18
  Q 95.94 473.85 96.39 472.52
  Q 98.15 471.42 99.78 472.79
  Z"
/>
<path fill="#7c3928" fill-opacity="0.490" d="
  M 104.29 476.97
  Q 103.61 478.48 104.26 479.76
  L 100.80 479.86
  Q 100.24 479.88 100.12 479.33
  Q 99.82 477.85 100.30 476.21
  Q 102.93 475.64 104.29 476.97
  Z"
/>
<path fill="#d96e55" fill-opacity="0.851" d="
  M 407.72 476.24
  L 407.98 479.74
  L 106.37 479.98
  Q 103.76 477.99 104.29 476.97
  Q 104.73 476.96 105.04 476.74
  A 0.87 0.84 -62.4 0 1 105.55 476.57
  C 112.88 476.56 120.68 476.07 127.47 476.07
  C 220.88 476.06 314.31 475.68 407.72 476.24
  Z"
/>
<path fill="#230d0b" fill-opacity="0.224" d="
  M 408.54 475.93
  L 411.72 475.97
  L 411.82 479.15
  Q 411.83 479.68 411.31 479.77
  Q 409.66 480.08 407.98 479.74
  L 407.72 476.24
  Q 408.03 476.04 408.54 475.93
  Z"
/>
<path fill="#bc5d43" fill-opacity="0.733" d="
  M 104.29 476.97
  Q 103.76 477.99 106.37 479.98
  Q 105.36 479.64 104.26 479.76
  Q 103.61 478.48 104.29 476.97
  Z"
/>
</svg>
