<?xml version="1.0" encoding="UTF-8" standalone="no"?>
<!DOCTYPE svg PUBLIC "-//W3C//DTD SVG 1.1//EN" "http://www.w3.org/Graphics/SVG/1.1/DTD/svg11.dtd">
<svg xmlns="http://www.w3.org/2000/svg" version="1.1" viewBox="0.00 0.00 48.00 48.00">
<g stroke-width="2.00" fill="none" stroke-linecap="butt">
<path stroke="#808080" vector-effect="non-scaling-stroke" d="
  M 33.35 2.79
  A 0.49 0.49 0.0 0 0 33.03 2.69
  L 4.55 4.61
  A 0.49 0.49 0.0 0 0 4.30 5.49
  L 9.81 9.55
  A 0.49 0.49 0.0 0 0 10.13 9.65
  L 38.61 7.73
  A 0.49 0.49 0.0 0 0 38.86 6.85
  L 33.35 2.79"
/>
<path stroke="#808080" vector-effect="non-scaling-stroke" d="
  M 27.3387 12.5908
  A 14.20 13.76 -89.4 0 0 13.4308 26.6459
  A 14.20 13.76 -89.4 0 0 27.0413 40.9892
  A 14.20 13.76 -89.4 0 0 40.9492 26.9341
  A 14.20 13.76 -89.4 0 0 27.3387 12.5908"
/>
<path stroke="#808080" vector-effect="non-scaling-stroke" d="
  M 27.1513 17.4901
  A 9.31 8.55 -90.3 0 0 18.6501 26.8448
  A 9.31 8.55 -90.3 0 0 27.2487 36.1099
  A 9.31 8.55 -90.3 0 0 35.7499 26.7552
  A 9.31 8.55 -90.3 0 0 27.1513 17.4901"
/>
</g>
<path fill="#000000" d="
  M 33.16 0.00
  L 45.24 8.29
  A 1.75 1.72 17.4 0 1 46.00 9.72
  L 46.00 43.47
  A 1.92 1.82 -29.4 0 1 45.68 44.51
  Q 44.58 46.15 42.48 46.26
  Q 28.89 46.95 15.28 48.00
  L 9.17 48.00
  L 0.00 36.04
  L 0.00 3.84
  Q 1.12 2.11 2.50 2.03
  Q 15.08 1.23 27.69 0.00
  L 33.16 0.00
  Z
  M 33.35 2.79
  A 0.49 0.49 0.0 0 0 33.03 2.69
  L 4.55 4.61
  A 0.49 0.49 0.0 0 0 4.30 5.49
  L 9.81 9.55
  A 0.49 0.49 0.0 0 0 10.13 9.65
  L 38.61 7.73
  A 0.49 0.49 0.0 0 0 38.86 6.85
  L 33.35 2.79
  Z
  M 27.3387 12.5908
  A 14.20 13.76 -89.4 0 0 13.4308 26.6459
  A 14.20 13.76 -89.4 0 0 27.0413 40.9892
  A 14.20 13.76 -89.4 0 0 40.9492 26.9341
  A 14.20 13.76 -89.4 0 0 27.3387 12.5908
  Z"
/>
<path fill="#ffffff" d="
  M 33.35 2.79
  L 38.86 6.85
  A 0.49 0.49 0.0 0 1 38.61 7.73
  L 10.13 9.65
  A 0.49 0.49 0.0 0 1 9.81 9.55
  L 4.30 5.49
  A 0.49 0.49 0.0 0 1 4.55 4.61
  L 33.03 2.69
  A 0.49 0.49 0.0 0 1 33.35 2.79
  Z"
/>
<path fill="#ffffff" d="
  M 27.3387 12.5908
  A 14.20 13.76 -89.4 0 1 40.9492 26.9341
  A 14.20 13.76 -89.4 0 1 27.0413 40.9892
  A 14.20 13.76 -89.4 0 1 13.4308 26.6459
  A 14.20 13.76 -89.4 0 1 27.3387 12.5908
  Z
  M 27.1513 17.4901
  A 9.31 8.55 -90.3 0 0 18.6501 26.8448
  A 9.31 8.55 -90.3 0 0 27.2487 36.1099
  A 9.31 8.55 -90.3 0 0 35.7499 26.7552
  A 9.31 8.55 -90.3 0 0 27.1513 17.4901
  Z"
/>
<ellipse fill="#000000" cx="0.00" cy="0.00" transform="translate(27.20,26.80) rotate(-90.3)" rx="9.31" ry="8.55"/>
</svg>
