<?xml version="1.0" encoding="UTF-8" standalone="no"?>
<!DOCTYPE svg PUBLIC "-//W3C//DTD SVG 1.1//EN" "http://www.w3.org/Graphics/SVG/1.1/DTD/svg11.dtd">
<svg xmlns="http://www.w3.org/2000/svg" version="1.1" viewBox="0.00 0.00 224.00 224.00">
<g stroke-width="2.00" fill="none" stroke-linecap="butt">
<path stroke="#e88080" vector-effect="non-scaling-stroke" d="
  M 65.95 113.15
  C 66.88 140.11 85.64 162.05 114.09 161.07
  C 142.54 160.09 159.74 136.91 158.81 109.95
  C 157.88 82.98 139.12 61.05 110.67 62.03
  C 82.22 63.01 65.02 86.18 65.95 113.15"
/>
<path stroke="#e88080" vector-effect="non-scaling-stroke" d="
  M 102.0901 66.3001
  A 46.36 32.14 -102.9 0 0 81.1112 118.6653
  A 46.36 32.14 -102.9 0 0 122.7899 156.6799
  A 46.36 32.14 -102.9 0 0 143.7688 104.3147
  A 46.36 32.14 -102.9 0 0 102.0901 66.3001"
/>
</g>
<path fill="#d00000" d="
  M 181.25 0.00
  Q 188.93 0.20 192.51 1.16
  Q 207.51 5.17 216.46 17.77
  Q 222.07 25.67 223.31 35.28
  Q 223.78 38.96 224.00 42.66
  L 224.00 181.36
  Q 223.82 188.42 222.84 192.51
  Q 219.85 205.01 209.47 213.96
  Q 200.49 221.72 188.71 223.29
  Q 185.10 223.77 181.45 224.00
  L 42.75 224.00
  Q 35.08 223.81 31.49 222.84
  Q 16.49 218.83 7.54 206.22
  Q 1.93 198.33 0.70 188.72
  Q 0.23 185.04 0.00 181.33
  L 0.00 42.76
  Q 0.25 39.26 0.65 35.78
  Q 1.63 27.02 6.42 19.65
  Q 19.11 0.11 42.65 0.00
  L 181.25 0.00
  Z
  M 65.95 113.15
  C 66.88 140.11 85.64 162.05 114.09 161.07
  C 142.54 160.09 159.74 136.91 158.81 109.95
  C 157.88 82.98 139.12 61.05 110.67 62.03
  C 82.22 63.01 65.02 86.18 65.95 113.15
  Z"
/>
<path fill="#ffffff" d="
  M 110.67 62.03
  C 139.12 61.05 157.88 82.98 158.81 109.95
  C 159.74 136.91 142.54 160.09 114.09 161.07
  C 85.64 162.05 66.88 140.11 65.95 113.15
  C 65.02 86.18 82.22 63.01 110.67 62.03
  Z
  M 102.0901 66.3001
  A 46.36 32.14 -102.9 0 0 81.1112 118.6653
  A 46.36 32.14 -102.9 0 0 122.7899 156.6799
  A 46.36 32.14 -102.9 0 0 143.7688 104.3147
  A 46.36 32.14 -102.9 0 0 102.0901 66.3001
  Z"
/>
<ellipse fill="#d00000" cx="0.00" cy="0.00" transform="translate(112.44,111.49) rotate(-102.9)" rx="46.36" ry="32.14"/>
</svg>
