<?xml version="1.0" encoding="UTF-8" standalone="no"?>
<!DOCTYPE svg PUBLIC "-//W3C//DTD SVG 1.1//EN" "http://www.w3.org/Graphics/SVG/1.1/DTD/svg11.dtd">
<svg xmlns="http://www.w3.org/2000/svg" version="1.1" viewBox="0.00 0.00 180.00 180.00">
<g stroke-width="2.00" fill="none" stroke-linecap="butt">
<path stroke="#8d8e90" vector-effect="non-scaling-stroke" d="
  M 39.29 104.02
  C 40.34 95.55 45.72 87.91 54.54 86.88
  C 59.21 86.34 62.94 89.79 62.98 94.27
  Q 63.03 99.64 63.21 100.92
  A 4.38 4.38 0.0 0 0 67.93 104.68
  L 67.99 104.68
  A 4.74 4.73 -2.3 0 0 72.31 100.00
  Q 72.38 92.21 72.36 74.37
  Q 72.35 71.27 71.47 69.86
  Q 70.10 67.69 67.36 67.97
  C 63.25 68.40 63.23 71.39 62.48 75.00
  Q 61.48 79.71 57.19 82.05
  C 55.26 83.10 52.12 83.09 50.64 83.39
  A 7.50 7.48 25.4 0 0 48.66 84.09
  C 47.34 84.78 46.37 85.90 44.81 85.83
  C 42.44 85.74 41.93 83.64 42.25 81.55
  C 46.67 52.55 73.61 33.85 102.34 41.17
  C 114.92 44.37 127.70 54.31 131.70 66.86
  C 133.23 71.67 132.98 77.22 129.46 80.72
  Q 126.01 84.16 121.44 82.66
  Q 115.64 80.76 115.39 71.23
  A 4.20 4.20 0.0 0 0 110.77 67.16
  L 110.65 67.17
  A 4.82 4.82 0.0 0 0 106.28 71.97
  L 106.29 103.74
  A 4.58 4.58 0.0 0 0 110.58 108.31
  L 110.83 108.33
  A 4.37 4.36 4.2 0 0 115.54 104.27
  Q 115.77 100.91 115.66 96.08
  C 115.57 92.44 116.94 90.30 119.62 88.24
  Q 120.41 87.64 124.80 86.93
  C 130.54 86.01 134.81 82.06 136.40 76.48
  C 139.53 65.41 134.32 56.13 126.28 48.67
  C 105.38 29.27 73.32 29.76 52.83 49.60
  C 38.10 63.85 33.14 84.21 38.76 104.06
  A 0.27 0.27 0.0 0 0 39.29 104.02"
/>
<path stroke="#8d8e90" vector-effect="non-scaling-stroke" d="
  M 101.24 53.59
  A 4.65 4.65 0.0 0 0 96.59 48.94
  L 96.43 48.94
  A 4.65 4.65 0.0 0 0 91.78 53.59
  L 91.78 114.47
  A 4.65 4.65 0.0 0 0 96.43 119.12
  L 96.59 119.12
  A 4.65 4.65 0.0 0 0 101.24 114.47
  L 101.24 53.59"
/>
<path stroke="#8d8e90" vector-effect="non-scaling-stroke" d="
  M 86.72 61.80
  A 4.61 4.61 0.0 0 0 82.11 57.19
  L 81.93 57.19
  A 4.61 4.61 0.0 0 0 77.32 61.80
  L 77.32 124.00
  A 4.61 4.61 0.0 0 0 81.93 128.61
  L 82.11 128.61
  A 4.61 4.61 0.0 0 0 86.72 124.00
  L 86.72 61.80"
/>
<path stroke="#8d8e90" vector-effect="non-scaling-stroke" d="
  M 141.05 72.89
  Q 139.61 87.35 126.46 90.59
  Q 122.56 91.55 121.69 92.58
  C 118.76 96.03 121.27 102.57 126.78 101.17
  A 3.86 3.84 -89.0 0 0 129.54 98.49
  Q 129.57 98.40 130.35 95.42
  C 131.03 92.79 134.26 90.54 136.75 92.60
  C 138.34 93.92 137.81 97.04 137.42 98.68
  C 132.95 117.91 117.92 132.74 98.80 136.19
  C 82.32 139.16 65.36 133.50 54.58 120.87
  C 47.63 112.72 42.93 98.86 56.11 93.91
  A 1.57 1.57 0.0 0 0 56.89 91.63
  L 56.78 91.46
  A 2.28 2.27 63.2 0 0 53.98 90.54
  Q 45.80 93.91 43.96 101.02
  Q 40.76 113.33 49.52 123.43
  C 75.24 153.11 122.47 146.35 138.93 110.75
  Q 146.94 93.41 141.57 72.85
  A 0.27 0.26 40.5 0 0 141.05 72.89"
/>
</g>
<path fill="#1c1d21" d="
  M 162.63 50.51
  L 162.63 130.02
  A 32.84 32.84 0.0 0 1 129.79 162.86
  L 50.28 162.86
  A 32.84 32.84 0.0 0 1 17.44 130.02
  L 17.44 50.51
  A 32.84 32.84 0.0 0 1 50.28 17.67
  L 129.79 17.67
  A 32.84 32.84 0.0 0 1 162.63 50.51
  Z
  M 39.29 104.02
  C 40.34 95.55 45.72 87.91 54.54 86.88
  C 59.21 86.34 62.94 89.79 62.98 94.27
  Q 63.03 99.64 63.21 100.92
  A 4.38 4.38 0.0 0 0 67.93 104.68
  L 67.99 104.68
  A 4.74 4.73 -2.3 0 0 72.31 100.00
  Q 72.38 92.21 72.36 74.37
  Q 72.35 71.27 71.47 69.86
  Q 70.10 67.69 67.36 67.97
  C 63.25 68.40 63.23 71.39 62.48 75.00
  Q 61.48 79.71 57.19 82.05
  C 55.26 83.10 52.12 83.09 50.64 83.39
  A 7.50 7.48 25.4 0 0 48.66 84.09
  C 47.34 84.78 46.37 85.90 44.81 85.83
  C 42.44 85.74 41.93 83.64 42.25 81.55
  C 46.67 52.55 73.61 33.85 102.34 41.17
  C 114.92 44.37 127.70 54.31 131.70 66.86
  C 133.23 71.67 132.98 77.22 129.46 80.72
  Q 126.01 84.16 121.44 82.66
  Q 115.64 80.76 115.39 71.23
  A 4.20 4.20 0.0 0 0 110.77 67.16
  L 110.65 67.17
  A 4.82 4.82 0.0 0 0 106.28 71.97
  L 106.29 103.74
  A 4.58 4.58 0.0 0 0 110.58 108.31
  L 110.83 108.33
  A 4.37 4.36 4.2 0 0 115.54 104.27
  Q 115.77 100.91 115.66 96.08
  C 115.57 92.44 116.94 90.30 119.62 88.24
  Q 120.41 87.64 124.80 86.93
  C 130.54 86.01 134.81 82.06 136.40 76.48
  C 139.53 65.41 134.32 56.13 126.28 48.67
  C 105.38 29.27 73.32 29.76 52.83 49.60
  C 38.10 63.85 33.14 84.21 38.76 104.06
  A 0.27 0.27 0.0 0 0 39.29 104.02
  Z
  M 101.24 53.59
  A 4.65 4.65 0.0 0 0 96.59 48.94
  L 96.43 48.94
  A 4.65 4.65 0.0 0 0 91.78 53.59
  L 91.78 114.47
  A 4.65 4.65 0.0 0 0 96.43 119.12
  L 96.59 119.12
  A 4.65 4.65 0.0 0 0 101.24 114.47
  L 101.24 53.59
  Z
  M 86.72 61.80
  A 4.61 4.61 0.0 0 0 82.11 57.19
  L 81.93 57.19
  A 4.61 4.61 0.0 0 0 77.32 61.80
  L 77.32 124.00
  A 4.61 4.61 0.0 0 0 81.93 128.61
  L 82.11 128.61
  A 4.61 4.61 0.0 0 0 86.72 124.00
  L 86.72 61.80
  Z
  M 141.05 72.89
  Q 139.61 87.35 126.46 90.59
  Q 122.56 91.55 121.69 92.58
  C 118.76 96.03 121.27 102.57 126.78 101.17
  A 3.86 3.84 -89.0 0 0 129.54 98.49
  Q 129.57 98.40 130.35 95.42
  C 131.03 92.79 134.26 90.54 136.75 92.60
  C 138.34 93.92 137.81 97.04 137.42 98.68
  C 132.95 117.91 117.92 132.74 98.80 136.19
  C 82.32 139.16 65.36 133.50 54.58 120.87
  C 47.63 112.72 42.93 98.86 56.11 93.91
  A 1.57 1.57 0.0 0 0 56.89 91.63
  L 56.78 91.46
  A 2.28 2.27 63.2 0 0 53.98 90.54
  Q 45.80 93.91 43.96 101.02
  Q 40.76 113.33 49.52 123.43
  C 75.24 153.11 122.47 146.35 138.93 110.75
  Q 146.94 93.41 141.57 72.85
  A 0.27 0.26 40.5 0 0 141.05 72.89
  Z"
/>
<path fill="#fefefe" d="
  M 39.29 104.02
  A 0.27 0.27 0.0 0 1 38.76 104.06
  C 33.14 84.21 38.10 63.85 52.83 49.60
  C 73.32 29.76 105.38 29.27 126.28 48.67
  C 134.32 56.13 139.53 65.41 136.40 76.48
  C 134.81 82.06 130.54 86.01 124.80 86.93
  Q 120.41 87.64 119.62 88.24
  C 116.94 90.30 115.57 92.44 115.66 96.08
  Q 115.77 100.91 115.54 104.27
  A 4.37 4.36 4.2 0 1 110.83 108.33
  L 110.58 108.31
  A 4.58 4.58 0.0 0 1 106.29 103.74
  L 106.28 71.97
  A 4.82 4.82 0.0 0 1 110.65 67.17
  L 110.77 67.16
  A 4.20 4.20 0.0 0 1 115.39 71.23
  Q 115.64 80.76 121.44 82.66
  Q 126.01 84.16 129.46 80.72
  C 132.98 77.22 133.23 71.67 131.70 66.86
  C 127.70 54.31 114.92 44.37 102.34 41.17
  C 73.61 33.85 46.67 52.55 42.25 81.55
  C 41.93 83.64 42.44 85.74 44.81 85.83
  C 46.37 85.90 47.34 84.78 48.66 84.09
  A 7.50 7.48 25.4 0 1 50.64 83.39
  C 52.12 83.09 55.26 83.10 57.19 82.05
  Q 61.48 79.71 62.48 75.00
  C 63.23 71.39 63.25 68.40 67.36 67.97
  Q 70.10 67.69 71.47 69.86
  Q 72.35 71.27 72.36 74.37
  Q 72.38 92.21 72.31 100.00
  A 4.74 4.73 -2.3 0 1 67.99 104.68
  L 67.93 104.68
  A 4.38 4.38 0.0 0 1 63.21 100.92
  Q 63.03 99.64 62.98 94.27
  C 62.94 89.79 59.21 86.34 54.54 86.88
  C 45.72 87.91 40.34 95.55 39.29 104.02
  Z"
/>
<rect fill="#fefefe" x="91.78" y="48.94" width="9.46" height="70.18" rx="4.65"/>
<rect fill="#fefefe" x="77.32" y="57.19" width="9.40" height="71.42" rx="4.61"/>
<path fill="#fefefe" d="
  M 141.05 72.89
  A 0.27 0.26 40.5 0 1 141.57 72.85
  Q 146.94 93.41 138.93 110.75
  C 122.47 146.35 75.24 153.11 49.52 123.43
  Q 40.76 113.33 43.96 101.02
  Q 45.80 93.91 53.98 90.54
  A 2.28 2.27 63.2 0 1 56.78 91.46
  L 56.89 91.63
  A 1.57 1.57 0.0 0 1 56.11 93.91
  C 42.93 98.86 47.63 112.72 54.58 120.87
  C 65.36 133.50 82.32 139.16 98.80 136.19
  C 117.92 132.74 132.95 117.91 137.42 98.68
  C 137.81 97.04 138.34 93.92 136.75 92.60
  C 134.26 90.54 131.03 92.79 130.35 95.42
  Q 129.57 98.40 129.54 98.49
  A 3.86 3.84 -89.0 0 1 126.78 101.17
  C 121.27 102.57 118.76 96.03 121.69 92.58
  Q 122.56 91.55 126.46 90.59
  Q 139.61 87.35 141.05 72.89
  Z"
/>
</svg>
