<?xml version="1.0" encoding="UTF-8" standalone="no"?>
<!DOCTYPE svg PUBLIC "-//W3C//DTD SVG 1.1//EN" "http://www.w3.org/Graphics/SVG/1.1/DTD/svg11.dtd">
<svg xmlns="http://www.w3.org/2000/svg" version="1.1" viewBox="0.00 0.00 512.00 512.00">
<g stroke-width="2.00" fill="none" stroke-linecap="butt">
<path stroke="#40aef7" vector-effect="non-scaling-stroke" d="
  M 147.02 0.00
  C 143.11 9.97 136.43 18.11 128.92 25.64
  Q 77.42 77.31 25.71 128.78
  Q 13.97 140.46 0.00 149.32"
/>
<path stroke="#45a3f6" vector-effect="non-scaling-stroke" d="
  M 297.23 0.00
  Q 249.73 47.71 202.20 95.19
  Q 185.53 111.84 174.41 126.60"
/>
<path stroke="#9dd2fa" vector-effect="non-scaling-stroke" d="
  M 174.41 126.60
  L 128.67 143.78
  A 0.74 0.74 0.0 0 0 128.19 144.47
  L 128.01 174.46"
/>
<path stroke="#45a3f6" vector-effect="non-scaling-stroke" d="
  M 128.01 174.46
  Q 112.87 187.87 94.00 206.75
  Q 60.24 240.53 26.38 274.22
  C 18.19 282.37 10.56 288.63 0.00 292.51"
/>
<path stroke="#4b98f5" vector-effect="non-scaling-stroke" d="
  M 361.13 0.00
  Q 354.24 11.05 345.88 19.59
  Q 323.85 42.11 289.52 76.24
  Q 281.54 84.17 267.44 100.29"
/>
<path stroke="#a0ccfa" vector-effect="non-scaling-stroke" d="
  M 267.44 100.29
  L 256.69 96.36
  A 2.01 1.95 -44.6 0 0 255.34 96.37
  L 174.41 126.60"
/>
<path stroke="#4f8ff5" vector-effect="non-scaling-stroke" d="
  M 484.37 28.57
  Q 439.59 72.91 395.41 117.49
  Q 384.72 128.29 376.22 141.08"
/>
<path stroke="#a2c6fa" vector-effect="non-scaling-stroke" d="
  M 376.22 141.08
  L 267.44 100.29"
/>
<path stroke="#5485f4" vector-effect="non-scaling-stroke" d="
  M 512.00 144.43
  Q 497.33 156.44 489.51 164.28
  Q 419.54 234.37 398.55 255.12
  Q 395.20 258.44 381.77 270.83"
/>
<path stroke="#a4c3f9" vector-effect="non-scaling-stroke" d="
  M 381.77 270.83
  Q 383.94 255.26 383.96 245.73
  Q 384.06 195.15 383.99 144.53
  A 0.71 0.71 0.0 0 0 383.52 143.86
  L 376.22 141.08"
/>
<path stroke="#a7bdf9" vector-effect="non-scaling-stroke" d="
  M 381.77 270.83
  C 371.20 342.06 324.44 405.57 256.44 431.82
  A 1.22 1.19 44.1 0 1 255.59 431.82
  Q 243.77 427.27 232.69 421.19"
/>
<path stroke="#a4c3f9" vector-effect="non-scaling-stroke" d="
  M 232.69 421.19
  Q 210.44 408.84 192.03 391.29"
/>
<path stroke="#a2c6fa" vector-effect="non-scaling-stroke" d="
  M 192.03 391.29
  Q 154.33 354.77 138.08 304.68"
/>
<path stroke="#a0ccfa" vector-effect="non-scaling-stroke" d="
  M 138.08 304.68
  Q 128.01 272.85 128.00 235.25
  Q 128.00 204.95 128.01 174.46"
/>
<path stroke="#a0ccfa" vector-effect="non-scaling-stroke" d="
  M 228.49 248.48
  L 220.37 240.35
  A 0.51 0.51 0.0 0 0 219.65 240.35
  L 200.36 259.64
  A 0.47 0.47 0.0 0 0 200.36 260.31
  L 205.99 265.91"
/>
<path stroke="#a2c6fa" vector-effect="non-scaling-stroke" d="
  M 205.99 265.91
  L 219.48 279.38"
/>
<path stroke="#a4c3f9" vector-effect="non-scaling-stroke" d="
  M 219.48 279.38
  L 235.69 295.55
  A 0.53 0.52 44.6 0 0 236.44 295.55
  L 311.57 220.42
  A 0.53 0.52 -44.6 0 0 311.58 219.68
  L 302.49 210.50"
/>
<path stroke="#a2c6fa" vector-effect="non-scaling-stroke" d="
  M 302.49 210.50
  L 292.37 200.35
  A 0.51 0.51 0.0 0 0 291.65 200.35
  L 236.31 255.69
  A 0.45 0.45 0.0 0 1 235.67 255.69
  L 228.49 248.48"
/>
<path stroke="#4f8ff5" vector-effect="non-scaling-stroke" d="
  M 302.49 210.50
  Q 292.03 217.38 283.67 224.49
  Q 265.83 239.63 219.48 279.38"
/>
<path stroke="#4b98f5" vector-effect="non-scaling-stroke" d="
  M 205.99 265.91
  L 228.49 248.48"
/>
<path stroke="#597bf3" vector-effect="non-scaling-stroke" d="
  M 512.00 287.89
  Q 510.35 289.61 509.81 292.38
  A 1.78 1.76 71.3 0 1 509.39 293.24
  Q 498.22 305.94 489.34 314.86
  Q 463.01 341.31 322.75 481.50
  Q 306.63 497.61 293.32 509.37
  A 1.63 1.59 -68.8 0 1 292.44 509.77
  Q 289.46 510.16 287.91 512.00"
/>
<path stroke="#5485f4" vector-effect="non-scaling-stroke" d="
  M 144.74 512.00
  Q 155.32 498.50 169.05 484.74
  Q 200.82 452.89 232.69 421.19"
/>
<path stroke="#4b98f5" vector-effect="non-scaling-stroke" d="
  M 138.08 304.68
  Q 123.28 318.32 109.17 332.42
  C 73.76 367.81 38.64 403.59 2.64 438.38"
/>
<path stroke="#4f8ff5" vector-effect="non-scaling-stroke" d="
  M 192.03 391.29
  Q 147.47 435.84 102.95 480.42
  Q 87.96 495.43 76.45 509.99"
/>
</g>
<path fill="#3db3f7" d="
  M 147.02 0.00
  C 143.11 9.97 136.43 18.11 128.92 25.64
  Q 77.42 77.31 25.71 128.78
  Q 13.97 140.46 0.00 149.32
  L 0.00 91.32
  C 3.20 41.21 41.32 3.35 91.35 0.00
  L 147.02 0.00
  Z"
/>
<path fill="#42a9f6" d="
  M 297.23 0.00
  Q 249.73 47.71 202.20 95.19
  Q 185.53 111.84 174.41 126.60
  L 128.67 143.78
  A 0.74 0.74 0.0 0 0 128.19 144.47
  L 128.01 174.46
  Q 112.87 187.87 94.00 206.75
  Q 60.24 240.53 26.38 274.22
  C 18.19 282.37 10.56 288.63 0.00 292.51
  L 0.00 149.32
  Q 13.97 140.46 25.71 128.78
  Q 77.42 77.31 128.92 25.64
  C 136.43 18.11 143.11 9.97 147.02 0.00
  L 297.23 0.00
  Z"
/>
<path fill="#489df5" d="
  M 361.13 0.00
  Q 354.24 11.05 345.88 19.59
  Q 323.85 42.11 289.52 76.24
  Q 281.54 84.17 267.44 100.29
  L 256.69 96.36
  A 2.01 1.95 -44.6 0 0 255.34 96.37
  L 174.41 126.60
  Q 185.53 111.84 202.20 95.19
  Q 249.73 47.71 297.23 0.00
  L 361.13 0.00
  Z"
/>
<path fill="#4d92f5" d="
  M 420.58 0.00
  Q 458.03 2.43 484.37 28.57
  Q 439.59 72.91 395.41 117.49
  Q 384.72 128.29 376.22 141.08
  L 267.44 100.29
  Q 281.54 84.17 289.52 76.24
  Q 323.85 42.11 345.88 19.59
  Q 354.24 11.05 361.13 0.00
  L 420.58 0.00
  Z"
/>
<path fill="#518bf4" d="
  M 512.00 91.27
  L 512.00 144.43
  Q 497.33 156.44 489.51 164.28
  Q 419.54 234.37 398.55 255.12
  Q 395.20 258.44 381.77 270.83
  Q 383.94 255.26 383.96 245.73
  Q 384.06 195.15 383.99 144.53
  A 0.71 0.71 0.0 0 0 383.52 143.86
  L 376.22 141.08
  Q 384.72 128.29 395.41 117.49
  Q 439.59 72.91 484.37 28.57
  Q 509.57 54.70 512.00 91.27
  Z"
/>
<path fill="#f7fafe" d="
  M 267.44 100.29
  L 376.22 141.08
  L 383.52 143.86
  A 0.71 0.71 0.0 0 1 383.99 144.53
  Q 384.06 195.15 383.96 245.73
  Q 383.94 255.26 381.77 270.83
  C 371.20 342.06 324.44 405.57 256.44 431.82
  A 1.22 1.19 44.1 0 1 255.59 431.82
  Q 243.77 427.27 232.69 421.19
  Q 210.44 408.84 192.03 391.29
  Q 154.33 354.77 138.08 304.68
  Q 128.01 272.85 128.00 235.25
  Q 128.00 204.95 128.01 174.46
  L 128.19 144.47
  A 0.74 0.74 0.0 0 1 128.67 143.78
  L 174.41 126.60
  L 255.34 96.37
  A 2.01 1.95 -44.6 0 1 256.69 96.36
  L 267.44 100.29
  Z
  M 228.49 248.48
  L 220.37 240.35
  A 0.51 0.51 0.0 0 0 219.65 240.35
  L 200.36 259.64
  A 0.47 0.47 0.0 0 0 200.36 260.31
  L 205.99 265.91
  L 219.48 279.38
  L 235.69 295.55
  A 0.53 0.52 44.6 0 0 236.44 295.55
  L 311.57 220.42
  A 0.53 0.52 -44.6 0 0 311.58 219.68
  L 302.49 210.50
  L 292.37 200.35
  A 0.51 0.51 0.0 0 0 291.65 200.35
  L 236.31 255.69
  A 0.45 0.45 0.0 0 1 235.67 255.69
  L 228.49 248.48
  Z"
/>
<path fill="#577ff3" d="
  M 512.00 144.43
  L 512.00 287.89
  Q 510.35 289.61 509.81 292.38
  A 1.78 1.76 71.3 0 1 509.39 293.24
  Q 498.22 305.94 489.34 314.86
  Q 463.01 341.31 322.75 481.50
  Q 306.63 497.61 293.32 509.37
  A 1.63 1.59 -68.8 0 1 292.44 509.77
  Q 289.46 510.16 287.91 512.00
  L 144.74 512.00
  Q 155.32 498.50 169.05 484.74
  Q 200.82 452.89 232.69 421.19
  Q 243.77 427.27 255.59 431.82
  A 1.22 1.19 44.1 0 0 256.44 431.82
  C 324.44 405.57 371.20 342.06 381.77 270.83
  Q 395.20 258.44 398.55 255.12
  Q 419.54 234.37 489.51 164.28
  Q 497.33 156.44 512.00 144.43
  Z"
/>
<path fill="#489df5" d="
  M 128.01 174.46
  Q 128.00 204.95 128.00 235.25
  Q 128.01 272.85 138.08 304.68
  Q 123.28 318.32 109.17 332.42
  C 73.76 367.81 38.64 403.59 2.64 438.38
  L 0.00 420.85
  L 0.00 292.51
  C 10.56 288.63 18.19 282.37 26.38 274.22
  Q 60.24 240.53 94.00 206.75
  Q 112.87 187.87 128.01 174.46
  Z"
/>
<path fill="#4d92f5" d="
  M 302.49 210.50
  Q 292.03 217.38 283.67 224.49
  Q 265.83 239.63 219.48 279.38
  L 205.99 265.91
  L 228.49 248.48
  L 235.67 255.69
  A 0.45 0.45 0.0 0 0 236.31 255.69
  L 291.65 200.35
  A 0.51 0.51 0.0 0 1 292.37 200.35
  L 302.49 210.50
  Z"
/>
<path fill="#518bf4" d="
  M 302.49 210.50
  L 311.58 219.68
  A 0.53 0.52 -44.6 0 1 311.57 220.42
  L 236.44 295.55
  A 0.53 0.52 44.6 0 1 235.69 295.55
  L 219.48 279.38
  Q 265.83 239.63 283.67 224.49
  Q 292.03 217.38 302.49 210.50
  Z"
/>
<path fill="#489df5" d="
  M 228.49 248.48
  L 205.99 265.91
  L 200.36 260.31
  A 0.47 0.47 0.0 0 1 200.36 259.64
  L 219.65 240.35
  A 0.51 0.51 0.0 0 1 220.37 240.35
  L 228.49 248.48
  Z"
/>
<path fill="#5b76f2" d="
  M 512.00 287.89
  L 512.00 420.42
  Q 510.00 453.69 489.26 478.00
  Q 462.63 509.19 420.43 512.00
  L 287.91 512.00
  Q 289.46 510.16 292.44 509.77
  A 1.63 1.59 -68.8 0 0 293.32 509.37
  Q 306.63 497.61 322.75 481.50
  Q 463.01 341.31 489.34 314.86
  Q 498.22 305.94 509.39 293.24
  A 1.78 1.76 71.3 0 0 509.81 292.38
  Q 510.35 289.61 512.00 287.89
  Z"
/>
<path fill="#4d92f5" d="
  M 138.08 304.68
  Q 154.33 354.77 192.03 391.29
  Q 147.47 435.84 102.95 480.42
  Q 87.96 495.43 76.45 509.99
  C 39.95 502.13 11.46 474.70 2.64 438.38
  C 38.64 403.59 73.76 367.81 109.17 332.42
  Q 123.28 318.32 138.08 304.68
  Z"
/>
<path fill="#518bf4" d="
  M 232.69 421.19
  Q 200.82 452.89 169.05 484.74
  Q 155.32 498.50 144.74 512.00
  L 91.47 512.00
  L 76.45 509.99
  Q 87.96 495.43 102.95 480.42
  Q 147.47 435.84 192.03 391.29
  Q 210.44 408.84 232.69 421.19
  Z"
/>
</svg>
