<?xml version="1.0" encoding="UTF-8" standalone="no"?>
<!DOCTYPE svg PUBLIC "-//W3C//DTD SVG 1.1//EN" "http://www.w3.org/Graphics/SVG/1.1/DTD/svg11.dtd">
<svg xmlns="http://www.w3.org/2000/svg" version="1.1" viewBox="0.00 0.00 821.00 821.00">
<g stroke-width="2.00" fill="none" stroke-linecap="butt">
<path stroke="#0e0f68" vector-effect="non-scaling-stroke" d="
  M 143.19 469.43
  Q 144.98 467.29 147.62 467.57
  Q 150.40 467.87 150.41 467.87
  Q 171.54 467.71 187.44 467.88
  Q 201.02 468.02 205.43 466.48
  C 216.90 462.48 224.72 452.05 224.77 439.50
  Q 224.90 411.18 224.79 382.75
  Q 224.77 375.85 223.66 372.27
  Q 219.32 358.20 205.92 353.60
  C 201.03 351.92 196.29 351.85 190.75 352.04
  Q 184.51 352.25 164.95 351.99"
/>
<path stroke="#7c272c" vector-effect="non-scaling-stroke" d="
  M 164.95 351.99
  Q 122.85 351.78 81.25 351.70
  Q 75.80 351.69 71.10 352.64
  C 61.39 354.61 53.91 361.29 50.48 370.41
  Q 49.08 374.13 48.97 382.74
  Q 48.75 399.04 48.67 431.52
  Q 48.64 444.53 50.40 449.27
  C 54.98 461.61 65.91 467.78 78.99 467.92
  Q 89.45 468.04 93.67 467.89
  A 0.68 0.67 -0.8 0 1 94.37 468.56
  L 94.37 541.29
  A 0.36 0.35 -15.8 0 0 94.91 541.59
  Q 95.44 541.28 95.88 540.62
  Q 119.69 505.13 143.19 469.43"
/>
<path stroke="#8a3556" vector-effect="non-scaling-stroke" d="
  M 164.95 351.99
  L 129.35 422.03
  A 0.89 0.89 0.0 0 0 130.14 423.32
  L 173.24 423.32
  A 0.56 0.56 0.0 0 1 173.70 424.19
  L 143.19 469.43"
/>
<path stroke="#80809e" vector-effect="non-scaling-stroke" d="
  M 260.27 357.48
  L 260.27 460.10
  A 0.71 0.71 0.0 0 0 260.98 460.81
  L 279.49 460.81
  A 0.95 0.95 0.0 0 0 280.44 459.86
  L 280.44 429.95
  A 0.81 0.80 0.7 0 1 281.27 429.15
  Q 290.63 429.40 301.22 428.93
  Q 310.86 428.50 318.85 424.63
  Q 336.30 416.17 337.28 396.26
  Q 337.63 389.08 336.52 383.50
  C 334.07 371.14 324.96 362.73 312.92 359.10
  Q 305.58 356.89 295.25 356.83
  Q 272.82 356.71 260.89 356.85
  A 0.63 0.63 0.0 0 0 260.27 357.48"
/>
<path stroke="#80809e" vector-effect="non-scaling-stroke" d="
  M 449.69 460.79
  A 0.63 0.63 0.0 0 0 450.32 460.16
  L 450.32 358.16
  A 0.63 0.63 0.0 0 0 449.69 357.53
  L 421.42 357.53
  A 0.63 0.63 0.0 0 0 420.79 358.16
  L 420.79 371.71
  A 0.63 0.63 0.0 0 0 421.42 372.34
  L 429.91 372.34
  A 0.63 0.63 0.0 0 1 430.54 372.97
  L 430.54 460.16
  A 0.63 0.63 0.0 0 0 431.17 460.79
  L 449.69 460.79"
/>
<path stroke="#80809e" vector-effect="non-scaling-stroke" d="
  M 566.78 445.85
  A 0.36 0.36 0.0 0 1 567.45 445.84
  C 572.84 459.23 585.81 463.97 599.47 463.22
  Q 610.70 462.60 619.93 454.96
  C 632.56 444.50 634.96 424.99 631.80 410.16
  C 628.16 393.08 614.47 381.23 596.76 381.66
  C 586.25 381.92 577.57 386.17 571.69 394.74
  A 0.59 0.59 0.0 0 1 570.61 394.40
  L 570.61 358.29
  A 0.78 0.78 0.0 0 0 569.83 357.51
  L 551.56 357.51
  A 0.65 0.64 90.0 0 0 550.92 358.16
  L 550.92 459.82
  A 1.00 1.00 0.0 0 0 551.92 460.82
  L 565.72 460.82
  A 0.79 0.79 0.0 0 0 566.51 460.02
  C 566.42 453.52 566.00 448.00 566.78 445.85"
/>
<path stroke="#80809e" vector-effect="non-scaling-stroke" d="
  M 395.51 448.30
  L 395.51 459.89
  A 0.93 0.93 0.0 0 0 396.44 460.82
  L 410.19 460.82
  A 0.95 0.95 0.0 0 0 411.14 459.87
  Q 411.13 430.67 411.11 412.27
  C 411.10 390.73 396.26 382.92 376.72 382.89
  Q 361.64 382.87 351.94 383.86
  A 0.88 0.86 -2.9 0 0 351.15 384.72
  L 351.15 399.86
  A 0.66 0.66 0.0 0 0 351.86 400.52
  Q 361.57 399.92 375.52 399.59
  Q 383.74 399.40 386.76 401.17
  Q 392.16 404.33 392.22 412.41
  A 0.91 0.91 0.0 0 1 391.30 413.33
  Q 379.94 413.14 370.52 413.71
  C 354.76 414.67 340.97 422.56 342.65 440.62
  C 344.32 458.46 360.46 464.62 376.32 462.35
  Q 389.60 460.45 394.73 448.14
  A 0.41 0.40 56.4 0 1 395.51 448.30"
/>
<path stroke="#80809e" vector-effect="non-scaling-stroke" d="
  M 516.82 448.29
  L 516.81 459.87
  A 0.93 0.93 0.0 0 0 517.74 460.80
  L 531.49 460.80
  A 0.95 0.95 0.0 0 0 532.44 459.85
  Q 532.43 430.67 532.41 412.28
  C 532.41 390.75 517.58 382.94 498.05 382.91
  Q 482.98 382.89 473.28 383.87
  A 0.88 0.86 -2.9 0 0 472.49 384.73
  L 472.49 399.87
  A 0.66 0.66 0.0 0 0 473.20 400.53
  Q 482.90 399.93 496.85 399.60
  Q 505.06 399.41 508.08 401.18
  Q 513.48 404.34 513.53 412.42
  A 0.91 0.91 0.0 0 1 512.61 413.34
  Q 501.26 413.14 491.85 413.71
  C 476.10 414.67 462.31 422.55 463.99 440.60
  C 465.65 458.43 481.78 464.59 497.63 462.33
  Q 510.91 460.43 516.04 448.13
  A 0.41 0.40 56.4 0 1 516.82 448.29"
/>
<path stroke="#80809e" vector-effect="non-scaling-stroke" d="
  M 750.48 448.29
  L 750.49 459.88
  A 0.93 0.93 0.0 0 0 751.42 460.81
  L 765.16 460.81
  A 0.95 0.95 0.0 0 0 766.11 459.86
  Q 766.10 430.66 766.07 412.27
  C 766.06 390.73 751.22 382.93 731.69 382.90
  Q 716.61 382.88 706.92 383.88
  A 0.88 0.86 -3.0 0 0 706.13 384.74
  L 706.13 399.87
  A 0.66 0.66 0.0 0 0 706.84 400.53
  Q 716.55 399.93 730.49 399.60
  Q 738.71 399.41 741.73 401.18
  Q 747.13 404.33 747.19 412.41
  A 0.91 0.91 0.0 0 1 746.27 413.33
  Q 734.91 413.14 725.50 413.71
  C 709.74 414.68 695.96 422.57 697.64 440.62
  C 699.31 458.46 715.45 464.61 731.30 462.34
  Q 744.58 460.44 749.70 448.13
  A 0.41 0.40 56.4 0 1 750.48 448.29"
/>
<path stroke="#80809e" vector-effect="non-scaling-stroke" d="
  M 663.12 405.22
  L 663.41 385.15
  A 1.02 1.01 -89.4 0 0 662.40 384.11
  L 648.03 384.11
  A 0.59 0.58 -90.0 0 0 647.45 384.70
  L 647.45 459.90
  A 0.90 0.90 0.0 0 0 648.35 460.80
  L 666.57 460.80
  A 0.86 0.86 0.0 0 0 667.43 459.95
  Q 667.56 433.88 667.42 426.77
  Q 667.19 414.87 668.90 410.97
  C 673.11 401.34 682.67 399.68 692.41 400.15
  A 1.28 1.28 0.0 0 0 693.76 398.87
  L 693.76 383.83
  A 0.79 0.79 0.0 0 0 692.98 383.04
  C 686.34 382.93 679.69 383.63 674.19 387.63
  C 670.02 390.67 666.18 395.59 664.85 400.83
  Q 664.47 402.33 663.24 405.24
  A 0.06 0.06 0.0 0 1 663.12 405.22"
/>
<path stroke="#80809e" vector-effect="non-scaling-stroke" d="
  M 280.48 375.07
  L 280.42 410.99
  A 0.78 0.78 0.0 0 0 281.20 411.77
  L 299.14 411.80
  A 17.64 17.61 0.1 0 0 316.81 394.22
  L 316.81 391.96
  A 17.64 17.61 0.1 0 0 299.20 374.32
  L 281.26 374.29
  A 0.78 0.78 0.0 0 0 280.48 375.07"
/>
<path stroke="#80809e" vector-effect="non-scaling-stroke" d="
  M 569.91 421.93
  Q 569.78 427.85 570.61 430.73
  C 573.42 440.48 580.50 446.44 590.89 446.67
  C 601.27 446.90 608.61 441.27 611.86 431.65
  Q 612.82 428.81 612.95 422.90
  Q 613.08 416.98 612.25 414.10
  C 609.44 404.35 602.36 398.39 591.97 398.15
  C 581.59 397.92 574.25 403.56 571.00 413.18
  Q 570.04 416.02 569.91 421.93"
/>
<path stroke="#80809e" vector-effect="non-scaling-stroke" d="
  M 391.41 425.37
  Q 388.53 425.18 379.41 425.22
  Q 373.46 425.24 372.17 425.49
  C 357.36 428.29 358.88 448.42 374.64 448.61
  Q 379.47 448.67 380.80 448.32
  Q 389.35 446.06 391.36 437.65
  Q 392.47 432.99 392.14 426.11
  A 0.79 0.78 90.0 0 0 391.41 425.37"
/>
<path stroke="#80809e" vector-effect="non-scaling-stroke" d="
  M 512.85 425.30
  Q 509.97 425.13 500.85 425.20
  Q 494.90 425.24 493.61 425.50
  C 478.81 428.36 480.41 448.48 496.17 448.61
  Q 501.00 448.65 502.33 448.30
  Q 510.87 446.00 512.84 437.58
  Q 513.94 432.92 513.58 426.04
  A 0.79 0.78 89.8 0 0 512.85 425.30"
/>
<path stroke="#80809e" vector-effect="non-scaling-stroke" d="
  M 746.38 425.34
  Q 743.50 425.16 734.38 425.24
  Q 728.43 425.29 727.14 425.55
  C 712.35 428.42 713.96 448.54 729.72 448.65
  Q 734.55 448.69 735.88 448.33
  Q 744.42 446.03 746.39 437.61
  Q 747.47 432.95 747.11 426.07
  A 0.79 0.78 89.7 0 0 746.38 425.34"
/>
</g>
<path fill="#00013d" d="
  M 821.00 0.00
  L 821.00 821.00
  L 0.00 821.00
  L 0.00 0.00
  L 821.00 0.00
  Z
  M 143.19 469.43
  Q 144.98 467.29 147.62 467.57
  Q 150.40 467.87 150.41 467.87
  Q 171.54 467.71 187.44 467.88
  Q 201.02 468.02 205.43 466.48
  C 216.90 462.48 224.72 452.05 224.77 439.50
  Q 224.90 411.18 224.79 382.75
  Q 224.77 375.85 223.66 372.27
  Q 219.32 358.20 205.92 353.60
  C 201.03 351.92 196.29 351.85 190.75 352.04
  Q 184.51 352.25 164.95 351.99
  Q 122.85 351.78 81.25 351.70
  Q 75.80 351.69 71.10 352.64
  C 61.39 354.61 53.91 361.29 50.48 370.41
  Q 49.08 374.13 48.97 382.74
  Q 48.75 399.04 48.67 431.52
  Q 48.64 444.53 50.40 449.27
  C 54.98 461.61 65.91 467.78 78.99 467.92
  Q 89.45 468.04 93.67 467.89
  A 0.68 0.67 -0.8 0 1 94.37 468.56
  L 94.37 541.29
  A 0.36 0.35 -15.8 0 0 94.91 541.59
  Q 95.44 541.28 95.88 540.62
  Q 119.69 505.13 143.19 469.43
  Z
  M 260.27 357.48
  L 260.27 460.10
  A 0.71 0.71 0.0 0 0 260.98 460.81
  L 279.49 460.81
  A 0.95 0.95 0.0 0 0 280.44 459.86
  L 280.44 429.95
  A 0.81 0.80 0.7 0 1 281.27 429.15
  Q 290.63 429.40 301.22 428.93
  Q 310.86 428.50 318.85 424.63
  Q 336.30 416.17 337.28 396.26
  Q 337.63 389.08 336.52 383.50
  C 334.07 371.14 324.96 362.73 312.92 359.10
  Q 305.58 356.89 295.25 356.83
  Q 272.82 356.71 260.89 356.85
  A 0.63 0.63 0.0 0 0 260.27 357.48
  Z
  M 449.69 460.79
  A 0.63 0.63 0.0 0 0 450.32 460.16
  L 450.32 358.16
  A 0.63 0.63 0.0 0 0 449.69 357.53
  L 421.42 357.53
  A 0.63 0.63 0.0 0 0 420.79 358.16
  L 420.79 371.71
  A 0.63 0.63 0.0 0 0 421.42 372.34
  L 429.91 372.34
  A 0.63 0.63 0.0 0 1 430.54 372.97
  L 430.54 460.16
  A 0.63 0.63 0.0 0 0 431.17 460.79
  L 449.69 460.79
  Z
  M 566.78 445.85
  A 0.36 0.36 0.0 0 1 567.45 445.84
  C 572.84 459.23 585.81 463.97 599.47 463.22
  Q 610.70 462.60 619.93 454.96
  C 632.56 444.50 634.96 424.99 631.80 410.16
  C 628.16 393.08 614.47 381.23 596.76 381.66
  C 586.25 381.92 577.57 386.17 571.69 394.74
  A 0.59 0.59 0.0 0 1 570.61 394.40
  L 570.61 358.29
  A 0.78 0.78 0.0 0 0 569.83 357.51
  L 551.56 357.51
  A 0.65 0.64 90.0 0 0 550.92 358.16
  L 550.92 459.82
  A 1.00 1.00 0.0 0 0 551.92 460.82
  L 565.72 460.82
  A 0.79 0.79 0.0 0 0 566.51 460.02
  C 566.42 453.52 566.00 448.00 566.78 445.85
  Z
  M 395.51 448.30
  L 395.51 459.89
  A 0.93 0.93 0.0 0 0 396.44 460.82
  L 410.19 460.82
  A 0.95 0.95 0.0 0 0 411.14 459.87
  Q 411.13 430.67 411.11 412.27
  C 411.10 390.73 396.26 382.92 376.72 382.89
  Q 361.64 382.87 351.94 383.86
  A 0.88 0.86 -2.9 0 0 351.15 384.72
  L 351.15 399.86
  A 0.66 0.66 0.0 0 0 351.86 400.52
  Q 361.57 399.92 375.52 399.59
  Q 383.74 399.40 386.76 401.17
  Q 392.16 404.33 392.22 412.41
  A 0.91 0.91 0.0 0 1 391.30 413.33
  Q 379.94 413.14 370.52 413.71
  C 354.76 414.67 340.97 422.56 342.65 440.62
  C 344.32 458.46 360.46 464.62 376.32 462.35
  Q 389.60 460.45 394.73 448.14
  A 0.41 0.40 56.4 0 1 395.51 448.30
  Z
  M 516.82 448.29
  L 516.81 459.87
  A 0.93 0.93 0.0 0 0 517.74 460.80
  L 531.49 460.80
  A 0.95 0.95 0.0 0 0 532.44 459.85
  Q 532.43 430.67 532.41 412.28
  C 532.41 390.75 517.58 382.94 498.05 382.91
  Q 482.98 382.89 473.28 383.87
  A 0.88 0.86 -2.9 0 0 472.49 384.73
  L 472.49 399.87
  A 0.66 0.66 0.0 0 0 473.20 400.53
  Q 482.90 399.93 496.85 399.60
  Q 505.06 399.41 508.08 401.18
  Q 513.48 404.34 513.53 412.42
  A 0.91 0.91 0.0 0 1 512.61 413.34
  Q 501.26 413.14 491.85 413.71
  C 476.10 414.67 462.31 422.55 463.99 440.60
  C 465.65 458.43 481.78 464.59 497.63 462.33
  Q 510.91 460.43 516.04 448.13
  A 0.41 0.40 56.4 0 1 516.82 448.29
  Z
  M 750.48 448.29
  L 750.49 459.88
  A 0.93 0.93 0.0 0 0 751.42 460.81
  L 765.16 460.81
  A 0.95 0.95 0.0 0 0 766.11 459.86
  Q 766.10 430.66 766.07 412.27
  C 766.06 390.73 751.22 382.93 731.69 382.90
  Q 716.61 382.88 706.92 383.88
  A 0.88 0.86 -3.0 0 0 706.13 384.74
  L 706.13 399.87
  A 0.66 0.66 0.0 0 0 706.84 400.53
  Q 716.55 399.93 730.49 399.60
  Q 738.71 399.41 741.73 401.18
  Q 747.13 404.33 747.19 412.41
  A 0.91 0.91 0.0 0 1 746.27 413.33
  Q 734.91 413.14 725.50 413.71
  C 709.74 414.68 695.96 422.57 697.64 440.62
  C 699.31 458.46 715.45 464.61 731.30 462.34
  Q 744.58 460.44 749.70 448.13
  A 0.41 0.40 56.4 0 1 750.48 448.29
  Z
  M 663.12 405.22
  L 663.41 385.15
  A 1.02 1.01 -89.4 0 0 662.40 384.11
  L 648.03 384.11
  A 0.59 0.58 -90.0 0 0 647.45 384.70
  L 647.45 459.90
  A 0.90 0.90 0.0 0 0 648.35 460.80
  L 666.57 460.80
  A 0.86 0.86 0.0 0 0 667.43 459.95
  Q 667.56 433.88 667.42 426.77
  Q 667.19 414.87 668.90 410.97
  C 673.11 401.34 682.67 399.68 692.41 400.15
  A 1.28 1.28 0.0 0 0 693.76 398.87
  L 693.76 383.83
  A 0.79 0.79 0.0 0 0 692.98 383.04
  C 686.34 382.93 679.69 383.63 674.19 387.63
  C 670.02 390.67 666.18 395.59 664.85 400.83
  Q 664.47 402.33 663.24 405.24
  A 0.06 0.06 0.0 0 1 663.12 405.22
  Z"
/>
<path fill="#f84d1a" d="
  M 164.95 351.99
  L 129.35 422.03
  A 0.89 0.89 0.0 0 0 130.14 423.32
  L 173.24 423.32
  A 0.56 0.56 0.0 0 1 173.70 424.19
  L 143.19 469.43
  Q 119.69 505.13 95.88 540.62
  Q 95.44 541.28 94.91 541.59
  A 0.36 0.35 -15.8 0 1 94.37 541.29
  L 94.37 468.56
  A 0.68 0.67 -0.8 0 0 93.67 467.89
  Q 89.45 468.04 78.99 467.92
  C 65.91 467.78 54.98 461.61 50.40 449.27
  Q 48.64 444.53 48.67 431.52
  Q 48.75 399.04 48.97 382.74
  Q 49.08 374.13 50.48 370.41
  C 53.91 361.29 61.39 354.61 71.10 352.64
  Q 75.80 351.69 81.25 351.70
  Q 122.85 351.78 164.95 351.99
  Z"
/>
<path fill="#1b1c92" d="
  M 143.19 469.43
  L 173.70 424.19
  A 0.56 0.56 0.0 0 0 173.24 423.32
  L 130.14 423.32
  A 0.89 0.89 0.0 0 1 129.35 422.03
  L 164.95 351.99
  Q 184.51 352.25 190.75 352.04
  C 196.29 351.85 201.03 351.92 205.92 353.60
  Q 219.32 358.20 223.66 372.27
  Q 224.77 375.85 224.79 382.75
  Q 224.90 411.18 224.77 439.50
  C 224.72 452.05 216.90 462.48 205.43 466.48
  Q 201.02 468.02 187.44 467.88
  Q 171.54 467.71 150.41 467.87
  Q 150.40 467.87 147.62 467.57
  Q 144.98 467.29 143.19 469.43
  Z"
/>
<path fill="#ffffff" d="
  M 260.27 357.48
  A 0.63 0.63 0.0 0 1 260.89 356.85
  Q 272.82 356.71 295.25 356.83
  Q 305.58 356.89 312.92 359.10
  C 324.96 362.73 334.07 371.14 336.52 383.50
  Q 337.63 389.08 337.28 396.26
  Q 336.30 416.17 318.85 424.63
  Q 310.86 428.50 301.22 428.93
  Q 290.63 429.40 281.27 429.15
  A 0.81 0.80 0.7 0 0 280.44 429.95
  L 280.44 459.86
  A 0.95 0.95 0.0 0 1 279.49 460.81
  L 260.98 460.81
  A 0.71 0.71 0.0 0 1 260.27 460.10
  L 260.27 357.48
  Z
  M 280.48 375.07
  L 280.42 410.99
  A 0.78 0.78 0.0 0 0 281.20 411.77
  L 299.14 411.80
  A 17.64 17.61 0.1 0 0 316.81 394.22
  L 316.81 391.96
  A 17.64 17.61 0.1 0 0 299.20 374.32
  L 281.26 374.29
  A 0.78 0.78 0.0 0 0 280.48 375.07
  Z"
/>
<path fill="#ffffff" d="
  M 449.69 460.79
  L 431.17 460.79
  A 0.63 0.63 0.0 0 1 430.54 460.16
  L 430.54 372.97
  A 0.63 0.63 0.0 0 0 429.91 372.34
  L 421.42 372.34
  A 0.63 0.63 0.0 0 1 420.79 371.71
  L 420.79 358.16
  A 0.63 0.63 0.0 0 1 421.42 357.53
  L 449.69 357.53
  A 0.63 0.63 0.0 0 1 450.32 358.16
  L 450.32 460.16
  A 0.63 0.63 0.0 0 1 449.69 460.79
  Z"
/>
<path fill="#ffffff" d="
  M 566.78 445.85
  C 566.00 448.00 566.42 453.52 566.51 460.02
  A 0.79 0.79 0.0 0 1 565.72 460.82
  L 551.92 460.82
  A 1.00 1.00 0.0 0 1 550.92 459.82
  L 550.92 358.16
  A 0.65 0.64 90.0 0 1 551.56 357.51
  L 569.83 357.51
  A 0.78 0.78 0.0 0 1 570.61 358.29
  L 570.61 394.40
  A 0.59 0.59 0.0 0 0 571.69 394.74
  C 577.57 386.17 586.25 381.92 596.76 381.66
  C 614.47 381.23 628.16 393.08 631.80 410.16
  C 634.96 424.99 632.56 444.50 619.93 454.96
  Q 610.70 462.60 599.47 463.22
  C 585.81 463.97 572.84 459.23 567.45 445.84
  A 0.36 0.36 0.0 0 0 566.78 445.85
  Z
  M 569.91 421.93
  Q 569.78 427.85 570.61 430.73
  C 573.42 440.48 580.50 446.44 590.89 446.67
  C 601.27 446.90 608.61 441.27 611.86 431.65
  Q 612.82 428.81 612.95 422.90
  Q 613.08 416.98 612.25 414.10
  C 609.44 404.35 602.36 398.39 591.97 398.15
  C 581.59 397.92 574.25 403.56 571.00 413.18
  Q 570.04 416.02 569.91 421.93
  Z"
/>
<path fill="#00013d" d="
  M 280.48 375.07
  A 0.78 0.78 0.0 0 1 281.26 374.29
  L 299.20 374.32
  A 17.64 17.61 0.1 0 1 316.81 391.96
  L 316.81 394.22
  A 17.64 17.61 0.1 0 1 299.14 411.80
  L 281.20 411.77
  A 0.78 0.78 0.0 0 1 280.42 410.99
  L 280.48 375.07
  Z"
/>
<path fill="#ffffff" d="
  M 395.51 448.30
  A 0.41 0.40 56.4 0 0 394.73 448.14
  Q 389.60 460.45 376.32 462.35
  C 360.46 464.62 344.32 458.46 342.65 440.62
  C 340.97 422.56 354.76 414.67 370.52 413.71
  Q 379.94 413.14 391.30 413.33
  A 0.91 0.91 0.0 0 0 392.22 412.41
  Q 392.16 404.33 386.76 401.17
  Q 383.74 399.40 375.52 399.59
  Q 361.57 399.92 351.86 400.52
  A 0.66 0.66 0.0 0 1 351.15 399.86
  L 351.15 384.72
  A 0.88 0.86 -2.9 0 1 351.94 383.86
  Q 361.64 382.87 376.72 382.89
  C 396.26 382.92 411.10 390.73 411.11 412.27
  Q 411.13 430.67 411.14 459.87
  A 0.95 0.95 0.0 0 1 410.19 460.82
  L 396.44 460.82
  A 0.93 0.93 0.0 0 1 395.51 459.89
  L 395.51 448.30
  Z
  M 391.41 425.37
  Q 388.53 425.18 379.41 425.22
  Q 373.46 425.24 372.17 425.49
  C 357.36 428.29 358.88 448.42 374.64 448.61
  Q 379.47 448.67 380.80 448.32
  Q 389.35 446.06 391.36 437.65
  Q 392.47 432.99 392.14 426.11
  A 0.79 0.78 90.0 0 0 391.41 425.37
  Z"
/>
<path fill="#ffffff" d="
  M 516.82 448.29
  A 0.41 0.40 56.4 0 0 516.04 448.13
  Q 510.91 460.43 497.63 462.33
  C 481.78 464.59 465.65 458.43 463.99 440.60
  C 462.31 422.55 476.10 414.67 491.85 413.71
  Q 501.26 413.14 512.61 413.34
  A 0.91 0.91 0.0 0 0 513.53 412.42
  Q 513.48 404.34 508.08 401.18
  Q 505.06 399.41 496.85 399.60
  Q 482.90 399.93 473.20 400.53
  A 0.66 0.66 0.0 0 1 472.49 399.87
  L 472.49 384.73
  A 0.88 0.86 -2.9 0 1 473.28 383.87
  Q 482.98 382.89 498.05 382.91
  C 517.58 382.94 532.41 390.75 532.41 412.28
  Q 532.43 430.67 532.44 459.85
  A 0.95 0.95 0.0 0 1 531.49 460.80
  L 517.74 460.80
  A 0.93 0.93 0.0 0 1 516.81 459.87
  L 516.82 448.29
  Z
  M 512.85 425.30
  Q 509.97 425.13 500.85 425.20
  Q 494.90 425.24 493.61 425.50
  C 478.81 428.36 480.41 448.48 496.17 448.61
  Q 501.00 448.65 502.33 448.30
  Q 510.87 446.00 512.84 437.58
  Q 513.94 432.92 513.58 426.04
  A 0.79 0.78 89.8 0 0 512.85 425.30
  Z"
/>
<path fill="#ffffff" d="
  M 750.48 448.29
  A 0.41 0.40 56.4 0 0 749.70 448.13
  Q 744.58 460.44 731.30 462.34
  C 715.45 464.61 699.31 458.46 697.64 440.62
  C 695.96 422.57 709.74 414.68 725.50 413.71
  Q 734.91 413.14 746.27 413.33
  A 0.91 0.91 0.0 0 0 747.19 412.41
  Q 747.13 404.33 741.73 401.18
  Q 738.71 399.41 730.49 399.60
  Q 716.55 399.93 706.84 400.53
  A 0.66 0.66 0.0 0 1 706.13 399.87
  L 706.13 384.74
  A 0.88 0.86 -3.0 0 1 706.92 383.88
  Q 716.61 382.88 731.69 382.90
  C 751.22 382.93 766.06 390.73 766.07 412.27
  Q 766.10 430.66 766.11 459.86
  A 0.95 0.95 0.0 0 1 765.16 460.81
  L 751.42 460.81
  A 0.93 0.93 0.0 0 1 750.49 459.88
  L 750.48 448.29
  Z
  M 746.38 425.34
  Q 743.50 425.16 734.38 425.24
  Q 728.43 425.29 727.14 425.55
  C 712.35 428.42 713.96 448.54 729.72 448.65
  Q 734.55 448.69 735.88 448.33
  Q 744.42 446.03 746.39 437.61
  Q 747.47 432.95 747.11 426.07
  A 0.79 0.78 89.7 0 0 746.38 425.34
  Z"
/>
<path fill="#ffffff" d="
  M 663.24 405.24
  Q 664.47 402.33 664.85 400.83
  C 666.18 395.59 670.02 390.67 674.19 387.63
  C 679.69 383.63 686.34 382.93 692.98 383.04
  A 0.79 0.79 0.0 0 1 693.76 383.83
  L 693.76 398.87
  A 1.28 1.28 0.0 0 1 692.41 400.15
  C 682.67 399.68 673.11 401.34 668.90 410.97
  Q 667.19 414.87 667.42 426.77
  Q 667.56 433.88 667.43 459.95
  A 0.86 0.86 0.0 0 1 666.57 460.80
  L 648.35 460.80
  A 0.90 0.90 0.0 0 1 647.45 459.90
  L 647.45 384.70
  A 0.59 0.58 90.0 0 1 648.03 384.11
  L 662.40 384.11
  A 1.02 1.01 -89.4 0 1 663.41 385.15
  L 663.12 405.22
  A 0.06 0.06 0.0 0 0 663.24 405.24
  Z"
/>
<path fill="#00013d" d="
  M 591.97 398.15
  C 602.36 398.39 609.44 404.35 612.25 414.10
  Q 613.08 416.98 612.95 422.90
  Q 612.82 428.81 611.86 431.65
  C 608.61 441.27 601.27 446.90 590.89 446.67
  C 580.50 446.44 573.42 440.48 570.61 430.73
  Q 569.78 427.85 569.91 421.93
  Q 570.04 416.02 571.00 413.18
  C 574.25 403.56 581.59 397.92 591.97 398.15
  Z"
/>
<path fill="#00013d" d="
  M 392.14 426.11
  Q 392.47 432.99 391.36 437.65
  Q 389.35 446.06 380.80 448.32
  Q 379.47 448.67 374.64 448.61
  C 358.88 448.42 357.36 428.29 372.17 425.49
  Q 373.46 425.24 379.41 425.22
  Q 388.53 425.18 391.41 425.37
  A 0.79 0.78 90.0 0 1 392.14 426.11
  Z"
/>
<path fill="#00013d" d="
  M 512.85 425.30
  A 0.79 0.78 89.8 0 1 513.58 426.04
  Q 513.94 432.92 512.84 437.58
  Q 510.87 446.00 502.33 448.30
  Q 501.00 448.65 496.17 448.61
  C 480.41 448.48 478.81 428.36 493.61 425.50
  Q 494.90 425.24 500.85 425.20
  Q 509.97 425.13 512.85 425.30
  Z"
/>
<path fill="#00013d" d="
  M 746.38 425.34
  A 0.79 0.78 89.7 0 1 747.11 426.07
  Q 747.47 432.95 746.39 437.61
  Q 744.42 446.03 735.88 448.33
  Q 734.55 448.69 729.72 448.65
  C 713.96 448.54 712.35 428.42 727.14 425.55
  Q 728.43 425.29 734.38 425.24
  Q 743.50 425.16 746.38 425.34
  Z"
/>
</svg>
