<?xml version="1.0" encoding="UTF-8" standalone="no"?>
<!DOCTYPE svg PUBLIC "-//W3C//DTD SVG 1.1//EN" "http://www.w3.org/Graphics/SVG/1.1/DTD/svg11.dtd">
<svg xmlns="http://www.w3.org/2000/svg" version="1.1" viewBox="0.00 0.00 512.00 512.00">
<g stroke-width="2.00" fill="none" stroke-linecap="butt">
<path stroke="#fddce2" vector-effect="non-scaling-stroke" d="
  M 338.28 180.06
  A 81.96 81.96 0.0 0 0 256.32 98.10
  A 81.96 81.96 0.0 0 0 174.36 180.06
  A 81.96 81.96 0.0 0 0 256.32 262.02
  A 81.96 81.96 0.0 0 0 338.28 180.06"
/>
<path stroke="#acabf4" vector-effect="non-scaling-stroke" d="
  M 263.00 287.51
  C 244.79 287.97 226.56 282.50 211.63 272.07
  C 206.59 268.55 204.07 267.49 198.26 268.45
  Q 186.51 270.39 178.53 273.37
  C 152.84 282.98 131.65 302.12 120.56 327.45
  C 119.56 329.74 119.57 332.51 120.79 334.49
  Q 140.04 365.81 168.92 385.59
  C 247.13 439.15 353.00 414.49 401.51 333.58
  C 402.40 332.10 403.12 329.94 402.48 328.51
  C 388.18 296.15 358.66 273.32 323.48 268.42
  Q 317.30 267.56 313.24 270.42
  Q 289.97 286.83 263.00 287.51"
/>
</g>
<path fill="#ffffff" d="
  M 248.88 0.00
  L 263.25 0.00
  Q 283.40 1.16 295.75 3.06
  Q 318.62 6.57 344.02 15.65
  Q 377.11 27.48 407.63 49.93
  C 472.20 97.43 510.11 171.28 512.00 251.89
  L 512.00 261.25
  Q 511.20 277.33 510.49 283.50
  C 499.25 381.13 436.02 462.10 344.23 496.15
  C 324.06 503.63 301.57 508.97 280.00 510.72
  Q 274.61 511.15 259.62 512.00
  L 252.25 512.00
  Q 236.97 511.11 231.75 510.71
  C 213.73 509.31 195.45 505.13 177.92 499.68
  C 142.41 488.64 108.46 468.56 81.82 443.68
  Q 21.22 387.07 4.53 304.00
  Q 0.83 285.57 0.00 261.12
  L 0.00 250.75
  Q 0.33 246.77 0.52 242.75
  C 3.45 182.43 27.92 125.53 68.77 81.40
  C 107.37 39.69 158.87 12.93 215.02 3.28
  Q 227.06 1.20 248.88 0.00
  Z
  M 338.28 180.06
  A 81.96 81.96 0.0 0 0 256.32 98.10
  A 81.96 81.96 0.0 0 0 174.36 180.06
  A 81.96 81.96 0.0 0 0 256.32 262.02
  A 81.96 81.96 0.0 0 0 338.28 180.06
  Z
  M 263.00 287.51
  C 244.79 287.97 226.56 282.50 211.63 272.07
  C 206.59 268.55 204.07 267.49 198.26 268.45
  Q 186.51 270.39 178.53 273.37
  C 152.84 282.98 131.65 302.12 120.56 327.45
  C 119.56 329.74 119.57 332.51 120.79 334.49
  Q 140.04 365.81 168.92 385.59
  C 247.13 439.15 353.00 414.49 401.51 333.58
  C 402.40 332.10 403.12 329.94 402.48 328.51
  C 388.18 296.15 358.66 273.32 323.48 268.42
  Q 317.30 267.56 313.24 270.42
  Q 289.97 286.83 263.00 287.51
  Z"
/>
<circle fill="#fab8c4" cx="256.32" cy="180.06" r="81.96"/>
<path fill="#5956e9" d="
  M 211.63 272.07
  C 226.56 282.50 244.79 287.97 263.00 287.51
  Q 289.97 286.83 313.24 270.42
  Q 317.30 267.56 323.48 268.42
  C 358.66 273.32 388.18 296.15 402.48 328.51
  C 403.12 329.94 402.40 332.10 401.51 333.58
  C 353.00 414.49 247.13 439.15 168.92 385.59
  Q 140.04 365.81 120.79 334.49
  C 119.57 332.51 119.56 329.74 120.56 327.45
  C 131.65 302.12 152.84 282.98 178.53 273.37
  Q 186.51 270.39 198.26 268.45
  C 204.07 267.49 206.59 268.55 211.63 272.07
  Z"
/>
</svg>
