<?xml version="1.0" encoding="UTF-8" standalone="no"?>
<!DOCTYPE svg PUBLIC "-//W3C//DTD SVG 1.1//EN" "http://www.w3.org/Graphics/SVG/1.1/DTD/svg11.dtd">
<svg xmlns="http://www.w3.org/2000/svg" version="1.1" viewBox="0.00 0.00 400.00 400.00">
<g stroke-width="2.00" fill="none" stroke-linecap="butt">
<path stroke="#808080" vector-effect="non-scaling-stroke" d="
  M 319.27 70.99
  Q 273.00 71.01 193.61 70.99
  C 179.27 70.99 171.14 70.75 160.49 74.02
  C 139.34 80.49 123.49 98.32 118.46 119.83
  Q 116.73 127.21 116.96 143.77
  Q 117.05 150.24 116.99 328.05
  A 0.95 0.94 -90.0 0 0 117.93 329.00
  Q 216.51 329.01 222.00 329.00
  Q 236.60 328.96 248.51 323.72
  C 269.25 314.58 283.71 295.06 285.69 272.12
  Q 286.05 268.00 286.04 251.84
  Q 285.95 138.81 286.02 119.51
  Q 286.05 109.98 291.03 100.63
  Q 293.84 95.37 303.89 86.09
  Q 316.26 74.67 319.51 71.58
  A 0.34 0.34 0.0 0 0 319.27 70.99"
/>
<path stroke="#808080" vector-effect="non-scaling-stroke" d="
  M 248.14 160.00
  A 44.45 44.45 0.0 0 0 203.69 115.55
  A 44.45 44.45 0.0 0 0 159.24 160.00
  A 44.45 44.45 0.0 0 0 203.69 204.45
  A 44.45 44.45 0.0 0 0 248.14 160.00"
/>
<path stroke="#808080" vector-effect="non-scaling-stroke" d="
  M 202.13 136.56
  L 202.13 183.42
  A 0.29 0.29 0.0 0 0 202.42 183.71
  L 203.76 183.71
  A 23.64 23.63 90.0 0 0 227.39 160.07
  L 227.39 159.91
  A 23.64 23.63 -90.0 0 0 203.76 136.27
  L 202.42 136.27
  A 0.29 0.29 0.0 0 0 202.13 136.56"
/>
</g>
<path fill="#ffffff" d="
  M 400.00 0.00
  L 400.00 400.00
  L 0.00 400.00
  L 0.00 0.00
  L 400.00 0.00
  Z
  M 319.27 70.99
  Q 273.00 71.01 193.61 70.99
  C 179.27 70.99 171.14 70.75 160.49 74.02
  C 139.34 80.49 123.49 98.32 118.46 119.83
  Q 116.73 127.21 116.96 143.77
  Q 117.05 150.24 116.99 328.05
  A 0.95 0.94 -90.0 0 0 117.93 329.00
  Q 216.51 329.01 222.00 329.00
  Q 236.60 328.96 248.51 323.72
  C 269.25 314.58 283.71 295.06 285.69 272.12
  Q 286.05 268.00 286.04 251.84
  Q 285.95 138.81 286.02 119.51
  Q 286.05 109.98 291.03 100.63
  Q 293.84 95.37 303.89 86.09
  Q 316.26 74.67 319.51 71.58
  A 0.34 0.34 0.0 0 0 319.27 70.99
  Z"
/>
<path fill="#000000" d="
  M 319.27 70.99
  A 0.34 0.34 0.0 0 1 319.51 71.58
  Q 316.26 74.67 303.89 86.09
  Q 293.84 95.37 291.03 100.63
  Q 286.05 109.98 286.02 119.51
  Q 285.95 138.81 286.04 251.84
  Q 286.05 268.00 285.69 272.12
  C 283.71 295.06 269.25 314.58 248.51 323.72
  Q 236.60 328.96 222.00 329.00
  Q 216.51 329.01 117.93 329.00
  A 0.95 0.94 -90.0 0 1 116.99 328.05
  Q 117.05 150.24 116.96 143.77
  Q 116.73 127.21 118.46 119.83
  C 123.49 98.32 139.34 80.49 160.49 74.02
  C 171.14 70.75 179.27 70.99 193.61 70.99
  Q 273.00 71.01 319.27 70.99
  Z
  M 248.14 160.00
  A 44.45 44.45 0.0 0 0 203.69 115.55
  A 44.45 44.45 0.0 0 0 159.24 160.00
  A 44.45 44.45 0.0 0 0 203.69 204.45
  A 44.45 44.45 0.0 0 0 248.14 160.00
  Z"
/>
<path fill="#ffffff" d="
  M 248.14 160.00
  A 44.45 44.45 0.0 0 1 203.69 204.45
  A 44.45 44.45 0.0 0 1 159.24 160.00
  A 44.45 44.45 0.0 0 1 203.69 115.55
  A 44.45 44.45 0.0 0 1 248.14 160.00
  Z
  M 202.13 136.56
  L 202.13 183.42
  A 0.29 0.29 0.0 0 0 202.42 183.71
  L 203.76 183.71
  A 23.64 23.63 90.0 0 0 227.39 160.07
  L 227.39 159.91
  A 23.64 23.63 -90.0 0 0 203.76 136.27
  L 202.42 136.27
  A 0.29 0.29 0.0 0 0 202.13 136.56
  Z"
/>
<path fill="#000000" d="
  M 202.13 136.56
  A 0.29 0.29 0.0 0 1 202.42 136.27
  L 203.76 136.27
  A 23.64 23.63 -90.0 0 1 227.39 159.91
  L 227.39 160.07
  A 23.64 23.63 -90.0 0 1 203.76 183.71
  L 202.42 183.71
  A 0.29 0.29 0.0 0 1 202.13 183.42
  L 202.13 136.56
  Z"
/>
</svg>
