<?xml version="1.0" encoding="UTF-8" standalone="no"?>
<!DOCTYPE svg PUBLIC "-//W3C//DTD SVG 1.1//EN" "http://www.w3.org/Graphics/SVG/1.1/DTD/svg11.dtd">
<svg xmlns="http://www.w3.org/2000/svg" version="1.1" viewBox="0.00 0.00 280.00 272.00">
<path fill="#050608" d="
  M 43.04 0.40
  L 137.89 90.49
  A 0.53 0.53 0.0 0 0 138.60 90.50
  L 234.69 1.69
  A 0.56 0.55 44.6 0 1 235.44 1.69
  L 278.87 41.40
  A 0.45 0.45 0.0 0 1 278.89 42.05
  L 185.32 134.65
  A 0.58 0.58 0.0 0 1 184.55 134.68
  L 138.88 96.38
  A 0.96 0.96 0.0 0 0 137.62 96.40
  L 94.80 134.66
  A 0.52 0.51 -43.7 0 1 94.10 134.65
  L 0.44 42.01
  A 0.42 0.42 0.0 0 1 0.44 41.41
  L 42.29 0.41
  A 0.55 0.54 -45.0 0 1 43.04 0.40
  Z"
/>
<path fill="#050608" d="
  M 0.60 229.71
  L 94.12 137.28
  A 0.52 0.52 0.0 0 1 94.83 137.27
  L 137.93 175.79
  A 0.52 0.52 0.0 0 0 138.61 175.80
  L 184.63 137.23
  A 0.52 0.52 0.0 0 1 185.33 137.26
  L 278.86 229.88
  A 0.52 0.52 0.0 0 1 278.85 230.63
  L 235.42 270.30
  A 0.52 0.52 0.0 0 1 234.72 270.30
  L 138.62 181.44
  A 0.52 0.52 0.0 0 0 137.91 181.45
  L 42.92 271.63
  A 0.52 0.52 0.0 0 1 42.19 271.63
  L 0.60 230.45
  A 0.52 0.52 0.0 0 1 0.60 229.71
  Z"
/>
</svg>
