<?xml version="1.0" encoding="UTF-8" standalone="no"?>
<!DOCTYPE svg PUBLIC "-//W3C//DTD SVG 1.1//EN" "http://www.w3.org/Graphics/SVG/1.1/DTD/svg11.dtd">
<svg xmlns="http://www.w3.org/2000/svg" version="1.1" viewBox="0.00 0.00 256.00 256.00">
<g stroke-width="2.00" fill="none" stroke-linecap="butt">
<path stroke="#ad8ced" vector-effect="non-scaling-stroke" d="
  M 27.86 0.00
  C 11.92 0.80 0.80 12.08 0.00 28.14"
/>
<path stroke="#ad8ced" vector-effect="non-scaling-stroke" d="
  M 227.50 0.00
  C 240.82 0.20 253.55 9.67 255.36 23.23
  Q 255.70 25.76 256.00 28.26"
/>
<path stroke="#ad8ced" vector-effect="non-scaling-stroke" d="
  M 256.00 228.49
  C 255.25 243.74 243.57 255.33 228.38 256.00"
/>
<path stroke="#ad8ced" vector-effect="non-scaling-stroke" d="
  M 26.91 256.00
  C 11.70 254.83 0.51 243.28 0.00 227.96"
/>
<path stroke="#ad8ced" vector-effect="non-scaling-stroke" d="
  M 166.4453 52.9470
  A 12.39 12.39 0.0 0 0 154.0769 40.5354
  L 102.1170 40.4447
  A 12.39 12.39 0.0 0 0 89.7054 52.8131
  L 89.6147 104.7930
  A 12.39 12.39 0.0 0 0 101.9831 117.2046
  L 153.9430 117.2953
  A 12.39 12.39 0.0 0 0 166.3546 104.9269
  L 166.4453 52.9470"
/>
<path stroke="#ad8ced" vector-effect="non-scaling-stroke" d="
  M 117.5343 150.0733
  A 12.03 12.03 0.0 0 0 105.4834 138.0643
  L 53.0234 138.1558
  A 12.03 12.03 0.0 0 0 41.0145 150.2068
  L 41.1057 202.4667
  A 12.03 12.03 0.0 0 0 53.1566 214.4757
  L 105.6166 214.3842
  A 12.03 12.03 0.0 0 0 117.6255 202.3332
  L 117.5343 150.0733"
/>
<path stroke="#ad8ced" vector-effect="non-scaling-stroke" d="
  M 215.02 150.26
  A 12.16 12.16 0.0 0 0 202.86 138.10
  L 150.66 138.10
  A 12.16 12.16 0.0 0 0 138.50 150.26
  L 138.50 202.28
  A 12.16 12.16 0.0 0 0 150.66 214.44
  L 202.86 214.44
  A 12.16 12.16 0.0 0 0 215.02 202.28
  L 215.02 150.26"
/>
<path stroke="#ad8ced" vector-effect="non-scaling-stroke" d="
  M 120.77 80.79
  Q 119.85 75.76 123.93 73.71
  C 126.86 72.25 128.19 70.61 130.22 69.16
  C 133.03 67.16 135.19 68.67 137.86 68.83
  C 150.05 69.56 149.47 49.26 136.75 51.85
  C 131.67 52.89 131.22 55.99 129.78 60.26
  C 128.77 63.29 121.05 67.51 118.05 69.07
  C 114.88 70.72 111.28 69.14 107.94 71.05
  C 102.25 74.28 101.82 81.44 107.71 85.02
  C 111.30 87.21 115.60 85.48 118.83 88.25
  C 121.45 90.49 125.06 91.88 127.86 93.91
  A 4.02 3.98 -83.2 0 1 129.21 95.64
  L 131.97 102.51
  A 1.25 1.23 5.6 0 0 132.48 103.12
  C 136.00 105.34 142.04 105.80 144.80 102.07
  C 150.86 93.86 142.68 84.77 133.75 89.11
  A 1.48 1.46 -36.9 0 1 132.13 88.89
  Q 127.50 84.75 121.84 82.17
  A 1.88 1.87 7.4 0 1 120.77 80.79"
/>
<path stroke="#ad8ced" vector-effect="non-scaling-stroke" d="
  M 74.44 170.34
  A 1.43 1.43 0.0 0 1 72.98 171.77
  Q 65.42 171.60 58.99 172.27
  Q 53.75 172.82 55.18 178.25
  C 56.44 183.02 69.94 181.49 73.61 180.99
  A 0.95 0.94 88.3 0 1 74.68 182.00
  Q 74.12 189.47 74.70 196.92
  Q 75.02 201.00 79.11 201.04
  L 79.96 201.04
  A 3.46 3.46 0.0 0 0 83.42 198.07
  Q 84.49 190.54 83.62 182.99
  A 1.65 1.65 0.0 0 1 85.32 181.15
  Q 90.80 181.35 96.50 181.28
  C 100.93 181.24 105.25 179.40 103.36 173.94
  A 1.17 1.15 -88.4 0 0 102.73 173.26
  C 97.59 171.13 91.23 171.52 85.89 171.88
  Q 83.61 172.03 83.75 169.74
  C 84.05 164.60 84.83 157.64 82.48 152.91
  Q 82.25 152.44 81.74 152.29
  Q 78.88 151.42 76.23 152.74
  A 1.57 1.57 0.0 0 0 75.50 153.50
  C 73.29 158.46 74.46 165.13 74.44 170.34"
/>
<path stroke="#ad8ced" vector-effect="non-scaling-stroke" d="
  M 158.86 154.20
  Q 157.91 157.53 157.93 161.00
  Q 158.00 176.87 158.16 192.74
  C 158.20 196.90 158.17 201.92 163.61 202.14
  Q 174.20 202.57 184.84 202.41
  C 191.67 202.31 196.02 203.25 196.15 195.00
  Q 196.33 183.00 196.21 170.99
  C 196.18 168.80 195.73 166.92 194.34 165.42
  C 192.80 163.75 181.87 151.02 177.75 150.99
  C 174.20 150.96 160.12 149.77 158.86 154.20"
/>
<path stroke="#ad8ced" vector-effect="non-scaling-stroke" d="
  M 185.43 193.27
  A 1.21 1.20 -0.2 0 0 186.64 192.06
  L 186.63 172.56
  A 1.07 1.07 0.0 0 0 185.40 171.50
  C 175.30 173.07 176.25 169.34 175.64 161.47
  A 1.71 1.71 0.0 0 0 173.90 159.89
  L 168.87 159.99
  Q 167.27 160.03 167.27 161.63
  L 167.24 192.14
  A 1.15 1.14 89.8 0 0 168.39 193.29
  L 185.43 193.27"
/>
</g>
<path fill="#ffffff" d="
  M 0.00 0.00
  L 27.86 0.00
  C 11.92 0.80 0.80 12.08 0.00 28.14
  L 0.00 0.00
  Z"
/>
<path fill="#5a19da" d="
  M 27.86 0.00
  L 227.50 0.00
  C 240.82 0.20 253.55 9.67 255.36 23.23
  Q 255.70 25.76 256.00 28.26
  L 256.00 228.49
  C 255.25 243.74 243.57 255.33 228.38 256.00
  L 26.91 256.00
  C 11.70 254.83 0.51 243.28 0.00 227.96
  L 0.00 28.14
  C 0.80 12.08 11.92 0.80 27.86 0.00
  Z
  M 166.4453 52.9470
  A 12.39 12.39 0.0 0 0 154.0769 40.5354
  L 102.1170 40.4447
  A 12.39 12.39 0.0 0 0 89.7054 52.8131
  L 89.6147 104.7930
  A 12.39 12.39 0.0 0 0 101.9831 117.2046
  L 153.9430 117.2953
  A 12.39 12.39 0.0 0 0 166.3546 104.9269
  L 166.4453 52.9470
  Z
  M 117.5343 150.0733
  A 12.03 12.03 0.0 0 0 105.4834 138.0643
  L 53.0234 138.1558
  A 12.03 12.03 0.0 0 0 41.0145 150.2068
  L 41.1057 202.4667
  A 12.03 12.03 0.0 0 0 53.1566 214.4757
  L 105.6166 214.3842
  A 12.03 12.03 0.0 0 0 117.6255 202.3332
  L 117.5343 150.0733
  Z
  M 215.02 150.26
  A 12.16 12.16 0.0 0 0 202.86 138.10
  L 150.66 138.10
  A 12.16 12.16 0.0 0 0 138.50 150.26
  L 138.50 202.28
  A 12.16 12.16 0.0 0 0 150.66 214.44
  L 202.86 214.44
  A 12.16 12.16 0.0 0 0 215.02 202.28
  L 215.02 150.26
  Z"
/>
<path fill="#ffffff" d="
  M 227.50 0.00
  L 256.00 0.00
  L 256.00 28.26
  Q 255.70 25.76 255.36 23.23
  C 253.55 9.67 240.82 0.20 227.50 0.00
  Z"
/>
<path fill="#ffffff" d="
  M 166.3546 104.9269
  A 12.39 12.39 0.0 0 1 153.9430 117.2953
  L 101.9831 117.2046
  A 12.39 12.39 0.0 0 1 89.6147 104.7930
  L 89.7054 52.8131
  A 12.39 12.39 0.0 0 1 102.1170 40.4447
  L 154.0769 40.5354
  A 12.39 12.39 0.0 0 1 166.4453 52.9470
  L 166.3546 104.9269
  Z
  M 120.77 80.79
  Q 119.85 75.76 123.93 73.71
  C 126.86 72.25 128.19 70.61 130.22 69.16
  C 133.03 67.16 135.19 68.67 137.86 68.83
  C 150.05 69.56 149.47 49.26 136.75 51.85
  C 131.67 52.89 131.22 55.99 129.78 60.26
  C 128.77 63.29 121.05 67.51 118.05 69.07
  C 114.88 70.72 111.28 69.14 107.94 71.05
  C 102.25 74.28 101.82 81.44 107.71 85.02
  C 111.30 87.21 115.60 85.48 118.83 88.25
  C 121.45 90.49 125.06 91.88 127.86 93.91
  A 4.02 3.98 -83.2 0 1 129.21 95.64
  L 131.97 102.51
  A 1.25 1.23 5.6 0 0 132.48 103.12
  C 136.00 105.34 142.04 105.80 144.80 102.07
  C 150.86 93.86 142.68 84.77 133.75 89.11
  A 1.48 1.46 -36.9 0 1 132.13 88.89
  Q 127.50 84.75 121.84 82.17
  A 1.88 1.87 7.4 0 1 120.77 80.79
  Z"
/>
<path fill="#5a19da" d="
  M 120.77 80.79
  A 1.88 1.87 7.4 0 0 121.84 82.17
  Q 127.50 84.75 132.13 88.89
  A 1.48 1.46 -36.9 0 0 133.75 89.11
  C 142.68 84.77 150.86 93.86 144.80 102.07
  C 142.04 105.80 136.00 105.34 132.48 103.12
  A 1.25 1.23 5.6 0 1 131.97 102.51
  L 129.21 95.64
  A 4.02 3.98 -83.2 0 0 127.86 93.91
  C 125.06 91.88 121.45 90.49 118.83 88.25
  C 115.60 85.48 111.30 87.21 107.71 85.02
  C 101.82 81.44 102.25 74.28 107.94 71.05
  C 111.28 69.14 114.88 70.72 118.05 69.07
  C 121.05 67.51 128.77 63.29 129.78 60.26
  C 131.22 55.99 131.67 52.89 136.75 51.85
  C 149.47 49.26 150.05 69.56 137.86 68.83
  C 135.19 68.67 133.03 67.16 130.22 69.16
  C 128.19 70.61 126.86 72.25 123.93 73.71
  Q 119.85 75.76 120.77 80.79
  Z"
/>
<path fill="#ffffff" d="
  M 117.6255 202.3332
  A 12.03 12.03 0.0 0 1 105.6166 214.3842
  L 53.1566 214.4757
  A 12.03 12.03 0.0 0 1 41.1057 202.4667
  L 41.0145 150.2068
  A 12.03 12.03 0.0 0 1 53.0234 138.1558
  L 105.4834 138.0643
  A 12.03 12.03 0.0 0 1 117.5343 150.0733
  L 117.6255 202.3332
  Z
  M 74.44 170.34
  A 1.43 1.43 0.0 0 1 72.98 171.77
  Q 65.42 171.60 58.99 172.27
  Q 53.75 172.82 55.18 178.25
  C 56.44 183.02 69.94 181.49 73.61 180.99
  A 0.95 0.94 88.3 0 1 74.68 182.00
  Q 74.12 189.47 74.70 196.92
  Q 75.02 201.00 79.11 201.04
  L 79.96 201.04
  A 3.46 3.46 0.0 0 0 83.42 198.07
  Q 84.49 190.54 83.62 182.99
  A 1.65 1.65 0.0 0 1 85.32 181.15
  Q 90.80 181.35 96.50 181.28
  C 100.93 181.24 105.25 179.40 103.36 173.94
  A 1.17 1.15 -88.4 0 0 102.73 173.26
  C 97.59 171.13 91.23 171.52 85.89 171.88
  Q 83.61 172.03 83.75 169.74
  C 84.05 164.60 84.83 157.64 82.48 152.91
  Q 82.25 152.44 81.74 152.29
  Q 78.88 151.42 76.23 152.74
  A 1.57 1.57 0.0 0 0 75.50 153.50
  C 73.29 158.46 74.46 165.13 74.44 170.34
  Z"
/>
<path fill="#ffffff" d="
  M 215.02 202.28
  A 12.16 12.16 0.0 0 1 202.86 214.44
  L 150.66 214.44
  A 12.16 12.16 0.0 0 1 138.50 202.28
  L 138.50 150.26
  A 12.16 12.16 0.0 0 1 150.66 138.10
  L 202.86 138.10
  A 12.16 12.16 0.0 0 1 215.02 150.26
  L 215.02 202.28
  Z
  M 158.86 154.20
  Q 157.91 157.53 157.93 161.00
  Q 158.00 176.87 158.16 192.74
  C 158.20 196.90 158.17 201.92 163.61 202.14
  Q 174.20 202.57 184.84 202.41
  C 191.67 202.31 196.02 203.25 196.15 195.00
  Q 196.33 183.00 196.21 170.99
  C 196.18 168.80 195.73 166.92 194.34 165.42
  C 192.80 163.75 181.87 151.02 177.75 150.99
  C 174.20 150.96 160.12 149.77 158.86 154.20
  Z"
/>
<path fill="#5a19da" d="
  M 158.86 154.20
  C 160.12 149.77 174.20 150.96 177.75 150.99
  C 181.87 151.02 192.80 163.75 194.34 165.42
  C 195.73 166.92 196.18 168.80 196.21 170.99
  Q 196.33 183.00 196.15 195.00
  C 196.02 203.25 191.67 202.31 184.84 202.41
  Q 174.20 202.57 163.61 202.14
  C 158.17 201.92 158.20 196.90 158.16 192.74
  Q 158.00 176.87 157.93 161.00
  Q 157.91 157.53 158.86 154.20
  Z
  M 185.43 193.27
  A 1.21 1.20 -0.2 0 0 186.64 192.06
  L 186.63 172.56
  A 1.07 1.07 0.0 0 0 185.40 171.50
  C 175.30 173.07 176.25 169.34 175.64 161.47
  A 1.71 1.71 0.0 0 0 173.90 159.89
  L 168.87 159.99
  Q 167.27 160.03 167.27 161.63
  L 167.24 192.14
  A 1.15 1.14 89.8 0 0 168.39 193.29
  L 185.43 193.27
  Z"
/>
<path fill="#5a19da" d="
  M 74.44 170.34
  C 74.46 165.13 73.29 158.46 75.50 153.50
  A 1.57 1.57 0.0 0 1 76.23 152.74
  Q 78.88 151.42 81.74 152.29
  Q 82.25 152.44 82.48 152.91
  C 84.83 157.64 84.05 164.60 83.75 169.74
  Q 83.61 172.03 85.89 171.88
  C 91.23 171.52 97.59 171.13 102.73 173.26
  A 1.17 1.15 -88.4 0 1 103.36 173.94
  C 105.25 179.40 100.93 181.24 96.50 181.28
  Q 90.80 181.35 85.32 181.15
  A 1.65 1.65 0.0 0 0 83.62 182.99
  Q 84.49 190.54 83.42 198.07
  A 3.46 3.46 0.0 0 1 79.96 201.04
  L 79.11 201.04
  Q 75.02 201.00 74.70 196.92
  Q 74.12 189.47 74.68 182.00
  A 0.95 0.94 88.3 0 0 73.61 180.99
  C 69.94 181.49 56.44 183.02 55.18 178.25
  Q 53.75 172.82 58.99 172.27
  Q 65.42 171.60 72.98 171.77
  A 1.43 1.43 0.0 0 0 74.44 170.34
  Z"
/>
<path fill="#ffffff" d="
  M 185.43 193.27
  L 168.39 193.29
  A 1.15 1.14 89.8 0 1 167.24 192.14
  L 167.27 161.63
  Q 167.27 160.03 168.87 159.99
  L 173.90 159.89
  A 1.71 1.71 0.0 0 1 175.64 161.47
  C 176.25 169.34 175.30 173.07 185.40 171.50
  A 1.07 1.07 0.0 0 1 186.63 172.56
  L 186.64 192.06
  A 1.21 1.20 -0.2 0 1 185.43 193.27
  Z"
/>
<path fill="#ffffff" d="
  M 0.00 227.96
  C 0.51 243.28 11.70 254.83 26.91 256.00
  L 0.00 256.00
  L 0.00 227.96
  Z"
/>
<path fill="#ffffff" d="
  M 256.00 228.49
  L 256.00 256.00
  L 228.38 256.00
  C 243.57 255.33 255.25 243.74 256.00 228.49
  Z"
/>
</svg>
