<?xml version="1.0" encoding="UTF-8" standalone="no"?>
<!DOCTYPE svg PUBLIC "-//W3C//DTD SVG 1.1//EN" "http://www.w3.org/Graphics/SVG/1.1/DTD/svg11.dtd">
<svg xmlns="http://www.w3.org/2000/svg" version="1.1" viewBox="0.00 0.00 48.00 48.00">
<g stroke-width="2.00" fill="none" stroke-linecap="butt">
<path stroke="#f16c1c" vector-effect="non-scaling-stroke" d="
  M 34.59 18.90
  A 10.83 10.83 0.0 0 0 23.76 8.07
  A 10.83 10.83 0.0 0 0 12.93 18.90
  A 10.83 10.83 0.0 0 0 23.76 29.73
  A 10.83 10.83 0.0 0 0 34.59 18.90"
/>
<path stroke="#faab7c" vector-effect="non-scaling-stroke" d="
  M 33.04 37.14
  Q 32.22 35.92 30.84 36.04
  A 1.22 1.20 -72.5 0 0 29.99 36.49
  L 29.32 37.29
  A 0.46 0.46 0.0 0 1 28.53 37.14
  Q 28.47 36.92 28.56 36.24
  A 0.82 0.82 0.0 0 0 28.09 35.36
  C 25.84 34.32 23.99 36.38 25.04 38.69
  A 1.43 1.43 0.0 0 0 25.63 39.34
  Q 27.39 40.34 28.93 38.68
  A 0.50 0.50 0.0 0 1 29.73 38.76
  L 29.92 39.11
  A 1.16 1.15 76.6 0 0 30.84 39.68
  Q 32.56 39.79 33.16 38.33
  A 0.23 0.23 0.0 0 1 33.60 38.36
  Q 34.19 40.38 36.71 39.50
  A 0.80 0.80 0.0 0 0 37.24 38.75
  L 37.21 35.40
  A 0.49 0.49 0.0 0 0 36.56 34.95
  Q 36.47 34.98 36.20 35.50
  Q 35.98 35.89 35.23 35.99
  Q 33.95 36.17 33.57 37.08
  A 0.30 0.30 0.0 0 1 33.04 37.14"
/>
<path stroke="#faab7c" vector-effect="non-scaling-stroke" d="
  M 14.21 37.13
  Q 14.45 34.99 11.57 35.11
  A 0.88 0.88 0.0 0 0 10.73 35.99
  L 10.73 39.31
  A 0.48 0.47 53.5 0 0 11.66 39.45
  Q 12.21 37.65 13.80 37.68
  A 0.74 0.74 0.0 0 1 14.48 38.21
  Q 14.66 38.79 14.76 38.94
  A 2.14 1.93 -39.0 0 0 17.85 39.10
  Q 18.96 38.06 17.59 36.49
  A 1.56 1.46 31.1 0 0 14.94 37.05
  Q 14.87 37.42 14.63 37.49
  A 0.34 0.34 0.0 0 1 14.21 37.13"
/>
<path stroke="#faab7c" vector-effect="non-scaling-stroke" d="
  M 24.02 38.90
  Q 23.60 38.20 23.56 37.81
  A 1.00 0.98 63.3 0 1 23.81 37.03
  Q 24.45 36.33 23.74 35.69
  A 1.08 0.96 21.5 0 0 21.96 36.34
  Q 22.07 38.14 23.16 39.68
  A 0.33 0.32 -32.6 0 0 23.59 39.77
  L 23.84 39.63
  A 0.53 0.52 59.1 0 0 24.02 38.90"
/>
<path stroke="#faab7c" vector-effect="non-scaling-stroke" d="
  M 21.63 38.54
  Q 20.17 37.99 20.85 36.73
  A 0.51 0.50 21.4 0 0 20.53 36.00
  Q 20.06 35.88 19.38 36.21
  Q 18.62 36.57 19.07 37.58
  Q 19.53 38.64 19.22 39.04
  A 0.39 0.38 -66.4 0 0 19.46 39.66
  Q 20.46 39.81 21.68 39.09
  A 0.31 0.30 -50.3 0 0 21.63 38.54"
/>
<path stroke="#f16c1c" vector-effect="non-scaling-stroke" d="
  M 33.75 18.92
  A 9.98 9.98 0.0 0 0 23.77 8.94
  A 9.98 9.98 0.0 0 0 13.79 18.92
  A 9.98 9.98 0.0 0 0 23.77 28.90
  A 9.98 9.98 0.0 0 0 33.75 18.92"
/>
<path stroke="#faab7c" vector-effect="non-scaling-stroke" d="
  M 31.96 18.83
  A 8.34 8.34 0.0 0 0 23.62 10.49
  A 8.34 8.34 0.0 0 0 15.28 18.83
  A 8.34 8.34 0.0 0 0 23.62 27.17
  A 8.34 8.34 0.0 0 0 31.96 18.83"
/>
<path stroke="#faab7c" vector-effect="non-scaling-stroke" d="
  M 23.67 23.78
  Q 27.17 23.77 28.63 19.82
  A 0.74 0.74 0.0 0 0 27.76 18.85
  Q 25.21 19.49 23.94 22.10
  A 0.33 0.13 -68.7 0 1 23.78 22.27
  Q 23.73 22.29 23.67 22.29
  Q 23.60 22.29 23.55 22.27
  A 0.33 0.13 68.6 0 1 23.39 22.10
  Q 22.12 19.49 19.56 18.86
  A 0.74 0.74 0.0 0 0 18.70 19.83
  Q 20.16 23.78 23.67 23.78"
/>
<path stroke="#faab7c" vector-effect="non-scaling-stroke" d="
  M 27.33 38.24
  Q 27.11 37.49 27.55 36.96
  A 0.35 0.34 50.4 0 0 27.58 36.57
  L 27.43 36.32
  A 0.58 0.57 53.0 0 0 26.53 36.19
  Q 25.47 37.22 26.48 38.65
  A 0.48 0.48 0.0 0 0 27.33 38.24"
/>
<path stroke="#faab7c" vector-effect="non-scaling-stroke" d="
  M 30.70 37.74
  Q 30.80 38.26 31.17 38.62
  A 0.46 0.43 27.5 0 0 31.94 38.41
  Q 32.02 37.83 31.84 37.38
  Q 31.67 36.94 31.10 37.17
  Q 30.63 37.36 30.70 37.74"
/>
<path stroke="#faab7c" vector-effect="non-scaling-stroke" d="
  M 35.83 38.53
  Q 35.98 38.22 35.91 37.31
  A 0.42 0.41 61.2 0 0 35.16 37.09
  Q 34.64 37.80 34.94 38.45
  A 0.52 0.47 47.1 0 0 35.83 38.53"
/>
<path stroke="#f6be95" vector-effect="non-scaling-stroke" d="
  M 12.96 36.43
  A 0.47 0.47 0.0 0 0 12.49 35.96
  A 0.47 0.47 0.0 0 0 12.02 36.43
  A 0.47 0.47 0.0 0 0 12.49 36.90
  A 0.47 0.47 0.0 0 0 12.96 36.43"
/>
<path stroke="#f6be95" vector-effect="non-scaling-stroke" d="
  M 16.83 37.16
  A 0.47 0.41 -53.1 0 0 16.01 37.33
  Q 15.87 37.93 16.11 38.55
  A 0.42 0.40 42.1 0 0 16.90 38.53
  Q 17.08 37.75 16.83 37.16"
/>
</g>
<path fill="#f55803" d="
  M 48.00 0.00
  L 48.00 48.00
  L 0.00 48.00
  L 0.00 0.00
  L 48.00 0.00
  Z
  M 34.59 18.90
  A 10.83 10.83 0.0 0 0 23.76 8.07
  A 10.83 10.83 0.0 0 0 12.93 18.90
  A 10.83 10.83 0.0 0 0 23.76 29.73
  A 10.83 10.83 0.0 0 0 34.59 18.90
  Z
  M 33.04 37.14
  Q 32.22 35.92 30.84 36.04
  A 1.22 1.20 -72.5 0 0 29.99 36.49
  L 29.32 37.29
  A 0.46 0.46 0.0 0 1 28.53 37.14
  Q 28.47 36.92 28.56 36.24
  A 0.82 0.82 0.0 0 0 28.09 35.36
  C 25.84 34.32 23.99 36.38 25.04 38.69
  A 1.43 1.43 0.0 0 0 25.63 39.34
  Q 27.39 40.34 28.93 38.68
  A 0.50 0.50 0.0 0 1 29.73 38.76
  L 29.92 39.11
  A 1.16 1.15 76.6 0 0 30.84 39.68
  Q 32.56 39.79 33.16 38.33
  A 0.23 0.23 0.0 0 1 33.60 38.36
  Q 34.19 40.38 36.71 39.50
  A 0.80 0.80 0.0 0 0 37.24 38.75
  L 37.21 35.40
  A 0.49 0.49 0.0 0 0 36.56 34.95
  Q 36.47 34.98 36.20 35.50
  Q 35.98 35.89 35.23 35.99
  Q 33.95 36.17 33.57 37.08
  A 0.30 0.30 0.0 0 1 33.04 37.14
  Z
  M 14.21 37.13
  Q 14.45 34.99 11.57 35.11
  A 0.88 0.88 0.0 0 0 10.73 35.99
  L 10.73 39.31
  A 0.48 0.47 53.5 0 0 11.66 39.45
  Q 12.21 37.65 13.80 37.68
  A 0.74 0.74 0.0 0 1 14.48 38.21
  Q 14.66 38.79 14.76 38.94
  A 2.14 1.93 -39.0 0 0 17.85 39.10
  Q 18.96 38.06 17.59 36.49
  A 1.56 1.46 31.1 0 0 14.94 37.05
  Q 14.87 37.42 14.63 37.49
  A 0.34 0.34 0.0 0 1 14.21 37.13
  Z
  M 24.02 38.90
  Q 23.60 38.20 23.56 37.81
  A 1.00 0.98 63.3 0 1 23.81 37.03
  Q 24.45 36.33 23.74 35.69
  A 1.08 0.96 21.5 0 0 21.96 36.34
  Q 22.07 38.14 23.16 39.68
  A 0.33 0.32 -32.6 0 0 23.59 39.77
  L 23.84 39.63
  A 0.53 0.52 59.1 0 0 24.02 38.90
  Z
  M 21.63 38.54
  Q 20.17 37.99 20.85 36.73
  A 0.51 0.50 21.4 0 0 20.53 36.00
  Q 20.06 35.88 19.38 36.21
  Q 18.62 36.57 19.07 37.58
  Q 19.53 38.64 19.22 39.04
  A 0.39 0.38 -66.4 0 0 19.46 39.66
  Q 20.46 39.81 21.68 39.09
  A 0.31 0.30 -50.3 0 0 21.63 38.54
  Z"
/>
<path fill="#ed7f35" d="
  M 34.59 18.90
  A 10.83 10.83 0.0 0 1 23.76 29.73
  A 10.83 10.83 0.0 0 1 12.93 18.90
  A 10.83 10.83 0.0 0 1 23.76 8.07
  A 10.83 10.83 0.0 0 1 34.59 18.90
  Z
  M 33.75 18.92
  A 9.98 9.98 0.0 0 0 23.77 8.94
  A 9.98 9.98 0.0 0 0 13.79 18.92
  A 9.98 9.98 0.0 0 0 23.77 28.90
  A 9.98 9.98 0.0 0 0 33.75 18.92
  Z"
/>
<path fill="#f55803" d="
  M 33.75 18.92
  A 9.98 9.98 0.0 0 1 23.77 28.90
  A 9.98 9.98 0.0 0 1 13.79 18.92
  A 9.98 9.98 0.0 0 1 23.77 8.94
  A 9.98 9.98 0.0 0 1 33.75 18.92
  Z
  M 31.96 18.83
  A 8.34 8.34 0.0 0 0 23.62 10.49
  A 8.34 8.34 0.0 0 0 15.28 18.83
  A 8.34 8.34 0.0 0 0 23.62 27.17
  A 8.34 8.34 0.0 0 0 31.96 18.83
  Z"
/>
<path fill="#fffdf5" d="
  M 31.96 18.83
  A 8.34 8.34 0.0 0 1 23.62 27.17
  A 8.34 8.34 0.0 0 1 15.28 18.83
  A 8.34 8.34 0.0 0 1 23.62 10.49
  A 8.34 8.34 0.0 0 1 31.96 18.83
  Z
  M 23.67 23.78
  Q 27.17 23.77 28.63 19.82
  A 0.74 0.74 0.0 0 0 27.76 18.85
  Q 25.21 19.49 23.94 22.10
  A 0.33 0.13 -68.7 0 1 23.78 22.27
  Q 23.73 22.29 23.67 22.29
  Q 23.60 22.29 23.55 22.27
  A 0.33 0.13 68.6 0 1 23.39 22.10
  Q 22.12 19.49 19.56 18.86
  A 0.74 0.74 0.0 0 0 18.70 19.83
  Q 20.16 23.78 23.67 23.78
  Z"
/>
<path fill="#f55803" d="
  M 23.67 22.29
  Q 23.73 22.29 23.78 22.27
  A 0.33 0.13 -68.7 0 0 23.94 22.10
  Q 25.21 19.49 27.76 18.85
  A 0.74 0.74 0.0 0 1 28.63 19.82
  Q 27.17 23.77 23.67 23.78
  Q 20.16 23.78 18.70 19.83
  A 0.74 0.74 0.0 0 1 19.56 18.86
  Q 22.12 19.49 23.39 22.10
  A 0.33 0.13 68.6 0 0 23.55 22.27
  Q 23.60 22.29 23.67 22.29
  Z"
/>
<path fill="#fffdf5" d="
  M 33.57 37.08
  Q 33.95 36.17 35.23 35.99
  Q 35.98 35.89 36.20 35.50
  Q 36.47 34.98 36.56 34.95
  A 0.49 0.49 0.0 0 1 37.21 35.40
  L 37.24 38.75
  A 0.80 0.80 0.0 0 1 36.71 39.50
  Q 34.19 40.38 33.60 38.36
  A 0.23 0.23 0.0 0 0 33.16 38.33
  Q 32.56 39.79 30.84 39.68
  A 1.16 1.15 76.6 0 1 29.92 39.11
  L 29.73 38.76
  A 0.50 0.50 0.0 0 0 28.93 38.68
  Q 27.39 40.34 25.63 39.34
  A 1.43 1.43 0.0 0 1 25.04 38.69
  C 23.99 36.38 25.84 34.32 28.09 35.36
  A 0.82 0.82 0.0 0 1 28.56 36.24
  Q 28.47 36.92 28.53 37.14
  A 0.46 0.46 0.0 0 0 29.32 37.29
  L 29.99 36.49
  A 1.22 1.20 -72.5 0 1 30.84 36.04
  Q 32.22 35.92 33.04 37.14
  A 0.30 0.30 0.0 0 0 33.57 37.08
  Z
  M 27.33 38.24
  Q 27.11 37.49 27.55 36.96
  A 0.35 0.34 50.4 0 0 27.58 36.57
  L 27.43 36.32
  A 0.58 0.57 53.0 0 0 26.53 36.19
  Q 25.47 37.22 26.48 38.65
  A 0.48 0.48 0.0 0 0 27.33 38.24
  Z
  M 30.70 37.74
  Q 30.80 38.26 31.17 38.62
  A 0.46 0.43 27.5 0 0 31.94 38.41
  Q 32.02 37.83 31.84 37.38
  Q 31.67 36.94 31.10 37.17
  Q 30.63 37.36 30.70 37.74
  Z
  M 35.83 38.53
  Q 35.98 38.22 35.91 37.31
  A 0.42 0.41 61.2 0 0 35.16 37.09
  Q 34.64 37.80 34.94 38.45
  A 0.52 0.47 47.1 0 0 35.83 38.53
  Z"
/>
<path fill="#fffdf5" d="
  M 14.63 37.49
  Q 14.87 37.42 14.94 37.05
  A 1.56 1.46 31.1 0 1 17.59 36.49
  Q 18.96 38.06 17.85 39.10
  A 2.14 1.93 -39.0 0 1 14.76 38.94
  Q 14.66 38.79 14.48 38.21
  A 0.74 0.74 0.0 0 0 13.80 37.68
  Q 12.21 37.65 11.66 39.45
  A 0.48 0.47 53.5 0 1 10.73 39.31
  L 10.73 35.99
  A 0.88 0.88 0.0 0 1 11.57 35.11
  Q 14.45 34.99 14.21 37.13
  A 0.34 0.34 0.0 0 0 14.63 37.49
  Z
  M 12.96 36.43
  A 0.47 0.47 0.0 0 0 12.49 35.96
  A 0.47 0.47 0.0 0 0 12.02 36.43
  A 0.47 0.47 0.0 0 0 12.49 36.90
  A 0.47 0.47 0.0 0 0 12.96 36.43
  Z
  M 16.83 37.16
  A 0.47 0.41 -53.1 0 0 16.01 37.33
  Q 15.87 37.93 16.11 38.55
  A 0.42 0.40 42.1 0 0 16.90 38.53
  Q 17.08 37.75 16.83 37.16
  Z"
/>
<path fill="#fffdf5" d="
  M 24.02 38.90
  A 0.53 0.52 59.1 0 1 23.84 39.63
  L 23.59 39.77
  A 0.33 0.32 -32.6 0 1 23.16 39.68
  Q 22.07 38.14 21.96 36.34
  A 1.08 0.96 21.5 0 1 23.74 35.69
  Q 24.45 36.33 23.81 37.03
  A 1.00 0.98 63.3 0 0 23.56 37.81
  Q 23.60 38.20 24.02 38.90
  Z"
/>
<circle fill="#ed7f35" cx="12.49" cy="36.43" r="0.47"/>
<path fill="#fffdf5" d="
  M 21.68 39.09
  Q 20.46 39.81 19.46 39.66
  A 0.39 0.38 -66.4 0 1 19.22 39.04
  Q 19.53 38.64 19.07 37.58
  Q 18.62 36.57 19.38 36.21
  Q 20.06 35.88 20.53 36.00
  A 0.51 0.50 21.4 0 1 20.85 36.73
  Q 20.17 37.99 21.63 38.54
  A 0.31 0.30 -50.3 0 1 21.68 39.09
  Z"
/>
<path fill="#f55803" d="
  M 27.33 38.24
  A 0.48 0.48 0.0 0 1 26.48 38.65
  Q 25.47 37.22 26.53 36.19
  A 0.58 0.57 53.0 0 1 27.43 36.32
  L 27.58 36.57
  A 0.35 0.34 50.4 0 1 27.55 36.96
  Q 27.11 37.49 27.33 38.24
  Z"
/>
<path fill="#ed7f35" d="
  M 16.83 37.16
  Q 17.08 37.75 16.90 38.53
  A 0.42 0.40 42.1 0 1 16.11 38.55
  Q 15.87 37.93 16.01 37.33
  A 0.47 0.41 -53.1 0 1 16.83 37.16
  Z"
/>
<path fill="#f55803" d="
  M 30.70 37.74
  Q 30.63 37.36 31.10 37.17
  Q 31.67 36.94 31.84 37.38
  Q 32.02 37.83 31.94 38.41
  A 0.46 0.43 27.5 0 1 31.17 38.62
  Q 30.80 38.26 30.70 37.74
  Z"
/>
<path fill="#f55803" d="
  M 35.83 38.53
  A 0.52 0.47 47.1 0 1 34.94 38.45
  Q 34.64 37.80 35.16 37.09
  A 0.42 0.41 61.2 0 1 35.91 37.31
  Q 35.98 38.22 35.83 38.53
  Z"
/>
</svg>
