<?xml version="1.0" encoding="UTF-8" standalone="no"?>
<!DOCTYPE svg PUBLIC "-//W3C//DTD SVG 1.1//EN" "http://www.w3.org/Graphics/SVG/1.1/DTD/svg11.dtd">
<svg xmlns="http://www.w3.org/2000/svg" version="1.1" viewBox="0.00 0.00 32.00 32.00">
<g stroke-width="2.00" fill="none" stroke-linecap="butt">
<path stroke="#8e8e8f" vector-effect="non-scaling-stroke" d="
  M 13.73 32.00
  L 13.77 23.31
  Q 13.77 22.76 14.33 22.76
  Q 16.27 22.76 18.30 22.80
  C 22.89 22.89 27.18 20.09 27.45 15.20
  C 27.89 7.17 21.66 5.46 14.93 5.76
  Q 10.73 5.95 6.84 5.77
  Q 6.32 5.74 6.32 6.27
  L 6.35 31.83"
/>
<path stroke="#8e8e8f" vector-effect="non-scaling-stroke" d="
  M 13.73 11.98
  L 13.73 16.75
  Q 13.73 17.71 14.68 17.58
  Q 15.78 17.42 16.94 17.51
  C 19.33 17.71 20.76 15.39 20.04 13.24
  C 19.18 10.67 16.72 11.22 14.73 11.06
  Q 13.73 10.98 13.73 11.98"
/>
</g>
<path fill="#1c1d1f" d="
  M 6.64 0.00
  L 25.46 0.00
  Q 30.77 1.52 32.00 6.76
  L 32.00 25.48
  Q 30.51 30.66 25.37 32.00
  L 13.73 32.00
  L 13.77 23.31
  Q 13.77 22.76 14.33 22.76
  Q 16.27 22.76 18.30 22.80
  C 22.89 22.89 27.18 20.09 27.45 15.20
  C 27.89 7.17 21.66 5.46 14.93 5.76
  Q 10.73 5.95 6.84 5.77
  Q 6.32 5.74 6.32 6.27
  L 6.35 31.83
  Q 1.22 30.53 0.00 25.20
  L 0.00 6.52
  Q 1.48 1.35 6.64 0.00
  Z"
/>
<path fill="#ffffff" d="
  M 13.73 32.00
  L 6.45 32.00
  Q 6.28 31.48 6.35 31.83
  L 6.32 6.27
  Q 6.32 5.74 6.84 5.77
  Q 10.73 5.95 14.93 5.76
  C 21.66 5.46 27.89 7.17 27.45 15.20
  C 27.18 20.09 22.89 22.89 18.30 22.80
  Q 16.27 22.76 14.33 22.76
  Q 13.77 22.76 13.77 23.31
  L 13.73 32.00
  Z
  M 13.73 11.98
  L 13.73 16.75
  Q 13.73 17.71 14.68 17.58
  Q 15.78 17.42 16.94 17.51
  C 19.33 17.71 20.76 15.39 20.04 13.24
  C 19.18 10.67 16.72 11.22 14.73 11.06
  Q 13.73 10.98 13.73 11.98
  Z"
/>
<path fill="#1c1d1f" d="
  M 14.73 11.06
  C 16.72 11.22 19.18 10.67 20.04 13.24
  C 20.76 15.39 19.33 17.71 16.94 17.51
  Q 15.78 17.42 14.68 17.58
  Q 13.73 17.71 13.73 16.75
  L 13.73 11.98
  Q 13.73 10.98 14.73 11.06
  Z"
/>
</svg>
