<svg width="89" height="68" viewBox="0 0 89 68" fill="none" xmlns="http://www.w3.org/2000/svg">
<rect x="57" y="2" width="4" height="4" fill="#407C17"/>
<rect x="82" y="40" width="4" height="23" fill="#407C17"/>
<rect x="19" width="4" height="51" fill="#407C17"/>
<rect x="67" y="16" width="5" height="35" fill="#407C17"/>
<rect x="3" y="40" width="4" height="23" fill="#407C17"/>
<rect x="7" y="38" width="4" height="4" fill="#407C17"/>
<rect x="78" y="38" width="4" height="4" fill="#407C17"/>
<rect x="11" y="36" width="4" height="4" fill="#407C17"/>
<rect y="64" width="25" height="4" fill="#407C17"/>
<rect x="64" y="64" width="25" height="4" fill="#407C17"/>
<rect x="75" y="36" width="4" height="4" fill="#407C17"/>
<rect x="15" y="34" width="4" height="4" fill="#407C17"/>
<rect x="19" y="47" width="4" height="4" fill="#407C17"/>
<rect x="23" y="45" width="4" height="4" fill="#407C17"/>
<rect x="27" y="43" width="4" height="4" fill="#407C17"/>
<rect x="19" y="57" width="4" height="6" fill="#407C17"/>
<rect x="23" y="55" width="4" height="4" fill="#407C17"/>
<rect x="27" y="53" width="4" height="4" fill="#407C17"/>
<rect x="31" y="45" width="4" height="4" fill="#407C17"/>
<rect x="30" y="49" width="4" height="4" fill="#407C17"/>
<rect width="4" height="4" transform="matrix(-1 0 0 1 71 47)" fill="#407C17"/>
<rect width="4" height="4" transform="matrix(-1 0 0 1 67 45)" fill="#407C17"/>
<rect width="4" height="4" transform="matrix(-1 0 0 1 63 43)" fill="#407C17"/>
<rect width="4" height="6" transform="matrix(-1 0 0 1 71 57)" fill="#407C17"/>
<rect width="4" height="4" transform="matrix(-1 0 0 1 67 55)" fill="#407C17"/>
<rect width="4" height="4" transform="matrix(-1 0 0 1 63 53)" fill="#407C17"/>
<rect width="4" height="4" transform="matrix(-1 0 0 1 59 45)" fill="#407C17"/>
<rect width="4" height="4" transform="matrix(-1 0 0 1 60 49)" fill="#407C17"/>
<rect x="71" y="34" width="4" height="4" fill="#407C17"/>
<rect x="60" y="5" width="4" height="4" fill="#407C17"/>
<rect x="63" y="8" width="4" height="4" fill="#407C17"/>
<rect x="28" y="13" width="17" height="4" fill="#407C17"/>
<rect x="28" y="21" width="27" height="4" fill="#407C17"/>
<rect x="28" y="30" width="17" height="4" fill="#407C17"/>
<rect x="66" y="12" width="4" height="4" fill="#407C17"/>
</svg>
