<?xml version="1.0" encoding="UTF-8" standalone="no"?>
<!DOCTYPE svg PUBLIC "-//W3C//DTD SVG 1.1//EN" "http://www.w3.org/Graphics/SVG/1.1/DTD/svg11.dtd">
<svg xmlns="http://www.w3.org/2000/svg" version="1.1" viewBox="0.00 0.00 128.00 128.00">
<g stroke-width="2.00" fill="none" stroke-linecap="butt">
<path stroke="#80c4a3" vector-effect="non-scaling-stroke" d="
  M 76.04 34.09
  A 0.51 0.51 0.0 0 1 76.59 33.32
  Q 79.78 34.03 80.58 32.35
  Q 81.52 30.37 82.34 29.26
  A 0.71 0.71 0.0 0 0 82.18 28.26
  Q 81.66 27.89 80.58 27.80
  A 0.34 0.33 8.0 0 1 80.28 27.41
  L 80.34 27.09
  A 0.20 0.18 1.7 0 1 80.52 26.93
  L 83.01 26.83
  A 0.91 0.91 0.0 0 0 83.76 26.38
  L 85.71 23.00
  A 0.66 0.66 0.0 0 0 85.47 22.10
  L 83.74 21.11
  A 0.25 0.25 0.0 0 1 83.91 20.64
  L 85.84 20.96
  A 0.61 0.61 0.0 0 0 86.51 20.55
  L 89.89 9.84
  A 0.83 0.83 0.0 0 0 89.10 8.77
  Q 84.36 8.78 78.94 10.71
  A 0.80 0.79 74.5 0 0 78.43 11.62
  L 78.74 13.16
  A 0.33 0.33 0.0 0 1 78.21 13.48
  Q 78.04 13.35 77.69 12.64
  A 0.92 0.91 60.4 0 0 76.38 12.27
  Q 72.73 14.58 69.50 19.31
  A 1.99 1.91 42.3 0 0 69.66 21.68
  Q 69.88 21.94 70.18 22.95
  A 0.13 0.13 0.0 0 1 69.99 23.10
  L 68.53 22.26
  A 0.61 0.61 0.0 0 0 67.69 22.48
  L 64.01 28.87
  A 1.31 1.30 43.5 0 0 64.05 30.25
  L 65.52 32.50
  A 0.24 0.24 0.0 0 1 65.50 32.79
  L 65.49 32.81
  A 0.38 0.36 46.4 0 1 65.09 32.79
  L 63.16 31.39
  A 0.46 0.46 0.0 0 0 62.43 31.69
  L 61.49 37.38
  A 0.99 0.98 -70.3 0 0 61.96 38.39
  L 63.16 39.08
  A 0.46 0.45 68.6 0 1 62.80 39.91
  L 61.84 39.60
  A 0.57 0.57 0.0 0 0 61.12 40.02
  Q 60.20 44.14 62.37 47.68
  A 0.53 0.52 -52.0 0 0 63.32 47.56
  Q 68.57 30.57 79.65 16.62
  A 0.21 0.20 -56.6 0 1 79.91 16.56
  L 80.17 16.71
  A 0.44 0.43 -56.4 0 1 80.29 17.34
  Q 69.46 31.24 64.87 48.00
  A 0.57 0.57 0.0 0 0 65.32 48.71
  C 68.78 49.31 71.17 46.53 72.85 43.69
  A 0.75 0.75 0.0 0 0 72.64 42.69
  Q 72.39 42.50 71.58 42.35
  A 0.36 0.36 0.0 0 1 71.46 41.68
  Q 71.83 41.46 72.88 41.35
  A 2.17 2.15 23.5 0 0 73.96 40.93
  Q 76.46 39.08 77.75 35.55
  A 0.64 0.63 22.9 0 0 77.42 34.75
  Q 76.05 34.10 76.04 34.09"
/>
<path stroke="#80c4a3" vector-effect="non-scaling-stroke" d="
  M 103.14 51.60
  A 2.05 2.05 0.0 0 0 101.09 49.55
  L 26.91 49.55
  A 2.05 2.05 0.0 0 0 24.86 51.60
  L 24.86 98.76
  A 2.05 2.05 0.0 0 0 26.91 100.81
  L 101.09 100.81
  A 2.05 2.05 0.0 0 0 103.14 98.76
  L 103.14 51.60"
/>
<path stroke="#80c4a3" vector-effect="non-scaling-stroke" d="
  M 49.97 75.49
  A 6.66 6.66 0.0 0 0 43.31 68.83
  A 6.66 6.66 0.0 0 0 36.65 75.49
  A 6.66 6.66 0.0 0 0 43.31 82.15
  A 6.66 6.66 0.0 0 0 49.97 75.49"
/>
<path stroke="#80c4a3" vector-effect="non-scaling-stroke" d="
  M 91.34 75.47
  A 6.65 6.65 0.0 0 0 84.69 68.82
  A 6.65 6.65 0.0 0 0 78.04 75.47
  A 6.65 6.65 0.0 0 0 84.69 82.12
  A 6.65 6.65 0.0 0 0 91.34 75.47"
/>
</g>
<path fill="#008847" d="
  M 117.13 0.00
  Q 126.12 1.75 128.00 10.69
  L 128.00 116.90
  Q 127.27 120.61 125.92 122.67
  Q 123.30 126.66 117.63 128.00
  L 10.47 128.00
  Q 1.94 126.07 0.00 117.53
  L 0.00 10.64
  Q 1.97 1.62 10.99 0.00
  L 117.13 0.00
  Z
  M 76.04 34.09
  A 0.51 0.51 0.0 0 1 76.59 33.32
  Q 79.78 34.03 80.58 32.35
  Q 81.52 30.37 82.34 29.26
  A 0.71 0.71 0.0 0 0 82.18 28.26
  Q 81.66 27.89 80.58 27.80
  A 0.34 0.33 8.0 0 1 80.28 27.41
  L 80.34 27.09
  A 0.20 0.18 1.7 0 1 80.52 26.93
  L 83.01 26.83
  A 0.91 0.91 0.0 0 0 83.76 26.38
  L 85.71 23.00
  A 0.66 0.66 0.0 0 0 85.47 22.10
  L 83.74 21.11
  A 0.25 0.25 0.0 0 1 83.91 20.64
  L 85.84 20.96
  A 0.61 0.61 0.0 0 0 86.51 20.55
  L 89.89 9.84
  A 0.83 0.83 0.0 0 0 89.10 8.77
  Q 84.36 8.78 78.94 10.71
  A 0.80 0.79 74.5 0 0 78.43 11.62
  L 78.74 13.16
  A 0.33 0.33 0.0 0 1 78.21 13.48
  Q 78.04 13.35 77.69 12.64
  A 0.92 0.91 60.4 0 0 76.38 12.27
  Q 72.73 14.58 69.50 19.31
  A 1.99 1.91 42.3 0 0 69.66 21.68
  Q 69.88 21.94 70.18 22.95
  A 0.13 0.13 0.0 0 1 69.99 23.10
  L 68.53 22.26
  A 0.61 0.61 0.0 0 0 67.69 22.48
  L 64.01 28.87
  A 1.31 1.30 43.5 0 0 64.05 30.25
  L 65.52 32.50
  A 0.24 0.24 0.0 0 1 65.50 32.79
  L 65.49 32.81
  A 0.38 0.36 46.4 0 1 65.09 32.79
  L 63.16 31.39
  A 0.46 0.46 0.0 0 0 62.43 31.69
  L 61.49 37.38
  A 0.99 0.98 -70.3 0 0 61.96 38.39
  L 63.16 39.08
  A 0.46 0.45 68.6 0 1 62.80 39.91
  L 61.84 39.60
  A 0.57 0.57 0.0 0 0 61.12 40.02
  Q 60.20 44.14 62.37 47.68
  A 0.53 0.52 -52.0 0 0 63.32 47.56
  Q 68.57 30.57 79.65 16.62
  A 0.21 0.20 -56.6 0 1 79.91 16.56
  L 80.17 16.71
  A 0.44 0.43 -56.4 0 1 80.29 17.34
  Q 69.46 31.24 64.87 48.00
  A 0.57 0.57 0.0 0 0 65.32 48.71
  C 68.78 49.31 71.17 46.53 72.85 43.69
  A 0.75 0.75 0.0 0 0 72.64 42.69
  Q 72.39 42.50 71.58 42.35
  A 0.36 0.36 0.0 0 1 71.46 41.68
  Q 71.83 41.46 72.88 41.35
  A 2.17 2.15 23.5 0 0 73.96 40.93
  Q 76.46 39.08 77.75 35.55
  A 0.64 0.63 22.9 0 0 77.42 34.75
  Q 76.05 34.10 76.04 34.09
  Z
  M 103.14 51.60
  A 2.05 2.05 0.0 0 0 101.09 49.55
  L 26.91 49.55
  A 2.05 2.05 0.0 0 0 24.86 51.60
  L 24.86 98.76
  A 2.05 2.05 0.0 0 0 26.91 100.81
  L 101.09 100.81
  A 2.05 2.05 0.0 0 0 103.14 98.76
  L 103.14 51.60
  Z"
/>
<path fill="#ffffff" d="
  M 76.04 34.09
  Q 76.05 34.10 77.42 34.75
  A 0.64 0.63 22.9 0 1 77.75 35.55
  Q 76.46 39.08 73.96 40.93
  A 2.17 2.15 23.5 0 1 72.88 41.35
  Q 71.83 41.46 71.46 41.68
  A 0.36 0.36 0.0 0 0 71.58 42.35
  Q 72.39 42.50 72.64 42.69
  A 0.75 0.75 0.0 0 1 72.85 43.69
  C 71.17 46.53 68.78 49.31 65.32 48.71
  A 0.57 0.57 0.0 0 1 64.87 48.00
  Q 69.46 31.24 80.29 17.34
  A 0.44 0.43 -56.4 0 0 80.17 16.71
  L 79.91 16.56
  A 0.21 0.20 -56.6 0 0 79.65 16.62
  Q 68.57 30.57 63.32 47.56
  A 0.53 0.52 -52.0 0 1 62.37 47.68
  Q 60.20 44.14 61.12 40.02
  A 0.57 0.57 0.0 0 1 61.84 39.60
  L 62.80 39.91
  A 0.46 0.45 68.6 0 0 63.16 39.08
  L 61.96 38.39
  A 0.99 0.98 -70.3 0 1 61.49 37.38
  L 62.43 31.69
  A 0.46 0.46 0.0 0 1 63.16 31.39
  L 65.09 32.79
  A 0.38 0.36 46.4 0 0 65.49 32.81
  L 65.50 32.79
  A 0.24 0.24 0.0 0 0 65.52 32.50
  L 64.05 30.25
  A 1.31 1.30 43.5 0 1 64.01 28.87
  L 67.69 22.48
  A 0.61 0.61 0.0 0 1 68.53 22.26
  L 69.99 23.10
  A 0.13 0.13 0.0 0 0 70.18 22.95
  Q 69.88 21.94 69.66 21.68
  A 1.99 1.91 42.3 0 1 69.50 19.31
  Q 72.73 14.58 76.38 12.27
  A 0.92 0.91 60.4 0 1 77.69 12.64
  Q 78.04 13.35 78.21 13.48
  A 0.33 0.33 0.0 0 0 78.74 13.16
  L 78.43 11.62
  A 0.80 0.79 74.5 0 1 78.94 10.71
  Q 84.36 8.78 89.10 8.77
  A 0.83 0.83 0.0 0 1 89.89 9.84
  L 86.51 20.55
  A 0.61 0.61 0.0 0 1 85.84 20.96
  L 83.91 20.64
  A 0.25 0.25 0.0 0 0 83.74 21.11
  L 85.47 22.10
  A 0.66 0.66 0.0 0 1 85.71 23.00
  L 83.76 26.38
  A 0.91 0.91 0.0 0 1 83.01 26.83
  L 80.52 26.93
  A 0.20 0.18 1.7 0 0 80.34 27.09
  L 80.28 27.41
  A 0.34 0.33 8.0 0 0 80.58 27.80
  Q 81.66 27.89 82.18 28.26
  A 0.71 0.71 0.0 0 1 82.34 29.26
  Q 81.52 30.37 80.58 32.35
  Q 79.78 34.03 76.59 33.32
  A 0.51 0.51 0.0 0 0 76.04 34.09
  Z"
/>
<path fill="#ffffff" d="
  M 103.14 98.76
  A 2.05 2.05 0.0 0 1 101.09 100.81
  L 26.91 100.81
  A 2.05 2.05 0.0 0 1 24.86 98.76
  L 24.86 51.60
  A 2.05 2.05 0.0 0 1 26.91 49.55
  L 101.09 49.55
  A 2.05 2.05 0.0 0 1 103.14 51.60
  L 103.14 98.76
  Z
  M 49.97 75.49
  A 6.66 6.66 0.0 0 0 43.31 68.83
  A 6.66 6.66 0.0 0 0 36.65 75.49
  A 6.66 6.66 0.0 0 0 43.31 82.15
  A 6.66 6.66 0.0 0 0 49.97 75.49
  Z
  M 91.34 75.47
  A 6.65 6.65 0.0 0 0 84.69 68.82
  A 6.65 6.65 0.0 0 0 78.04 75.47
  A 6.65 6.65 0.0 0 0 84.69 82.12
  A 6.65 6.65 0.0 0 0 91.34 75.47
  Z"
/>
<circle fill="#008847" cx="43.31" cy="75.49" r="6.66"/>
<circle fill="#008847" cx="84.69" cy="75.47" r="6.65"/>
</svg>
