<svg xmlns="http://www.w3.org/2000/svg" width="41" height="40" fill="none"><path fill="#0AD0BC" d="M37.171 31.008c2.459-3.697 3.572-8.002 3.233-12.476C39.566 7.506 29.684-.863 18.54.072 7.11 1.03-1.006 10.686.1 21.935c1.16 11.78 11.907 19.919 23.986 17.699 2.512-.462 4.905-1.424 7.08-2.751l.04-.024 5.995 1.225c.61.123 1.151-.406 1.03-1.008l-1.173-5.9.114-.168h-.002Z"/><path fill="#fff" d="m25.955 32.464-.851-1.881c-1.32-.217-2.535-1.115-2.535-1.115.77.295 2.596.41 2.596.41v.01c3.49.06 6.838-1.55 8.936-4.337a.567.567 0 0 0-.252-.876l-3.041-1.149c2.489-2.395 3.695-5.86 3.186-9.287a.576.576 0 0 0-.805-.443l-2.127.941c-.06 1.332-.838 2.643-.838 2.643.16-.603.147-1.8.132-2.33a10.774 10.774 0 0 0-4.377-8.074.58.58 0 0 0-.884.252l-.958 2.482a11.012 11.012 0 0 0-9.168-2.927.57.57 0 0 0-.448.796l.838 1.85c1.327.212 2.55 1.118 2.55 1.118-.55-.21-1.64-.33-2.217-.38-3.622-.186-7.142 1.436-9.317 4.325a.568.568 0 0 0 .252.878l3.042 1.15a10.73 10.73 0 0 0-3.187 9.287.576.576 0 0 0 .805.442l2.127-.94c.05-1.343.84-2.674.84-2.674-.165.622-.145 1.871-.13 2.374a10.773 10.773 0 0 0 4.375 8.058.58.58 0 0 0 .884-.251l.958-2.483a11.011 11.011 0 0 0 9.169 2.927.57.57 0 0 0 .447-.796h-.002Z"/><path fill="#FF3131" d="m21.589 28.24-.294-1.85a6.571 6.571 0 0 0 6.197-1.173.197.197 0 0 0-.013-.31l-1.717-1.236a6.434 6.434 0 0 0 3.317-5.038.2.2 0 0 0-.23-.217l-2.01.313a6.386 6.386 0 0 0-1.367-5.47.202.202 0 0 0-.313.013l-1.05 1.426a6.514 6.514 0 0 0-5.003-3.115c-.131-.01-.24.1-.219.228l.294 1.849a6.576 6.576 0 0 0-6.197 1.173.197.197 0 0 0 .013.31l1.717 1.235a6.433 6.433 0 0 0-3.318 5.039.2.2 0 0 0 .23.216l2.011-.312a6.388 6.388 0 0 0 1.367 5.47.202.202 0 0 0 .313-.013l1.05-1.426a6.514 6.514 0 0 0 5.002 3.115c.132.01.242-.1.22-.228Z"/><path fill="#fff" d="m23.94 22.585-1.606-1.188c.29-.2.555-.446.779-.743a3.338 3.338 0 0 0-.035-4.085.166.166 0 0 0-.261.003L21.584 18.2a3.347 3.347 0 0 0-.923-1.034 3.438 3.438 0 0 0-4.131.034.162.162 0 0 0 .002.258l1.605 1.188c-.29.2-.555.447-.778.744a3.338 3.338 0 0 0 .035 4.084.166.166 0 0 0 .26-.002l1.233-1.628c.226.392.533.748.923 1.034 1.257.93 2.95.874 4.132-.035a.162.162 0 0 0-.003-.258Z"/></svg>