<?xml version="1.0" encoding="UTF-8" standalone="no"?>
<!DOCTYPE svg PUBLIC "-//W3C//DTD SVG 1.1//EN" "http://www.w3.org/Graphics/SVG/1.1/DTD/svg11.dtd">
<svg xmlns="http://www.w3.org/2000/svg" version="1.1" viewBox="0.00 0.00 512.00 512.00">
<g stroke-width="2.00" fill="none" stroke-linecap="butt">
<path stroke="#233c40" vector-effect="non-scaling-stroke" d="
  M 61.90 309.96
  C 64.53 308.89 66.24 307.05 68.28 305.21
  Q 78.85 295.68 99.65 276.65
  C 103.00 273.59 106.31 273.69 109.75 273.73
  Q 126.01 273.89 157.75 273.85
  Q 167.65 273.84 171.28 272.76
  C 185.99 268.39 193.87 256.90 194.08 241.76
  Q 194.32 224.39 193.97 191.28
  Q 193.84 179.14 185.11 170.31
  C 178.82 163.95 170.82 161.62 162.00 161.67
  Q 147.30 161.74 90.12 161.67
  Q 78.55 161.65 75.43 162.26
  C 60.56 165.19 50.96 178.24 50.99 193.26
  Q 51.12 267.28 50.96 299.19
  Q 50.93 303.87 51.78 305.66
  C 53.53 309.33 57.94 311.57 61.90 309.96"
/>
<path stroke="#797368" vector-effect="non-scaling-stroke" d="
  M 387.24 260.69
  A 7.22 7.22 0.0 0 0 380.02 253.47
  A 7.22 7.22 0.0 0 0 372.80 260.69
  A 7.22 7.22 0.0 0 0 380.02 267.91
  A 7.22 7.22 0.0 0 0 387.24 260.69"
/>
<path stroke="#797368" vector-effect="non-scaling-stroke" d="
  M 331.07 281.35
  A 0.30 0.29 70.5 0 1 330.59 281.12
  L 330.59 254.55
  A 0.73 0.73 0.0 0 0 329.86 253.82
  L 319.95 253.82
  A 0.86 0.86 0.0 0 0 319.09 254.68
  L 319.09 323.48
  A 1.00 1.00 0.0 0 0 320.09 324.48
  L 329.69 324.48
  A 0.90 0.90 0.0 0 0 330.59 323.59
  Q 330.68 317.70 330.56 298.00
  C 330.52 291.33 333.85 285.79 340.80 284.71
  C 347.39 283.67 352.43 288.21 352.68 294.58
  Q 352.96 302.05 352.80 323.29
  A 1.19 1.18 0.2 0 0 353.99 324.48
  L 363.43 324.48
  A 0.97 0.97 0.0 0 0 364.40 323.52
  Q 364.44 307.17 364.37 293.30
  Q 364.28 277.75 349.77 274.78
  C 344.48 273.69 336.47 275.27 332.45 280.04
  Q 332.03 280.54 331.07 281.35"
/>
<path stroke="#797368" vector-effect="non-scaling-stroke" d="
  M 193.63 283.85
  L 193.63 277.07
  A 1.24 1.23 0.0 0 0 192.39 275.84
  L 183.58 275.84
  A 0.87 0.87 0.0 0 0 182.71 276.71
  L 182.71 323.47
  A 1.02 1.02 0.0 0 0 183.73 324.49
  L 193.40 324.49
  A 0.77 0.77 0.0 0 0 194.17 323.72
  Q 194.17 309.38 194.16 308.93
  Q 193.88 297.97 195.43 294.34
  Q 199.17 285.63 210.58 286.02
  A 1.19 1.18 -88.8 0 0 211.81 284.83
  L 211.81 276.24
  A 1.61 1.60 -86.4 0 0 210.41 274.64
  C 202.95 273.65 197.49 277.38 194.27 283.99
  A 0.34 0.33 -32.3 0 1 193.63 283.85"
/>
<path stroke="#797368" vector-effect="non-scaling-stroke" d="
  M 246.42 318.49
  A 0.31 0.31 0.0 0 1 246.95 318.71
  L 246.95 323.74
  A 0.71 0.71 0.0 0 0 247.66 324.45
  L 256.26 324.45
  A 0.91 0.91 0.0 0 0 257.17 323.54
  Q 257.18 302.90 257.19 292.50
  C 257.20 283.58 251.77 277.27 243.20 275.27
  C 233.17 272.93 219.72 276.24 217.21 287.71
  A 1.37 1.36 -78.0 0 0 218.26 289.34
  L 225.38 290.83
  A 1.64 1.64 0.0 0 0 227.22 289.86
  C 229.70 283.92 236.14 281.65 241.66 284.87
  Q 246.37 287.62 246.45 294.39
  A 0.94 0.94 0.0 0 1 245.49 295.35
  C 233.59 295.11 212.97 293.41 214.26 311.52
  Q 214.67 317.36 218.86 321.27
  C 224.78 326.80 236.78 327.24 243.25 321.49
  Q 244.34 320.52 246.42 318.49"
/>
<path stroke="#797368" vector-effect="non-scaling-stroke" d="
  M 300.46 280.87
  Q 295.21 274.52 286.45 274.56
  Q 273.64 274.63 267.12 284.59
  C 262.57 291.54 261.99 301.99 264.88 309.56
  Q 270.26 323.67 285.48 323.71
  Q 293.58 323.73 299.07 318.20
  A 0.46 0.46 0.0 0 1 299.86 318.51
  C 300.12 326.83 298.99 334.04 289.14 335.35
  Q 279.41 336.63 272.83 330.25
  A 1.58 1.58 0.0 0 0 270.45 330.45
  L 267.17 334.97
  A 2.47 2.47 0.0 0 0 267.36 338.10
  C 279.33 350.97 305.42 348.28 310.31 329.52
  Q 311.13 326.39 311.07 312.90
  Q 311.04 305.80 311.03 277.22
  A 1.40 1.39 0.0 0 0 309.63 275.83
  L 303.25 275.83
  A 1.45 1.44 -84.1 0 0 301.84 276.98
  L 301.06 280.72
  A 0.35 0.34 -58.9 0 1 300.46 280.87"
/>
<path stroke="#797368" vector-effect="non-scaling-stroke" d="
  M 404.40 281.20
  L 404.40 277.16
  A 1.35 1.35 0.0 0 0 403.05 275.81
  L 395.41 275.81
  A 1.38 1.38 0.0 0 0 394.03 277.19
  L 394.03 323.30
  A 1.17 1.16 -90.0 0 0 395.19 324.47
  L 404.63 324.47
  A 0.99 0.99 0.0 0 0 405.62 323.46
  Q 405.42 310.39 405.64 296.16
  Q 405.74 289.59 410.64 286.15
  C 414.11 283.71 420.36 283.98 423.06 287.87
  Q 425.22 290.99 425.29 294.04
  Q 425.46 302.29 425.34 323.41
  A 1.05 1.05 0.0 0 0 426.39 324.47
  L 435.86 324.47
  A 1.06 1.05 -90.0 0 0 436.91 323.41
  Q 436.79 307.43 436.97 296.04
  C 437.19 282.22 456.58 279.82 456.61 294.96
  Q 456.66 312.61 456.64 323.57
  A 0.90 0.90 0.0 0 0 457.54 324.48
  L 467.30 324.48
  A 0.99 0.99 0.0 0 0 468.29 323.49
  Q 468.33 306.06 468.27 295.00
  C 468.20 282.30 461.99 273.05 447.97 274.77
  Q 441.67 275.54 437.61 280.12
  Q 435.94 282.02 435.32 282.43
  A 0.57 0.57 0.0 0 1 434.52 282.26
  C 427.85 271.79 412.57 272.06 405.15 281.46
  A 0.42 0.42 0.0 0 1 404.40 281.20"
/>
<path stroke="#797368" vector-effect="non-scaling-stroke" d="
  M 385.68 276.95
  A 1.09 1.09 0.0 0 0 384.59 275.86
  L 375.13 275.86
  A 1.09 1.09 0.0 0 0 374.04 276.95
  L 374.04 323.41
  A 1.09 1.09 0.0 0 0 375.13 324.50
  L 384.59 324.50
  A 1.09 1.09 0.0 0 0 385.68 323.41
  L 385.68 276.95"
/>
<path stroke="#233c40" vector-effect="non-scaling-stroke" d="
  M 63.40 291.62
  A 0.60 0.60 0.0 0 0 64.41 292.07
  Q 84.30 273.51 95.07 263.54
  Q 97.87 260.94 102.75 260.94
  Q 136.38 260.95 160.97 260.96
  Q 177.44 260.96 181.01 245.28
  Q 181.59 242.76 181.62 241.79
  Q 181.77 236.68 181.75 200.11
  Q 181.75 190.29 180.22 186.39
  Q 175.58 174.53 160.98 174.52
  Q 119.64 174.49 86.50 174.51
  C 77.08 174.52 68.94 176.76 65.11 185.86
  Q 63.40 189.93 63.41 200.37
  Q 63.47 269.18 63.40 291.62"
/>
<path stroke="#803b2f" vector-effect="non-scaling-stroke" d="
  M 149.94 206.71
  A 5.18 5.18 0.0 0 0 144.76 201.53
  L 87.74 201.53
  A 5.18 5.18 0.0 0 0 82.56 206.71
  L 82.56 206.91
  A 5.18 5.18 0.0 0 0 87.74 212.09
  L 144.76 212.09
  A 5.18 5.18 0.0 0 0 149.94 206.91
  L 149.94 206.71"
/>
<path stroke="#803b2f" vector-effect="non-scaling-stroke" d="
  M 132.84 231.59
  A 5.13 5.13 0.0 0 0 127.71 226.46
  L 87.73 226.46
  A 5.13 5.13 0.0 0 0 82.60 231.59
  L 82.60 231.85
  A 5.13 5.13 0.0 0 0 87.73 236.98
  L 127.71 236.98
  A 5.13 5.13 0.0 0 0 132.84 231.85
  L 132.84 231.59"
/>
<path stroke="#797368" vector-effect="non-scaling-stroke" d="
  M 245.77 303.05
  Q 238.61 302.90 231.55 303.72
  Q 226.28 304.34 225.53 308.53
  C 223.24 321.34 248.26 319.11 246.41 303.63
  A 0.66 0.66 0.0 0 0 245.77 303.05"
/>
<path stroke="#797368" vector-effect="non-scaling-stroke" d="
  M 288.1677 284.1906
  A 15.05 12.94 -87.0 0 0 274.4577 298.5428
  A 15.05 12.94 -87.0 0 0 286.5923 314.2494
  A 15.05 12.94 -87.0 0 0 300.3023 299.8972
  A 15.05 12.94 -87.0 0 0 288.1677 284.1906"
/>
</g>
<path fill="#191b1e" d="
  M 512.00 0.00
  L 512.00 512.00
  L 0.00 512.00
  L 0.00 0.00
  L 512.00 0.00
  Z
  M 61.90 309.96
  C 64.53 308.89 66.24 307.05 68.28 305.21
  Q 78.85 295.68 99.65 276.65
  C 103.00 273.59 106.31 273.69 109.75 273.73
  Q 126.01 273.89 157.75 273.85
  Q 167.65 273.84 171.28 272.76
  C 185.99 268.39 193.87 256.90 194.08 241.76
  Q 194.32 224.39 193.97 191.28
  Q 193.84 179.14 185.11 170.31
  C 178.82 163.95 170.82 161.62 162.00 161.67
  Q 147.30 161.74 90.12 161.67
  Q 78.55 161.65 75.43 162.26
  C 60.56 165.19 50.96 178.24 50.99 193.26
  Q 51.12 267.28 50.96 299.19
  Q 50.93 303.87 51.78 305.66
  C 53.53 309.33 57.94 311.57 61.90 309.96
  Z
  M 387.24 260.69
  A 7.22 7.22 0.0 0 0 380.02 253.47
  A 7.22 7.22 0.0 0 0 372.80 260.69
  A 7.22 7.22 0.0 0 0 380.02 267.91
  A 7.22 7.22 0.0 0 0 387.24 260.69
  Z
  M 331.07 281.35
  A 0.30 0.29 70.5 0 1 330.59 281.12
  L 330.59 254.55
  A 0.73 0.73 0.0 0 0 329.86 253.82
  L 319.95 253.82
  A 0.86 0.86 0.0 0 0 319.09 254.68
  L 319.09 323.48
  A 1.00 1.00 0.0 0 0 320.09 324.48
  L 329.69 324.48
  A 0.90 0.90 0.0 0 0 330.59 323.59
  Q 330.68 317.70 330.56 298.00
  C 330.52 291.33 333.85 285.79 340.80 284.71
  C 347.39 283.67 352.43 288.21 352.68 294.58
  Q 352.96 302.05 352.80 323.29
  A 1.19 1.18 0.2 0 0 353.99 324.48
  L 363.43 324.48
  A 0.97 0.97 0.0 0 0 364.40 323.52
  Q 364.44 307.17 364.37 293.30
  Q 364.28 277.75 349.77 274.78
  C 344.48 273.69 336.47 275.27 332.45 280.04
  Q 332.03 280.54 331.07 281.35
  Z
  M 193.63 283.85
  L 193.63 277.07
  A 1.24 1.23 0.0 0 0 192.39 275.84
  L 183.58 275.84
  A 0.87 0.87 0.0 0 0 182.71 276.71
  L 182.71 323.47
  A 1.02 1.02 0.0 0 0 183.73 324.49
  L 193.40 324.49
  A 0.77 0.77 0.0 0 0 194.17 323.72
  Q 194.17 309.38 194.16 308.93
  Q 193.88 297.97 195.43 294.34
  Q 199.17 285.63 210.58 286.02
  A 1.19 1.18 -88.8 0 0 211.81 284.83
  L 211.81 276.24
  A 1.61 1.60 -86.4 0 0 210.41 274.64
  C 202.95 273.65 197.49 277.38 194.27 283.99
  A 0.34 0.33 -32.3 0 1 193.63 283.85
  Z
  M 246.42 318.49
  A 0.31 0.31 0.0 0 1 246.95 318.71
  L 246.95 323.74
  A 0.71 0.71 0.0 0 0 247.66 324.45
  L 256.26 324.45
  A 0.91 0.91 0.0 0 0 257.17 323.54
  Q 257.18 302.90 257.19 292.50
  C 257.20 283.58 251.77 277.27 243.20 275.27
  C 233.17 272.93 219.72 276.24 217.21 287.71
  A 1.37 1.36 -78.0 0 0 218.26 289.34
  L 225.38 290.83
  A 1.64 1.64 0.0 0 0 227.22 289.86
  C 229.70 283.92 236.14 281.65 241.66 284.87
  Q 246.37 287.62 246.45 294.39
  A 0.94 0.94 0.0 0 1 245.49 295.35
  C 233.59 295.11 212.97 293.41 214.26 311.52
  Q 214.67 317.36 218.86 321.27
  C 224.78 326.80 236.78 327.24 243.25 321.49
  Q 244.34 320.52 246.42 318.49
  Z
  M 300.46 280.87
  Q 295.21 274.52 286.45 274.56
  Q 273.64 274.63 267.12 284.59
  C 262.57 291.54 261.99 301.99 264.88 309.56
  Q 270.26 323.67 285.48 323.71
  Q 293.58 323.73 299.07 318.20
  A 0.46 0.46 0.0 0 1 299.86 318.51
  C 300.12 326.83 298.99 334.04 289.14 335.35
  Q 279.41 336.63 272.83 330.25
  A 1.58 1.58 0.0 0 0 270.45 330.45
  L 267.17 334.97
  A 2.47 2.47 0.0 0 0 267.36 338.10
  C 279.33 350.97 305.42 348.28 310.31 329.52
  Q 311.13 326.39 311.07 312.90
  Q 311.04 305.80 311.03 277.22
  A 1.40 1.39 0.0 0 0 309.63 275.83
  L 303.25 275.83
  A 1.45 1.44 -84.1 0 0 301.84 276.98
  L 301.06 280.72
  A 0.35 0.34 -58.9 0 1 300.46 280.87
  Z
  M 404.40 281.20
  L 404.40 277.16
  A 1.35 1.35 0.0 0 0 403.05 275.81
  L 395.41 275.81
  A 1.38 1.38 0.0 0 0 394.03 277.19
  L 394.03 323.30
  A 1.17 1.16 -90.0 0 0 395.19 324.47
  L 404.63 324.47
  A 0.99 0.99 0.0 0 0 405.62 323.46
  Q 405.42 310.39 405.64 296.16
  Q 405.74 289.59 410.64 286.15
  C 414.11 283.71 420.36 283.98 423.06 287.87
  Q 425.22 290.99 425.29 294.04
  Q 425.46 302.29 425.34 323.41
  A 1.05 1.05 0.0 0 0 426.39 324.47
  L 435.86 324.47
  A 1.06 1.05 -90.0 0 0 436.91 323.41
  Q 436.79 307.43 436.97 296.04
  C 437.19 282.22 456.58 279.82 456.61 294.96
  Q 456.66 312.61 456.64 323.57
  A 0.90 0.90 0.0 0 0 457.54 324.48
  L 467.30 324.48
  A 0.99 0.99 0.0 0 0 468.29 323.49
  Q 468.33 306.06 468.27 295.00
  C 468.20 282.30 461.99 273.05 447.97 274.77
  Q 441.67 275.54 437.61 280.12
  Q 435.94 282.02 435.32 282.43
  A 0.57 0.57 0.0 0 1 434.52 282.26
  C 427.85 271.79 412.57 272.06 405.15 281.46
  A 0.42 0.42 0.0 0 1 404.40 281.20
  Z
  M 385.68 276.95
  A 1.09 1.09 0.0 0 0 384.59 275.86
  L 375.13 275.86
  A 1.09 1.09 0.0 0 0 374.04 276.95
  L 374.04 323.41
  A 1.09 1.09 0.0 0 0 375.13 324.50
  L 384.59 324.50
  A 1.09 1.09 0.0 0 0 385.68 323.41
  L 385.68 276.95
  Z"
/>
<path fill="#2c5c61" d="
  M 61.90 309.96
  C 57.94 311.57 53.53 309.33 51.78 305.66
  Q 50.93 303.87 50.96 299.19
  Q 51.12 267.28 50.99 193.26
  C 50.96 178.24 60.56 165.19 75.43 162.26
  Q 78.55 161.65 90.12 161.67
  Q 147.30 161.74 162.00 161.67
  C 170.82 161.62 178.82 163.95 185.11 170.31
  Q 193.84 179.14 193.97 191.28
  Q 194.32 224.39 194.08 241.76
  C 193.87 256.90 185.99 268.39 171.28 272.76
  Q 167.65 273.84 157.75 273.85
  Q 126.01 273.89 109.75 273.73
  C 106.31 273.69 103.00 273.59 99.65 276.65
  Q 78.85 295.68 68.28 305.21
  C 66.24 307.05 64.53 308.89 61.90 309.96
  Z
  M 63.40 291.62
  A 0.60 0.60 0.0 0 0 64.41 292.07
  Q 84.30 273.51 95.07 263.54
  Q 97.87 260.94 102.75 260.94
  Q 136.38 260.95 160.97 260.96
  Q 177.44 260.96 181.01 245.28
  Q 181.59 242.76 181.62 241.79
  Q 181.77 236.68 181.75 200.11
  Q 181.75 190.29 180.22 186.39
  Q 175.58 174.53 160.98 174.52
  Q 119.64 174.49 86.50 174.51
  C 77.08 174.52 68.94 176.76 65.11 185.86
  Q 63.40 189.93 63.41 200.37
  Q 63.47 269.18 63.40 291.62
  Z"
/>
<path fill="#191b1e" d="
  M 63.40 291.62
  Q 63.47 269.18 63.41 200.37
  Q 63.40 189.93 65.11 185.86
  C 68.94 176.76 77.08 174.52 86.50 174.51
  Q 119.64 174.49 160.98 174.52
  Q 175.58 174.53 180.22 186.39
  Q 181.75 190.29 181.75 200.11
  Q 181.77 236.68 181.62 241.79
  Q 181.59 242.76 181.01 245.28
  Q 177.44 260.96 160.97 260.96
  Q 136.38 260.95 102.75 260.94
  Q 97.87 260.94 95.07 263.54
  Q 84.30 273.51 64.41 292.07
  A 0.60 0.60 0.0 0 1 63.40 291.62
  Z
  M 149.94 206.71
  A 5.18 5.18 0.0 0 0 144.76 201.53
  L 87.74 201.53
  A 5.18 5.18 0.0 0 0 82.56 206.71
  L 82.56 206.91
  A 5.18 5.18 0.0 0 0 87.74 212.09
  L 144.76 212.09
  A 5.18 5.18 0.0 0 0 149.94 206.91
  L 149.94 206.71
  Z
  M 132.84 231.59
  A 5.13 5.13 0.0 0 0 127.71 226.46
  L 87.73 226.46
  A 5.13 5.13 0.0 0 0 82.60 231.59
  L 82.60 231.85
  A 5.13 5.13 0.0 0 0 87.73 236.98
  L 127.71 236.98
  A 5.13 5.13 0.0 0 0 132.84 231.85
  L 132.84 231.59
  Z"
/>
<rect fill="#e75a40" x="82.56" y="201.53" width="67.38" height="10.56" rx="5.18"/>
<rect fill="#e75a40" x="82.60" y="226.46" width="50.24" height="10.52" rx="5.13"/>
<circle fill="#d8cab2" cx="380.02" cy="260.69" r="7.22"/>
<path fill="#d8cab2" d="
  M 331.07 281.35
  Q 332.03 280.54 332.45 280.04
  C 336.47 275.27 344.48 273.69 349.77 274.78
  Q 364.28 277.75 364.37 293.30
  Q 364.44 307.17 364.40 323.52
  A 0.97 0.97 0.0 0 1 363.43 324.48
  L 353.99 324.48
  A 1.19 1.18 0.2 0 1 352.80 323.29
  Q 352.96 302.05 352.68 294.58
  C 352.43 288.21 347.39 283.67 340.80 284.71
  C 333.85 285.79 330.52 291.33 330.56 298.00
  Q 330.68 317.70 330.59 323.59
  A 0.90 0.90 0.0 0 1 329.69 324.48
  L 320.09 324.48
  A 1.00 1.00 0.0 0 1 319.09 323.48
  L 319.09 254.68
  A 0.86 0.86 0.0 0 1 319.95 253.82
  L 329.86 253.82
  A 0.73 0.73 0.0 0 1 330.59 254.55
  L 330.59 281.12
  A 0.30 0.29 70.5 0 0 331.07 281.35
  Z"
/>
<path fill="#d8cab2" d="
  M 193.63 283.85
  A 0.34 0.33 -32.3 0 0 194.27 283.99
  C 197.49 277.38 202.95 273.65 210.41 274.64
  A 1.61 1.60 -86.4 0 1 211.81 276.24
  L 211.81 284.83
  A 1.19 1.18 -88.8 0 1 210.58 286.02
  Q 199.17 285.63 195.43 294.34
  Q 193.88 297.97 194.16 308.93
  Q 194.17 309.38 194.17 323.72
  A 0.77 0.77 0.0 0 1 193.40 324.49
  L 183.73 324.49
  A 1.02 1.02 0.0 0 1 182.71 323.47
  L 182.71 276.71
  A 0.87 0.87 0.0 0 1 183.58 275.84
  L 192.39 275.84
  A 1.24 1.23 0.0 0 1 193.63 277.07
  L 193.63 283.85
  Z"
/>
<path fill="#d8cab2" d="
  M 246.42 318.49
  Q 244.34 320.52 243.25 321.49
  C 236.78 327.24 224.78 326.80 218.86 321.27
  Q 214.67 317.36 214.26 311.52
  C 212.97 293.41 233.59 295.11 245.49 295.35
  A 0.94 0.94 0.0 0 0 246.45 294.39
  Q 246.37 287.62 241.66 284.87
  C 236.14 281.65 229.70 283.92 227.22 289.86
  A 1.64 1.64 0.0 0 1 225.38 290.83
  L 218.26 289.34
  A 1.37 1.36 -78.0 0 1 217.21 287.71
  C 219.72 276.24 233.17 272.93 243.20 275.27
  C 251.77 277.27 257.20 283.58 257.19 292.50
  Q 257.18 302.90 257.17 323.54
  A 0.91 0.91 0.0 0 1 256.26 324.45
  L 247.66 324.45
  A 0.71 0.71 0.0 0 1 246.95 323.74
  L 246.95 318.71
  A 0.31 0.31 0.0 0 0 246.42 318.49
  Z
  M 245.77 303.05
  Q 238.61 302.90 231.55 303.72
  Q 226.28 304.34 225.53 308.53
  C 223.24 321.34 248.26 319.11 246.41 303.63
  A 0.66 0.66 0.0 0 0 245.77 303.05
  Z"
/>
<path fill="#d8cab2" d="
  M 300.46 280.87
  A 0.35 0.34 -58.9 0 0 301.06 280.72
  L 301.84 276.98
  A 1.45 1.44 -84.1 0 1 303.25 275.83
  L 309.63 275.83
  A 1.40 1.39 0.0 0 1 311.03 277.22
  Q 311.04 305.80 311.07 312.90
  Q 311.13 326.39 310.31 329.52
  C 305.42 348.28 279.33 350.97 267.36 338.10
  A 2.47 2.47 0.0 0 1 267.17 334.97
  L 270.45 330.45
  A 1.58 1.58 0.0 0 1 272.83 330.25
  Q 279.41 336.63 289.14 335.35
  C 298.99 334.04 300.12 326.83 299.86 318.51
  A 0.46 0.46 0.0 0 0 299.07 318.20
  Q 293.58 323.73 285.48 323.71
  Q 270.26 323.67 264.88 309.56
  C 261.99 301.99 262.57 291.54 267.12 284.59
  Q 273.64 274.63 286.45 274.56
  Q 295.21 274.52 300.46 280.87
  Z
  M 288.1677 284.1906
  A 15.05 12.94 -87.0 0 0 274.4577 298.5428
  A 15.05 12.94 -87.0 0 0 286.5923 314.2494
  A 15.05 12.94 -87.0 0 0 300.3023 299.8972
  A 15.05 12.94 -87.0 0 0 288.1677 284.1906
  Z"
/>
<path fill="#d8cab2" d="
  M 404.40 281.20
  A 0.42 0.42 0.0 0 0 405.15 281.46
  C 412.57 272.06 427.85 271.79 434.52 282.26
  A 0.57 0.57 0.0 0 0 435.32 282.43
  Q 435.94 282.02 437.61 280.12
  Q 441.67 275.54 447.97 274.77
  C 461.99 273.05 468.20 282.30 468.27 295.00
  Q 468.33 306.06 468.29 323.49
  A 0.99 0.99 0.0 0 1 467.30 324.48
  L 457.54 324.48
  A 0.90 0.90 0.0 0 1 456.64 323.57
  Q 456.66 312.61 456.61 294.96
  C 456.58 279.82 437.19 282.22 436.97 296.04
  Q 436.79 307.43 436.91 323.41
  A 1.06 1.05 90.0 0 1 435.86 324.47
  L 426.39 324.47
  A 1.05 1.05 0.0 0 1 425.34 323.41
  Q 425.46 302.29 425.29 294.04
  Q 425.22 290.99 423.06 287.87
  C 420.36 283.98 414.11 283.71 410.64 286.15
  Q 405.74 289.59 405.64 296.16
  Q 405.42 310.39 405.62 323.46
  A 0.99 0.99 0.0 0 1 404.63 324.47
  L 395.19 324.47
  A 1.17 1.16 -90.0 0 1 394.03 323.30
  L 394.03 277.19
  A 1.38 1.38 0.0 0 1 395.41 275.81
  L 403.05 275.81
  A 1.35 1.35 0.0 0 1 404.40 277.16
  L 404.40 281.20
  Z"
/>
<rect fill="#d8cab2" x="374.04" y="275.86" width="11.64" height="48.64" rx="1.09"/>
<ellipse fill="#191b1e" cx="0.00" cy="0.00" transform="translate(287.38,299.22) rotate(-87.0)" rx="15.05" ry="12.94"/>
<path fill="#191b1e" d="
  M 246.41 303.63
  C 248.26 319.11 223.24 321.34 225.53 308.53
  Q 226.28 304.34 231.55 303.72
  Q 238.61 302.90 245.77 303.05
  A 0.66 0.66 0.0 0 1 246.41 303.63
  Z"
/>
</svg>
