<?xml version="1.0" encoding="UTF-8" standalone="no"?>
<!DOCTYPE svg PUBLIC "-//W3C//DTD SVG 1.1//EN" "http://www.w3.org/Graphics/SVG/1.1/DTD/svg11.dtd">
<svg xmlns="http://www.w3.org/2000/svg" version="1.1" viewBox="0.00 0.00 48.00 48.00">
<g stroke-width="2.00" fill="none" stroke-linecap="butt">
<path stroke="#5d6872" vector-effect="non-scaling-stroke" d="
  M 45.96 21.98
  L 32.72 8.74"
/>
<path stroke="#5d6872" vector-effect="non-scaling-stroke" d="
  M 41.81 24.67
  L 30.08 13.02"
/>
<path stroke="#5d6872" vector-effect="non-scaling-stroke" d="
  M 35.42 24.49
  L 30.30 19.45"
/>
</g>
<path fill="#55acee" d="
  M 24.00 11.74
  L 24.01 2.01
  A 0.67 0.65 2.8 0 1 24.74 1.36
  L 25.89 1.47
  A 0.79 0.78 2.5 0 1 26.60 2.24
  Q 26.75 11.69 26.57 15.01
  C 26.42 17.63 21.80 17.36 19.94 16.68
  A 1.94 1.94 0.0 0 1 19.19 13.54
  Q 20.90 11.69 23.54 12.13
  Q 24.00 12.21 24.00 11.74
  Z"
/>
<path fill="#8899a6" d="
  M 48.00 14.58
  L 48.00 17.23
  L 45.96 21.98
  L 32.72 8.74
  Q 44.30 3.05 48.00 14.58
  Z"
/>
<path fill="#55acee" d="
  M 0.00 21.89
  L 0.00 20.72
  Q 1.54 18.65 4.66 18.85
  Q 5.26 18.89 5.27 18.29
  L 5.30 8.51
  Q 5.30 8.00 5.76 8.21
  L 16.75 13.15
  Q 17.19 13.35 17.21 13.84
  Q 17.34 18.58 17.23 23.21
  C 17.19 24.98 17.61 26.69 15.64 27.59
  Q 11.89 29.31 9.53 26.04
  A 0.89 0.88 -51.9 0 1 9.43 25.18
  Q 10.68 22.08 14.09 22.81
  Q 14.71 22.95 14.71 22.31
  L 14.65 16.31
  Q 14.65 16.14 14.50 16.07
  L 8.24 13.22
  A 0.24 0.24 0.0 0 0 7.89 13.44
  C 7.94 16.05 8.97 22.75 6.06 23.69
  Q 2.26 24.92 0.00 21.89
  Z"
/>
<path fill="#31373d" d="
  M 32.72 8.74
  L 45.96 21.98
  Q 43.70 26.20 41.81 24.67
  L 30.08 13.02
  Q 29.72 12.36 29.71 11.68
  Q 29.69 11.15 30.11 10.82
  L 32.72 8.74
  Z"
/>
<path fill="#8899a6" d="
  M 30.08 13.02
  L 41.81 24.67
  Q 38.41 25.71 35.42 24.49
  L 30.30 19.45
  Q 29.18 16.21 30.08 13.02
  Z"
/>
<path fill="#31373d" d="
  M 30.30 19.45
  L 35.42 24.49
  Q 37.37 27.03 35.18 28.91
  Q 28.17 34.94 21.22 40.96
  Q 18.72 43.12 15.41 41.85
  Q 14.92 41.66 14.55 42.04
  L 9.22 47.39
  Q 8.46 48.15 7.68 47.40
  L 7.40 47.13
  Q 6.55 46.29 7.40 45.45
  L 12.85 40.04
  Q 13.21 39.69 13.05 39.21
  Q 11.98 35.88 13.66 33.95
  Q 20.00 26.64 26.31 19.30
  Q 27.77 17.61 30.30 19.45
  Z"
/>
</svg>
