<?xml version="1.0" encoding="UTF-8" standalone="no"?>
<!DOCTYPE svg PUBLIC "-//W3C//DTD SVG 1.1//EN" "http://www.w3.org/Graphics/SVG/1.1/DTD/svg11.dtd">
<svg xmlns="http://www.w3.org/2000/svg" version="1.1" viewBox="0.00 0.00 186.00 186.00">
<path stroke="#8e2f13" stroke-width="2.00" fill="none" stroke-linecap="butt" vector-effect="non-scaling-stroke" d="
  M 95.65 104.29
  C 104.29 116.60 118.14 121.68 132.46 115.22
  A 1.20 1.17 42.5 0 1 133.36 115.19
  C 134.18 115.49 134.26 116.40 135.54 116.47
  Q 139.73 116.73 143.47 116.66
  A 0.94 0.94 0.0 0 0 144.39 115.74
  Q 144.58 105.90 144.51 95.00
  Q 144.47 88.49 143.43 85.30
  Q 139.54 73.40 128.85 69.68
  C 115.22 64.93 102.99 71.52 95.05 82.57
  Q 93.41 84.85 85.93 95.45
  C 79.62 104.40 70.90 111.47 59.98 105.57
  C 50.32 100.35 49.65 87.79 58.32 81.75
  C 65.38 76.83 73.72 78.09 80.17 84.01
  A 1.30 1.29 39.3 0 0 82.09 83.82
  L 85.79 78.65
  A 1.80 1.80 0.0 0 0 85.56 76.29
  C 68.66 60.35 40.74 69.20 41.82 94.27
  C 42.47 109.59 54.27 119.35 69.35 117.96
  C 85.76 116.46 93.27 100.52 101.40 89.41
  C 107.58 80.97 116.49 75.05 126.78 81.05
  C 136.35 86.62 136.57 99.52 127.13 105.14
  C 117.02 111.16 108.24 105.50 101.16 96.82
  A 0.66 0.66 0.0 0 0 100.11 96.85
  L 95.66 103.06
  A 1.08 1.05 -45.1 0 0 95.65 104.29"
/>
<path fill="#ff4c15" d="
  M 186.00 0.00
  L 186.00 186.00
  L 0.00 186.00
  L 0.00 0.00
  L 186.00 0.00
  Z
  M 95.65 104.29
  C 104.29 116.60 118.14 121.68 132.46 115.22
  A 1.20 1.17 42.5 0 1 133.36 115.19
  C 134.18 115.49 134.26 116.40 135.54 116.47
  Q 139.73 116.73 143.47 116.66
  A 0.94 0.94 0.0 0 0 144.39 115.74
  Q 144.58 105.90 144.51 95.00
  Q 144.47 88.49 143.43 85.30
  Q 139.54 73.40 128.85 69.68
  C 115.22 64.93 102.99 71.52 95.05 82.57
  Q 93.41 84.85 85.93 95.45
  C 79.62 104.40 70.90 111.47 59.98 105.57
  C 50.32 100.35 49.65 87.79 58.32 81.75
  C 65.38 76.83 73.72 78.09 80.17 84.01
  A 1.30 1.29 39.3 0 0 82.09 83.82
  L 85.79 78.65
  A 1.80 1.80 0.0 0 0 85.56 76.29
  C 68.66 60.35 40.74 69.20 41.82 94.27
  C 42.47 109.59 54.27 119.35 69.35 117.96
  C 85.76 116.46 93.27 100.52 101.40 89.41
  C 107.58 80.97 116.49 75.05 126.78 81.05
  C 136.35 86.62 136.57 99.52 127.13 105.14
  C 117.02 111.16 108.24 105.50 101.16 96.82
  A 0.66 0.66 0.0 0 0 100.11 96.85
  L 95.66 103.06
  A 1.08 1.05 -45.1 0 0 95.65 104.29
  Z"
/>
<path fill="#1c1211" d="
  M 95.65 104.29
  A 1.08 1.05 -45.1 0 1 95.66 103.06
  L 100.11 96.85
  A 0.66 0.66 0.0 0 1 101.16 96.82
  C 108.24 105.50 117.02 111.16 127.13 105.14
  C 136.57 99.52 136.35 86.62 126.78 81.05
  C 116.49 75.05 107.58 80.97 101.40 89.41
  C 93.27 100.52 85.76 116.46 69.35 117.96
  C 54.27 119.35 42.47 109.59 41.82 94.27
  C 40.74 69.20 68.66 60.35 85.56 76.29
  A 1.80 1.80 0.0 0 1 85.79 78.65
  L 82.09 83.82
  A 1.30 1.29 39.3 0 1 80.17 84.01
  C 73.72 78.09 65.38 76.83 58.32 81.75
  C 49.65 87.79 50.32 100.35 59.98 105.57
  C 70.90 111.47 79.62 104.40 85.93 95.45
  Q 93.41 84.85 95.05 82.57
  C 102.99 71.52 115.22 64.93 128.85 69.68
  Q 139.54 73.40 143.43 85.30
  Q 144.47 88.49 144.51 95.00
  Q 144.58 105.90 144.39 115.74
  A 0.94 0.94 0.0 0 1 143.47 116.66
  Q 139.73 116.73 135.54 116.47
  C 134.26 116.40 134.18 115.49 133.36 115.19
  A 1.20 1.17 42.5 0 0 132.46 115.22
  C 118.14 121.68 104.29 116.60 95.65 104.29
  Z"
/>
</svg>
