<?xml version="1.0" encoding="UTF-8" standalone="no"?>
<!DOCTYPE svg PUBLIC "-//W3C//DTD SVG 1.1//EN" "http://www.w3.org/Graphics/SVG/1.1/DTD/svg11.dtd">
<svg xmlns="http://www.w3.org/2000/svg" version="1.1" viewBox="0.00 0.00 512.00 512.00">
<path fill="#53616c" d="
  M 512.00 211.87
  L 512.00 214.98
  Q 510.67 220.44 507.03 222.34
  Q 384.01 286.52 260.92 350.58
  Q 255.81 353.23 251.21 350.83
  Q 128.22 286.66 5.23 222.49
  Q 1.32 220.45 0.00 215.12
  L 0.00 211.26
  Q 1.49 206.07 5.98 203.72
  Q 127.92 140.11 249.85 76.48
  C 253.18 74.74 257.15 73.88 260.27 75.51
  Q 382.75 139.41 505.23 203.32
  Q 510.89 206.27 512.00 211.87
  Z"
/>
<path fill="#bbc1c5" d="
  M 512.00 297.12
  L 512.00 300.49
  C 510.39 306.50 506.33 308.17 500.59 311.16
  Q 381.82 373.01 263.08 434.95
  C 258.20 437.50 255.28 438.28 250.50 435.78
  Q 130.25 373.03 9.99 310.30
  C 4.97 307.68 1.54 306.26 0.00 300.38
  L 0.00 297.01
  Q 1.15 291.62 5.74 289.23
  Q 25.76 278.76 45.74 268.35
  A 1.31 1.31 0.0 0 1 46.94 268.35
  Q 140.39 317.11 234.02 365.97
  Q 245.64 372.04 250.70 372.92
  C 259.83 374.53 266.19 372.13 275.02 367.52
  Q 370.14 317.89 465.13 268.32
  A 1.13 1.13 0.0 0 1 466.19 268.32
  Q 486.23 278.74 506.43 289.31
  Q 510.89 291.65 512.00 297.12
  Z"
/>
</svg>
