<?xml version="1.0" encoding="UTF-8" standalone="no"?>
<!DOCTYPE svg PUBLIC "-//W3C//DTD SVG 1.1//EN" "http://www.w3.org/Graphics/SVG/1.1/DTD/svg11.dtd">
<svg xmlns="http://www.w3.org/2000/svg" version="1.1" viewBox="0.00 0.00 128.00 128.00">
<g stroke-width="2.00" fill="none" stroke-linecap="butt">
<path stroke="#808a8f" vector-effect="non-scaling-stroke" d="
  M 36.62 18.27
  Q 23.32 21.67 19.29 33.30
  Q 17.72 37.82 17.80 45.89
  Q 17.98 65.19 17.82 84.51
  Q 17.77 91.11 19.26 95.32
  Q 23.41 107.04 36.58 110.38"
/>
<path stroke="#bbd1dc" vector-effect="non-scaling-stroke" d="
  M 36.58 110.38
  L 36.78 118.72
  A 0.55 0.54 2.4 0 0 37.27 119.25
  Q 52.96 120.92 63.71 110.76
  A 0.90 0.90 0.0 0 1 64.96 110.77
  C 72.43 118.07 81.27 119.96 91.27 119.39
  A 0.58 0.57 88.9 0 0 91.81 118.82
  L 91.95 110.34"
/>
<path stroke="#e8eff3" vector-effect="non-scaling-stroke" d="
  M 91.95 110.34
  Q 93.59 109.96 95.16 109.52
  Q 96.84 109.04 98.23 108.28
  Q 110.81 101.40 110.85 86.70
  Q 110.91 66.28 110.93 45.67
  Q 110.94 36.93 109.63 33.49
  C 106.73 25.89 100.48 20.20 92.50 18.21
  A 0.70 0.69 7.0 0 1 91.97 17.54
  L 91.91 9.50"
/>
<path stroke="#bbd1dc" vector-effect="non-scaling-stroke" d="
  M 91.91 9.50
  Q 75.68 7.59 64.58 18.15
  A 0.58 0.58 0.0 0 1 63.76 18.13
  C 56.83 10.87 47.38 8.65 37.32 9.34
  A 0.56 0.56 0.0 0 0 36.80 9.89
  L 36.62 18.27"
/>
<path stroke="#a4c1d0" vector-effect="non-scaling-stroke" d="
  M 91.91 9.50
  L 91.93 17.88
  A 0.56 0.55 -1.1 0 1 91.39 18.43
  Q 88.96 18.53 86.02 18.56
  Q 76.40 18.68 70.26 26.09
  A 5.60 5.55 -25.4 0 0 68.98 29.64
  L 68.98 59.16
  A 0.58 0.58 0.0 0 0 69.56 59.74
  L 82.18 59.74
  A 0.47 0.47 0.0 0 1 82.65 60.21
  L 82.65 68.49
  A 0.48 0.47 0.0 0 1 82.17 68.96
  L 69.52 68.96
  A 0.55 0.54 90.0 0 0 68.98 69.51
  L 68.98 99.20
  A 5.02 4.94 -63.3 0 0 69.92 102.12
  Q 74.86 108.96 83.77 109.80
  Q 87.95 110.19 91.95 110.34"
/>
<path stroke="#3c5b6c" vector-effect="non-scaling-stroke" d="
  M 36.58 110.38
  Q 38.88 110.14 41.27 110.10
  C 48.26 110.01 53.55 108.24 58.23 102.74
  Q 59.64 101.09 59.64 98.41
  Q 59.61 85.72 59.62 69.49
  A 0.52 0.51 0.5 0 0 59.10 68.97
  L 46.42 68.97
  A 0.48 0.48 0.0 0 1 45.94 68.49
  L 45.94 60.23
  A 0.49 0.48 -90.0 0 1 46.42 59.74
  L 59.11 59.74
  A 0.51 0.50 0.0 0 0 59.62 59.24
  L 59.62 29.54
  A 5.30 5.26 25.3 0 0 58.40 26.17
  Q 52.16 18.65 42.25 18.52
  Q 37.92 18.47 36.62 18.27"
/>
</g>
<path fill="#ffffff" d="
  M 128.00 0.00
  L 128.00 128.00
  L 0.00 128.00
  L 0.00 0.00
  L 128.00 0.00
  Z
  M 36.62 18.27
  Q 23.32 21.67 19.29 33.30
  Q 17.72 37.82 17.80 45.89
  Q 17.98 65.19 17.82 84.51
  Q 17.77 91.11 19.26 95.32
  Q 23.41 107.04 36.58 110.38
  L 36.78 118.72
  A 0.55 0.54 2.4 0 0 37.27 119.25
  Q 52.96 120.92 63.71 110.76
  A 0.90 0.90 0.0 0 1 64.96 110.77
  C 72.43 118.07 81.27 119.96 91.27 119.39
  A 0.58 0.57 88.9 0 0 91.81 118.82
  L 91.95 110.34
  Q 93.59 109.96 95.16 109.52
  Q 96.84 109.04 98.23 108.28
  Q 110.81 101.40 110.85 86.70
  Q 110.91 66.28 110.93 45.67
  Q 110.94 36.93 109.63 33.49
  C 106.73 25.89 100.48 20.20 92.50 18.21
  A 0.70 0.69 7.0 0 1 91.97 17.54
  L 91.91 9.50
  Q 75.68 7.59 64.58 18.15
  A 0.58 0.58 0.0 0 1 63.76 18.13
  C 56.83 10.87 47.38 8.65 37.32 9.34
  A 0.56 0.56 0.0 0 0 36.80 9.89
  L 36.62 18.27
  Z"
/>
<path fill="#77a2b8" d="
  M 91.91 9.50
  L 91.93 17.88
  A 0.56 0.55 -1.1 0 1 91.39 18.43
  Q 88.96 18.53 86.02 18.56
  Q 76.40 18.68 70.26 26.09
  A 5.60 5.55 -25.4 0 0 68.98 29.64
  L 68.98 59.16
  A 0.58 0.58 0.0 0 0 69.56 59.74
  L 82.18 59.74
  A 0.47 0.47 0.0 0 1 82.65 60.21
  L 82.65 68.49
  A 0.48 0.47 0.0 0 1 82.17 68.96
  L 69.52 68.96
  A 0.55 0.54 90.0 0 0 68.98 69.51
  L 68.98 99.20
  A 5.02 4.94 -63.3 0 0 69.92 102.12
  Q 74.86 108.96 83.77 109.80
  Q 87.95 110.19 91.95 110.34
  L 91.81 118.82
  A 0.58 0.57 88.9 0 1 91.27 119.39
  C 81.27 119.96 72.43 118.07 64.96 110.77
  A 0.90 0.90 0.0 0 0 63.71 110.76
  Q 52.96 120.92 37.27 119.25
  A 0.55 0.54 2.4 0 1 36.78 118.72
  L 36.58 110.38
  Q 38.88 110.14 41.27 110.10
  C 48.26 110.01 53.55 108.24 58.23 102.74
  Q 59.64 101.09 59.64 98.41
  Q 59.61 85.72 59.62 69.49
  A 0.52 0.51 0.5 0 0 59.10 68.97
  L 46.42 68.97
  A 0.48 0.48 0.0 0 1 45.94 68.49
  L 45.94 60.23
  A 0.49 0.48 -90.0 0 1 46.42 59.74
  L 59.11 59.74
  A 0.51 0.50 0.0 0 0 59.62 59.24
  L 59.62 29.54
  A 5.30 5.26 25.3 0 0 58.40 26.17
  Q 52.16 18.65 42.25 18.52
  Q 37.92 18.47 36.62 18.27
  L 36.80 9.89
  A 0.56 0.56 0.0 0 1 37.32 9.34
  C 47.38 8.65 56.83 10.87 63.76 18.13
  A 0.58 0.58 0.0 0 0 64.58 18.15
  Q 75.68 7.59 91.91 9.50
  Z"
/>
<path fill="#d0dfe7" d="
  M 91.95 110.34
  Q 87.95 110.19 83.77 109.80
  Q 74.86 108.96 69.92 102.12
  A 5.02 4.94 -63.3 0 1 68.98 99.20
  L 68.98 69.51
  A 0.55 0.54 -90.0 0 1 69.52 68.96
  L 82.17 68.96
  A 0.48 0.47 0.0 0 0 82.65 68.49
  L 82.65 60.21
  A 0.47 0.47 0.0 0 0 82.18 59.74
  L 69.56 59.74
  A 0.58 0.58 0.0 0 1 68.98 59.16
  L 68.98 29.64
  A 5.60 5.55 -25.4 0 1 70.26 26.09
  Q 76.40 18.68 86.02 18.56
  Q 88.96 18.53 91.39 18.43
  A 0.56 0.55 -1.1 0 0 91.93 17.88
  L 91.91 9.50
  L 91.97 17.54
  A 0.70 0.69 7.0 0 0 92.50 18.21
  C 100.48 20.20 106.73 25.89 109.63 33.49
  Q 110.94 36.93 110.93 45.67
  Q 110.91 66.28 110.85 86.70
  Q 110.81 101.40 98.23 108.28
  Q 96.84 109.04 95.16 109.52
  Q 93.59 109.96 91.95 110.34
  Z"
/>
<path fill="#00141f" d="
  M 36.62 18.27
  Q 37.92 18.47 42.25 18.52
  Q 52.16 18.65 58.40 26.17
  A 5.30 5.26 25.3 0 1 59.62 29.54
  L 59.62 59.24
  A 0.51 0.50 0.0 0 1 59.11 59.74
  L 46.42 59.74
  A 0.49 0.48 90.0 0 0 45.94 60.23
  L 45.94 68.49
  A 0.48 0.48 0.0 0 0 46.42 68.97
  L 59.10 68.97
  A 0.52 0.51 0.5 0 1 59.62 69.49
  Q 59.61 85.72 59.64 98.41
  Q 59.64 101.09 58.23 102.74
  C 53.55 108.24 48.26 110.01 41.27 110.10
  Q 38.88 110.14 36.58 110.38
  Q 23.41 107.04 19.26 95.32
  Q 17.77 91.11 17.82 84.51
  Q 17.98 65.19 17.80 45.89
  Q 17.72 37.82 19.29 33.30
  Q 23.32 21.67 36.62 18.27
  Z"
/>
</svg>
