<?xml version="1.0" encoding="UTF-8" standalone="no"?>
<!DOCTYPE svg PUBLIC "-//W3C//DTD SVG 1.1//EN" "http://www.w3.org/Graphics/SVG/1.1/DTD/svg11.dtd">
<svg xmlns="http://www.w3.org/2000/svg" version="1.1" viewBox="0.00 0.00 500.00 500.00">
<g stroke-width="2.00" fill="none" stroke-linecap="butt">
<path stroke="#808080" vector-effect="non-scaling-stroke" d="
  M 261.54 228.40
  L 261.54 216.93
  A 0.47 0.47 0.0 0 0 261.07 216.46
  L 259.50 216.46
  A 0.85 0.79 -55.1 0 0 259.17 216.53
  L 244.50 223.26
  A 0.52 0.52 0.0 0 1 243.86 223.09
  C 238.74 215.89 228.28 214.22 221.52 219.54
  Q 216.62 223.40 214.16 230.45
  C 209.99 242.41 209.33 258.49 215.66 270.00
  A 0.60 0.60 0.0 0 1 214.91 270.85
  L 213.21 270.16
  A 2.27 2.23 85.7 0 1 212.10 269.19
  Q 210.76 266.86 210.74 262.75
  Q 210.71 254.72 210.76 185.81
  A 1.28 1.28 0.0 0 0 208.96 184.64
  L 191.68 192.29
  A 0.63 0.62 66.1 0 0 191.37 193.11
  L 191.86 194.21
  A 0.54 0.53 -21.9 0 0 192.55 194.50
  C 197.72 192.49 200.28 195.56 200.31 200.39
  Q 200.35 205.43 200.33 220.66
  A 0.31 0.31 0.0 0 1 199.82 220.89
  Q 196.88 218.38 192.69 217.14
  C 182.39 214.08 174.27 221.60 170.15 230.82
  C 165.25 241.80 164.39 257.47 169.45 268.50
  C 174.28 279.03 185.62 283.93 195.16 275.59
  Q 196.54 274.39 199.86 270.15
  A 0.27 0.26 64.4 0 1 200.33 270.32
  L 200.33 279.16
  A 0.64 0.63 4.9 0 0 200.86 279.78
  Q 202.25 280.02 203.14 279.60
  Q 212.24 275.34 216.97 273.15
  A 0.66 0.66 0.0 0 1 217.75 273.33
  Q 222.73 279.29 228.75 279.70
  C 240.98 280.54 247.83 268.66 249.33 258.07
  A 1.16 1.16 0.0 0 0 247.09 257.50
  C 244.93 263.28 239.93 271.64 232.33 269.46
  C 223.53 266.94 221.22 253.47 221.23 245.45
  A 0.54 0.54 0.0 0 1 221.77 244.92
  L 248.86 244.92
  A 0.59 0.59 0.0 0 0 249.45 244.34
  Q 249.68 234.49 245.63 225.80
  A 0.23 0.23 0.0 0 1 245.83 225.47
  C 250.64 225.22 251.10 228.86 251.11 232.95
  Q 251.12 247.95 251.08 266.25
  C 251.06 271.23 249.62 275.67 243.70 275.68
  A 0.77 0.77 0.0 0 0 242.93 276.45
  L 242.93 277.28
  A 0.72 0.72 0.0 0 0 243.65 278.00
  L 270.88 278.00
  A 0.58 0.58 0.0 0 0 271.46 277.42
  L 271.46 276.26
  A 0.51 0.50 88.4 0 0 270.93 275.75
  C 265.95 276.00 261.75 274.02 261.67 268.50
  Q 261.40 251.52 261.59 233.94
  A 1.95 1.90 -30.9 0 1 261.82 233.07
  C 263.60 229.84 266.00 225.59 269.63 225.50
  C 271.68 225.44 273.74 228.91 276.01 229.40
  A 0.81 0.81 0.0 0 1 276.65 230.26
  Q 275.75 240.53 283.44 247.30
  Q 290.80 253.79 295.52 258.38
  C 299.75 262.49 301.01 269.12 296.73 273.73
  Q 294.70 275.93 291.53 275.89
  C 283.21 275.79 279.56 265.32 279.01 258.57
  A 0.78 0.77 -2.0 0 0 278.23 257.85
  L 277.31 257.85
  A 0.67 0.67 0.0 0 0 276.64 258.52
  L 276.64 276.93
  A 1.30 1.30 0.0 0 0 279.02 277.65
  C 280.34 275.68 283.54 277.50 285.59 278.34
  Q 293.58 281.60 300.41 277.59
  A 0.76 0.76 0.0 0 1 301.17 277.59
  L 301.47 277.77
  A 1.73 1.72 59.8 0 0 302.33 278.00
  L 325.71 278.00
  A 0.77 0.77 0.0 0 0 326.48 277.23
  L 326.48 276.53
  A 0.89 0.88 2.1 0 0 325.65 275.65
  C 319.82 275.26 318.81 270.20 318.82 264.90
  Q 318.88 238.17 318.83 232.83
  A 1.83 1.82 -27.8 0 1 319.17 231.74
  Q 320.28 230.21 322.70 227.70
  C 325.81 224.48 330.97 222.79 334.76 225.44
  C 337.38 227.27 338.08 231.30 338.08 234.00
  Q 338.10 262.73 338.10 265.25
  C 338.10 270.29 337.16 275.44 331.07 275.70
  A 0.79 0.79 0.0 0 0 330.32 276.49
  L 330.32 277.30
  A 0.70 0.70 0.0 0 0 331.02 278.00
  L 354.30 278.00
  A 0.67 0.67 0.0 0 0 354.97 277.33
  L 354.97 276.44
  A 0.83 0.82 2.7 0 0 354.22 275.62
  C 349.63 275.21 348.52 269.53 348.52 265.81
  Q 348.54 256.51 348.51 234.00
  C 348.49 224.18 344.40 214.81 332.80 216.75
  C 326.46 217.81 323.15 223.53 319.33 227.80
  A 0.28 0.28 0.0 0 1 318.84 227.62
  L 318.84 185.87
  A 1.27 1.27 0.0 0 0 317.06 184.71
  L 301.63 191.55
  A 1.22 1.22 0.0 0 0 302.32 193.87
  C 308.09 192.90 308.43 197.46 308.42 202.11
  Q 308.41 216.95 308.41 254.26
  C 308.41 259.68 309.12 265.25 307.86 270.58
  Q 306.96 274.35 303.57 275.55
  A 0.20 0.20 0.0 0 1 303.36 275.23
  Q 305.29 273.20 306.24 271.25
  Q 311.87 259.71 303.23 250.51
  Q 297.29 244.19 289.38 237.37
  C 285.97 234.44 282.34 229.33 284.25 224.72
  C 286.62 219.02 293.83 219.27 297.29 223.65
  Q 301.38 228.81 302.58 235.92
  A 0.59 0.58 -4.6 0 0 303.16 236.41
  L 304.68 236.41
  A 0.48 0.48 0.0 0 0 305.16 235.93
  L 305.16 218.83
  A 1.29 1.28 66.3 0 0 302.93 217.96
  C 301.20 219.86 298.66 218.62 296.94 217.90
  Q 288.85 214.53 282.38 219.05
  A 0.76 0.75 -40.3 0 1 281.43 218.98
  C 276.63 214.49 270.62 216.45 266.67 221.18
  Q 263.89 224.51 262.14 228.53
  A 0.32 0.31 56.9 0 1 261.54 228.40"
/>
<path stroke="#808080" vector-effect="non-scaling-stroke" d="
  M 92.56 222.91
  Q 91.53 217.28 86.38 216.63
  C 79.01 215.70 74.21 222.55 71.66 228.58
  A 0.31 0.31 0.0 0 1 71.07 228.46
  L 71.07 217.56
  A 1.28 1.28 0.0 0 0 69.27 216.39
  L 53.50 223.38
  A 1.21 1.21 0.0 0 0 53.92 225.70
  C 54.72 225.74 55.91 225.34 56.72 225.54
  Q 60.47 226.45 60.50 229.78
  Q 60.67 251.95 60.59 264.32
  C 60.55 270.28 60.03 275.68 53.14 275.69
  A 0.68 0.67 -90.0 0 0 52.47 276.37
  L 52.47 277.43
  A 0.57 0.56 90.0 0 0 53.03 278.00
  L 80.35 278.00
  A 0.65 0.65 0.0 0 0 81.00 277.35
  L 81.00 276.39
  A 0.70 0.69 -0.8 0 0 80.28 275.70
  C 73.23 275.98 71.06 272.77 71.06 266.00
  Q 71.05 235.75 71.06 234.27
  A 2.78 2.74 59.1 0 1 71.35 233.08
  C 72.85 230.15 75.95 224.79 79.76 225.60
  A 2.54 2.43 66.9 0 1 80.60 225.96
  C 83.27 227.76 84.98 230.92 88.84 229.14
  A 0.24 0.24 0.0 0 1 89.17 229.44
  Q 85.08 241.28 85.93 253.72
  C 86.60 263.60 90.77 276.57 101.40 279.34
  C 114.50 282.76 122.73 268.58 124.13 257.73
  A 0.22 0.20 27.3 0 0 124.06 257.54
  Q 123.19 256.80 122.16 256.70
  A 0.14 0.13 10.6 0 0 122.02 256.79
  Q 119.73 264.41 114.32 268.24
  C 110.79 270.74 105.34 270.09 102.35 266.66
  C 97.67 261.29 96.19 253.27 95.86 245.51
  A 0.58 0.58 0.0 0 1 96.44 244.91
  L 123.58 244.91
  A 0.53 0.52 1.1 0 0 124.11 244.41
  Q 124.51 234.77 120.45 225.93
  A 0.41 0.41 0.0 0 1 120.78 225.35
  C 124.50 225.00 124.93 227.64 124.92 230.91
  Q 124.89 248.33 124.92 263.03
  C 124.93 267.61 125.25 275.42 118.63 275.68
  A 0.68 0.68 0.0 0 0 117.97 276.36
  L 117.97 277.45
  A 0.55 0.55 0.0 0 0 118.52 278.00
  L 142.42 278.00
  A 0.56 0.56 0.0 0 0 142.98 277.44
  L 142.98 276.43
  A 0.72 0.72 0.0 0 0 142.28 275.71
  C 135.96 275.51 135.33 270.33 135.36 264.78
  Q 135.39 260.84 135.37 232.81
  A 1.99 1.96 62.5 0 1 135.71 231.70
  C 138.45 227.60 142.53 223.94 147.73 224.21
  C 151.71 224.41 154.39 227.74 154.41 231.96
  Q 154.56 261.87 154.35 267.76
  Q 154.08 275.18 147.48 275.76
  A 0.68 0.68 0.0 0 0 146.85 276.44
  L 146.85 277.44
  A 0.56 0.56 0.0 0 0 147.41 278.00
  L 170.67 278.00
  A 0.55 0.55 0.0 0 0 171.22 277.45
  L 171.22 276.46
  A 0.72 0.72 0.0 0 0 170.59 275.75
  C 166.19 275.14 164.88 271.13 164.89 267.03
  Q 164.90 247.50 164.87 232.94
  C 164.86 227.32 163.01 219.67 157.39 217.47
  C 150.18 214.65 143.48 218.15 138.98 224.02
  Q 136.21 227.64 135.91 228.02
  A 0.30 0.30 0.0 0 1 135.37 227.83
  L 135.37 217.57
  A 1.12 1.12 0.0 0 0 133.80 216.54
  L 119.05 223.08
  A 0.42 0.42 0.0 0 1 118.55 222.95
  C 111.94 214.23 99.31 214.24 92.99 223.00
  A 0.24 0.24 0.0 0 1 92.56 222.91"
/>
<path stroke="#808080" vector-effect="non-scaling-stroke" d="
  M 349.61 247.61
  C 349.28 262.49 356.58 279.40 373.77 279.78
  C 390.95 280.16 398.98 263.58 399.31 248.69
  C 399.64 233.81 392.34 216.90 375.15 216.52
  C 357.97 216.14 349.94 232.72 349.61 247.61"
/>
<path stroke="#808080" vector-effect="non-scaling-stroke" d="
  M 411.04 273.62
  Q 414.22 278.16 419.64 279.12
  C 439.20 282.59 445.10 257.18 444.91 243.26
  C 444.78 233.97 441.56 222.96 433.22 218.31
  Q 427.86 215.31 421.86 217.27
  C 416.52 219.02 412.62 225.60 410.71 230.71
  A 0.27 0.27 0.0 0 1 410.19 230.62
  L 410.19 217.35
  A 1.03 1.03 0.0 0 0 408.75 216.41
  L 393.31 223.26
  A 0.92 0.90 -12.0 0 0 392.76 224.09
  L 392.76 224.90
  A 0.77 0.77 0.0 0 0 393.74 225.64
  C 398.92 224.20 400.30 228.74 400.30 232.75
  Q 400.25 280.65 400.28 292.75
  C 400.29 297.52 398.69 302.81 393.01 302.68
  A 0.57 0.57 0.0 0 0 392.42 303.25
  L 392.42 304.40
  A 0.51 0.51 0.0 0 0 392.93 304.91
  L 418.91 304.91
  A 0.71 0.71 0.0 0 0 419.62 304.20
  L 419.62 303.43
  A 0.77 0.77 0.0 0 0 418.80 302.66
  C 411.80 303.11 410.58 297.87 410.65 291.78
  Q 410.71 287.09 410.71 273.72
  A 0.18 0.18 0.0 0 1 411.04 273.62"
/>
<path stroke="#808080" vector-effect="non-scaling-stroke" d="
  M 200.32 264.52
  Q 200.36 252.38 200.33 239.24
  C 200.32 233.00 198.60 222.27 191.01 220.60
  C 179.88 218.16 178.22 234.32 177.95 241.52
  Q 177.45 255.17 180.04 262.46
  C 182.47 269.28 187.02 275.32 195.08 270.34
  Q 196.89 269.22 199.88 265.70
  A 1.88 1.87 65.7 0 0 200.32 264.52"
/>
<path stroke="#808080" vector-effect="non-scaling-stroke" d="
  M 221.56 240.89
  L 238.06 240.89
  A 0.28 0.28 0.0 0 0 238.34 240.61
  L 238.34 236.87
  A 16.08 7.74 90.0 0 0 230.60 220.79
  L 229.02 220.79
  A 16.08 7.74 -90.0 0 0 221.28 236.87
  L 221.28 240.61
  A 0.28 0.28 0.0 0 0 221.56 240.89"
/>
<path stroke="#808080" vector-effect="non-scaling-stroke" d="
  M 96.23 240.88
  L 112.87 240.90
  A 0.22 0.22 0.0 0 0 113.09 240.68
  L 113.10 236.96
  A 16.16 7.76 -89.9 0 0 105.37 220.79
  L 103.81 220.79
  A 16.16 7.76 -89.9 0 0 96.02 236.94
  L 96.01 240.66
  A 0.22 0.22 0.0 0 0 96.23 240.88"
/>
<path stroke="#808080" vector-effect="non-scaling-stroke" d="
  M 361.81 248.63
  C 362.14 256.88 363.37 275.98 375.60 275.48
  C 387.83 274.99 387.51 255.85 387.18 247.61
  C 386.84 239.36 385.61 220.26 373.38 220.76
  C 361.16 221.25 361.48 240.39 361.81 248.63"
/>
<path stroke="#808080" vector-effect="non-scaling-stroke" d="
  M 410.74 235.26
  Q 410.61 247.62 410.75 259.25
  C 410.83 266.31 413.35 275.98 422.51 275.49
  C 435.01 274.81 433.57 248.33 432.63 240.57
  C 431.81 233.73 428.56 221.46 419.33 224.14
  C 415.61 225.22 413.19 229.80 411.10 233.84
  A 3.19 3.13 -31.3 0 0 410.74 235.26"
/>
</g>
<path fill="#ffffff" d="
  M 500.00 0.00
  L 500.00 500.00
  L 0.00 500.00
  L 0.00 0.00
  L 500.00 0.00
  Z
  M 261.54 228.40
  L 261.54 216.93
  A 0.47 0.47 0.0 0 0 261.07 216.46
  L 259.50 216.46
  A 0.85 0.79 -55.1 0 0 259.17 216.53
  L 244.50 223.26
  A 0.52 0.52 0.0 0 1 243.86 223.09
  C 238.74 215.89 228.28 214.22 221.52 219.54
  Q 216.62 223.40 214.16 230.45
  C 209.99 242.41 209.33 258.49 215.66 270.00
  A 0.60 0.60 0.0 0 1 214.91 270.85
  L 213.21 270.16
  A 2.27 2.23 85.7 0 1 212.10 269.19
  Q 210.76 266.86 210.74 262.75
  Q 210.71 254.72 210.76 185.81
  A 1.28 1.28 0.0 0 0 208.96 184.64
  L 191.68 192.29
  A 0.63 0.62 66.1 0 0 191.37 193.11
  L 191.86 194.21
  A 0.54 0.53 -21.9 0 0 192.55 194.50
  C 197.72 192.49 200.28 195.56 200.31 200.39
  Q 200.35 205.43 200.33 220.66
  A 0.31 0.31 0.0 0 1 199.82 220.89
  Q 196.88 218.38 192.69 217.14
  C 182.39 214.08 174.27 221.60 170.15 230.82
  C 165.25 241.80 164.39 257.47 169.45 268.50
  C 174.28 279.03 185.62 283.93 195.16 275.59
  Q 196.54 274.39 199.86 270.15
  A 0.27 0.26 64.4 0 1 200.33 270.32
  L 200.33 279.16
  A 0.64 0.63 4.9 0 0 200.86 279.78
  Q 202.25 280.02 203.14 279.60
  Q 212.24 275.34 216.97 273.15
  A 0.66 0.66 0.0 0 1 217.75 273.33
  Q 222.73 279.29 228.75 279.70
  C 240.98 280.54 247.83 268.66 249.33 258.07
  A 1.16 1.16 0.0 0 0 247.09 257.50
  C 244.93 263.28 239.93 271.64 232.33 269.46
  C 223.53 266.94 221.22 253.47 221.23 245.45
  A 0.54 0.54 0.0 0 1 221.77 244.92
  L 248.86 244.92
  A 0.59 0.59 0.0 0 0 249.45 244.34
  Q 249.68 234.49 245.63 225.80
  A 0.23 0.23 0.0 0 1 245.83 225.47
  C 250.64 225.22 251.10 228.86 251.11 232.95
  Q 251.12 247.95 251.08 266.25
  C 251.06 271.23 249.62 275.67 243.70 275.68
  A 0.77 0.77 0.0 0 0 242.93 276.45
  L 242.93 277.28
  A 0.72 0.72 0.0 0 0 243.65 278.00
  L 270.88 278.00
  A 0.58 0.58 0.0 0 0 271.46 277.42
  L 271.46 276.26
  A 0.51 0.50 88.4 0 0 270.93 275.75
  C 265.95 276.00 261.75 274.02 261.67 268.50
  Q 261.40 251.52 261.59 233.94
  A 1.95 1.90 -30.9 0 1 261.82 233.07
  C 263.60 229.84 266.00 225.59 269.63 225.50
  C 271.68 225.44 273.74 228.91 276.01 229.40
  A 0.81 0.81 0.0 0 1 276.65 230.26
  Q 275.75 240.53 283.44 247.30
  Q 290.80 253.79 295.52 258.38
  C 299.75 262.49 301.01 269.12 296.73 273.73
  Q 294.70 275.93 291.53 275.89
  C 283.21 275.79 279.56 265.32 279.01 258.57
  A 0.78 0.77 -2.0 0 0 278.23 257.85
  L 277.31 257.85
  A 0.67 0.67 0.0 0 0 276.64 258.52
  L 276.64 276.93
  A 1.30 1.30 0.0 0 0 279.02 277.65
  C 280.34 275.68 283.54 277.50 285.59 278.34
  Q 293.58 281.60 300.41 277.59
  A 0.76 0.76 0.0 0 1 301.17 277.59
  L 301.47 277.77
  A 1.73 1.72 59.8 0 0 302.33 278.00
  L 325.71 278.00
  A 0.77 0.77 0.0 0 0 326.48 277.23
  L 326.48 276.53
  A 0.89 0.88 2.1 0 0 325.65 275.65
  C 319.82 275.26 318.81 270.20 318.82 264.90
  Q 318.88 238.17 318.83 232.83
  A 1.83 1.82 -27.8 0 1 319.17 231.74
  Q 320.28 230.21 322.70 227.70
  C 325.81 224.48 330.97 222.79 334.76 225.44
  C 337.38 227.27 338.08 231.30 338.08 234.00
  Q 338.10 262.73 338.10 265.25
  C 338.10 270.29 337.16 275.44 331.07 275.70
  A 0.79 0.79 0.0 0 0 330.32 276.49
  L 330.32 277.30
  A 0.70 0.70 0.0 0 0 331.02 278.00
  L 354.30 278.00
  A 0.67 0.67 0.0 0 0 354.97 277.33
  L 354.97 276.44
  A 0.83 0.82 2.7 0 0 354.22 275.62
  C 349.63 275.21 348.52 269.53 348.52 265.81
  Q 348.54 256.51 348.51 234.00
  C 348.49 224.18 344.40 214.81 332.80 216.75
  C 326.46 217.81 323.15 223.53 319.33 227.80
  A 0.28 0.28 0.0 0 1 318.84 227.62
  L 318.84 185.87
  A 1.27 1.27 0.0 0 0 317.06 184.71
  L 301.63 191.55
  A 1.22 1.22 0.0 0 0 302.32 193.87
  C 308.09 192.90 308.43 197.46 308.42 202.11
  Q 308.41 216.95 308.41 254.26
  C 308.41 259.68 309.12 265.25 307.86 270.58
  Q 306.96 274.35 303.57 275.55
  A 0.20 0.20 0.0 0 1 303.36 275.23
  Q 305.29 273.20 306.24 271.25
  Q 311.87 259.71 303.23 250.51
  Q 297.29 244.19 289.38 237.37
  C 285.97 234.44 282.34 229.33 284.25 224.72
  C 286.62 219.02 293.83 219.27 297.29 223.65
  Q 301.38 228.81 302.58 235.92
  A 0.59 0.58 -4.6 0 0 303.16 236.41
  L 304.68 236.41
  A 0.48 0.48 0.0 0 0 305.16 235.93
  L 305.16 218.83
  A 1.29 1.28 66.3 0 0 302.93 217.96
  C 301.20 219.86 298.66 218.62 296.94 217.90
  Q 288.85 214.53 282.38 219.05
  A 0.76 0.75 -40.3 0 1 281.43 218.98
  C 276.63 214.49 270.62 216.45 266.67 221.18
  Q 263.89 224.51 262.14 228.53
  A 0.32 0.31 56.9 0 1 261.54 228.40
  Z
  M 92.56 222.91
  Q 91.53 217.28 86.38 216.63
  C 79.01 215.70 74.21 222.55 71.66 228.58
  A 0.31 0.31 0.0 0 1 71.07 228.46
  L 71.07 217.56
  A 1.28 1.28 0.0 0 0 69.27 216.39
  L 53.50 223.38
  A 1.21 1.21 0.0 0 0 53.92 225.70
  C 54.72 225.74 55.91 225.34 56.72 225.54
  Q 60.47 226.45 60.50 229.78
  Q 60.67 251.95 60.59 264.32
  C 60.55 270.28 60.03 275.68 53.14 275.69
  A 0.68 0.67 -90.0 0 0 52.47 276.37
  L 52.47 277.43
  A 0.57 0.56 90.0 0 0 53.03 278.00
  L 80.35 278.00
  A 0.65 0.65 0.0 0 0 81.00 277.35
  L 81.00 276.39
  A 0.70 0.69 -0.8 0 0 80.28 275.70
  C 73.23 275.98 71.06 272.77 71.06 266.00
  Q 71.05 235.75 71.06 234.27
  A 2.78 2.74 59.1 0 1 71.35 233.08
  C 72.85 230.15 75.95 224.79 79.76 225.60
  A 2.54 2.43 66.9 0 1 80.60 225.96
  C 83.27 227.76 84.98 230.92 88.84 229.14
  A 0.24 0.24 0.0 0 1 89.17 229.44
  Q 85.08 241.28 85.93 253.72
  C 86.60 263.60 90.77 276.57 101.40 279.34
  C 114.50 282.76 122.73 268.58 124.13 257.73
  A 0.22 0.20 27.3 0 0 124.06 257.54
  Q 123.19 256.80 122.16 256.70
  A 0.14 0.13 10.6 0 0 122.02 256.79
  Q 119.73 264.41 114.32 268.24
  C 110.79 270.74 105.34 270.09 102.35 266.66
  C 97.67 261.29 96.19 253.27 95.86 245.51
  A 0.58 0.58 0.0 0 1 96.44 244.91
  L 123.58 244.91
  A 0.53 0.52 1.1 0 0 124.11 244.41
  Q 124.51 234.77 120.45 225.93
  A 0.41 0.41 0.0 0 1 120.78 225.35
  C 124.50 225.00 124.93 227.64 124.92 230.91
  Q 124.89 248.33 124.92 263.03
  C 124.93 267.61 125.25 275.42 118.63 275.68
  A 0.68 0.68 0.0 0 0 117.97 276.36
  L 117.97 277.45
  A 0.55 0.55 0.0 0 0 118.52 278.00
  L 142.42 278.00
  A 0.56 0.56 0.0 0 0 142.98 277.44
  L 142.98 276.43
  A 0.72 0.72 0.0 0 0 142.28 275.71
  C 135.96 275.51 135.33 270.33 135.36 264.78
  Q 135.39 260.84 135.37 232.81
  A 1.99 1.96 62.5 0 1 135.71 231.70
  C 138.45 227.60 142.53 223.94 147.73 224.21
  C 151.71 224.41 154.39 227.74 154.41 231.96
  Q 154.56 261.87 154.35 267.76
  Q 154.08 275.18 147.48 275.76
  A 0.68 0.68 0.0 0 0 146.85 276.44
  L 146.85 277.44
  A 0.56 0.56 0.0 0 0 147.41 278.00
  L 170.67 278.00
  A 0.55 0.55 0.0 0 0 171.22 277.45
  L 171.22 276.46
  A 0.72 0.72 0.0 0 0 170.59 275.75
  C 166.19 275.14 164.88 271.13 164.89 267.03
  Q 164.90 247.50 164.87 232.94
  C 164.86 227.32 163.01 219.67 157.39 217.47
  C 150.18 214.65 143.48 218.15 138.98 224.02
  Q 136.21 227.64 135.91 228.02
  A 0.30 0.30 0.0 0 1 135.37 227.83
  L 135.37 217.57
  A 1.12 1.12 0.0 0 0 133.80 216.54
  L 119.05 223.08
  A 0.42 0.42 0.0 0 1 118.55 222.95
  C 111.94 214.23 99.31 214.24 92.99 223.00
  A 0.24 0.24 0.0 0 1 92.56 222.91
  Z
  M 349.61 247.61
  C 349.28 262.49 356.58 279.40 373.77 279.78
  C 390.95 280.16 398.98 263.58 399.31 248.69
  C 399.64 233.81 392.34 216.90 375.15 216.52
  C 357.97 216.14 349.94 232.72 349.61 247.61
  Z
  M 411.04 273.62
  Q 414.22 278.16 419.64 279.12
  C 439.20 282.59 445.10 257.18 444.91 243.26
  C 444.78 233.97 441.56 222.96 433.22 218.31
  Q 427.86 215.31 421.86 217.27
  C 416.52 219.02 412.62 225.60 410.71 230.71
  A 0.27 0.27 0.0 0 1 410.19 230.62
  L 410.19 217.35
  A 1.03 1.03 0.0 0 0 408.75 216.41
  L 393.31 223.26
  A 0.92 0.90 -12.0 0 0 392.76 224.09
  L 392.76 224.90
  A 0.77 0.77 0.0 0 0 393.74 225.64
  C 398.92 224.20 400.30 228.74 400.30 232.75
  Q 400.25 280.65 400.28 292.75
  C 400.29 297.52 398.69 302.81 393.01 302.68
  A 0.57 0.57 0.0 0 0 392.42 303.25
  L 392.42 304.40
  A 0.51 0.51 0.0 0 0 392.93 304.91
  L 418.91 304.91
  A 0.71 0.71 0.0 0 0 419.62 304.20
  L 419.62 303.43
  A 0.77 0.77 0.0 0 0 418.80 302.66
  C 411.80 303.11 410.58 297.87 410.65 291.78
  Q 410.71 287.09 410.71 273.72
  A 0.18 0.18 0.0 0 1 411.04 273.62
  Z"
/>
<path fill="#000000" d="
  M 261.54 228.40
  A 0.32 0.31 56.9 0 0 262.14 228.53
  Q 263.89 224.51 266.67 221.18
  C 270.62 216.45 276.63 214.49 281.43 218.98
  A 0.76 0.75 -40.3 0 0 282.38 219.05
  Q 288.85 214.53 296.94 217.90
  C 298.66 218.62 301.20 219.86 302.93 217.96
  A 1.29 1.28 66.3 0 1 305.16 218.83
  L 305.16 235.93
  A 0.48 0.48 0.0 0 1 304.68 236.41
  L 303.16 236.41
  A 0.59 0.58 -4.6 0 1 302.58 235.92
  Q 301.38 228.81 297.29 223.65
  C 293.83 219.27 286.62 219.02 284.25 224.72
  C 282.34 229.33 285.97 234.44 289.38 237.37
  Q 297.29 244.19 303.23 250.51
  Q 311.87 259.71 306.24 271.25
  Q 305.29 273.20 303.36 275.23
  A 0.20 0.20 0.0 0 0 303.57 275.55
  Q 306.96 274.35 307.86 270.58
  C 309.12 265.25 308.41 259.68 308.41 254.26
  Q 308.41 216.95 308.42 202.11
  C 308.43 197.46 308.09 192.90 302.32 193.87
  A 1.22 1.22 0.0 0 1 301.63 191.55
  L 317.06 184.71
  A 1.27 1.27 0.0 0 1 318.84 185.87
  L 318.84 227.62
  A 0.28 0.28 0.0 0 0 319.33 227.80
  C 323.15 223.53 326.46 217.81 332.80 216.75
  C 344.40 214.81 348.49 224.18 348.51 234.00
  Q 348.54 256.51 348.52 265.81
  C 348.52 269.53 349.63 275.21 354.22 275.62
  A 0.83 0.82 2.7 0 1 354.97 276.44
  L 354.97 277.33
  A 0.67 0.67 0.0 0 1 354.30 278.00
  L 331.02 278.00
  A 0.70 0.70 0.0 0 1 330.32 277.30
  L 330.32 276.49
  A 0.79 0.79 0.0 0 1 331.07 275.70
  C 337.16 275.44 338.10 270.29 338.10 265.25
  Q 338.10 262.73 338.08 234.00
  C 338.08 231.30 337.38 227.27 334.76 225.44
  C 330.97 222.79 325.81 224.48 322.70 227.70
  Q 320.28 230.21 319.17 231.74
  A 1.83 1.82 -27.8 0 0 318.83 232.83
  Q 318.88 238.17 318.82 264.90
  C 318.81 270.20 319.82 275.26 325.65 275.65
  A 0.89 0.88 2.1 0 1 326.48 276.53
  L 326.48 277.23
  A 0.77 0.77 0.0 0 1 325.71 278.00
  L 302.33 278.00
  A 1.73 1.72 59.8 0 1 301.47 277.77
  L 301.17 277.59
  A 0.76 0.76 0.0 0 0 300.41 277.59
  Q 293.58 281.60 285.59 278.34
  C 283.54 277.50 280.34 275.68 279.02 277.65
  A 1.30 1.30 0.0 0 1 276.64 276.93
  L 276.64 258.52
  A 0.67 0.67 0.0 0 1 277.31 257.85
  L 278.23 257.85
  A 0.78 0.77 -2.0 0 1 279.01 258.57
  C 279.56 265.32 283.21 275.79 291.53 275.89
  Q 294.70 275.93 296.73 273.73
  C 301.01 269.12 299.75 262.49 295.52 258.38
  Q 290.80 253.79 283.44 247.30
  Q 275.75 240.53 276.65 230.26
  A 0.81 0.81 0.0 0 0 276.01 229.40
  C 273.74 228.91 271.68 225.44 269.63 225.50
  C 266.00 225.59 263.60 229.84 261.82 233.07
  A 1.95 1.90 -30.9 0 0 261.59 233.94
  Q 261.40 251.52 261.67 268.50
  C 261.75 274.02 265.95 276.00 270.93 275.75
  A 0.51 0.50 88.4 0 1 271.46 276.26
  L 271.46 277.42
  A 0.58 0.58 0.0 0 1 270.88 278.00
  L 243.65 278.00
  A 0.72 0.72 0.0 0 1 242.93 277.28
  L 242.93 276.45
  A 0.77 0.77 0.0 0 1 243.70 275.68
  C 249.62 275.67 251.06 271.23 251.08 266.25
  Q 251.12 247.95 251.11 232.95
  C 251.10 228.86 250.64 225.22 245.83 225.47
  A 0.23 0.23 0.0 0 0 245.63 225.80
  Q 249.68 234.49 249.45 244.34
  A 0.59 0.59 0.0 0 1 248.86 244.92
  L 221.77 244.92
  A 0.54 0.54 0.0 0 0 221.23 245.45
  C 221.22 253.47 223.53 266.94 232.33 269.46
  C 239.93 271.64 244.93 263.28 247.09 257.50
  A 1.16 1.16 0.0 0 1 249.33 258.07
  C 247.83 268.66 240.98 280.54 228.75 279.70
  Q 222.73 279.29 217.75 273.33
  A 0.66 0.66 0.0 0 0 216.97 273.15
  Q 212.24 275.34 203.14 279.60
  Q 202.25 280.02 200.86 279.78
  A 0.64 0.63 4.9 0 1 200.33 279.16
  L 200.33 270.32
  A 0.27 0.26 64.4 0 0 199.86 270.15
  Q 196.54 274.39 195.16 275.59
  C 185.62 283.93 174.28 279.03 169.45 268.50
  C 164.39 257.47 165.25 241.80 170.15 230.82
  C 174.27 221.60 182.39 214.08 192.69 217.14
  Q 196.88 218.38 199.82 220.89
  A 0.31 0.31 0.0 0 0 200.33 220.66
  Q 200.35 205.43 200.31 200.39
  C 200.28 195.56 197.72 192.49 192.55 194.50
  A 0.54 0.53 -21.9 0 1 191.86 194.21
  L 191.37 193.11
  A 0.63 0.62 66.1 0 1 191.68 192.29
  L 208.96 184.64
  A 1.28 1.28 0.0 0 1 210.76 185.81
  Q 210.71 254.72 210.74 262.75
  Q 210.76 266.86 212.10 269.19
  A 2.27 2.23 85.7 0 0 213.21 270.16
  L 214.91 270.85
  A 0.60 0.60 0.0 0 0 215.66 270.00
  C 209.33 258.49 209.99 242.41 214.16 230.45
  Q 216.62 223.40 221.52 219.54
  C 228.28 214.22 238.74 215.89 243.86 223.09
  A 0.52 0.52 0.0 0 0 244.50 223.26
  L 259.17 216.53
  A 0.85 0.79 -55.1 0 1 259.50 216.46
  L 261.07 216.46
  A 0.47 0.47 0.0 0 1 261.54 216.93
  L 261.54 228.40
  Z
  M 200.32 264.52
  Q 200.36 252.38 200.33 239.24
  C 200.32 233.00 198.60 222.27 191.01 220.60
  C 179.88 218.16 178.22 234.32 177.95 241.52
  Q 177.45 255.17 180.04 262.46
  C 182.47 269.28 187.02 275.32 195.08 270.34
  Q 196.89 269.22 199.88 265.70
  A 1.88 1.87 65.7 0 0 200.32 264.52
  Z
  M 221.56 240.89
  L 238.06 240.89
  A 0.28 0.28 0.0 0 0 238.34 240.61
  L 238.34 236.87
  A 16.08 7.74 90.0 0 0 230.60 220.79
  L 229.02 220.79
  A 16.08 7.74 -90.0 0 0 221.28 236.87
  L 221.28 240.61
  A 0.28 0.28 0.0 0 0 221.56 240.89
  Z"
/>
<path fill="#000000" d="
  M 92.99 223.00
  C 99.31 214.24 111.94 214.23 118.55 222.95
  A 0.42 0.42 0.0 0 0 119.05 223.08
  L 133.80 216.54
  A 1.12 1.12 0.0 0 1 135.37 217.57
  L 135.37 227.83
  A 0.30 0.30 0.0 0 0 135.91 228.02
  Q 136.21 227.64 138.98 224.02
  C 143.48 218.15 150.18 214.65 157.39 217.47
  C 163.01 219.67 164.86 227.32 164.87 232.94
  Q 164.90 247.50 164.89 267.03
  C 164.88 271.13 166.19 275.14 170.59 275.75
  A 0.72 0.72 0.0 0 1 171.22 276.46
  L 171.22 277.45
  A 0.55 0.55 0.0 0 1 170.67 278.00
  L 147.41 278.00
  A 0.56 0.56 0.0 0 1 146.85 277.44
  L 146.85 276.44
  A 0.68 0.68 0.0 0 1 147.48 275.76
  Q 154.08 275.18 154.35 267.76
  Q 154.56 261.87 154.41 231.96
  C 154.39 227.74 151.71 224.41 147.73 224.21
  C 142.53 223.94 138.45 227.60 135.71 231.70
  A 1.99 1.96 62.5 0 0 135.37 232.81
  Q 135.39 260.84 135.36 264.78
  C 135.33 270.33 135.96 275.51 142.28 275.71
  A 0.72 0.72 0.0 0 1 142.98 276.43
  L 142.98 277.44
  A 0.56 0.56 0.0 0 1 142.42 278.00
  L 118.52 278.00
  A 0.55 0.55 0.0 0 1 117.97 277.45
  L 117.97 276.36
  A 0.68 0.68 0.0 0 1 118.63 275.68
  C 125.25 275.42 124.93 267.61 124.92 263.03
  Q 124.89 248.33 124.92 230.91
  C 124.93 227.64 124.50 225.00 120.78 225.35
  A 0.41 0.41 0.0 0 0 120.45 225.93
  Q 124.51 234.77 124.11 244.41
  A 0.53 0.52 1.1 0 1 123.58 244.91
  L 96.44 244.91
  A 0.58 0.58 0.0 0 0 95.86 245.51
  C 96.19 253.27 97.67 261.29 102.35 266.66
  C 105.34 270.09 110.79 270.74 114.32 268.24
  Q 119.73 264.41 122.02 256.79
  A 0.14 0.13 10.6 0 1 122.16 256.70
  Q 123.19 256.80 124.06 257.54
  A 0.22 0.20 27.3 0 1 124.13 257.73
  C 122.73 268.58 114.50 282.76 101.40 279.34
  C 90.77 276.57 86.60 263.60 85.93 253.72
  Q 85.08 241.28 89.17 229.44
  A 0.24 0.24 0.0 0 0 88.84 229.14
  C 84.98 230.92 83.27 227.76 80.60 225.96
  A 2.54 2.43 66.9 0 0 79.76 225.60
  C 75.95 224.79 72.85 230.15 71.35 233.08
  A 2.78 2.74 59.1 0 0 71.06 234.27
  Q 71.05 235.75 71.06 266.00
  C 71.06 272.77 73.23 275.98 80.28 275.70
  A 0.70 0.69 -0.8 0 1 81.00 276.39
  L 81.00 277.35
  A 0.65 0.65 0.0 0 1 80.35 278.00
  L 53.03 278.00
  A 0.57 0.56 90.0 0 1 52.47 277.43
  L 52.47 276.37
  A 0.68 0.67 90.0 0 1 53.14 275.69
  C 60.03 275.68 60.55 270.28 60.59 264.32
  Q 60.67 251.95 60.50 229.78
  Q 60.47 226.45 56.72 225.54
  C 55.91 225.34 54.72 225.74 53.92 225.70
  A 1.21 1.21 0.0 0 1 53.50 223.38
  L 69.27 216.39
  A 1.28 1.28 0.0 0 1 71.07 217.56
  L 71.07 228.46
  A 0.31 0.31 0.0 0 0 71.66 228.58
  C 74.21 222.55 79.01 215.70 86.38 216.63
  Q 91.53 217.28 92.56 222.91
  A 0.24 0.24 0.0 0 0 92.99 223.00
  Z
  M 96.23 240.88
  L 112.87 240.90
  A 0.22 0.22 0.0 0 0 113.09 240.68
  L 113.10 236.96
  A 16.16 7.76 -89.9 0 0 105.37 220.79
  L 103.81 220.79
  A 16.16 7.76 -89.9 0 0 96.02 236.94
  L 96.01 240.66
  A 0.22 0.22 0.0 0 0 96.23 240.88
  Z"
/>
<path fill="#000000" d="
  M 375.15 216.52
  C 392.34 216.90 399.64 233.81 399.31 248.69
  C 398.98 263.58 390.95 280.16 373.77 279.78
  C 356.58 279.40 349.28 262.49 349.61 247.61
  C 349.94 232.72 357.97 216.14 375.15 216.52
  Z
  M 361.81 248.63
  C 362.14 256.88 363.37 275.98 375.60 275.48
  C 387.83 274.99 387.51 255.85 387.18 247.61
  C 386.84 239.36 385.61 220.26 373.38 220.76
  C 361.16 221.25 361.48 240.39 361.81 248.63
  Z"
/>
<path fill="#000000" d="
  M 411.04 273.62
  A 0.18 0.18 0.0 0 0 410.71 273.72
  Q 410.71 287.09 410.65 291.78
  C 410.58 297.87 411.80 303.11 418.80 302.66
  A 0.77 0.77 0.0 0 1 419.62 303.43
  L 419.62 304.20
  A 0.71 0.71 0.0 0 1 418.91 304.91
  L 392.93 304.91
  A 0.51 0.51 0.0 0 1 392.42 304.40
  L 392.42 303.25
  A 0.57 0.57 0.0 0 1 393.01 302.68
  C 398.69 302.81 400.29 297.52 400.28 292.75
  Q 400.25 280.65 400.30 232.75
  C 400.30 228.74 398.92 224.20 393.74 225.64
  A 0.77 0.77 0.0 0 1 392.76 224.90
  L 392.76 224.09
  A 0.92 0.90 -12.0 0 1 393.31 223.26
  L 408.75 216.41
  A 1.03 1.03 0.0 0 1 410.19 217.35
  L 410.19 230.62
  A 0.27 0.27 0.0 0 0 410.71 230.71
  C 412.62 225.60 416.52 219.02 421.86 217.27
  Q 427.86 215.31 433.22 218.31
  C 441.56 222.96 444.78 233.97 444.91 243.26
  C 445.10 257.18 439.20 282.59 419.64 279.12
  Q 414.22 278.16 411.04 273.62
  Z
  M 410.74 235.26
  Q 410.61 247.62 410.75 259.25
  C 410.83 266.31 413.35 275.98 422.51 275.49
  C 435.01 274.81 433.57 248.33 432.63 240.57
  C 431.81 233.73 428.56 221.46 419.33 224.14
  C 415.61 225.22 413.19 229.80 411.10 233.84
  A 3.19 3.13 -31.3 0 0 410.74 235.26
  Z"
/>
<path fill="#ffffff" d="
  M 199.88 265.70
  Q 196.89 269.22 195.08 270.34
  C 187.02 275.32 182.47 269.28 180.04 262.46
  Q 177.45 255.17 177.95 241.52
  C 178.22 234.32 179.88 218.16 191.01 220.60
  C 198.60 222.27 200.32 233.00 200.33 239.24
  Q 200.36 252.38 200.32 264.52
  A 1.88 1.87 65.7 0 1 199.88 265.70
  Z"
/>
<path fill="#ffffff" d="
  M 96.23 240.88
  A 0.22 0.22 0.0 0 1 96.01 240.66
  L 96.02 236.94
  A 16.16 7.76 -89.9 0 1 103.81 220.79
  L 105.37 220.79
  A 16.16 7.76 -89.9 0 1 113.10 236.96
  L 113.09 240.68
  A 0.22 0.22 0.0 0 1 112.87 240.90
  L 96.23 240.88
  Z"
/>
<path fill="#ffffff" d="
  M 221.56 240.89
  A 0.28 0.28 0.0 0 1 221.28 240.61
  L 221.28 236.87
  A 16.08 7.74 90.0 0 1 229.02 220.79
  L 230.60 220.79
  A 16.08 7.74 90.0 0 1 238.34 236.87
  L 238.34 240.61
  A 0.28 0.28 0.0 0 1 238.06 240.89
  L 221.56 240.89
  Z"
/>
<path fill="#ffffff" d="
  M 373.38 220.76
  C 385.61 220.26 386.84 239.36 387.18 247.61
  C 387.51 255.85 387.83 274.99 375.60 275.48
  C 363.37 275.98 362.14 256.88 361.81 248.63
  C 361.48 240.39 361.16 221.25 373.38 220.76
  Z"
/>
<path fill="#ffffff" d="
  M 411.10 233.84
  C 413.19 229.80 415.61 225.22 419.33 224.14
  C 428.56 221.46 431.81 233.73 432.63 240.57
  C 433.57 248.33 435.01 274.81 422.51 275.49
  C 413.35 275.98 410.83 266.31 410.75 259.25
  Q 410.61 247.62 410.74 235.26
  A 3.19 3.13 -31.3 0 1 411.10 233.84
  Z"
/>
</svg>
