<?xml version="1.0" encoding="UTF-8" standalone="no"?>
<!DOCTYPE svg PUBLIC "-//W3C//DTD SVG 1.1//EN" "http://www.w3.org/Graphics/SVG/1.1/DTD/svg11.dtd">
<svg xmlns="http://www.w3.org/2000/svg" version="1.1" viewBox="0.00 0.00 192.00 192.00">
<path stroke="#7b8981" stroke-width="2.00" fill="none" stroke-linecap="butt" vector-effect="non-scaling-stroke" d="
  M 178.10 74.96
  Q 177.80 74.98 177.53 75.24
  C 147.84 104.08 99.25 79.24 104.76 38.50
  Q 106.60 24.93 117.09 14.13"
/>
<path fill="#005aff" d="
  M 178.10 74.96
  Q 177.80 74.98 177.53 75.24
  C 147.84 104.08 99.25 79.24 104.76 38.50
  Q 106.60 24.93 117.09 14.13
  Q 121.72 10.17 123.06 9.28
  C 152.46 -10.11 191.43 11.03 190.05 46.58
  Q 189.45 61.92 178.62 74.06
  Q 178.30 74.41 178.10 74.96
  Z"
/>
<path fill="#f6b802" d="
  M 117.09 14.13
  Q 106.60 24.93 104.76 38.50
  C 99.25 79.24 147.84 104.08 177.53 75.24
  Q 177.80 74.98 178.10 74.96
  Q 181.29 103.45 175.72 132.00
  C 172.34 149.30 164.65 163.23 148.76 171.48
  Q 141.83 175.07 129.76 177.50
  Q 98.48 183.79 66.25 178.82
  C 58.58 177.64 50.88 176.18 44.21 173.07
  C 30.69 166.76 19.69 154.50 16.11 139.79
  Q 6.65 100.84 15.02 59.77
  C 20.39 33.47 36.46 20.92 61.34 16.11
  Q 88.66 10.81 117.09 14.13
  Z"
/>
</svg>
