<?xml version="1.0" encoding="UTF-8" standalone="no"?>
<!DOCTYPE svg PUBLIC "-//W3C//DTD SVG 1.1//EN" "http://www.w3.org/Graphics/SVG/1.1/DTD/svg11.dtd">
<svg xmlns="http://www.w3.org/2000/svg" version="1.1" viewBox="0.00 0.00 512.00 512.00">
<g stroke-width="2.00" fill="none" stroke-linecap="butt">
<path stroke="#ffc02d" vector-effect="non-scaling-stroke" d="
  M 380.03 92.86
  Q 368.71 102.77 364.51 107.52
  Q 342.71 132.23 337.02 138.53
  Q 320.31 157.01 309.76 178.54"
/>
<path stroke="#ffe89c" vector-effect="non-scaling-stroke" d="
  M 309.76 178.54
  Q 297.52 179.77 286.30 184.56
  Q 274.92 189.43 266.30 198.29
  Q 259.89 204.87 257.60 210.37
  Q 257.17 211.40 257.17 215.46"
/>
<path stroke="#ffb022" vector-effect="non-scaling-stroke" d="
  M 257.17 215.46
  Q 255.82 215.97 255.19 216.96"
/>
<path stroke="#ffe89c" vector-effect="non-scaling-stroke" d="
  M 255.19 216.96
  Q 255.04 211.99 254.26 210.26
  Q 250.37 201.65 243.29 195.47
  C 229.78 183.66 213.08 178.78 195.01 177.97
  Q 183.11 177.43 165.76 180.65
  Q 163.63 181.05 163.64 183.02
  C 163.71 205.42 163.50 223.52 163.54 241.32
  Q 163.60 270.41 163.36 299.41"
/>
<path stroke="#ffb022" vector-effect="non-scaling-stroke" d="
  M 163.36 299.41
  Q 160.40 300.78 159.68 303.79
  A 0.75 0.36 70.7 0 0 159.66 303.97
  L 159.45 309.97"
/>
<path stroke="#ffe89c" vector-effect="non-scaling-stroke" d="
  M 159.45 309.97
  L 159.64 193.42
  A 3.09 3.09 0.0 0 0 155.30 190.60
  L 154.41 191.00
  A 7.46 7.46 0.0 0 0 149.99 197.80
  Q 149.94 258.71 150.04 321.75
  Q 150.05 325.91 153.89 329.15"
/>
<path stroke="#ffc02d" vector-effect="non-scaling-stroke" d="
  M 153.89 329.15
  Q 147.02 347.28 134.92 362.41
  Q 120.83 380.02 103.90 397.54"
/>
<path stroke="#ffdd44" vector-effect="non-scaling-stroke" d="
  M 83.39 192.18
  Q 116.50 165.55 139.88 135.31
  Q 169.90 96.47 181.35 82.37"
/>
<path stroke="#ffa81c" vector-effect="non-scaling-stroke" d="
  M 428.75 169.44
  Q 418.43 177.65 412.40 183.37
  Q 396.61 198.35 380.44 213.20"
/>
<path stroke="#ff9912" vector-effect="non-scaling-stroke" d="
  M 380.44 213.20
  L 366.94 199.88
  A 0.63 0.63 0.0 0 0 366.13 199.82
  Q 362.15 202.65 362.45 207.49"
/>
<path stroke="#ffd78f" vector-effect="non-scaling-stroke" d="
  M 362.45 207.49
  Q 362.53 202.50 362.45 197.48
  C 362.37 192.54 358.26 190.19 353.76 190.44
  A 0.78 0.77 5.6 0 0 353.05 191.02
  Q 352.54 193.07 352.89 195.22"
/>
<path stroke="#ff9f15" vector-effect="non-scaling-stroke" d="
  M 352.89 195.22
  Q 352.50 193.77 352.72 193.17
  A 0.56 0.56 0.0 0 0 352.04 192.44
  Q 350.76 192.83 349.53 192.32
  A 0.60 0.60 0.0 0 0 348.69 192.88
  L 348.73 197.46"
/>
<path stroke="#ffd78f" vector-effect="non-scaling-stroke" d="
  M 348.73 197.46
  L 348.64 181.90
  A 0.80 0.80 0.0 0 0 348.00 181.12
  C 335.24 178.56 323.77 176.98 309.76 178.54"
/>
<path stroke="#ffc684" vector-effect="non-scaling-stroke" d="
  M 348.73 197.46
  L 348.54 308.01
  A 1.12 1.12 0.0 0 1 347.41 309.13
  Q 343.92 309.08 342.94 308.87
  Q 334.72 307.11 328.01 306.24
  C 306.30 303.41 283.27 306.66 266.45 321.44
  Q 264.11 323.49 257.68 329.84
  A 0.33 0.33 0.0 0 1 257.12 329.60
  L 257.17 215.46"
/>
<path stroke="#ffc684" vector-effect="non-scaling-stroke" d="
  M 159.45 309.97
  L 160.40 316.85
  A 1.56 1.55 23.6 0 0 160.68 317.56
  Q 163.03 320.88 167.50 320.84
  Q 189.25 320.67 232.80 320.67
  Q 236.81 320.66 238.36 321.32
  Q 240.83 322.36 243.07 324.43
  Q 249.89 330.69 251.97 332.81
  Q 256.26 337.18 260.51 332.79
  Q 262.92 330.30 269.83 324.09
  Q 273.62 320.68 276.94 320.68
  Q 327.67 320.70 345.25 320.84
  Q 349.48 320.87 351.72 317.71
  A 2.31 2.20 -23.4 0 0 352.09 316.84
  C 352.43 315.12 353.00 312.08 353.00 309.54
  Q 353.06 252.37 352.89 195.22"
/>
<path stroke="#ffc081" vector-effect="non-scaling-stroke" d="
  M 362.45 207.49
  Q 362.57 264.13 362.43 320.75
  Q 362.41 326.55 358.49 328.90
  Q 356.11 330.32 349.26 330.33
  Q 342.60 330.34 335.98 330.38"
/>
<path stroke="#ffc684" vector-effect="non-scaling-stroke" d="
  M 335.98 330.38
  L 277.34 330.31
  A 2.81 2.79 -75.5 0 0 274.89 331.76
  C 271.66 337.62 266.24 342.01 259.53 342.84
  C 249.08 344.14 242.58 339.84 237.33 331.51
  A 2.66 2.65 -16.0 0 0 235.08 330.27
  L 169.23 330.31"
/>
<path stroke="#ffd78f" vector-effect="non-scaling-stroke" d="
  M 169.23 330.31
  Q 161.01 330.96 153.89 329.15"
/>
<path stroke="#ffc684" vector-effect="non-scaling-stroke" d="
  M 255.19 216.96
  L 254.86 330.46
  A 0.44 0.43 -58.5 0 1 254.04 330.66
  C 251.14 325.03 243.84 319.87 237.87 315.62
  Q 232.93 312.10 227.16 310.09
  C 211.71 304.73 195.35 304.39 179.51 307.06
  Q 171.98 308.32 165.12 309.10
  A 1.31 1.31 0.0 0 1 163.66 307.85
  L 163.36 299.41"
/>
<path stroke="#ff9f15" vector-effect="non-scaling-stroke" d="
  M 169.23 330.31
  Q 164.51 331.26 158.91 330.42
  A 0.95 0.95 0.0 0 0 158.20 332.12
  C 160.63 333.95 163.72 336.42 166.27 339.36
  Q 169.01 342.50 179.43 352.46
  Q 204.85 376.75 208.87 380.43
  Q 228.54 398.44 246.02 415.97
  C 249.97 419.94 252.62 424.63 255.67 428.33
  Q 257.48 430.51 258.25 430.92
  A 0.28 0.28 0.0 0 1 258.24 431.42
  Q 258.14 431.47 246.47 431.18
  Q 238.20 430.96 223.28 432.00"
/>
<path stroke="#ff920d" vector-effect="non-scaling-stroke" d="
  M 429.02 262.54
  Q 425.91 258.83 423.53 254.73
  C 419.72 248.19 413.74 246.11 408.91 240.88
  Q 406.77 238.57 405.19 237.04
  Q 392.79 225.06 380.44 213.20"
/>
<path stroke="#ff7a02" vector-effect="non-scaling-stroke" d="
  M 428.98 303.30
  Q 397.36 318.95 374.39 345.71
  Q 365.08 356.54 356.77 365.54
  C 342.80 380.67 327.30 393.32 312.90 407.35
  Q 300.87 419.08 293.24 430.77
  A 0.31 0.31 0.0 0 0 293.48 431.25
  L 307.29 431.90"
/>
<path stroke="#ff8807" vector-effect="non-scaling-stroke" d="
  M 270.58 431.92
  C 262.68 419.00 263.09 409.40 272.06 396.89
  Q 282.23 382.72 296.96 369.88
  Q 299.03 368.07 316.99 353.00
  Q 326.41 345.09 335.98 330.38"
/>
<path stroke="#ffc684" vector-effect="non-scaling-stroke" d="
  M 234.07 318.44
  Q 231.76 316.77 228.29 315.97
  Q 220.40 314.16 215.26 313.25
  Q 210.42 312.39 199.06 312.31
  C 191.35 312.26 180.98 314.23 173.70 315.14
  Q 166.74 316.01 161.40 314.14
  A 0.48 0.48 0.0 0 0 160.89 314.92
  Q 162.07 316.22 163.92 316.60
  Q 168.05 317.45 174.52 316.59
  Q 185.11 315.20 186.60 314.96
  C 198.79 312.96 211.22 313.43 223.16 316.18
  Q 229.40 317.61 233.94 318.72
  A 0.16 0.16 0.0 0 0 234.07 318.44"
/>
<path stroke="#ffc684" vector-effect="non-scaling-stroke" d="
  M 278.40 319.57
  Q 280.98 319.05 283.90 317.58
  A 7.60 7.40 24.0 0 1 285.58 316.96
  Q 303.65 312.66 317.63 314.16
  Q 330.17 315.50 341.77 316.90
  C 344.82 317.27 348.85 317.70 350.81 315.92
  A 0.32 0.32 0.0 0 0 350.52 315.38
  C 346.87 316.33 342.07 315.53 337.27 314.89
  Q 321.10 312.71 314.00 312.34
  Q 304.74 311.86 293.73 313.73
  Q 285.48 315.13 278.16 318.88
  A 0.37 0.37 0.0 0 0 278.40 319.57"
/>
</g>
<path fill="#ffd139" d="
  M 380.03 92.86
  Q 368.71 102.77 364.51 107.52
  Q 342.71 132.23 337.02 138.53
  Q 320.31 157.01 309.76 178.54
  Q 297.52 179.77 286.30 184.56
  Q 274.92 189.43 266.30 198.29
  Q 259.89 204.87 257.60 210.37
  Q 257.17 211.40 257.17 215.46
  Q 255.82 215.97 255.19 216.96
  Q 255.04 211.99 254.26 210.26
  Q 250.37 201.65 243.29 195.47
  C 229.78 183.66 213.08 178.78 195.01 177.97
  Q 183.11 177.43 165.76 180.65
  Q 163.63 181.05 163.64 183.02
  C 163.71 205.42 163.50 223.52 163.54 241.32
  Q 163.60 270.41 163.36 299.41
  Q 160.40 300.78 159.68 303.79
  A 0.75 0.36 70.7 0 0 159.66 303.97
  L 159.45 309.97
  L 159.64 193.42
  A 3.09 3.09 0.0 0 0 155.30 190.60
  L 154.41 191.00
  A 7.46 7.46 0.0 0 0 149.99 197.80
  Q 149.94 258.71 150.04 321.75
  Q 150.05 325.91 153.89 329.15
  Q 147.02 347.28 134.92 362.41
  Q 120.83 380.02 103.90 397.54
  C 94.31 386.08 87.17 370.81 84.97 355.75
  Q 83.65 346.68 83.61 337.50
  Q 83.29 264.67 83.39 192.18
  Q 116.50 165.55 139.88 135.31
  Q 169.90 96.47 181.35 82.37
  Q 258.70 81.89 336.25 82.19
  C 351.27 82.25 366.84 85.54 380.03 92.86
  Z"
/>
<path fill="#ffe94e" d="
  M 181.35 82.37
  Q 169.90 96.47 139.88 135.31
  Q 116.50 165.55 83.39 192.18
  Q 83.08 169.79 84.46 159.99
  Q 87.33 139.67 98.74 123.23
  Q 104.14 115.46 114.60 105.43
  C 118.31 101.87 123.37 98.65 128.44 95.22
  Q 135.82 90.24 146.15 86.91
  Q 161.32 82.02 181.35 82.37
  Z"
/>
<path fill="#ffaf20" d="
  M 380.03 92.86
  Q 387.03 96.82 393.52 101.74
  C 413.79 117.12 429.12 143.48 428.75 169.44
  Q 418.43 177.65 412.40 183.37
  Q 396.61 198.35 380.44 213.20
  L 366.94 199.88
  A 0.63 0.63 0.0 0 0 366.13 199.82
  Q 362.15 202.65 362.45 207.49
  Q 362.53 202.50 362.45 197.48
  C 362.37 192.54 358.26 190.19 353.76 190.44
  A 0.78 0.77 5.6 0 0 353.05 191.02
  Q 352.54 193.07 352.89 195.22
  Q 352.50 193.77 352.72 193.17
  A 0.56 0.56 0.0 0 0 352.04 192.44
  Q 350.76 192.83 349.53 192.32
  A 0.60 0.60 0.0 0 0 348.69 192.88
  L 348.73 197.46
  L 348.64 181.90
  A 0.80 0.80 0.0 0 0 348.00 181.12
  C 335.24 178.56 323.77 176.98 309.76 178.54
  Q 320.31 157.01 337.02 138.53
  Q 342.71 132.23 364.51 107.52
  Q 368.71 102.77 380.03 92.86
  Z"
/>
<path fill="#ffa117" d="
  M 428.75 169.44
  L 429.02 262.54
  Q 425.91 258.83 423.53 254.73
  C 419.72 248.19 413.74 246.11 408.91 240.88
  Q 406.77 238.57 405.19 237.04
  Q 392.79 225.06 380.44 213.20
  Q 396.61 198.35 412.40 183.37
  Q 418.43 177.65 428.75 169.44
  Z"
/>
<path fill="#fefefe" d="
  M 255.19 216.96
  L 254.86 330.46
  A 0.44 0.43 -58.5 0 1 254.04 330.66
  C 251.14 325.03 243.84 319.87 237.87 315.62
  Q 232.93 312.10 227.16 310.09
  C 211.71 304.73 195.35 304.39 179.51 307.06
  Q 171.98 308.32 165.12 309.10
  A 1.31 1.31 0.0 0 1 163.66 307.85
  L 163.36 299.41
  Q 163.60 270.41 163.54 241.32
  C 163.50 223.52 163.71 205.42 163.64 183.02
  Q 163.63 181.05 165.76 180.65
  Q 183.11 177.43 195.01 177.97
  C 213.08 178.78 229.78 183.66 243.29 195.47
  Q 250.37 201.65 254.26 210.26
  Q 255.04 211.99 255.19 216.96
  Z"
/>
<path fill="#fefefe" d="
  M 348.73 197.46
  L 348.54 308.01
  A 1.12 1.12 0.0 0 1 347.41 309.13
  Q 343.92 309.08 342.94 308.87
  Q 334.72 307.11 328.01 306.24
  C 306.30 303.41 283.27 306.66 266.45 321.44
  Q 264.11 323.49 257.68 329.84
  A 0.33 0.33 0.0 0 1 257.12 329.60
  L 257.17 215.46
  Q 257.17 211.40 257.60 210.37
  Q 259.89 204.87 266.30 198.29
  Q 274.92 189.43 286.30 184.56
  Q 297.52 179.77 309.76 178.54
  C 323.77 176.98 335.24 178.56 348.00 181.12
  A 0.80 0.80 0.0 0 1 348.64 181.90
  L 348.73 197.46
  Z"
/>
<path fill="#fefefe" d="
  M 159.45 309.97
  L 160.40 316.85
  A 1.56 1.55 23.6 0 0 160.68 317.56
  Q 163.03 320.88 167.50 320.84
  Q 189.25 320.67 232.80 320.67
  Q 236.81 320.66 238.36 321.32
  Q 240.83 322.36 243.07 324.43
  Q 249.89 330.69 251.97 332.81
  Q 256.26 337.18 260.51 332.79
  Q 262.92 330.30 269.83 324.09
  Q 273.62 320.68 276.94 320.68
  Q 327.67 320.70 345.25 320.84
  Q 349.48 320.87 351.72 317.71
  A 2.31 2.20 -23.4 0 0 352.09 316.84
  C 352.43 315.12 353.00 312.08 353.00 309.54
  Q 353.06 252.37 352.89 195.22
  Q 352.54 193.07 353.05 191.02
  A 0.78 0.77 5.6 0 1 353.76 190.44
  C 358.26 190.19 362.37 192.54 362.45 197.48
  Q 362.53 202.50 362.45 207.49
  Q 362.57 264.13 362.43 320.75
  Q 362.41 326.55 358.49 328.90
  Q 356.11 330.32 349.26 330.33
  Q 342.60 330.34 335.98 330.38
  L 277.34 330.31
  A 2.81 2.79 -75.5 0 0 274.89 331.76
  C 271.66 337.62 266.24 342.01 259.53 342.84
  C 249.08 344.14 242.58 339.84 237.33 331.51
  A 2.66 2.65 -16.0 0 0 235.08 330.27
  L 169.23 330.31
  Q 161.01 330.96 153.89 329.15
  Q 150.05 325.91 150.04 321.75
  Q 149.94 258.71 149.99 197.80
  A 7.46 7.46 0.0 0 1 154.41 191.00
  L 155.30 190.60
  A 3.09 3.09 0.0 0 1 159.64 193.42
  L 159.45 309.97
  Z"
/>
<path fill="#ff8e0a" d="
  M 352.89 195.22
  Q 353.06 252.37 353.00 309.54
  C 353.00 312.08 352.43 315.12 352.09 316.84
  A 2.31 2.20 -23.4 0 1 351.72 317.71
  Q 349.48 320.87 345.25 320.84
  Q 327.67 320.70 276.94 320.68
  Q 273.62 320.68 269.83 324.09
  Q 262.92 330.30 260.51 332.79
  Q 256.26 337.18 251.97 332.81
  Q 249.89 330.69 243.07 324.43
  Q 240.83 322.36 238.36 321.32
  Q 236.81 320.66 232.80 320.67
  Q 189.25 320.67 167.50 320.84
  Q 163.03 320.88 160.68 317.56
  A 1.56 1.55 23.6 0 1 160.40 316.85
  L 159.45 309.97
  L 159.66 303.97
  A 0.75 0.36 70.7 0 1 159.68 303.79
  Q 160.40 300.78 163.36 299.41
  L 163.66 307.85
  A 1.31 1.31 0.0 0 0 165.12 309.10
  Q 171.98 308.32 179.51 307.06
  C 195.35 304.39 211.71 304.73 227.16 310.09
  Q 232.93 312.10 237.87 315.62
  C 243.84 319.87 251.14 325.03 254.04 330.66
  A 0.44 0.43 -58.5 0 0 254.86 330.46
  L 255.19 216.96
  Q 255.82 215.97 257.17 215.46
  L 257.12 329.60
  A 0.33 0.33 0.0 0 0 257.68 329.84
  Q 264.11 323.49 266.45 321.44
  C 283.27 306.66 306.30 303.41 328.01 306.24
  Q 334.72 307.11 342.94 308.87
  Q 343.92 309.08 347.41 309.13
  A 1.12 1.12 0.0 0 0 348.54 308.01
  L 348.73 197.46
  L 348.69 192.88
  A 0.60 0.60 0.0 0 1 349.53 192.32
  Q 350.76 192.83 352.04 192.44
  A 0.56 0.56 0.0 0 1 352.72 193.17
  Q 352.50 193.77 352.89 195.22
  Z
  M 234.07 318.44
  Q 231.76 316.77 228.29 315.97
  Q 220.40 314.16 215.26 313.25
  Q 210.42 312.39 199.06 312.31
  C 191.35 312.26 180.98 314.23 173.70 315.14
  Q 166.74 316.01 161.40 314.14
  A 0.48 0.48 0.0 0 0 160.89 314.92
  Q 162.07 316.22 163.92 316.60
  Q 168.05 317.45 174.52 316.59
  Q 185.11 315.20 186.60 314.96
  C 198.79 312.96 211.22 313.43 223.16 316.18
  Q 229.40 317.61 233.94 318.72
  A 0.16 0.16 0.0 0 0 234.07 318.44
  Z
  M 278.40 319.57
  Q 280.98 319.05 283.90 317.58
  A 7.60 7.40 24.0 0 1 285.58 316.96
  Q 303.65 312.66 317.63 314.16
  Q 330.17 315.50 341.77 316.90
  C 344.82 317.27 348.85 317.70 350.81 315.92
  A 0.32 0.32 0.0 0 0 350.52 315.38
  C 346.87 316.33 342.07 315.53 337.27 314.89
  Q 321.10 312.71 314.00 312.34
  Q 304.74 311.86 293.73 313.73
  Q 285.48 315.13 278.16 318.88
  A 0.37 0.37 0.0 0 0 278.40 319.57
  Z"
/>
<path fill="#ff8203" d="
  M 380.44 213.20
  Q 392.79 225.06 405.19 237.04
  Q 406.77 238.57 408.91 240.88
  C 413.74 246.11 419.72 248.19 423.53 254.73
  Q 425.91 258.83 429.02 262.54
  L 428.98 303.30
  Q 397.36 318.95 374.39 345.71
  Q 365.08 356.54 356.77 365.54
  C 342.80 380.67 327.30 393.32 312.90 407.35
  Q 300.87 419.08 293.24 430.77
  A 0.31 0.31 0.0 0 0 293.48 431.25
  L 307.29 431.90
  L 270.58 431.92
  C 262.68 419.00 263.09 409.40 272.06 396.89
  Q 282.23 382.72 296.96 369.88
  Q 299.03 368.07 316.99 353.00
  Q 326.41 345.09 335.98 330.38
  Q 342.60 330.34 349.26 330.33
  Q 356.11 330.32 358.49 328.90
  Q 362.41 326.55 362.43 320.75
  Q 362.57 264.13 362.45 207.49
  Q 362.15 202.65 366.13 199.82
  A 0.63 0.63 0.0 0 1 366.94 199.88
  L 380.44 213.20
  Z"
/>
<path fill="#ff7200" d="
  M 428.98 303.30
  Q 429.03 332.61 428.67 342.99
  C 427.59 375.09 409.59 404.57 381.40 419.85
  C 370.18 425.93 357.03 430.53 344.25 431.17
  Q 325.79 432.09 307.29 431.90
  L 293.48 431.25
  A 0.31 0.31 0.0 0 1 293.24 430.77
  Q 300.87 419.08 312.90 407.35
  C 327.30 393.32 342.80 380.67 356.77 365.54
  Q 365.08 356.54 374.39 345.71
  Q 397.36 318.95 428.98 303.30
  Z"
/>
<path fill="#fefefe" d="
  M 233.94 318.72
  Q 229.40 317.61 223.16 316.18
  C 211.22 313.43 198.79 312.96 186.60 314.96
  Q 185.11 315.20 174.52 316.59
  Q 168.05 317.45 163.92 316.60
  Q 162.07 316.22 160.89 314.92
  A 0.48 0.48 0.0 0 1 161.40 314.14
  Q 166.74 316.01 173.70 315.14
  C 180.98 314.23 191.35 312.26 199.06 312.31
  Q 210.42 312.39 215.26 313.25
  Q 220.40 314.16 228.29 315.97
  Q 231.76 316.77 234.07 318.44
  A 0.16 0.16 0.0 0 1 233.94 318.72
  Z"
/>
<path fill="#fefefe" d="
  M 278.40 319.57
  A 0.37 0.37 0.0 0 1 278.16 318.88
  Q 285.48 315.13 293.73 313.73
  Q 304.74 311.86 314.00 312.34
  Q 321.10 312.71 337.27 314.89
  C 342.07 315.53 346.87 316.33 350.52 315.38
  A 0.32 0.32 0.0 0 1 350.81 315.92
  C 348.85 317.70 344.82 317.27 341.77 316.90
  Q 330.17 315.50 317.63 314.16
  Q 303.65 312.66 285.58 316.96
  A 7.60 7.40 24.0 0 0 283.90 317.58
  Q 280.98 319.05 278.40 319.57
  Z"
/>
<path fill="#ffaf20" d="
  M 169.23 330.31
  Q 164.51 331.26 158.91 330.42
  A 0.95 0.95 0.0 0 0 158.20 332.12
  C 160.63 333.95 163.72 336.42 166.27 339.36
  Q 169.01 342.50 179.43 352.46
  Q 204.85 376.75 208.87 380.43
  Q 228.54 398.44 246.02 415.97
  C 249.97 419.94 252.62 424.63 255.67 428.33
  Q 257.48 430.51 258.25 430.92
  A 0.28 0.28 0.0 0 1 258.24 431.42
  Q 258.14 431.47 246.47 431.18
  Q 238.20 430.96 223.28 432.00
  Q 200.28 432.16 177.25 432.23
  Q 153.80 432.31 133.26 421.19
  Q 122.56 415.40 116.10 410.16
  Q 110.61 405.72 103.90 397.54
  Q 120.83 380.02 134.92 362.41
  Q 147.02 347.28 153.89 329.15
  Q 161.01 330.96 169.23 330.31
  Z"
/>
<path fill="#ff8e0a" d="
  M 335.98 330.38
  Q 326.41 345.09 316.99 353.00
  Q 299.03 368.07 296.96 369.88
  Q 282.23 382.72 272.06 396.89
  C 263.09 409.40 262.68 419.00 270.58 431.92
  L 223.28 432.00
  Q 238.20 430.96 246.47 431.18
  Q 258.14 431.47 258.24 431.42
  A 0.28 0.28 0.0 0 0 258.25 430.92
  Q 257.48 430.51 255.67 428.33
  C 252.62 424.63 249.97 419.94 246.02 415.97
  Q 228.54 398.44 208.87 380.43
  Q 204.85 376.75 179.43 352.46
  Q 169.01 342.50 166.27 339.36
  C 163.72 336.42 160.63 333.95 158.20 332.12
  A 0.95 0.95 0.0 0 1 158.91 330.42
  Q 164.51 331.26 169.23 330.31
  L 235.08 330.27
  A 2.66 2.65 -16.0 0 1 237.33 331.51
  C 242.58 339.84 249.08 344.14 259.53 342.84
  C 266.24 342.01 271.66 337.62 274.89 331.76
  A 2.81 2.79 -75.5 0 1 277.34 330.31
  L 335.98 330.38
  Z"
/>
</svg>
