<?xml version="1.0" encoding="UTF-8" standalone="no"?>
<!DOCTYPE svg PUBLIC "-//W3C//DTD SVG 1.1//EN" "http://www.w3.org/Graphics/SVG/1.1/DTD/svg11.dtd">
<svg xmlns="http://www.w3.org/2000/svg" version="1.1" viewBox="0.00 0.00 32.00 32.00">
<path stroke="#848485" stroke-width="2.00" fill="none" stroke-linecap="butt" vector-effect="non-scaling-stroke" d="
  M 15.04 16.23
  C 16.17 19.38 18.23 24.46 22.27 21.12
  Q 23.60 20.02 25.14 16.09
  A 0.72 0.71 -64.9 0 0 24.83 15.21
  L 24.57 15.05
  A 0.91 0.91 0.0 0 0 23.33 15.39
  L 21.00 19.42
  A 1.25 1.25 0.0 0 1 18.90 19.51
  Q 18.07 18.34 17.08 15.59
  C 15.96 12.45 13.90 7.36 9.86 10.70
  Q 8.53 11.80 6.99 15.73
  A 0.72 0.71 -64.9 0 0 7.30 16.61
  L 7.56 16.77
  A 0.91 0.91 0.0 0 0 8.80 16.43
  L 11.13 12.40
  A 1.25 1.25 0.0 0 1 13.23 12.31
  Q 14.06 13.49 15.04 16.23"
/>
<path fill="#090a0c" d="
  M 29.19 0.00
  Q 31.16 0.78 32.00 2.78
  L 32.00 29.18
  Q 31.24 31.16 29.22 32.00
  L 2.81 32.00
  Q 0.84 31.23 0.00 29.23
  L 0.00 2.82
  Q 0.76 0.85 2.78 0.00
  L 29.19 0.00
  Z
  M 15.04 16.23
  C 16.17 19.38 18.23 24.46 22.27 21.12
  Q 23.60 20.02 25.14 16.09
  A 0.72 0.71 -64.9 0 0 24.83 15.21
  L 24.57 15.05
  A 0.91 0.91 0.0 0 0 23.33 15.39
  L 21.00 19.42
  A 1.25 1.25 0.0 0 1 18.90 19.51
  Q 18.07 18.34 17.08 15.59
  C 15.96 12.45 13.90 7.36 9.86 10.70
  Q 8.53 11.80 6.99 15.73
  A 0.72 0.71 -64.9 0 0 7.30 16.61
  L 7.56 16.77
  A 0.91 0.91 0.0 0 0 8.80 16.43
  L 11.13 12.40
  A 1.25 1.25 0.0 0 1 13.23 12.31
  Q 14.06 13.49 15.04 16.23
  Z"
/>
<path fill="#fefefe" d="
  M 15.04 16.23
  Q 14.06 13.49 13.23 12.31
  A 1.25 1.25 0.0 0 0 11.13 12.40
  L 8.80 16.43
  A 0.91 0.91 0.0 0 1 7.56 16.77
  L 7.30 16.61
  A 0.72 0.71 -64.9 0 1 6.99 15.73
  Q 8.53 11.80 9.86 10.70
  C 13.90 7.36 15.96 12.45 17.08 15.59
  Q 18.07 18.34 18.90 19.51
  A 1.25 1.25 0.0 0 0 21.00 19.42
  L 23.33 15.39
  A 0.91 0.91 0.0 0 1 24.57 15.05
  L 24.83 15.21
  A 0.72 0.71 -64.9 0 1 25.14 16.09
  Q 23.60 20.02 22.27 21.12
  C 18.23 24.46 16.17 19.38 15.04 16.23
  Z"
/>
</svg>
