<?xml version="1.0" encoding="UTF-8" standalone="no"?>
<!DOCTYPE svg PUBLIC "-//W3C//DTD SVG 1.1//EN" "http://www.w3.org/Graphics/SVG/1.1/DTD/svg11.dtd">
<svg xmlns="http://www.w3.org/2000/svg" version="1.1" viewBox="0.00 0.00 512.00 512.00">
<g stroke-width="2.00" fill="none" stroke-linecap="butt">
<path stroke="#191b25" vector-effect="non-scaling-stroke" d="
  M 352.08 201.03
  C 348.11 186.77 338.96 177.40 324.77 172.95
  C 310.49 168.46 295.14 167.41 279.21 166.85
  Q 254.45 165.98 231.97 166.86
  C 210.68 167.70 183.20 170.13 173.20 192.77
  C 167.48 205.73 166.16 220.68 165.82 234.60
  Q 165.13 262.89 166.99 289.28
  C 168.49 310.58 173.96 333.83 195.18 343.74
  C 204.86 348.26 215.45 349.99 226.83 350.96
  Q 264.24 354.15 301.40 350.66
  C 316.98 349.20 333.83 344.13 342.96 331.61
  C 351.27 320.22 353.71 304.72 354.71 290.69
  Q 357.02 258.39 355.94 227.46
  Q 355.45 213.11 352.08 201.03"
/>
<path stroke="#7f6245" vector-effect="non-scaling-stroke" d="
  M 393.0859 181.1055
  A 0.68 0.58 -47.9 0 0 392.1997 181.2212
  A 0.68 0.58 -47.9 0 0 392.1741 182.1145
  A 0.68 0.58 -47.9 0 0 393.0603 181.9988
  A 0.68 0.58 -47.9 0 0 393.0859 181.1055"
/>
<path stroke="#85847b" vector-effect="non-scaling-stroke" d="
  M 146.3813 310.5218
  A 1.41 1.18 -87.1 0 0 145.1315 311.8703
  A 1.41 1.18 -87.1 0 0 146.2387 313.3382
  A 1.41 1.18 -87.1 0 0 147.4885 311.9897
  A 1.41 1.18 -87.1 0 0 146.3813 310.5218"
/>
<path stroke="#886744" vector-effect="non-scaling-stroke" d="
  M 183.42 328.72
  Q 189.18 336.23 197.50 336.25
  Q 215.04 336.29 322.77 336.23
  Q 331.12 336.22 336.87 330.38
  Q 342.11 325.05 342.06 317.50
  Q 342.00 308.52 342.14 299.54"
/>
<path stroke="#2e2826" vector-effect="non-scaling-stroke" d="
  M 342.14 299.54
  L 342.32 203.07
  A 2.41 2.17 56.0 0 1 342.38 202.64
  Q 342.85 200.89 342.42 198.30
  Q 342.14 196.66 342.74 193.80
  A 0.20 0.19 -64.3 0 1 343.05 193.69
  L 343.41 193.98
  A 0.24 0.24 0.0 0 0 343.79 193.74
  L 342.31 187.65
  A 1.90 1.89 -79.5 0 0 341.55 186.54
  Q 337.53 183.69 332.60 182.11
  A 2.95 2.79 -34.5 0 0 331.71 181.97
  Q 329.92 181.98 329.61 181.82
  C 324.07 178.94 315.16 178.92 309.20 178.54
  Q 273.93 176.27 246.75 175.63
  Q 229.17 175.22 213.45 176.12
  Q 197.93 177.01 184.44 181.06
  A 1.51 1.51 0.0 0 0 183.70 181.57
  L 178.65 187.91
  A 1.61 1.60 -19.7 0 0 178.34 188.56
  Q 174.15 207.97 174.03 221.81
  Q 173.73 255.03 176.23 292.14
  Q 177.38 309.25 180.07 325.62
  A 1.31 1.28 -75.8 0 0 180.54 326.43
  L 183.42 328.72"
/>
<path stroke="#946f46" vector-effect="non-scaling-stroke" d="
  M 342.14 299.54
  L 341.86 285.03"
/>
<path stroke="#977c53" vector-effect="non-scaling-stroke" d="
  M 341.86 285.03
  L 341.94 254.42"
/>
<path stroke="#9a896a" vector-effect="non-scaling-stroke" d="
  M 341.94 254.42
  Q 342.04 225.71 342.08 196.90
  Q 342.09 190.54 340.83 188.37
  Q 338.32 184.00 332.85 182.57
  A 4.11 3.87 -35.4 0 0 331.76 182.42
  L 313.96 182.31"
/>
<path stroke="#9a917c" vector-effect="non-scaling-stroke" d="
  M 313.96 182.31
  Q 253.23 182.40 192.50 182.41
  Q 186.94 182.41 183.11 186.36
  Q 180.31 189.25 180.29 194.50
  Q 180.22 215.90 180.31 237.28"
/>
<path stroke="#9a896a" vector-effect="non-scaling-stroke" d="
  M 180.31 237.28
  L 180.44 300.45"
/>
<path stroke="#946f46" vector-effect="non-scaling-stroke" d="
  M 180.44 300.45
  Q 179.95 314.89 180.28 320.00
  Q 180.55 324.42 183.42 328.72"
/>
<path stroke="#f6d696" vector-effect="non-scaling-stroke" d="
  M 341.94 254.42
  Q 341.48 259.53 339.14 263.44
  A 0.14 0.14 0.0 0 1 338.88 263.38
  L 338.55 256.03"
/>
<path stroke="#9a896a" vector-effect="non-scaling-stroke" d="
  M 338.55 256.03
  Q 338.33 225.49 338.51 194.89
  Q 338.53 191.34 337.85 190.21
  C 335.44 186.20 332.59 185.93 327.40 185.93
  Q 313.33 185.91 299.25 185.85"
/>
<path stroke="#f9ebbe" vector-effect="non-scaling-stroke" d="
  M 313.96 182.31
  L 315.75 182.58
  A 0.66 0.65 36.5 0 1 315.94 183.82
  C 312.86 185.27 310.79 185.76 306.92 185.68
  Q 303.07 185.59 299.25 185.85"
/>
<path stroke="#9a917c" vector-effect="non-scaling-stroke" d="
  M 299.25 185.85
  Q 246.33 185.76 193.41 185.91
  C 189.15 185.93 187.28 186.61 184.79 189.41
  Q 183.64 190.70 183.68 196.35
  Q 183.89 221.40 183.72 246.48"
/>
<path stroke="#f9ebbe" vector-effect="non-scaling-stroke" d="
  M 183.72 246.48
  Q 182.16 246.84 181.22 245.69
  Q 180.57 244.89 180.55 243.10
  Q 180.53 240.18 180.31 237.28"
/>
<path stroke="#f4c888" vector-effect="non-scaling-stroke" d="
  M 183.58 300.46
  Q 182.19 300.99 180.44 300.45"
/>
<path stroke="#f1bc72" vector-effect="non-scaling-stroke" d="
  M 341.86 285.03
  Q 342.07 288.54 338.68 288.35"
/>
<path stroke="#977c53" vector-effect="non-scaling-stroke" d="
  M 338.55 256.03
  L 338.68 288.35"
/>
<path stroke="#946f46" vector-effect="non-scaling-stroke" d="
  M 338.68 288.35
  L 338.40 319.53
  A 0.91 0.91 0.0 0 1 337.49 320.44
  L 334.42 320.44
  A 1.02 1.02 0.0 0 1 333.40 319.42
  L 333.38 287.76"
/>
<path stroke="#977c53" vector-effect="non-scaling-stroke" d="
  M 333.38 287.76
  L 333.38 267.73"
/>
<path stroke="#9a896a" vector-effect="non-scaling-stroke" d="
  M 333.38 267.73
  L 333.43 192.68
  A 1.21 1.20 0.2 0 0 332.22 191.47
  L 300.96 191.51"
/>
<path stroke="#9a917c" vector-effect="non-scaling-stroke" d="
  M 300.96 191.51
  L 191.23 191.36
  A 1.57 1.57 0.0 0 0 189.66 192.92
  L 189.39 220.49"
/>
<path stroke="#9a896a" vector-effect="non-scaling-stroke" d="
  M 189.39 220.49
  L 189.55 256.03"
/>
<path stroke="#977c53" vector-effect="non-scaling-stroke" d="
  M 189.55 256.03
  L 189.67 293.53"
/>
<path stroke="#946f46" vector-effect="non-scaling-stroke" d="
  M 189.67 293.53
  L 189.86 314.05
  A 1.15 1.15 0.0 0 0 191.01 315.19
  L 320.43 315.19
  A 1.70 1.69 -89.8 0 0 322.12 313.50
  L 322.20 296.02"
/>
<path stroke="#2e2826" vector-effect="non-scaling-stroke" d="
  M 322.20 296.02
  Q 323.77 292.74 325.08 289.56
  Q 325.96 287.42 327.71 285.92
  A 0.25 0.25 0.0 0 1 328.12 286.09
  Q 328.37 290.66 330.02 294.87"
/>
<path stroke="#946f46" vector-effect="non-scaling-stroke" d="
  M 330.02 294.87
  L 330.27 319.35
  A 0.75 0.75 0.0 0 1 329.52 320.11
  L 184.83 320.11
  A 1.22 1.22 0.0 0 1 183.61 318.89
  L 183.58 300.46"
/>
<path stroke="#9a896a" vector-effect="non-scaling-stroke" d="
  M 183.58 300.46
  L 183.72 246.48"
/>
<path stroke="#8b7552" vector-effect="non-scaling-stroke" d="
  M 329.99 264.79
  L 330.15 288.96"
/>
<path stroke="#886744" vector-effect="non-scaling-stroke" d="
  M 330.15 288.96
  L 330.02 294.87"
/>
<path stroke="#886744" vector-effect="non-scaling-stroke" d="
  M 322.20 296.02
  L 322.02 287.95"
/>
<path stroke="#f1bc72" vector-effect="non-scaling-stroke" d="
  M 333.38 287.76
  Q 331.91 288.86 330.15 288.96"
/>
<path stroke="#f6d696" vector-effect="non-scaling-stroke" d="
  M 333.38 267.73
  Q 333.24 267.47 333.06 267.30
  A 0.47 0.46 32.6 0 0 332.31 267.46
  Q 332.11 267.98 331.61 268.10
  A 0.62 0.62 0.0 0 1 330.87 267.68
  L 329.99 264.79"
/>
<path stroke="#8e8168" vector-effect="non-scaling-stroke" d="
  M 329.99 264.79
  L 329.99 257.46"
/>
<path stroke="#9a896a" vector-effect="non-scaling-stroke" d="
  M 329.99 257.46
  L 329.99 195.53
  A 0.76 0.75 0.0 0 0 329.23 194.78
  L 301.78 194.71"
/>
<path stroke="#f1bc72" vector-effect="non-scaling-stroke" d="
  M 192.77 292.79
  Q 192.30 294.32 191.27 295.47
  A 0.83 0.83 0.0 0 1 189.82 295.01
  L 189.67 293.53"
/>
<path stroke="#f9ebbe" vector-effect="non-scaling-stroke" d="
  M 300.96 191.51
  L 317.61 191.82
  A 0.40 0.40 0.0 0 1 317.75 192.59
  C 314.38 193.90 311.76 194.42 307.67 194.38
  Q 304.70 194.36 301.78 194.71"
/>
<path stroke="#9a917c" vector-effect="non-scaling-stroke" d="
  M 301.78 194.71
  L 193.68 194.86
  A 0.81 0.81 0.0 0 0 192.87 195.67
  L 193.02 218.44"
/>
<path stroke="#f9ebbe" vector-effect="non-scaling-stroke" d="
  M 193.02 218.44
  L 190.70 223.95
  A 0.25 0.25 0.0 0 1 190.23 223.91
  L 189.39 220.49"
/>
<path stroke="#f6d696" vector-effect="non-scaling-stroke" d="
  M 192.81 269.96
  Q 192.52 268.54 192.29 267.09
  A 0.03 0.02 57.1 0 0 192.24 267.07
  Q 192.22 267.11 192.20 267.13
  A 0.34 0.14 83.7 0 0 192.13 267.38
  L 192.13 268.67
  A 0.81 0.80 70.4 0 1 191.84 269.29
  Q 191.36 269.68 190.86 269.45
  A 0.16 0.16 0.0 0 0 190.63 269.60
  Q 190.62 270.06 190.62 270.13
  C 190.61 269.22 190.22 268.24 190.18 267.23
  Q 189.96 261.64 189.55 256.03"
/>
<path stroke="#8e8168" vector-effect="non-scaling-stroke" d="
  M 322.21 239.31
  L 322.02 287.95"
/>
<path stroke="#f4c888" vector-effect="non-scaling-stroke" d="
  M 322.02 287.95
  Q 321.61 288.10 321.58 288.69
  A 0.75 0.75 0.0 0 1 321.07 289.36
  L 319.21 289.95"
/>
<path stroke="#f6d696" vector-effect="non-scaling-stroke" d="
  M 205.93 250.54
  L 205.60 264.63
  A 0.30 0.29 -70.4 0 1 205.13 264.86
  C 202.21 262.64 202.86 254.28 202.81 250.37
  C 202.79 259.57 202.74 268.76 202.62 277.96"
/>
<path stroke="#2e2826" vector-effect="non-scaling-stroke" d="
  M 329.99 257.46
  L 329.82 232.66
  A 0.19 0.19 0.0 0 0 329.45 232.60
  L 325.44 243.57
  A 0.18 0.18 0.0 0 1 325.09 243.54
  L 323.88 236.59
  A 0.44 0.44 0.0 0 0 323.08 236.43
  Q 322.50 237.33 322.21 239.31"
/>
<path stroke="#9a896a" vector-effect="non-scaling-stroke" d="
  M 322.21 239.31
  Q 322.14 224.63 322.28 210.00
  Q 322.30 207.93 321.84 206.43
  A 1.28 1.28 0.0 0 0 320.62 205.53
  L 204.09 205.53
  A 1.60 1.60 0.0 0 0 202.49 207.13
  L 202.62 277.96"
/>
<path stroke="#977c53" vector-effect="non-scaling-stroke" d="
  M 202.62 277.96
  L 202.76 299.70
  A 1.02 1.02 0.0 0 0 203.78 300.72
  L 308.02 300.72
  A 1.60 1.60 0.0 0 0 309.62 299.12
  L 309.71 260.45"
/>
<path stroke="#9a896a" vector-effect="non-scaling-stroke" d="
  M 309.71 260.45
  L 309.76 220.50
  A 1.21 1.21 0.0 0 0 308.55 219.29
  L 217.11 219.29
  A 1.13 1.13 0.0 0 0 215.98 220.42
  L 216.02 245.76"
/>
<path stroke="#977c53" vector-effect="non-scaling-stroke" d="
  M 216.02 245.76
  L 216.23 285.24
  A 0.58 0.57 89.5 0 0 216.80 285.81
  L 294.89 285.81
  A 1.58 1.57 0.0 0 0 296.47 284.24
  L 296.69 232.31"
/>
<path stroke="#9a896a" vector-effect="non-scaling-stroke" d="
  M 296.69 232.31
  Q 294.40 231.88 293.97 232.53"
/>
<path stroke="#977c53" vector-effect="non-scaling-stroke" d="
  M 293.97 232.53
  Q 293.95 232.76 293.72 232.97"
/>
<path stroke="#2e2826" vector-effect="non-scaling-stroke" d="
  M 293.72 232.97
  Q 294.13 232.19 294.73 231.67
  A 0.32 0.31 34.9 0 0 294.63 231.14
  Q 285.03 227.52 273.41 227.47
  C 259.34 227.42 244.78 227.18 234.44 233.18
  Q 222.48 240.12 220.98 254.74
  Q 220.10 263.25 219.21 271.82"
/>
<path stroke="#977c53" vector-effect="non-scaling-stroke" d="
  M 219.21 271.82
  L 219.07 246.78"
/>
<path stroke="#9a896a" vector-effect="non-scaling-stroke" d="
  M 219.07 246.78
  L 219.08 223.12
  A 0.72 0.72 0.0 0 1 219.80 222.40
  L 305.78 222.40
  A 0.73 0.73 0.0 0 1 306.51 223.13
  L 306.57 229.54"
/>
<path stroke="#977c53" vector-effect="non-scaling-stroke" d="
  M 306.57 229.54
  L 306.85 296.80
  A 1.04 1.04 0.0 0 1 305.81 297.84
  L 206.66 297.84
  A 0.96 0.96 0.0 0 1 205.70 296.88
  L 205.93 250.54"
/>
<path stroke="#9a896a" vector-effect="non-scaling-stroke" d="
  M 205.93 250.54
  L 206.01 209.36
  A 0.58 0.58 0.0 0 1 206.59 208.78
  L 317.71 208.78
  A 1.13 1.12 0.0 0 1 318.84 209.90
  L 319.21 289.95"
/>
<path stroke="#946f46" vector-effect="non-scaling-stroke" d="
  M 319.21 289.95
  L 319.16 311.07
  A 1.02 1.02 0.0 0 1 318.14 312.09
  L 193.32 312.09
  A 0.51 0.51 0.0 0 1 192.81 311.58
  L 192.77 292.79"
/>
<path stroke="#977c53" vector-effect="non-scaling-stroke" d="
  M 192.77 292.79
  L 192.81 269.96"
/>
<path stroke="#9a896a" vector-effect="non-scaling-stroke" d="
  M 192.81 269.96
  L 193.02 218.44"
/>
<path stroke="#f6d696" vector-effect="non-scaling-stroke" d="
  M 309.71 260.45
  L 309.18 263.10
  A 0.27 0.27 0.0 0 1 308.66 263.15
  Q 308.48 262.70 307.98 262.66
  A 0.75 0.74 1.3 0 1 307.29 261.94
  L 306.57 229.54"
/>
<path stroke="#f6d696" vector-effect="non-scaling-stroke" d="
  M 219.07 246.78
  Q 217.42 247.19 216.02 245.76"
/>
<path stroke="#f6d696" vector-effect="non-scaling-stroke" d="
  M 296.69 232.31
  L 296.36 245.32
  A 1.01 1.01 0.0 0 1 295.47 246.29
  Q 294.28 246.43 294.26 245.79
  Q 294.08 239.20 293.97 232.53"
/>
<path stroke="#8b7552" vector-effect="non-scaling-stroke" d="
  M 293.72 232.97
  L 293.80 282.05
  A 0.82 0.82 0.0 0 1 292.98 282.87
  L 219.81 282.87
  A 0.75 0.74 -89.6 0 1 219.07 282.11
  L 219.21 271.82"
/>
<path stroke="#191b25" vector-effect="non-scaling-stroke" d="
  M 274.85 263.58
  C 283.98 254.77 281.43 241.22 268.51 237.85
  Q 257.78 235.06 248.00 239.23
  C 244.12 240.88 240.08 244.19 238.68 247.86
  C 233.98 260.13 245.92 268.81 257.04 269.52
  Q 267.96 270.22 274.85 263.58"
/>
<path stroke="#946f46" vector-effect="non-scaling-stroke" d="
  M 260.95 323.37
  C 222.79 323.39 199.18 323.87 184.91 323.13
  A 0.55 0.55 0.0 0 0 184.39 323.92
  Q 188.91 333.14 199.25 333.13
  Q 231.16 333.09 260.96 333.07
  Q 290.76 333.05 322.67 333.06
  Q 333.01 333.06 337.52 323.83
  A 0.55 0.55 0.0 0 0 336.99 323.05
  C 322.73 323.80 299.11 323.35 260.95 323.37"
/>
</g>
<path fill="#101525" d="
  M 512.00 0.00
  L 512.00 512.00
  L 0.00 512.00
  L 0.00 0.00
  L 512.00 0.00
  Z
  M 352.08 201.03
  C 348.11 186.77 338.96 177.40 324.77 172.95
  C 310.49 168.46 295.14 167.41 279.21 166.85
  Q 254.45 165.98 231.97 166.86
  C 210.68 167.70 183.20 170.13 173.20 192.77
  C 167.48 205.73 166.16 220.68 165.82 234.60
  Q 165.13 262.89 166.99 289.28
  C 168.49 310.58 173.96 333.83 195.18 343.74
  C 204.86 348.26 215.45 349.99 226.83 350.96
  Q 264.24 354.15 301.40 350.66
  C 316.98 349.20 333.83 344.13 342.96 331.61
  C 351.27 320.22 353.71 304.72 354.71 290.69
  Q 357.02 258.39 355.94 227.46
  Q 355.45 213.11 352.08 201.03
  Z
  M 393.0859 181.1055
  A 0.68 0.58 -47.9 0 0 392.1997 181.2212
  A 0.68 0.58 -47.9 0 0 392.1741 182.1145
  A 0.68 0.58 -47.9 0 0 393.0603 181.9988
  A 0.68 0.58 -47.9 0 0 393.0859 181.1055
  Z
  M 146.3813 310.5218
  A 1.41 1.18 -87.1 0 0 145.1315 311.8703
  A 1.41 1.18 -87.1 0 0 146.2387 313.3382
  A 1.41 1.18 -87.1 0 0 147.4885 311.9897
  A 1.41 1.18 -87.1 0 0 146.3813 310.5218
  Z"
/>
<path fill="#222024" d="
  M 324.77 172.95
  C 338.96 177.40 348.11 186.77 352.08 201.03
  Q 355.45 213.11 355.94 227.46
  Q 357.02 258.39 354.71 290.69
  C 353.71 304.72 351.27 320.22 342.96 331.61
  C 333.83 344.13 316.98 349.20 301.40 350.66
  Q 264.24 354.15 226.83 350.96
  C 215.45 349.99 204.86 348.26 195.18 343.74
  C 173.96 333.83 168.49 310.58 166.99 289.28
  Q 165.13 262.89 165.82 234.60
  C 166.16 220.68 167.48 205.73 173.20 192.77
  C 183.20 170.13 210.68 167.70 231.97 166.86
  Q 254.45 165.98 279.21 166.85
  C 295.14 167.41 310.49 168.46 324.77 172.95
  Z
  M 183.42 328.72
  Q 189.18 336.23 197.50 336.25
  Q 215.04 336.29 322.77 336.23
  Q 331.12 336.22 336.87 330.38
  Q 342.11 325.05 342.06 317.50
  Q 342.00 308.52 342.14 299.54
  L 342.32 203.07
  A 2.41 2.17 56.0 0 1 342.38 202.64
  Q 342.85 200.89 342.42 198.30
  Q 342.14 196.66 342.74 193.80
  A 0.20 0.19 -64.3 0 1 343.05 193.69
  L 343.41 193.98
  A 0.24 0.24 0.0 0 0 343.79 193.74
  L 342.31 187.65
  A 1.90 1.89 -79.5 0 0 341.55 186.54
  Q 337.53 183.69 332.60 182.11
  A 2.95 2.79 -34.5 0 0 331.71 181.97
  Q 329.92 181.98 329.61 181.82
  C 324.07 178.94 315.16 178.92 309.20 178.54
  Q 273.93 176.27 246.75 175.63
  Q 229.17 175.22 213.45 176.12
  Q 197.93 177.01 184.44 181.06
  A 1.51 1.51 0.0 0 0 183.70 181.57
  L 178.65 187.91
  A 1.61 1.60 -19.7 0 0 178.34 188.56
  Q 174.15 207.97 174.03 221.81
  Q 173.73 255.03 176.23 292.14
  Q 177.38 309.25 180.07 325.62
  A 1.31 1.28 -75.8 0 0 180.54 326.43
  L 183.42 328.72
  Z"
/>
<path fill="#3a2f27" d="
  M 342.14 299.54
  L 341.86 285.03
  L 341.94 254.42
  Q 342.04 225.71 342.08 196.90
  Q 342.09 190.54 340.83 188.37
  Q 338.32 184.00 332.85 182.57
  A 4.11 3.87 -35.4 0 0 331.76 182.42
  L 313.96 182.31
  Q 253.23 182.40 192.50 182.41
  Q 186.94 182.41 183.11 186.36
  Q 180.31 189.25 180.29 194.50
  Q 180.22 215.90 180.31 237.28
  L 180.44 300.45
  Q 179.95 314.89 180.28 320.00
  Q 180.55 324.42 183.42 328.72
  L 180.54 326.43
  A 1.31 1.28 -75.8 0 1 180.07 325.62
  Q 177.38 309.25 176.23 292.14
  Q 173.73 255.03 174.03 221.81
  Q 174.15 207.97 178.34 188.56
  A 1.61 1.60 -19.7 0 1 178.65 187.91
  L 183.70 181.57
  A 1.51 1.51 0.0 0 1 184.44 181.06
  Q 197.93 177.01 213.45 176.12
  Q 229.17 175.22 246.75 175.63
  Q 273.93 176.27 309.20 178.54
  C 315.16 178.92 324.07 178.94 329.61 181.82
  Q 329.92 181.98 331.71 181.97
  A 2.95 2.79 -34.5 0 1 332.60 182.11
  Q 337.53 183.69 341.55 186.54
  A 1.90 1.89 -79.5 0 1 342.31 187.65
  L 343.79 193.74
  A 0.24 0.24 0.0 0 1 343.41 193.98
  L 343.05 193.69
  A 0.20 0.19 -64.3 0 0 342.74 193.80
  Q 342.14 196.66 342.42 198.30
  Q 342.85 200.89 342.38 202.64
  A 2.41 2.17 56.0 0 0 342.32 203.07
  L 342.14 299.54
  Z"
/>
<ellipse fill="#eeae64" cx="0.00" cy="0.00" transform="translate(392.63,181.61) rotate(-47.9)" rx="0.68" ry="0.58"/>
<path fill="#f9f3d0" d="
  M 313.96 182.31
  L 315.75 182.58
  A 0.66 0.65 36.5 0 1 315.94 183.82
  C 312.86 185.27 310.79 185.76 306.92 185.68
  Q 303.07 185.59 299.25 185.85
  Q 246.33 185.76 193.41 185.91
  C 189.15 185.93 187.28 186.61 184.79 189.41
  Q 183.64 190.70 183.68 196.35
  Q 183.89 221.40 183.72 246.48
  Q 182.16 246.84 181.22 245.69
  Q 180.57 244.89 180.55 243.10
  Q 180.53 240.18 180.31 237.28
  Q 180.22 215.90 180.29 194.50
  Q 180.31 189.25 183.11 186.36
  Q 186.94 182.41 192.50 182.41
  Q 253.23 182.40 313.96 182.31
  Z"
/>
<path fill="#f9e2ac" d="
  M 341.94 254.42
  Q 341.48 259.53 339.14 263.44
  A 0.14 0.14 0.0 0 1 338.88 263.38
  L 338.55 256.03
  Q 338.33 225.49 338.51 194.89
  Q 338.53 191.34 337.85 190.21
  C 335.44 186.20 332.59 185.93 327.40 185.93
  Q 313.33 185.91 299.25 185.85
  Q 303.07 185.59 306.92 185.68
  C 310.79 185.76 312.86 185.27 315.94 183.82
  A 0.66 0.65 36.5 0 0 315.75 182.58
  L 313.96 182.31
  L 331.76 182.42
  A 4.11 3.87 -35.4 0 1 332.85 182.57
  Q 338.32 184.00 340.83 188.37
  Q 342.09 190.54 342.08 196.90
  Q 342.04 225.71 341.94 254.42
  Z"
/>
<path fill="#3a2f27" d="
  M 299.25 185.85
  Q 313.33 185.91 327.40 185.93
  C 332.59 185.93 335.44 186.20 337.85 190.21
  Q 338.53 191.34 338.51 194.89
  Q 338.33 225.49 338.55 256.03
  L 338.68 288.35
  L 338.40 319.53
  A 0.91 0.91 0.0 0 1 337.49 320.44
  L 334.42 320.44
  A 1.02 1.02 0.0 0 1 333.40 319.42
  L 333.38 287.76
  L 333.38 267.73
  L 333.43 192.68
  A 1.21 1.20 0.2 0 0 332.22 191.47
  L 300.96 191.51
  L 191.23 191.36
  A 1.57 1.57 0.0 0 0 189.66 192.92
  L 189.39 220.49
  L 189.55 256.03
  L 189.67 293.53
  L 189.86 314.05
  A 1.15 1.15 0.0 0 0 191.01 315.19
  L 320.43 315.19
  A 1.70 1.69 -89.8 0 0 322.12 313.50
  L 322.20 296.02
  Q 323.77 292.74 325.08 289.56
  Q 325.96 287.42 327.71 285.92
  A 0.25 0.25 0.0 0 1 328.12 286.09
  Q 328.37 290.66 330.02 294.87
  L 330.27 319.35
  A 0.75 0.75 0.0 0 1 329.52 320.11
  L 184.83 320.11
  A 1.22 1.22 0.0 0 1 183.61 318.89
  L 183.58 300.46
  L 183.72 246.48
  Q 183.89 221.40 183.68 196.35
  Q 183.64 190.70 184.79 189.41
  C 187.28 186.61 189.15 185.93 193.41 185.91
  Q 246.33 185.76 299.25 185.85
  Z"
/>
<path fill="#f9f3d0" d="
  M 300.96 191.51
  L 317.61 191.82
  A 0.40 0.40 0.0 0 1 317.75 192.59
  C 314.38 193.90 311.76 194.42 307.67 194.38
  Q 304.70 194.36 301.78 194.71
  L 193.68 194.86
  A 0.81 0.81 0.0 0 0 192.87 195.67
  L 193.02 218.44
  L 190.70 223.95
  A 0.25 0.25 0.0 0 1 190.23 223.91
  L 189.39 220.49
  L 189.66 192.92
  A 1.57 1.57 0.0 0 1 191.23 191.36
  L 300.96 191.51
  Z"
/>
<path fill="#f9e2ac" d="
  M 333.38 267.73
  Q 333.24 267.47 333.06 267.30
  A 0.47 0.46 32.6 0 0 332.31 267.46
  Q 332.11 267.98 331.61 268.10
  A 0.62 0.62 0.0 0 1 330.87 267.68
  L 329.99 264.79
  L 329.99 257.46
  L 329.99 195.53
  A 0.76 0.75 0.0 0 0 329.23 194.78
  L 301.78 194.71
  Q 304.70 194.36 307.67 194.38
  C 311.76 194.42 314.38 193.90 317.75 192.59
  A 0.40 0.40 0.0 0 0 317.61 191.82
  L 300.96 191.51
  L 332.22 191.47
  A 1.21 1.20 0.2 0 1 333.43 192.68
  L 333.38 267.73
  Z"
/>
<path fill="#3a2f27" d="
  M 301.78 194.71
  L 329.23 194.78
  A 0.76 0.75 0.0 0 1 329.99 195.53
  L 329.99 257.46
  L 329.82 232.66
  A 0.19 0.19 0.0 0 0 329.45 232.60
  L 325.44 243.57
  A 0.18 0.18 0.0 0 1 325.09 243.54
  L 323.88 236.59
  A 0.44 0.44 0.0 0 0 323.08 236.43
  Q 322.50 237.33 322.21 239.31
  Q 322.14 224.63 322.28 210.00
  Q 322.30 207.93 321.84 206.43
  A 1.28 1.28 0.0 0 0 320.62 205.53
  L 204.09 205.53
  A 1.60 1.60 0.0 0 0 202.49 207.13
  L 202.62 277.96
  L 202.76 299.70
  A 1.02 1.02 0.0 0 0 203.78 300.72
  L 308.02 300.72
  A 1.60 1.60 0.0 0 0 309.62 299.12
  L 309.71 260.45
  L 309.76 220.50
  A 1.21 1.21 0.0 0 0 308.55 219.29
  L 217.11 219.29
  A 1.13 1.13 0.0 0 0 215.98 220.42
  L 216.02 245.76
  L 216.23 285.24
  A 0.58 0.57 89.5 0 0 216.80 285.81
  L 294.89 285.81
  A 1.58 1.57 0.0 0 0 296.47 284.24
  L 296.69 232.31
  Q 294.40 231.88 293.97 232.53
  Q 293.95 232.76 293.72 232.97
  Q 294.13 232.19 294.73 231.67
  A 0.32 0.31 34.9 0 0 294.63 231.14
  Q 285.03 227.52 273.41 227.47
  C 259.34 227.42 244.78 227.18 234.44 233.18
  Q 222.48 240.12 220.98 254.74
  Q 220.10 263.25 219.21 271.82
  L 219.07 246.78
  L 219.08 223.12
  A 0.72 0.72 0.0 0 1 219.80 222.40
  L 305.78 222.40
  A 0.73 0.73 0.0 0 1 306.51 223.13
  L 306.57 229.54
  L 306.85 296.80
  A 1.04 1.04 0.0 0 1 305.81 297.84
  L 206.66 297.84
  A 0.96 0.96 0.0 0 1 205.70 296.88
  L 205.93 250.54
  L 206.01 209.36
  A 0.58 0.58 0.0 0 1 206.59 208.78
  L 317.71 208.78
  A 1.13 1.12 0.0 0 1 318.84 209.90
  L 319.21 289.95
  L 319.16 311.07
  A 1.02 1.02 0.0 0 1 318.14 312.09
  L 193.32 312.09
  A 0.51 0.51 0.0 0 1 192.81 311.58
  L 192.77 292.79
  L 192.81 269.96
  L 193.02 218.44
  L 192.87 195.67
  A 0.81 0.81 0.0 0 1 193.68 194.86
  L 301.78 194.71
  Z"
/>
<path fill="#f9e2ac" d="
  M 322.21 239.31
  L 322.02 287.95
  Q 321.61 288.10 321.58 288.69
  A 0.75 0.75 0.0 0 1 321.07 289.36
  L 319.21 289.95
  L 318.84 209.90
  A 1.13 1.12 0.0 0 0 317.71 208.78
  L 206.59 208.78
  A 0.58 0.58 0.0 0 0 206.01 209.36
  L 205.93 250.54
  L 205.60 264.63
  A 0.30 0.29 -70.4 0 1 205.13 264.86
  C 202.21 262.64 202.86 254.28 202.81 250.37
  C 202.79 259.57 202.74 268.76 202.62 277.96
  L 202.49 207.13
  A 1.60 1.60 0.0 0 1 204.09 205.53
  L 320.62 205.53
  A 1.28 1.28 0.0 0 1 321.84 206.43
  Q 322.30 207.93 322.28 210.00
  Q 322.14 224.63 322.21 239.31
  Z"
/>
<path fill="#f9e2ac" d="
  M 193.02 218.44
  L 192.81 269.96
  Q 192.52 268.54 192.29 267.09
  A 0.03 0.02 57.1 0 0 192.24 267.07
  Q 192.22 267.11 192.20 267.13
  A 0.34 0.14 83.7 0 0 192.13 267.38
  L 192.13 268.67
  A 0.81 0.80 70.4 0 1 191.84 269.29
  Q 191.36 269.68 190.86 269.45
  A 0.16 0.16 0.0 0 0 190.63 269.60
  Q 190.62 270.06 190.62 270.13
  C 190.61 269.22 190.22 268.24 190.18 267.23
  Q 189.96 261.64 189.55 256.03
  L 189.39 220.49
  L 190.23 223.91
  A 0.25 0.25 0.0 0 0 190.70 223.95
  L 193.02 218.44
  Z"
/>
<path fill="#f9e2ac" d="
  M 309.71 260.45
  L 309.18 263.10
  A 0.27 0.27 0.0 0 1 308.66 263.15
  Q 308.48 262.70 307.98 262.66
  A 0.75 0.74 1.3 0 1 307.29 261.94
  L 306.57 229.54
  L 306.51 223.13
  A 0.73 0.73 0.0 0 0 305.78 222.40
  L 219.80 222.40
  A 0.72 0.72 0.0 0 0 219.08 223.12
  L 219.07 246.78
  Q 217.42 247.19 216.02 245.76
  L 215.98 220.42
  A 1.13 1.13 0.0 0 1 217.11 219.29
  L 308.55 219.29
  A 1.21 1.21 0.0 0 1 309.76 220.50
  L 309.71 260.45
  Z"
/>
<path fill="#222024" d="
  M 293.72 232.97
  L 293.80 282.05
  A 0.82 0.82 0.0 0 1 292.98 282.87
  L 219.81 282.87
  A 0.75 0.74 -89.6 0 1 219.07 282.11
  L 219.21 271.82
  Q 220.10 263.25 220.98 254.74
  Q 222.48 240.12 234.44 233.18
  C 244.78 227.18 259.34 227.42 273.41 227.47
  Q 285.03 227.52 294.63 231.14
  A 0.32 0.31 34.9 0 1 294.73 231.67
  Q 294.13 232.19 293.72 232.97
  Z
  M 274.85 263.58
  C 283.98 254.77 281.43 241.22 268.51 237.85
  Q 257.78 235.06 248.00 239.23
  C 244.12 240.88 240.08 244.19 238.68 247.86
  C 233.98 260.13 245.92 268.81 257.04 269.52
  Q 267.96 270.22 274.85 263.58
  Z"
/>
<path fill="#f3c97f" d="
  M 309.71 260.45
  L 309.62 299.12
  A 1.60 1.60 0.0 0 1 308.02 300.72
  L 203.78 300.72
  A 1.02 1.02 0.0 0 1 202.76 299.70
  L 202.62 277.96
  C 202.74 268.76 202.79 259.57 202.81 250.37
  C 202.86 254.28 202.21 262.64 205.13 264.86
  A 0.30 0.29 -70.4 0 0 205.60 264.63
  L 205.93 250.54
  L 205.70 296.88
  A 0.96 0.96 0.0 0 0 206.66 297.84
  L 305.81 297.84
  A 1.04 1.04 0.0 0 0 306.85 296.80
  L 306.57 229.54
  L 307.29 261.94
  A 0.75 0.74 1.3 0 0 307.98 262.66
  Q 308.48 262.70 308.66 263.15
  A 0.27 0.27 0.0 0 0 309.18 263.10
  L 309.71 260.45
  Z"
/>
<path fill="#222024" d="
  M 329.99 257.46
  L 329.99 264.79
  L 330.15 288.96
  L 330.02 294.87
  Q 328.37 290.66 328.12 286.09
  A 0.25 0.25 0.0 0 0 327.71 285.92
  Q 325.96 287.42 325.08 289.56
  Q 323.77 292.74 322.20 296.02
  L 322.02 287.95
  L 322.21 239.31
  Q 322.50 237.33 323.08 236.43
  A 0.44 0.44 0.0 0 1 323.88 236.59
  L 325.09 243.54
  A 0.18 0.18 0.0 0 0 325.44 243.57
  L 329.45 232.60
  A 0.19 0.19 0.0 0 1 329.82 232.66
  L 329.99 257.46
  Z"
/>
<path fill="#f9e2ac" d="
  M 296.69 232.31
  L 296.36 245.32
  A 1.01 1.01 0.0 0 1 295.47 246.29
  Q 294.28 246.43 294.26 245.79
  Q 294.08 239.20 293.97 232.53
  Q 294.40 231.88 296.69 232.31
  Z"
/>
<path fill="#f3c97f" d="
  M 216.02 245.76
  Q 217.42 247.19 219.07 246.78
  L 219.21 271.82
  L 219.07 282.11
  A 0.75 0.74 -89.6 0 0 219.81 282.87
  L 292.98 282.87
  A 0.82 0.82 0.0 0 0 293.80 282.05
  L 293.72 232.97
  Q 293.95 232.76 293.97 232.53
  Q 294.08 239.20 294.26 245.79
  Q 294.28 246.43 295.47 246.29
  A 1.01 1.01 0.0 0 0 296.36 245.32
  L 296.69 232.31
  L 296.47 284.24
  A 1.58 1.57 -0.0 0 1 294.89 285.81
  L 216.80 285.81
  A 0.58 0.57 89.5 0 1 216.23 285.24
  L 216.02 245.76
  Z"
/>
<path fill="#101525" d="
  M 268.51 237.85
  C 281.43 241.22 283.98 254.77 274.85 263.58
  Q 267.96 270.22 257.04 269.52
  C 245.92 268.81 233.98 260.13 238.68 247.86
  C 240.08 244.19 244.12 240.88 248.00 239.23
  Q 257.78 235.06 268.51 237.85
  Z"
/>
<path fill="#f9e2ac" d="
  M 183.72 246.48
  L 183.58 300.46
  Q 182.19 300.99 180.44 300.45
  L 180.31 237.28
  Q 180.53 240.18 180.55 243.10
  Q 180.57 244.89 181.22 245.69
  Q 182.16 246.84 183.72 246.48
  Z"
/>
<path fill="#f3c97f" d="
  M 341.94 254.42
  L 341.86 285.03
  Q 342.07 288.54 338.68 288.35
  L 338.55 256.03
  L 338.88 263.38
  A 0.14 0.14 0.0 0 0 339.14 263.44
  Q 341.48 259.53 341.94 254.42
  Z"
/>
<path fill="#f3c97f" d="
  M 192.81 269.96
  L 192.77 292.79
  Q 192.30 294.32 191.27 295.47
  A 0.83 0.83 0.0 0 1 189.82 295.01
  L 189.67 293.53
  L 189.55 256.03
  Q 189.96 261.64 190.18 267.23
  C 190.22 268.24 190.61 269.22 190.62 270.13
  Q 190.62 270.06 190.63 269.60
  A 0.16 0.16 0.0 0 1 190.86 269.45
  Q 191.36 269.68 191.84 269.29
  A 0.81 0.80 70.4 0 0 192.13 268.67
  L 192.13 267.38
  A 0.34 0.14 83.7 0 1 192.20 267.13
  Q 192.22 267.11 192.24 267.07
  A 0.03 0.02 57.1 0 1 192.29 267.09
  Q 192.52 268.54 192.81 269.96
  Z"
/>
<path fill="#f3c97f" d="
  M 333.38 267.73
  L 333.38 287.76
  Q 331.91 288.86 330.15 288.96
  L 329.99 264.79
  L 330.87 267.68
  A 0.62 0.62 0.0 0 0 331.61 268.10
  Q 332.11 267.98 332.31 267.46
  A 0.47 0.46 32.6 0 1 333.06 267.30
  Q 333.24 267.47 333.38 267.73
  Z"
/>
<path fill="#eeae64" d="
  M 342.14 299.54
  Q 342.00 308.52 342.06 317.50
  Q 342.11 325.05 336.87 330.38
  Q 331.12 336.22 322.77 336.23
  Q 215.04 336.29 197.50 336.25
  Q 189.18 336.23 183.42 328.72
  Q 180.55 324.42 180.28 320.00
  Q 179.95 314.89 180.44 300.45
  Q 182.19 300.99 183.58 300.46
  L 183.61 318.89
  A 1.22 1.22 0.0 0 0 184.83 320.11
  L 329.52 320.11
  A 0.75 0.75 0.0 0 0 330.27 319.35
  L 330.02 294.87
  L 330.15 288.96
  Q 331.91 288.86 333.38 287.76
  L 333.40 319.42
  A 1.02 1.02 0.0 0 0 334.42 320.44
  L 337.49 320.44
  A 0.91 0.91 0.0 0 0 338.40 319.53
  L 338.68 288.35
  Q 342.07 288.54 341.86 285.03
  L 342.14 299.54
  Z
  M 260.95 323.37
  C 222.79 323.39 199.18 323.87 184.91 323.13
  A 0.55 0.55 0.0 0 0 184.39 323.92
  Q 188.91 333.14 199.25 333.13
  Q 231.16 333.09 260.96 333.07
  Q 290.76 333.05 322.67 333.06
  Q 333.01 333.06 337.52 323.83
  A 0.55 0.55 0.0 0 0 336.99 323.05
  C 322.73 323.80 299.11 323.35 260.95 323.37
  Z"
/>
<path fill="#eeae64" d="
  M 322.02 287.95
  L 322.20 296.02
  L 322.12 313.50
  A 1.70 1.69 -89.8 0 1 320.43 315.19
  L 191.01 315.19
  A 1.15 1.15 0.0 0 1 189.86 314.05
  L 189.67 293.53
  L 189.82 295.01
  A 0.83 0.83 0.0 0 0 191.27 295.47
  Q 192.30 294.32 192.77 292.79
  L 192.81 311.58
  A 0.51 0.51 0.0 0 0 193.32 312.09
  L 318.14 312.09
  A 1.02 1.02 0.0 0 0 319.16 311.07
  L 319.21 289.95
  L 321.07 289.36
  A 0.75 0.75 0.0 0 0 321.58 288.69
  Q 321.61 288.10 322.02 287.95
  Z"
/>
<ellipse fill="#f9f3d0" cx="0.00" cy="0.00" transform="translate(146.31,311.93) rotate(-87.1)" rx="1.41" ry="1.18"/>
<path fill="#3a2f27" d="
  M 260.96 333.07
  Q 231.16 333.09 199.25 333.13
  Q 188.91 333.14 184.39 323.92
  A 0.55 0.55 0.0 0 1 184.91 323.13
  C 199.18 323.87 222.79 323.39 260.95 323.37
  C 299.11 323.35 322.73 323.80 336.99 323.05
  A 0.55 0.55 0.0 0 1 337.52 323.83
  Q 333.01 333.06 322.67 333.06
  Q 290.76 333.05 260.96 333.07
  Z"
/>
</svg>
