<?xml version="1.0" encoding="UTF-8" standalone="no"?>
<!DOCTYPE svg PUBLIC "-//W3C//DTD SVG 1.1//EN" "http://www.w3.org/Graphics/SVG/1.1/DTD/svg11.dtd">
<svg xmlns="http://www.w3.org/2000/svg" version="1.1" viewBox="0.00 0.00 1200.00 1200.00">
<g stroke-width="2.00" fill="none" stroke-linecap="butt">
<path stroke="#808080" vector-effect="non-scaling-stroke" d="
  M 678.61 523.86
  Q 653.17 586.42 628.26 649.41
  Q 593.55 737.18 571.50 792.00
  Q 568.39 799.73 564.44 810.34
  Q 560.79 820.18 560.16 826.90
  C 555.86 873.22 593.52 911.24 639.56 908.34
  Q 667.85 906.55 687.64 885.94
  Q 694.63 878.67 697.25 872.24
  Q 731.79 787.49 814.88 578.63
  Q 814.92 578.53 814.96 578.42
  Q 840.40 515.86 865.31 452.88
  Q 900.02 365.10 922.07 310.28
  Q 925.18 302.55 929.13 291.94
  Q 932.78 282.10 933.41 275.38
  C 937.71 229.06 900.05 191.04 854.01 193.94
  Q 825.72 195.73 805.93 216.34
  Q 798.94 223.61 796.32 230.04
  Q 761.78 314.79 678.69 523.65
  Q 678.65 523.75 678.61 523.86"
/>
<path stroke="#808080" vector-effect="non-scaling-stroke" d="
  M 620.54 298.43
  C 599.42 280.20 568.52 276.62 542.94 286.40
  C 530.80 291.04 517.97 300.47 511.39 312.57
  Q 508.21 318.40 507.33 320.62
  Q 391.27 611.99 278.92 891.01
  Q 271.27 910.01 269.94 917.41
  C 260.40 970.29 310.07 1015.68 361.65 1003.15
  C 379.18 998.90 399.18 985.80 406.31 968.10
  Q 627.07 419.70 638.44 391.20
  C 641.73 382.94 646.82 370.75 647.19 360.15
  Q 648.51 322.57 620.54 298.43"
/>
<path stroke="#808080" vector-effect="non-scaling-stroke" d="
  M 160.14 564.80
  Q 153.31 580.90 142.09 609.36
  Q 137.84 620.13 101.31 710.52
  C 85.41 749.86 104.88 793.37 145.14 807.40
  Q 170.82 816.35 197.39 807.33
  C 210.29 802.95 225.04 793.40 231.28 781.01
  Q 235.82 772.01 240.15 761.12
  Q 266.32 695.41 296.12 621.87
  Q 296.15 621.79 296.18 621.71
  Q 303.02 605.62 314.24 577.16
  Q 318.49 566.39 355.02 476.00
  C 370.92 436.66 351.45 393.15 311.19 379.12
  Q 285.51 370.17 258.94 379.19
  C 246.04 383.57 231.29 393.12 225.05 405.51
  Q 220.51 414.51 216.18 425.40
  Q 190.01 491.11 160.21 564.65
  Q 160.18 564.73 160.14 564.80"
/>
<path stroke="#808080" vector-effect="non-scaling-stroke" d="
  M 847.47 750.81
  C 856.68 808.61 926.53 831.87 970.47 794.98
  Q 982.02 785.29 986.24 774.72
  Q 1071.89 560.23 1094.67 503.18
  Q 1099.97 489.92 1102.31 482.07
  Q 1105.80 470.32 1104.09 455.89
  C 1100.25 423.48 1074.82 396.25 1042.65 390.44
  C 1014.39 385.33 984.22 396.27 968.75 421.04
  Q 965.54 426.18 960.99 438.23
  Q 956.08 451.21 945.54 477.54
  Q 870.69 664.54 852.17 710.22
  Q 844.15 730.01 847.47 750.81"
/>
</g>
<path fill="#000000" d="
  M 1200.00 0.00
  L 1200.00 1200.00
  L 0.00 1200.00
  L 0.00 0.00
  L 1200.00 0.00
  Z
  M 678.61 523.86
  Q 653.17 586.42 628.26 649.41
  Q 593.55 737.18 571.50 792.00
  Q 568.39 799.73 564.44 810.34
  Q 560.79 820.18 560.16 826.90
  C 555.86 873.22 593.52 911.24 639.56 908.34
  Q 667.85 906.55 687.64 885.94
  Q 694.63 878.67 697.25 872.24
  Q 731.79 787.49 814.88 578.63
  Q 814.92 578.53 814.96 578.42
  Q 840.40 515.86 865.31 452.88
  Q 900.02 365.10 922.07 310.28
  Q 925.18 302.55 929.13 291.94
  Q 932.78 282.10 933.41 275.38
  C 937.71 229.06 900.05 191.04 854.01 193.94
  Q 825.72 195.73 805.93 216.34
  Q 798.94 223.61 796.32 230.04
  Q 761.78 314.79 678.69 523.65
  Q 678.65 523.75 678.61 523.86
  Z
  M 620.54 298.43
  C 599.42 280.20 568.52 276.62 542.94 286.40
  C 530.80 291.04 517.97 300.47 511.39 312.57
  Q 508.21 318.40 507.33 320.62
  Q 391.27 611.99 278.92 891.01
  Q 271.27 910.01 269.94 917.41
  C 260.40 970.29 310.07 1015.68 361.65 1003.15
  C 379.18 998.90 399.18 985.80 406.31 968.10
  Q 627.07 419.70 638.44 391.20
  C 641.73 382.94 646.82 370.75 647.19 360.15
  Q 648.51 322.57 620.54 298.43
  Z
  M 160.14 564.80
  Q 153.31 580.90 142.09 609.36
  Q 137.84 620.13 101.31 710.52
  C 85.41 749.86 104.88 793.37 145.14 807.40
  Q 170.82 816.35 197.39 807.33
  C 210.29 802.95 225.04 793.40 231.28 781.01
  Q 235.82 772.01 240.15 761.12
  Q 266.32 695.41 296.12 621.87
  Q 296.15 621.79 296.18 621.71
  Q 303.02 605.62 314.24 577.16
  Q 318.49 566.39 355.02 476.00
  C 370.92 436.66 351.45 393.15 311.19 379.12
  Q 285.51 370.17 258.94 379.19
  C 246.04 383.57 231.29 393.12 225.05 405.51
  Q 220.51 414.51 216.18 425.40
  Q 190.01 491.11 160.21 564.65
  Q 160.18 564.73 160.14 564.80
  Z
  M 847.47 750.81
  C 856.68 808.61 926.53 831.87 970.47 794.98
  Q 982.02 785.29 986.24 774.72
  Q 1071.89 560.23 1094.67 503.18
  Q 1099.97 489.92 1102.31 482.07
  Q 1105.80 470.32 1104.09 455.89
  C 1100.25 423.48 1074.82 396.25 1042.65 390.44
  C 1014.39 385.33 984.22 396.27 968.75 421.04
  Q 965.54 426.18 960.99 438.23
  Q 956.08 451.21 945.54 477.54
  Q 870.69 664.54 852.17 710.22
  Q 844.15 730.01 847.47 750.81
  Z"
/>
<path fill="#ffffff" d="
  M 678.61 523.86
  Q 678.65 523.75 678.69 523.65
  Q 761.78 314.79 796.32 230.04
  Q 798.94 223.61 805.93 216.34
  Q 825.72 195.73 854.01 193.94
  C 900.05 191.04 937.71 229.06 933.41 275.38
  Q 932.78 282.10 929.13 291.94
  Q 925.18 302.55 922.07 310.28
  Q 900.02 365.10 865.31 452.88
  Q 840.40 515.86 814.96 578.42
  Q 814.92 578.53 814.88 578.63
  Q 731.79 787.49 697.25 872.24
  Q 694.63 878.67 687.64 885.94
  Q 667.85 906.55 639.56 908.34
  C 593.52 911.24 555.86 873.22 560.16 826.90
  Q 560.79 820.18 564.44 810.34
  Q 568.39 799.73 571.50 792.00
  Q 593.55 737.18 628.26 649.41
  Q 653.17 586.42 678.61 523.86
  Z"
/>
<path fill="#ffffff" d="
  M 620.54 298.43
  Q 648.51 322.57 647.19 360.15
  C 646.82 370.75 641.73 382.94 638.44 391.20
  Q 627.07 419.70 406.31 968.10
  C 399.18 985.80 379.18 998.90 361.65 1003.15
  C 310.07 1015.68 260.40 970.29 269.94 917.41
  Q 271.27 910.01 278.92 891.01
  Q 391.27 611.99 507.33 320.62
  Q 508.21 318.40 511.39 312.57
  C 517.97 300.47 530.80 291.04 542.94 286.40
  C 568.52 276.62 599.42 280.20 620.54 298.43
  Z"
/>
<path fill="#ffffff" d="
  M 296.18 621.71
  Q 296.15 621.79 296.12 621.87
  Q 266.32 695.41 240.15 761.12
  Q 235.82 772.01 231.28 781.01
  C 225.04 793.40 210.29 802.95 197.39 807.33
  Q 170.82 816.35 145.14 807.40
  C 104.88 793.37 85.41 749.86 101.31 710.52
  Q 137.84 620.13 142.09 609.36
  Q 153.31 580.90 160.14 564.80
  Q 160.18 564.73 160.21 564.65
  Q 190.01 491.11 216.18 425.40
  Q 220.51 414.51 225.05 405.51
  C 231.29 393.12 246.04 383.57 258.94 379.19
  Q 285.51 370.17 311.19 379.12
  C 351.45 393.15 370.92 436.66 355.02 476.00
  Q 318.49 566.39 314.24 577.16
  Q 303.02 605.62 296.18 621.71
  Z"
/>
<path fill="#ffffff" d="
  M 970.47 794.98
  C 926.53 831.87 856.68 808.61 847.47 750.81
  Q 844.15 730.01 852.17 710.22
  Q 870.69 664.54 945.54 477.54
  Q 956.08 451.21 960.99 438.23
  Q 965.54 426.18 968.75 421.04
  C 984.22 396.27 1014.39 385.33 1042.65 390.44
  C 1074.82 396.25 1100.25 423.48 1104.09 455.89
  Q 1105.80 470.32 1102.31 482.07
  Q 1099.97 489.92 1094.67 503.18
  Q 1071.89 560.23 986.24 774.72
  Q 982.02 785.29 970.47 794.98
  Z"
/>
</svg>
