<?xml version="1.0" encoding="UTF-8" standalone="no"?>
<!DOCTYPE svg PUBLIC "-//W3C//DTD SVG 1.1//EN" "http://www.w3.org/Graphics/SVG/1.1/DTD/svg11.dtd">
<svg xmlns="http://www.w3.org/2000/svg" version="1.1" viewBox="0.00 0.00 192.00 192.00">
<g stroke-width="2.00" fill="none" stroke-linecap="butt">
<path stroke="#8eb3bc" vector-effect="non-scaling-stroke" d="
  M 37.77 37.84
  C 20.89 54.73 14.91 79.98 22.31 102.70
  C 29.35 124.27 47.56 140.69 69.69 145.21
  Q 93.93 150.17 116.10 137.41
  A 0.61 0.60 -29.9 0 1 116.93 137.63
  C 122.01 146.49 127.64 154.86 133.72 162.51
  C 138.73 168.81 143.72 172.55 151.48 172.74
  C 157.38 172.88 162.65 170.79 166.77 166.66
  C 170.89 162.54 172.98 157.27 172.82 151.37
  C 172.62 143.61 168.88 138.62 162.57 133.62
  C 154.91 127.55 146.53 121.93 137.67 116.87
  A 0.61 0.60 -60.2 0 1 137.45 116.04
  Q 150.18 93.85 145.18 69.61
  C 140.63 47.49 124.19 29.30 102.61 22.30
  C 79.88 14.92 54.64 20.94 37.77 37.84"
/>
<path stroke="#8eb3bc" vector-effect="non-scaling-stroke" d="
  M 141.51 82.89
  A 58.61 58.61 0.0 0 0 82.90 24.28
  A 58.61 58.61 0.0 0 0 24.29 82.89
  A 58.61 58.61 0.0 0 0 82.90 141.50
  A 58.61 58.61 0.0 0 0 141.51 82.89"
/>
<path stroke="#8eb3bc" vector-effect="non-scaling-stroke" d="
  M 50.02 120.26
  A 2.33 2.32 90.0 0 0 52.34 122.59
  Q 93.68 122.63 111.74 122.58
  Q 114.68 122.57 114.69 120.15
  Q 114.76 94.37 114.70 60.27
  A 2.08 2.04 -67.9 0 0 114.10 58.81
  L 99.05 43.76
  A 3.35 3.33 67.4 0 0 96.69 42.78
  Q 70.24 42.78 53.29 42.78
  C 51.23 42.78 50.03 43.37 50.03 45.54
  Q 50.02 102.11 50.02 120.26"
/>
<path stroke="#8eb3bc" vector-effect="non-scaling-stroke" d="
  M 94.01 47.75
  L 55.92 47.74
  A 0.60 0.60 0.0 0 0 55.32 48.34
  L 55.32 116.99
  A 0.56 0.56 0.0 0 0 55.88 117.55
  L 108.93 117.55
  A 0.59 0.59 0.0 0 0 109.52 116.96
  L 109.52 63.63
  A 0.69 0.68 89.2 0 0 108.82 62.94
  Q 99.65 63.14 96.84 62.89
  Q 94.43 62.67 94.42 60.76
  Q 94.35 48.62 94.44 48.32
  A 0.45 0.45 0.0 0 0 94.01 47.75"
/>
<path stroke="#8eb3bc" vector-effect="non-scaling-stroke" d="
  M 103.42 70.29
  A 2.48 2.48 0.0 0 0 100.94 67.81
  L 63.74 67.81
  A 2.48 2.48 0.0 0 0 61.26 70.29
  L 61.26 70.69
  A 2.48 2.48 0.0 0 0 63.74 73.17
  L 100.94 73.17
  A 2.48 2.48 0.0 0 0 103.42 70.69
  L 103.42 70.29"
/>
<path stroke="#8eb3bc" vector-effect="non-scaling-stroke" d="
  M 103.42 81.01
  A 2.21 2.21 0.0 0 0 101.21 78.80
  L 63.53 78.80
  A 2.21 2.21 0.0 0 0 61.32 81.01
  L 61.32 81.47
  A 2.21 2.21 0.0 0 0 63.53 83.68
  L 101.21 83.68
  A 2.21 2.21 0.0 0 0 103.42 81.47
  L 103.42 81.01"
/>
<path stroke="#8eb3bc" vector-effect="non-scaling-stroke" d="
  M 103.45 91.69
  A 2.37 2.37 0.0 0 0 101.08 89.32
  L 63.66 89.32
  A 2.37 2.37 0.0 0 0 61.29 91.69
  L 61.29 92.11
  A 2.37 2.37 0.0 0 0 63.66 94.48
  L 101.08 94.48
  A 2.37 2.37 0.0 0 0 103.45 92.11
  L 103.45 91.69"
/>
<path stroke="#8eb3bc" vector-effect="non-scaling-stroke" d="
  M 103.4304 102.5068
  A 2.31 2.31 0.0 0 0 101.1244 100.1928
  L 63.5844 100.1272
  A 2.31 2.31 0.0 0 0 61.2704 102.4332
  L 61.2696 102.8732
  A 2.31 2.31 0.0 0 0 63.5756 105.1872
  L 101.1156 105.2528
  A 2.31 2.31 0.0 0 0 103.4296 102.9468
  L 103.4304 102.5068"
/>
</g>
<path fill="#1d677a" d="
  M 169.39 0.00
  Q 174.43 0.66 176.78 1.64
  C 183.76 4.55 189.11 10.14 190.99 17.51
  Q 191.50 19.52 192.00 21.54
  L 192.00 170.23
  Q 190.88 175.50 190.34 176.82
  Q 184.60 190.77 168.75 192.00
  L 23.29 192.00
  Q 8.99 190.99 2.41 178.54
  Q 1.01 175.89 0.00 170.34
  L 0.00 21.66
  Q 3.39 2.52 22.48 0.00
  L 169.39 0.00
  Z
  M 37.77 37.84
  C 20.89 54.73 14.91 79.98 22.31 102.70
  C 29.35 124.27 47.56 140.69 69.69 145.21
  Q 93.93 150.17 116.10 137.41
  A 0.61 0.60 -29.9 0 1 116.93 137.63
  C 122.01 146.49 127.64 154.86 133.72 162.51
  C 138.73 168.81 143.72 172.55 151.48 172.74
  C 157.38 172.88 162.65 170.79 166.77 166.66
  C 170.89 162.54 172.98 157.27 172.82 151.37
  C 172.62 143.61 168.88 138.62 162.57 133.62
  C 154.91 127.55 146.53 121.93 137.67 116.87
  A 0.61 0.60 -60.2 0 1 137.45 116.04
  Q 150.18 93.85 145.18 69.61
  C 140.63 47.49 124.19 29.30 102.61 22.30
  C 79.88 14.92 54.64 20.94 37.77 37.84
  Z"
/>
<path fill="#fefefe" d="
  M 166.77 166.66
  C 162.65 170.79 157.38 172.88 151.48 172.74
  C 143.72 172.55 138.73 168.81 133.72 162.51
  C 127.64 154.86 122.01 146.49 116.93 137.63
  A 0.61 0.60 -29.9 0 0 116.10 137.41
  Q 93.93 150.17 69.69 145.21
  C 47.56 140.69 29.35 124.27 22.31 102.70
  C 14.91 79.98 20.89 54.73 37.77 37.84
  C 54.64 20.94 79.88 14.92 102.61 22.30
  C 124.19 29.30 140.63 47.49 145.18 69.61
  Q 150.18 93.85 137.45 116.04
  A 0.61 0.60 -60.2 0 0 137.67 116.87
  C 146.53 121.93 154.91 127.55 162.57 133.62
  C 168.88 138.62 172.62 143.61 172.82 151.37
  C 172.98 157.27 170.89 162.54 166.77 166.66
  Z
  M 141.51 82.89
  A 58.61 58.61 0.0 0 0 82.90 24.28
  A 58.61 58.61 0.0 0 0 24.29 82.89
  A 58.61 58.61 0.0 0 0 82.90 141.50
  A 58.61 58.61 0.0 0 0 141.51 82.89
  Z"
/>
<path fill="#1d677a" d="
  M 141.51 82.89
  A 58.61 58.61 0.0 0 1 82.90 141.50
  A 58.61 58.61 0.0 0 1 24.29 82.89
  A 58.61 58.61 0.0 0 1 82.90 24.28
  A 58.61 58.61 0.0 0 1 141.51 82.89
  Z
  M 50.02 120.26
  A 2.33 2.32 90.0 0 0 52.34 122.59
  Q 93.68 122.63 111.74 122.58
  Q 114.68 122.57 114.69 120.15
  Q 114.76 94.37 114.70 60.27
  A 2.08 2.04 -67.9 0 0 114.10 58.81
  L 99.05 43.76
  A 3.35 3.33 67.4 0 0 96.69 42.78
  Q 70.24 42.78 53.29 42.78
  C 51.23 42.78 50.03 43.37 50.03 45.54
  Q 50.02 102.11 50.02 120.26
  Z"
/>
<path fill="#fefefe" d="
  M 50.02 120.26
  Q 50.02 102.11 50.03 45.54
  C 50.03 43.37 51.23 42.78 53.29 42.78
  Q 70.24 42.78 96.69 42.78
  A 3.35 3.33 67.4 0 1 99.05 43.76
  L 114.10 58.81
  A 2.08 2.04 -67.9 0 1 114.70 60.27
  Q 114.76 94.37 114.69 120.15
  Q 114.68 122.57 111.74 122.58
  Q 93.68 122.63 52.34 122.59
  A 2.33 2.32 90.0 0 1 50.02 120.26
  Z
  M 94.01 47.75
  L 55.92 47.74
  A 0.60 0.60 0.0 0 0 55.32 48.34
  L 55.32 116.99
  A 0.56 0.56 0.0 0 0 55.88 117.55
  L 108.93 117.55
  A 0.59 0.59 0.0 0 0 109.52 116.96
  L 109.52 63.63
  A 0.69 0.68 89.2 0 0 108.82 62.94
  Q 99.65 63.14 96.84 62.89
  Q 94.43 62.67 94.42 60.76
  Q 94.35 48.62 94.44 48.32
  A 0.45 0.45 0.0 0 0 94.01 47.75
  Z"
/>
<path fill="#1d677a" d="
  M 94.44 48.32
  Q 94.35 48.62 94.42 60.76
  Q 94.43 62.67 96.84 62.89
  Q 99.65 63.14 108.82 62.94
  A 0.69 0.68 89.2 0 1 109.52 63.63
  L 109.52 116.96
  A 0.59 0.59 0.0 0 1 108.93 117.55
  L 55.88 117.55
  A 0.56 0.56 0.0 0 1 55.32 116.99
  L 55.32 48.34
  A 0.60 0.60 0.0 0 1 55.92 47.74
  L 94.01 47.75
  A 0.45 0.45 0.0 0 1 94.44 48.32
  Z
  M 103.42 70.29
  A 2.48 2.48 0.0 0 0 100.94 67.81
  L 63.74 67.81
  A 2.48 2.48 0.0 0 0 61.26 70.29
  L 61.26 70.69
  A 2.48 2.48 0.0 0 0 63.74 73.17
  L 100.94 73.17
  A 2.48 2.48 0.0 0 0 103.42 70.69
  L 103.42 70.29
  Z
  M 103.42 81.01
  A 2.21 2.21 0.0 0 0 101.21 78.80
  L 63.53 78.80
  A 2.21 2.21 0.0 0 0 61.32 81.01
  L 61.32 81.47
  A 2.21 2.21 0.0 0 0 63.53 83.68
  L 101.21 83.68
  A 2.21 2.21 0.0 0 0 103.42 81.47
  L 103.42 81.01
  Z
  M 103.45 91.69
  A 2.37 2.37 0.0 0 0 101.08 89.32
  L 63.66 89.32
  A 2.37 2.37 0.0 0 0 61.29 91.69
  L 61.29 92.11
  A 2.37 2.37 0.0 0 0 63.66 94.48
  L 101.08 94.48
  A 2.37 2.37 0.0 0 0 103.45 92.11
  L 103.45 91.69
  Z
  M 103.4304 102.5068
  A 2.31 2.31 0.0 0 0 101.1244 100.1928
  L 63.5844 100.1272
  A 2.31 2.31 0.0 0 0 61.2704 102.4332
  L 61.2696 102.8732
  A 2.31 2.31 0.0 0 0 63.5756 105.1872
  L 101.1156 105.2528
  A 2.31 2.31 0.0 0 0 103.4296 102.9468
  L 103.4304 102.5068
  Z"
/>
<rect fill="#fefefe" x="61.26" y="67.81" width="42.16" height="5.36" rx="2.48"/>
<rect fill="#fefefe" x="61.32" y="78.80" width="42.10" height="4.88" rx="2.21"/>
<rect fill="#fefefe" x="61.29" y="89.32" width="42.16" height="5.16" rx="2.37"/>
<rect fill="#fefefe" x="-21.08" y="-2.53" transform="translate(82.35,102.69) rotate(0.1)" width="42.16" height="5.06" rx="2.31"/>
</svg>
