<?xml version="1.0" encoding="UTF-8" standalone="no"?>
<!DOCTYPE svg PUBLIC "-//W3C//DTD SVG 1.1//EN" "http://www.w3.org/Graphics/SVG/1.1/DTD/svg11.dtd">
<svg xmlns="http://www.w3.org/2000/svg" version="1.1" viewBox="0.00 0.00 192.00 192.00">
<path fill="#207c97" d="
  M 130.08 95.40
  L 95.79 162.17
  A 0.36 0.36 0.0 0 1 95.47 162.37
  L 58.86 162.37
  A 0.36 0.36 0.0 0 1 58.54 161.85
  L 92.66 95.41
  A 0.36 0.36 0.0 0 0 92.34 94.89
  L 58.87 94.89
  A 0.36 0.36 0.0 0 1 58.55 94.37
  L 92.84 27.60
  A 0.36 0.36 0.0 0 1 93.16 27.40
  L 129.77 27.40
  A 0.36 0.36 0.0 0 1 130.09 27.92
  L 95.97 94.36
  A 0.36 0.36 0.0 0 0 96.29 94.88
  L 129.76 94.88
  A 0.36 0.36 0.0 0 1 130.08 95.40
  Z"
/>
</svg>
