<?xml version="1.0" encoding="UTF-8" standalone="no"?>
<!DOCTYPE svg PUBLIC "-//W3C//DTD SVG 1.1//EN" "http://www.w3.org/Graphics/SVG/1.1/DTD/svg11.dtd">
<svg xmlns="http://www.w3.org/2000/svg" version="1.1" viewBox="0.00 0.00 74.00 64.00">
<g stroke-width="2.00" fill="none" stroke-linecap="butt">
<path stroke="#888b94" vector-effect="non-scaling-stroke" d="
  M 36.99 49.21
  Q 37.77 49.21 38.03 49.10
  C 47.67 44.74 52.92 35.70 53.77 25.27
  C 54.05 21.93 53.17 20.19 50.14 18.89
  Q 43.30 15.94 37.48 13.56
  Q 37.43 13.54 37.00 13.54
  Q 36.58 13.54 36.53 13.56
  Q 30.71 15.94 23.87 18.88
  C 20.84 20.18 19.95 21.92 20.23 25.26
  C 21.08 35.69 26.32 44.73 35.95 49.09
  Q 36.22 49.21 36.99 49.21"
/>
<path stroke="#888b94" vector-effect="non-scaling-stroke" d="
  M 37.62 44.47
  Q 48.74 37.68 49.28 23.99
  A 0.87 0.86 12.2 0 0 48.74 23.16
  L 37.58 18.44
  A 0.42 0.41 11.7 0 0 37.00 18.82
  L 37.00 44.12
  A 0.41 0.41 0.0 0 0 37.62 44.47"
/>
</g>
<path fill="#101729" d="
  M 74.00 0.00
  L 74.00 64.00
  L 0.00 64.00
  L 0.00 0.00
  L 74.00 0.00
  Z
  M 36.99 49.21
  Q 37.77 49.21 38.03 49.10
  C 47.67 44.74 52.92 35.70 53.77 25.27
  C 54.05 21.93 53.17 20.19 50.14 18.89
  Q 43.30 15.94 37.48 13.56
  Q 37.43 13.54 37.00 13.54
  Q 36.58 13.54 36.53 13.56
  Q 30.71 15.94 23.87 18.88
  C 20.84 20.18 19.95 21.92 20.23 25.26
  C 21.08 35.69 26.32 44.73 35.95 49.09
  Q 36.22 49.21 36.99 49.21
  Z"
/>
<path fill="#ffffff" d="
  M 37.00 13.54
  Q 37.43 13.54 37.48 13.56
  Q 43.30 15.94 50.14 18.89
  C 53.17 20.19 54.05 21.93 53.77 25.27
  C 52.92 35.70 47.67 44.74 38.03 49.10
  Q 37.77 49.21 36.99 49.21
  Q 36.22 49.21 35.95 49.09
  C 26.32 44.73 21.08 35.69 20.23 25.26
  C 19.95 21.92 20.84 20.18 23.87 18.88
  Q 30.71 15.94 36.53 13.56
  Q 36.58 13.54 37.00 13.54
  Z
  M 37.62 44.47
  Q 48.74 37.68 49.28 23.99
  A 0.87 0.86 12.2 0 0 48.74 23.16
  L 37.58 18.44
  A 0.42 0.41 11.7 0 0 37.00 18.82
  L 37.00 44.12
  A 0.41 0.41 0.0 0 0 37.62 44.47
  Z"
/>
<path fill="#101729" d="
  M 37.62 44.47
  A 0.41 0.41 0.0 0 1 37.00 44.12
  L 37.00 18.82
  A 0.42 0.41 11.7 0 1 37.58 18.44
  L 48.74 23.16
  A 0.87 0.86 12.2 0 1 49.28 23.99
  Q 48.74 37.68 37.62 44.47
  Z"
/>
</svg>
