<?xml version="1.0" encoding="UTF-8" standalone="no"?>
<!DOCTYPE svg PUBLIC "-//W3C//DTD SVG 1.1//EN" "http://www.w3.org/Graphics/SVG/1.1/DTD/svg11.dtd">
<svg xmlns="http://www.w3.org/2000/svg" version="1.1" viewBox="0.00 0.00 512.00 512.00">
<g stroke-width="2.00" fill="none" stroke-linecap="butt">
<path stroke="#506e02" vector-effect="non-scaling-stroke" d="
  M 218.49 290.68
  Q 223.10 295.47 225.78 300.90
  C 231.78 313.06 228.38 326.45 217.80 334.88
  C 198.78 350.02 169.00 341.73 150.46 330.54
  Q 138.79 323.50 127.63 311.32
  A 0.64 0.64 0.0 0 0 126.70 311.30
  L 91.45 346.55
  A 0.60 0.60 0.0 0 0 91.42 347.37
  C 117.96 377.74 157.21 394.37 197.43 392.39"
/>
<path stroke="#607912" vector-effect="non-scaling-stroke" d="
  M 197.43 392.39
  C 244.69 389.79 289.06 355.90 283.06 304.12
  C 281.04 286.69 274.06 267.82 260.45 256.27
  Q 243.80 242.14 222.54 232.46
  C 208.75 226.19 192.64 220.60 178.40 212.86
  Q 174.00 210.47 169.62 206.40"
/>
<path stroke="#506e02" vector-effect="non-scaling-stroke" d="
  M 169.62 206.40
  C 155.81 193.48 156.95 170.88 173.83 161.10
  C 183.14 155.70 195.25 155.20 205.93 157.12
  Q 214.99 158.74 226.11 164.40
  C 236.68 169.79 249.05 176.48 262.00 182.31"
/>
<path stroke="#607912" vector-effect="non-scaling-stroke" d="
  M 262.00 182.31
  Q 285.05 192.76 308.31 202.69
  C 320.17 207.75 331.54 213.48 340.98 218.75
  Q 347.25 222.25 395.24 249.78
  Q 395.68 250.03 395.67 250.54"
/>
<path stroke="#506e02" vector-effect="non-scaling-stroke" d="
  M 395.67 250.54
  L 343.48 280.94
  A 0.37 0.37 0.0 0 1 342.93 280.63
  Q 342.78 271.69 342.89 263.91
  Q 343.07 251.76 342.04 247.24
  C 337.37 226.69 320.45 222.63 302.98 215.77
  A 0.40 0.40 0.0 0 0 302.44 216.14
  Q 302.42 301.68 302.43 303.97
  C 302.52 321.19 315.08 333.33 332.46 332.00
  C 335.54 331.76 339.59 330.22 342.16 328.70
  Q 372.90 310.54 403.81 293.02"
/>
<path stroke="#607912" vector-effect="non-scaling-stroke" d="
  M 403.81 293.02
  Q 411.04 288.93 418.16 284.80
  Q 425.55 280.51 428.60 277.75
  C 440.50 266.98 443.68 250.82 437.85 235.90
  Q 433.69 225.24 424.45 219.81
  C 392.45 201.00 360.30 182.71 326.62 165.43
  C 308.48 156.12 292.11 147.11 278.62 138.63
  Q 261.81 128.06 253.47 123.23"
/>
<path stroke="#506e02" vector-effect="non-scaling-stroke" d="
  M 253.47 123.23
  Q 232.80 110.47 208.77 107.23
  Q 202.98 106.44 198.15 106.25"
/>
<path stroke="#607912" vector-effect="non-scaling-stroke" d="
  M 198.15 106.25
  Q 188.96 104.92 179.26 106.56
  Q 159.85 109.84 144.24 119.24
  Q 129.38 128.19 120.99 139.62
  C 105.96 160.10 101.70 187.97 109.45 211.89
  C 119.36 242.48 148.23 257.50 175.77 268.74
  Q 190.74 274.85 204.17 281.05
  Q 211.26 284.32 218.49 290.68"
/>
<path stroke="#b0e614" vector-effect="non-scaling-stroke" d="
  M 198.15 106.25
  Q 187.35 107.15 181.75 109.22
  Q 163.63 115.95 153.52 130.61
  C 138.12 152.93 140.35 183.19 161.55 201.31
  Q 166.19 205.28 167.74 206.40
  Q 168.26 206.78 169.62 206.40"
/>
<path stroke="#b0e614" vector-effect="non-scaling-stroke" d="
  M 197.43 392.39
  Q 199.01 391.18 201.54 391.14
  A 2.64 2.51 -55.0 0 0 202.53 390.94
  C 204.77 390.00 207.20 389.88 209.47 389.00
  Q 230.37 380.88 239.99 362.33
  C 251.32 340.49 246.97 313.60 229.37 296.64
  Q 224.17 291.63 218.49 290.68"
/>
<path stroke="#b0e614" vector-effect="non-scaling-stroke" d="
  M 253.47 123.23
  Q 263.29 130.40 273.58 136.97
  Q 276.68 138.94 278.66 142.46
  Q 279.91 144.68 279.81 149.78
  C 279.65 158.50 281.27 168.32 281.67 174.75
  Q 281.96 179.33 281.23 181.63
  Q 279.39 187.38 274.07 185.87
  Q 268.06 184.17 262.00 182.31"
/>
<path stroke="#b0e614" vector-effect="non-scaling-stroke" d="
  M 403.81 293.02
  L 408.05 288.59
  A 0.66 0.55 -12.9 0 0 408.15 288.46
  C 414.75 278.45 414.22 265.74 405.78 257.01
  Q 401.48 252.57 395.67 250.54"
/>
</g>
<path fill="#000000" d="
  M 472.45 0.00
  C 493.82 2.29 509.58 18.11 512.00 39.45
  L 512.00 472.43
  C 509.72 493.83 493.91 509.57 472.55 512.00
  L 39.52 512.00
  C 18.15 509.68 2.43 493.90 0.00 472.55
  L 0.00 39.51
  C 2.33 18.08 17.95 2.64 39.44 0.00
  L 472.45 0.00
  Z
  M 218.49 290.68
  Q 223.10 295.47 225.78 300.90
  C 231.78 313.06 228.38 326.45 217.80 334.88
  C 198.78 350.02 169.00 341.73 150.46 330.54
  Q 138.79 323.50 127.63 311.32
  A 0.64 0.64 0.0 0 0 126.70 311.30
  L 91.45 346.55
  A 0.60 0.60 0.0 0 0 91.42 347.37
  C 117.96 377.74 157.21 394.37 197.43 392.39
  C 244.69 389.79 289.06 355.90 283.06 304.12
  C 281.04 286.69 274.06 267.82 260.45 256.27
  Q 243.80 242.14 222.54 232.46
  C 208.75 226.19 192.64 220.60 178.40 212.86
  Q 174.00 210.47 169.62 206.40
  C 155.81 193.48 156.95 170.88 173.83 161.10
  C 183.14 155.70 195.25 155.20 205.93 157.12
  Q 214.99 158.74 226.11 164.40
  C 236.68 169.79 249.05 176.48 262.00 182.31
  Q 285.05 192.76 308.31 202.69
  C 320.17 207.75 331.54 213.48 340.98 218.75
  Q 347.25 222.25 395.24 249.78
  Q 395.68 250.03 395.67 250.54
  L 343.48 280.94
  A 0.37 0.37 0.0 0 1 342.93 280.63
  Q 342.78 271.69 342.89 263.91
  Q 343.07 251.76 342.04 247.24
  C 337.37 226.69 320.45 222.63 302.98 215.77
  A 0.40 0.40 0.0 0 0 302.44 216.14
  Q 302.42 301.68 302.43 303.97
  C 302.52 321.19 315.08 333.33 332.46 332.00
  C 335.54 331.76 339.59 330.22 342.16 328.70
  Q 372.90 310.54 403.81 293.02
  Q 411.04 288.93 418.16 284.80
  Q 425.55 280.51 428.60 277.75
  C 440.50 266.98 443.68 250.82 437.85 235.90
  Q 433.69 225.24 424.45 219.81
  C 392.45 201.00 360.30 182.71 326.62 165.43
  C 308.48 156.12 292.11 147.11 278.62 138.63
  Q 261.81 128.06 253.47 123.23
  Q 232.80 110.47 208.77 107.23
  Q 202.98 106.44 198.15 106.25
  Q 188.96 104.92 179.26 106.56
  Q 159.85 109.84 144.24 119.24
  Q 129.38 128.19 120.99 139.62
  C 105.96 160.10 101.70 187.97 109.45 211.89
  C 119.36 242.48 148.23 257.50 175.77 268.74
  Q 190.74 274.85 204.17 281.05
  Q 211.26 284.32 218.49 290.68
  Z"
/>
<path fill="#c0f124" d="
  M 198.15 106.25
  Q 187.35 107.15 181.75 109.22
  Q 163.63 115.95 153.52 130.61
  C 138.12 152.93 140.35 183.19 161.55 201.31
  Q 166.19 205.28 167.74 206.40
  Q 168.26 206.78 169.62 206.40
  Q 174.00 210.47 178.40 212.86
  C 192.64 220.60 208.75 226.19 222.54 232.46
  Q 243.80 242.14 260.45 256.27
  C 274.06 267.82 281.04 286.69 283.06 304.12
  C 289.06 355.90 244.69 389.79 197.43 392.39
  Q 199.01 391.18 201.54 391.14
  A 2.64 2.51 -55.0 0 0 202.53 390.94
  C 204.77 390.00 207.20 389.88 209.47 389.00
  Q 230.37 380.88 239.99 362.33
  C 251.32 340.49 246.97 313.60 229.37 296.64
  Q 224.17 291.63 218.49 290.68
  Q 211.26 284.32 204.17 281.05
  Q 190.74 274.85 175.77 268.74
  C 148.23 257.50 119.36 242.48 109.45 211.89
  C 101.70 187.97 105.96 160.10 120.99 139.62
  Q 129.38 128.19 144.24 119.24
  Q 159.85 109.84 179.26 106.56
  Q 188.96 104.92 198.15 106.25
  Z"
/>
<path fill="#a0db03" d="
  M 253.47 123.23
  Q 263.29 130.40 273.58 136.97
  Q 276.68 138.94 278.66 142.46
  Q 279.91 144.68 279.81 149.78
  C 279.65 158.50 281.27 168.32 281.67 174.75
  Q 281.96 179.33 281.23 181.63
  Q 279.39 187.38 274.07 185.87
  Q 268.06 184.17 262.00 182.31
  C 249.05 176.48 236.68 169.79 226.11 164.40
  Q 214.99 158.74 205.93 157.12
  C 195.25 155.20 183.14 155.70 173.83 161.10
  C 156.95 170.88 155.81 193.48 169.62 206.40
  Q 168.26 206.78 167.74 206.40
  Q 166.19 205.28 161.55 201.31
  C 140.35 183.19 138.12 152.93 153.52 130.61
  Q 163.63 115.95 181.75 109.22
  Q 187.35 107.15 198.15 106.25
  Q 202.98 106.44 208.77 107.23
  Q 232.80 110.47 253.47 123.23
  Z"
/>
<path fill="#c0f124" d="
  M 253.47 123.23
  Q 261.81 128.06 278.62 138.63
  C 292.11 147.11 308.48 156.12 326.62 165.43
  C 360.30 182.71 392.45 201.00 424.45 219.81
  Q 433.69 225.24 437.85 235.90
  C 443.68 250.82 440.50 266.98 428.60 277.75
  Q 425.55 280.51 418.16 284.80
  Q 411.04 288.93 403.81 293.02
  L 408.05 288.59
  A 0.66 0.55 -12.9 0 0 408.15 288.46
  C 414.75 278.45 414.22 265.74 405.78 257.01
  Q 401.48 252.57 395.67 250.54
  Q 395.68 250.03 395.24 249.78
  Q 347.25 222.25 340.98 218.75
  C 331.54 213.48 320.17 207.75 308.31 202.69
  Q 285.05 192.76 262.00 182.31
  Q 268.06 184.17 274.07 185.87
  Q 279.39 187.38 281.23 181.63
  Q 281.96 179.33 281.67 174.75
  C 281.27 168.32 279.65 158.50 279.81 149.78
  Q 279.91 144.68 278.66 142.46
  Q 276.68 138.94 273.58 136.97
  Q 263.29 130.40 253.47 123.23
  Z"
/>
<path fill="#a0db03" d="
  M 395.67 250.54
  Q 401.48 252.57 405.78 257.01
  C 414.22 265.74 414.75 278.45 408.15 288.46
  A 0.66 0.55 -12.9 0 1 408.05 288.59
  L 403.81 293.02
  Q 372.90 310.54 342.16 328.70
  C 339.59 330.22 335.54 331.76 332.46 332.00
  C 315.08 333.33 302.52 321.19 302.43 303.97
  Q 302.42 301.68 302.44 216.14
  A 0.40 0.40 0.0 0 1 302.98 215.77
  C 320.45 222.63 337.37 226.69 342.04 247.24
  Q 343.07 251.76 342.89 263.91
  Q 342.78 271.69 342.93 280.63
  A 0.37 0.37 0.0 0 0 343.48 280.94
  L 395.67 250.54
  Z"
/>
<path fill="#a0db03" d="
  M 197.43 392.39
  C 157.21 394.37 117.96 377.74 91.42 347.37
  A 0.60 0.60 0.0 0 1 91.45 346.55
  L 126.70 311.30
  A 0.64 0.64 0.0 0 1 127.63 311.32
  Q 138.79 323.50 150.46 330.54
  C 169.00 341.73 198.78 350.02 217.80 334.88
  C 228.38 326.45 231.78 313.06 225.78 300.90
  Q 223.10 295.47 218.49 290.68
  Q 224.17 291.63 229.37 296.64
  C 246.97 313.60 251.32 340.49 239.99 362.33
  Q 230.37 380.88 209.47 389.00
  C 207.20 389.88 204.77 390.00 202.53 390.94
  A 2.64 2.51 -55.0 0 1 201.54 391.14
  Q 199.01 391.18 197.43 392.39
  Z"
/>
</svg>
