<?xml version="1.0" encoding="UTF-8" standalone="no"?>
<!DOCTYPE svg PUBLIC "-//W3C//DTD SVG 1.1//EN" "http://www.w3.org/Graphics/SVG/1.1/DTD/svg11.dtd">
<svg xmlns="http://www.w3.org/2000/svg" version="1.1" viewBox="0.00 0.00 192.00 192.00">
<g stroke-width="2.00" fill="none" stroke-linecap="butt">
<path stroke="#94c5e7" vector-effect="non-scaling-stroke" d="
  M 148.92 57.48
  L 132.19 74.28"
/>
<path stroke="#92bde0" vector-effect="non-scaling-stroke" d="
  M 132.19 74.28
  L 127.39 78.99
  A 0.61 0.61 0.0 0 1 126.53 78.99
  L 118.48 70.95"
/>
<path stroke="#94c5e7" vector-effect="non-scaling-stroke" d="
  M 118.48 70.95
  L 103.30 55.81"
/>
<path stroke="#95cbec" vector-effect="non-scaling-stroke" d="
  M 103.30 55.81
  Q 98.38 50.75 93.61 45.89
  Q 92.32 44.57 90.45 44.14
  Q 89.04 43.81 84.76 43.87
  Q 62.27 44.17 37.35 43.95
  Q 27.56 43.86 22.78 45.45
  Q 14.39 48.24 8.83 55.96"
/>
<path stroke="#94c5e7" vector-effect="non-scaling-stroke" d="
  M 8.83 55.96
  Q 6.40 59.28 5.27 63.00"
/>
<path stroke="#92b9dd" vector-effect="non-scaling-stroke" d="
  M 5.27 63.00
  Q 4.60 64.44 4.55 65.67"
/>
<path stroke="#909dc9" vector-effect="non-scaling-stroke" d="
  M 4.55 65.67
  C 1.24 80.76 7.00 95.45 21.63 101.35
  Q 26.23 103.20 35.92 103.11
  Q 47.78 103.00 51.00 103.02
  C 56.35 103.05 61.89 103.46 62.84 109.61
  Q 63.36 113.02 59.79 116.91"
/>
<path stroke="#9097c6" vector-effect="non-scaling-stroke" d="
  M 59.79 116.91
  Q 32.40 118.09 3.84 117.49
  A 0.44 0.43 -89.4 0 0 3.40 117.93
  L 3.40 137.65
  A 0.44 0.44 0.0 0 0 3.84 138.09
  Q 21.19 137.99 53.01 138.03
  Q 61.49 138.04 63.30 137.38
  Q 76.64 132.45 81.05 119.18"
/>
<path stroke="#90acd4" vector-effect="non-scaling-stroke" d="
  M 81.05 119.18
  Q 82.97 113.84 82.99 108.47"
/>
<path stroke="#92b9dd" vector-effect="non-scaling-stroke" d="
  M 82.99 108.47
  C 82.92 96.71 76.85 86.69 65.85 82.22
  C 61.31 80.37 55.56 80.25 50.50 80.23
  Q 47.93 80.22 32.35 80.21
  C 23.55 80.20 21.44 69.99 29.09 66.00"
/>
<path stroke="#94c5e7" vector-effect="non-scaling-stroke" d="
  M 29.09 66.00
  Q 31.55 65.51 34.26 65.49
  Q 53.98 65.29 73.79 65.44
  A 0.52 0.52 0.0 0 1 74.31 65.95
  L 74.46 71.49"
/>
<path stroke="#92bde0" vector-effect="non-scaling-stroke" d="
  M 74.46 71.49
  L 74.52 77.93
  A 1.51 1.48 22.4 0 0 74.96 78.96
  Q 77.02 80.97 79.10 82.92
  Q 85.57 88.99 88.43 97.56"
/>
<path stroke="#90acd4" vector-effect="non-scaling-stroke" d="
  M 88.43 97.56
  Q 90.37 104.87 89.72 112.84"
/>
<path stroke="#9097c6" vector-effect="non-scaling-stroke" d="
  M 89.72 112.84
  Q 87.98 127.97 76.05 137.30
  A 0.43 0.43 0.0 0 0 76.31 138.07
  L 92.25 138.07
  A 0.63 0.63 0.0 0 0 92.88 137.45
  L 93.11 112.04"
/>
<path stroke="#90acd4" vector-effect="non-scaling-stroke" d="
  M 93.11 112.04
  L 92.93 95.21"
/>
<path stroke="#92bde0" vector-effect="non-scaling-stroke" d="
  M 92.93 95.21
  L 92.97 79.49
  A 0.28 0.28 0.0 0 1 93.45 79.29
  L 98.74 84.51"
/>
<path stroke="#92b9dd" vector-effect="non-scaling-stroke" d="
  M 98.74 84.51
  L 116.95 102.75"
/>
<path stroke="#90acd4" vector-effect="non-scaling-stroke" d="
  M 116.95 102.75
  L 126.85 112.78
  A 0.68 0.67 45.3 0 0 127.81 112.79
  L 137.82 102.73"
/>
<path stroke="#92b9dd" vector-effect="non-scaling-stroke" d="
  M 137.82 102.73
  L 157.83 82.83"
/>
<path stroke="#92bde0" vector-effect="non-scaling-stroke" d="
  M 157.83 82.83
  L 161.91 79.10"
/>
<path stroke="#90acd4" vector-effect="non-scaling-stroke" d="
  M 161.91 79.10
  L 162.02 101.53"
/>
<path stroke="#909dc9" vector-effect="non-scaling-stroke" d="
  M 162.02 101.53
  L 162.01 125.94"
/>
<path stroke="#9097c6" vector-effect="non-scaling-stroke" d="
  M 162.01 125.94
  L 162.07 137.58
  A 0.46 0.46 0.0 0 0 162.53 138.04
  L 186.69 138.04
  A 0.37 0.36 -89.2 0 0 187.05 137.68
  L 187.06 126.45"
/>
<path stroke="#909dc9" vector-effect="non-scaling-stroke" d="
  M 187.06 126.45
  L 187.05 101.53"
/>
<path stroke="#90acd4" vector-effect="non-scaling-stroke" d="
  M 187.05 101.53
  L 187.08 81.60"
/>
<path stroke="#92bde0" vector-effect="non-scaling-stroke" d="
  M 187.08 81.60
  L 187.07 74.00"
/>
<path stroke="#94c5e7" vector-effect="non-scaling-stroke" d="
  M 187.07 74.00
  L 187.07 56.97"
/>
<path stroke="#95cbec" vector-effect="non-scaling-stroke" d="
  M 187.07 56.97
  L 186.96 44.60
  A 0.58 0.57 90.0 0 0 186.40 44.03
  Q 175.65 43.90 167.00 43.87
  Q 164.94 43.86 162.67 44.33
  A 1.67 1.64 16.3 0 0 161.83 44.78
  L 148.92 57.48"
/>
<path stroke="#2a91d4" vector-effect="non-scaling-stroke" d="
  M 187.07 56.97
  L 148.92 57.48"
/>
<path stroke="#2683c8" vector-effect="non-scaling-stroke" d="
  M 187.07 74.00
  L 132.19 74.28"
/>
<path stroke="#2269b5" vector-effect="non-scaling-stroke" d="
  M 187.08 81.60
  Q 181.64 80.36 176.37 79.17
  Q 168.88 77.48 161.91 79.10"
/>
<path stroke="#2476be" vector-effect="non-scaling-stroke" d="
  M 157.83 82.83
  L 98.74 84.51"
/>
<path stroke="#2269b5" vector-effect="non-scaling-stroke" d="
  M 92.93 95.21
  L 88.43 97.56"
/>
<path stroke="#2683c8" vector-effect="non-scaling-stroke" d="
  M 118.48 70.95
  Q 96.50 70.48 74.46 71.49"
/>
<path stroke="#267fc5" vector-effect="non-scaling-stroke" d="
  M 29.09 66.00
  Q 16.96 66.08 5.27 63.00"
/>
<path stroke="#20439b" vector-effect="non-scaling-stroke" d="
  M 93.11 112.04
  L 89.72 112.84"
/>
<path stroke="#20499e" vector-effect="non-scaling-stroke" d="
  M 187.05 101.53
  L 162.02 101.53"
/>
<path stroke="#2265b2" vector-effect="non-scaling-stroke" d="
  M 137.82 102.73
  L 116.95 102.75"
/>
<path stroke="#2265b2" vector-effect="non-scaling-stroke" d="
  M 82.99 108.47
  L 75.47 106.45"
/>
<path stroke="#2256a7" vector-effect="non-scaling-stroke" d="
  M 75.47 106.45
  Q 68.05 95.73 56.06 93.39
  C 46.12 91.45 33.80 92.65 23.94 88.79
  Q 10.67 83.58 6.29 69.91
  Q 6.12 69.38 5.84 67.52
  Q 5.57 65.68 4.55 65.67"
/>
<path stroke="#2a91d4" vector-effect="non-scaling-stroke" d="
  M 103.30 55.81
  Q 56.05 58.57 8.83 55.96"
/>
<path stroke="#203490" vector-effect="non-scaling-stroke" d="
  M 187.06 126.45
  L 162.01 125.94"
/>
<path stroke="#20499e" vector-effect="non-scaling-stroke" d="
  M 75.47 106.45
  L 77.01 109.54"
/>
<path stroke="#203490" vector-effect="non-scaling-stroke" d="
  M 77.01 109.54
  Q 67.93 111.21 59.79 116.91"
/>
<path stroke="#20439b" vector-effect="non-scaling-stroke" d="
  M 81.05 119.18
  Q 78.28 114.58 77.01 109.54"
/>
</g>
<path fill="#ffffff" d="
  M 192.00 0.00
  L 192.00 192.00
  L 0.00 192.00
  L 0.00 0.00
  L 192.00 0.00
  Z
  M 148.92 57.48
  L 132.19 74.28
  L 127.39 78.99
  A 0.61 0.61 0.0 0 1 126.53 78.99
  L 118.48 70.95
  L 103.30 55.81
  Q 98.38 50.75 93.61 45.89
  Q 92.32 44.57 90.45 44.14
  Q 89.04 43.81 84.76 43.87
  Q 62.27 44.17 37.35 43.95
  Q 27.56 43.86 22.78 45.45
  Q 14.39 48.24 8.83 55.96
  Q 6.40 59.28 5.27 63.00
  Q 4.60 64.44 4.55 65.67
  C 1.24 80.76 7.00 95.45 21.63 101.35
  Q 26.23 103.20 35.92 103.11
  Q 47.78 103.00 51.00 103.02
  C 56.35 103.05 61.89 103.46 62.84 109.61
  Q 63.36 113.02 59.79 116.91
  Q 32.40 118.09 3.84 117.49
  A 0.44 0.43 -89.4 0 0 3.40 117.93
  L 3.40 137.65
  A 0.44 0.44 0.0 0 0 3.84 138.09
  Q 21.19 137.99 53.01 138.03
  Q 61.49 138.04 63.30 137.38
  Q 76.64 132.45 81.05 119.18
  Q 82.97 113.84 82.99 108.47
  C 82.92 96.71 76.85 86.69 65.85 82.22
  C 61.31 80.37 55.56 80.25 50.50 80.23
  Q 47.93 80.22 32.35 80.21
  C 23.55 80.20 21.44 69.99 29.09 66.00
  Q 31.55 65.51 34.26 65.49
  Q 53.98 65.29 73.79 65.44
  A 0.52 0.52 0.0 0 1 74.31 65.95
  L 74.46 71.49
  L 74.52 77.93
  A 1.51 1.48 22.4 0 0 74.96 78.96
  Q 77.02 80.97 79.10 82.92
  Q 85.57 88.99 88.43 97.56
  Q 90.37 104.87 89.72 112.84
  Q 87.98 127.97 76.05 137.30
  A 0.43 0.43 0.0 0 0 76.31 138.07
  L 92.25 138.07
  A 0.63 0.63 0.0 0 0 92.88 137.45
  L 93.11 112.04
  L 92.93 95.21
  L 92.97 79.49
  A 0.28 0.28 0.0 0 1 93.45 79.29
  L 98.74 84.51
  L 116.95 102.75
  L 126.85 112.78
  A 0.68 0.67 45.3 0 0 127.81 112.79
  L 137.82 102.73
  L 157.83 82.83
  L 161.91 79.10
  L 162.02 101.53
  L 162.01 125.94
  L 162.07 137.58
  A 0.46 0.46 0.0 0 0 162.53 138.04
  L 186.69 138.04
  A 0.37 0.36 -89.2 0 0 187.05 137.68
  L 187.06 126.45
  L 187.05 101.53
  L 187.08 81.60
  L 187.07 74.00
  L 187.07 56.97
  L 186.96 44.60
  A 0.58 0.57 90.0 0 0 186.40 44.03
  Q 175.65 43.90 167.00 43.87
  Q 164.94 43.86 162.67 44.33
  A 1.67 1.64 16.3 0 0 161.83 44.78
  L 148.92 57.48
  Z"
/>
<path fill="#2b97d8" d="
  M 187.07 56.97
  L 148.92 57.48
  L 161.83 44.78
  A 1.67 1.64 16.3 0 1 162.67 44.33
  Q 164.94 43.86 167.00 43.87
  Q 175.65 43.90 186.40 44.03
  A 0.58 0.57 90.0 0 1 186.96 44.60
  L 187.07 56.97
  Z"
/>
<path fill="#2b97d8" d="
  M 103.30 55.81
  Q 56.05 58.57 8.83 55.96
  Q 14.39 48.24 22.78 45.45
  Q 27.56 43.86 37.35 43.95
  Q 62.27 44.17 84.76 43.87
  Q 89.04 43.81 90.45 44.14
  Q 92.32 44.57 93.61 45.89
  Q 98.38 50.75 103.30 55.81
  Z"
/>
<path fill="#288bcf" d="
  M 103.30 55.81
  L 118.48 70.95
  Q 96.50 70.48 74.46 71.49
  L 74.31 65.95
  A 0.52 0.52 0.0 0 0 73.79 65.44
  Q 53.98 65.29 34.26 65.49
  Q 31.55 65.51 29.09 66.00
  Q 16.96 66.08 5.27 63.00
  Q 6.40 59.28 8.83 55.96
  Q 56.05 58.57 103.30 55.81
  Z"
/>
<path fill="#288bcf" d="
  M 187.07 56.97
  L 187.07 74.00
  L 132.19 74.28
  L 148.92 57.48
  L 187.07 56.97
  Z"
/>
<path fill="#2472bb" d="
  M 29.09 66.00
  C 21.44 69.99 23.55 80.20 32.35 80.21
  Q 47.93 80.22 50.50 80.23
  C 55.56 80.25 61.31 80.37 65.85 82.22
  C 76.85 86.69 82.92 96.71 82.99 108.47
  L 75.47 106.45
  Q 68.05 95.73 56.06 93.39
  C 46.12 91.45 33.80 92.65 23.94 88.79
  Q 10.67 83.58 6.29 69.91
  Q 6.12 69.38 5.84 67.52
  Q 5.57 65.68 4.55 65.67
  Q 4.60 64.44 5.27 63.00
  Q 16.96 66.08 29.09 66.00
  Z"
/>
<path fill="#203a92" d="
  M 75.47 106.45
  L 77.01 109.54
  Q 67.93 111.21 59.79 116.91
  Q 63.36 113.02 62.84 109.61
  C 61.89 103.46 56.35 103.05 51.00 103.02
  Q 47.78 103.00 35.92 103.11
  Q 26.23 103.20 21.63 101.35
  C 7.00 95.45 1.24 80.76 4.55 65.67
  Q 5.57 65.68 5.84 67.52
  Q 6.12 69.38 6.29 69.91
  Q 10.67 83.58 23.94 88.79
  C 33.80 92.65 46.12 91.45 56.06 93.39
  Q 68.05 95.73 75.47 106.45
  Z"
/>
<path fill="#247ac1" d="
  M 118.48 70.95
  L 126.53 78.99
  A 0.61 0.61 0.0 0 0 127.39 78.99
  L 132.19 74.28
  L 187.07 74.00
  L 187.08 81.60
  Q 181.64 80.36 176.37 79.17
  Q 168.88 77.48 161.91 79.10
  L 157.83 82.83
  L 98.74 84.51
  L 93.45 79.29
  A 0.28 0.28 0.0 0 0 92.97 79.49
  L 92.93 95.21
  L 88.43 97.56
  Q 85.57 88.99 79.10 82.92
  Q 77.02 80.97 74.96 78.96
  A 1.51 1.48 22.4 0 1 74.52 77.93
  L 74.46 71.49
  Q 96.50 70.48 118.48 70.95
  Z"
/>
<path fill="#2058a9" d="
  M 187.08 81.60
  L 187.05 101.53
  L 162.02 101.53
  L 161.91 79.10
  Q 168.88 77.48 176.37 79.17
  Q 181.64 80.36 187.08 81.60
  Z"
/>
<path fill="#2472bb" d="
  M 157.83 82.83
  L 137.82 102.73
  L 116.95 102.75
  L 98.74 84.51
  L 157.83 82.83
  Z"
/>
<path fill="#2058a9" d="
  M 92.93 95.21
  L 93.11 112.04
  L 89.72 112.84
  Q 90.37 104.87 88.43 97.56
  L 92.93 95.21
  Z"
/>
<path fill="#203a92" d="
  M 187.05 101.53
  L 187.06 126.45
  L 162.01 125.94
  L 162.02 101.53
  L 187.05 101.53
  Z"
/>
<path fill="#2058a9" d="
  M 137.82 102.73
  L 127.81 112.79
  A 0.68 0.67 45.3 0 1 126.85 112.78
  L 116.95 102.75
  L 137.82 102.73
  Z"
/>
<path fill="#2058a9" d="
  M 82.99 108.47
  Q 82.97 113.84 81.05 119.18
  Q 78.28 114.58 77.01 109.54
  L 75.47 106.45
  L 82.99 108.47
  Z"
/>
<path fill="#202e8d" d="
  M 77.01 109.54
  Q 78.28 114.58 81.05 119.18
  Q 76.64 132.45 63.30 137.38
  Q 61.49 138.04 53.01 138.03
  Q 21.19 137.99 3.84 138.09
  A 0.44 0.44 0.0 0 1 3.40 137.65
  L 3.40 117.93
  A 0.44 0.43 -89.4 0 1 3.84 117.49
  Q 32.40 118.09 59.79 116.91
  Q 67.93 111.21 77.01 109.54
  Z"
/>
<path fill="#202e8d" d="
  M 93.11 112.04
  L 92.88 137.45
  A 0.63 0.63 0.0 0 1 92.25 138.07
  L 76.31 138.07
  A 0.43 0.43 0.0 0 1 76.05 137.30
  Q 87.98 127.97 89.72 112.84
  L 93.11 112.04
  Z"
/>
<path fill="#202e8d" d="
  M 187.06 126.45
  L 187.05 137.68
  A 0.37 0.36 -89.2 0 1 186.69 138.04
  L 162.53 138.04
  A 0.46 0.46 0.0 0 1 162.07 137.58
  L 162.01 125.94
  L 187.06 126.45
  Z"
/>
</svg>
