<?xml version="1.0" encoding="UTF-8" standalone="no"?>
<!DOCTYPE svg PUBLIC "-//W3C//DTD SVG 1.1//EN" "http://www.w3.org/Graphics/SVG/1.1/DTD/svg11.dtd">
<svg xmlns="http://www.w3.org/2000/svg" version="1.1" viewBox="0.00 0.00 256.00 256.00">
<g stroke-width="2.00" fill="none" stroke-linecap="butt">
<path stroke="#97c5ab" vector-effect="non-scaling-stroke" d="
  M 99.91 115.75
  Q 98.54 118.14 95.39 118.44
  Q 60.26 121.87 46.87 123.14
  A 0.50 0.49 -5.4 0 0 46.42 123.68
  L 49.80 158.40
  A 0.45 0.44 -4.4 0 0 50.28 158.80
  Q 54.82 158.51 65.89 157.24
  C 86.58 154.87 104.82 142.97 115.38 124.68
  C 125.93 106.39 127.11 84.65 118.82 65.54
  Q 114.38 55.32 112.36 51.24
  A 0.45 0.44 64.4 0 0 111.77 51.03
  L 80.02 65.47
  A 0.50 0.49 65.4 0 0 79.77 66.13
  Q 85.37 78.36 99.98 110.50
  Q 101.29 113.37 99.91 115.75"
/>
<path stroke="#97c5ab" vector-effect="non-scaling-stroke" d="
  M 155.51 115.78
  Q 154.13 113.40 155.44 110.52
  Q 170.03 78.37 175.63 66.13
  A 0.50 0.49 -65.4 0 0 175.38 65.47
  L 143.62 51.03
  A 0.45 0.44 -64.4 0 0 143.03 51.25
  Q 141.01 55.33 136.57 65.55
  C 128.29 84.67 129.47 106.43 140.04 124.71
  C 150.61 143.00 168.86 154.90 189.56 157.27
  Q 200.63 158.53 205.18 158.82
  A 0.45 0.44 4.4 0 0 205.66 158.41
  L 209.02 123.69
  A 0.50 0.49 5.4 0 0 208.57 123.14
  Q 195.17 121.88 160.03 118.47
  Q 156.88 118.16 155.51 115.78"
/>
<path stroke="#97c5ab" vector-effect="non-scaling-stroke" d="
  M 127.71 163.90
  Q 130.46 163.90 132.30 166.47
  Q 152.83 195.20 160.62 206.17
  A 0.50 0.49 54.6 0 0 161.32 206.29
  L 189.71 186.01
  A 0.45 0.44 55.6 0 0 189.82 185.39
  Q 187.30 181.60 180.67 172.64
  C 168.26 155.90 148.83 146.04 127.71 146.04
  C 106.59 146.04 87.16 155.89 74.75 172.63
  Q 68.11 181.58 65.59 185.37
  A 0.45 0.44 -55.6 0 0 65.70 185.99
  L 94.08 206.28
  A 0.50 0.49 -54.6 0 0 94.78 206.16
  Q 102.58 195.19 123.12 166.47
  Q 124.96 163.90 127.71 163.90"
/>
</g>
<path fill="#2e8b57" d="
  M 202.94 0.00
  Q 224.90 2.01 239.44 16.81
  Q 250.55 28.12 254.37 43.54
  Q 255.24 47.08 256.00 50.66
  L 256.00 205.62
  Q 255.20 209.18 254.33 212.70
  Q 250.53 228.02 239.50 239.26
  Q 226.09 252.93 205.68 256.00
  L 50.78 256.00
  Q 47.13 255.26 43.54 254.37
  Q 27.65 250.42 16.18 238.81
  Q 1.96 224.40 0.00 203.00
  L 0.00 53.33
  Q 3.41 20.90 31.45 6.09
  Q 40.97 1.06 53.23 0.00
  L 202.94 0.00
  Z
  M 99.91 115.75
  Q 98.54 118.14 95.39 118.44
  Q 60.26 121.87 46.87 123.14
  A 0.50 0.49 -5.4 0 0 46.42 123.68
  L 49.80 158.40
  A 0.45 0.44 -4.4 0 0 50.28 158.80
  Q 54.82 158.51 65.89 157.24
  C 86.58 154.87 104.82 142.97 115.38 124.68
  C 125.93 106.39 127.11 84.65 118.82 65.54
  Q 114.38 55.32 112.36 51.24
  A 0.45 0.44 64.4 0 0 111.77 51.03
  L 80.02 65.47
  A 0.50 0.49 65.4 0 0 79.77 66.13
  Q 85.37 78.36 99.98 110.50
  Q 101.29 113.37 99.91 115.75
  Z
  M 155.51 115.78
  Q 154.13 113.40 155.44 110.52
  Q 170.03 78.37 175.63 66.13
  A 0.50 0.49 -65.4 0 0 175.38 65.47
  L 143.62 51.03
  A 0.45 0.44 -64.4 0 0 143.03 51.25
  Q 141.01 55.33 136.57 65.55
  C 128.29 84.67 129.47 106.43 140.04 124.71
  C 150.61 143.00 168.86 154.90 189.56 157.27
  Q 200.63 158.53 205.18 158.82
  A 0.45 0.44 4.4 0 0 205.66 158.41
  L 209.02 123.69
  A 0.50 0.49 5.4 0 0 208.57 123.14
  Q 195.17 121.88 160.03 118.47
  Q 156.88 118.16 155.51 115.78
  Z
  M 127.71 163.90
  Q 130.46 163.90 132.30 166.47
  Q 152.83 195.20 160.62 206.17
  A 0.50 0.49 54.6 0 0 161.32 206.29
  L 189.71 186.01
  A 0.45 0.44 55.6 0 0 189.82 185.39
  Q 187.30 181.60 180.67 172.64
  C 168.26 155.90 148.83 146.04 127.71 146.04
  C 106.59 146.04 87.16 155.89 74.75 172.63
  Q 68.11 181.58 65.59 185.37
  A 0.45 0.44 -55.6 0 0 65.70 185.99
  L 94.08 206.28
  A 0.50 0.49 -54.6 0 0 94.78 206.16
  Q 102.58 195.19 123.12 166.47
  Q 124.96 163.90 127.71 163.90
  Z"
/>
<path fill="#ffffff" d="
  M 99.91 115.75
  Q 101.29 113.37 99.98 110.50
  Q 85.37 78.36 79.77 66.13
  A 0.50 0.49 65.4 0 1 80.02 65.47
  L 111.77 51.03
  A 0.45 0.44 64.4 0 1 112.36 51.24
  Q 114.38 55.32 118.82 65.54
  C 127.11 84.65 125.93 106.39 115.38 124.68
  C 104.82 142.97 86.58 154.87 65.89 157.24
  Q 54.82 158.51 50.28 158.80
  A 0.45 0.44 -4.4 0 1 49.80 158.40
  L 46.42 123.68
  A 0.50 0.49 -5.4 0 1 46.87 123.14
  Q 60.26 121.87 95.39 118.44
  Q 98.54 118.14 99.91 115.75
  Z"
/>
<path fill="#ffffff" d="
  M 155.51 115.78
  Q 156.88 118.16 160.03 118.47
  Q 195.17 121.88 208.57 123.14
  A 0.50 0.49 5.4 0 1 209.02 123.69
  L 205.66 158.41
  A 0.45 0.44 4.4 0 1 205.18 158.82
  Q 200.63 158.53 189.56 157.27
  C 168.86 154.90 150.61 143.00 140.04 124.71
  C 129.47 106.43 128.29 84.67 136.57 65.55
  Q 141.01 55.33 143.03 51.25
  A 0.45 0.44 -64.4 0 1 143.62 51.03
  L 175.38 65.47
  A 0.50 0.49 -65.4 0 1 175.63 66.13
  Q 170.03 78.37 155.44 110.52
  Q 154.13 113.40 155.51 115.78
  Z"
/>
<path fill="#ffffff" d="
  M 127.71 146.04
  C 148.83 146.04 168.26 155.90 180.67 172.64
  Q 187.30 181.60 189.82 185.39
  A 0.45 0.44 55.6 0 1 189.71 186.01
  L 161.32 206.29
  A 0.50 0.49 54.6 0 1 160.62 206.17
  Q 152.83 195.20 132.30 166.47
  Q 130.46 163.90 127.71 163.90
  Q 124.96 163.90 123.12 166.47
  Q 102.58 195.19 94.78 206.16
  A 0.50 0.49 -54.6 0 1 94.08 206.28
  L 65.70 185.99
  A 0.45 0.44 -55.6 0 1 65.59 185.37
  Q 68.11 181.58 74.75 172.63
  C 87.16 155.89 106.59 146.04 127.71 146.04
  Z"
/>
</svg>
