<?xml version="1.0" encoding="UTF-8" standalone="no"?>
<!DOCTYPE svg PUBLIC "-//W3C//DTD SVG 1.1//EN" "http://www.w3.org/Graphics/SVG/1.1/DTD/svg11.dtd">
<svg xmlns="http://www.w3.org/2000/svg" version="1.1" viewBox="0.00 0.00 550.00 597.00">
<g stroke-width="2.00" fill="none" stroke-linecap="butt">
<path stroke="#f8a29b" vector-effect="non-scaling-stroke" d="
  M 176.74 198.58
  C 179.12 189.62 189.79 186.29 198.30 185.65
  Q 210.79 184.71 224.89 188.31
  Q 244.62 193.35 262.14 203.41
  Q 262.58 203.66 262.81 203.21
  L 280.27 168.54
  A 0.40 0.39 30.4 0 0 280.13 168.02
  Q 250.22 149.14 214.31 146.95
  C 190.84 145.52 167.46 149.89 149.04 164.22
  C 132.40 177.16 127.29 197.47 129.88 217.64
  C 132.17 235.41 144.56 249.60 161.18 257.27
  C 177.87 264.97 195.41 269.29 212.03 275.09
  Q 219.36 277.64 226.07 281.47
  C 230.95 284.26 234.34 288.80 234.94 294.51
  C 236.59 310.11 221.99 315.23 209.19 315.77
  Q 193.67 316.42 177.90 312.06
  C 162.57 307.82 148.65 301.41 136.86 291.31
  A 0.41 0.41 0.0 0 0 136.23 291.44
  L 119.50 325.22
  Q 119.34 325.54 119.61 325.77
  C 147.09 348.90 186.27 357.32 220.97 352.72
  Q 245.05 349.52 262.68 336.26
  Q 281.66 321.99 283.01 295.85
  C 283.70 282.47 280.87 268.96 271.96 258.60
  C 264.90 250.40 256.38 244.36 246.25 240.05
  Q 233.82 234.77 221.29 230.93
  C 211.06 227.80 200.74 224.83 190.89 220.71
  C 180.64 216.42 173.66 210.16 176.74 198.58"
/>
<path stroke="#f8a29b" vector-effect="non-scaling-stroke" d="
  M 361.04 282.05
  L 361.05 244.19
  Q 361.05 243.59 360.44 243.59
  L 312.21 243.59
  A 0.32 0.32 0.0 0 0 311.89 243.91
  L 311.88 446.28
  A 0.41 0.40 90.0 0 0 312.28 446.69
  L 360.77 446.69
  Q 361.06 446.69 361.06 446.41
  Q 361.03 397.17 361.06 348.92
  C 361.07 328.15 369.09 310.96 385.92 299.65
  C 398.53 291.18 414.26 288.65 429.73 289.54
  Q 430.32 289.57 430.32 288.98
  L 430.31 242.42
  Q 430.31 241.84 429.73 241.85
  Q 383.38 243.01 361.66 282.21
  Q 361.04 283.33 361.04 282.05"
/>
</g>
<path fill="#f14537" d="
  M 270.88 0.00
  L 278.99 0.00
  Q 302.43 0.76 321.46 8.80
  Q 334.66 14.38 344.13 19.85
  C 361.82 30.08 379.65 40.97 397.75 50.94
  Q 448.44 78.87 497.85 109.70
  Q 510.54 117.62 519.85 129.69
  Q 540.41 156.37 548.04 189.31
  C 549.04 193.63 549.52 198.17 550.00 202.62
  L 550.00 391.75
  Q 549.28 396.24 548.66 400.74
  C 544.28 432.40 530.38 460.81 505.17 480.64
  Q 496.46 487.49 484.65 495.06
  C 458.57 511.79 433.71 525.37 405.51 540.95
  C 384.67 552.46 364.22 564.45 343.26 576.53
  Q 333.80 581.99 321.23 587.39
  Q 300.97 596.08 278.87 597.00
  L 271.25 597.00
  Q 248.06 596.22 226.84 587.07
  Q 212.83 581.04 199.74 573.21
  C 185.15 564.50 170.82 555.43 156.13 547.34
  C 121.65 528.38 89.17 510.45 56.31 489.21
  Q 46.06 482.59 40.26 477.40
  C 26.09 464.73 15.27 447.31 8.37 429.68
  Q 1.44 411.97 0.00 394.88
  L 0.00 203.50
  Q 0.57 197.89 2.03 188.52
  Q 8.44 147.40 37.87 120.71
  Q 43.78 115.35 53.77 108.41
  C 82.27 88.62 112.88 71.93 143.17 55.91
  C 162.55 45.66 181.33 34.15 200.27 22.89
  Q 209.38 17.48 222.03 11.64
  Q 245.24 0.92 270.88 0.00
  Z
  M 176.74 198.58
  C 179.12 189.62 189.79 186.29 198.30 185.65
  Q 210.79 184.71 224.89 188.31
  Q 244.62 193.35 262.14 203.41
  Q 262.58 203.66 262.81 203.21
  L 280.27 168.54
  A 0.40 0.39 30.4 0 0 280.13 168.02
  Q 250.22 149.14 214.31 146.95
  C 190.84 145.52 167.46 149.89 149.04 164.22
  C 132.40 177.16 127.29 197.47 129.88 217.64
  C 132.17 235.41 144.56 249.60 161.18 257.27
  C 177.87 264.97 195.41 269.29 212.03 275.09
  Q 219.36 277.64 226.07 281.47
  C 230.95 284.26 234.34 288.80 234.94 294.51
  C 236.59 310.11 221.99 315.23 209.19 315.77
  Q 193.67 316.42 177.90 312.06
  C 162.57 307.82 148.65 301.41 136.86 291.31
  A 0.41 0.41 0.0 0 0 136.23 291.44
  L 119.50 325.22
  Q 119.34 325.54 119.61 325.77
  C 147.09 348.90 186.27 357.32 220.97 352.72
  Q 245.05 349.52 262.68 336.26
  Q 281.66 321.99 283.01 295.85
  C 283.70 282.47 280.87 268.96 271.96 258.60
  C 264.90 250.40 256.38 244.36 246.25 240.05
  Q 233.82 234.77 221.29 230.93
  C 211.06 227.80 200.74 224.83 190.89 220.71
  C 180.64 216.42 173.66 210.16 176.74 198.58
  Z
  M 361.04 282.05
  L 361.05 244.19
  Q 361.05 243.59 360.44 243.59
  L 312.21 243.59
  A 0.32 0.32 0.0 0 0 311.89 243.91
  L 311.88 446.28
  A 0.41 0.40 90.0 0 0 312.28 446.69
  L 360.77 446.69
  Q 361.06 446.69 361.06 446.41
  Q 361.03 397.17 361.06 348.92
  C 361.07 328.15 369.09 310.96 385.92 299.65
  C 398.53 291.18 414.26 288.65 429.73 289.54
  Q 430.32 289.57 430.32 288.98
  L 430.31 242.42
  Q 430.31 241.84 429.73 241.85
  Q 383.38 243.01 361.66 282.21
  Q 361.04 283.33 361.04 282.05
  Z"
/>
<path fill="#ffffff" d="
  M 176.74 198.58
  C 173.66 210.16 180.64 216.42 190.89 220.71
  C 200.74 224.83 211.06 227.80 221.29 230.93
  Q 233.82 234.77 246.25 240.05
  C 256.38 244.36 264.90 250.40 271.96 258.60
  C 280.87 268.96 283.70 282.47 283.01 295.85
  Q 281.66 321.99 262.68 336.26
  Q 245.05 349.52 220.97 352.72
  C 186.27 357.32 147.09 348.90 119.61 325.77
  Q 119.34 325.54 119.50 325.22
  L 136.23 291.44
  A 0.41 0.41 0.0 0 1 136.86 291.31
  C 148.65 301.41 162.57 307.82 177.90 312.06
  Q 193.67 316.42 209.19 315.77
  C 221.99 315.23 236.59 310.11 234.94 294.51
  C 234.34 288.80 230.95 284.26 226.07 281.47
  Q 219.36 277.64 212.03 275.09
  C 195.41 269.29 177.87 264.97 161.18 257.27
  C 144.56 249.60 132.17 235.41 129.88 217.64
  C 127.29 197.47 132.40 177.16 149.04 164.22
  C 167.46 149.89 190.84 145.52 214.31 146.95
  Q 250.22 149.14 280.13 168.02
  A 0.40 0.39 30.4 0 1 280.27 168.54
  L 262.81 203.21
  Q 262.58 203.66 262.14 203.41
  Q 244.62 193.35 224.89 188.31
  Q 210.79 184.71 198.30 185.65
  C 189.79 186.29 179.12 189.62 176.74 198.58
  Z"
/>
<path fill="#ffffff" d="
  M 361.04 282.05
  Q 361.04 283.33 361.66 282.21
  Q 383.38 243.01 429.73 241.85
  Q 430.31 241.84 430.31 242.42
  L 430.32 288.98
  Q 430.32 289.57 429.73 289.54
  C 414.26 288.65 398.53 291.18 385.92 299.65
  C 369.09 310.96 361.07 328.15 361.06 348.92
  Q 361.03 397.17 361.06 446.41
  Q 361.06 446.69 360.77 446.69
  L 312.28 446.69
  A 0.41 0.40 90.0 0 1 311.88 446.28
  L 311.89 243.91
  A 0.32 0.32 0.0 0 1 312.21 243.59
  L 360.44 243.59
  Q 361.05 243.59 361.05 244.19
  L 361.04 282.05
  Z"
/>
</svg>
