<?xml version="1.0" encoding="UTF-8" standalone="no"?>
<!DOCTYPE svg PUBLIC "-//W3C//DTD SVG 1.1//EN" "http://www.w3.org/Graphics/SVG/1.1/DTD/svg11.dtd">
<svg xmlns="http://www.w3.org/2000/svg" version="1.1" viewBox="0.00 0.00 128.00 128.00">
<path fill="#e3511f" d="
  M 125.70 0.00
  Q 127.61 0.95 127.61 2.25
  Q 127.64 64.00 127.62 125.75
  Q 127.62 126.96 125.76 128.00
  L 2.26 128.00
  Q 0.39 127.07 0.39 125.75
  Q 0.36 64.00 0.38 2.25
  Q 0.38 1.03 2.24 0.00
  L 125.70 0.00
  Z
  M 7.48 121.63
  A 1.37 1.37 0.0 0 0 8.75 123.00
  Q 15.94 123.55 22.32 122.88
  Q 43.44 120.64 58.26 105.73
  Q 64.92 99.03 71.29 90.04
  C 84.26 71.75 95.38 51.39 119.44 48.04
  A 1.25 1.25 0.0 0 0 120.52 46.80
  L 120.52 6.57
  A 1.69 1.69 0.0 0 0 118.94 4.88
  C 96.65 3.46 76.76 10.47 62.58 28.09
  Q 54.86 37.67 46.56 51.32
  Q 41.40 59.80 34.90 67.13
  Q 24.28 79.12 8.65 81.00
  A 1.33 1.33 0.0 0 0 7.48 82.32
  L 7.48 121.63
  Z"
/>
</svg>
