<?xml version="1.0" encoding="UTF-8" standalone="no"?>
<!DOCTYPE svg PUBLIC "-//W3C//DTD SVG 1.1//EN" "http://www.w3.org/Graphics/SVG/1.1/DTD/svg11.dtd">
<svg xmlns="http://www.w3.org/2000/svg" version="1.1" viewBox="0.00 0.00 32.00 32.00">
<g stroke-width="2.00" fill="none" stroke-linecap="butt">
<path stroke="#6a8208" vector-effect="non-scaling-stroke" d="
  M 15.98 11.06
  L 15.98 7.84
  A 0.82 0.81 -0.0 0 0 15.16 7.03
  L 7.84 7.03
  A 0.84 0.83 0.0 0 0 7.00 7.86
  L 7.00 15.31
  A 0.80 0.79 -6.6 0 0 7.98 16.08
  Q 9.67 15.68 10.71 16.10
  A 1.27 1.26 11.1 0 1 11.50 17.27
  L 11.50 19.59
  A 0.92 0.91 0.0 0 1 10.58 20.50
  L 7.55 20.50
  A 0.58 0.58 0.0 0 0 6.97 21.08
  L 6.97 24.23
  A 0.79 0.79 0.0 0 0 7.76 25.02
  L 10.58 25.02
  A 0.95 0.95 0.0 0 0 11.52 23.92
  Q 10.94 20.30 13.00 20.43
  Q 13.71 20.48 15.43 20.49
  A 0.52 0.52 0.0 0 0 15.95 19.97
  L 15.95 16.58
  A 0.62 0.62 0.0 0 1 16.57 15.96
  L 19.11 15.96
  A 1.40 1.39 -0.0 0 1 20.51 17.35
  L 20.51 19.25
  A 1.27 1.27 0.0 0 1 19.24 20.52
  L 16.47 20.52
  A 0.48 0.48 0.0 0 0 15.99 21.00
  L 15.99 24.34
  A 0.68 0.68 0.0 0 0 16.67 25.02
  L 19.81 25.02
  A 0.71 0.71 0.0 0 0 20.51 24.21
  Q 19.95 20.14 22.21 20.43
  Q 23.41 20.59 24.43 20.45
  A 0.68 0.67 86.1 0 0 25.01 19.78
  L 25.01 16.58
  A 0.57 0.57 0.0 0 0 24.44 16.01
  L 22.08 16.01
  A 1.66 1.66 0.0 0 1 20.42 14.35
  L 20.42 12.99
  A 1.54 1.54 0.0 0 1 21.96 11.45
  L 24.44 11.45
  A 0.57 0.57 0.0 0 0 25.01 10.88
  L 25.01 7.76
  A 0.78 0.77 90.0 0 0 24.24 6.98
  L 21.17 6.98
  A 0.68 0.67 87.6 0 0 20.50 7.72
  Q 20.69 9.89 20.27 11.00
  A 0.79 0.79 0.0 0 1 19.53 11.52
  L 16.44 11.52
  A 0.46 0.46 0.0 0 1 15.98 11.06"
/>
<path stroke="#6a8208" vector-effect="non-scaling-stroke" d="
  M 16.0647 12.3238
  A 0.83 0.83 0.0 0 0 15.2435 11.4852
  L 12.3636 11.4550
  A 0.83 0.83 0.0 0 0 11.5250 12.2763
  L 11.4953 15.1162
  A 0.83 0.83 0.0 0 0 12.3165 15.9548
  L 15.1964 15.9850
  A 0.83 0.83 0.0 0 0 16.0350 15.1637
  L 16.0647 12.3238"
/>
</g>
<path fill="#c8f900" d="
  M 32.00 0.00
  L 32.00 32.00
  L 0.00 32.00
  L 0.00 0.00
  L 32.00 0.00
  Z
  M 15.98 11.06
  L 15.98 7.84
  A 0.82 0.81 -0.0 0 0 15.16 7.03
  L 7.84 7.03
  A 0.84 0.83 0.0 0 0 7.00 7.86
  L 7.00 15.31
  A 0.80 0.79 -6.6 0 0 7.98 16.08
  Q 9.67 15.68 10.71 16.10
  A 1.27 1.26 11.1 0 1 11.50 17.27
  L 11.50 19.59
  A 0.92 0.91 0.0 0 1 10.58 20.50
  L 7.55 20.50
  A 0.58 0.58 0.0 0 0 6.97 21.08
  L 6.97 24.23
  A 0.79 0.79 0.0 0 0 7.76 25.02
  L 10.58 25.02
  A 0.95 0.95 0.0 0 0 11.52 23.92
  Q 10.94 20.30 13.00 20.43
  Q 13.71 20.48 15.43 20.49
  A 0.52 0.52 0.0 0 0 15.95 19.97
  L 15.95 16.58
  A 0.62 0.62 0.0 0 1 16.57 15.96
  L 19.11 15.96
  A 1.40 1.39 -0.0 0 1 20.51 17.35
  L 20.51 19.25
  A 1.27 1.27 0.0 0 1 19.24 20.52
  L 16.47 20.52
  A 0.48 0.48 0.0 0 0 15.99 21.00
  L 15.99 24.34
  A 0.68 0.68 0.0 0 0 16.67 25.02
  L 19.81 25.02
  A 0.71 0.71 0.0 0 0 20.51 24.21
  Q 19.95 20.14 22.21 20.43
  Q 23.41 20.59 24.43 20.45
  A 0.68 0.67 86.1 0 0 25.01 19.78
  L 25.01 16.58
  A 0.57 0.57 0.0 0 0 24.44 16.01
  L 22.08 16.01
  A 1.66 1.66 0.0 0 1 20.42 14.35
  L 20.42 12.99
  A 1.54 1.54 0.0 0 1 21.96 11.45
  L 24.44 11.45
  A 0.57 0.57 0.0 0 0 25.01 10.88
  L 25.01 7.76
  A 0.78 0.77 90.0 0 0 24.24 6.98
  L 21.17 6.98
  A 0.68 0.67 87.6 0 0 20.50 7.72
  Q 20.69 9.89 20.27 11.00
  A 0.79 0.79 0.0 0 1 19.53 11.52
  L 16.44 11.52
  A 0.46 0.46 0.0 0 1 15.98 11.06
  Z"
/>
<path fill="#0b0a0f" d="
  M 16.44 11.52
  L 19.53 11.52
  A 0.79 0.79 0.0 0 0 20.27 11.00
  Q 20.69 9.89 20.50 7.72
  A 0.68 0.67 87.6 0 1 21.17 6.98
  L 24.24 6.98
  A 0.78 0.77 90.0 0 1 25.01 7.76
  L 25.01 10.88
  A 0.57 0.57 0.0 0 1 24.44 11.45
  L 21.96 11.45
  A 1.54 1.54 0.0 0 0 20.42 12.99
  L 20.42 14.35
  A 1.66 1.66 0.0 0 0 22.08 16.01
  L 24.44 16.01
  A 0.57 0.57 0.0 0 1 25.01 16.58
  L 25.01 19.78
  A 0.68 0.67 86.1 0 1 24.43 20.45
  Q 23.41 20.59 22.21 20.43
  Q 19.95 20.14 20.51 24.21
  A 0.71 0.71 0.0 0 1 19.81 25.02
  L 16.67 25.02
  A 0.68 0.68 0.0 0 1 15.99 24.34
  L 15.99 21.00
  A 0.48 0.48 0.0 0 1 16.47 20.52
  L 19.24 20.52
  A 1.27 1.27 0.0 0 0 20.51 19.25
  L 20.51 17.35
  A 1.40 1.39 0.0 0 0 19.11 15.96
  L 16.57 15.96
  A 0.62 0.62 0.0 0 0 15.95 16.58
  L 15.95 19.97
  A 0.52 0.52 0.0 0 1 15.43 20.49
  Q 13.71 20.48 13.00 20.43
  Q 10.94 20.30 11.52 23.92
  A 0.95 0.95 0.0 0 1 10.58 25.02
  L 7.76 25.02
  A 0.79 0.79 0.0 0 1 6.97 24.23
  L 6.97 21.08
  A 0.58 0.58 0.0 0 1 7.55 20.50
  L 10.58 20.50
  A 0.92 0.91 -0.0 0 0 11.50 19.59
  L 11.50 17.27
  A 1.27 1.26 11.1 0 0 10.71 16.10
  Q 9.67 15.68 7.98 16.08
  A 0.80 0.79 -6.6 0 1 7.00 15.31
  L 7.00 7.86
  A 0.84 0.83 0.0 0 1 7.84 7.03
  L 15.16 7.03
  A 0.82 0.81 -0.0 0 1 15.98 7.84
  L 15.98 11.06
  A 0.46 0.46 0.0 0 0 16.44 11.52
  Z
  M 16.0647 12.3238
  A 0.83 0.83 0.0 0 0 15.2435 11.4852
  L 12.3636 11.4550
  A 0.83 0.83 0.0 0 0 11.5250 12.2763
  L 11.4953 15.1162
  A 0.83 0.83 0.0 0 0 12.3165 15.9548
  L 15.1964 15.9850
  A 0.83 0.83 0.0 0 0 16.0350 15.1637
  L 16.0647 12.3238
  Z"
/>
<rect fill="#c8f900" x="-2.27" y="-2.25" transform="translate(13.78,13.72) rotate(0.6)" width="4.54" height="4.50" rx="0.83"/>
</svg>
