<?xml version="1.0" encoding="UTF-8" standalone="no"?>
<!DOCTYPE svg PUBLIC "-//W3C//DTD SVG 1.1//EN" "http://www.w3.org/Graphics/SVG/1.1/DTD/svg11.dtd">
<svg xmlns="http://www.w3.org/2000/svg" version="1.1" viewBox="0.00 0.00 48.00 48.00">
<g stroke-width="2.00" fill="none" stroke-linecap="butt">
<path stroke="#fd883b" vector-effect="non-scaling-stroke" d="
  M 44.70 16.80
  L 35.76 16.01"
/>
<path stroke="#fe8f47" vector-effect="non-scaling-stroke" d="
  M 3.32 32.70
  Q 7.32 31.25 11.46 31.15"
/>
</g>
<path fill="#fc7c27" d="
  M 23.82 0.00
  L 31.06 4.28
  A 0.45 0.44 45.2 0 1 31.06 5.05
  L 23.37 9.49
  A 0.29 0.29 0.0 0 1 23.07 9.49
  L 15.53 5.14
  A 0.11 0.11 0.0 0 1 15.53 4.95
  L 23.48 0.00
  L 23.82 0.00
  Z"
/>
<path fill="#fc7c27" d="
  M 44.70 16.80
  L 35.76 16.01
  L 27.67 11.80
  A 0.37 0.37 0.0 0 1 27.66 11.15
  L 35.19 6.81
  A 0.58 0.58 0.0 0 1 35.79 6.81
  L 44.25 11.69
  A 0.97 0.96 15.3 0 1 44.73 12.52
  L 44.70 16.80
  Z"
/>
<path fill="#fe944e" d="
  M 44.70 16.80
  L 44.69 35.55
  A 0.73 0.71 -15.4 0 1 44.33 36.17
  L 24.42 47.66
  A 1.42 1.42 0.0 0 1 23.00 47.66
  Q 12.15 41.24 4.13 36.59
  Q 2.67 35.74 3.32 32.70
  Q 7.32 31.25 11.46 31.15
  L 23.50 37.93
  A 1.10 1.09 44.3 0 0 24.61 37.92
  L 36.20 31.24
  A 0.96 0.96 0.0 0 0 36.67 30.47
  Q 37.15 22.52 35.76 16.01
  L 44.70 16.80
  Z"
/>
<path fill="#fe8a3f" d="
  M 11.46 31.15
  Q 7.32 31.25 3.32 32.70
  L 3.27 16.28
  A 0.16 0.16 0.0 0 1 3.50 16.14
  L 11.16 19.96
  A 0.46 0.46 0.0 0 1 11.41 20.37
  L 11.46 31.15
  Z"
/>
<path fill="#fe8a3f" d="
  M 30.60 24.58
  L 21.21 29.98
  A 1.48 1.48 0.0 0 1 18.99 28.70
  L 19.01 17.87
  A 1.48 1.48 0.0 0 1 21.23 16.59
  L 30.61 22.02
  A 1.48 1.48 0.0 0 1 30.60 24.58
  Z"
/>
</svg>
