<svg width="1024" height="1024" viewBox="0 0 1024 1024" fill="none" xmlns="http://www.w3.org/2000/svg">
<rect width="1024" height="1024" rx="5" fill="#F2F1E4" style="fill:#F2F1E4;fill:color(display-p3 0.9490 0.9451 0.8941);fill-opacity:1;"/>
<path d="M319.5 512C425.815 512 512 598.185 512 704.5C512 810.818 425.815 897 319.5 897V723.75C319.5 713.118 310.882 704.5 300.25 704.5H127C127 598.185 213.185 512 319.5 512ZM704.5 512C810.818 512 897 598.185 897 704.5H723.75C713.118 704.5 704.5 713.118 704.5 723.75V897C598.185 897 512 810.818 512 704.5C512 598.185 598.185 512 704.5 512ZM319.5 127C425.815 127 512 213.185 512 319.5C512 425.815 425.815 512 319.5 512C213.185 512 127 425.815 127 319.5H300.25C310.882 319.5 319.5 310.882 319.5 300.25V127ZM704.5 300.25C704.5 310.882 713.118 319.5 723.75 319.5H897C897 425.815 810.818 512 704.5 512C598.185 512 512 425.815 512 319.5C512 213.185 598.185 127 704.5 127V300.25Z" fill="black" style="fill:black;fill-opacity:1;"/>
</svg>
