<?xml version="1.0" encoding="UTF-8" standalone="no"?>
<!DOCTYPE svg PUBLIC "-//W3C//DTD SVG 1.1//EN" "http://www.w3.org/Graphics/SVG/1.1/DTD/svg11.dtd">
<svg xmlns="http://www.w3.org/2000/svg" version="1.1" viewBox="0.00 0.00 32.00 32.00">
<g stroke-width="2.00" fill="none" stroke-linecap="butt">
<path stroke="#f4f4f5" vector-effect="non-scaling-stroke" d="
  M 32.00 10.87
  L 31.43 11.59
  A 0.16 0.16 0.0 0 1 31.16 11.56
  Q 31.11 11.45 30.99 11.34
  Q 30.89 11.25 30.53 11.46
  Q 29.61 12.00 28.78 12.85"
/>
<path stroke="#adb3fe" vector-effect="non-scaling-stroke" d="
  M 28.78 12.85
  L 26.90 9.37
  A 0.76 0.75 -38.8 0 1 27.00 8.51
  Q 28.63 6.64 28.51 3.89
  A 0.46 0.45 -18.1 0 0 27.80 3.53
  Q 25.41 5.14 23.26 5.59
  A 4.01 3.92 45.6 0 1 21.46 5.55
  C 16.25 4.19 13.74 4.76 9.16 5.76
  A 1.43 1.42 -38.2 0 1 8.22 5.65
  L 3.91 3.58
  A 0.43 0.42 -76.1 0 0 3.30 3.95
  Q 3.21 6.57 4.84 8.49
  A 0.78 0.77 -47.8 0 1 4.88 9.43
  Q 3.00 12.17 2.75 15.45"
/>
<path stroke="#f4f4f5" vector-effect="non-scaling-stroke" d="
  M 2.75 15.45
  L 0.00 16.01"
/>
<path stroke="#a4aaf6" vector-effect="non-scaling-stroke" d="
  M 28.78 12.85
  Q 28.57 13.38 28.84 13.21"
/>
<path stroke="#4e5cff" vector-effect="non-scaling-stroke" d="
  M 28.84 13.21
  L 26.78 13.30"
/>
<path stroke="#adb3fe" vector-effect="non-scaling-stroke" d="
  M 26.78 13.30
  C 24.75 4.61 13.58 10.72 18.11 16.63
  A 1.16 1.15 -58.3 0 1 18.32 17.55
  Q 17.98 19.24 16.40 20.59
  A 0.69 0.68 -45.7 0 1 15.52 20.61
  Q 13.96 19.37 13.56 17.58
  A 1.13 1.12 58.5 0 1 13.79 16.60
  Q 14.84 15.33 14.81 14.51
  C 14.56 6.13 3.50 7.57 5.25 16.45"
/>
<path stroke="#4e5cff" vector-effect="non-scaling-stroke" d="
  M 5.25 16.45
  L 3.14 17.82"
/>
<path stroke="#a4aaf6" vector-effect="non-scaling-stroke" d="
  M 3.14 17.82
  L 2.75 15.45"
/>
<path stroke="#9ea6fe" vector-effect="non-scaling-stroke" d="
  M 26.78 13.30
  C 27.39 17.28 24.05 21.54 19.96 18.84
  A 0.29 0.28 -50.1 0 0 19.60 18.88
  L 17.16 21.32
  A 0.37 0.37 0.0 0 0 17.45 21.95
  Q 18.75 21.85 19.79 21.12
  A 1.26 1.26 0.0 0 1 20.72 20.90
  L 22.61 21.19
  A 0.32 0.32 0.0 0 1 22.86 21.65
  Q 20.86 25.82 16.56 27.12
  A 2.04 1.99 43.9 0 1 15.43 27.13
  Q 11.23 25.97 9.15 21.94
  A 0.67 0.67 0.0 0 1 9.51 21.00
  Q 10.67 20.56 14.50 22.01
  A 0.32 0.32 0.0 0 0 14.84 21.48
  L 12.52 19.15
  A 0.75 0.74 54.9 0 0 11.68 19.00
  Q 7.40 20.92 5.25 16.45"
/>
<path stroke="#a5acfe" vector-effect="non-scaling-stroke" d="
  M 13.04 14.34
  A 2.54 2.54 0.0 0 0 10.50 11.80
  A 2.54 2.54 0.0 0 0 7.96 14.34
  A 2.54 2.54 0.0 0 0 10.50 16.88
  A 2.54 2.54 0.0 0 0 13.04 14.34"
/>
<path stroke="#a5acfe" vector-effect="non-scaling-stroke" d="
  M 23.88 14.33
  A 2.54 2.54 0.0 0 0 21.34 11.79
  A 2.54 2.54 0.0 0 0 18.80 14.33
  A 2.54 2.54 0.0 0 0 21.34 16.87
  A 2.54 2.54 0.0 0 0 23.88 14.33"
/>
<path stroke="#959df5" vector-effect="non-scaling-stroke" d="
  M 3.14 17.82
  C 4.78 25.37 12.94 30.56 20.39 27.40
  Q 29.73 23.44 28.84 13.21"
/>
<path stroke="#9ca3f5" vector-effect="non-scaling-stroke" d="
  M 10.9203 13.1139
  A 0.85 0.71 -108.5 0 0 10.5167 14.1453
  A 0.85 0.71 -108.5 0 0 11.4597 14.7261
  A 0.85 0.71 -108.5 0 0 11.8633 13.6947
  A 0.85 0.71 -108.5 0 0 10.9203 13.1139"
/>
<path stroke="#a5acfe" vector-effect="non-scaling-stroke" d="
  M 21.24 14.40
  Q 21.65 13.47 20.82 13.06
  A 0.60 0.51 17.5 0 0 19.99 13.41
  Q 19.93 13.93 20.15 14.38
  A 0.62 0.59 44.7 0 0 21.24 14.40"
/>
</g>
<path fill="#fdfdfd" d="
  M 28.38 0.00
  Q 31.49 1.10 32.00 4.40
  L 32.00 10.87
  L 31.43 11.59
  A 0.16 0.16 0.0 0 1 31.16 11.56
  Q 31.11 11.45 30.99 11.34
  Q 30.89 11.25 30.53 11.46
  Q 29.61 12.00 28.78 12.85
  L 26.90 9.37
  A 0.76 0.75 -38.8 0 1 27.00 8.51
  Q 28.63 6.64 28.51 3.89
  A 0.46 0.45 -18.1 0 0 27.80 3.53
  Q 25.41 5.14 23.26 5.59
  A 4.01 3.92 45.6 0 1 21.46 5.55
  C 16.25 4.19 13.74 4.76 9.16 5.76
  A 1.43 1.42 -38.2 0 1 8.22 5.65
  L 3.91 3.58
  A 0.43 0.42 -76.1 0 0 3.30 3.95
  Q 3.21 6.57 4.84 8.49
  A 0.78 0.77 -47.8 0 1 4.88 9.43
  Q 3.00 12.17 2.75 15.45
  L 0.00 16.01
  L 0.00 3.51
  Q 0.90 0.98 3.44 0.00
  L 28.38 0.00
  Z"
/>
<path fill="#5c69ff" d="
  M 28.78 12.85
  Q 28.57 13.38 28.84 13.21
  L 26.78 13.30
  C 24.75 4.61 13.58 10.72 18.11 16.63
  A 1.16 1.15 -58.3 0 1 18.32 17.55
  Q 17.98 19.24 16.40 20.59
  A 0.69 0.68 -45.7 0 1 15.52 20.61
  Q 13.96 19.37 13.56 17.58
  A 1.13 1.12 58.5 0 1 13.79 16.60
  Q 14.84 15.33 14.81 14.51
  C 14.56 6.13 3.50 7.57 5.25 16.45
  L 3.14 17.82
  L 2.75 15.45
  Q 3.00 12.17 4.88 9.43
  A 0.78 0.77 -47.8 0 0 4.84 8.49
  Q 3.21 6.57 3.30 3.95
  A 0.43 0.42 -76.1 0 1 3.91 3.58
  L 8.22 5.65
  A 1.43 1.42 -38.2 0 0 9.16 5.76
  C 13.74 4.76 16.25 4.19 21.46 5.55
  A 4.01 3.92 45.6 0 0 23.26 5.59
  Q 25.41 5.14 27.80 3.53
  A 0.46 0.45 -18.1 0 1 28.51 3.89
  Q 28.63 6.64 27.00 8.51
  A 0.76 0.75 -38.8 0 0 26.90 9.37
  L 28.78 12.85
  Z"
/>
<path fill="#fdfdfd" d="
  M 26.78 13.30
  C 27.39 17.28 24.05 21.54 19.96 18.84
  A 0.29 0.28 -50.1 0 0 19.60 18.88
  L 17.16 21.32
  A 0.37 0.37 0.0 0 0 17.45 21.95
  Q 18.75 21.85 19.79 21.12
  A 1.26 1.26 0.0 0 1 20.72 20.90
  L 22.61 21.19
  A 0.32 0.32 0.0 0 1 22.86 21.65
  Q 20.86 25.82 16.56 27.12
  A 2.04 1.99 43.9 0 1 15.43 27.13
  Q 11.23 25.97 9.15 21.94
  A 0.67 0.67 0.0 0 1 9.51 21.00
  Q 10.67 20.56 14.50 22.01
  A 0.32 0.32 0.0 0 0 14.84 21.48
  L 12.52 19.15
  A 0.75 0.74 54.9 0 0 11.68 19.00
  Q 7.40 20.92 5.25 16.45
  C 3.50 7.57 14.56 6.13 14.81 14.51
  Q 14.84 15.33 13.79 16.60
  A 1.13 1.12 58.5 0 0 13.56 17.58
  Q 13.96 19.37 15.52 20.61
  A 0.69 0.68 -45.7 0 0 16.40 20.59
  Q 17.98 19.24 18.32 17.55
  A 1.16 1.15 -58.3 0 0 18.11 16.63
  C 13.58 10.72 24.75 4.61 26.78 13.30
  Z
  M 13.04 14.34
  A 2.54 2.54 0.0 0 0 10.50 11.80
  A 2.54 2.54 0.0 0 0 7.96 14.34
  A 2.54 2.54 0.0 0 0 10.50 16.88
  A 2.54 2.54 0.0 0 0 13.04 14.34
  Z
  M 23.88 14.33
  A 2.54 2.54 0.0 0 0 21.34 11.79
  A 2.54 2.54 0.0 0 0 18.80 14.33
  A 2.54 2.54 0.0 0 0 21.34 16.87
  A 2.54 2.54 0.0 0 0 23.88 14.33
  Z"
/>
<path fill="#ebebec" d="
  M 32.00 10.87
  L 32.00 27.59
  Q 31.35 31.32 27.60 32.00
  L 4.61 32.00
  Q 1.23 31.65 0.00 28.47
  L 0.00 16.01
  L 2.75 15.45
  L 3.14 17.82
  C 4.78 25.37 12.94 30.56 20.39 27.40
  Q 29.73 23.44 28.84 13.21
  Q 28.57 13.38 28.78 12.85
  Q 29.61 12.00 30.53 11.46
  Q 30.89 11.25 30.99 11.34
  Q 31.11 11.45 31.16 11.56
  A 0.16 0.16 0.0 0 0 31.43 11.59
  L 32.00 10.87
  Z"
/>
<path fill="#4d5bfe" d="
  M 13.04 14.34
  A 2.54 2.54 0.0 0 1 10.50 16.88
  A 2.54 2.54 0.0 0 1 7.96 14.34
  A 2.54 2.54 0.0 0 1 10.50 11.80
  A 2.54 2.54 0.0 0 1 13.04 14.34
  Z
  M 10.9203 13.1139
  A 0.85 0.71 -108.5 0 0 10.5167 14.1453
  A 0.85 0.71 -108.5 0 0 11.4597 14.7261
  A 0.85 0.71 -108.5 0 0 11.8633 13.6947
  A 0.85 0.71 -108.5 0 0 10.9203 13.1139
  Z"
/>
<path fill="#4d5bfe" d="
  M 23.88 14.33
  A 2.54 2.54 0.0 0 1 21.34 16.87
  A 2.54 2.54 0.0 0 1 18.80 14.33
  A 2.54 2.54 0.0 0 1 21.34 11.79
  A 2.54 2.54 0.0 0 1 23.88 14.33
  Z
  M 21.24 14.40
  Q 21.65 13.47 20.82 13.06
  A 0.60 0.51 17.5 0 0 19.99 13.41
  Q 19.93 13.93 20.15 14.38
  A 0.62 0.59 44.7 0 0 21.24 14.40
  Z"
/>
<path fill="#3f4efe" d="
  M 28.84 13.21
  Q 29.73 23.44 20.39 27.40
  C 12.94 30.56 4.78 25.37 3.14 17.82
  L 5.25 16.45
  Q 7.40 20.92 11.68 19.00
  A 0.75 0.74 54.9 0 1 12.52 19.15
  L 14.84 21.48
  A 0.32 0.32 0.0 0 1 14.50 22.01
  Q 10.67 20.56 9.51 21.00
  A 0.67 0.67 0.0 0 0 9.15 21.94
  Q 11.23 25.97 15.43 27.13
  A 2.04 1.99 43.9 0 0 16.56 27.12
  Q 20.86 25.82 22.86 21.65
  A 0.32 0.32 0.0 0 0 22.61 21.19
  L 20.72 20.90
  A 1.26 1.26 0.0 0 0 19.79 21.12
  Q 18.75 21.85 17.45 21.95
  A 0.37 0.37 0.0 0 1 17.16 21.32
  L 19.60 18.88
  A 0.29 0.28 -50.1 0 1 19.96 18.84
  C 24.05 21.54 27.39 17.28 26.78 13.30
  L 28.84 13.21
  Z"
/>
<ellipse fill="#ebebec" cx="0.00" cy="0.00" transform="translate(11.19,13.92) rotate(-108.5)" rx="0.85" ry="0.71"/>
<path fill="#fdfdfd" d="
  M 21.24 14.40
  A 0.62 0.59 44.7 0 1 20.15 14.38
  Q 19.93 13.93 19.99 13.41
  A 0.60 0.51 17.5 0 1 20.82 13.06
  Q 21.65 13.47 21.24 14.40
  Z"
/>
</svg>
