<svg width="860" height="860" viewBox="0 0 860 860" fill="none" xmlns="http://www.w3.org/2000/svg">
<rect width="860" height="860" rx="24.7775" fill="#0F8BFF"/>
<g filter="url(#filter0_ddi_636_3997)" data-figma-bg-blur-radius="99.8186">
<path d="M431.164 475.537C385.95 475.537 349.163 438.612 349.163 393.229C349.163 388.221 353.206 384.154 358.196 384.154C363.185 384.154 367.237 388.221 367.237 393.229C367.237 428.613 395.912 457.396 431.164 457.396C466.423 457.396 495.099 428.613 495.099 393.229C495.099 388.221 499.142 384.154 504.131 384.154C509.121 384.154 513.173 388.221 513.173 393.229C513.173 438.612 476.386 475.537 431.164 475.537ZM406.243 384.154C413.729 384.154 419.79 390.239 419.79 397.753C419.79 405.267 413.729 411.362 406.243 411.362C398.757 411.362 392.684 405.267 392.684 397.753C392.684 390.239 398.757 384.154 406.243 384.154ZM456.093 384.154C463.579 384.154 469.651 390.239 469.651 397.753C469.651 405.267 463.579 411.362 456.093 411.362C448.607 411.362 442.534 405.267 442.534 397.753C442.534 390.239 448.607 384.154 456.093 384.154ZM534.493 341.314H487.593L514.321 217.971C517.34 204.038 501.017 194.214 490.196 203.45L278.629 384.032C224.785 429.989 257.164 518.377 327.843 518.377H374.742L348.014 641.72C344.995 655.653 361.319 665.477 372.14 656.24L583.707 475.659C637.55 429.702 605.171 341.314 534.493 341.314Z" fill="white"/>
</g>
<defs>
<filter id="filter0_ddi_636_3997" x="151.902" y="100.024" width="558.531" height="659.642" filterUnits="userSpaceOnUse" color-interpolation-filters="sRGB">
<feFlood flood-opacity="0" result="BackgroundImageFix"/>
<feColorMatrix in="SourceAlpha" type="matrix" values="0 0 0 0 0 0 0 0 0 0 0 0 0 0 0 0 0 0 127 0" result="hardAlpha"/>
<feOffset/>
<feGaussianBlur stdDeviation="1.46362"/>
<feComposite in2="hardAlpha" operator="out"/>
<feColorMatrix type="matrix" values="0 0 0 0 0 0 0 0 0 0 0 0 0 0 0 0 0 0 0.2 0"/>
<feBlend mode="normal" in2="BackgroundImageFix" result="effect1_dropShadow_636_3997"/>
<feColorMatrix in="SourceAlpha" type="matrix" values="0 0 0 0 0 0 0 0 0 0 0 0 0 0 0 0 0 0 127 0" result="hardAlpha"/>
<feOffset dy="19.5149"/>
<feGaussianBlur stdDeviation="19.5149"/>
<feColorMatrix type="matrix" values="0 0 0 0 0 0 0 0 0 0 0 0 0 0 0 0 0 0 0.15 0"/>
<feBlend mode="normal" in2="effect1_dropShadow_636_3997" result="effect2_dropShadow_636_3997"/>
<feBlend mode="normal" in="SourceGraphic" in2="effect2_dropShadow_636_3997" result="shape"/>
<feColorMatrix in="SourceAlpha" type="matrix" values="0 0 0 0 0 0 0 0 0 0 0 0 0 0 0 0 0 0 127 0" result="hardAlpha"/>
<feOffset/>
<feGaussianBlur stdDeviation="1.46362"/>
<feComposite in2="hardAlpha" operator="arithmetic" k2="-1" k3="1"/>
<feColorMatrix type="matrix" values="0 0 0 0 1 0 0 0 0 1 0 0 0 0 1 0 0 0 0.1 0"/>
<feBlend mode="normal" in2="shape" result="effect3_innerShadow_636_3997"/>
</filter>
<clipPath id="bgblur_0_636_3997_clip_path" transform="translate(-151.902 -100.024)"><path d="M431.164 475.537C385.95 475.537 349.163 438.612 349.163 393.229C349.163 388.221 353.206 384.154 358.196 384.154C363.185 384.154 367.237 388.221 367.237 393.229C367.237 428.613 395.912 457.396 431.164 457.396C466.423 457.396 495.099 428.613 495.099 393.229C495.099 388.221 499.142 384.154 504.131 384.154C509.121 384.154 513.173 388.221 513.173 393.229C513.173 438.612 476.386 475.537 431.164 475.537ZM406.243 384.154C413.729 384.154 419.79 390.239 419.79 397.753C419.79 405.267 413.729 411.362 406.243 411.362C398.757 411.362 392.684 405.267 392.684 397.753C392.684 390.239 398.757 384.154 406.243 384.154ZM456.093 384.154C463.579 384.154 469.651 390.239 469.651 397.753C469.651 405.267 463.579 411.362 456.093 411.362C448.607 411.362 442.534 405.267 442.534 397.753C442.534 390.239 448.607 384.154 456.093 384.154ZM534.493 341.314H487.593L514.321 217.971C517.34 204.038 501.017 194.214 490.196 203.45L278.629 384.032C224.785 429.989 257.164 518.377 327.843 518.377H374.742L348.014 641.72C344.995 655.653 361.319 665.477 372.14 656.24L583.707 475.659C637.55 429.702 605.171 341.314 534.493 341.314Z"/>
</clipPath></defs>
</svg>
