<?xml version="1.0" encoding="UTF-8" standalone="no"?>
<!DOCTYPE svg PUBLIC "-//W3C//DTD SVG 1.1//EN" "http://www.w3.org/Graphics/SVG/1.1/DTD/svg11.dtd">
<svg xmlns="http://www.w3.org/2000/svg" version="1.1" viewBox="0.00 0.00 192.00 192.00">
<g stroke-width="2.00" fill="none" stroke-linecap="butt">
<path stroke="#a063f9" vector-effect="non-scaling-stroke" d="
  M 58.05 0.00
  Q 49.43 3.29 40.99 6.67
  Q 20.56 14.86 7.39 32.47
  Q 3.63 37.49 0.00 42.67"
/>
<path stroke="#a063f9" vector-effect="non-scaling-stroke" d="
  M 162.33 0.00
  Q 168.62 4.61 170.97 6.51
  C 180.85 14.50 186.37 23.80 192.00 35.32"
/>
<path stroke="#9e60f7" vector-effect="non-scaling-stroke" d="
  M 192.00 61.32
  L 192.00 80.88"
/>
<path stroke="#9e60f7" vector-effect="non-scaling-stroke" d="
  M 192.00 129.32
  L 171.54 158.94"
/>
<path stroke="#cdacfb" vector-effect="non-scaling-stroke" d="
  M 171.54 158.94
  Q 174.02 147.01 172.77 136.49
  Q 172.37 133.23 168.28 133.54
  A 2.19 2.17 -62.0 0 0 167.38 133.82
  Q 165.66 134.82 165.67 137.75
  Q 165.70 145.26 165.69 153.71
  Q 165.69 157.62 161.76 157.98
  Q 159.73 158.16 154.03 157.87"
/>
<path stroke="#a063f9" vector-effect="non-scaling-stroke" d="
  M 154.03 157.87
  L 159.38 157.62
  A 0.22 0.22 0.0 0 0 159.54 157.25
  Q 151.99 148.68 147.58 137.85"
/>
<path stroke="#aa68fb" vector-effect="non-scaling-stroke" d="
  M 147.58 137.85
  Q 179.73 118.87 179.74 80.06
  C 179.74 65.22 176.65 50.78 172.76 36.28"
/>
<path stroke="#d1b0fc" vector-effect="non-scaling-stroke" d="
  M 172.76 36.28
  Q 173.19 23.14 159.76 23.34"
/>
<path stroke="#aa68fb" vector-effect="non-scaling-stroke" d="
  M 159.76 23.34
  L 156.31 23.23
  A 2.88 2.86 59.3 0 1 155.08 22.91
  Q 120.47 5.07 79.47 11.29
  C 65.73 13.37 52.07 17.88 38.90 22.98
  A 2.59 2.55 -56.0 0 1 38.01 23.16
  L 30.04 23.40"
/>
<path stroke="#d1b0fc" vector-effect="non-scaling-stroke" d="
  M 30.04 23.40
  Q 21.76 23.91 19.68 31.56
  A 4.92 4.71 53.2 0 0 19.52 32.87
  Q 19.67 39.39 19.60 45.96
  C 19.58 48.65 20.98 49.70 23.51 49.66"
/>
<path stroke="#aa68fb" vector-effect="non-scaling-stroke" d="
  M 23.51 49.66
  Q 20.32 58.17 19.16 63.45
  Q 14.51 84.66 25.26 103.04
  Q 33.48 117.11 43.97 129.21
  Q 45.15 130.57 46.38 130.93
  A 1.88 1.86 23.5 0 0 48.53 130.09
  Q 49.47 128.51 50.01 126.22
  Q 50.68 123.39 52.91 110.25
  Q 53.59 106.24 54.46 102.16"
/>
<path stroke="#9e60f7" vector-effect="non-scaling-stroke" d="
  M 54.46 102.16
  Q 57.49 103.61 60.53 102.79"
/>
<path stroke="#9a56f1" vector-effect="non-scaling-stroke" d="
  M 60.53 102.79
  L 64.50 103.29"
/>
<path stroke="#c7a3fa" vector-effect="non-scaling-stroke" d="
  M 64.50 103.29
  Q 64.53 103.38 64.55 103.48"
/>
<path stroke="#cda9fb" vector-effect="non-scaling-stroke" d="
  M 64.55 103.48
  Q 61.86 118.39 56.58 132.45"
/>
<path stroke="#c7a3fa" vector-effect="non-scaling-stroke" d="
  M 56.58 132.45
  L 51.31 145.06"
/>
<path stroke="#a063f9" vector-effect="non-scaling-stroke" d="
  M 51.31 145.06
  Q 38.50 148.13 26.53 155.12"
/>
<path stroke="#cdacfb" vector-effect="non-scaling-stroke" d="
  M 26.53 155.12
  Q 26.32 147.10 26.37 139.30
  Q 26.40 135.16 24.96 133.97
  Q 23.10 132.43 19.65 134.75"
/>
<path stroke="#a063f9" vector-effect="non-scaling-stroke" d="
  M 19.65 134.75
  L 0.00 110.94"
/>
<path stroke="#d5b3fc" vector-effect="non-scaling-stroke" d="
  M 159.76 23.34
  L 145.82 23.46
  A 3.30 3.28 -90.0 0 0 142.57 26.73
  L 142.57 26.86
  A 3.30 3.30 0.0 0 0 145.89 30.20
  Q 154.64 30.15 162.21 30.23
  C 164.85 30.26 165.92 32.92 165.92 35.55
  Q 165.90 42.30 166.13 46.69
  A 3.02 3.02 0.0 0 0 169.25 49.56
  L 169.44 49.55
  A 3.18 3.18 0.0 0 0 172.51 46.45
  L 172.76 36.28"
/>
<path stroke="#a566f9" vector-effect="non-scaling-stroke" d="
  M 147.58 137.85
  Q 147.85 128.12 149.48 118.27
  C 151.38 106.76 157.24 99.23 167.02 93.00"
/>
<path stroke="#cc85e5" vector-effect="non-scaling-stroke" d="
  M 167.02 93.00
  Q 168.10 92.58 169.43 92.87
  A 0.11 0.10 -75.1 0 0 169.55 92.79
  L 169.82 91.98
  A 0.25 0.25 0.0 0 0 169.58 91.65
  L 156.73 91.65
  A 1.00 0.98 69.7 0 1 155.97 91.29
  L 152.97 87.77"
/>
<path stroke="#cca6fa" vector-effect="non-scaling-stroke" d="
  M 152.97 87.77
  Q 154.35 88.14 155.80 88.65
  Q 155.99 88.72 156.12 88.93
  Q 156.27 89.17 156.44 89.26
  A 0.22 0.13 59.7 0 0 156.45 88.90
  Q 150.92 85.96 145.47 82.98"
/>
<path stroke="#d1acfb" vector-effect="non-scaling-stroke" d="
  M 145.47 82.98
  Q 145.76 82.09 145.54 80.70"
/>
<path stroke="#d5b3fc" vector-effect="non-scaling-stroke" d="
  M 145.54 80.70
  Q 145.62 70.85 144.23 61.06
  Q 143.35 54.84 140.76 48.49
  C 138.80 43.69 134.83 40.05 129.43 40.05
  Q 91.99 40.04 55.43 38.64
  Q 53.19 38.56 51.49 41.50"
/>
<path stroke="#c29af9" vector-effect="non-scaling-stroke" d="
  M 51.49 41.50
  C 48.46 44.68 47.84 51.90 48.05 55.76
  C 48.34 61.22 53.21 61.06 57.29 61.30"
/>
<path stroke="#a263f8" vector-effect="non-scaling-stroke" d="
  M 57.29 61.30
  Q 53.62 71.71 53.72 82.64"
/>
<path stroke="#aa68fb" vector-effect="non-scaling-stroke" d="
  M 53.72 82.64
  Q 53.94 84.10 56.40 83.99"
/>
<path stroke="#9e59f2" vector-effect="non-scaling-stroke" d="
  M 56.40 83.99
  Q 57.54 85.84 60.01 85.86"
/>
<path stroke="#cc85e5" vector-effect="non-scaling-stroke" d="
  M 60.01 85.86
  L 62.75 86.81
  A 0.18 0.18 0.0 0 1 62.72 87.16
  L 42.63 90.44
  A 0.10 0.09 73.8 0 1 42.53 90.38
  Q 42.47 90.24 42.75 90.06
  A 0.18 0.17 31.4 0 0 42.67 89.74
  Q 42.60 89.73 42.23 89.76
  A 1.67 1.54 23.3 0 0 41.49 90.02
  L 38.99 91.66
  A 0.22 0.22 0.0 0 1 38.67 91.37
  Q 39.03 90.70 39.03 90.23
  Q 39.02 89.79 38.87 89.90
  Q 38.62 90.09 38.58 90.09
  A 0.29 0.28 -51.3 0 1 38.52 89.54
  Q 43.38 87.76 47.36 86.87
  Q 40.09 87.45 34.39 91.56
  A 1.29 1.21 21.8 0 1 33.80 91.79
  L 28.35 92.40
  A 0.22 0.22 0.0 0 0 28.32 92.83
  C 31.97 93.78 35.13 92.80 39.19 93.06"
/>
<path stroke="#d46fb9" vector-effect="non-scaling-stroke" d="
  M 39.19 93.06
  C 46.08 98.17 53.04 96.53 60.97 98.30"
/>
<path stroke="#cc85e5" vector-effect="non-scaling-stroke" d="
  M 60.97 98.30
  L 60.12 98.39
  A 0.25 0.24 50.0 0 0 60.08 98.87
  L 60.50 98.99"
/>
<path stroke="#9e59f2" vector-effect="non-scaling-stroke" d="
  M 60.50 98.99
  L 55.20 100.38"
/>
<path stroke="#aa68fb" vector-effect="non-scaling-stroke" d="
  M 55.20 100.38
  Q 55.13 101.17 55.46 101.88"
/>
<path stroke="#a263f8" vector-effect="non-scaling-stroke" d="
  M 55.46 101.88
  L 54.46 102.16"
/>
<path stroke="#d5b3fc" vector-effect="non-scaling-stroke" d="
  M 23.51 49.66
  Q 26.01 49.03 26.17 45.25
  Q 26.43 39.31 26.33 33.98
  A 1.75 1.73 55.8 0 1 26.46 33.27
  Q 27.63 30.29 30.03 30.23
  Q 34.14 30.13 46.45 30.14
  A 3.09 3.09 0.0 0 0 49.55 27.05
  L 49.55 26.72
  A 3.23 3.22 -89.9 0 0 46.34 23.49
  L 30.04 23.40"
/>
<path stroke="#f8f4fc" vector-effect="non-scaling-stroke" d="
  M 145.54 80.70
  L 128.00 78.72"
/>
<path stroke="#c5a1f3" vector-effect="non-scaling-stroke" d="
  M 128.00 78.72
  Q 133.38 75.71 131.33 69.69"
/>
<path stroke="#c9abf9" vector-effect="non-scaling-stroke" d="
  M 131.33 69.69
  Q 129.96 66.95 127.47 65.76
  Q 125.80 64.96 120.12 62.53
  Q 118.87 62.00 118.12 61.28
  A 1.59 1.46 51.2 0 1 118.28 58.86
  C 120.35 57.64 124.61 58.11 126.28 59.03
  A 1.05 1.05 0.0 0 0 127.69 58.63
  L 128.78 56.75
  A 1.15 1.14 24.1 0 0 128.14 55.09
  L 123.59 53.61
  A 0.56 0.56 0.0 0 1 123.21 53.08
  L 123.21 50.92
  A 1.33 1.33 0.0 0 0 121.88 49.59
  L 119.75 49.59
  A 0.99 0.98 -90.0 0 0 118.77 50.58
  L 118.77 52.92
  A 0.82 0.81 -5.6 0 1 118.11 53.72
  C 114.52 54.42 111.50 55.92 111.29 59.74
  C 111.11 63.02 113.49 66.26 116.44 67.34
  Q 122.00 69.37 125.11 71.60"
/>
<path stroke="#c5a1f3" vector-effect="non-scaling-stroke" d="
  M 125.11 71.60
  C 125.68 77.70 116.70 74.72 114.03 73.37
  A 0.86 0.85 28.1 0 0 112.90 73.71
  L 111.55 76.03
  A 0.84 0.84 0.0 0 0 111.89 77.19
  L 114.74 78.70"
/>
<path stroke="#f8f4fc" vector-effect="non-scaling-stroke" d="
  M 114.74 78.70
  L 106.35 78.66"
/>
<path stroke="#eee8fa" vector-effect="non-scaling-stroke" d="
  M 106.35 78.66
  Q 100.51 76.00 94.25 76.74
  Q 92.42 76.95 93.00 79.19"
/>
<path stroke="#f8f4fc" vector-effect="non-scaling-stroke" d="
  M 93.00 79.19
  L 89.21 79.25"
/>
<path stroke="#f3eefb" vector-effect="non-scaling-stroke" d="
  M 89.21 79.25
  Q 89.47 77.73 88.80 76.96
  A 0.84 0.82 -18.2 0 0 88.21 76.67
  Q 80.71 76.33 75.25 76.51
  Q 73.71 76.55 73.80 79.07"
/>
<path stroke="#f8f4fc" vector-effect="non-scaling-stroke" d="
  M 73.80 79.07
  L 66.88 81.26"
/>
<path stroke="#c5a1f3" vector-effect="non-scaling-stroke" d="
  M 66.88 81.26
  L 66.85 80.61"
/>
<path stroke="#c9abf9" vector-effect="non-scaling-stroke" d="
  M 66.85 80.61
  Q 67.49 66.46 64.62 53.02"
/>
<path stroke="#ccaefa" vector-effect="non-scaling-stroke" d="
  M 64.62 53.02
  C 63.77 48.68 57.75 34.02 51.78 41.71"
/>
<path stroke="#e9e2fa" vector-effect="non-scaling-stroke" d="
  M 51.78 41.71
  L 51.49 41.50"
/>
<path stroke="#f8f4fc" vector-effect="non-scaling-stroke" d="
  M 105.3259 48.5075
  A 1.42 1.42 0.0 0 0 103.9385 47.0556
  L 71.7468 46.3251
  A 1.42 1.42 0.0 0 0 70.2950 47.7125
  L 70.2941 47.7525
  A 1.42 1.42 0.0 0 0 71.6815 49.2044
  L 103.8732 49.9349
  A 1.42 1.42 0.0 0 0 105.3250 48.5475
  L 105.3259 48.5075"
/>
<path stroke="#f3eefb" vector-effect="non-scaling-stroke" d="
  M 102.9429 58.4570
  A 1.59 1.59 0.0 0 0 101.4065 56.8151
  L 74.0216 55.9067
  A 1.59 1.59 0.0 0 0 72.3797 57.4431
  L 72.3771 57.5230
  A 1.59 1.59 0.0 0 0 73.9135 59.1649
  L 101.2984 60.0733
  A 1.59 1.59 0.0 0 0 102.9403 58.5369
  L 102.9429 58.4570"
/>
<path stroke="#f3eefb" vector-effect="non-scaling-stroke" d="
  M 96.6908 68.2324
  A 1.49 1.49 0.0 0 0 95.2244 66.7192
  L 74.9869 66.4012
  A 1.49 1.49 0.0 0 0 73.4736 67.8677
  L 73.4692 68.1476
  A 1.49 1.49 0.0 0 0 74.9356 69.6608
  L 95.1731 69.9788
  A 1.49 1.49 0.0 0 0 96.6864 68.5123
  L 96.6908 68.2324"
/>
<path stroke="#995ef6" vector-effect="non-scaling-stroke" d="
  M 64.62 53.02
  C 62.38 52.70 61.90 51.59 60.35 50.25
  A 0.20 0.20 0.0 0 0 60.04 50.50
  C 61.46 52.98 63.84 56.63 63.42 59.17
  Q 63.11 61.07 61.06 61.37"
/>
<path stroke="#a67df2" vector-effect="non-scaling-stroke" d="
  M 61.06 61.37
  C 60.37 53.68 56.30 48.74 51.46 42.70"
/>
<path stroke="#b895f7" vector-effect="non-scaling-stroke" d="
  M 51.46 42.70
  Q 51.76 42.28 51.78 41.71"
/>
<path stroke="#c3b0f2" vector-effect="non-scaling-stroke" d="
  M 51.46 42.70
  Q 50.58 44.14 50.26 45.92
  A 1.25 1.23 33.7 0 0 50.45 46.83
  C 53.63 51.55 57.00 55.26 58.54 61.20"
/>
<path stroke="#b692f5" vector-effect="non-scaling-stroke" d="
  M 58.54 61.20
  L 57.29 61.30"
/>
<path stroke="#a37af1" vector-effect="non-scaling-stroke" d="
  M 61.06 61.37
  L 58.54 61.20"
/>
<path stroke="#9251ee" vector-effect="non-scaling-stroke" d="
  M 131.33 69.69
  L 125.11 71.60"
/>
<path stroke="#9251ee" vector-effect="non-scaling-stroke" d="
  M 66.85 80.61
  Q 61.58 81.05 56.71 82.86"
/>
<path stroke="#9e60f7" vector-effect="non-scaling-stroke" d="
  M 56.71 82.86
  L 53.72 82.64"
/>
<path stroke="#c19af2" vector-effect="non-scaling-stroke" d="
  M 128.00 78.72
  Q 126.20 79.50 124.21 79.67
  A 0.66 0.65 -88.3 0 0 123.63 80.22
  Q 123.50 81.08 123.74 82.04"
/>
<path stroke="#bc93f1" vector-effect="non-scaling-stroke" d="
  M 123.74 82.04
  Q 123.54 83.41 122.25 83.55
  Q 119.81 83.81 119.17 82.37"
/>
<path stroke="#c19af2" vector-effect="non-scaling-stroke" d="
  M 119.17 82.37
  L 119.08 80.30
  A 0.69 0.68 6.4 0 0 118.57 79.67
  L 114.74 78.70"
/>
<path stroke="#efe7fa" vector-effect="non-scaling-stroke" d="
  M 89.21 79.25
  Q 81.55 80.75 73.80 79.07"
/>
<path stroke="#eae1f9" vector-effect="non-scaling-stroke" d="
  M 106.35 78.66
  Q 99.82 80.81 93.00 79.19"
/>
<path stroke="#efe7fa" vector-effect="non-scaling-stroke" d="
  M 119.17 82.37
  L 66.84 82.39"
/>
<path stroke="#c19af2" vector-effect="non-scaling-stroke" d="
  M 66.84 82.39
  L 66.88 81.26"
/>
<path stroke="#efe7fa" vector-effect="non-scaling-stroke" d="
  M 145.47 82.98
  L 123.74 82.04"
/>
<path stroke="#bc93f1" vector-effect="non-scaling-stroke" d="
  M 66.84 82.39
  L 66.53 86.22"
/>
<path stroke="#bc72db" vector-effect="non-scaling-stroke" d="
  M 66.53 86.22
  L 60.01 85.86"
/>
<path stroke="#9a56f1" vector-effect="non-scaling-stroke" d="
  M 56.40 83.99
  L 56.71 82.86"
/>
<path stroke="#eabfe4" vector-effect="non-scaling-stroke" d="
  M 152.97 87.77
  Q 149.21 85.37 145.54 85.76"
/>
<path stroke="#e4daf8" vector-effect="non-scaling-stroke" d="
  M 145.54 85.76
  Q 134.51 85.99 116.57 85.38
  Q 93.53 84.61 66.53 86.22"
/>
<path stroke="#c380e3" vector-effect="non-scaling-stroke" d="
  M 167.02 93.00
  L 165.21 93.00"
/>
<path stroke="#cc85e5" vector-effect="non-scaling-stroke" d="
  M 165.21 93.00
  L 161.51 93.17
  A 1.86 1.76 27.3 0 0 160.68 93.41
  L 153.49 97.60"
/>
<path stroke="#eabfe4" vector-effect="non-scaling-stroke" d="
  M 153.49 97.60
  Q 151.00 97.79 148.53 98.99"
/>
<path stroke="#cc85e5" vector-effect="non-scaling-stroke" d="
  M 148.53 98.99
  L 144.49 100.72"
/>
<path stroke="#eabfe4" vector-effect="non-scaling-stroke" d="
  M 144.49 100.72
  Q 139.30 100.41 134.19 101.54"
/>
<path stroke="#e5b9e2" vector-effect="non-scaling-stroke" d="
  M 134.19 101.54
  Q 125.50 101.72 116.78 101.49
  Q 107.92 101.26 99.38 101.30
  Q 82.18 101.38 65.05 99.97"
/>
<path stroke="#bc72db" vector-effect="non-scaling-stroke" d="
  M 65.05 99.97
  L 60.50 98.99"
/>
<path stroke="#f289a3" vector-effect="non-scaling-stroke" d="
  M 60.97 98.30
  Q 61.77 98.22 62.44 98.43
  A 0.16 0.16 0.0 0 0 62.61 98.18
  C 61.75 97.13 57.91 96.31 56.60 96.11
  Q 56.61 96.11 56.61 96.10
  A 0.04 0.03 -75.1 0 1 56.64 96.08
  L 65.97 95.48"
/>
<path stroke="#ef6a85" vector-effect="non-scaling-stroke" d="
  M 65.97 95.48
  L 66.96 95.74"
/>
<path stroke="#f289a3" vector-effect="non-scaling-stroke" d="
  M 66.96 95.74
  C 86.85 97.62 107.35 97.00 127.31 96.53
  Q 134.95 96.35 142.47 95.09"
/>
<path stroke="#ef6a85" vector-effect="non-scaling-stroke" d="
  M 142.47 95.09
  L 144.53 94.96"
/>
<path stroke="#f289a3" vector-effect="non-scaling-stroke" d="
  M 144.53 94.96
  L 149.29 93.33"
/>
<path stroke="#efc6e5" vector-effect="non-scaling-stroke" d="
  M 149.29 93.33
  Q 149.73 93.21 150.23 93.29"
/>
<path stroke="#f289a3" vector-effect="non-scaling-stroke" d="
  M 150.23 93.29
  L 148.17 94.86
  A 0.40 0.40 0.0 0 0 148.53 95.56
  Q 151.12 94.78 153.05 93.03"
/>
<path stroke="#efc6e5" vector-effect="non-scaling-stroke" d="
  M 153.05 93.03
  Q 152.88 92.31 152.54 91.89"
/>
<path stroke="#f289a3" vector-effect="non-scaling-stroke" d="
  M 152.54 91.89
  Q 149.43 89.50 146.41 89.48
  C 123.08 89.31 99.96 88.16 76.52 89.11
  Q 70.47 89.35 65.92 91.74"
/>
<path stroke="#f3cde6" vector-effect="non-scaling-stroke" d="
  M 65.92 91.74
  L 53.99 91.76"
/>
<path stroke="#f289a3" vector-effect="non-scaling-stroke" d="
  M 53.99 91.76
  Q 54.74 90.45 56.58 89.64"
/>
<path stroke="#ef6a85" vector-effect="non-scaling-stroke" d="
  M 56.58 89.64
  Q 60.63 91.35 65.27 90.35
  Q 65.33 90.34 65.68 90.33
  Q 66.13 90.33 66.14 89.65
  A 0.52 0.51 88.4 0 0 65.60 89.13
  L 56.58 89.64"
/>
<path stroke="#f289a3" vector-effect="non-scaling-stroke" d="
  M 56.58 89.64
  L 66.02 88.64
  A 0.41 0.41 0.0 0 0 66.39 88.23
  L 66.39 87.95
  A 0.57 0.57 0.0 0 0 65.77 87.38
  Q 59.41 87.89 49.88 89.53
  Q 45.87 90.22 42.93 91.66
  A 0.13 0.13 0.0 0 0 42.99 91.91
  L 49.78 91.85"
/>
<path stroke="#f3cde6" vector-effect="non-scaling-stroke" d="
  M 49.78 91.85
  Q 45.49 91.47 45.74 93.04"
/>
<path stroke="#f289a3" vector-effect="non-scaling-stroke" d="
  M 45.74 93.04
  L 39.19 93.06"
/>
<path stroke="#e5b9e2" vector-effect="non-scaling-stroke" d="
  M 66.53 86.22
  Q 69.53 86.65 71.39 86.57
  Q 102.45 85.32 129.87 86.98
  Q 138.47 87.50 145.54 85.76"
/>
<path stroke="#cc85e5" vector-effect="non-scaling-stroke" d="
  M 146.65 86.68
  Q 146.69 86.71 146.99 86.73
  A 0.87 0.86 80.1 0 1 147.71 87.24
  Q 148.02 87.92 149.04 88.48
  Q 154.03 91.18 154.94 91.54
  A 0.23 0.23 0.0 0 0 155.20 91.17
  Q 151.54 86.86 146.78 86.29
  A 0.21 0.21 0.0 0 0 146.65 86.68"
/>
<path stroke="#cc85e5" vector-effect="non-scaling-stroke" d="
  M 153.9073 94.4838
  A 0.62 0.13 -21.4 0 0 153.2826 94.5890
  A 0.62 0.13 -21.4 0 0 152.7527 94.9362
  A 0.62 0.13 -21.4 0 0 153.3774 94.8310
  A 0.62 0.13 -21.4 0 0 153.9073 94.4838"
/>
<path stroke="#fbb7ba" vector-effect="non-scaling-stroke" d="
  M 53.99 91.76
  L 49.78 91.85"
/>
<path stroke="#f7b0b9" vector-effect="non-scaling-stroke" d="
  M 152.54 91.89
  L 148.17 91.72"
/>
<path stroke="#fbb7ba" vector-effect="non-scaling-stroke" d="
  M 148.17 91.72
  L 65.92 91.74"
/>
<path stroke="#f8f4fc" vector-effect="non-scaling-stroke" d="
  M 148.17 91.72
  Q 148.69 91.86 148.96 92.10
  Q 149.23 92.34 149.12 92.64
  Q 149.02 92.90 148.69 93.04"
/>
<path stroke="#fbb7ba" vector-effect="non-scaling-stroke" d="
  M 148.69 93.04
  L 145.27 93.21"
/>
<path stroke="#f8989c" vector-effect="non-scaling-stroke" d="
  M 145.27 93.21
  L 56.20 93.29"
/>
<path stroke="#fbb7ba" vector-effect="non-scaling-stroke" d="
  M 56.20 93.29
  L 45.74 93.04"
/>
<path stroke="#f7b0b9" vector-effect="non-scaling-stroke" d="
  M 153.05 93.03
  L 150.23 93.29"
/>
<path stroke="#f7b0b9" vector-effect="non-scaling-stroke" d="
  M 149.29 93.33
  Q 148.92 93.34 148.69 93.04"
/>
<path stroke="#f75459" vector-effect="non-scaling-stroke" d="
  M 56.20 93.29
  L 65.97 95.48"
/>
<path stroke="#a566f9" vector-effect="non-scaling-stroke" d="
  M 165.21 93.00
  Q 161.38 94.60 157.70 96.50
  Q 157.26 96.72 151.59 100.41
  Q 148.18 102.62 144.35 103.59"
/>
<path stroke="#cca6fa" vector-effect="non-scaling-stroke" d="
  M 144.35 103.59
  L 153.49 97.60"
/>
<path stroke="#c8aaf9" vector-effect="non-scaling-stroke" d="
  M 154.03 157.87
  Q 150.21 157.88 146.38 157.86
  Q 142.40 157.83 142.41 161.50
  Q 142.42 163.19 144.42 164.49"
/>
<path stroke="#995ef6" vector-effect="non-scaling-stroke" d="
  M 144.42 164.49
  Q 136.99 170.18 128.31 172.14
  C 106.29 177.10 82.36 174.94 60.72 167.90
  Q 54.51 165.89 48.63 164.25"
/>
<path stroke="#c8aaf9" vector-effect="non-scaling-stroke" d="
  M 48.63 164.25
  Q 50.88 160.76 48.41 158.59
  Q 47.60 157.88 46.52 157.89
  Q 38.59 157.93 30.19 157.87
  Q 27.67 157.86 26.53 155.12"
/>
<path stroke="#c2a1f8" vector-effect="non-scaling-stroke" d="
  M 51.31 145.06
  Q 51.10 146.66 54.56 145.14"
/>
<path stroke="#995ef6" vector-effect="non-scaling-stroke" d="
  M 54.56 145.14
  Q 67.52 156.99 85.06 158.15
  C 103.34 159.36 128.85 156.93 140.16 139.38
  A 0.08 0.06 -75.6 0 0 140.11 139.26
  Q 140.02 139.28 140.00 139.31
  Q 139.58 139.96 139.19 140.28
  A 0.28 0.27 -16.5 0 1 138.74 140.04
  L 141.46 118.45"
/>
<path stroke="#c2a1f8" vector-effect="non-scaling-stroke" d="
  M 141.46 118.45
  L 143.68 106.88"
/>
<path stroke="#c8a7f9" vector-effect="non-scaling-stroke" d="
  M 143.68 106.88
  L 144.12 104.19"
/>
<path stroke="#c2a1f8" vector-effect="non-scaling-stroke" d="
  M 144.12 104.19
  Q 144.17 103.87 144.35 103.59"
/>
<path stroke="#f75459" vector-effect="non-scaling-stroke" d="
  M 145.27 93.21
  L 144.53 94.96"
/>
<path stroke="#f75459" vector-effect="non-scaling-stroke" d="
  M 142.47 95.09
  C 138.13 95.33 133.71 95.62 129.37 95.62
  C 130.80 95.54 132.18 95.42 133.59 95.16
  Q 133.63 95.15 133.60 95.15
  Q 104.99 95.48 69.07 95.23
  Q 67.40 95.22 69.12 95.32
  C 72.91 95.53 76.67 95.62 80.36 95.62
  C 75.89 95.68 71.43 95.64 66.96 95.74"
/>
<path stroke="#efe7fa" vector-effect="non-scaling-stroke" d="
  M 144.12 104.19
  Q 104.31 105.69 64.55 103.48"
/>
<path stroke="#bc93f1" vector-effect="non-scaling-stroke" d="
  M 64.50 103.29
  L 64.96 101.13"
/>
<path stroke="#e4daf8" vector-effect="non-scaling-stroke" d="
  M 64.96 101.13
  Q 96.28 102.54 127.66 101.89
  Q 130.96 101.82 134.19 101.54"
/>
<path stroke="#cca6fa" vector-effect="non-scaling-stroke" d="
  M 144.49 100.72
  Q 146.70 100.30 148.53 98.99"
/>
<path stroke="#b78def" vector-effect="non-scaling-stroke" d="
  M 65.05 99.97
  L 64.96 101.13"
/>
<path stroke="#9251ee" vector-effect="non-scaling-stroke" d="
  M 60.53 102.79
  L 58.54 101.96"
/>
<path stroke="#9a56f1" vector-effect="non-scaling-stroke" d="
  M 58.54 101.96
  Q 57.04 100.90 55.20 100.38"
/>
<path stroke="#9e60f7" vector-effect="non-scaling-stroke" d="
  M 58.54 101.96
  L 55.46 101.88"
/>
<path stroke="#efe7fa" vector-effect="non-scaling-stroke" d="
  M 143.68 106.88
  L 114.81 110.23"
/>
<path stroke="#e5dbf9" vector-effect="non-scaling-stroke" d="
  M 114.81 110.23
  L 70.69 109.73
  A 0.49 0.49 0.0 0 0 70.20 110.22
  L 70.20 110.48
  A 0.25 0.25 0.0 0 0 70.45 110.73
  L 122.46 111.18"
/>
<path stroke="#efe7fa" vector-effect="non-scaling-stroke" d="
  M 122.46 111.18
  L 128.63 111.85
  A 0.21 0.20 -62.2 0 1 128.74 112.21
  Q 125.69 114.84 121.74 116.24
  Q 120.95 116.38 120.19 116.25"
/>
<path stroke="#e5dbf9" vector-effect="non-scaling-stroke" d="
  M 120.19 116.25
  Q 118.74 115.70 117.20 116.33"
/>
<path stroke="#efe7fa" vector-effect="non-scaling-stroke" d="
  M 117.20 116.33
  Q 116.56 116.53 115.88 116.20"
/>
<path stroke="#e5dbf9" vector-effect="non-scaling-stroke" d="
  M 115.88 116.20
  Q 113.91 115.51 112.77 116.43"
/>
<path stroke="#efe7fa" vector-effect="non-scaling-stroke" d="
  M 112.77 116.43
  L 112.36 116.71
  A 0.49 0.48 -38.9 0 1 111.74 116.65
  Q 111.60 116.50 111.52 116.39
  A 0.34 0.34 0.0 0 0 111.12 116.28
  Q 100.79 120.38 90.66 122.79"
/>
<path stroke="#eae1f9" vector-effect="non-scaling-stroke" d="
  M 90.66 122.79
  Q 80.86 121.97 71.21 122.58"
/>
<path stroke="#efe7fa" vector-effect="non-scaling-stroke" d="
  M 71.21 122.58
  Q 69.02 121.67 66.78 122.90
  A 1.24 1.23 81.9 0 0 66.17 123.72
  Q 66.06 124.29 66.24 125.70
  A 0.45 0.45 0.0 0 0 66.69 126.09
  L 68.46 126.09
  A 0.24 0.23 -65.5 0 1 68.61 126.50
  C 65.48 129.33 60.22 131.19 56.58 132.45"
/>
<path stroke="#e5dbf9" vector-effect="non-scaling-stroke" d="
  M 104.0002 116.4164
  A 1.50 0.54 -179.1 0 0 105.4915 116.9799
  A 1.50 0.54 -179.1 0 0 106.9998 116.4636
  A 1.50 0.54 -179.1 0 0 105.5085 115.9001
  A 1.50 0.54 -179.1 0 0 104.0002 116.4164"
/>
<path stroke="#c09ef7" vector-effect="non-scaling-stroke" d="
  M 141.46 118.45
  L 140.23 122.89"
/>
<path stroke="#e4daf8" vector-effect="non-scaling-stroke" d="
  M 140.23 122.89
  Q 103.61 136.67 64.87 140.99
  Q 61.18 141.40 56.69 143.92"
/>
<path stroke="#c09ef7" vector-effect="non-scaling-stroke" d="
  M 56.69 143.92
  Q 55.93 144.71 54.56 145.14"
/>
<path stroke="#e4daf8" vector-effect="non-scaling-stroke" d="
  M 71.21 122.58
  Q 69.32 122.48 66.92 123.19
  A 0.80 0.80 0.0 0 0 66.74 124.64
  Q 67.98 125.39 69.81 125.43
  Q 78.40 125.62 89.51 125.29
  Q 90.80 125.25 90.66 122.79"
/>
<path stroke="#dfd4f8" vector-effect="non-scaling-stroke" d="
  M 112.77 116.43
  Q 114.37 117.09 115.88 116.20"
/>
<path stroke="#dfd4f8" vector-effect="non-scaling-stroke" d="
  M 117.20 116.33
  Q 118.94 117.62 120.19 116.25"
/>
<path stroke="#dfd4f8" vector-effect="non-scaling-stroke" d="
  M 121.74 116.24
  Q 123.15 117.42 124.15 116.67
  A 0.30 0.29 34.7 0 0 124.05 116.15
  Q 122.94 115.85 121.74 116.24"
/>
<path stroke="#dfd4f8" vector-effect="non-scaling-stroke" d="
  M 122.46 111.18
  Q 124.71 111.50 126.35 110.96
  A 0.37 0.36 35.7 0 0 126.23 110.25
  L 114.81 110.23"
/>
<path stroke="#dfd4f8" vector-effect="non-scaling-stroke" d="
  M 128.95 116.24
  Q 127.79 115.86 126.50 116.18
  A 0.36 0.36 0.0 0 0 126.44 116.85
  Q 127.15 117.18 128.94 116.71
  A 0.25 0.24 46.5 0 0 128.95 116.24"
/>
<path stroke="#dfd4f8" vector-effect="non-scaling-stroke" d="
  M 130.7609 116.4902
  A 1.36 0.44 -177.9 0 0 132.1039 116.9797
  A 1.36 0.44 -177.9 0 0 133.4791 116.5898
  A 1.36 0.44 -177.9 0 0 132.1361 116.1003
  A 1.36 0.44 -177.9 0 0 130.7609 116.4902"
/>
<path stroke="#dfd4f8" vector-effect="non-scaling-stroke" d="
  M 136.13 116.71
  A 0.14 0.14 0.0 0 0 135.99 116.57
  A 0.14 0.14 0.0 0 0 135.85 116.71
  A 0.14 0.14 0.0 0 0 135.99 116.85
  A 0.14 0.14 0.0 0 0 136.13 116.71"
/>
<path stroke="#dfd4f8" vector-effect="non-scaling-stroke" d="
  M 103.0800 130.8943
  A 1.52 1.52 0.0 0 0 101.5627 129.3716
  L 65.3027 129.3084
  A 1.52 1.52 0.0 0 0 63.7801 130.8257
  L 63.7800 130.8857
  A 1.52 1.52 0.0 0 0 65.2973 132.4084
  L 101.5573 132.4716
  A 1.52 1.52 0.0 0 0 103.0799 130.9543
  L 103.0800 130.8943"
/>
<path stroke="#c8aaf9" vector-effect="non-scaling-stroke" d="
  M 19.65 134.75
  Q 18.72 146.43 19.96 157.59"
/>
<path stroke="#995ef6" vector-effect="non-scaling-stroke" d="
  M 19.96 157.59
  Q 8.55 144.74 0.00 129.12"
/>
<path stroke="#bb98f5" vector-effect="non-scaling-stroke" d="
  M 56.69 143.92
  Q 59.71 143.05 62.56 141.84
  Q 64.34 141.08 66.84 142.66"
/>
<path stroke="#9251ee" vector-effect="non-scaling-stroke" d="
  M 66.84 142.66
  C 68.88 153.29 80.00 154.19 89.18 154.66
  Q 104.59 155.47 118.10 152.21
  Q 126.89 150.08 135.55 143.47
  Q 136.69 142.59 137.26 139.94
  A 1.16 1.15 -58.3 0 0 137.05 139.02
  Q 136.38 138.17 135.15 138.12"
/>
<path stroke="#b692f5" vector-effect="non-scaling-stroke" d="
  M 135.15 138.12
  L 137.46 131.99"
/>
<path stroke="#bb98f5" vector-effect="non-scaling-stroke" d="
  M 137.46 131.99
  L 140.23 122.89"
/>
<path stroke="#dacef6" vector-effect="non-scaling-stroke" d="
  M 137.46 131.99
  L 94.00 142.58"
/>
<path stroke="#b78def" vector-effect="non-scaling-stroke" d="
  M 94.00 142.58
  C 90.43 141.41 85.65 144.21 82.49 145.70"
/>
<path stroke="#b78def" vector-effect="non-scaling-stroke" d="
  M 82.49 145.70
  C 79.60 146.62 77.25 148.10 74.04 146.69"
/>
<path stroke="#b78def" vector-effect="non-scaling-stroke" d="
  M 74.04 146.69
  L 66.84 142.66"
/>
<path stroke="#c5a7f8" vector-effect="non-scaling-stroke" d="
  M 19.96 157.59
  Q 23.14 164.18 29.25 164.76
  Q 36.49 165.45 48.63 164.25"
/>
<path stroke="#c5a7f8" vector-effect="non-scaling-stroke" d="
  M 144.42 164.49
  Q 153.48 164.92 162.32 164.50
  Q 167.81 164.24 171.54 158.94"
/>
<path stroke="#b287ef" vector-effect="non-scaling-stroke" d="
  M 135.15 138.12
  C 133.51 142.47 131.56 147.20 125.96 145.12"
/>
<path stroke="#b287ef" vector-effect="non-scaling-stroke" d="
  M 125.96 145.12
  L 121.99 142.63
  A 2.50 2.48 65.4 0 0 121.06 142.28
  Q 118.94 141.92 117.24 142.75
  Q 114.25 144.22 109.53 146.28
  C 105.99 147.82 102.66 147.29 99.51 145.28"
/>
<path stroke="#b287ef" vector-effect="non-scaling-stroke" d="
  M 99.51 145.28
  L 94.00 142.58"
/>
<path stroke="#8e46e8" vector-effect="non-scaling-stroke" d="
  M 74.04 146.69
  Q 77.34 150.79 83.84 150.72
  Q 98.83 150.55 105.95 150.13
  C 112.72 149.73 120.19 149.00 125.96 145.12"
/>
<path stroke="#8e46e8" vector-effect="non-scaling-stroke" d="
  M 99.51 145.28
  Q 91.09 148.67 82.49 145.70"
/>
</g>
<path fill="#9b61f7" d="
  M 58.05 0.00
  Q 49.43 3.29 40.99 6.67
  Q 20.56 14.86 7.39 32.47
  Q 3.63 37.49 0.00 42.67
  L 0.00 0.00
  L 58.05 0.00
  Z"
/>
<path fill="#a565fa" d="
  M 162.33 0.00
  Q 168.62 4.61 170.97 6.51
  C 180.85 14.50 186.37 23.80 192.00 35.32
  L 192.00 61.32
  L 192.00 80.88
  L 192.00 129.32
  L 171.54 158.94
  Q 174.02 147.01 172.77 136.49
  Q 172.37 133.23 168.28 133.54
  A 2.19 2.17 -62.0 0 0 167.38 133.82
  Q 165.66 134.82 165.67 137.75
  Q 165.70 145.26 165.69 153.71
  Q 165.69 157.62 161.76 157.98
  Q 159.73 158.16 154.03 157.87
  L 159.38 157.62
  A 0.22 0.22 0.0 0 0 159.54 157.25
  Q 151.99 148.68 147.58 137.85
  Q 179.73 118.87 179.74 80.06
  C 179.74 65.22 176.65 50.78 172.76 36.28
  Q 173.19 23.14 159.76 23.34
  L 156.31 23.23
  A 2.88 2.86 59.3 0 1 155.08 22.91
  Q 120.47 5.07 79.47 11.29
  C 65.73 13.37 52.07 17.88 38.90 22.98
  A 2.59 2.55 -56.0 0 1 38.01 23.16
  L 30.04 23.40
  Q 21.76 23.91 19.68 31.56
  A 4.92 4.71 53.2 0 0 19.52 32.87
  Q 19.67 39.39 19.60 45.96
  C 19.58 48.65 20.98 49.70 23.51 49.66
  Q 20.32 58.17 19.16 63.45
  Q 14.51 84.66 25.26 103.04
  Q 33.48 117.11 43.97 129.21
  Q 45.15 130.57 46.38 130.93
  A 1.88 1.86 23.5 0 0 48.53 130.09
  Q 49.47 128.51 50.01 126.22
  Q 50.68 123.39 52.91 110.25
  Q 53.59 106.24 54.46 102.16
  Q 57.49 103.61 60.53 102.79
  L 64.50 103.29
  Q 64.53 103.38 64.55 103.48
  Q 61.86 118.39 56.58 132.45
  L 51.31 145.06
  Q 38.50 148.13 26.53 155.12
  Q 26.32 147.10 26.37 139.30
  Q 26.40 135.16 24.96 133.97
  Q 23.10 132.43 19.65 134.75
  L 0.00 110.94
  L 0.00 42.67
  Q 3.63 37.49 7.39 32.47
  Q 20.56 14.86 40.99 6.67
  Q 49.43 3.29 58.05 0.00
  L 162.33 0.00
  Z"
/>
<path fill="#9b61f7" d="
  M 192.00 0.00
  L 192.00 35.32
  C 186.37 23.80 180.85 14.50 170.97 6.51
  Q 168.62 4.61 162.33 0.00
  L 192.00 0.00
  Z"
/>
<path fill="#ae6bfb" d="
  M 159.76 23.34
  L 145.82 23.46
  A 3.30 3.28 -90.0 0 0 142.57 26.73
  L 142.57 26.86
  A 3.30 3.30 0.0 0 0 145.89 30.20
  Q 154.64 30.15 162.21 30.23
  C 164.85 30.26 165.92 32.92 165.92 35.55
  Q 165.90 42.30 166.13 46.69
  A 3.02 3.02 0.0 0 0 169.25 49.56
  L 169.44 49.55
  A 3.18 3.18 0.0 0 0 172.51 46.45
  L 172.76 36.28
  C 176.65 50.78 179.74 65.22 179.74 80.06
  Q 179.73 118.87 147.58 137.85
  Q 147.85 128.12 149.48 118.27
  C 151.38 106.76 157.24 99.23 167.02 93.00
  Q 168.10 92.58 169.43 92.87
  A 0.11 0.10 -75.1 0 0 169.55 92.79
  L 169.82 91.98
  A 0.25 0.25 0.0 0 0 169.58 91.65
  L 156.73 91.65
  A 1.00 0.98 69.7 0 1 155.97 91.29
  L 152.97 87.77
  Q 154.35 88.14 155.80 88.65
  Q 155.99 88.72 156.12 88.93
  Q 156.27 89.17 156.44 89.26
  A 0.22 0.13 59.7 0 0 156.45 88.90
  Q 150.92 85.96 145.47 82.98
  Q 145.76 82.09 145.54 80.70
  Q 145.62 70.85 144.23 61.06
  Q 143.35 54.84 140.76 48.49
  C 138.80 43.69 134.83 40.05 129.43 40.05
  Q 91.99 40.04 55.43 38.64
  Q 53.19 38.56 51.49 41.50
  C 48.46 44.68 47.84 51.90 48.05 55.76
  C 48.34 61.22 53.21 61.06 57.29 61.30
  Q 53.62 71.71 53.72 82.64
  Q 53.94 84.10 56.40 83.99
  Q 57.54 85.84 60.01 85.86
  L 62.75 86.81
  A 0.18 0.18 0.0 0 1 62.72 87.16
  L 42.63 90.44
  A 0.10 0.09 73.8 0 1 42.53 90.38
  Q 42.47 90.24 42.75 90.06
  A 0.18 0.17 31.4 0 0 42.67 89.74
  Q 42.60 89.73 42.23 89.76
  A 1.67 1.54 23.3 0 0 41.49 90.02
  L 38.99 91.66
  A 0.22 0.22 0.0 0 1 38.67 91.37
  Q 39.03 90.70 39.03 90.23
  Q 39.02 89.79 38.87 89.90
  Q 38.62 90.09 38.58 90.09
  A 0.29 0.28 -51.3 0 1 38.52 89.54
  Q 43.38 87.76 47.36 86.87
  Q 40.09 87.45 34.39 91.56
  A 1.29 1.21 21.8 0 1 33.80 91.79
  L 28.35 92.40
  A 0.22 0.22 0.0 0 0 28.32 92.83
  C 31.97 93.78 35.13 92.80 39.19 93.06
  C 46.08 98.17 53.04 96.53 60.97 98.30
  L 60.12 98.39
  A 0.25 0.24 50.0 0 0 60.08 98.87
  L 60.50 98.99
  L 55.20 100.38
  Q 55.13 101.17 55.46 101.88
  L 54.46 102.16
  Q 53.59 106.24 52.91 110.25
  Q 50.68 123.39 50.01 126.22
  Q 49.47 128.51 48.53 130.09
  A 1.88 1.86 23.5 0 1 46.38 130.93
  Q 45.15 130.57 43.97 129.21
  Q 33.48 117.11 25.26 103.04
  Q 14.51 84.66 19.16 63.45
  Q 20.32 58.17 23.51 49.66
  Q 26.01 49.03 26.17 45.25
  Q 26.43 39.31 26.33 33.98
  A 1.75 1.73 55.8 0 1 26.46 33.27
  Q 27.63 30.29 30.03 30.23
  Q 34.14 30.13 46.45 30.14
  A 3.09 3.09 0.0 0 0 49.55 27.05
  L 49.55 26.72
  A 3.23 3.22 -89.9 0 0 46.34 23.49
  L 30.04 23.40
  L 38.01 23.16
  A 2.59 2.55 -56.0 0 0 38.90 22.98
  C 52.07 17.88 65.73 13.37 79.47 11.29
  Q 120.47 5.07 155.08 22.91
  A 2.88 2.86 59.3 0 0 156.31 23.23
  L 159.76 23.34
  Z"
/>
<path fill="#fcfbfd" d="
  M 23.51 49.66
  C 20.98 49.70 19.58 48.65 19.60 45.96
  Q 19.67 39.39 19.52 32.87
  A 4.92 4.71 53.2 0 1 19.68 31.56
  Q 21.76 23.91 30.04 23.40
  L 46.34 23.49
  A 3.23 3.22 -89.9 0 1 49.55 26.72
  L 49.55 27.05
  A 3.09 3.09 0.0 0 1 46.45 30.14
  Q 34.14 30.13 30.03 30.23
  Q 27.63 30.29 26.46 33.27
  A 1.75 1.73 55.8 0 0 26.33 33.98
  Q 26.43 39.31 26.17 45.25
  Q 26.01 49.03 23.51 49.66
  Z"
/>
<path fill="#fcfbfd" d="
  M 159.76 23.34
  Q 173.19 23.14 172.76 36.28
  L 172.51 46.45
  A 3.18 3.18 0.0 0 1 169.44 49.55
  L 169.25 49.56
  A 3.02 3.02 0.0 0 1 166.13 46.69
  Q 165.90 42.30 165.92 35.55
  C 165.92 32.92 164.85 30.26 162.21 30.23
  Q 154.64 30.15 145.89 30.20
  A 3.30 3.30 0.0 0 1 142.57 26.86
  L 142.57 26.73
  A 3.30 3.28 -90.0 0 1 145.82 23.46
  L 159.76 23.34
  Z"
/>
<path fill="#fcfbfd" d="
  M 145.54 80.70
  L 128.00 78.72
  Q 133.38 75.71 131.33 69.69
  Q 129.96 66.95 127.47 65.76
  Q 125.80 64.96 120.12 62.53
  Q 118.87 62.00 118.12 61.28
  A 1.59 1.46 51.2 0 1 118.28 58.86
  C 120.35 57.64 124.61 58.11 126.28 59.03
  A 1.05 1.05 0.0 0 0 127.69 58.63
  L 128.78 56.75
  A 1.15 1.14 24.1 0 0 128.14 55.09
  L 123.59 53.61
  A 0.56 0.56 0.0 0 1 123.21 53.08
  L 123.21 50.92
  A 1.33 1.33 0.0 0 0 121.88 49.59
  L 119.75 49.59
  A 0.99 0.98 -90.0 0 0 118.77 50.58
  L 118.77 52.92
  A 0.82 0.81 -5.6 0 1 118.11 53.72
  C 114.52 54.42 111.50 55.92 111.29 59.74
  C 111.11 63.02 113.49 66.26 116.44 67.34
  Q 122.00 69.37 125.11 71.60
  C 125.68 77.70 116.70 74.72 114.03 73.37
  A 0.86 0.85 28.1 0 0 112.90 73.71
  L 111.55 76.03
  A 0.84 0.84 0.0 0 0 111.89 77.19
  L 114.74 78.70
  L 106.35 78.66
  Q 100.51 76.00 94.25 76.74
  Q 92.42 76.95 93.00 79.19
  L 89.21 79.25
  Q 89.47 77.73 88.80 76.96
  A 0.84 0.82 -18.2 0 0 88.21 76.67
  Q 80.71 76.33 75.25 76.51
  Q 73.71 76.55 73.80 79.07
  L 66.88 81.26
  L 66.85 80.61
  Q 67.49 66.46 64.62 53.02
  C 63.77 48.68 57.75 34.02 51.78 41.71
  L 51.49 41.50
  Q 53.19 38.56 55.43 38.64
  Q 91.99 40.04 129.43 40.05
  C 134.83 40.05 138.80 43.69 140.76 48.49
  Q 143.35 54.84 144.23 61.06
  Q 145.62 70.85 145.54 80.70
  Z
  M 105.3259 48.5075
  A 1.42 1.42 0.0 0 0 103.9385 47.0556
  L 71.7468 46.3251
  A 1.42 1.42 0.0 0 0 70.2950 47.7125
  L 70.2941 47.7525
  A 1.42 1.42 0.0 0 0 71.6815 49.2044
  L 103.8732 49.9349
  A 1.42 1.42 0.0 0 0 105.3250 48.5475
  L 105.3259 48.5075
  Z
  M 102.9429 58.4570
  A 1.59 1.59 0.0 0 0 101.4065 56.8151
  L 74.0216 55.9067
  A 1.59 1.59 0.0 0 0 72.3797 57.4431
  L 72.3771 57.5230
  A 1.59 1.59 0.0 0 0 73.9135 59.1649
  L 101.2984 60.0733
  A 1.59 1.59 0.0 0 0 102.9403 58.5369
  L 102.9429 58.4570
  Z
  M 96.6908 68.2324
  A 1.49 1.49 0.0 0 0 95.2244 66.7192
  L 74.9869 66.4012
  A 1.49 1.49 0.0 0 0 73.4736 67.8677
  L 73.4692 68.1476
  A 1.49 1.49 0.0 0 0 74.9356 69.6608
  L 95.1731 69.9788
  A 1.49 1.49 0.0 0 0 96.6864 68.5123
  L 96.6908 68.2324
  Z"
/>
<path fill="#9b61f7" d="
  M 64.62 53.02
  C 62.38 52.70 61.90 51.59 60.35 50.25
  A 0.20 0.20 0.0 0 0 60.04 50.50
  C 61.46 52.98 63.84 56.63 63.42 59.17
  Q 63.11 61.07 61.06 61.37
  C 60.37 53.68 56.30 48.74 51.46 42.70
  Q 51.76 42.28 51.78 41.71
  C 57.75 34.02 63.77 48.68 64.62 53.02
  Z"
/>
<path fill="#d5c8f6" d="
  M 51.49 41.50
  L 51.78 41.71
  Q 51.76 42.28 51.46 42.70
  Q 50.58 44.14 50.26 45.92
  A 1.25 1.23 33.7 0 0 50.45 46.83
  C 53.63 51.55 57.00 55.26 58.54 61.20
  L 57.29 61.30
  C 53.21 61.06 48.34 61.22 48.05 55.76
  C 47.84 51.90 48.46 44.68 51.49 41.50
  Z"
/>
<path fill="#b098ed" d="
  M 51.46 42.70
  C 56.30 48.74 60.37 53.68 61.06 61.37
  L 58.54 61.20
  C 57.00 55.26 53.63 51.55 50.45 46.83
  A 1.25 1.23 33.7 0 1 50.26 45.92
  Q 50.58 44.14 51.46 42.70
  Z"
/>
<rect fill="#f4edfb" x="-17.52" y="-1.44" transform="translate(87.81,48.13) rotate(1.3)" width="35.04" height="2.88" rx="1.42"/>
<path fill="#965bf4" d="
  M 131.33 69.69
  L 125.11 71.60
  Q 122.00 69.37 116.44 67.34
  C 113.49 66.26 111.11 63.02 111.29 59.74
  C 111.50 55.92 114.52 54.42 118.11 53.72
  A 0.82 0.81 -5.6 0 0 118.77 52.92
  L 118.77 50.58
  A 0.99 0.98 -90.0 0 1 119.75 49.59
  L 121.88 49.59
  A 1.33 1.33 0.0 0 1 123.21 50.92
  L 123.21 53.08
  A 0.56 0.56 0.0 0 0 123.59 53.61
  L 128.14 55.09
  A 1.15 1.14 24.1 0 1 128.78 56.75
  L 127.69 58.63
  A 1.05 1.05 0.0 0 1 126.28 59.03
  C 124.61 58.11 120.35 57.64 118.28 58.86
  A 1.59 1.46 51.2 0 0 118.12 61.28
  Q 118.87 62.00 120.12 62.53
  Q 125.80 64.96 127.47 65.76
  Q 129.96 66.95 131.33 69.69
  Z"
/>
<path fill="#965bf4" d="
  M 64.62 53.02
  Q 67.49 66.46 66.85 80.61
  Q 61.58 81.05 56.71 82.86
  L 53.72 82.64
  Q 53.62 71.71 57.29 61.30
  L 58.54 61.20
  L 61.06 61.37
  Q 63.11 61.07 63.42 59.17
  C 63.84 56.63 61.46 52.98 60.04 50.50
  A 0.20 0.20 0.0 0 1 60.35 50.25
  C 61.90 51.59 62.38 52.70 64.62 53.02
  Z"
/>
<rect fill="#e9e0f9" x="-15.29" y="-1.63" transform="translate(87.66,57.99) rotate(1.9)" width="30.58" height="3.26" rx="1.59"/>
<path fill="#965bf4" d="
  M 192.00 61.32
  L 192.00 80.88
  L 192.00 61.32
  Z"
/>
<rect fill="#e9e0f9" x="-11.61" y="-1.63" transform="translate(85.08,68.19) rotate(0.9)" width="23.22" height="3.26" rx="1.49"/>
<path fill="#8e46e8" d="
  M 131.33 69.69
  Q 133.38 75.71 128.00 78.72
  Q 126.20 79.50 124.21 79.67
  A 0.66 0.65 -88.3 0 0 123.63 80.22
  Q 123.50 81.08 123.74 82.04
  Q 123.54 83.41 122.25 83.55
  Q 119.81 83.81 119.17 82.37
  L 119.08 80.30
  A 0.69 0.68 6.4 0 0 118.57 79.67
  L 114.74 78.70
  L 111.89 77.19
  A 0.84 0.84 0.0 0 1 111.55 76.03
  L 112.90 73.71
  A 0.86 0.85 28.1 0 1 114.03 73.37
  C 116.70 74.72 125.68 77.70 125.11 71.60
  L 131.33 69.69
  Z"
/>
<path fill="#e9e0f9" d="
  M 89.21 79.25
  Q 81.55 80.75 73.80 79.07
  Q 73.71 76.55 75.25 76.51
  Q 80.71 76.33 88.21 76.67
  A 0.84 0.82 -18.2 0 1 88.80 76.96
  Q 89.47 77.73 89.21 79.25
  Z"
/>
<path fill="#dfd4f6" d="
  M 106.35 78.66
  Q 99.82 80.81 93.00 79.19
  Q 92.42 76.95 94.25 76.74
  Q 100.51 76.00 106.35 78.66
  Z"
/>
<path fill="#f4edfb" d="
  M 89.21 79.25
  L 93.00 79.19
  Q 99.82 80.81 106.35 78.66
  L 114.74 78.70
  L 118.57 79.67
  A 0.69 0.68 6.4 0 1 119.08 80.30
  L 119.17 82.37
  L 66.84 82.39
  L 66.88 81.26
  L 73.80 79.07
  Q 81.55 80.75 89.21 79.25
  Z"
/>
<path fill="#f4edfb" d="
  M 128.00 78.72
  L 145.54 80.70
  Q 145.76 82.09 145.47 82.98
  L 123.74 82.04
  Q 123.50 81.08 123.63 80.22
  A 0.66 0.65 -88.3 0 1 124.21 79.67
  Q 126.20 79.50 128.00 78.72
  Z"
/>
<path fill="#8e46e8" d="
  M 66.85 80.61
  L 66.88 81.26
  L 66.84 82.39
  L 66.53 86.22
  L 60.01 85.86
  Q 57.54 85.84 56.40 83.99
  L 56.71 82.86
  Q 61.58 81.05 66.85 80.61
  Z"
/>
<path fill="#e9e0f9" d="
  M 145.47 82.98
  Q 150.92 85.96 156.45 88.90
  A 0.22 0.13 59.7 0 1 156.44 89.26
  Q 156.27 89.17 156.12 88.93
  Q 155.99 88.72 155.80 88.65
  Q 154.35 88.14 152.97 87.77
  Q 149.21 85.37 145.54 85.76
  Q 134.51 85.99 116.57 85.38
  Q 93.53 84.61 66.53 86.22
  L 66.84 82.39
  L 119.17 82.37
  Q 119.81 83.81 122.25 83.55
  Q 123.54 83.41 123.74 82.04
  L 145.47 82.98
  Z"
/>
<path fill="#a565fa" d="
  M 56.71 82.86
  L 56.40 83.99
  Q 53.94 84.10 53.72 82.64
  L 56.71 82.86
  Z"
/>
<path fill="#ea9ece" d="
  M 152.97 87.77
  L 155.97 91.29
  A 1.00 0.98 69.7 0 0 156.73 91.65
  L 169.58 91.65
  A 0.25 0.25 0.0 0 1 169.82 91.98
  L 169.55 92.79
  A 0.11 0.10 -75.1 0 1 169.43 92.87
  Q 168.10 92.58 167.02 93.00
  L 165.21 93.00
  L 161.51 93.17
  A 1.86 1.76 27.3 0 0 160.68 93.41
  L 153.49 97.60
  Q 151.00 97.79 148.53 98.99
  L 144.49 100.72
  Q 139.30 100.41 134.19 101.54
  Q 125.50 101.72 116.78 101.49
  Q 107.92 101.26 99.38 101.30
  Q 82.18 101.38 65.05 99.97
  L 60.50 98.99
  L 60.08 98.87
  A 0.25 0.24 50.0 0 1 60.12 98.39
  L 60.97 98.30
  Q 61.77 98.22 62.44 98.43
  A 0.16 0.16 0.0 0 0 62.61 98.18
  C 61.75 97.13 57.91 96.31 56.60 96.11
  Q 56.61 96.11 56.61 96.10
  A 0.04 0.03 -75.1 0 1 56.64 96.08
  L 65.97 95.48
  L 66.96 95.74
  C 86.85 97.62 107.35 97.00 127.31 96.53
  Q 134.95 96.35 142.47 95.09
  L 144.53 94.96
  L 149.29 93.33
  Q 149.73 93.21 150.23 93.29
  L 148.17 94.86
  A 0.40 0.40 0.0 0 0 148.53 95.56
  Q 151.12 94.78 153.05 93.03
  Q 152.88 92.31 152.54 91.89
  Q 149.43 89.50 146.41 89.48
  C 123.08 89.31 99.96 88.16 76.52 89.11
  Q 70.47 89.35 65.92 91.74
  L 53.99 91.76
  Q 54.74 90.45 56.58 89.64
  Q 60.63 91.35 65.27 90.35
  Q 65.33 90.34 65.68 90.33
  Q 66.13 90.33 66.14 89.65
  A 0.52 0.51 88.4 0 0 65.60 89.13
  L 56.58 89.64
  L 66.02 88.64
  A 0.41 0.41 0.0 0 0 66.39 88.23
  L 66.39 87.95
  A 0.57 0.57 0.0 0 0 65.77 87.38
  Q 59.41 87.89 49.88 89.53
  Q 45.87 90.22 42.93 91.66
  A 0.13 0.13 0.0 0 0 42.99 91.91
  L 49.78 91.85
  Q 45.49 91.47 45.74 93.04
  L 39.19 93.06
  C 35.13 92.80 31.97 93.78 28.32 92.83
  A 0.22 0.22 0.0 0 1 28.35 92.40
  L 33.80 91.79
  A 1.29 1.21 21.8 0 0 34.39 91.56
  Q 40.09 87.45 47.36 86.87
  Q 43.38 87.76 38.52 89.54
  A 0.29 0.28 -51.3 0 0 38.58 90.09
  Q 38.62 90.09 38.87 89.90
  Q 39.02 89.79 39.03 90.23
  Q 39.03 90.70 38.67 91.37
  A 0.22 0.22 0.0 0 0 38.99 91.66
  L 41.49 90.02
  A 1.67 1.54 23.3 0 1 42.23 89.76
  Q 42.60 89.73 42.67 89.74
  A 0.18 0.17 31.4 0 1 42.75 90.06
  Q 42.47 90.24 42.53 90.38
  A 0.10 0.09 73.8 0 0 42.63 90.44
  L 62.72 87.16
  A 0.18 0.18 0.0 0 0 62.75 86.81
  L 60.01 85.86
  L 66.53 86.22
  Q 69.53 86.65 71.39 86.57
  Q 102.45 85.32 129.87 86.98
  Q 138.47 87.50 145.54 85.76
  Q 149.21 85.37 152.97 87.77
  Z
  M 146.65 86.68
  Q 146.69 86.71 146.99 86.73
  A 0.87 0.86 80.1 0 1 147.71 87.24
  Q 148.02 87.92 149.04 88.48
  Q 154.03 91.18 154.94 91.54
  A 0.23 0.23 0.0 0 0 155.20 91.17
  Q 151.54 86.86 146.78 86.29
  A 0.21 0.21 0.0 0 0 146.65 86.68
  Z
  M 153.9073 94.4838
  A 0.62 0.13 -21.4 0 0 153.2826 94.5890
  A 0.62 0.13 -21.4 0 0 152.7527 94.9362
  A 0.62 0.13 -21.4 0 0 153.3774 94.8310
  A 0.62 0.13 -21.4 0 0 153.9073 94.4838
  Z"
/>
<path fill="#ae6bfb" d="
  M 146.78 86.29
  Q 151.54 86.86 155.20 91.17
  A 0.23 0.23 0.0 0 1 154.94 91.54
  Q 154.03 91.18 149.04 88.48
  Q 148.02 87.92 147.71 87.24
  A 0.87 0.86 80.1 0 0 146.99 86.73
  Q 146.69 86.71 146.65 86.68
  A 0.21 0.21 0.0 0 1 146.78 86.29
  Z"
/>
<path fill="#dfd4f6" d="
  M 145.54 85.76
  Q 138.47 87.50 129.87 86.98
  Q 102.45 85.32 71.39 86.57
  Q 69.53 86.65 66.53 86.22
  Q 93.53 84.61 116.57 85.38
  Q 134.51 85.99 145.54 85.76
  Z"
/>
<path fill="#f97377" d="
  M 56.58 89.64
  Q 54.74 90.45 53.99 91.76
  L 49.78 91.85
  L 42.99 91.91
  A 0.13 0.13 0.0 0 1 42.93 91.66
  Q 45.87 90.22 49.88 89.53
  Q 59.41 87.89 65.77 87.38
  A 0.57 0.57 0.0 0 1 66.39 87.95
  L 66.39 88.23
  A 0.41 0.41 0.0 0 1 66.02 88.64
  L 56.58 89.64
  Z"
/>
<path fill="#f97377" d="
  M 152.54 91.89
  L 148.17 91.72
  L 65.92 91.74
  Q 70.47 89.35 76.52 89.11
  C 99.96 88.16 123.08 89.31 146.41 89.48
  Q 149.43 89.50 152.54 91.89
  Z"
/>
<path fill="#f4353b" d="
  M 56.58 89.64
  L 65.60 89.13
  A 0.52 0.51 88.4 0 1 66.14 89.65
  Q 66.13 90.33 65.68 90.33
  Q 65.33 90.34 65.27 90.35
  Q 60.63 91.35 56.58 89.64
  Z"
/>
<path fill="#fcfbfd" d="
  M 53.99 91.76
  L 65.92 91.74
  L 148.17 91.72
  Q 148.69 91.86 148.96 92.10
  Q 149.23 92.34 149.12 92.64
  Q 149.02 92.90 148.69 93.04
  L 145.27 93.21
  L 56.20 93.29
  L 45.74 93.04
  Q 45.49 91.47 49.78 91.85
  L 53.99 91.76
  Z"
/>
<path fill="#f4edfb" d="
  M 152.54 91.89
  Q 152.88 92.31 153.05 93.03
  L 150.23 93.29
  Q 149.73 93.21 149.29 93.33
  Q 148.92 93.34 148.69 93.04
  Q 149.02 92.90 149.12 92.64
  Q 149.23 92.34 148.96 92.10
  Q 148.69 91.86 148.17 91.72
  L 152.54 91.89
  Z"
/>
<path fill="#f97377" d="
  M 45.74 93.04
  L 56.20 93.29
  L 65.97 95.48
  L 56.64 96.08
  A 0.04 0.03 -75.1 0 0 56.61 96.10
  Q 56.61 96.11 56.60 96.11
  C 57.91 96.31 61.75 97.13 62.61 98.18
  A 0.16 0.16 0.0 0 1 62.44 98.43
  Q 61.77 98.22 60.97 98.30
  C 53.04 96.53 46.08 98.17 39.19 93.06
  L 45.74 93.04
  Z"
/>
<path fill="#f97377" d="
  M 153.05 93.03
  Q 151.12 94.78 148.53 95.56
  A 0.40 0.40 0.0 0 1 148.17 94.86
  L 150.23 93.29
  L 153.05 93.03
  Z"
/>
<path fill="#ae6bfb" d="
  M 165.21 93.00
  Q 161.38 94.60 157.70 96.50
  Q 157.26 96.72 151.59 100.41
  Q 148.18 102.62 144.35 103.59
  L 153.49 97.60
  L 160.68 93.41
  A 1.86 1.76 27.3 0 1 161.51 93.17
  L 165.21 93.00
  Z"
/>
<path fill="#9b61f7" d="
  M 167.02 93.00
  C 157.24 99.23 151.38 106.76 149.48 118.27
  Q 147.85 128.12 147.58 137.85
  Q 151.99 148.68 159.54 157.25
  A 0.22 0.22 0.0 0 1 159.38 157.62
  L 154.03 157.87
  Q 150.21 157.88 146.38 157.86
  Q 142.40 157.83 142.41 161.50
  Q 142.42 163.19 144.42 164.49
  Q 136.99 170.18 128.31 172.14
  C 106.29 177.10 82.36 174.94 60.72 167.90
  Q 54.51 165.89 48.63 164.25
  Q 50.88 160.76 48.41 158.59
  Q 47.60 157.88 46.52 157.89
  Q 38.59 157.93 30.19 157.87
  Q 27.67 157.86 26.53 155.12
  Q 38.50 148.13 51.31 145.06
  Q 51.10 146.66 54.56 145.14
  Q 67.52 156.99 85.06 158.15
  C 103.34 159.36 128.85 156.93 140.16 139.38
  A 0.08 0.06 -75.6 0 0 140.11 139.26
  Q 140.02 139.28 140.00 139.31
  Q 139.58 139.96 139.19 140.28
  A 0.28 0.27 -16.5 0 1 138.74 140.04
  L 141.46 118.45
  L 143.68 106.88
  L 144.12 104.19
  Q 144.17 103.87 144.35 103.59
  Q 148.18 102.62 151.59 100.41
  Q 157.26 96.72 157.70 96.50
  Q 161.38 94.60 165.21 93.00
  L 167.02 93.00
  Z"
/>
<path fill="#f4353b" d="
  M 145.27 93.21
  L 144.53 94.96
  L 142.47 95.09
  C 138.13 95.33 133.71 95.62 129.37 95.62
  C 130.80 95.54 132.18 95.42 133.59 95.16
  Q 133.63 95.15 133.60 95.15
  Q 104.99 95.48 69.07 95.23
  Q 67.40 95.22 69.12 95.32
  C 72.91 95.53 76.67 95.62 80.36 95.62
  C 75.89 95.68 71.43 95.64 66.96 95.74
  L 65.97 95.48
  L 56.20 93.29
  L 145.27 93.21
  Z"
/>
<path fill="#f97377" d="
  M 148.69 93.04
  Q 148.92 93.34 149.29 93.33
  L 144.53 94.96
  L 145.27 93.21
  L 148.69 93.04
  Z"
/>
<ellipse fill="#ae6bfb" cx="0.00" cy="0.00" transform="translate(153.33,94.71) rotate(-21.4)" rx="0.62" ry="0.13"/>
<path fill="#f97377" d="
  M 142.47 95.09
  Q 134.95 96.35 127.31 96.53
  C 107.35 97.00 86.85 97.62 66.96 95.74
  C 71.43 95.64 75.89 95.68 80.36 95.62
  C 76.67 95.62 72.91 95.53 69.12 95.32
  Q 67.40 95.22 69.07 95.23
  Q 104.99 95.48 133.60 95.15
  Q 133.63 95.15 133.59 95.16
  C 132.18 95.42 130.80 95.54 129.37 95.62
  C 133.71 95.62 138.13 95.33 142.47 95.09
  Z"
/>
<path fill="#e9e0f9" d="
  M 153.49 97.60
  L 144.35 103.59
  Q 144.17 103.87 144.12 104.19
  Q 104.31 105.69 64.55 103.48
  Q 64.53 103.38 64.50 103.29
  L 64.96 101.13
  Q 96.28 102.54 127.66 101.89
  Q 130.96 101.82 134.19 101.54
  Q 139.30 100.41 144.49 100.72
  Q 146.70 100.30 148.53 98.99
  Q 151.00 97.79 153.49 97.60
  Z"
/>
<path fill="#8e46e8" d="
  M 65.05 99.97
  L 64.96 101.13
  L 64.50 103.29
  L 60.53 102.79
  L 58.54 101.96
  Q 57.04 100.90 55.20 100.38
  L 60.50 98.99
  L 65.05 99.97
  Z"
/>
<path fill="#ae6bfb" d="
  M 148.53 98.99
  Q 146.70 100.30 144.49 100.72
  L 148.53 98.99
  Z"
/>
<path fill="#dfd4f6" d="
  M 134.19 101.54
  Q 130.96 101.82 127.66 101.89
  Q 96.28 102.54 64.96 101.13
  L 65.05 99.97
  Q 82.18 101.38 99.38 101.30
  Q 107.92 101.26 116.78 101.49
  Q 125.50 101.72 134.19 101.54
  Z"
/>
<path fill="#a565fa" d="
  M 55.20 100.38
  Q 57.04 100.90 58.54 101.96
  L 55.46 101.88
  Q 55.13 101.17 55.20 100.38
  Z"
/>
<path fill="#965bf4" d="
  M 55.46 101.88
  L 58.54 101.96
  L 60.53 102.79
  Q 57.49 103.61 54.46 102.16
  L 55.46 101.88
  Z"
/>
<path fill="#f4edfb" d="
  M 144.12 104.19
  L 143.68 106.88
  L 114.81 110.23
  L 70.69 109.73
  A 0.49 0.49 0.0 0 0 70.20 110.22
  L 70.20 110.48
  A 0.25 0.25 0.0 0 0 70.45 110.73
  L 122.46 111.18
  L 128.63 111.85
  A 0.21 0.20 -62.2 0 1 128.74 112.21
  Q 125.69 114.84 121.74 116.24
  Q 120.95 116.38 120.19 116.25
  Q 118.74 115.70 117.20 116.33
  Q 116.56 116.53 115.88 116.20
  Q 113.91 115.51 112.77 116.43
  L 112.36 116.71
  A 0.49 0.48 -38.9 0 1 111.74 116.65
  Q 111.60 116.50 111.52 116.39
  A 0.34 0.34 0.0 0 0 111.12 116.28
  Q 100.79 120.38 90.66 122.79
  Q 80.86 121.97 71.21 122.58
  Q 69.02 121.67 66.78 122.90
  A 1.24 1.23 81.9 0 0 66.17 123.72
  Q 66.06 124.29 66.24 125.70
  A 0.45 0.45 0.0 0 0 66.69 126.09
  L 68.46 126.09
  A 0.24 0.23 -65.5 0 1 68.61 126.50
  C 65.48 129.33 60.22 131.19 56.58 132.45
  Q 61.86 118.39 64.55 103.48
  Q 104.31 105.69 144.12 104.19
  Z
  M 104.0002 116.4164
  A 1.50 0.54 -179.1 0 0 105.4915 116.9799
  A 1.50 0.54 -179.1 0 0 106.9998 116.4636
  A 1.50 0.54 -179.1 0 0 105.5085 115.9001
  A 1.50 0.54 -179.1 0 0 104.0002 116.4164
  Z"
/>
<path fill="#e9e0f9" d="
  M 143.68 106.88
  L 141.46 118.45
  L 140.23 122.89
  Q 103.61 136.67 64.87 140.99
  Q 61.18 141.40 56.69 143.92
  Q 55.93 144.71 54.56 145.14
  Q 51.10 146.66 51.31 145.06
  L 56.58 132.45
  C 60.22 131.19 65.48 129.33 68.61 126.50
  A 0.24 0.23 -65.5 0 0 68.46 126.09
  L 66.69 126.09
  A 0.45 0.45 0.0 0 1 66.24 125.70
  Q 66.06 124.29 66.17 123.72
  A 1.24 1.23 81.9 0 1 66.78 122.90
  Q 69.02 121.67 71.21 122.58
  Q 69.32 122.48 66.92 123.19
  A 0.80 0.80 0.0 0 0 66.74 124.64
  Q 67.98 125.39 69.81 125.43
  Q 78.40 125.62 89.51 125.29
  Q 90.80 125.25 90.66 122.79
  Q 100.79 120.38 111.12 116.28
  A 0.34 0.34 0.0 0 1 111.52 116.39
  Q 111.60 116.50 111.74 116.65
  A 0.49 0.48 -38.9 0 0 112.36 116.71
  L 112.77 116.43
  Q 114.37 117.09 115.88 116.20
  Q 116.56 116.53 117.20 116.33
  Q 118.94 117.62 120.19 116.25
  Q 120.95 116.38 121.74 116.24
  Q 123.15 117.42 124.15 116.67
  A 0.30 0.29 34.7 0 0 124.05 116.15
  Q 122.94 115.85 121.74 116.24
  Q 125.69 114.84 128.74 112.21
  A 0.21 0.20 -62.2 0 0 128.63 111.85
  L 122.46 111.18
  Q 124.71 111.50 126.35 110.96
  A 0.37 0.36 35.7 0 0 126.23 110.25
  L 114.81 110.23
  L 143.68 106.88
  Z
  M 128.95 116.24
  Q 127.79 115.86 126.50 116.18
  A 0.36 0.36 0.0 0 0 126.44 116.85
  Q 127.15 117.18 128.94 116.71
  A 0.25 0.24 46.5 0 0 128.95 116.24
  Z
  M 130.7609 116.4902
  A 1.36 0.44 -177.9 0 0 132.1039 116.9797
  A 1.36 0.44 -177.9 0 0 133.4791 116.5898
  A 1.36 0.44 -177.9 0 0 132.1361 116.1003
  A 1.36 0.44 -177.9 0 0 130.7609 116.4902
  Z
  M 136.13 116.71
  A 0.14 0.14 0.0 0 0 135.99 116.57
  A 0.14 0.14 0.0 0 0 135.85 116.71
  A 0.14 0.14 0.0 0 0 135.99 116.85
  A 0.14 0.14 0.0 0 0 136.13 116.71
  Z
  M 103.0800 130.8943
  A 1.52 1.52 0.0 0 0 101.5627 129.3716
  L 65.3027 129.3084
  A 1.52 1.52 0.0 0 0 63.7801 130.8257
  L 63.7800 130.8857
  A 1.52 1.52 0.0 0 0 65.2973 132.4084
  L 101.5573 132.4716
  A 1.52 1.52 0.0 0 0 103.0799 130.9543
  L 103.0800 130.8943
  Z"
/>
<path fill="#d5c8f6" d="
  M 114.81 110.23
  L 126.23 110.25
  A 0.37 0.36 35.7 0 1 126.35 110.96
  Q 124.71 111.50 122.46 111.18
  L 70.45 110.73
  A 0.25 0.25 0.0 0 1 70.20 110.48
  L 70.20 110.22
  A 0.49 0.49 0.0 0 1 70.69 109.73
  L 114.81 110.23
  Z"
/>
<path fill="#9b61f7" d="
  M 19.65 134.75
  Q 18.72 146.43 19.96 157.59
  Q 8.55 144.74 0.00 129.12
  L 0.00 110.94
  L 19.65 134.75
  Z"
/>
<ellipse fill="#d5c8f6" cx="0.00" cy="0.00" transform="translate(105.50,116.44) rotate(-179.1)" rx="1.50" ry="0.54"/>
<path fill="#d5c8f6" d="
  M 115.88 116.20
  Q 114.37 117.09 112.77 116.43
  Q 113.91 115.51 115.88 116.20
  Z"
/>
<path fill="#d5c8f6" d="
  M 120.19 116.25
  Q 118.94 117.62 117.20 116.33
  Q 118.74 115.70 120.19 116.25
  Z"
/>
<path fill="#d5c8f6" d="
  M 121.74 116.24
  Q 122.94 115.85 124.05 116.15
  A 0.30 0.29 34.7 0 1 124.15 116.67
  Q 123.15 117.42 121.74 116.24
  Z"
/>
<path fill="#d5c8f6" d="
  M 128.94 116.71
  Q 127.15 117.18 126.44 116.85
  A 0.36 0.36 0.0 0 1 126.50 116.18
  Q 127.79 115.86 128.95 116.24
  A 0.25 0.24 46.5 0 1 128.94 116.71
  Z"
/>
<ellipse fill="#d5c8f6" cx="0.00" cy="0.00" transform="translate(132.12,116.54) rotate(-177.9)" rx="1.36" ry="0.44"/>
<circle fill="#d5c8f6" cx="135.99" cy="116.71" r="0.14"/>
<path fill="#965bf4" d="
  M 54.56 145.14
  Q 55.93 144.71 56.69 143.92
  Q 59.71 143.05 62.56 141.84
  Q 64.34 141.08 66.84 142.66
  C 68.88 153.29 80.00 154.19 89.18 154.66
  Q 104.59 155.47 118.10 152.21
  Q 126.89 150.08 135.55 143.47
  Q 136.69 142.59 137.26 139.94
  A 1.16 1.15 -58.3 0 0 137.05 139.02
  Q 136.38 138.17 135.15 138.12
  L 137.46 131.99
  L 140.23 122.89
  L 141.46 118.45
  L 138.74 140.04
  A 0.28 0.27 -16.5 0 0 139.19 140.28
  Q 139.58 139.96 140.00 139.31
  Q 140.02 139.28 140.11 139.26
  A 0.08 0.06 -75.6 0 1 140.16 139.38
  C 128.85 156.93 103.34 159.36 85.06 158.15
  Q 67.52 156.99 54.56 145.14
  Z"
/>
<path fill="#dfd4f6" d="
  M 90.66 122.79
  Q 90.80 125.25 89.51 125.29
  Q 78.40 125.62 69.81 125.43
  Q 67.98 125.39 66.74 124.64
  A 0.80 0.80 0.0 0 1 66.92 123.19
  Q 69.32 122.48 71.21 122.58
  Q 80.86 121.97 90.66 122.79
  Z"
/>
<path fill="#dfd4f6" d="
  M 140.23 122.89
  L 137.46 131.99
  L 94.00 142.58
  C 90.43 141.41 85.65 144.21 82.49 145.70
  C 79.60 146.62 77.25 148.10 74.04 146.69
  L 66.84 142.66
  Q 64.34 141.08 62.56 141.84
  Q 59.71 143.05 56.69 143.92
  Q 61.18 141.40 64.87 140.99
  Q 103.61 136.67 140.23 122.89
  Z"
/>
<path fill="#965bf4" d="
  M 19.96 157.59
  Q 23.14 164.18 29.25 164.76
  Q 36.49 165.45 48.63 164.25
  Q 54.51 165.89 60.72 167.90
  C 82.36 174.94 106.29 177.10 128.31 172.14
  Q 136.99 170.18 144.42 164.49
  Q 153.48 164.92 162.32 164.50
  Q 167.81 164.24 171.54 158.94
  L 192.00 129.32
  L 192.00 192.00
  L 0.00 192.00
  L 0.00 129.12
  Q 8.55 144.74 19.96 157.59
  Z"
/>
<rect fill="#d5c8f6" x="-19.65" y="-1.55" transform="translate(83.43,130.89) rotate(0.1)" width="39.30" height="3.10" rx="1.52"/>
<path fill="#d5c8f6" d="
  M 137.46 131.99
  L 135.15 138.12
  C 133.51 142.47 131.56 147.20 125.96 145.12
  L 121.99 142.63
  A 2.50 2.48 65.4 0 0 121.06 142.28
  Q 118.94 141.92 117.24 142.75
  Q 114.25 144.22 109.53 146.28
  C 105.99 147.82 102.66 147.29 99.51 145.28
  L 94.00 142.58
  L 137.46 131.99
  Z"
/>
<path fill="#f4f2fb" d="
  M 26.53 155.12
  Q 27.67 157.86 30.19 157.87
  Q 38.59 157.93 46.52 157.89
  Q 47.60 157.88 48.41 158.59
  Q 50.88 160.76 48.63 164.25
  Q 36.49 165.45 29.25 164.76
  Q 23.14 164.18 19.96 157.59
  Q 18.72 146.43 19.65 134.75
  Q 23.10 132.43 24.96 133.97
  Q 26.40 135.16 26.37 139.30
  Q 26.32 147.10 26.53 155.12
  Z"
/>
<path fill="#f4f2fb" d="
  M 171.54 158.94
  Q 167.81 164.24 162.32 164.50
  Q 153.48 164.92 144.42 164.49
  Q 142.42 163.19 142.41 161.50
  Q 142.40 157.83 146.38 157.86
  Q 150.21 157.88 154.03 157.87
  Q 159.73 158.16 161.76 157.98
  Q 165.69 157.62 165.69 153.71
  Q 165.70 145.26 165.67 137.75
  Q 165.66 134.82 167.38 133.82
  A 2.19 2.17 -62.0 0 1 168.28 133.54
  Q 172.37 133.23 172.77 136.49
  Q 174.02 147.01 171.54 158.94
  Z"
/>
<path fill="#8e46e8" d="
  M 66.84 142.66
  L 74.04 146.69
  Q 77.34 150.79 83.84 150.72
  Q 98.83 150.55 105.95 150.13
  C 112.72 149.73 120.19 149.00 125.96 145.12
  C 131.56 147.20 133.51 142.47 135.15 138.12
  Q 136.38 138.17 137.05 139.02
  A 1.16 1.15 -58.3 0 1 137.26 139.94
  Q 136.69 142.59 135.55 143.47
  Q 126.89 150.08 118.10 152.21
  Q 104.59 155.47 89.18 154.66
  C 80.00 154.19 68.88 153.29 66.84 142.66
  Z"
/>
<path fill="#8e46e8" d="
  M 94.00 142.58
  L 99.51 145.28
  Q 91.09 148.67 82.49 145.70
  C 85.65 144.21 90.43 141.41 94.00 142.58
  Z"
/>
<path fill="#8e46e8" d="
  M 125.96 145.12
  C 120.19 149.00 112.72 149.73 105.95 150.13
  Q 98.83 150.55 83.84 150.72
  Q 77.34 150.79 74.04 146.69
  C 77.25 148.10 79.60 146.62 82.49 145.70
  Q 91.09 148.67 99.51 145.28
  C 102.66 147.29 105.99 147.82 109.53 146.28
  Q 114.25 144.22 117.24 142.75
  Q 118.94 141.92 121.06 142.28
  A 2.50 2.48 65.4 0 1 121.99 142.63
  L 125.96 145.12
  Z"
/>
</svg>
