<?xml version="1.0" encoding="UTF-8" standalone="no"?>
<!DOCTYPE svg PUBLIC "-//W3C//DTD SVG 1.1//EN" "http://www.w3.org/Graphics/SVG/1.1/DTD/svg11.dtd">
<svg xmlns="http://www.w3.org/2000/svg" version="1.1" viewBox="0.00 0.00 256.00 256.00">
<g stroke-width="2.00" fill="none" stroke-linecap="butt">
<path stroke="#fe6445" vector-effect="non-scaling-stroke" d="
  M 91.08 0.00
  Q 46.12 46.07 0.00 91.05"
/>
<path stroke="#fd604d" vector-effect="non-scaling-stroke" d="
  M 128.07 0.00
  C 94.14 35.18 59.19 69.48 24.57 103.98
  Q 14.79 113.73 0.00 126.95"
/>
<path stroke="#fd5c56" vector-effect="non-scaling-stroke" d="
  M 182.75 0.00
  Q 173.26 11.13 165.87 18.58
  Q 143.53 41.12 127.92 57.98"
/>
<path stroke="#feaba4" vector-effect="non-scaling-stroke" d="
  M 127.92 57.98
  Q 107.41 57.97 86.70 57.99
  Q 77.95 57.99 74.50 59.32
  Q 66.37 62.46 62.17 70.59
  C 60.16 74.50 59.89 79.04 59.93 83.75
  Q 60.07 100.24 59.95 133.72"
/>
<path stroke="#fd5c56" vector-effect="non-scaling-stroke" d="
  M 59.95 133.72
  Q 45.26 151.46 26.81 169.24
  Q 13.33 182.24 0.00 192.07"
/>
<path stroke="#fc575f" vector-effect="non-scaling-stroke" d="
  M 235.82 14.95
  L 186.05 62.10"
/>
<path stroke="#fea8a9" vector-effect="non-scaling-stroke" d="
  M 186.05 62.10
  Q 180.56 58.01 173.00 58.00
  Q 150.58 57.97 127.92 57.98"
/>
<path stroke="#fb5467" vector-effect="non-scaling-stroke" d="
  M 251.25 36.07
  L 194.06 92.41"
/>
<path stroke="#fda6ad" vector-effect="non-scaling-stroke" d="
  M 194.06 92.41
  C 194.06 79.90 195.26 70.12 186.05 62.10"
/>
<path stroke="#fa516f" vector-effect="non-scaling-stroke" d="
  M 256.00 69.35
  Q 244.72 79.12 237.42 86.38
  Q 213.17 110.52 194.07 128.15"
/>
<path stroke="#fda5b1" vector-effect="non-scaling-stroke" d="
  M 194.07 128.15
  L 194.06 92.41"
/>
<path stroke="#fda3b5" vector-effect="non-scaling-stroke" d="
  M 194.07 128.15
  C 193.99 136.74 195.11 146.19 189.92 153.66
  Q 184.18 161.91 173.75 161.98
  Q 166.84 162.03 159.97 162.05"
/>
<path stroke="#fda5b1" vector-effect="non-scaling-stroke" d="
  M 159.97 162.05
  L 130.90 161.99
  A 2.20 2.20 0.0 0 0 129.37 162.61
  L 102.23 189.33"
/>
<path stroke="#fda6ad" vector-effect="non-scaling-stroke" d="
  M 102.23 189.33
  L 106.90 162.54
  A 0.48 0.47 4.6 0 0 106.43 161.99
  Q 93.18 162.05 80.11 161.94
  Q 77.19 161.92 72.76 159.91"
/>
<path stroke="#fea8a9" vector-effect="non-scaling-stroke" d="
  M 72.76 159.91
  Q 62.04 154.49 60.23 142.75
  Q 59.90 140.58 59.95 133.72"
/>
<path stroke="#feaba4" vector-effect="non-scaling-stroke" d="
  M 114.53 114.23
  Q 110.29 108.74 105.96 103.28
  Q 103.63 100.36 100.78 100.03
  C 95.99 99.49 92.25 103.86 93.15 108.50
  Q 93.46 110.10 96.81 114.29
  Q 99.69 117.89 102.48 121.52"
/>
<path stroke="#fda5b1" vector-effect="non-scaling-stroke" d="
  M 102.48 121.52
  Q 106.32 126.42 110.15 131.32
  Q 113.72 135.90 116.11 136.79
  Q 119.95 138.22 123.42 134.40
  Q 135.72 120.86 160.05 93.97
  Q 162.04 91.78 162.47 90.64
  C 164.66 84.85 159.23 79.37 153.46 81.48
  Q 151.73 82.11 149.07 85.19
  Q 147.79 86.67 118.70 118.78
  A 0.38 0.38 0.0 0 1 118.12 118.76
  L 114.53 114.23"
/>
<path stroke="#fc585e" vector-effect="non-scaling-stroke" d="
  M 102.48 121.52
  L 114.53 114.23"
/>
<path stroke="#fa4d77" vector-effect="non-scaling-stroke" d="
  M 256.00 116.82
  Q 242.52 124.28 229.18 137.55
  Q 183.04 183.42 137.15 229.54
  Q 124.03 242.72 116.23 256.00"
/>
<path stroke="#fa516f" vector-effect="non-scaling-stroke" d="
  M 65.51 256.00
  Q 80.58 243.01 97.42 226.17
  C 124.82 198.75 142.30 181.57 159.97 162.05"
/>
<path stroke="#f94880" vector-effect="non-scaling-stroke" d="
  M 256.00 178.05
  C 238.09 197.53 219.21 216.05 200.59 234.84
  C 194.89 240.59 188.29 247.48 190.30 256.00"
/>
<path stroke="#fc575f" vector-effect="non-scaling-stroke" d="
  M 72.76 159.91
  C 49.69 180.05 28.78 202.31 6.25 223.05"
/>
<path stroke="#fb5467" vector-effect="non-scaling-stroke" d="
  M 102.23 189.33
  L 39.94 253.26"
/>
</g>
<path fill="#fe6541" d="
  M 91.08 0.00
  Q 46.12 46.07 0.00 91.05
  L 0.00 53.43
  C 1.79 23.98 24.00 2.24 53.36 0.00
  L 91.08 0.00
  Z"
/>
<path fill="#fd6249" d="
  M 128.07 0.00
  C 94.14 35.18 59.19 69.48 24.57 103.98
  Q 14.79 113.73 0.00 126.95
  L 0.00 91.05
  Q 46.12 46.07 91.08 0.00
  L 128.07 0.00
  Z"
/>
<path fill="#fd5e51" d="
  M 182.75 0.00
  Q 173.26 11.13 165.87 18.58
  Q 143.53 41.12 127.92 57.98
  Q 107.41 57.97 86.70 57.99
  Q 77.95 57.99 74.50 59.32
  Q 66.37 62.46 62.17 70.59
  C 60.16 74.50 59.89 79.04 59.93 83.75
  Q 60.07 100.24 59.95 133.72
  Q 45.26 151.46 26.81 169.24
  Q 13.33 182.24 0.00 192.07
  L 0.00 126.95
  Q 14.79 113.73 24.57 103.98
  C 59.19 69.48 94.14 35.18 128.07 0.00
  L 182.75 0.00
  Z"
/>
<path fill="#fc595b" d="
  M 203.16 0.00
  Q 221.87 1.97 235.82 14.95
  L 186.05 62.10
  Q 180.56 58.01 173.00 58.00
  Q 150.58 57.97 127.92 57.98
  Q 143.53 41.12 165.87 18.58
  Q 173.26 11.13 182.75 0.00
  L 203.16 0.00
  Z"
/>
<path fill="#fb5563" d="
  M 251.25 36.07
  L 194.06 92.41
  C 194.06 79.90 195.26 70.12 186.05 62.10
  L 235.82 14.95
  Q 245.80 24.02 251.25 36.07
  Z"
/>
<path fill="#fa526b" d="
  M 256.00 53.91
  L 256.00 69.35
  Q 244.72 79.12 237.42 86.38
  Q 213.17 110.52 194.07 128.15
  L 194.06 92.41
  L 251.25 36.07
  Q 255.20 44.63 256.00 53.91
  Z"
/>
<path fill="#fff7f7" d="
  M 127.92 57.98
  Q 150.58 57.97 173.00 58.00
  Q 180.56 58.01 186.05 62.10
  C 195.26 70.12 194.06 79.90 194.06 92.41
  L 194.07 128.15
  C 193.99 136.74 195.11 146.19 189.92 153.66
  Q 184.18 161.91 173.75 161.98
  Q 166.84 162.03 159.97 162.05
  L 130.90 161.99
  A 2.20 2.20 0.0 0 0 129.37 162.61
  L 102.23 189.33
  L 106.90 162.54
  A 0.48 0.47 4.6 0 0 106.43 161.99
  Q 93.18 162.05 80.11 161.94
  Q 77.19 161.92 72.76 159.91
  Q 62.04 154.49 60.23 142.75
  Q 59.90 140.58 59.95 133.72
  Q 60.07 100.24 59.93 83.75
  C 59.89 79.04 60.16 74.50 62.17 70.59
  Q 66.37 62.46 74.50 59.32
  Q 77.95 57.99 86.70 57.99
  Q 107.41 57.97 127.92 57.98
  Z
  M 114.53 114.23
  Q 110.29 108.74 105.96 103.28
  Q 103.63 100.36 100.78 100.03
  C 95.99 99.49 92.25 103.86 93.15 108.50
  Q 93.46 110.10 96.81 114.29
  Q 99.69 117.89 102.48 121.52
  Q 106.32 126.42 110.15 131.32
  Q 113.72 135.90 116.11 136.79
  Q 119.95 138.22 123.42 134.40
  Q 135.72 120.86 160.05 93.97
  Q 162.04 91.78 162.47 90.64
  C 164.66 84.85 159.23 79.37 153.46 81.48
  Q 151.73 82.11 149.07 85.19
  Q 147.79 86.67 118.70 118.78
  A 0.38 0.38 0.0 0 1 118.12 118.76
  L 114.53 114.23
  Z"
/>
<path fill="#fa4f72" d="
  M 256.00 69.35
  L 256.00 116.82
  Q 242.52 124.28 229.18 137.55
  Q 183.04 183.42 137.15 229.54
  Q 124.03 242.72 116.23 256.00
  L 65.51 256.00
  Q 80.58 243.01 97.42 226.17
  C 124.82 198.75 142.30 181.57 159.97 162.05
  Q 166.84 162.03 173.75 161.98
  Q 184.18 161.91 189.92 153.66
  C 195.11 146.19 193.99 136.74 194.07 128.15
  Q 213.17 110.52 237.42 86.38
  Q 244.72 79.12 256.00 69.35
  Z"
/>
<path fill="#fa526b" d="
  M 102.48 121.52
  L 114.53 114.23
  L 118.12 118.76
  A 0.38 0.38 0.0 0 0 118.70 118.78
  Q 147.79 86.67 149.07 85.19
  Q 151.73 82.11 153.46 81.48
  C 159.23 79.37 164.66 84.85 162.47 90.64
  Q 162.04 91.78 160.05 93.97
  Q 135.72 120.86 123.42 134.40
  Q 119.95 138.22 116.11 136.79
  Q 113.72 135.90 110.15 131.32
  Q 106.32 126.42 102.48 121.52
  Z"
/>
<path fill="#fd5e51" d="
  M 114.53 114.23
  L 102.48 121.52
  Q 99.69 117.89 96.81 114.29
  Q 93.46 110.10 93.15 108.50
  C 92.25 103.86 95.99 99.49 100.78 100.03
  Q 103.63 100.36 105.96 103.28
  Q 110.29 108.74 114.53 114.23
  Z"
/>
<path fill="#f94a7b" d="
  M 256.00 116.82
  L 256.00 178.05
  C 238.09 197.53 219.21 216.05 200.59 234.84
  C 194.89 240.59 188.29 247.48 190.30 256.00
  L 116.23 256.00
  Q 124.03 242.72 137.15 229.54
  Q 183.04 183.42 229.18 137.55
  Q 242.52 124.28 256.00 116.82
  Z"
/>
<path fill="#fc595b" d="
  M 59.95 133.72
  Q 59.90 140.58 60.23 142.75
  Q 62.04 154.49 72.76 159.91
  C 49.69 180.05 28.78 202.31 6.25 223.05
  Q 1.01 213.23 0.00 202.11
  L 0.00 192.07
  Q 13.33 182.24 26.81 169.24
  Q 45.26 151.46 59.95 133.72
  Z"
/>
<path fill="#fb5563" d="
  M 72.76 159.91
  Q 77.19 161.92 80.11 161.94
  Q 93.18 162.05 106.43 161.99
  A 0.48 0.47 4.6 0 1 106.90 162.54
  L 102.23 189.33
  L 39.94 253.26
  Q 17.69 244.44 6.25 223.05
  C 28.78 202.31 49.69 180.05 72.76 159.91
  Z"
/>
<path fill="#fa526b" d="
  M 159.97 162.05
  C 142.30 181.57 124.82 198.75 97.42 226.17
  Q 80.58 243.01 65.51 256.00
  L 52.87 256.00
  L 39.94 253.26
  L 102.23 189.33
  L 129.37 162.61
  A 2.20 2.20 0.0 0 1 130.90 161.99
  L 159.97 162.05
  Z"
/>
<path fill="#f84685" d="
  M 256.00 178.05
  L 256.00 202.44
  Q 253.87 231.31 230.61 246.86
  Q 218.36 255.05 202.52 256.00
  L 190.30 256.00
  C 188.29 247.48 194.89 240.59 200.59 234.84
  C 219.21 216.05 238.09 197.53 256.00 178.05
  Z"
/>
</svg>
