<?xml version="1.0" encoding="UTF-8" standalone="no"?>
<!DOCTYPE svg PUBLIC "-//W3C//DTD SVG 1.1//EN" "http://www.w3.org/Graphics/SVG/1.1/DTD/svg11.dtd">
<svg xmlns="http://www.w3.org/2000/svg" version="1.1" viewBox="0.00 0.00 210.00 210.00">
<path stroke="#96968e" stroke-width="2.00" fill="none" stroke-linecap="butt" vector-effect="non-scaling-stroke" d="
  M 82.80 92.06
  C 89.63 86.88 98.23 95.29 93.24 102.49
  Q 61.61 148.07 59.60 151.10
  C 55.75 156.86 59.13 163.31 66.01 163.31
  Q 102.45 163.35 114.74 163.31
  Q 119.82 163.29 122.06 158.74
  A 3.30 3.09 -27.1 0 0 122.29 158.10
  Q 126.25 141.07 138.65 87.19
  Q 139.64 82.88 140.53 81.68
  C 143.12 78.21 148.03 77.75 151.45 80.44
  Q 152.20 81.03 154.11 84.33
  C 157.80 90.69 167.67 87.69 167.71 80.01
  Q 167.82 58.46 167.73 56.33
  C 167.37 46.87 156.52 43.42 150.49 50.51
  Q 129.34 75.38 126.12 79.21
  C 122.24 83.83 118.68 83.57 113.50 80.28
  Q 94.75 68.35 62.79 48.21
  C 57.25 44.72 51.08 47.97 51.09 54.52
  Q 51.14 82.40 51.06 99.12
  Q 51.04 103.78 52.41 105.61
  Q 54.55 108.46 58.25 108.84
  C 60.60 109.07 62.55 107.79 64.51 106.26
  Q 77.38 96.18 82.80 92.06"
/>
<path fill="#2c2c1d" d="
  M 210.00 0.00
  L 210.00 210.00
  L 0.00 210.00
  L 0.00 0.00
  L 210.00 0.00
  Z
  M 82.80 92.06
  C 89.63 86.88 98.23 95.29 93.24 102.49
  Q 61.61 148.07 59.60 151.10
  C 55.75 156.86 59.13 163.31 66.01 163.31
  Q 102.45 163.35 114.74 163.31
  Q 119.82 163.29 122.06 158.74
  A 3.30 3.09 -27.1 0 0 122.29 158.10
  Q 126.25 141.07 138.65 87.19
  Q 139.64 82.88 140.53 81.68
  C 143.12 78.21 148.03 77.75 151.45 80.44
  Q 152.20 81.03 154.11 84.33
  C 157.80 90.69 167.67 87.69 167.71 80.01
  Q 167.82 58.46 167.73 56.33
  C 167.37 46.87 156.52 43.42 150.49 50.51
  Q 129.34 75.38 126.12 79.21
  C 122.24 83.83 118.68 83.57 113.50 80.28
  Q 94.75 68.35 62.79 48.21
  C 57.25 44.72 51.08 47.97 51.09 54.52
  Q 51.14 82.40 51.06 99.12
  Q 51.04 103.78 52.41 105.61
  Q 54.55 108.46 58.25 108.84
  C 60.60 109.07 62.55 107.79 64.51 106.26
  Q 77.38 96.18 82.80 92.06
  Z"
/>
<path fill="#ffffff" d="
  M 93.24 102.49
  C 98.23 95.29 89.63 86.88 82.80 92.06
  Q 77.38 96.18 64.51 106.26
  C 62.55 107.79 60.60 109.07 58.25 108.84
  Q 54.55 108.46 52.41 105.61
  Q 51.04 103.78 51.06 99.12
  Q 51.14 82.40 51.09 54.52
  C 51.08 47.97 57.25 44.72 62.79 48.21
  Q 94.75 68.35 113.50 80.28
  C 118.68 83.57 122.24 83.83 126.12 79.21
  Q 129.34 75.38 150.49 50.51
  C 156.52 43.42 167.37 46.87 167.73 56.33
  Q 167.82 58.46 167.71 80.01
  C 167.67 87.69 157.80 90.69 154.11 84.33
  Q 152.20 81.03 151.45 80.44
  C 148.03 77.75 143.12 78.21 140.53 81.68
  Q 139.64 82.88 138.65 87.19
  Q 126.25 141.07 122.29 158.10
  A 3.30 3.09 -27.1 0 1 122.06 158.74
  Q 119.82 163.29 114.74 163.31
  Q 102.45 163.35 66.01 163.31
  C 59.13 163.31 55.75 156.86 59.60 151.10
  Q 61.61 148.07 93.24 102.49
  Z"
/>
</svg>
