<?xml version="1.0" encoding="UTF-8" standalone="no"?>
<!DOCTYPE svg PUBLIC "-//W3C//DTD SVG 1.1//EN" "http://www.w3.org/Graphics/SVG/1.1/DTD/svg11.dtd">
<svg xmlns="http://www.w3.org/2000/svg" version="1.1" viewBox="0.00 0.00 32.00 32.00">
<g stroke-width="2.00" fill="none" stroke-linecap="butt">
<path stroke="#382750" vector-effect="non-scaling-stroke" d="
  M 32.00 14.12
  L 27.58 13.91
  A 0.51 0.49 82.0 0 1 27.14 13.57
  L 27.03 13.22"
/>
<path stroke="#5e6f8c" vector-effect="non-scaling-stroke" d="
  M 27.03 13.22
  Q 27.78 13.63 28.16 13.09
  Q 28.55 12.53 28.04 12.07
  Q 27.73 11.78 27.07 12.06"
/>
<path stroke="#382750" vector-effect="non-scaling-stroke" d="
  M 27.07 12.06
  Q 26.46 9.00 23.80 8.04"
/>
<path stroke="#988ca5" vector-effect="non-scaling-stroke" d="
  M 23.80 8.04
  Q 23.96 6.67 23.55 5.55
  A 0.87 0.87 0.0 0 0 22.58 4.99
  Q 19.47 5.57 15.68 6.36
  C 13.45 6.83 12.03 6.80 12.06 9.27
  Q 12.13 14.21 11.96 18.50
  A 0.63 0.62 -90.0 0 1 11.37 19.10
  Q 9.37 19.21 7.88 20.04"
/>
<path stroke="#382750" vector-effect="non-scaling-stroke" d="
  M 7.88 20.04
  Q 7.07 18.65 5.62 17.90"
/>
<path stroke="#5e6f8c" vector-effect="non-scaling-stroke" d="
  M 5.62 17.90
  L 7.11 16.07
  A 0.63 0.63 0.0 0 0 6.99 15.16
  Q 6.23 14.61 5.97 13.95
  A 0.44 0.44 0.0 0 0 5.18 13.88
  Q 4.63 14.75 3.86 15.36
  A 0.56 0.56 0.0 0 0 3.96 16.30
  Q 4.58 16.61 5.04 17.61"
/>
<path stroke="#382750" vector-effect="non-scaling-stroke" d="
  M 5.04 17.61
  L 0.00 16.74"
/>
<path stroke="#928ba3" vector-effect="non-scaling-stroke" d="
  M 23.80 8.04
  L 23.60 20.82
  A 1.89 1.82 60.7 0 1 23.38 21.66
  C 21.95 24.26 17.59 24.67 17.22 21.27
  C 16.94 18.71 18.88 17.46 21.33 17.43
  A 1.03 1.03 0.0 0 0 22.35 16.40
  L 22.35 11.57
  A 0.94 0.94 0.0 0 0 21.19 10.66
  L 14.63 12.25
  A 1.34 1.34 0.0 0 0 13.61 13.55
  L 13.61 22.76
  A 2.93 2.92 82.0 0 1 11.50 25.57
  C 7.34 26.78 4.75 22.81 7.88 20.04"
/>
<path stroke="#586d89" vector-effect="non-scaling-stroke" d="
  M 27.07 12.06
  Q 26.70 12.68 27.03 13.22"
/>
<path stroke="#586d89" vector-effect="non-scaling-stroke" d="
  M 5.04 17.61
  Q 5.20 17.96 5.62 17.90"
/>
<path stroke="#946d6d" vector-effect="non-scaling-stroke" d="
  M 26.11 25.62
  Q 26.84 25.60 27.42 24.90
  A 0.60 0.60 0.0 0 0 27.35 24.08
  Q 26.31 23.15 26.03 23.16
  Q 25.75 23.17 24.77 24.16
  A 0.60 0.60 0.0 0 0 24.76 24.98
  Q 25.38 25.64 26.11 25.62"
/>
</g>
<path fill="#3d2852" d="
  M 26.39 0.00
  Q 30.63 1.11 32.00 5.25
  L 32.00 14.12
  L 27.58 13.91
  A 0.51 0.49 82.0 0 1 27.14 13.57
  L 27.03 13.22
  Q 27.78 13.63 28.16 13.09
  Q 28.55 12.53 28.04 12.07
  Q 27.73 11.78 27.07 12.06
  Q 26.46 9.00 23.80 8.04
  Q 23.96 6.67 23.55 5.55
  A 0.87 0.87 0.0 0 0 22.58 4.99
  Q 19.47 5.57 15.68 6.36
  C 13.45 6.83 12.03 6.80 12.06 9.27
  Q 12.13 14.21 11.96 18.50
  A 0.63 0.62 -90.0 0 1 11.37 19.10
  Q 9.37 19.21 7.88 20.04
  Q 7.07 18.65 5.62 17.90
  L 7.11 16.07
  A 0.63 0.63 0.0 0 0 6.99 15.16
  Q 6.23 14.61 5.97 13.95
  A 0.44 0.44 0.0 0 0 5.18 13.88
  Q 4.63 14.75 3.86 15.36
  A 0.56 0.56 0.0 0 0 3.96 16.30
  Q 4.58 16.61 5.04 17.61
  L 0.00 16.74
  L 0.00 6.26
  Q 0.82 1.41 5.66 0.00
  L 26.39 0.00
  Z"
/>
<path fill="#f2f0f8" d="
  M 23.80 8.04
  L 23.60 20.82
  A 1.89 1.82 60.7 0 1 23.38 21.66
  C 21.95 24.26 17.59 24.67 17.22 21.27
  C 16.94 18.71 18.88 17.46 21.33 17.43
  A 1.03 1.03 0.0 0 0 22.35 16.40
  L 22.35 11.57
  A 0.94 0.94 0.0 0 0 21.19 10.66
  L 14.63 12.25
  A 1.34 1.34 0.0 0 0 13.61 13.55
  L 13.61 22.76
  A 2.93 2.92 82.0 0 1 11.50 25.57
  C 7.34 26.78 4.75 22.81 7.88 20.04
  Q 9.37 19.21 11.37 19.10
  A 0.63 0.62 -90.0 0 0 11.96 18.50
  Q 12.13 14.21 12.06 9.27
  C 12.03 6.80 13.45 6.83 15.68 6.36
  Q 19.47 5.57 22.58 4.99
  A 0.87 0.87 0.0 0 1 23.55 5.55
  Q 23.96 6.67 23.80 8.04
  Z"
/>
<path fill="#32254d" d="
  M 27.07 12.06
  Q 26.70 12.68 27.03 13.22
  L 27.14 13.57
  A 0.51 0.49 82.0 0 0 27.58 13.91
  L 32.00 14.12
  L 32.00 26.52
  Q 30.85 30.78 26.56 32.00
  L 5.54 32.00
  Q 0.86 30.62 0.00 25.83
  L 0.00 16.74
  L 5.04 17.61
  Q 5.20 17.96 5.62 17.90
  Q 7.07 18.65 7.88 20.04
  C 4.75 22.81 7.34 26.78 11.50 25.57
  A 2.93 2.92 82.0 0 0 13.61 22.76
  L 13.61 13.55
  A 1.34 1.34 0.0 0 1 14.63 12.25
  L 21.19 10.66
  A 0.94 0.94 0.0 0 1 22.35 11.57
  L 22.35 16.40
  A 1.03 1.03 0.0 0 1 21.33 17.43
  C 18.88 17.46 16.94 18.71 17.22 21.27
  C 17.59 24.67 21.95 24.26 23.38 21.66
  A 1.89 1.82 60.7 0 0 23.60 20.82
  L 23.80 8.04
  Q 26.46 9.00 27.07 12.06
  Z
  M 26.11 25.62
  Q 26.84 25.60 27.42 24.90
  A 0.60 0.60 0.0 0 0 27.35 24.08
  Q 26.31 23.15 26.03 23.16
  Q 25.75 23.17 24.77 24.16
  A 0.60 0.60 0.0 0 0 24.76 24.98
  Q 25.38 25.64 26.11 25.62
  Z"
/>
<path fill="#7eb5c5" d="
  M 27.03 13.22
  Q 26.70 12.68 27.07 12.06
  Q 27.73 11.78 28.04 12.07
  Q 28.55 12.53 28.16 13.09
  Q 27.78 13.63 27.03 13.22
  Z"
/>
<path fill="#7eb5c5" d="
  M 5.62 17.90
  Q 5.20 17.96 5.04 17.61
  Q 4.58 16.61 3.96 16.30
  A 0.56 0.56 0.0 0 1 3.86 15.36
  Q 4.63 14.75 5.18 13.88
  A 0.44 0.44 0.0 0 1 5.97 13.95
  Q 6.23 14.61 6.99 15.16
  A 0.63 0.63 0.0 0 1 7.11 16.07
  L 5.62 17.90
  Z"
/>
<path fill="#f5b58d" d="
  M 26.03 23.16
  Q 26.31 23.15 27.35 24.08
  A 0.60 0.60 0.0 0 1 27.42 24.90
  Q 26.84 25.60 26.11 25.62
  Q 25.38 25.64 24.76 24.98
  A 0.60 0.60 0.0 0 1 24.77 24.16
  Q 25.75 23.17 26.03 23.16
  Z"
/>
</svg>
