<?xml version="1.0" encoding="UTF-8" standalone="no"?>
<!DOCTYPE svg PUBLIC "-//W3C//DTD SVG 1.1//EN" "http://www.w3.org/Graphics/SVG/1.1/DTD/svg11.dtd">
<svg xmlns="http://www.w3.org/2000/svg" version="1.1" viewBox="0.00 0.00 512.00 512.00">
<path fill="#40a7e3" d="
  M 488.94 256.00
  A 232.94 232.94 0.0 0 1 256.00 488.94
  A 232.94 232.94 0.0 0 1 23.06 256.00
  A 232.94 232.94 0.0 0 1 256.00 23.06
  A 232.94 232.94 0.0 0 1 488.94 256.00
  Z
  M 418.49 150.37
  A 37.79 37.79 0.0 0 0 380.70 112.58
  A 37.79 37.79 0.0 0 0 342.91 150.37
  A 37.79 37.79 0.0 0 0 380.70 188.16
  A 37.79 37.79 0.0 0 0 418.49 150.37
  Z
  M 185.16 405.25
  L 261.05 405.25
  A 0.53 0.53 0.0 0 0 261.57 404.82
  L 293.91 221.77
  A 0.63 0.63 0.0 0 1 294.53 221.25
  L 358.94 221.25
  A 0.37 0.36 5.8 0 0 359.30 220.96
  L 361.97 205.85
  A 0.64 0.64 0.0 0 0 361.58 205.16
  Q 330.56 192.99 323.59 160.74
  A 0.61 0.61 0.0 0 0 322.99 160.25
  L 164.05 160.25
  A 0.46 0.45 4.4 0 0 163.60 160.63
  L 152.96 220.84
  A 0.35 0.35 0.0 0 0 153.31 221.25
  L 216.68 221.25
  A 0.48 0.48 0.0 0 1 217.15 221.81
  L 184.82 404.85
  A 0.34 0.34 0.0 0 0 185.16 405.25
  Z"
/>
</svg>
