<svg width="96" height="96" viewBox="0 0 96 96" fill="none" xmlns="http://www.w3.org/2000/svg">
<g clip-path="url(#clip0_304_2474)">
<g clip-path="url(#clip1_304_2474)">
<rect width="96" height="96" fill="#B43403"/>
</g>
<g filter="url(#filter0_f_304_2474)">
<circle cx="81" cy="26" r="66" fill="url(#paint0_radial_304_2474)"/>
</g>
<g filter="url(#filter1_f_304_2474)">
<ellipse cx="2.5" cy="-2" rx="62.5" ry="55" fill="url(#paint1_radial_304_2474)"/>
</g>
<g clip-path="url(#clip2_304_2474)">
<g clip-path="url(#clip3_304_2474)">
<g clip-path="url(#clip4_304_2474)">
<g clip-path="url(#clip5_304_2474)">
<g clip-path="url(#clip6_304_2474)">
<g clip-path="url(#clip7_304_2474)">
<g clip-path="url(#clip8_304_2474)">
<path d="M58.9947 42.5C58.9947 48.5751 54.0746 53.5 48 53.5C48 50.4658 45.5342 48 42.5 48H36.9947C31.5 48 26 44.9064 26 37C26 28.922 31.5 26 36.9947 26H48C53.5 26 58.9947 29.4078 58.9947 37V42.5Z" fill="white"/>
<path d="M61.7231 42.7925C61.5616 50.2342 55.4764 56.2499 47.9999 56.2499H45.2499V53.4999C45.2499 51.9828 44.0144 50.7499 42.4999 50.7499H37.274C37.102 51.6013 36.9946 52.5116 36.9946 53.4999V58.9999C36.9946 65.075 41.9248 69.9999 47.9999 69.9999C47.9999 66.9599 50.4657 64.4999 53.4999 64.4999H58.9946C64.4999 64.4999 69.9999 61.4062 69.9999 53.4999C69.9999 46.7727 66.1706 43.6549 61.7231 42.7925Z" fill="white"/>
</g>
</g>
</g>
</g>
</g>
</g>
</g>
</g>
<defs>
<filter id="filter0_f_304_2474" x="-35" y="-90" width="232" height="232" filterUnits="userSpaceOnUse" color-interpolation-filters="sRGB">
<feFlood flood-opacity="0" result="BackgroundImageFix"/>
<feBlend mode="normal" in="SourceGraphic" in2="BackgroundImageFix" result="shape"/>
<feGaussianBlur stdDeviation="25" result="effect1_foregroundBlur_304_2474"/>
</filter>
<filter id="filter1_f_304_2474" x="-110" y="-107" width="225" height="210" filterUnits="userSpaceOnUse" color-interpolation-filters="sRGB">
<feFlood flood-opacity="0" result="BackgroundImageFix"/>
<feBlend mode="normal" in="SourceGraphic" in2="BackgroundImageFix" result="shape"/>
<feGaussianBlur stdDeviation="25" result="effect1_foregroundBlur_304_2474"/>
</filter>
<radialGradient id="paint0_radial_304_2474" cx="0" cy="0" r="1" gradientUnits="userSpaceOnUse" gradientTransform="translate(81 26) rotate(90) scale(66)">
<stop stop-color="#CA0AC1"/>
<stop offset="1" stop-color="#E80087"/>
</radialGradient>
<radialGradient id="paint1_radial_304_2474" cx="0" cy="0" r="1" gradientUnits="userSpaceOnUse" gradientTransform="translate(1.78161 14.4368) rotate(88.9328) scale(38.5699 43.826)">
<stop stop-color="#FB1E40"/>
<stop offset="1" stop-color="#FFEF5B"/>
</radialGradient>
<clipPath id="clip0_304_2474">
<rect width="96" height="96" fill="white"/>
</clipPath>
<clipPath id="clip1_304_2474">
<rect width="96" height="96" fill="white"/>
</clipPath>
<clipPath id="clip2_304_2474">
<rect width="44" height="44" fill="white" transform="translate(26 26)"/>
</clipPath>
<clipPath id="clip3_304_2474">
<rect width="44" height="44" fill="white" transform="translate(26 26)"/>
</clipPath>
<clipPath id="clip4_304_2474">
<rect width="44" height="44" fill="white" transform="translate(26 26)"/>
</clipPath>
<clipPath id="clip5_304_2474">
<rect width="44" height="44" fill="white" transform="translate(26 26)"/>
</clipPath>
<clipPath id="clip6_304_2474">
<rect width="44" height="44" fill="white" transform="translate(26 26)"/>
</clipPath>
<clipPath id="clip7_304_2474">
<rect width="44" height="44" fill="white" transform="translate(26 26)"/>
</clipPath>
<clipPath id="clip8_304_2474">
<rect width="44" height="44" fill="white" transform="translate(26 26)"/>
</clipPath>
</defs>
</svg>
