<?xml version="1.0" encoding="UTF-8" standalone="no"?>
<!DOCTYPE svg PUBLIC "-//W3C//DTD SVG 1.1//EN" "http://www.w3.org/Graphics/SVG/1.1/DTD/svg11.dtd">
<svg xmlns="http://www.w3.org/2000/svg" version="1.1" viewBox="0.00 0.00 48.00 48.00">
<g stroke-width="2.00" fill="none" stroke-linecap="butt">
<path stroke="#802300" vector-effect="non-scaling-stroke" d="
  M 25.33 7.60
  L 13.25 24.30
  A 0.74 0.73 35.8 0 0 13.42 25.32
  L 15.32 26.69
  A 0.82 0.82 0.0 0 0 16.47 26.51
  L 21.53 19.51
  A 0.34 0.33 -27.4 0 1 22.14 19.70
  L 22.14 27.42
  A 0.46 0.46 0.0 0 0 22.89 27.77
  L 28.06 23.58
  A 0.81 0.81 0.0 0 1 29.20 23.70
  L 31.49 26.53
  A 0.95 0.95 0.0 0 0 32.82 26.67
  L 34.56 25.25
  A 0.71 0.70 -39.0 0 0 34.67 24.25
  L 29.98 18.46
  A 0.68 0.67 -42.6 0 0 28.97 18.42
  Q 27.74 19.68 26.41 20.15
  A 0.41 0.40 -9.7 0 1 25.87 19.77
  L 25.87 7.78
  A 0.30 0.30 0.0 0 0 25.33 7.60"
/>
<path stroke="#802300" vector-effect="non-scaling-stroke" d="
  M 23.98 40.45
  C 30.69 40.46 35.07 35.21 35.46 28.83
  A 0.28 0.27 1.9 0 0 35.18 28.54
  L 31.96 28.54
  A 0.31 0.30 2.7 0 0 31.65 28.81
  C 31.29 32.85 28.41 36.63 23.98 36.62
  C 19.56 36.62 16.69 32.83 16.34 28.79
  A 0.31 0.30 -2.5 0 0 16.03 28.51
  L 12.81 28.50
  A 0.28 0.27 -1.7 0 0 12.53 28.79
  C 12.90 35.17 17.26 40.44 23.98 40.45"
/>
</g>
<path fill="#000000" d="
  M 48.00 0.00
  L 48.00 48.00
  L 0.00 48.00
  L 0.00 0.00
  L 48.00 0.00
  Z
  M 25.33 7.60
  L 13.25 24.30
  A 0.74 0.73 35.8 0 0 13.42 25.32
  L 15.32 26.69
  A 0.82 0.82 0.0 0 0 16.47 26.51
  L 21.53 19.51
  A 0.34 0.33 -27.4 0 1 22.14 19.70
  L 22.14 27.42
  A 0.46 0.46 0.0 0 0 22.89 27.77
  L 28.06 23.58
  A 0.81 0.81 0.0 0 1 29.20 23.70
  L 31.49 26.53
  A 0.95 0.95 0.0 0 0 32.82 26.67
  L 34.56 25.25
  A 0.71 0.70 -39.0 0 0 34.67 24.25
  L 29.98 18.46
  A 0.68 0.67 -42.6 0 0 28.97 18.42
  Q 27.74 19.68 26.41 20.15
  A 0.41 0.40 -9.7 0 1 25.87 19.77
  L 25.87 7.78
  A 0.30 0.30 0.0 0 0 25.33 7.60
  Z
  M 23.98 40.45
  C 30.69 40.46 35.07 35.21 35.46 28.83
  A 0.28 0.27 1.9 0 0 35.18 28.54
  L 31.96 28.54
  A 0.31 0.30 2.7 0 0 31.65 28.81
  C 31.29 32.85 28.41 36.63 23.98 36.62
  C 19.56 36.62 16.69 32.83 16.34 28.79
  A 0.31 0.30 -2.5 0 0 16.03 28.51
  L 12.81 28.50
  A 0.28 0.27 -1.7 0 0 12.53 28.79
  C 12.90 35.17 17.26 40.44 23.98 40.45
  Z"
/>
<path fill="#ff4600" d="
  M 25.33 7.60
  A 0.30 0.30 0.0 0 1 25.87 7.78
  L 25.87 19.77
  A 0.41 0.40 -9.7 0 0 26.41 20.15
  Q 27.74 19.68 28.97 18.42
  A 0.68 0.67 -42.6 0 1 29.98 18.46
  L 34.67 24.25
  A 0.71 0.70 -39.0 0 1 34.56 25.25
  L 32.82 26.67
  A 0.95 0.95 0.0 0 1 31.49 26.53
  L 29.20 23.70
  A 0.81 0.81 0.0 0 0 28.06 23.58
  L 22.89 27.77
  A 0.46 0.46 0.0 0 1 22.14 27.42
  L 22.14 19.70
  A 0.34 0.33 -27.4 0 0 21.53 19.51
  L 16.47 26.51
  A 0.82 0.82 0.0 0 1 15.32 26.69
  L 13.42 25.32
  A 0.74 0.73 35.8 0 1 13.25 24.30
  L 25.33 7.60
  Z"
/>
<path fill="#ff4600" d="
  M 23.98 36.62
  C 28.41 36.63 31.29 32.85 31.65 28.81
  A 0.31 0.30 2.7 0 1 31.96 28.54
  L 35.18 28.54
  A 0.28 0.27 1.9 0 1 35.46 28.83
  C 35.07 35.21 30.69 40.46 23.98 40.45
  C 17.26 40.44 12.90 35.17 12.53 28.79
  A 0.28 0.27 -1.7 0 1 12.81 28.50
  L 16.03 28.51
  A 0.31 0.30 -2.5 0 1 16.34 28.79
  C 16.69 32.83 19.56 36.62 23.98 36.62
  Z"
/>
</svg>
