<?xml version="1.0" encoding="UTF-8" standalone="no"?>
<!DOCTYPE svg PUBLIC "-//W3C//DTD SVG 1.1//EN" "http://www.w3.org/Graphics/SVG/1.1/DTD/svg11.dtd">
<svg xmlns="http://www.w3.org/2000/svg" version="1.1" viewBox="0.00 0.00 512.00 512.00">
<g stroke-width="2.00" fill="none" stroke-linecap="butt">
<path stroke="#4a84f1" vector-effect="non-scaling-stroke" d="
  M 338.81 107.89
  L 170.79 157.08"
/>
<path stroke="#5978ed" vector-effect="non-scaling-stroke" d="
  M 341.19 135.56
  Q 322.47 143.86 296.91 151.37
  Q 249.00 165.45 201.02 179.31
  Q 186.06 183.63 170.78 187.29"
/>
<path stroke="#696dea" vector-effect="non-scaling-stroke" d="
  M 341.24 171.50
  C 309.32 181.01 278.99 189.70 245.41 199.79
  C 221.23 207.06 195.66 214.74 170.77 219.77"
/>
<path stroke="#7e5ee5" vector-effect="non-scaling-stroke" d="
  M 340.48 267.60
  Q 274.79 285.39 210.03 305.65
  Q 205.25 307.15 192.01 311.98"
/>
<path stroke="#9ea6ad" vector-effect="non-scaling-stroke" d="
  M 167.44 327.96
  Q 146.71 334.82 126.71 344.39"
/>
<path stroke="#80878d" vector-effect="non-scaling-stroke" d="
  M 277.24 417.95
  Q 265.00 422.71 253.07 427.78
  Q 243.18 431.99 234.78 439.03"
/>
<path stroke="#8f979d" vector-effect="non-scaling-stroke" d="
  M 149.93 371.57
  Q 173.38 364.51 194.34 351.91"
/>
<path stroke="#8f979d" vector-effect="non-scaling-stroke" d="
  M 406.16 297.24
  Q 389.62 302.77 369.59 311.06
  Q 362.12 314.16 353.38 315.17"
/>
</g>
<path fill="#408bf3" d="
  M 338.81 107.89
  L 170.79 157.08
  Q 170.73 142.37 170.72 127.75
  Q 170.71 115.51 174.48 102.99
  Q 175.65 99.13 176.61 96.79
  Q 180.94 86.27 186.94 77.99
  C 189.38 74.62 193.25 70.22 195.30 68.08
  Q 199.24 63.96 207.57 57.84
  Q 214.60 52.68 224.34 48.86
  Q 252.46 37.82 281.23 46.56
  Q 282.53 46.96 285.95 48.12
  Q 288.41 48.96 290.57 50.01
  Q 299.25 54.21 304.61 57.90
  Q 307.84 60.13 314.68 66.13
  C 317.70 68.77 319.83 71.96 322.66 74.71
  A 2.79 2.72 -78.5 0 1 323.35 75.78
  C 323.76 76.96 325.45 78.45 326.52 80.03
  Q 335.23 92.87 338.81 107.89
  Z"
/>
<path fill="#547cee" d="
  M 338.81 107.89
  C 339.21 109.88 339.89 111.91 340.15 113.77
  Q 341.69 124.57 341.19 135.56
  Q 322.47 143.86 296.91 151.37
  Q 249.00 165.45 201.02 179.31
  Q 186.06 183.63 170.78 187.29
  L 170.79 157.08
  L 338.81 107.89
  Z"
/>
<path fill="#5e74ec" d="
  M 341.19 135.56
  L 341.24 171.50
  C 309.32 181.01 278.99 189.70 245.41 199.79
  C 221.23 207.06 195.66 214.74 170.77 219.77
  L 170.78 187.29
  Q 186.06 183.63 201.02 179.31
  Q 249.00 165.45 296.91 151.37
  Q 322.47 143.86 341.19 135.56
  Z"
/>
<path fill="#7365e7" d="
  M 341.24 171.50
  Q 341.27 214.70 341.25 258.00
  Q 341.25 261.83 340.48 267.60
  Q 274.79 285.39 210.03 305.65
  Q 205.25 307.15 192.01 311.98
  C 189.82 310.19 188.12 307.40 186.84 305.84
  Q 185.54 304.25 184.38 302.39
  Q 175.18 287.57 172.09 271.65
  Q 170.75 264.76 170.75 245.76
  Q 170.75 232.77 170.77 219.77
  C 195.66 214.74 221.23 207.06 245.41 199.79
  C 278.99 189.70 309.32 181.01 341.24 171.50
  Z"
/>
<path fill="#a6aeb5" d="
  M 167.44 327.96
  Q 146.71 334.82 126.71 344.39
  C 125.20 341.91 123.10 339.27 122.00 337.02
  Q 120.14 333.22 118.99 331.53
  C 116.47 327.85 115.30 323.56 113.22 319.47
  Q 111.67 316.43 110.74 312.89
  Q 110.67 312.61 109.07 308.48
  Q 107.94 305.57 107.58 304.01
  Q 107.46 303.48 105.58 296.13
  Q 104.45 291.69 103.84 288.16
  Q 100.71 270.21 101.35 250.97
  C 101.48 246.87 102.22 243.90 103.99 240.53
  Q 105.49 237.68 107.48 235.70
  Q 113.28 229.93 121.88 229.40
  Q 126.38 229.12 131.47 231.39
  Q 131.81 231.54 132.06 231.50
  Q 132.36 231.45 132.49 231.47
  Q 132.73 231.50 132.83 231.72
  C 133.41 232.90 134.71 232.91 135.70 233.73
  Q 140.79 237.93 142.93 244.10
  Q 144.08 247.43 144.03 257.03
  Q 143.99 265.57 144.41 270.12
  Q 147.36 302.56 167.44 327.96
  Z"
/>
<path fill="#969ea4" d="
  M 406.16 297.24
  Q 389.62 302.77 369.59 311.06
  Q 362.12 314.16 353.38 315.17
  Q 364.41 296.27 367.10 275.29
  Q 368.08 267.64 368.00 257.12
  Q 367.93 247.45 368.87 244.44
  Q 371.75 235.31 381.37 230.78
  A 0.76 0.70 -55.4 0 1 381.68 230.71
  L 382.55 230.71
  A 0.91 0.88 23.7 0 0 383.14 230.49
  Q 384.32 229.49 385.83 229.76
  Q 386.42 229.87 386.63 229.72
  Q 386.83 229.57 386.90 229.53
  A 0.81 0.80 26.9 0 1 387.37 229.38
  L 392.73 229.56
  A 0.76 0.70 47.4 0 1 392.85 229.57
  Q 396.64 230.28 399.85 232.24
  Q 402.58 233.91 404.34 235.60
  Q 410.43 241.46 410.70 251.11
  Q 410.97 260.94 410.07 273.87
  Q 409.33 284.47 406.16 297.24
  Z"
/>
<path fill="#8856e2" d="
  M 340.48 267.60
  Q 339.35 275.51 337.40 281.47
  Q 327.95 310.47 302.63 327.37
  Q 295.46 332.16 287.67 335.16
  Q 259.10 346.19 230.77 337.42
  Q 227.65 336.45 223.76 334.89
  Q 208.18 328.65 195.30 315.95
  Q 193.94 314.61 192.01 311.98
  Q 205.25 307.15 210.03 305.65
  Q 274.79 285.39 340.48 267.60
  Z"
/>
<path fill="#888f95" d="
  M 406.16 297.24
  Q 404.23 304.37 402.03 311.34
  Q 401.16 314.11 400.02 316.41
  Q 398.62 319.25 398.54 319.75
  Q 398.33 321.13 397.18 323.12
  Q 397.14 323.19 393.46 330.60
  Q 391.35 334.85 389.42 337.91
  Q 382.11 349.51 380.07 351.84
  Q 377.52 354.77 374.72 358.31
  Q 371.33 362.58 369.17 364.61
  Q 366.76 366.89 364.65 369.12
  C 361.78 372.15 356.76 375.94 354.37 378.03
  C 350.05 381.79 346.71 383.66 341.03 387.51
  Q 337.77 389.72 334.12 391.50
  C 331.05 393.00 328.45 395.05 324.73 396.46
  Q 323.44 396.94 315.45 400.49
  Q 313.35 401.43 309.90 402.45
  Q 308.79 402.79 306.18 403.69
  Q 304.07 404.42 302.45 404.86
  Q 290.28 408.18 277.77 409.71
  A 0.58 0.57 -3.4 0 0 277.26 410.28
  L 277.24 417.95
  Q 265.00 422.71 253.07 427.78
  Q 243.18 431.99 234.78 439.03
  L 234.76 410.37
  A 0.64 0.63 3.6 0 0 234.20 409.74
  Q 214.28 407.16 198.36 401.17
  C 195.76 400.19 193.75 398.85 191.40 398.32
  A 4.01 3.82 63.1 0 1 190.55 398.02
  Q 177.06 391.37 175.10 390.12
  Q 166.39 384.53 161.38 381.10
  C 159.82 380.03 158.36 378.35 156.72 377.14
  Q 153.27 374.58 149.93 371.57
  Q 173.38 364.51 194.34 351.91
  Q 218.23 366.60 245.86 367.89
  Q 251.58 368.15 259.96 368.00
  Q 268.58 367.85 274.02 367.17
  Q 305.85 363.20 330.39 342.52
  Q 333.48 339.91 337.21 336.03
  Q 339.03 334.15 343.57 329.08
  Q 343.99 328.62 344.39 328.14
  Q 349.32 322.23 353.38 315.17
  Q 362.12 314.16 369.59 311.06
  Q 389.62 302.77 406.16 297.24
  Z"
/>
<path fill="#969ea4" d="
  M 167.44 327.96
  Q 175.16 337.19 183.29 343.95
  Q 187.66 347.58 194.34 351.91
  Q 173.38 364.51 149.93 371.57
  Q 136.77 359.34 126.71 344.39
  Q 146.71 334.82 167.44 327.96
  Z"
/>
<path fill="#787f85" d="
  M 277.24 417.95
  Q 277.27 436.60 277.25 455.25
  Q 277.24 457.92 274.98 462.65
  Q 273.23 466.30 270.37 468.91
  Q 263.33 475.32 254.13 474.55
  Q 248.01 474.04 243.06 470.17
  Q 238.06 466.27 235.91 460.54
  Q 234.73 457.40 234.74 449.86
  Q 234.75 444.39 234.78 439.03
  Q 243.18 431.99 253.07 427.78
  Q 265.00 422.71 277.24 417.95
  Z"
/>
</svg>
