<?xml version="1.0" encoding="UTF-8" standalone="no"?>
<!DOCTYPE svg PUBLIC "-//W3C//DTD SVG 1.1//EN" "http://www.w3.org/Graphics/SVG/1.1/DTD/svg11.dtd">
<svg xmlns="http://www.w3.org/2000/svg" version="1.1" viewBox="0.00 0.00 128.00 128.00">
<g stroke-width="2.00" fill="none" stroke-linecap="butt">
<path stroke="#8cb4ed" vector-effect="non-scaling-stroke" d="
  M 73.96 95.46
  Q 75.78 96.72 79.23 98.31
  C 86.31 101.59 92.53 103.51 100.49 102.04
  Q 102.86 101.60 103.47 101.36
  Q 106.22 100.25 106.81 100.08
  A 35.48 34.97 35.0 0 1 114.57 98.77
  L 119.56 98.50
  A 1.67 1.66 -1.6 0 0 121.13 96.84
  L 121.13 53.75
  A 1.06 1.06 0.0 0 0 120.05 52.69
  C 116.28 52.78 111.34 52.72 108.58 50.64
  Q 102.42 46.01 96.76 40.46
  A 0.62 0.62 0.0 0 1 96.76 39.58
  L 110.60 25.98
  A 2.76 2.68 -10.4 0 0 111.17 25.18
  Q 113.26 20.63 110.91 17.56
  Q 106.83 12.24 105.33 11.42
  Q 99.79 8.42 95.98 12.07
  Q 86.99 20.70 79.43 28.58
  A 1.53 1.52 27.4 0 1 78.02 29.02
  Q 68.00 26.98 62.78 26.40
  C 56.65 25.71 52.81 27.51 48.22 31.95
  Q 40.19 39.73 25.34 54.30
  C 23.39 56.21 21.96 58.46 21.13 60.88
  Q 20.11 63.85 16.80 75.03
  C 15.50 79.43 15.20 83.91 19.19 87.11
  A 0.65 0.64 -45.2 0 1 19.19 88.12
  C 14.95 91.55 13.15 93.98 11.26 99.79
  C 9.42 105.45 6.78 112.14 7.42 113.48
  A 1.96 1.93 66.4 0 0 9.89 114.47
  Q 17.31 111.50 21.94 109.83
  C 27.75 107.73 31.29 104.61 35.12 100.22
  A 0.60 0.59 53.8 0 1 36.12 100.38
  C 39.39 108.06 48.42 109.65 53.89 103.08
  A 0.59 0.58 43.8 0 1 54.78 103.07
  C 58.87 107.69 65.09 107.56 69.58 103.28
  Q 72.62 100.39 73.38 95.71
  A 0.37 0.37 0.0 0 1 73.96 95.46"
/>
<path stroke="#8cb4ed" vector-effect="non-scaling-stroke" d="
  M 96.42 18.97
  L 103.09 25.82
  A 0.71 0.71 0.0 0 0 104.09 25.84
  L 106.67 23.33
  A 2.71 2.70 -44.2 0 0 106.73 19.50
  L 102.84 15.50
  A 2.71 2.70 -44.2 0 0 99.02 15.46
  L 96.44 17.97
  A 0.71 0.71 0.0 0 0 96.42 18.97"
/>
<path stroke="#8cb4ed" vector-effect="non-scaling-stroke" d="
  M 92.71 21.90
  A 0.40 0.40 0.0 0 0 92.15 21.90
  L 45.34 68.72
  A 0.40 0.40 0.0 0 0 45.63 69.40
  L 60.03 69.40
  A 0.40 0.40 0.0 0 0 60.32 69.28
  L 99.93 29.67
  A 0.40 0.40 0.0 0 0 99.93 29.11
  L 92.71 21.90"
/>
<path stroke="#8cb4ed" vector-effect="non-scaling-stroke" d="
  M 73.88 33.16
  Q 70.16 32.38 64.38 31.51
  C 58.59 30.64 55.10 31.61 51.04 35.55
  Q 36.67 49.46 28.34 57.78
  A 10.58 10.53 77.3 0 0 25.81 61.81
  Q 23.57 68.31 20.88 77.87
  Q 20.29 79.97 21.06 82.10
  A 2.10 2.10 0.0 0 0 24.52 82.88
  L 73.96 33.44
  A 0.17 0.16 -61.5 0 0 73.88 33.16"
/>
<path stroke="#8cb4ed" vector-effect="non-scaling-stroke" d="
  M 67.12 69.39
  L 80.78 69.40
  A 2.05 2.05 0.0 0 1 82.81 71.71
  L 82.79 71.85
  A 2.55 2.54 2.7 0 1 80.25 74.15
  Q 65.79 74.13 44.37 74.13
  Q 40.76 74.13 39.24 74.90
  C 37.25 75.91 33.73 78.87 34.59 81.74
  C 35.74 85.62 38.40 88.60 42.49 88.77
  Q 45.86 88.92 66.56 88.75
  C 72.76 88.70 77.85 92.26 82.80 94.67
  C 90.10 98.24 97.45 98.70 105.16 95.75
  Q 110.32 93.77 116.48 94.04
  A 0.66 0.65 -88.4 0 0 117.17 93.38
  L 117.17 57.92
  A 0.73 0.73 0.0 0 0 116.35 57.19
  C 107.73 58.30 99.87 49.65 93.56 43.55
  A 0.75 0.75 0.0 0 0 92.51 43.56
  L 66.99 69.08
  A 0.18 0.18 0.0 0 0 67.12 69.39"
/>
<path stroke="#8cb4ed" vector-effect="non-scaling-stroke" d="
  M 36.29 91.71
  Q 32.23 88.60 30.31 84.02
  A 0.32 0.32 0.0 0 0 29.79 83.91
  L 18.73 94.98
  A 0.48 0.48 0.0 0 0 18.73 95.66
  L 25.40 102.34
  A 0.61 0.61 0.0 0 0 26.26 102.34
  L 36.33 92.27
  A 0.37 0.37 0.0 0 0 36.29 91.71"
/>
<path stroke="#8cb4ed" vector-effect="non-scaling-stroke" d="
  M 51.30 93.64
  L 43.58 93.64
  A 3.31 3.30 83.6 0 0 40.36 97.68
  L 40.53 98.45
  A 5.38 5.37 83.4 0 0 45.52 102.41
  C 50.12 102.57 51.81 98.29 51.93 94.29
  A 0.63 0.62 1.3 0 0 51.30 93.64"
/>
<path stroke="#8cb4ed" vector-effect="non-scaling-stroke" d="
  M 67.95 93.63
  L 56.77 93.61
  A 0.30 0.30 0.0 0 0 56.47 93.91
  L 56.47 94.40
  A 7.21 5.72 -89.9 0 0 62.17 101.62
  L 62.51 101.62
  A 7.21 5.72 -89.9 0 0 68.25 94.42
  L 68.25 93.93
  A 0.30 0.30 0.0 0 0 67.95 93.63"
/>
<path stroke="#8cb4ed" vector-effect="non-scaling-stroke" d="
  M 21.10 105.06
  A 0.33 0.33 0.0 0 0 21.22 104.51
  L 16.66 100.07
  A 0.33 0.33 0.0 0 0 16.11 100.20
  L 13.74 107.21
  A 0.33 0.33 0.0 0 0 14.16 107.63
  L 21.10 105.06"
/>
</g>
<path fill="#1868db" d="
  M 110.41 0.00
  Q 125.53 2.46 128.00 17.60
  L 128.00 110.41
  Q 125.56 125.46 110.49 128.00
  L 16.80 128.00
  Q 2.31 124.89 0.00 110.48
  L 0.00 17.59
  Q 2.43 2.54 17.52 0.00
  L 110.41 0.00
  Z
  M 73.96 95.46
  Q 75.78 96.72 79.23 98.31
  C 86.31 101.59 92.53 103.51 100.49 102.04
  Q 102.86 101.60 103.47 101.36
  Q 106.22 100.25 106.81 100.08
  A 35.48 34.97 35.0 0 1 114.57 98.77
  L 119.56 98.50
  A 1.67 1.66 -1.6 0 0 121.13 96.84
  L 121.13 53.75
  A 1.06 1.06 0.0 0 0 120.05 52.69
  C 116.28 52.78 111.34 52.72 108.58 50.64
  Q 102.42 46.01 96.76 40.46
  A 0.62 0.62 0.0 0 1 96.76 39.58
  L 110.60 25.98
  A 2.76 2.68 -10.4 0 0 111.17 25.18
  Q 113.26 20.63 110.91 17.56
  Q 106.83 12.24 105.33 11.42
  Q 99.79 8.42 95.98 12.07
  Q 86.99 20.70 79.43 28.58
  A 1.53 1.52 27.4 0 1 78.02 29.02
  Q 68.00 26.98 62.78 26.40
  C 56.65 25.71 52.81 27.51 48.22 31.95
  Q 40.19 39.73 25.34 54.30
  C 23.39 56.21 21.96 58.46 21.13 60.88
  Q 20.11 63.85 16.80 75.03
  C 15.50 79.43 15.20 83.91 19.19 87.11
  A 0.65 0.64 -45.2 0 1 19.19 88.12
  C 14.95 91.55 13.15 93.98 11.26 99.79
  C 9.42 105.45 6.78 112.14 7.42 113.48
  A 1.96 1.93 66.4 0 0 9.89 114.47
  Q 17.31 111.50 21.94 109.83
  C 27.75 107.73 31.29 104.61 35.12 100.22
  A 0.60 0.59 53.8 0 1 36.12 100.38
  C 39.39 108.06 48.42 109.65 53.89 103.08
  A 0.59 0.58 43.8 0 1 54.78 103.07
  C 58.87 107.69 65.09 107.56 69.58 103.28
  Q 72.62 100.39 73.38 95.71
  A 0.37 0.37 0.0 0 1 73.96 95.46
  Z"
/>
<path fill="#ffffff" d="
  M 73.96 95.46
  A 0.37 0.37 0.0 0 0 73.38 95.71
  Q 72.62 100.39 69.58 103.28
  C 65.09 107.56 58.87 107.69 54.78 103.07
  A 0.59 0.58 43.8 0 0 53.89 103.08
  C 48.42 109.65 39.39 108.06 36.12 100.38
  A 0.60 0.59 53.8 0 0 35.12 100.22
  C 31.29 104.61 27.75 107.73 21.94 109.83
  Q 17.31 111.50 9.89 114.47
  A 1.96 1.93 66.4 0 1 7.42 113.48
  C 6.78 112.14 9.42 105.45 11.26 99.79
  C 13.15 93.98 14.95 91.55 19.19 88.12
  A 0.65 0.64 -45.2 0 0 19.19 87.11
  C 15.20 83.91 15.50 79.43 16.80 75.03
  Q 20.11 63.85 21.13 60.88
  C 21.96 58.46 23.39 56.21 25.34 54.30
  Q 40.19 39.73 48.22 31.95
  C 52.81 27.51 56.65 25.71 62.78 26.40
  Q 68.00 26.98 78.02 29.02
  A 1.53 1.52 27.4 0 0 79.43 28.58
  Q 86.99 20.70 95.98 12.07
  Q 99.79 8.42 105.33 11.42
  Q 106.83 12.24 110.91 17.56
  Q 113.26 20.63 111.17 25.18
  A 2.76 2.68 -10.4 0 1 110.60 25.98
  L 96.76 39.58
  A 0.62 0.62 0.0 0 0 96.76 40.46
  Q 102.42 46.01 108.58 50.64
  C 111.34 52.72 116.28 52.78 120.05 52.69
  A 1.06 1.06 0.0 0 1 121.13 53.75
  L 121.13 96.84
  A 1.67 1.66 -1.6 0 1 119.56 98.50
  L 114.57 98.77
  A 35.48 34.97 35.0 0 0 106.81 100.08
  Q 106.22 100.25 103.47 101.36
  Q 102.86 101.60 100.49 102.04
  C 92.53 103.51 86.31 101.59 79.23 98.31
  Q 75.78 96.72 73.96 95.46
  Z
  M 96.42 18.97
  L 103.09 25.82
  A 0.71 0.71 0.0 0 0 104.09 25.84
  L 106.67 23.33
  A 2.71 2.70 -44.2 0 0 106.73 19.50
  L 102.84 15.50
  A 2.71 2.70 -44.2 0 0 99.02 15.46
  L 96.44 17.97
  A 0.71 0.71 0.0 0 0 96.42 18.97
  Z
  M 92.71 21.90
  A 0.40 0.40 0.0 0 0 92.15 21.90
  L 45.34 68.72
  A 0.40 0.40 0.0 0 0 45.63 69.40
  L 60.03 69.40
  A 0.40 0.40 0.0 0 0 60.32 69.28
  L 99.93 29.67
  A 0.40 0.40 0.0 0 0 99.93 29.11
  L 92.71 21.90
  Z
  M 73.88 33.16
  Q 70.16 32.38 64.38 31.51
  C 58.59 30.64 55.10 31.61 51.04 35.55
  Q 36.67 49.46 28.34 57.78
  A 10.58 10.53 77.3 0 0 25.81 61.81
  Q 23.57 68.31 20.88 77.87
  Q 20.29 79.97 21.06 82.10
  A 2.10 2.10 0.0 0 0 24.52 82.88
  L 73.96 33.44
  A 0.17 0.16 -61.5 0 0 73.88 33.16
  Z
  M 67.12 69.39
  L 80.78 69.40
  A 2.05 2.05 0.0 0 1 82.81 71.71
  L 82.79 71.85
  A 2.55 2.54 2.7 0 1 80.25 74.15
  Q 65.79 74.13 44.37 74.13
  Q 40.76 74.13 39.24 74.90
  C 37.25 75.91 33.73 78.87 34.59 81.74
  C 35.74 85.62 38.40 88.60 42.49 88.77
  Q 45.86 88.92 66.56 88.75
  C 72.76 88.70 77.85 92.26 82.80 94.67
  C 90.10 98.24 97.45 98.70 105.16 95.75
  Q 110.32 93.77 116.48 94.04
  A 0.66 0.65 -88.4 0 0 117.17 93.38
  L 117.17 57.92
  A 0.73 0.73 0.0 0 0 116.35 57.19
  C 107.73 58.30 99.87 49.65 93.56 43.55
  A 0.75 0.75 0.0 0 0 92.51 43.56
  L 66.99 69.08
  A 0.18 0.18 0.0 0 0 67.12 69.39
  Z
  M 36.29 91.71
  Q 32.23 88.60 30.31 84.02
  A 0.32 0.32 0.0 0 0 29.79 83.91
  L 18.73 94.98
  A 0.48 0.48 0.0 0 0 18.73 95.66
  L 25.40 102.34
  A 0.61 0.61 0.0 0 0 26.26 102.34
  L 36.33 92.27
  A 0.37 0.37 0.0 0 0 36.29 91.71
  Z
  M 51.30 93.64
  L 43.58 93.64
  A 3.31 3.30 83.6 0 0 40.36 97.68
  L 40.53 98.45
  A 5.38 5.37 83.4 0 0 45.52 102.41
  C 50.12 102.57 51.81 98.29 51.93 94.29
  A 0.63 0.62 1.3 0 0 51.30 93.64
  Z
  M 67.95 93.63
  L 56.77 93.61
  A 0.30 0.30 0.0 0 0 56.47 93.91
  L 56.47 94.40
  A 7.21 5.72 -89.9 0 0 62.17 101.62
  L 62.51 101.62
  A 7.21 5.72 -89.9 0 0 68.25 94.42
  L 68.25 93.93
  A 0.30 0.30 0.0 0 0 67.95 93.63
  Z
  M 21.10 105.06
  A 0.33 0.33 0.0 0 0 21.22 104.51
  L 16.66 100.07
  A 0.33 0.33 0.0 0 0 16.11 100.20
  L 13.74 107.21
  A 0.33 0.33 0.0 0 0 14.16 107.63
  L 21.10 105.06
  Z"
/>
<path fill="#1868db" d="
  M 96.42 18.97
  A 0.71 0.71 0.0 0 1 96.44 17.97
  L 99.02 15.46
  A 2.71 2.70 -44.2 0 1 102.84 15.50
  L 106.73 19.50
  A 2.71 2.70 -44.2 0 1 106.67 23.33
  L 104.09 25.84
  A 0.71 0.71 0.0 0 1 103.09 25.82
  L 96.42 18.97
  Z"
/>
<path fill="#1868db" d="
  M 92.71 21.90
  L 99.93 29.11
  A 0.40 0.40 0.0 0 1 99.93 29.67
  L 60.32 69.28
  A 0.40 0.40 0.0 0 1 60.03 69.40
  L 45.63 69.40
  A 0.40 0.40 0.0 0 1 45.34 68.72
  L 92.15 21.90
  A 0.40 0.40 0.0 0 1 92.71 21.90
  Z"
/>
<path fill="#1868db" d="
  M 73.88 33.16
  A 0.17 0.16 -61.5 0 1 73.96 33.44
  L 24.52 82.88
  A 2.10 2.10 0.0 0 1 21.06 82.10
  Q 20.29 79.97 20.88 77.87
  Q 23.57 68.31 25.81 61.81
  A 10.58 10.53 77.3 0 1 28.34 57.78
  Q 36.67 49.46 51.04 35.55
  C 55.10 31.61 58.59 30.64 64.38 31.51
  Q 70.16 32.38 73.88 33.16
  Z"
/>
<path fill="#1868db" d="
  M 67.12 69.39
  A 0.18 0.18 0.0 0 1 66.99 69.08
  L 92.51 43.56
  A 0.75 0.75 0.0 0 1 93.56 43.55
  C 99.87 49.65 107.73 58.30 116.35 57.19
  A 0.73 0.73 0.0 0 1 117.17 57.92
  L 117.17 93.38
  A 0.66 0.65 -88.4 0 1 116.48 94.04
  Q 110.32 93.77 105.16 95.75
  C 97.45 98.70 90.10 98.24 82.80 94.67
  C 77.85 92.26 72.76 88.70 66.56 88.75
  Q 45.86 88.92 42.49 88.77
  C 38.40 88.60 35.74 85.62 34.59 81.74
  C 33.73 78.87 37.25 75.91 39.24 74.90
  Q 40.76 74.13 44.37 74.13
  Q 65.79 74.13 80.25 74.15
  A 2.55 2.54 2.7 0 0 82.79 71.85
  L 82.81 71.71
  A 2.05 2.05 0.0 0 0 80.78 69.40
  L 67.12 69.39
  Z"
/>
<path fill="#1868db" d="
  M 36.29 91.71
  A 0.37 0.37 0.0 0 1 36.33 92.27
  L 26.26 102.34
  A 0.61 0.61 0.0 0 1 25.40 102.34
  L 18.73 95.66
  A 0.48 0.48 0.0 0 1 18.73 94.98
  L 29.79 83.91
  A 0.32 0.32 0.0 0 1 30.31 84.02
  Q 32.23 88.60 36.29 91.71
  Z"
/>
<path fill="#1868db" d="
  M 51.93 94.29
  C 51.81 98.29 50.12 102.57 45.52 102.41
  A 5.38 5.37 83.4 0 1 40.53 98.45
  L 40.36 97.68
  A 3.31 3.30 83.6 0 1 43.58 93.64
  L 51.30 93.64
  A 0.63 0.62 1.3 0 1 51.93 94.29
  Z"
/>
<path fill="#1868db" d="
  M 67.95 93.63
  A 0.30 0.30 0.0 0 1 68.25 93.93
  L 68.25 94.42
  A 7.21 5.72 -89.9 0 1 62.51 101.62
  L 62.17 101.62
  A 7.21 5.72 -89.9 0 1 56.47 94.40
  L 56.47 93.91
  A 0.30 0.30 0.0 0 1 56.77 93.61
  L 67.95 93.63
  Z"
/>
<path fill="#1868db" d="
  M 21.10 105.06
  L 14.16 107.63
  A 0.33 0.33 0.0 0 1 13.74 107.21
  L 16.11 100.20
  A 0.33 0.33 0.0 0 1 16.66 100.07
  L 21.22 104.51
  A 0.33 0.33 0.0 0 1 21.10 105.06
  Z"
/>
</svg>
