<?xml version="1.0" encoding="UTF-8" standalone="no"?>
<!DOCTYPE svg PUBLIC "-//W3C//DTD SVG 1.1//EN" "http://www.w3.org/Graphics/SVG/1.1/DTD/svg11.dtd">
<svg xmlns="http://www.w3.org/2000/svg" version="1.1" viewBox="0.00 0.00 64.00 64.00">
<g stroke-width="2.00" fill="none" stroke-linecap="butt">
<path stroke="#808080" vector-effect="non-scaling-stroke" d="
  M 41.77 30.89
  A 0.26 0.25 -3.0 0 0 41.51 31.17
  C 42.25 37.74 39.05 43.20 31.75 42.99
  Q 22.86 42.72 22.59 33.49
  Q 22.57 32.83 22.55 14.74
  A 0.39 0.39 0.0 0 0 22.16 14.35
  L 15.43 14.35
  A 0.49 0.48 -0.0 0 0 14.94 14.83
  Q 15.01 24.86 14.97 32.09
  C 14.90 45.53 21.89 50.74 34.99 49.79
  C 45.52 49.02 49.68 41.13 48.92 31.16
  A 0.29 0.29 0.0 0 0 48.63 30.89
  L 41.77 30.89"
/>
<path stroke="#808080" vector-effect="non-scaling-stroke" d="
  M 30.13 33.66
  Q 32.11 35.62 34.72 32.99
  Q 44.72 22.93 44.88 22.74
  A 0.55 0.55 0.0 0 1 45.70 22.71
  L 48.66 25.73
  A 0.32 0.32 0.0 0 0 49.21 25.51
  C 49.17 20.36 49.25 14.85 49.00 14.60
  C 48.75 14.35 43.24 14.49 38.09 14.50
  A 0.32 0.32 0.0 0 0 37.87 15.05
  L 40.92 17.98
  A 0.55 0.55 0.0 0 1 40.90 18.80
  Q 40.71 18.96 30.76 29.06
  Q 28.15 31.70 30.13 33.66"
/>
</g>
<path fill="#fefefe" d="
  M 64.00 0.00
  L 64.00 64.00
  L 0.00 64.00
  L 0.00 0.00
  L 64.00 0.00
  Z
  M 41.77 30.89
  A 0.26 0.25 -3.0 0 0 41.51 31.17
  C 42.25 37.74 39.05 43.20 31.75 42.99
  Q 22.86 42.72 22.59 33.49
  Q 22.57 32.83 22.55 14.74
  A 0.39 0.39 0.0 0 0 22.16 14.35
  L 15.43 14.35
  A 0.49 0.48 -0.0 0 0 14.94 14.83
  Q 15.01 24.86 14.97 32.09
  C 14.90 45.53 21.89 50.74 34.99 49.79
  C 45.52 49.02 49.68 41.13 48.92 31.16
  A 0.29 0.29 0.0 0 0 48.63 30.89
  L 41.77 30.89
  Z
  M 30.13 33.66
  Q 32.11 35.62 34.72 32.99
  Q 44.72 22.93 44.88 22.74
  A 0.55 0.55 0.0 0 1 45.70 22.71
  L 48.66 25.73
  A 0.32 0.32 0.0 0 0 49.21 25.51
  C 49.17 20.36 49.25 14.85 49.00 14.60
  C 48.75 14.35 43.24 14.49 38.09 14.50
  A 0.32 0.32 0.0 0 0 37.87 15.05
  L 40.92 17.98
  A 0.55 0.55 0.0 0 1 40.90 18.80
  Q 40.71 18.96 30.76 29.06
  Q 28.15 31.70 30.13 33.66
  Z"
/>
<path fill="#010101" d="
  M 48.92 31.16
  C 49.68 41.13 45.52 49.02 34.99 49.79
  C 21.89 50.74 14.90 45.53 14.97 32.09
  Q 15.01 24.86 14.94 14.83
  A 0.49 0.48 -0.0 0 1 15.43 14.35
  L 22.16 14.35
  A 0.39 0.39 0.0 0 1 22.55 14.74
  Q 22.57 32.83 22.59 33.49
  Q 22.86 42.72 31.75 42.99
  C 39.05 43.20 42.25 37.74 41.51 31.17
  A 0.26 0.25 -3.0 0 1 41.77 30.89
  L 48.63 30.89
  A 0.29 0.29 0.0 0 1 48.92 31.16
  Z"
/>
<path fill="#010101" d="
  M 49.00 14.60
  C 49.25 14.85 49.17 20.36 49.21 25.51
  A 0.32 0.32 0.0 0 1 48.66 25.73
  L 45.70 22.71
  A 0.55 0.55 0.0 0 0 44.88 22.74
  Q 44.72 22.93 34.72 32.99
  Q 32.11 35.62 30.13 33.66
  Q 28.15 31.70 30.76 29.06
  Q 40.71 18.96 40.90 18.80
  A 0.55 0.55 0.0 0 0 40.92 17.98
  L 37.87 15.05
  A 0.32 0.32 0.0 0 1 38.09 14.50
  C 43.24 14.49 48.75 14.35 49.00 14.60
  Z"
/>
</svg>
