<?xml version="1.0" encoding="UTF-8" standalone="no"?>
<!DOCTYPE svg PUBLIC "-//W3C//DTD SVG 1.1//EN" "http://www.w3.org/Graphics/SVG/1.1/DTD/svg11.dtd">
<svg xmlns="http://www.w3.org/2000/svg" version="1.1" viewBox="0.00 0.00 100.00 100.00">
<g stroke-width="2.00" fill="none" stroke-linecap="butt">
<path stroke="#2472f2" stroke-opacity="0.533" vector-effect="non-scaling-stroke" d="
  M 43.38 89.30
  C 57.80 91.25 73.22 87.85 81.06 74.72"
/>
<path stroke="#2290f2" stroke-opacity="0.533" vector-effect="non-scaling-stroke" d="
  M 81.06 74.72
  Q 83.50 70.37 84.22 65.17"
/>
<path stroke="#29aef2" stroke-opacity="0.533" vector-effect="non-scaling-stroke" d="
  M 84.22 65.17
  Q 84.60 63.53 84.42 62.03"
/>
<path stroke="#34c6f2" stroke-opacity="0.533" vector-effect="non-scaling-stroke" d="
  M 84.42 62.03
  L 84.60 60.48"
/>
<path stroke="#34c6f2" stroke-opacity="0.533" vector-effect="non-scaling-stroke" d="
  M 84.64 53.29
  L 84.70 43.15"
/>
<path stroke="#4950d3" stroke-opacity="0.533" vector-effect="non-scaling-stroke" d="
  M 84.70 43.15
  L 84.73 26.93"
/>
<path stroke="#4d3fc9" stroke-opacity="0.533" vector-effect="non-scaling-stroke" d="
  M 84.73 26.93
  Q 84.77 20.38 84.71 13.75
  Q 84.69 11.81 82.61 10.51"
/>
<path stroke="#4565de" stroke-opacity="0.533" vector-effect="non-scaling-stroke" d="
  M 38.48 61.47
  L 38.54 38.25"
/>
<path stroke="#4950d3" stroke-opacity="0.533" vector-effect="non-scaling-stroke" d="
  M 38.54 38.25
  Q 38.05 33.77 42.26 33.25
  A 0.60 0.60 0.0 0 0 42.79 32.68
  L 42.98 25.95"
/>
<path stroke="#4d3fc9" stroke-opacity="0.533" vector-effect="non-scaling-stroke" d="
  M 42.98 25.95
  Q 42.99 19.98 42.83 13.99
  C 42.72 10.01 39.32 10.26 36.00 10.22"
/>
<path stroke="#483bbc" stroke-opacity="0.580" vector-effect="non-scaling-stroke" d="
  M 36.00 10.22
  Q 28.85 10.41 21.58 10.29
  C 16.08 10.19 16.44 12.95 16.40 17.81
  Q 16.37 21.68 16.48 25.53"
/>
<path stroke="#444ac5" stroke-opacity="0.580" vector-effect="non-scaling-stroke" d="
  M 16.48 25.53
  L 16.48 41.22"
/>
<path stroke="#405dcf" stroke-opacity="0.580" vector-effect="non-scaling-stroke" d="
  M 16.48 41.22
  Q 16.19 55.21 16.57 62.25
  Q 16.92 68.79 20.54 75.38"
/>
<path stroke="#2269e1" stroke-opacity="0.580" vector-effect="non-scaling-stroke" d="
  M 20.54 75.38
  C 25.48 83.57 34.10 87.86 43.38 89.30"
/>
<path stroke="#3771f4" vector-effect="non-scaling-stroke" d="
  M 38.74 65.82
  C 33.31 67.48 28.26 70.80 27.31 76.81"
/>
<path stroke="#4f4bd9" vector-effect="non-scaling-stroke" d="
  M 42.98 25.95
  L 16.48 25.53"
/>
<path stroke="#4a5fe4" vector-effect="non-scaling-stroke" d="
  M 38.54 38.25
  Q 27.63 40.94 16.48 41.22"
/>
<path stroke="#3771f4" vector-effect="non-scaling-stroke" d="
  M 38.62 65.46
  Q 31.45 68.00 24.32 70.66
  Q 22.11 71.48 20.54 75.38"
/>
<path stroke="#483bbc" stroke-opacity="0.580" vector-effect="non-scaling-stroke" d="
  M 82.61 10.51
  Q 74.10 10.11 65.26 10.46
  Q 61.51 10.61 61.45 14.76
  Q 61.36 21.61 61.44 28.44"
/>
<path stroke="#444ac5" stroke-opacity="0.580" vector-effect="non-scaling-stroke" d="
  M 61.44 28.44
  L 61.43 43.58
  A 1.01 1.00 -75.0 0 0 61.93 44.45
  Q 64.30 45.83 66.94 47.26
  Q 70.07 48.94 68.89 52.45"
/>
<path stroke="#83d1e1" stroke-opacity="0.576" vector-effect="non-scaling-stroke" d="
  M 68.89 52.45
  L 42.27 68.08"
/>
<path stroke="#444ac5" stroke-opacity="0.580" vector-effect="non-scaling-stroke" d="
  M 42.27 68.08
  Q 40.22 67.57 39.33 66.57"
/>
<path stroke="#405dcf" stroke-opacity="0.580" vector-effect="non-scaling-stroke" d="
  M 39.33 66.57
  Q 39.05 66.04 38.74 65.82"
/>
<path stroke="#2269e1" stroke-opacity="0.580" vector-effect="non-scaling-stroke" d="
  M 38.74 65.82
  L 38.62 65.46"
/>
<path stroke="#405dcf" stroke-opacity="0.580" vector-effect="non-scaling-stroke" d="
  M 38.62 65.46
  L 38.48 61.47"
/>
<path stroke="#2488ff" vector-effect="non-scaling-stroke" d="
  M 81.06 74.72
  L 35.13 73.46"
/>
<path stroke="#4a5fe4" vector-effect="non-scaling-stroke" d="
  M 39.33 66.57
  C 35.46 68.50 31.91 70.99 30.30 75.04"
/>
<path stroke="#60d4ff" vector-effect="non-scaling-stroke" d="
  M 68.57 53.91
  L 58.65 59.98"
/>
<path stroke="#5cc4ff" vector-effect="non-scaling-stroke" d="
  M 58.65 59.98
  L 35.13 73.46"
/>
<path stroke="#5db4fe" vector-effect="non-scaling-stroke" d="
  M 35.13 73.46
  L 26.79 78.08
  A 0.40 0.39 -52.1 0 1 26.52 78.12
  Q 26.40 78.09 26.22 77.95
  A 0.25 0.25 0.0 0 1 26.24 77.54
  L 27.31 76.81"
/>
<path stroke="#6eadf3" vector-effect="non-scaling-stroke" d="
  M 27.31 76.81
  L 30.30 75.04"
/>
<path stroke="#70a2ee" vector-effect="non-scaling-stroke" d="
  M 30.30 75.04
  L 42.27 68.08"
/>
<path stroke="#4f4bd9" vector-effect="non-scaling-stroke" d="
  M 84.73 26.93
  Q 73.14 28.61 61.44 28.44"
/>
<path stroke="#4193ef" vector-effect="non-scaling-stroke" d="
  M 84.70 43.15
  Q 82.16 44.00 81.32 45.64"
/>
<path stroke="#70a2ee" vector-effect="non-scaling-stroke" d="
  M 81.32 45.64
  L 68.89 52.45"
/>
<path stroke="#27a8ff" vector-effect="non-scaling-stroke" d="
  M 84.22 65.17
  Q 75.35 63.52 66.29 62.84
  Q 61.99 62.52 58.65 59.98"
/>
<path stroke="#31b6e2" stroke-opacity="0.580" vector-effect="non-scaling-stroke" d="
  M 84.64 53.29
  L 84.60 60.48"
/>
<path stroke="#31c5ff" vector-effect="non-scaling-stroke" d="
  M 84.42 62.03
  C 82.26 56.08 77.52 56.15 72.22 55.31
  Q 71.15 55.14 68.57 53.91"
/>
<path stroke="#65e0ff" vector-effect="non-scaling-stroke" d="
  M 68.57 53.91
  L 81.32 45.64"
/>
</g>
<path fill="#110f2b" fill-opacity="0.063" d="
  M 5.58 26.95
  C 7.51 11.66 17.07 3.37 32.30 2.63
  Q 48.31 1.85 65.55 2.36
  C 81.76 2.83 90.77 10.10 92.80 26.38
  Q 94.75 42.06 92.22 58.75
  Q 90.40 70.66 84.28 79.81
  C 76.25 91.80 60.72 97.65 46.43 97.23
  Q 29.55 96.75 18.58 85.64
  C 5.01 71.90 3.25 45.41 5.58 26.95
  Z
  M 43.38 89.30
  C 57.80 91.25 73.22 87.85 81.06 74.72
  Q 83.50 70.37 84.22 65.17
  Q 84.60 63.53 84.42 62.03
  L 84.60 60.48
  L 84.64 53.29
  L 84.70 43.15
  L 84.73 26.93
  Q 84.77 20.38 84.71 13.75
  Q 84.69 11.81 82.61 10.51
  Q 76.28 6.70 70.32 7.55
  C 55.04 9.74 56.60 28.52 56.32 40.72
  Q 56.17 47.61 52.44 51.47
  C 48.94 55.09 44.35 51.84 43.27 47.76
  Q 41.79 42.18 42.20 35.67
  A 0.11 0.11 0.0 0 0 42.00 35.61
  C 38.47 42.02 41.65 52.31 38.48 61.47
  L 38.54 38.25
  Q 38.05 33.77 42.26 33.25
  A 0.60 0.60 0.0 0 0 42.79 32.68
  L 42.98 25.95
  Q 42.99 19.98 42.83 13.99
  C 42.72 10.01 39.32 10.26 36.00 10.22
  Q 36.77 9.02 36.65 8.43
  C 35.86 4.45 25.78 5.40 23.23 6.01
  C 12.67 8.50 10.92 18.30 10.59 27.69
  Q 10.06 42.67 10.72 55.40
  Q 11.12 63.02 12.45 67.35
  C 17.83 84.78 32.54 93.02 50.42 91.99
  A 0.33 0.33 0.0 0 0 50.49 91.34
  L 43.38 89.30
  Z"
/>
<path fill="#0e0d26" fill-opacity="0.157" d="
  M 36.00 10.22
  Q 28.85 10.41 21.58 10.29
  C 16.08 10.19 16.44 12.95 16.40 17.81
  Q 16.37 21.68 16.48 25.53
  L 16.48 41.22
  Q 16.19 55.21 16.57 62.25
  Q 16.92 68.79 20.54 75.38
  C 25.48 83.57 34.10 87.86 43.38 89.30
  L 50.49 91.34
  A 0.33 0.33 0.0 0 1 50.42 91.99
  C 32.54 93.02 17.83 84.78 12.45 67.35
  Q 11.12 63.02 10.72 55.40
  Q 10.06 42.67 10.59 27.69
  C 10.92 18.30 12.67 8.50 23.23 6.01
  C 25.78 5.40 35.86 4.45 36.65 8.43
  Q 36.77 9.02 36.00 10.22
  Z"
/>
<path fill="#0e0d26" fill-opacity="0.157" d="
  M 82.61 10.51
  Q 74.10 10.11 65.26 10.46
  Q 61.51 10.61 61.45 14.76
  Q 61.36 21.61 61.44 28.44
  L 61.43 43.58
  A 1.01 1.00 -75.0 0 0 61.93 44.45
  Q 64.30 45.83 66.94 47.26
  Q 70.07 48.94 68.89 52.45
  L 42.27 68.08
  Q 40.22 67.57 39.33 66.57
  Q 39.05 66.04 38.74 65.82
  L 38.62 65.46
  L 38.48 61.47
  C 41.65 52.31 38.47 42.02 42.00 35.61
  A 0.11 0.11 0.0 0 1 42.20 35.67
  Q 41.79 42.18 43.27 47.76
  C 44.35 51.84 48.94 55.09 52.44 51.47
  Q 56.17 47.61 56.32 40.72
  C 56.60 28.52 55.04 9.74 70.32 7.55
  Q 76.28 6.70 82.61 10.51
  Z"
/>
<path fill="#5142d3" d="
  M 36.00 10.22
  C 39.32 10.26 42.72 10.01 42.83 13.99
  Q 42.99 19.98 42.98 25.95
  L 16.48 25.53
  Q 16.37 21.68 16.40 17.81
  C 16.44 12.95 16.08 10.19 21.58 10.29
  Q 28.85 10.41 36.00 10.22
  Z"
/>
<path fill="#5142d3" d="
  M 82.61 10.51
  Q 84.69 11.81 84.71 13.75
  Q 84.77 20.38 84.73 26.93
  Q 73.14 28.61 61.44 28.44
  Q 61.36 21.61 61.45 14.76
  Q 61.51 10.61 65.26 10.46
  Q 74.10 10.11 82.61 10.51
  Z"
/>
<path fill="#4c54de" d="
  M 42.98 25.95
  L 42.79 32.68
  A 0.60 0.60 0.0 0 1 42.26 33.25
  Q 38.05 33.77 38.54 38.25
  Q 27.63 40.94 16.48 41.22
  L 16.48 25.53
  L 42.98 25.95
  Z"
/>
<path fill="#4c54de" d="
  M 84.73 26.93
  L 84.70 43.15
  Q 82.16 44.00 81.32 45.64
  L 68.89 52.45
  Q 70.07 48.94 66.94 47.26
  Q 64.30 45.83 61.93 44.45
  A 1.01 1.00 -75.0 0 1 61.43 43.58
  L 61.44 28.44
  Q 73.14 28.61 84.73 26.93
  Z"
/>
<path fill="#486ae9" d="
  M 38.54 38.25
  L 38.48 61.47
  L 38.62 65.46
  Q 31.45 68.00 24.32 70.66
  Q 22.11 71.48 20.54 75.38
  Q 16.92 68.79 16.57 62.25
  Q 16.19 55.21 16.48 41.22
  Q 27.63 40.94 38.54 38.25
  Z"
/>
<path fill="#36d1ff" d="
  M 84.70 43.15
  L 84.64 53.29
  L 84.60 60.48
  L 84.42 62.03
  C 82.26 56.08 77.52 56.15 72.22 55.31
  Q 71.15 55.14 68.57 53.91
  L 81.32 45.64
  Q 82.16 44.00 84.70 43.15
  Z"
/>
<path fill="#95f0fe" fill-opacity="0.996" d="
  M 81.32 45.64
  L 68.57 53.91
  L 58.65 59.98
  L 35.13 73.46
  L 26.79 78.08
  A 0.40 0.39 -52.1 0 1 26.52 78.12
  Q 26.40 78.09 26.22 77.95
  A 0.25 0.25 0.0 0 1 26.24 77.54
  L 27.31 76.81
  L 30.30 75.04
  L 42.27 68.08
  L 68.89 52.45
  L 81.32 45.64
  Z"
/>
<path fill="#0e0d26" fill-opacity="0.157" d="
  M 84.64 53.29
  L 84.60 60.48
  L 84.64 53.29
  Z"
/>
<path fill="#2bb8ff" d="
  M 68.57 53.91
  Q 71.15 55.14 72.22 55.31
  C 77.52 56.15 82.26 56.08 84.42 62.03
  Q 84.60 63.53 84.22 65.17
  Q 75.35 63.52 66.29 62.84
  Q 61.99 62.52 58.65 59.98
  L 68.57 53.91
  Z"
/>
<path fill="#2398ff" d="
  M 58.65 59.98
  Q 61.99 62.52 66.29 62.84
  Q 75.35 63.52 84.22 65.17
  Q 83.50 70.37 81.06 74.72
  L 35.13 73.46
  L 58.65 59.98
  Z"
/>
<path fill="#2578fe" d="
  M 38.62 65.46
  L 38.74 65.82
  C 33.31 67.48 28.26 70.80 27.31 76.81
  L 26.24 77.54
  A 0.25 0.25 0.0 0 0 26.22 77.95
  Q 26.40 78.09 26.52 78.12
  A 0.40 0.39 -52.1 0 0 26.79 78.08
  L 35.13 73.46
  L 81.06 74.72
  C 73.22 87.85 57.80 91.25 43.38 89.30
  C 34.10 87.86 25.48 83.57 20.54 75.38
  Q 22.11 71.48 24.32 70.66
  Q 31.45 68.00 38.62 65.46
  Z"
/>
<path fill="#486ae9" d="
  M 39.33 66.57
  C 35.46 68.50 31.91 70.99 30.30 75.04
  L 27.31 76.81
  C 28.26 70.80 33.31 67.48 38.74 65.82
  Q 39.05 66.04 39.33 66.57
  Z"
/>
<path fill="#4c54de" d="
  M 42.27 68.08
  L 30.30 75.04
  C 31.91 70.99 35.46 68.50 39.33 66.57
  Q 40.22 67.57 42.27 68.08
  Z"
/>
</svg>
