<?xml version="1.0" encoding="UTF-8" standalone="no"?>
<!DOCTYPE svg PUBLIC "-//W3C//DTD SVG 1.1//EN" "http://www.w3.org/Graphics/SVG/1.1/DTD/svg11.dtd">
<svg xmlns="http://www.w3.org/2000/svg" version="1.1" viewBox="0.00 0.00 512.00 512.00">
<g stroke-width="2.00" fill="none" stroke-linecap="butt">
<path stroke="#8c7faa" vector-effect="non-scaling-stroke" d="
  M 150.22 237.29
  A 0.73 0.73 0.0 0 0 151.38 237.39
  Q 156.24 232.00 159.08 228.02
  Q 162.55 223.19 166.71 218.66
  Q 174.79 209.89 180.89 204.11
  A 4.62 4.48 85.8 0 0 181.56 203.31
  C 184.56 198.68 185.57 192.90 186.62 187.11
  C 189.44 171.62 199.09 158.15 210.94 148.08
  C 223.35 137.54 238.13 132.70 254.27 132.40
  Q 272.74 132.05 288.74 139.21
  C 295.26 142.13 302.41 148.92 307.03 152.32
  C 309.44 154.10 311.54 158.55 313.50 160.85
  C 317.10 165.06 319.71 168.75 321.97 174.29
  Q 328.12 189.33 328.14 206.29
  A 1.02 0.95 -43.0 0 1 328.13 206.43
  L 326.44 218.10
  A 8.18 5.23 -85.7 0 1 326.21 219.22
  L 323.73 228.83
  A 4.24 3.73 67.9 0 1 323.49 229.52
  C 320.00 237.13 317.83 242.68 312.55 247.96
  A 13.25 12.84 -5.4 0 0 311.10 249.66
  Q 306.30 256.33 301.69 259.45
  C 294.93 264.03 286.92 269.55 277.88 272.24
  Q 260.79 277.33 244.45 274.48
  Q 238.25 273.40 227.43 269.88
  A 2.93 2.82 -35.5 0 0 226.48 269.74
  C 222.87 269.79 221.32 272.66 218.36 276.13
  A 4.54 4.21 80.7 0 0 217.81 276.96
  Q 213.36 285.73 210.89 290.88
  Q 208.54 295.78 207.84 301.23
  A 2.26 2.25 12.0 0 0 209.43 303.67
  Q 216.06 305.67 221.62 308.98
  A 7.47 7.13 66.9 0 0 223.39 309.74
  C 237.64 313.70 252.39 315.57 267.03 314.06
  C 278.71 312.85 287.52 311.54 297.11 306.70
  Q 300.39 305.05 305.44 303.04
  C 311.37 300.69 316.00 297.64 322.13 292.60
  Q 327.30 288.34 330.65 286.16
  Q 332.26 285.11 334.25 282.75
  C 339.36 276.73 344.01 272.01 348.11 265.73
  Q 354.08 256.61 358.14 248.29
  C 360.60 243.25 361.29 239.06 363.10 233.48
  Q 364.75 228.39 365.42 222.00
  C 366.26 214.20 367.85 204.69 367.01 196.64
  Q 365.31 180.34 363.04 172.64
  Q 359.99 162.29 356.81 155.45
  C 355.29 152.17 352.50 148.82 350.61 145.26
  C 348.86 141.98 347.50 139.36 344.83 136.45
  Q 340.63 131.88 336.61 126.50
  A 8.86 8.75 -89.6 0 0 335.02 124.87
  Q 328.05 119.35 322.14 113.87
  Q 320.02 111.92 318.24 110.99
  Q 308.67 106.03 303.35 102.95
  C 299.72 100.86 295.29 99.27 291.58 98.20
  Q 253.31 87.15 216.22 99.76
  C 214.01 100.52 210.84 101.88 209.06 102.95
  Q 200.27 108.22 193.46 111.77
  C 191.88 112.59 190.99 113.48 189.54 114.78
  Q 181.37 122.06 179.81 123.07
  Q 177.82 124.36 174.28 128.90
  C 169.86 134.56 165.41 138.22 162.33 144.55
  Q 160.86 147.57 157.92 152.75
  C 153.66 160.24 150.34 167.72 148.36 176.87
  Q 144.77 193.46 145.64 208.77
  Q 145.80 211.66 147.07 222.86
  C 147.57 227.27 149.36 232.12 149.74 236.25
  Q 149.77 236.59 150.22 237.29"
/>
<path stroke="#8c7faa" vector-effect="non-scaling-stroke" d="
  M 256.34 253.41
  A 0.60 0.60 0.0 0 0 257.26 253.33
  C 260.63 248.46 264.19 244.19 267.18 238.94
  Q 273.12 228.48 280.24 217.92
  C 282.47 214.61 283.94 210.70 286.39 207.21
  Q 293.41 197.24 299.64 185.23
  A 0.60 0.60 0.0 0 0 299.35 184.40
  C 294.97 182.43 289.47 182.73 284.78 181.47
  Q 278.26 179.72 275.70 179.23
  C 261.72 176.61 255.45 175.79 245.78 172.46
  C 238.74 170.03 231.57 169.33 224.28 167.11
  A 1.19 1.19 0.0 0 0 222.77 168.51
  Q 223.51 171.85 225.19 175.34
  Q 228.92 183.09 231.35 189.63
  Q 232.51 192.74 230.83 193.66
  A 0.67 0.14 -12.0 0 0 230.74 193.70
  L 221.72 197.43
  A 4.15 3.79 -72.4 0 0 220.80 197.96
  C 218.59 199.65 216.58 201.51 214.48 202.61
  C 210.96 204.44 205.49 207.82 201.96 211.04
  Q 200.62 212.27 191.31 219.53
  A 2.20 1.41 -40.6 0 0 191.08 219.74
  L 177.53 234.13
  A 15.09 15.05 82.6 0 0 175.77 236.42
  C 174.53 238.50 172.79 241.45 171.11 243.56
  Q 165.86 250.14 162.23 258.04
  C 159.73 263.46 155.30 271.63 152.95 278.64
  Q 146.87 296.81 146.32 317.18
  C 146.20 321.35 145.59 325.92 145.59 329.51
  Q 145.57 371.89 145.49 381.44
  A 1.61 1.61 0.0 0 0 147.08 383.06
  Q 151.57 383.12 162.74 382.70
  C 166.86 382.54 173.24 381.31 175.99 377.99
  Q 177.68 375.95 180.05 372.93
  C 182.16 370.23 182.97 368.00 183.59 364.80
  C 185.38 355.48 184.97 346.62 184.91 330.75
  C 184.84 313.39 187.01 296.18 194.39 280.66
  Q 195.69 277.91 203.07 265.88
  C 206.71 259.95 211.81 255.52 216.62 249.91
  A 15.60 15.57 2.5 0 1 219.49 247.29
  C 222.86 244.90 225.31 243.12 227.95 240.71
  C 230.54 238.34 231.64 236.92 235.03 235.45
  Q 238.14 234.11 242.30 231.73
  C 243.82 230.86 246.32 230.22 247.87 230.39
  A 1.52 1.52 0.0 0 1 249.20 231.57
  Q 250.62 237.83 253.11 242.94
  C 254.81 246.44 255.27 249.00 255.62 252.12
  Q 255.69 252.75 256.34 253.41"
/>
</g>
<path fill="#1a236e" d="
  M 308.86 456.31
  A 3.77 3.77 0.0 0 0 306.22 457.39
  Q 302.94 460.61 299.33 463.59
  C 294.11 467.89 290.46 472.95 286.19 477.28
  Q 279.31 484.27 262.79 501.03
  C 260.46 503.39 256.48 503.11 253.73 502.92
  C 251.67 502.78 249.86 501.51 248.55 500.01
  Q 243.09 493.73 240.30 491.12
  Q 234.81 485.97 231.76 482.45
  Q 226.47 476.37 216.46 466.66
  Q 211.35 461.71 206.27 457.76
  A 4.96 4.96 0.0 0 0 203.95 456.77
  Q 200.81 456.31 197.00 456.32
  Q 164.43 456.43 133.50 456.32
  Q 128.33 456.31 115.50 454.37
  A 7.89 7.88 -28.2 0 1 113.28 453.70
  Q 104.58 449.62 99.95 446.81
  C 96.53 444.74 94.36 440.83 91.40 438.07
  C 87.42 434.36 86.12 431.04 83.48 425.72
  A 3.46 3.29 -66.8 0 1 83.23 425.05
  L 80.92 416.24
  A 3.25 3.14 37.7 0 1 80.81 415.49
  C 80.75 411.27 79.56 406.70 79.56 401.81
  Q 79.56 398.52 79.51 387.92
  Q 78.97 273.53 79.25 84.87
  Q 79.27 68.51 79.61 65.64
  Q 80.65 56.79 84.28 47.00
  C 85.50 43.70 87.78 40.17 90.32 37.60
  Q 94.86 32.99 99.80 28.07
  A 4.17 3.95 -79.5 0 1 100.83 27.32
  L 113.28 20.89
  A 11.10 10.80 -66.8 0 1 114.89 20.22
  C 116.59 19.68 121.70 18.93 124.42 18.81
  Q 132.06 18.49 136.50 18.47
  Q 166.28 18.28 196.44 18.57
  Q 199.76 18.60 201.57 18.46
  C 203.95 18.27 206.17 18.69 208.83 18.68
  Q 237.94 18.62 287.40 18.72
  C 294.84 18.74 301.59 18.09 308.83 18.74
  C 310.89 18.92 313.76 18.40 315.50 18.41
  Q 348.93 18.46 370.33 18.39
  C 377.96 18.36 384.93 18.72 393.20 18.95
  A 8.82 8.73 -30.6 0 1 396.94 19.89
  L 410.26 26.60
  A 12.80 12.65 81.5 0 1 413.80 29.25
  C 416.01 31.60 420.64 35.66 423.44 40.00
  C 425.69 43.50 427.92 45.69 429.17 49.80
  Q 430.43 53.97 431.52 58.15
  Q 433.09 64.15 433.14 70.50
  Q 433.19 79.24 433.17 106.00
  Q 433.03 244.45 433.10 394.02
  C 433.10 397.70 432.82 401.36 432.91 404.98
  C 433.02 409.23 432.06 413.15 431.20 417.97
  Q 430.45 422.12 426.97 429.76
  Q 424.88 434.35 420.62 438.59
  Q 412.59 446.58 412.57 446.60
  A 11.23 11.20 9.9 0 1 409.74 448.58
  L 399.42 453.60
  A 5.66 5.26 -62.3 0 1 398.37 453.97
  Q 388.31 456.33 377.75 456.34
  Q 342.81 456.37 308.86 456.31
  Z
  M 150.22 237.29
  A 0.73 0.73 0.0 0 0 151.38 237.39
  Q 156.24 232.00 159.08 228.02
  Q 162.55 223.19 166.71 218.66
  Q 174.79 209.89 180.89 204.11
  A 4.62 4.48 85.8 0 0 181.56 203.31
  C 184.56 198.68 185.57 192.90 186.62 187.11
  C 189.44 171.62 199.09 158.15 210.94 148.08
  C 223.35 137.54 238.13 132.70 254.27 132.40
  Q 272.74 132.05 288.74 139.21
  C 295.26 142.13 302.41 148.92 307.03 152.32
  C 309.44 154.10 311.54 158.55 313.50 160.85
  C 317.10 165.06 319.71 168.75 321.97 174.29
  Q 328.12 189.33 328.14 206.29
  A 1.02 0.95 -43.0 0 1 328.13 206.43
  L 326.44 218.10
  A 8.18 5.23 -85.7 0 1 326.21 219.22
  L 323.73 228.83
  A 4.24 3.73 67.9 0 1 323.49 229.52
  C 320.00 237.13 317.83 242.68 312.55 247.96
  A 13.25 12.84 -5.4 0 0 311.10 249.66
  Q 306.30 256.33 301.69 259.45
  C 294.93 264.03 286.92 269.55 277.88 272.24
  Q 260.79 277.33 244.45 274.48
  Q 238.25 273.40 227.43 269.88
  A 2.93 2.82 -35.5 0 0 226.48 269.74
  C 222.87 269.79 221.32 272.66 218.36 276.13
  A 4.54 4.21 80.7 0 0 217.81 276.96
  Q 213.36 285.73 210.89 290.88
  Q 208.54 295.78 207.84 301.23
  A 2.26 2.25 12.0 0 0 209.43 303.67
  Q 216.06 305.67 221.62 308.98
  A 7.47 7.13 66.9 0 0 223.39 309.74
  C 237.64 313.70 252.39 315.57 267.03 314.06
  C 278.71 312.85 287.52 311.54 297.11 306.70
  Q 300.39 305.05 305.44 303.04
  C 311.37 300.69 316.00 297.64 322.13 292.60
  Q 327.30 288.34 330.65 286.16
  Q 332.26 285.11 334.25 282.75
  C 339.36 276.73 344.01 272.01 348.11 265.73
  Q 354.08 256.61 358.14 248.29
  C 360.60 243.25 361.29 239.06 363.10 233.48
  Q 364.75 228.39 365.42 222.00
  C 366.26 214.20 367.85 204.69 367.01 196.64
  Q 365.31 180.34 363.04 172.64
  Q 359.99 162.29 356.81 155.45
  C 355.29 152.17 352.50 148.82 350.61 145.26
  C 348.86 141.98 347.50 139.36 344.83 136.45
  Q 340.63 131.88 336.61 126.50
  A 8.86 8.75 -89.6 0 0 335.02 124.87
  Q 328.05 119.35 322.14 113.87
  Q 320.02 111.92 318.24 110.99
  Q 308.67 106.03 303.35 102.95
  C 299.72 100.86 295.29 99.27 291.58 98.20
  Q 253.31 87.15 216.22 99.76
  C 214.01 100.52 210.84 101.88 209.06 102.95
  Q 200.27 108.22 193.46 111.77
  C 191.88 112.59 190.99 113.48 189.54 114.78
  Q 181.37 122.06 179.81 123.07
  Q 177.82 124.36 174.28 128.90
  C 169.86 134.56 165.41 138.22 162.33 144.55
  Q 160.86 147.57 157.92 152.75
  C 153.66 160.24 150.34 167.72 148.36 176.87
  Q 144.77 193.46 145.64 208.77
  Q 145.80 211.66 147.07 222.86
  C 147.57 227.27 149.36 232.12 149.74 236.25
  Q 149.77 236.59 150.22 237.29
  Z
  M 256.34 253.41
  A 0.60 0.60 0.0 0 0 257.26 253.33
  C 260.63 248.46 264.19 244.19 267.18 238.94
  Q 273.12 228.48 280.24 217.92
  C 282.47 214.61 283.94 210.70 286.39 207.21
  Q 293.41 197.24 299.64 185.23
  A 0.60 0.60 0.0 0 0 299.35 184.40
  C 294.97 182.43 289.47 182.73 284.78 181.47
  Q 278.26 179.72 275.70 179.23
  C 261.72 176.61 255.45 175.79 245.78 172.46
  C 238.74 170.03 231.57 169.33 224.28 167.11
  A 1.19 1.19 0.0 0 0 222.77 168.51
  Q 223.51 171.85 225.19 175.34
  Q 228.92 183.09 231.35 189.63
  Q 232.51 192.74 230.83 193.66
  A 0.67 0.14 -12.0 0 0 230.74 193.70
  L 221.72 197.43
  A 4.15 3.79 -72.4 0 0 220.80 197.96
  C 218.59 199.65 216.58 201.51 214.48 202.61
  C 210.96 204.44 205.49 207.82 201.96 211.04
  Q 200.62 212.27 191.31 219.53
  A 2.20 1.41 -40.6 0 0 191.08 219.74
  L 177.53 234.13
  A 15.09 15.05 82.6 0 0 175.77 236.42
  C 174.53 238.50 172.79 241.45 171.11 243.56
  Q 165.86 250.14 162.23 258.04
  C 159.73 263.46 155.30 271.63 152.95 278.64
  Q 146.87 296.81 146.32 317.18
  C 146.20 321.35 145.59 325.92 145.59 329.51
  Q 145.57 371.89 145.49 381.44
  A 1.61 1.61 0.0 0 0 147.08 383.06
  Q 151.57 383.12 162.74 382.70
  C 166.86 382.54 173.24 381.31 175.99 377.99
  Q 177.68 375.95 180.05 372.93
  C 182.16 370.23 182.97 368.00 183.59 364.80
  C 185.38 355.48 184.97 346.62 184.91 330.75
  C 184.84 313.39 187.01 296.18 194.39 280.66
  Q 195.69 277.91 203.07 265.88
  C 206.71 259.95 211.81 255.52 216.62 249.91
  A 15.60 15.57 2.5 0 1 219.49 247.29
  C 222.86 244.90 225.31 243.12 227.95 240.71
  C 230.54 238.34 231.64 236.92 235.03 235.45
  Q 238.14 234.11 242.30 231.73
  C 243.82 230.86 246.32 230.22 247.87 230.39
  A 1.52 1.52 0.0 0 1 249.20 231.57
  Q 250.62 237.83 253.11 242.94
  C 254.81 246.44 255.27 249.00 255.62 252.12
  Q 255.69 252.75 256.34 253.41
  Z"
/>
<path fill="#fddbe6" d="
  M 150.22 237.29
  Q 149.77 236.59 149.74 236.25
  C 149.36 232.12 147.57 227.27 147.07 222.86
  Q 145.80 211.66 145.64 208.77
  Q 144.77 193.46 148.36 176.87
  C 150.34 167.72 153.66 160.24 157.92 152.75
  Q 160.86 147.57 162.33 144.55
  C 165.41 138.22 169.86 134.56 174.28 128.90
  Q 177.82 124.36 179.81 123.07
  Q 181.37 122.06 189.54 114.78
  C 190.99 113.48 191.88 112.59 193.46 111.77
  Q 200.27 108.22 209.06 102.95
  C 210.84 101.88 214.01 100.52 216.22 99.76
  Q 253.31 87.15 291.58 98.20
  C 295.29 99.27 299.72 100.86 303.35 102.95
  Q 308.67 106.03 318.24 110.99
  Q 320.02 111.92 322.14 113.87
  Q 328.05 119.35 335.02 124.87
  A 8.86 8.75 -89.6 0 1 336.61 126.50
  Q 340.63 131.88 344.83 136.45
  C 347.50 139.36 348.86 141.98 350.61 145.26
  C 352.50 148.82 355.29 152.17 356.81 155.45
  Q 359.99 162.29 363.04 172.64
  Q 365.31 180.34 367.01 196.64
  C 367.85 204.69 366.26 214.20 365.42 222.00
  Q 364.75 228.39 363.10 233.48
  C 361.29 239.06 360.60 243.25 358.14 248.29
  Q 354.08 256.61 348.11 265.73
  C 344.01 272.01 339.36 276.73 334.25 282.75
  Q 332.26 285.11 330.65 286.16
  Q 327.30 288.34 322.13 292.60
  C 316.00 297.64 311.37 300.69 305.44 303.04
  Q 300.39 305.05 297.11 306.70
  C 287.52 311.54 278.71 312.85 267.03 314.06
  C 252.39 315.57 237.64 313.70 223.39 309.74
  A 7.47 7.13 66.9 0 1 221.62 308.98
  Q 216.06 305.67 209.43 303.67
  A 2.26 2.25 12.0 0 1 207.84 301.23
  Q 208.54 295.78 210.89 290.88
  Q 213.36 285.73 217.81 276.96
  A 4.54 4.21 80.7 0 1 218.36 276.13
  C 221.32 272.66 222.87 269.79 226.48 269.74
  A 2.93 2.82 -35.5 0 1 227.43 269.88
  Q 238.25 273.40 244.45 274.48
  Q 260.79 277.33 277.88 272.24
  C 286.92 269.55 294.93 264.03 301.69 259.45
  Q 306.30 256.33 311.10 249.66
  A 13.25 12.84 -5.4 0 1 312.55 247.96
  C 317.83 242.68 320.00 237.13 323.49 229.52
  A 4.24 3.73 67.9 0 0 323.73 228.83
  L 326.21 219.22
  A 8.18 5.23 -85.7 0 0 326.44 218.10
  L 328.13 206.43
  A 1.02 0.95 -43.0 0 0 328.14 206.29
  Q 328.12 189.33 321.97 174.29
  C 319.71 168.75 317.10 165.06 313.50 160.85
  C 311.54 158.55 309.44 154.10 307.03 152.32
  C 302.41 148.92 295.26 142.13 288.74 139.21
  Q 272.74 132.05 254.27 132.40
  C 238.13 132.70 223.35 137.54 210.94 148.08
  C 199.09 158.15 189.44 171.62 186.62 187.11
  C 185.57 192.90 184.56 198.68 181.56 203.31
  A 4.62 4.48 85.8 0 1 180.89 204.11
  Q 174.79 209.89 166.71 218.66
  Q 162.55 223.19 159.08 228.02
  Q 156.24 232.00 151.38 237.39
  A 0.73 0.73 0.0 0 1 150.22 237.29
  Z"
/>
<path fill="#fddbe6" d="
  M 256.34 253.41
  Q 255.69 252.75 255.62 252.12
  C 255.27 249.00 254.81 246.44 253.11 242.94
  Q 250.62 237.83 249.20 231.57
  A 1.52 1.52 0.0 0 0 247.87 230.39
  C 246.32 230.22 243.82 230.86 242.30 231.73
  Q 238.14 234.11 235.03 235.45
  C 231.64 236.92 230.54 238.34 227.95 240.71
  C 225.31 243.12 222.86 244.90 219.49 247.29
  A 15.60 15.57 2.5 0 0 216.62 249.91
  C 211.81 255.52 206.71 259.95 203.07 265.88
  Q 195.69 277.91 194.39 280.66
  C 187.01 296.18 184.84 313.39 184.91 330.75
  C 184.97 346.62 185.38 355.48 183.59 364.80
  C 182.97 368.00 182.16 370.23 180.05 372.93
  Q 177.68 375.95 175.99 377.99
  C 173.24 381.31 166.86 382.54 162.74 382.70
  Q 151.57 383.12 147.08 383.06
  A 1.61 1.61 0.0 0 1 145.49 381.44
  Q 145.57 371.89 145.59 329.51
  C 145.59 325.92 146.20 321.35 146.32 317.18
  Q 146.87 296.81 152.95 278.64
  C 155.30 271.63 159.73 263.46 162.23 258.04
  Q 165.86 250.14 171.11 243.56
  C 172.79 241.45 174.53 238.50 175.77 236.42
  A 15.09 15.05 82.6 0 1 177.53 234.13
  L 191.08 219.74
  A 2.20 1.41 -40.6 0 1 191.31 219.53
  Q 200.62 212.27 201.96 211.04
  C 205.49 207.82 210.96 204.44 214.48 202.61
  C 216.58 201.51 218.59 199.65 220.80 197.96
  A 4.15 3.79 -72.4 0 1 221.72 197.43
  L 230.74 193.70
  A 0.67 0.14 -12.0 0 1 230.83 193.66
  Q 232.51 192.74 231.35 189.63
  Q 228.92 183.09 225.19 175.34
  Q 223.51 171.85 222.77 168.51
  A 1.19 1.19 0.0 0 1 224.28 167.11
  C 231.57 169.33 238.74 170.03 245.78 172.46
  C 255.45 175.79 261.72 176.61 275.70 179.23
  Q 278.26 179.72 284.78 181.47
  C 289.47 182.73 294.97 182.43 299.35 184.40
  A 0.60 0.60 0.0 0 1 299.64 185.23
  Q 293.41 197.24 286.39 207.21
  C 283.94 210.70 282.47 214.61 280.24 217.92
  Q 273.12 228.48 267.18 238.94
  C 264.19 244.19 260.63 248.46 257.26 253.33
  A 0.60 0.60 0.0 0 1 256.34 253.41
  Z"
/>
</svg>
