<?xml version="1.0" encoding="UTF-8" standalone="no"?>
<!DOCTYPE svg PUBLIC "-//W3C//DTD SVG 1.1//EN" "http://www.w3.org/Graphics/SVG/1.1/DTD/svg11.dtd">
<svg xmlns="http://www.w3.org/2000/svg" version="1.1" viewBox="0.00 0.00 64.00 64.00">
<g stroke-width="2.00" fill="none" stroke-linecap="butt">
<path stroke="#7a6753" vector-effect="non-scaling-stroke" d="
  M 39.6533 19.3135
  A 7.43 7.43 0.0 0 0 32.2363 11.8705
  L 31.6563 11.8695
  A 7.43 7.43 0.0 0 0 24.2133 19.2865
  L 24.1667 45.9865
  A 7.43 7.43 0.0 0 0 31.5837 53.4295
  L 32.1637 53.4305
  A 7.43 7.43 0.0 0 0 39.6067 46.0135
  L 39.6533 19.3135"
/>
<path stroke="#734d28" vector-effect="non-scaling-stroke" d="
  M 47.32 32.64
  Q 47.32 34.54 47.32 34.65
  A 0.66 0.65 1.8 0 0 47.91 35.27
  C 50.10 35.48 52.37 34.77 52.55 38.03
  Q 52.74 41.57 52.60 45.98
  A 2.31 2.31 0.0 0 1 50.34 48.22
  L 50.19 48.22
  A 2.25 2.25 0.0 0 1 47.84 45.98
  L 47.80 39.75
  A 0.47 0.47 0.0 0 0 47.33 39.29
  L 42.90 39.29
  A 0.45 0.45 0.0 0 0 42.45 39.72
  Q 42.25 44.69 42.61 47.21
  C 43.12 50.83 46.80 53.71 50.49 53.48
  Q 55.98 53.13 57.77 47.67
  A 3.50 3.38 -36.4 0 0 57.94 46.67
  C 58.08 41.43 59.04 35.10 52.77 32.97
  Q 52.59 32.91 52.59 32.63
  Q 52.59 32.36 52.77 32.30
  C 59.03 30.15 58.06 23.83 57.91 18.59
  A 3.50 3.38 36.3 0 0 57.74 17.59
  Q 55.94 12.13 50.45 11.79
  C 46.76 11.57 43.08 14.46 42.58 18.08
  Q 42.22 20.60 42.44 25.57
  A 0.45 0.45 0.0 0 0 42.89 26.00
  L 47.32 25.99
  A 0.47 0.47 0.0 0 0 47.79 25.53
  L 47.81 19.30
  A 2.25 2.25 0.0 0 1 50.16 17.05
  L 50.31 17.05
  A 2.31 2.31 0.0 0 1 52.57 19.29
  Q 52.72 23.70 52.54 27.24
  C 52.37 30.50 50.09 29.79 47.90 30.01
  A 0.66 0.65 -1.9 0 0 47.32 30.62
  Q 47.31 30.74 47.32 32.64"
/>
<path stroke="#808080" vector-effect="non-scaling-stroke" d="
  M 13.70 53.20
  Q 16.06 53.20 16.08 53.20
  A 0.79 0.78 88.1 0 0 16.71 52.52
  L 22.02 12.39
  A 0.30 0.30 0.0 0 0 21.72 12.05
  L 17.07 12.05
  A 0.31 0.31 0.0 0 0 16.76 12.31
  Q 14.61 26.91 13.93 41.02
  Q 13.92 41.30 13.70 41.30
  Q 13.48 41.30 13.47 41.02
  Q 12.79 26.91 10.64 12.31
  A 0.31 0.31 0.0 0 0 10.33 12.05
  L 5.68 12.05
  A 0.30 0.30 0.0 0 0 5.38 12.39
  L 10.69 52.52
  A 0.79 0.78 -88.1 0 0 11.32 53.20
  Q 11.34 53.20 13.70 53.20"
/>
<path stroke="#7a6753" vector-effect="non-scaling-stroke" d="
  M 29.95 39.22
  L 33.18 18.14
  A 1.04 1.04 0.0 0 0 31.89 16.98
  L 31.23 17.15
  A 2.19 2.18 83.1 0 0 29.57 19.27
  L 29.59 39.26
  A 0.15 0.15 0.0 0 0 29.73 39.41
  L 29.74 39.41
  A 0.23 0.22 -87.2 0 0 29.95 39.22"
/>
<path stroke="#7a6753" vector-effect="non-scaling-stroke" d="
  M 34.04 24.16
  L 30.49 47.10
  A 1.13 1.13 0.0 0 0 31.89 48.37
  L 32.61 48.19
  A 2.38 2.37 83.2 0 0 34.42 45.88
  L 34.43 24.11
  A 0.16 0.16 0.0 0 0 34.28 23.95
  L 34.27 23.95
  A 0.25 0.24 -87.1 0 0 34.04 24.16"
/>
</g>
<path fill="#000000" d="
  M 64.00 0.00
  L 64.00 64.00
  L 0.00 64.00
  L 0.00 0.00
  L 64.00 0.00
  Z
  M 39.6533 19.3135
  A 7.43 7.43 0.0 0 0 32.2363 11.8705
  L 31.6563 11.8695
  A 7.43 7.43 0.0 0 0 24.2133 19.2865
  L 24.1667 45.9865
  A 7.43 7.43 0.0 0 0 31.5837 53.4295
  L 32.1637 53.4305
  A 7.43 7.43 0.0 0 0 39.6067 46.0135
  L 39.6533 19.3135
  Z
  M 47.32 32.64
  Q 47.32 34.54 47.32 34.65
  A 0.66 0.65 1.8 0 0 47.91 35.27
  C 50.10 35.48 52.37 34.77 52.55 38.03
  Q 52.74 41.57 52.60 45.98
  A 2.31 2.31 0.0 0 1 50.34 48.22
  L 50.19 48.22
  A 2.25 2.25 0.0 0 1 47.84 45.98
  L 47.80 39.75
  A 0.47 0.47 0.0 0 0 47.33 39.29
  L 42.90 39.29
  A 0.45 0.45 0.0 0 0 42.45 39.72
  Q 42.25 44.69 42.61 47.21
  C 43.12 50.83 46.80 53.71 50.49 53.48
  Q 55.98 53.13 57.77 47.67
  A 3.50 3.38 -36.4 0 0 57.94 46.67
  C 58.08 41.43 59.04 35.10 52.77 32.97
  Q 52.59 32.91 52.59 32.63
  Q 52.59 32.36 52.77 32.30
  C 59.03 30.15 58.06 23.83 57.91 18.59
  A 3.50 3.38 36.3 0 0 57.74 17.59
  Q 55.94 12.13 50.45 11.79
  C 46.76 11.57 43.08 14.46 42.58 18.08
  Q 42.22 20.60 42.44 25.57
  A 0.45 0.45 0.0 0 0 42.89 26.00
  L 47.32 25.99
  A 0.47 0.47 0.0 0 0 47.79 25.53
  L 47.81 19.30
  A 2.25 2.25 0.0 0 1 50.16 17.05
  L 50.31 17.05
  A 2.31 2.31 0.0 0 1 52.57 19.29
  Q 52.72 23.70 52.54 27.24
  C 52.37 30.50 50.09 29.79 47.90 30.01
  A 0.66 0.65 -1.9 0 0 47.32 30.62
  Q 47.31 30.74 47.32 32.64
  Z
  M 13.70 53.20
  Q 16.06 53.20 16.08 53.20
  A 0.79 0.78 88.1 0 0 16.71 52.52
  L 22.02 12.39
  A 0.30 0.30 0.0 0 0 21.72 12.05
  L 17.07 12.05
  A 0.31 0.31 0.0 0 0 16.76 12.31
  Q 14.61 26.91 13.93 41.02
  Q 13.92 41.30 13.70 41.30
  Q 13.48 41.30 13.47 41.02
  Q 12.79 26.91 10.64 12.31
  A 0.31 0.31 0.0 0 0 10.33 12.05
  L 5.68 12.05
  A 0.30 0.30 0.0 0 0 5.38 12.39
  L 10.69 52.52
  A 0.79 0.78 -88.1 0 0 11.32 53.20
  Q 11.34 53.20 13.70 53.20
  Z"
/>
<path fill="#f3cda5" d="
  M 39.6067 46.0135
  A 7.43 7.43 0.0 0 1 32.1637 53.4305
  L 31.5837 53.4295
  A 7.43 7.43 0.0 0 1 24.1667 45.9865
  L 24.2133 19.2865
  A 7.43 7.43 0.0 0 1 31.6563 11.8695
  L 32.2363 11.8705
  A 7.43 7.43 0.0 0 1 39.6533 19.3135
  L 39.6067 46.0135
  Z
  M 29.95 39.22
  L 33.18 18.14
  A 1.04 1.04 0.0 0 0 31.89 16.98
  L 31.23 17.15
  A 2.19 2.18 83.1 0 0 29.57 19.27
  L 29.59 39.26
  A 0.15 0.15 0.0 0 0 29.73 39.41
  L 29.74 39.41
  A 0.23 0.22 -87.2 0 0 29.95 39.22
  Z
  M 34.04 24.16
  L 30.49 47.10
  A 1.13 1.13 0.0 0 0 31.89 48.37
  L 32.61 48.19
  A 2.38 2.37 83.2 0 0 34.42 45.88
  L 34.43 24.11
  A 0.16 0.16 0.0 0 0 34.28 23.95
  L 34.27 23.95
  A 0.25 0.24 -87.1 0 0 34.04 24.16
  Z"
/>
<path fill="#e5994f" d="
  M 52.59 32.63
  Q 52.59 32.91 52.77 32.97
  C 59.04 35.10 58.08 41.43 57.94 46.67
  A 3.50 3.38 -36.4 0 1 57.77 47.67
  Q 55.98 53.13 50.49 53.48
  C 46.80 53.71 43.12 50.83 42.61 47.21
  Q 42.25 44.69 42.45 39.72
  A 0.45 0.45 0.0 0 1 42.90 39.29
  L 47.33 39.29
  A 0.47 0.47 0.0 0 1 47.80 39.75
  L 47.84 45.98
  A 2.25 2.25 0.0 0 0 50.19 48.22
  L 50.34 48.22
  A 2.31 2.31 0.0 0 0 52.60 45.98
  Q 52.74 41.57 52.55 38.03
  C 52.37 34.77 50.10 35.48 47.91 35.27
  A 0.66 0.65 1.8 0 1 47.32 34.65
  Q 47.32 34.54 47.32 32.64
  Q 47.31 30.74 47.32 30.62
  A 0.66 0.65 -1.9 0 1 47.90 30.01
  C 50.09 29.79 52.37 30.50 52.54 27.24
  Q 52.72 23.70 52.57 19.29
  A 2.31 2.31 0.0 0 0 50.31 17.05
  L 50.16 17.05
  A 2.25 2.25 0.0 0 0 47.81 19.30
  L 47.79 25.53
  A 0.47 0.47 0.0 0 1 47.32 25.99
  L 42.89 26.00
  A 0.45 0.45 0.0 0 1 42.44 25.57
  Q 42.22 20.60 42.58 18.08
  C 43.08 14.46 46.76 11.57 50.45 11.79
  Q 55.94 12.13 57.74 17.59
  A 3.50 3.38 36.3 0 1 57.91 18.59
  C 58.06 23.83 59.03 30.15 52.77 32.30
  Q 52.59 32.36 52.59 32.63
  Z"
/>
<path fill="#ffffff" d="
  M 13.70 41.30
  Q 13.92 41.30 13.93 41.02
  Q 14.61 26.91 16.76 12.31
  A 0.31 0.31 0.0 0 1 17.07 12.05
  L 21.72 12.05
  A 0.30 0.30 0.0 0 1 22.02 12.39
  L 16.71 52.52
  A 0.79 0.78 88.1 0 1 16.08 53.20
  Q 16.06 53.20 13.70 53.20
  Q 11.34 53.20 11.32 53.20
  A 0.79 0.78 -88.1 0 1 10.69 52.52
  L 5.38 12.39
  A 0.30 0.30 0.0 0 1 5.68 12.05
  L 10.33 12.05
  A 0.31 0.31 0.0 0 1 10.64 12.31
  Q 12.79 26.91 13.47 41.02
  Q 13.48 41.30 13.70 41.30
  Z"
/>
<path fill="#000000" d="
  M 29.95 39.22
  A 0.23 0.22 -87.2 0 1 29.74 39.41
  L 29.73 39.41
  A 0.15 0.15 0.0 0 1 29.59 39.26
  L 29.57 19.27
  A 2.19 2.18 83.1 0 1 31.23 17.15
  L 31.89 16.98
  A 1.04 1.04 0.0 0 1 33.18 18.14
  L 29.95 39.22
  Z"
/>
<path fill="#000000" d="
  M 34.04 24.16
  A 0.25 0.24 -87.1 0 1 34.27 23.95
  L 34.28 23.95
  A 0.16 0.16 0.0 0 1 34.43 24.11
  L 34.42 45.88
  A 2.38 2.37 83.2 0 1 32.61 48.19
  L 31.89 48.37
  A 1.13 1.13 0.0 0 1 30.49 47.10
  L 34.04 24.16
  Z"
/>
</svg>
