<svg width="26" height="26" viewBox="0 0 26 26" fill="none" xmlns="http://www.w3.org/2000/svg">
<path d="M8.94499 14.0834C8.05137 12.7429 9.00707 10.6826 10.57 10.2918C12.7367 9.75004 13.7829 11.5013 15.445 11.9167C17.6117 12.4583 20.2474 11.4297 20.5833 9.75004C21.125 7.04171 20.1571 4.33337 15.9866 4.33337C10.57 4.33337 4.83326 7.32048 3.52828 12.4584C2.45474 16.6851 4.61173 21.1249 7.86166 21.6667C10.8333 22.1621 12.6463 21.125 12.1949 18.4167C11.8636 16.4291 10.0283 15.7084 8.94499 14.0834Z" fill="#000000"/>
<path d="M15.167 17.8749C15.167 15.7808 16.8646 14.0833 18.9587 14.0833C21.0527 14.0833 22.7503 15.7808 22.7503 17.8749C22.7503 19.969 21.0527 21.6666 18.9587 21.6666H15.167V17.8749Z" fill="#000000"/>
</svg>
