<?xml version="1.0" encoding="UTF-8" standalone="no"?>
<!DOCTYPE svg PUBLIC "-//W3C//DTD SVG 1.1//EN" "http://www.w3.org/Graphics/SVG/1.1/DTD/svg11.dtd">
<svg xmlns="http://www.w3.org/2000/svg" version="1.1" viewBox="0.00 0.00 631.00 627.00">
<g stroke-width="2.00" fill="none" stroke-linecap="butt">
<path stroke="#fde9ba" vector-effect="non-scaling-stroke" d="
  M 88.06 165.44
  Q 80.96 163.82 74.45 166.15
  Q 66.99 168.81 59.00 173.75
  Q 51.97 178.10 44.11 188.87
  Q 41.42 192.55 38.76 199.55
  Q 35.56 207.97 34.54 216.50
  Q 34.36 217.99 34.34 233.99
  Q 34.12 453.74 34.28 493.50
  C 34.32 503.00 33.95 508.98 34.28 516.57
  Q 34.60 524.05 35.06 526.18
  Q 38.85 543.48 49.05 554.56
  Q 62.08 568.70 82.51 571.34
  Q 92.92 572.69 102.92 571.73
  C 103.34 571.69 104.08 571.35 104.70 571.17
  A 0.04 0.04 0.0 0 0 104.69 571.10
  L 99.45 570.53"
/>
<path stroke="#82725a" vector-effect="non-scaling-stroke" d="
  M 99.45 570.53
  L 208.54 570.76"
/>
<path stroke="#fde9ba" vector-effect="non-scaling-stroke" d="
  M 208.54 570.76
  Q 213.15 571.93 216.89 571.99
  Q 242.86 572.39 306.96 572.84
  C 309.57 572.86 312.24 572.57 314.25 572.61
  Q 326.50 572.86 338.24 572.61
  C 343.93 572.49 350.09 572.54 355.32 572.93
  C 362.19 573.43 370.64 572.71 378.70 572.97
  Q 382.95 573.10 389.27 573.11
  Q 446.21 573.18 529.00 572.85
  Q 529.20 572.85 540.00 572.97
  Q 544.92 573.03 551.00 572.77
  Q 575.29 571.75 591.80 554.82
  Q 598.69 547.76 603.44 535.70
  C 604.19 533.80 604.18 531.39 604.90 529.59
  Q 605.66 527.69 605.94 525.04
  Q 606.61 518.70 606.61 515.75
  Q 606.49 283.28 606.65 221.14
  C 606.66 217.97 605.74 214.57 605.81 211.92
  A 3.54 3.31 -54.3 0 0 605.68 210.91
  Q 604.78 207.79 603.35 202.71
  Q 602.09 198.23 600.33 194.77
  Q 592.99 180.29 578.95 172.02
  Q 573.27 168.68 566.55 166.36
  C 563.65 165.36 560.68 165.25 558.19 164.55
  Q 555.65 163.83 551.77 163.80
  C 546.14 163.76 540.93 164.25 535.71 165.17
  A 0.01 0.00 20.3 0 0 535.72 165.18
  Q 535.77 165.17 535.81 165.17
  Q 539.11 165.03 542.29 165.43"
/>
<path stroke="#82725a" vector-effect="non-scaling-stroke" d="
  M 542.29 165.43
  L 209.60 165.26
  A 2.22 2.22 0.0 0 1 207.65 164.10
  Q 184.16 120.54 170.12 95.11
  C 166.61 88.75 160.00 75.65 155.60 68.74
  C 154.53 67.05 152.92 64.64 153.39 62.85
  Q 154.28 59.47 154.67 57.50
  C 157.25 44.49 149.57 32.14 136.23 30.14
  C 128.51 28.98 120.57 31.86 115.63 37.89
  Q 110.29 44.40 109.99 50.65
  Q 109.06 69.93 127.74 75.72
  A 1.59 1.56 -3.2 0 1 128.73 76.59
  Q 147.06 117.98 164.39 156.62
  Q 165.00 157.99 166.24 161.29
  Q 166.93 163.15 166.60 163.97
  Q 166.02 165.37 164.50 165.37
  Q 126.25 165.29 88.06 165.44"
/>
<path stroke="#837c63" stroke-opacity="0.996" vector-effect="non-scaling-stroke" d="
  M 542.29 165.43
  Q 551.44 165.25 556.77 165.89
  C 585.32 169.34 604.93 192.91 604.95 221.52
  Q 605.13 465.77 604.93 517.80
  C 604.84 542.65 587.90 563.91 563.94 569.59
  Q 557.99 571.00 538.41 571.02
  Q 373.47 571.22 208.54 570.76"
/>
<path stroke="#837c63" stroke-opacity="0.996" vector-effect="non-scaling-stroke" d="
  M 99.45 570.53
  Q 90.30 570.77 83.27 569.98
  C 63.52 567.75 47.66 555.69 40.20 537.49
  Q 35.98 527.21 35.97 514.75
  Q 35.93 472.59 36.05 232.90
  C 36.05 219.52 35.98 210.47 40.12 199.83
  C 48.01 179.54 66.16 167.04 88.06 165.44"
/>
<path stroke="#1f160f" vector-effect="non-scaling-stroke" d="
  M 166.70 165.91
  Q 165.03 166.89 162.23 166.89
  Q 122.64 166.95 98.80 166.77
  Q 83.62 166.65 78.01 168.16
  Q 66.25 171.31 57.87 177.85
  Q 48.79 184.93 43.42 195.57
  C 36.73 208.82 37.47 220.87 37.46 238.75
  Q 37.31 469.93 37.45 509.25
  Q 37.49 519.72 38.41 525.99
  Q 39.78 535.29 45.52 544.99
  C 54.53 560.22 69.11 567.45 86.46 569.06
  Q 89.22 569.31 105.07 569.25
  Q 144.03 569.11 220.92 569.34
  C 226.93 569.36 234.64 568.98 240.25 569.02
  C 329.35 569.66 436.28 569.37 549.59 569.68
  C 552.86 569.68 555.22 569.21 558.17 568.99
  C 571.37 568.00 584.00 560.72 592.11 550.84
  C 597.86 543.83 602.21 534.24 602.92 524.64
  Q 603.32 519.31 603.32 517.25
  Q 603.34 365.24 603.29 243.09
  Q 603.28 232.59 603.42 228.42
  Q 603.73 219.05 603.01 213.77
  Q 601.24 200.81 594.78 190.59
  C 585.06 175.22 567.48 166.91 549.53 166.89
  Q 508.05 166.84 211.12 166.90
  C 209.35 166.90 207.53 166.47 206.76 165.02
  C 192.64 138.68 175.00 107.18 159.71 78.30
  Q 157.12 73.41 153.74 68.01
  Q 152.68 66.32 152.22 64.38
  A 3.87 3.79 -45.7 0 1 152.22 62.57
  C 153.28 58.10 154.25 55.80 154.08 52.20
  Q 153.55 40.38 144.70 34.75
  C 133.13 27.38 117.00 32.44 112.55 45.25
  C 108.25 57.64 114.82 71.58 127.96 74.32
  A 2.86 2.85 84.1 0 1 130.00 75.98
  Q 141.90 103.24 153.55 128.90
  Q 155.48 133.15 167.38 160.16
  Q 168.52 162.74 167.38 165.16
  A 1.78 1.74 87.9 0 1 166.70 165.91"
/>
<path stroke="#1f160f" vector-effect="non-scaling-stroke" d="
  M 133.1147 38.8186
  A 13.71 13.24 -86.3 0 0 119.0176 51.6456
  A 13.71 13.24 -86.3 0 0 131.3453 66.1814
  A 13.71 13.24 -86.3 0 0 145.4424 53.3544
  A 13.71 13.24 -86.3 0 0 133.1147 38.8186"
/>
<path stroke="#1f160f" vector-effect="non-scaling-stroke" d="
  M 182.43 173.17
  A 0.67 0.67 0.0 0 1 181.81 174.12
  Q 134.44 173.64 94.74 173.98
  Q 84.28 174.07 79.49 175.49
  Q 57.29 182.09 48.94 203.16
  C 45.52 211.81 46.33 222.14 46.33 229.50
  Q 46.29 416.55 46.23 508.18
  Q 46.22 519.43 47.54 524.35
  Q 51.73 540.01 64.99 549.66
  C 76.14 557.78 88.84 558.80 102.00 558.74
  Q 141.27 558.56 161.51 558.67
  C 236.44 559.10 341.86 558.79 547.00 558.67
  Q 565.84 558.65 579.02 547.63
  C 582.90 544.39 586.44 540.06 588.81 536.09
  C 593.77 527.77 594.91 518.23 594.91 508.25
  Q 594.96 279.67 594.67 230.98
  Q 594.62 221.41 594.61 220.17
  Q 594.61 213.84 593.66 209.43
  Q 591.43 199.01 585.79 192.03
  Q 579.99 184.87 576.02 182.11
  Q 568.87 177.15 560.82 175.18
  Q 556.22 174.06 544.12 174.07
  Q 385.96 174.21 215.94 174.00
  C 212.08 173.99 207.54 173.77 203.34 174.16
  A 1.40 1.40 0.0 0 1 201.94 173.38
  Q 197.18 163.57 186.13 141.93
  Q 169.06 108.47 151.39 74.16
  Q 149.60 70.70 147.74 67.89
  A 1.65 1.63 -5.7 0 0 146.99 67.28
  Q 145.39 66.62 143.83 66.99
  Q 141.66 67.50 138.39 69.16
  Q 135.47 70.63 136.85 73.67
  Q 158.30 121.04 182.43 173.17"
/>
<path stroke="#726437" vector-effect="non-scaling-stroke" d="
  M 132.5773 40.1149
  A 12.44 11.99 -88.4 0 0 120.2447 52.2152
  A 12.44 11.99 -88.4 0 0 131.8827 64.9851
  A 12.44 11.99 -88.4 0 0 144.2153 52.8848
  A 12.44 11.99 -88.4 0 0 132.5773 40.1149"
/>
<path stroke="#d4ad65" vector-effect="non-scaling-stroke" d="
  M 131.6439 41.0556
  A 11.39 10.75 -93.0 0 0 121.5047 52.9926
  A 11.39 10.75 -93.0 0 0 132.8361 63.8044
  A 11.39 10.75 -93.0 0 0 142.9753 51.8674
  A 11.39 10.75 -93.0 0 0 131.6439 41.0556"
/>
<path stroke="#837c63" stroke-opacity="0.996" vector-effect="non-scaling-stroke" d="
  M 140.96 69.36
  L 138.95 70.10
  A 1.94 1.94 0.0 0 0 137.85 72.72
  Q 154.19 108.77 182.82 170.94
  Q 183.96 173.41 184.94 174.68
  A 0.38 0.38 0.0 0 1 184.64 175.30
  Q 157.94 175.21 99.59 175.19
  Q 85.24 175.18 79.54 176.72
  C 59.97 182.00 47.38 199.28 47.37 219.60
  Q 47.33 389.12 47.42 512.75
  Q 47.43 525.31 54.17 536.43
  C 62.39 550.01 77.69 557.03 93.25 557.12
  Q 112.00 557.22 531.75 557.57
  Q 544.44 557.58 552.56 557.08
  C 571.23 555.94 587.07 542.83 591.92 525.06
  Q 593.40 519.62 593.40 503.37
  Q 593.38 224.72 593.35 221.61
  C 593.26 212.55 591.64 203.99 587.11 196.17
  C 579.27 182.62 565.57 175.39 549.74 175.33
  Q 539.68 175.29 202.15 175.29
  A 0.84 0.83 76.9 0 1 201.40 174.82
  Q 174.75 122.50 148.03 70.72
  Q 146.73 68.18 145.25 67.98"
/>
<path stroke="#7a6144" vector-effect="non-scaling-stroke" d="
  M 145.25 67.98
  Q 143.08 68.09 140.96 69.36"
/>
<path stroke="#f4d8a5" vector-effect="non-scaling-stroke" d="
  M 145.25 67.98
  L 199.91 175.02
  A 2.84 2.83 -8.0 0 0 201.91 176.52
  Q 204.51 177.01 207.25 177.00
  Q 234.73 176.83 461.44 176.88
  Q 539.48 176.90 547.63 176.86
  Q 557.08 176.81 562.26 178.23
  Q 577.56 182.43 586.42 197.61
  C 589.41 202.72 590.47 207.70 591.63 213.74
  Q 592.23 216.90 592.23 221.81
  Q 592.25 351.99 592.20 513.49
  Q 592.19 525.67 585.07 537.14
  C 584.05 538.78 582.77 539.88 581.74 541.54
  Q 581.03 542.68 578.91 544.56
  Q 566.15 555.89 548.75 555.90
  Q 230.98 556.08 184.25 555.97
  Q 124.44 555.82 116.25 555.85
  Q 101.39 555.89 95.50 555.77
  Q 88.52 555.62 85.82 555.20
  Q 60.44 551.22 51.51 528.05
  C 49.89 523.84 48.82 517.45 48.82 513.26
  Q 48.76 351.10 48.83 240.50
  Q 48.84 231.68 48.73 224.68
  Q 48.55 213.61 49.74 208.95
  Q 53.04 196.10 62.17 187.44
  Q 67.20 182.67 74.16 179.89
  Q 81.72 176.87 88.00 176.88
  Q 159.85 176.95 184.01 176.92
  A 1.54 1.33 30.8 0 0 184.52 176.83
  Q 186.58 176.02 185.55 173.76
  Q 166.23 131.82 144.69 84.75
  Q 141.96 78.77 139.21 72.53
  A 1.02 1.00 50.6 0 1 139.30 71.53
  Q 139.82 70.79 141.29 70.39
  A 0.48 0.47 -18.1 0 0 141.62 69.76
  Q 141.47 69.40 140.96 69.36"
/>
<path stroke="#f4d8a5" vector-effect="non-scaling-stroke" d="
  M 583.80 218.66
  A 33.62 33.62 0.0 0 0 550.18 185.04
  L 90.76 185.04
  A 33.62 33.62 0.0 0 0 57.14 218.66
  L 57.14 513.24
  A 33.62 33.62 0.0 0 0 90.76 546.86
  L 550.18 546.86
  A 33.62 33.62 0.0 0 0 583.80 513.24
  L 583.80 218.66"
/>
<path stroke="#837c63" stroke-opacity="0.996" vector-effect="non-scaling-stroke" d="
  M 582.68 218.42
  A 31.77 31.77 0.0 0 0 550.91 186.65
  L 90.59 186.65
  A 31.77 31.77 0.0 0 0 58.82 218.42
  L 58.82 513.94
  A 31.77 31.77 0.0 0 0 90.59 545.71
  L 550.91 545.71
  A 31.77 31.77 0.0 0 0 582.68 513.94
  L 582.68 218.42"
/>
<path stroke="#1f160f" vector-effect="non-scaling-stroke" d="
  M 581.06 514.62
  C 581.47 504.24 581.27 493.38 581.29 486.13
  Q 581.48 402.13 581.17 340.48
  Q 581.03 310.98 581.33 228.51
  Q 581.35 222.32 581.13 217.91
  C 580.27 200.35 568.06 187.93 550.25 187.93
  Q 394.59 187.93 94.25 187.94
  Q 85.38 187.94 82.32 188.79
  Q 76.67 190.37 71.65 194.19
  C 61.54 201.87 60.44 211.21 60.44 223.25
  Q 60.49 468.29 60.37 509.25
  C 60.35 516.94 61.19 525.17 65.63 531.14
  C 67.92 534.21 73.03 539.18 77.05 541.02
  Q 83.58 544.03 90.40 544.12
  Q 97.92 544.22 149.50 544.31
  Q 238.05 544.48 462.02 544.30
  C 488.74 544.28 514.31 544.38 545.20 544.33
  Q 555.70 544.32 560.52 542.63
  C 572.51 538.45 580.56 527.20 581.06 514.62"
/>
<path stroke="#614830" vector-effect="non-scaling-stroke" d="
  M 449.03 412.40
  Q 448.87 412.49 448.79 412.59
  A 0.14 0.13 -64.2 0 0 448.86 412.81
  Q 449.19 412.86 449.53 412.79"
/>
<path stroke="#1f160f" vector-effect="non-scaling-stroke" d="
  M 449.53 412.79
  Q 445.90 413.77 442.29 414.84
  Q 431.08 418.17 423.31 425.48
  Q 415.18 433.13 411.13 443.58
  C 404.87 459.71 408.49 476.22 419.04 489.65
  Q 423.88 495.81 430.93 500.28
  Q 439.22 505.54 449.00 506.52
  Q 469.96 508.64 484.94 495.25
  Q 499.45 482.27 500.81 463.73
  Q 502.70 437.95 481.96 422.06
  Q 474.82 416.58 466.94 414.65
  Q 463.53 413.82 462.10 412.83
  A 1.34 1.34 0.0 0 0 461.35 412.60
  L 455.27 412.57
  A 0.19 0.19 0.0 0 1 455.08 412.40
  A 0.25 0.25 0.0 0 1 455.32 412.14
  C 459.12 412.07 463.19 412.33 466.58 412.00
  Q 505.15 408.15 531.06 381.82
  Q 552.76 359.75 558.94 327.54
  Q 560.10 321.50 560.22 313.44
  Q 560.37 304.00 559.93 299.26
  Q 557.11 269.07 538.10 245.36
  Q 530.12 235.39 521.02 228.24
  Q 487.46 201.83 443.72 205.99
  C 440.48 206.30 435.49 207.43 432.64 207.93
  C 427.07 208.91 419.53 211.71 415.48 213.44
  C 386.10 225.97 362.22 251.50 354.90 282.84
  Q 351.88 295.74 351.58 305.25
  C 350.97 324.12 355.48 344.13 365.12 360.39
  Q 382.36 389.49 413.03 403.46
  Q 428.50 410.51 449.03 412.40"
/>
<path stroke="#4b3723" vector-effect="non-scaling-stroke" d="
  M 449.53 412.79
  L 454.04 412.57
  A 0.18 0.17 86.7 0 0 454.20 412.38
  L 454.20 412.37
  A 0.18 0.18 0.0 0 0 454.02 412.19
  L 449.03 412.40"
/>
<path stroke="#403021" vector-effect="non-scaling-stroke" d="
  M 111.17 503.28
  Q 114.41 504.78 118.00 504.81
  Q 118.82 504.82 135.75 504.78
  Q 190.68 504.64 321.45 504.92
  Q 327.12 504.93 329.25 504.28
  C 336.08 502.19 341.27 496.47 343.33 489.70
  Q 344.70 485.16 344.27 476.62
  C 344.01 471.34 343.89 464.10 344.05 458.80
  Q 344.22 452.99 344.06 433.25
  Q 343.99 425.37 344.42 352.00
  C 344.44 347.56 343.99 342.62 344.02 338.66
  Q 344.21 310.18 344.18 286.00
  Q 344.13 251.50 344.12 250.78
  C 344.00 240.79 339.13 232.08 329.03 229.81
  A 4.90 4.70 50.0 0 0 327.84 229.68
  Q 185.86 230.21 146.12 229.80
  Q 123.45 229.57 120.50 229.63
  C 113.81 229.78 109.35 230.76 105.16 235.40
  Q 100.35 240.73 100.35 248.25
  Q 100.32 405.57 100.27 480.35
  Q 100.27 488.13 100.67 490.05
  Q 102.60 499.33 111.17 503.28"
/>
<path stroke="#837c63" stroke-opacity="0.996" vector-effect="non-scaling-stroke" d="
  M 377.75 375.96
  Q 401.06 402.37 436.01 408.90
  C 469.80 415.22 504.18 406.39 528.79 382.14
  Q 555.32 355.99 558.47 318.03
  C 561.25 284.48 548.25 252.96 522.56 231.17
  Q 508.36 219.12 490.23 212.49
  Q 477.56 207.86 463.27 206.95
  C 428.86 204.75 396.88 218.58 375.07 245.07
  Q 359.96 263.44 355.28 287.01
  C 348.96 318.81 356.27 351.64 377.75 375.96"
/>
<path stroke="#837c63" stroke-opacity="0.996" vector-effect="non-scaling-stroke" d="
  M 456.3736 414.4835
  A 45.42 45.19 -87.8 0 0 409.4733 458.1353
  A 45.42 45.19 -87.8 0 0 452.8864 505.2565
  A 45.42 45.19 -87.8 0 0 499.7867 461.6047
  A 45.42 45.19 -87.8 0 0 456.3736 414.4835"
/>
<path stroke="#f4d8a5" vector-effect="non-scaling-stroke" d="
  M 378.63 375.09
  Q 401.66 401.18 436.18 407.63
  C 469.56 413.88 503.52 405.15 527.84 381.20
  Q 554.04 355.37 557.16 317.87
  C 559.90 284.73 547.06 253.59 521.68 232.07
  Q 507.66 220.16 489.75 213.61
  Q 477.23 209.04 463.11 208.14
  C 429.12 205.97 397.53 219.63 375.99 245.79
  Q 361.06 263.94 356.44 287.22
  C 350.19 318.64 357.41 351.07 378.63 375.09"
/>
<path stroke="#f4d8a5" vector-effect="non-scaling-stroke" d="
  M 449.52 401.88
  C 479.42 403.94 508.48 392.21 527.98 369.64
  Q 546.01 348.77 549.35 320.37
  Q 552.22 295.97 543.24 273.83
  C 531.96 246.03 507.54 225.85 478.40 218.27
  Q 471.26 216.42 462.33 215.80
  Q 453.40 215.19 446.08 216.05
  C 416.18 219.56 389.22 236.20 374.24 262.19
  Q 362.31 282.89 361.81 307.46
  Q 361.22 336.05 376.22 359.19
  C 392.44 384.22 419.62 399.82 449.52 401.88"
/>
<path stroke="#837c63" stroke-opacity="0.996" vector-effect="non-scaling-stroke" d="
  M 364.1874 293.0414
  A 93.17 92.10 -170.1 0 0 440.1353 399.7886
  A 93.17 92.10 -170.1 0 0 547.7526 325.0786
  A 93.17 92.10 -170.1 0 0 471.8047 218.3314
  A 93.17 92.10 -170.1 0 0 364.1874 293.0414"
/>
<path stroke="#1f160f" vector-effect="non-scaling-stroke" d="
  M 516.51 377.87
  Q 522.67 372.58 525.02 369.61
  C 528.64 365.05 531.10 362.28 533.04 359.24
  Q 543.54 342.73 546.40 323.96
  Q 547.06 319.61 547.22 312.00
  Q 547.43 302.11 547.16 299.99
  Q 542.55 263.91 516.94 241.30
  Q 502.19 228.29 481.79 222.11
  C 442.32 210.16 397.09 227.11 376.51 263.24
  C 366.66 280.52 363.37 299.81 365.17 319.25
  Q 367.67 346.17 385.17 367.12
  Q 394.29 378.03 407.45 386.05
  Q 424.61 396.51 443.93 398.80
  C 448.42 399.34 452.49 398.99 456.70 399.11
  Q 462.43 399.28 466.26 398.95
  Q 494.80 396.52 516.51 377.87"
/>
<path stroke="#1f160f" vector-effect="non-scaling-stroke" d="
  M 527.5529 277.9020
  A 78.04 77.90 -23.1 0 0 425.2069 236.8659
  A 78.04 77.90 -23.1 0 0 383.9871 339.1380
  A 78.04 77.90 -23.1 0 0 486.3331 380.1741
  A 78.04 77.90 -23.1 0 0 527.5529 277.9020"
/>
<path stroke="#291e15" vector-effect="non-scaling-stroke" d="
  M 322.68 254.73
  A 6.29 6.29 0.0 0 0 316.39 248.44
  L 130.91 248.44
  A 6.29 6.29 0.0 0 0 124.62 254.73
  L 124.62 255.05
  A 6.29 6.29 0.0 0 0 130.91 261.34
  L 316.39 261.34
  A 6.29 6.29 0.0 0 0 322.68 255.05
  L 322.68 254.73"
/>
<path stroke="#291e15" vector-effect="non-scaling-stroke" d="
  M 322.60 292.28
  A 6.29 6.29 0.0 0 0 316.31 285.99
  L 131.03 285.99
  A 6.29 6.29 0.0 0 0 124.74 292.28
  L 124.74 292.38
  A 6.29 6.29 0.0 0 0 131.03 298.67
  L 316.31 298.67
  A 6.29 6.29 0.0 0 0 322.60 292.38
  L 322.60 292.28"
/>
<path stroke="#291e15" vector-effect="non-scaling-stroke" d="
  M 322.65 330.49
  A 6.28 6.28 0.0 0 0 316.37 324.21
  L 131.07 324.21
  A 6.28 6.28 0.0 0 0 124.79 330.49
  L 124.79 330.83
  A 6.28 6.28 0.0 0 0 131.07 337.11
  L 316.37 337.11
  A 6.28 6.28 0.0 0 0 322.65 330.83
  L 322.65 330.49"
/>
<path stroke="#291e15" vector-effect="non-scaling-stroke" d="
  M 322.55 367.50
  A 6.33 6.33 0.0 0 0 316.22 361.17
  L 130.98 361.17
  A 6.33 6.33 0.0 0 0 124.65 367.50
  L 124.65 367.60
  A 6.33 6.33 0.0 0 0 130.98 373.93
  L 316.22 373.93
  A 6.33 6.33 0.0 0 0 322.55 367.60
  L 322.55 367.50"
/>
<path stroke="#291e15" vector-effect="non-scaling-stroke" d="
  M 322.51 404.90
  A 6.13 6.13 0.0 0 0 316.38 398.77
  L 130.88 398.77
  A 6.13 6.13 0.0 0 0 124.75 404.90
  L 124.75 405.22
  A 6.13 6.13 0.0 0 0 130.88 411.35
  L 316.38 411.35
  A 6.13 6.13 0.0 0 0 322.51 405.22
  L 322.51 404.90"
/>
<path stroke="#291e15" vector-effect="non-scaling-stroke" d="
  M 322.65 442.59
  A 6.24 6.24 0.0 0 0 316.41 436.35
  L 130.91 436.35
  A 6.24 6.24 0.0 0 0 124.67 442.59
  L 124.67 442.69
  A 6.24 6.24 0.0 0 0 130.91 448.93
  L 316.41 448.93
  A 6.24 6.24 0.0 0 0 322.65 442.69
  L 322.65 442.59"
/>
<path stroke="#291e15" vector-effect="non-scaling-stroke" d="
  M 322.57 478.90
  A 6.06 6.06 0.0 0 0 316.51 472.84
  L 130.79 472.84
  A 6.06 6.06 0.0 0 0 124.73 478.90
  L 124.73 479.50
  A 6.06 6.06 0.0 0 0 130.79 485.56
  L 316.51 485.56
  A 6.06 6.06 0.0 0 0 322.57 479.50
  L 322.57 478.90"
/>
<path stroke="#4b3723" vector-effect="non-scaling-stroke" d="
  M 450.63 232.24
  Q 449.65 232.49 449.05 232.29"
/>
<path stroke="#6a4d31" vector-effect="non-scaling-stroke" d="
  M 449.05 232.29
  Q 418.51 235.87 398.97 257.21
  C 386.68 270.65 379.89 286.94 379.18 304.97
  Q 377.79 339.86 402.21 363.24
  Q 422.13 382.32 448.82 384.68
  C 476.52 387.12 501.31 375.43 517.59 353.57
  Q 532.31 333.81 532.41 308.49
  C 532.53 279.99 517.02 254.77 492.23 241.00
  Q 480.63 234.55 467.53 232.53
  Q 464.56 232.08 464.64 233.22"
/>
<path stroke="#4b3723" vector-effect="non-scaling-stroke" d="
  M 464.64 233.22
  L 464.76 243.32"
/>
<path stroke="#6a4d31" vector-effect="non-scaling-stroke" d="
  M 464.76 243.32
  Q 464.28 244.16 465.12 244.32
  Q 496.90 250.26 512.39 277.38
  C 521.65 293.59 522.65 313.24 516.22 330.67
  C 508.42 351.79 489.57 367.45 467.54 371.46
  C 423.86 379.42 385.36 342.96 391.87 298.93
  Q 394.91 278.37 409.42 263.68
  Q 425.54 247.37 449.45 244.48"
/>
<path stroke="#4b3723" vector-effect="non-scaling-stroke" d="
  M 449.45 244.48
  C 449.37 242.26 448.99 238.20 449.53 236.78
  A 0.20 0.20 0.0 0 1 449.91 236.83
  L 450.69 243.56"
/>
<path stroke="#82725a" vector-effect="non-scaling-stroke" d="
  M 450.69 243.56
  Q 450.70 265.76 450.81 287.99
  Q 450.83 293.03 455.21 293.93
  Q 460.64 295.05 462.69 291.51
  Q 463.67 289.83 463.68 283.27
  Q 463.71 255.10 463.66 233.79
  Q 463.66 233.30 463.71 233.26
  Q 463.98 233.05 464.00 232.92
  A 0.61 0.57 -87.7 0 0 463.44 232.26
  L 450.63 232.24"
/>
<path stroke="#c5a47b" vector-effect="non-scaling-stroke" d="
  M 450.69 243.56
  L 450.63 232.24"
/>
<path stroke="#ad7f52" vector-effect="non-scaling-stroke" d="
  M 449.45 244.48
  Q 449.15 243.09 448.90 243.18
  Q 448.13 243.45 447.84 243.79
  A 1.00 0.97 -66.0 0 1 447.00 244.13
  Q 444.95 243.95 441.93 244.66
  Q 426.61 248.24 414.13 258.17
  Q 412.24 259.68 411.01 261.00
  C 408.56 263.62 406.06 265.85 403.76 268.72
  Q 389.74 286.29 390.00 309.73
  Q 390.06 315.01 390.20 316.00
  C 393.78 340.61 409.14 360.13 431.96 369.21
  Q 442.87 373.55 455.31 373.69
  Q 467.11 373.83 478.68 369.39
  Q 488.22 365.73 494.77 360.51
  Q 503.61 353.47 507.90 347.64
  Q 513.93 339.44 517.11 331.16
  Q 523.71 313.98 520.35 295.79
  C 517.32 279.40 506.53 264.15 493.28 254.70
  Q 480.98 245.94 464.76 243.32"
/>
<path stroke="#ad7f52" vector-effect="non-scaling-stroke" d="
  M 449.05 232.29
  Q 447.16 233.54 443.76 234.07
  C 419.80 237.81 399.71 252.48 388.31 273.55
  C 384.66 280.30 381.28 291.27 380.70 300.82
  Q 380.26 307.94 380.26 308.02
  Q 380.35 335.14 394.92 353.82
  C 415.57 380.31 448.87 390.48 480.62 379.97
  C 495.08 375.18 508.76 364.45 517.47 352.19
  Q 529.63 335.07 531.08 313.78
  Q 533.05 284.63 515.77 262.35
  Q 501.40 243.80 480.02 236.48
  Q 474.05 234.44 464.64 233.22"
/>
<path stroke="#291e15" vector-effect="non-scaling-stroke" d="
  M 448.37 245.49
  C 442.16 246.93 436.66 248.00 431.54 250.18
  Q 420.16 255.02 412.52 262.04
  C 395.05 278.08 388.53 303.04 394.76 325.65
  C 401.34 349.53 420.64 366.01 445.18 370.45
  C 449.05 371.15 452.77 370.84 456.50 370.97
  Q 461.24 371.13 464.96 370.59
  C 491.63 366.71 513.03 347.07 517.93 320.17
  C 522.79 293.49 511.34 267.83 488.24 253.86
  C 481.72 249.91 473.38 247.17 465.82 245.54
  A 0.69 0.68 -83.9 0 0 464.99 246.21
  Q 464.89 287.81 464.83 288.79
  C 464.57 293.00 460.87 296.25 456.40 295.53
  Q 449.23 294.36 449.26 286.22
  Q 449.38 262.30 449.35 246.27
  A 0.80 0.80 0.0 0 0 448.37 245.49"
/>
<path stroke="#ecd28e" vector-effect="non-scaling-stroke" d="
  M 461.53 233.24
  L 452.61 233.24
  A 0.82 0.82 0.0 0 0 451.79 234.06
  L 451.79 287.63
  A 5.37 4.78 90.0 0 0 456.57 293.00
  L 457.57 293.00
  A 5.37 4.78 -90.0 0 0 462.35 287.63
  L 462.35 234.06
  A 0.82 0.82 0.0 0 0 461.53 233.24"
/>
<path stroke="#726437" vector-effect="non-scaling-stroke" d="
  M 321.47 254.53
  A 4.42 4.42 0.0 0 0 317.05 250.11
  L 130.33 250.11
  A 4.42 4.42 0.0 0 0 125.91 254.53
  L 125.91 255.63
  A 4.42 4.42 0.0 0 0 130.33 260.05
  L 317.05 260.05
  A 4.42 4.42 0.0 0 0 321.47 255.63
  L 321.47 254.53"
/>
<path stroke="#bd9d5c" vector-effect="non-scaling-stroke" d="
  M 320.59 254.68
  A 3.92 3.92 0.0 0 0 316.67 250.76
  L 130.55 250.76
  A 3.92 3.92 0.0 0 0 126.63 254.68
  L 126.63 255.14
  A 3.92 3.92 0.0 0 0 130.55 259.06
  L 316.67 259.06
  A 3.92 3.92 0.0 0 0 320.59 255.14
  L 320.59 254.68"
/>
<path stroke="#6a4d31" vector-effect="non-scaling-stroke" d="
  M 321.64 292.06
  A 4.92 4.92 0.0 0 0 316.72 287.14
  L 130.58 287.14
  A 4.92 4.92 0.0 0 0 125.66 292.06
  L 125.66 292.38
  A 4.92 4.92 0.0 0 0 130.58 297.30
  L 316.72 297.30
  A 4.92 4.92 0.0 0 0 321.64 292.38
  L 321.64 292.06"
/>
<path stroke="#ad7f52" vector-effect="non-scaling-stroke" d="
  M 284.81 289.06
  L 271.93 289.09"
/>
<path stroke="#b58556" vector-effect="non-scaling-stroke" d="
  M 271.93 289.09
  L 269.83 289.07"
/>
<path stroke="#ad7f52" vector-effect="non-scaling-stroke" d="
  M 269.83 289.07
  L 254.94 289.08"
/>
<path stroke="#b58556" vector-effect="non-scaling-stroke" d="
  M 254.94 289.08
  Q 254.74 289.19 254.58 289.08"
/>
<path stroke="#ad7f52" vector-effect="non-scaling-stroke" d="
  M 254.58 289.08
  L 247.90 289.08"
/>
<path stroke="#b58556" vector-effect="non-scaling-stroke" d="
  M 247.90 289.08
  L 245.60 289.07"
/>
<path stroke="#ad7f52" vector-effect="non-scaling-stroke" d="
  M 245.60 289.07
  L 239.93 289.04"
/>
<path stroke="#b58556" vector-effect="non-scaling-stroke" d="
  M 239.93 289.04
  L 236.57 289.06"
/>
<path stroke="#ad7f52" vector-effect="non-scaling-stroke" d="
  M 236.57 289.06
  L 206.96 289.04"
/>
<path stroke="#b58556" vector-effect="non-scaling-stroke" d="
  M 206.96 289.04
  Q 206.78 289.19 206.55 289.03"
/>
<path stroke="#ad7f52" vector-effect="non-scaling-stroke" d="
  M 206.55 289.03
  L 151.46 288.98"
/>
<path stroke="#b58556" vector-effect="non-scaling-stroke" d="
  M 151.46 288.98
  L 130.08 288.73
  A 3.32 3.29 -2.5 0 0 126.74 292.34
  L 126.75 292.59
  A 3.86 3.86 0.0 0 0 130.60 296.22
  L 316.31 296.22
  A 3.88 3.88 0.0 0 0 320.18 292.58
  L 320.20 292.27
  A 3.31 3.28 2.4 0 0 316.87 288.68
  L 284.81 289.06"
/>
<path stroke="#966f48" vector-effect="non-scaling-stroke" d="
  M 151.46 288.98
  L 206.55 289.03"
/>
<path stroke="#966f48" vector-effect="non-scaling-stroke" d="
  M 206.96 289.04
  L 236.57 289.06"
/>
<path stroke="#966f48" vector-effect="non-scaling-stroke" d="
  M 239.93 289.04
  Q 242.73 289.56 245.60 289.07"
/>
<path stroke="#966f48" vector-effect="non-scaling-stroke" d="
  M 247.90 289.08
  L 254.58 289.08"
/>
<path stroke="#966f48" vector-effect="non-scaling-stroke" d="
  M 254.94 289.08
  L 269.83 289.07"
/>
<path stroke="#966f48" vector-effect="non-scaling-stroke" d="
  M 271.93 289.09
  L 284.81 289.06"
/>
<path stroke="#6a4d31" vector-effect="non-scaling-stroke" d="
  M 321.53 330.17
  A 4.81 4.81 0.0 0 0 316.72 325.36
  L 130.46 325.36
  A 4.81 4.81 0.0 0 0 125.65 330.17
  L 125.65 330.83
  A 4.81 4.81 0.0 0 0 130.46 335.64
  L 316.72 335.64
  A 4.81 4.81 0.0 0 0 321.53 330.83
  L 321.53 330.17"
/>
<path stroke="#b58556" vector-effect="non-scaling-stroke" d="
  M 320.27 330.18
  A 3.40 3.40 0.0 0 0 316.87 326.78
  L 130.27 326.78
  A 3.40 3.40 0.0 0 0 126.87 330.18
  L 126.87 330.82
  A 3.40 3.40 0.0 0 0 130.27 334.22
  L 316.87 334.22
  A 3.40 3.40 0.0 0 0 320.27 330.82
  L 320.27 330.18"
/>
<path stroke="#6a4d31" vector-effect="non-scaling-stroke" d="
  M 321.50 367.44
  A 4.83 4.83 0.0 0 0 316.67 362.61
  L 130.45 362.61
  A 4.83 4.83 0.0 0 0 125.62 367.44
  L 125.62 368.02
  A 4.83 4.83 0.0 0 0 130.45 372.85
  L 316.67 372.85
  A 4.83 4.83 0.0 0 0 321.50 368.02
  L 321.50 367.44"
/>
<path stroke="#b58556" vector-effect="non-scaling-stroke" d="
  M 320.36 367.14
  A 3.23 3.23 0.0 0 0 317.13 363.91
  L 130.03 363.91
  A 3.23 3.23 0.0 0 0 126.80 367.14
  L 126.80 368.06
  A 3.23 3.23 0.0 0 0 130.03 371.29
  L 317.13 371.29
  A 3.23 3.23 0.0 0 0 320.36 368.06
  L 320.36 367.14"
/>
<path stroke="#726437" vector-effect="non-scaling-stroke" d="
  M 321.52 404.83
  A 4.83 4.83 0.0 0 0 316.69 400.00
  L 130.41 400.00
  A 4.83 4.83 0.0 0 0 125.58 404.83
  L 125.58 405.31
  A 4.83 4.83 0.0 0 0 130.41 410.14
  L 316.69 410.14
  A 4.83 4.83 0.0 0 0 321.52 405.31
  L 321.52 404.83"
/>
<path stroke="#bd9d5c" vector-effect="non-scaling-stroke" d="
  M 320.45 404.77
  A 3.70 3.70 0.0 0 0 316.75 401.07
  L 130.01 401.07
  A 3.70 3.70 0.0 0 0 126.31 404.77
  L 126.31 405.31
  A 3.70 3.70 0.0 0 0 130.01 409.01
  L 316.75 409.01
  A 3.70 3.70 0.0 0 0 320.45 405.31
  L 320.45 404.77"
/>
<path stroke="#f4d8a5" vector-effect="non-scaling-stroke" d="
  M 454.8984 415.6811
  A 44.17 43.92 -89.6 0 0 410.6711 459.5434
  A 44.17 43.92 -89.6 0 0 454.2816 504.0189
  A 44.17 43.92 -89.6 0 0 498.5089 460.1566
  A 44.17 43.92 -89.6 0 0 454.8984 415.6811"
/>
<path stroke="#f4ce9c" vector-effect="non-scaling-stroke" d="
  M 449.85 424.35
  A 1.44 1.44 0.0 0 0 448.13 422.94
  Q 431.76 426.22 423.05 439.80
  C 417.42 448.58 416.17 460.07 418.71 469.95
  Q 421.71 481.66 431.23 489.31
  C 439.84 496.23 452.31 499.76 463.30 496.61
  C 482.06 491.22 494.76 473.46 491.47 453.92
  C 488.95 438.98 476.85 425.33 461.56 423.25
  A 2.15 2.15 0.0 0 0 459.12 425.38
  L 459.12 447.87
  A 3.76 3.76 0.0 0 1 455.36 451.63
  L 453.88 451.63
  A 4.03 4.03 0.0 0 1 449.85 447.60
  L 449.85 424.35"
/>
<path stroke="#82725a" vector-effect="non-scaling-stroke" d="
  M 454.73 496.33
  C 478.43 496.27 494.09 474.87 489.79 452.43
  C 487.04 438.06 475.88 427.24 461.32 424.17
  A 0.41 0.41 0.0 0 0 460.82 424.58
  Q 460.95 438.15 460.96 442.08
  C 460.98 447.70 461.36 453.04 454.62 453.06
  C 447.87 453.07 448.23 447.74 448.22 442.11
  Q 448.21 438.18 448.27 424.61
  A 0.41 0.41 0.0 0 0 447.77 424.21
  C 433.22 427.35 422.12 438.23 419.44 452.61
  C 415.26 475.07 431.03 496.39 454.73 496.33"
/>
<path stroke="#291e15" vector-effect="non-scaling-stroke" d="
  M 446.14 425.90
  Q 436.63 428.47 429.98 435.12
  C 415.69 449.41 417.07 474.86 432.86 487.46
  C 443.02 495.57 457.93 497.49 469.47 491.80
  Q 477.90 487.64 482.96 480.32
  C 496.72 460.42 487.24 432.18 463.32 426.10
  A 1.22 1.22 0.0 0 0 461.80 427.26
  Q 461.50 441.46 461.81 446.48
  Q 461.99 449.48 461.07 450.96
  C 458.50 455.09 453.25 455.31 449.61 452.65
  Q 447.52 451.14 447.41 448.91
  Q 446.98 440.51 447.31 426.82
  A 0.93 0.93 0.0 0 0 446.14 425.90"
/>
<path stroke="#6a4d31" vector-effect="non-scaling-stroke" d="
  M 321.60 442.11
  A 4.56 4.56 0.0 0 0 317.04 437.55
  L 130.18 437.55
  A 4.56 4.56 0.0 0 0 125.62 442.11
  L 125.62 442.83
  A 4.56 4.56 0.0 0 0 130.18 447.39
  L 317.04 447.39
  A 4.56 4.56 0.0 0 0 321.60 442.83
  L 321.60 442.11"
/>
<path stroke="#b58556" vector-effect="non-scaling-stroke" d="
  M 320.46 442.41
  A 3.64 3.64 0.0 0 0 316.82 438.77
  L 130.34 438.77
  A 3.64 3.64 0.0 0 0 126.70 442.41
  L 126.70 442.67
  A 3.64 3.64 0.0 0 0 130.34 446.31
  L 316.82 446.31
  A 3.64 3.64 0.0 0 0 320.46 442.67
  L 320.46 442.41"
/>
<path stroke="#726437" vector-effect="non-scaling-stroke" d="
  M 321.61 478.75
  A 4.70 4.70 0.0 0 0 316.91 474.05
  L 130.55 474.05
  A 4.70 4.70 0.0 0 0 125.85 478.75
  L 125.85 479.57
  A 4.70 4.70 0.0 0 0 130.55 484.27
  L 316.91 484.27
  A 4.70 4.70 0.0 0 0 321.61 479.57
  L 321.61 478.75"
/>
<path stroke="#bd9d5c" vector-effect="non-scaling-stroke" d="
  M 320.36 478.65
  A 3.56 3.56 0.0 0 0 316.80 475.09
  L 130.26 475.09
  A 3.56 3.56 0.0 0 0 126.70 478.65
  L 126.70 479.65
  A 3.56 3.56 0.0 0 0 130.26 483.21
  L 316.80 483.21
  A 3.56 3.56 0.0 0 0 320.36 479.65
  L 320.36 478.65"
/>
</g>
<path fill="#fcdfb1" d="
  M 154.95 155.56
  L 122.63 81.42
  A 2.82 2.82 0.0 0 0 121.20 79.99
  C 114.44 77.00 108.88 71.57 106.02 64.52
  Q 100.25 50.32 107.73 37.59
  C 112.46 29.54 119.76 24.78 128.52 23.06
  Q 129.40 22.89 133.84 22.98
  Q 136.47 23.03 139.04 23.67
  Q 153.85 27.38 159.46 41.77
  Q 162.08 48.48 161.37 54.72
  Q 160.79 59.84 160.92 62.62
  A 4.44 4.36 29.5 0 0 161.47 64.54
  L 212.94 155.42
  A 1.58 1.56 75.4 0 0 214.31 156.23
  Q 420.20 156.24 549.48 156.19
  Q 552.68 156.19 554.99 156.54
  C 557.83 156.98 560.05 156.82 562.33 157.35
  Q 573.00 159.80 579.50 163.29
  Q 605.95 177.48 612.74 207.08
  C 614.62 215.27 614.31 225.86 614.31 234.50
  Q 614.33 269.78 614.28 515.75
  Q 614.28 525.10 612.96 531.36
  Q 611.41 538.76 607.79 546.08
  Q 595.28 571.40 566.78 578.70
  Q 559.99 580.45 550.75 580.44
  Q 299.46 580.38 85.37 579.84
  Q 83.45 579.84 76.34 578.55
  Q 70.89 577.56 67.49 576.30
  Q 53.51 571.09 44.20 561.32
  C 32.82 549.40 27.82 534.85 27.03 518.47
  Q 27.00 517.82 27.00 506.52
  Q 26.95 270.64 26.91 227.75
  C 26.90 220.99 26.73 215.38 27.65 209.79
  Q 30.56 192.18 42.04 178.56
  C 51.90 166.85 65.42 159.85 80.26 157.11
  Q 85.68 156.11 101.29 156.16
  Q 144.72 156.29 154.53 156.20
  A 0.46 0.46 0.0 0 0 154.95 155.56
  Z
  M 88.06 165.44
  Q 80.96 163.82 74.45 166.15
  Q 66.99 168.81 59.00 173.75
  Q 51.97 178.10 44.11 188.87
  Q 41.42 192.55 38.76 199.55
  Q 35.56 207.97 34.54 216.50
  Q 34.36 217.99 34.34 233.99
  Q 34.12 453.74 34.28 493.50
  C 34.32 503.00 33.95 508.98 34.28 516.57
  Q 34.60 524.05 35.06 526.18
  Q 38.85 543.48 49.05 554.56
  Q 62.08 568.70 82.51 571.34
  Q 92.92 572.69 102.92 571.73
  C 103.34 571.69 104.08 571.35 104.70 571.17
  A 0.04 0.04 0.0 0 0 104.69 571.10
  L 99.45 570.53
  L 208.54 570.76
  Q 213.15 571.93 216.89 571.99
  Q 242.86 572.39 306.96 572.84
  C 309.57 572.86 312.24 572.57 314.25 572.61
  Q 326.50 572.86 338.24 572.61
  C 343.93 572.49 350.09 572.54 355.32 572.93
  C 362.19 573.43 370.64 572.71 378.70 572.97
  Q 382.95 573.10 389.27 573.11
  Q 446.21 573.18 529.00 572.85
  Q 529.20 572.85 540.00 572.97
  Q 544.92 573.03 551.00 572.77
  Q 575.29 571.75 591.80 554.82
  Q 598.69 547.76 603.44 535.70
  C 604.19 533.80 604.18 531.39 604.90 529.59
  Q 605.66 527.69 605.94 525.04
  Q 606.61 518.70 606.61 515.75
  Q 606.49 283.28 606.65 221.14
  C 606.66 217.97 605.74 214.57 605.81 211.92
  A 3.54 3.31 -54.3 0 0 605.68 210.91
  Q 604.78 207.79 603.35 202.71
  Q 602.09 198.23 600.33 194.77
  Q 592.99 180.29 578.95 172.02
  Q 573.27 168.68 566.55 166.36
  C 563.65 165.36 560.68 165.25 558.19 164.55
  Q 555.65 163.83 551.77 163.80
  C 546.14 163.76 540.93 164.25 535.71 165.17
  A 0.01 0.00 20.3 0 0 535.72 165.18
  Q 535.77 165.17 535.81 165.17
  Q 539.11 165.03 542.29 165.43
  L 209.60 165.26
  A 2.22 2.22 0.0 0 1 207.65 164.10
  Q 184.16 120.54 170.12 95.11
  C 166.61 88.75 160.00 75.65 155.60 68.74
  C 154.53 67.05 152.92 64.64 153.39 62.85
  Q 154.28 59.47 154.67 57.50
  C 157.25 44.49 149.57 32.14 136.23 30.14
  C 128.51 28.98 120.57 31.86 115.63 37.89
  Q 110.29 44.40 109.99 50.65
  Q 109.06 69.93 127.74 75.72
  A 1.59 1.56 -3.2 0 1 128.73 76.59
  Q 147.06 117.98 164.39 156.62
  Q 165.00 157.99 166.24 161.29
  Q 166.93 163.15 166.60 163.97
  Q 166.02 165.37 164.50 165.37
  Q 126.25 165.29 88.06 165.44
  Z"
/>
<path fill="#080402" fill-opacity="0.996" d="
  M 542.29 165.43
  Q 551.44 165.25 556.77 165.89
  C 585.32 169.34 604.93 192.91 604.95 221.52
  Q 605.13 465.77 604.93 517.80
  C 604.84 542.65 587.90 563.91 563.94 569.59
  Q 557.99 571.00 538.41 571.02
  Q 373.47 571.22 208.54 570.76
  L 99.45 570.53
  Q 90.30 570.77 83.27 569.98
  C 63.52 567.75 47.66 555.69 40.20 537.49
  Q 35.98 527.21 35.97 514.75
  Q 35.93 472.59 36.05 232.90
  C 36.05 219.52 35.98 210.47 40.12 199.83
  C 48.01 179.54 66.16 167.04 88.06 165.44
  Q 126.25 165.29 164.50 165.37
  Q 166.02 165.37 166.60 163.97
  Q 166.93 163.15 166.24 161.29
  Q 165.00 157.99 164.39 156.62
  Q 147.06 117.98 128.73 76.59
  A 1.59 1.56 -3.2 0 0 127.74 75.72
  Q 109.06 69.93 109.99 50.65
  Q 110.29 44.40 115.63 37.89
  C 120.57 31.86 128.51 28.98 136.23 30.14
  C 149.57 32.14 157.25 44.49 154.67 57.50
  Q 154.28 59.47 153.39 62.85
  C 152.92 64.64 154.53 67.05 155.60 68.74
  C 160.00 75.65 166.61 88.75 170.12 95.11
  Q 184.16 120.54 207.65 164.10
  A 2.22 2.22 0.0 0 0 209.60 165.26
  L 542.29 165.43
  Z
  M 166.70 165.91
  Q 165.03 166.89 162.23 166.89
  Q 122.64 166.95 98.80 166.77
  Q 83.62 166.65 78.01 168.16
  Q 66.25 171.31 57.87 177.85
  Q 48.79 184.93 43.42 195.57
  C 36.73 208.82 37.47 220.87 37.46 238.75
  Q 37.31 469.93 37.45 509.25
  Q 37.49 519.72 38.41 525.99
  Q 39.78 535.29 45.52 544.99
  C 54.53 560.22 69.11 567.45 86.46 569.06
  Q 89.22 569.31 105.07 569.25
  Q 144.03 569.11 220.92 569.34
  C 226.93 569.36 234.64 568.98 240.25 569.02
  C 329.35 569.66 436.28 569.37 549.59 569.68
  C 552.86 569.68 555.22 569.21 558.17 568.99
  C 571.37 568.00 584.00 560.72 592.11 550.84
  C 597.86 543.83 602.21 534.24 602.92 524.64
  Q 603.32 519.31 603.32 517.25
  Q 603.34 365.24 603.29 243.09
  Q 603.28 232.59 603.42 228.42
  Q 603.73 219.05 603.01 213.77
  Q 601.24 200.81 594.78 190.59
  C 585.06 175.22 567.48 166.91 549.53 166.89
  Q 508.05 166.84 211.12 166.90
  C 209.35 166.90 207.53 166.47 206.76 165.02
  C 192.64 138.68 175.00 107.18 159.71 78.30
  Q 157.12 73.41 153.74 68.01
  Q 152.68 66.32 152.22 64.38
  A 3.87 3.79 -45.7 0 1 152.22 62.57
  C 153.28 58.10 154.25 55.80 154.08 52.20
  Q 153.55 40.38 144.70 34.75
  C 133.13 27.38 117.00 32.44 112.55 45.25
  C 108.25 57.64 114.82 71.58 127.96 74.32
  A 2.86 2.85 84.1 0 1 130.00 75.98
  Q 141.90 103.24 153.55 128.90
  Q 155.48 133.15 167.38 160.16
  Q 168.52 162.74 167.38 165.16
  A 1.78 1.74 87.9 0 1 166.70 165.91
  Z"
/>
<path fill="#35271b" d="
  M 167.38 165.16
  Q 168.52 162.74 167.38 160.16
  Q 155.48 133.15 153.55 128.90
  Q 141.90 103.24 130.00 75.98
  A 2.86 2.85 84.1 0 0 127.96 74.32
  C 114.82 71.58 108.25 57.64 112.55 45.25
  C 117.00 32.44 133.13 27.38 144.70 34.75
  Q 153.55 40.38 154.08 52.20
  C 154.25 55.80 153.28 58.10 152.22 62.57
  A 3.87 3.79 -45.7 0 0 152.22 64.38
  Q 152.68 66.32 153.74 68.01
  Q 157.12 73.41 159.71 78.30
  C 175.00 107.18 192.64 138.68 206.76 165.02
  C 207.53 166.47 209.35 166.90 211.12 166.90
  Q 508.05 166.84 549.53 166.89
  C 567.48 166.91 585.06 175.22 594.78 190.59
  Q 601.24 200.81 603.01 213.77
  Q 603.73 219.05 603.42 228.42
  Q 603.28 232.59 603.29 243.09
  Q 603.34 365.24 603.32 517.25
  Q 603.32 519.31 602.92 524.64
  C 602.21 534.24 597.86 543.83 592.11 550.84
  C 584.00 560.72 571.37 568.00 558.17 568.99
  C 555.22 569.21 552.86 569.68 549.59 569.68
  C 436.28 569.37 329.35 569.66 240.25 569.02
  C 234.64 568.98 226.93 569.36 220.92 569.34
  Q 144.03 569.11 105.07 569.25
  Q 89.22 569.31 86.46 569.06
  C 69.11 567.45 54.53 560.22 45.52 544.99
  Q 39.78 535.29 38.41 525.99
  Q 37.49 519.72 37.45 509.25
  Q 37.31 469.93 37.46 238.75
  C 37.47 220.87 36.73 208.82 43.42 195.57
  Q 48.79 184.93 57.87 177.85
  Q 66.25 171.31 78.01 168.16
  Q 83.62 166.65 98.80 166.77
  Q 122.64 166.95 162.23 166.89
  Q 165.03 166.89 166.70 165.91
  A 1.78 1.74 87.9 0 0 167.38 165.16
  Z
  M 133.1147 38.8186
  A 13.71 13.24 -86.3 0 0 119.0176 51.6456
  A 13.71 13.24 -86.3 0 0 131.3453 66.1814
  A 13.71 13.24 -86.3 0 0 145.4424 53.3544
  A 13.71 13.24 -86.3 0 0 133.1147 38.8186
  Z
  M 182.43 173.17
  A 0.67 0.67 0.0 0 1 181.81 174.12
  Q 134.44 173.64 94.74 173.98
  Q 84.28 174.07 79.49 175.49
  Q 57.29 182.09 48.94 203.16
  C 45.52 211.81 46.33 222.14 46.33 229.50
  Q 46.29 416.55 46.23 508.18
  Q 46.22 519.43 47.54 524.35
  Q 51.73 540.01 64.99 549.66
  C 76.14 557.78 88.84 558.80 102.00 558.74
  Q 141.27 558.56 161.51 558.67
  C 236.44 559.10 341.86 558.79 547.00 558.67
  Q 565.84 558.65 579.02 547.63
  C 582.90 544.39 586.44 540.06 588.81 536.09
  C 593.77 527.77 594.91 518.23 594.91 508.25
  Q 594.96 279.67 594.67 230.98
  Q 594.62 221.41 594.61 220.17
  Q 594.61 213.84 593.66 209.43
  Q 591.43 199.01 585.79 192.03
  Q 579.99 184.87 576.02 182.11
  Q 568.87 177.15 560.82 175.18
  Q 556.22 174.06 544.12 174.07
  Q 385.96 174.21 215.94 174.00
  C 212.08 173.99 207.54 173.77 203.34 174.16
  A 1.40 1.40 0.0 0 1 201.94 173.38
  Q 197.18 163.57 186.13 141.93
  Q 169.06 108.47 151.39 74.16
  Q 149.60 70.70 147.74 67.89
  A 1.65 1.63 -5.7 0 0 146.99 67.28
  Q 145.39 66.62 143.83 66.99
  Q 141.66 67.50 138.39 69.16
  Q 135.47 70.63 136.85 73.67
  Q 158.30 121.04 182.43 173.17
  Z"
/>
<path fill="#080402" fill-opacity="0.996" d="
  M 133.1147 38.8186
  A 13.71 13.24 -86.3 0 1 145.4424 53.3544
  A 13.71 13.24 -86.3 0 1 131.3453 66.1814
  A 13.71 13.24 -86.3 0 1 119.0176 51.6456
  A 13.71 13.24 -86.3 0 1 133.1147 38.8186
  Z
  M 132.5773 40.1149
  A 12.44 11.99 -88.4 0 0 120.2447 52.2152
  A 12.44 11.99 -88.4 0 0 131.8827 64.9851
  A 12.44 11.99 -88.4 0 0 144.2153 52.8848
  A 12.44 11.99 -88.4 0 0 132.5773 40.1149
  Z"
/>
<path fill="#dbc46b" d="
  M 132.5773 40.1149
  A 12.44 11.99 -88.4 0 1 144.2153 52.8848
  A 12.44 11.99 -88.4 0 1 131.8827 64.9851
  A 12.44 11.99 -88.4 0 1 120.2447 52.2152
  A 12.44 11.99 -88.4 0 1 132.5773 40.1149
  Z
  M 131.6439 41.0556
  A 11.39 10.75 -93.0 0 0 121.5047 52.9926
  A 11.39 10.75 -93.0 0 0 132.8361 63.8044
  A 11.39 10.75 -93.0 0 0 142.9753 51.8674
  A 11.39 10.75 -93.0 0 0 131.6439 41.0556
  Z"
/>
<ellipse fill="#cc955f" cx="0.00" cy="0.00" transform="translate(132.24,52.43) rotate(-93.0)" rx="11.39" ry="10.75"/>
<path fill="#080402" fill-opacity="0.996" d="
  M 182.43 173.17
  Q 158.30 121.04 136.85 73.67
  Q 135.47 70.63 138.39 69.16
  Q 141.66 67.50 143.83 66.99
  Q 145.39 66.62 146.99 67.28
  A 1.65 1.63 -5.7 0 1 147.74 67.89
  Q 149.60 70.70 151.39 74.16
  Q 169.06 108.47 186.13 141.93
  Q 197.18 163.57 201.94 173.38
  A 1.40 1.40 0.0 0 0 203.34 174.16
  C 207.54 173.77 212.08 173.99 215.94 174.00
  Q 385.96 174.21 544.12 174.07
  Q 556.22 174.06 560.82 175.18
  Q 568.87 177.15 576.02 182.11
  Q 579.99 184.87 585.79 192.03
  Q 591.43 199.01 593.66 209.43
  Q 594.61 213.84 594.61 220.17
  Q 594.62 221.41 594.67 230.98
  Q 594.96 279.67 594.91 508.25
  C 594.91 518.23 593.77 527.77 588.81 536.09
  C 586.44 540.06 582.90 544.39 579.02 547.63
  Q 565.84 558.65 547.00 558.67
  C 341.86 558.79 236.44 559.10 161.51 558.67
  Q 141.27 558.56 102.00 558.74
  C 88.84 558.80 76.14 557.78 64.99 549.66
  Q 51.73 540.01 47.54 524.35
  Q 46.22 519.43 46.23 508.18
  Q 46.29 416.55 46.33 229.50
  C 46.33 222.14 45.52 211.81 48.94 203.16
  Q 57.29 182.09 79.49 175.49
  Q 84.28 174.07 94.74 173.98
  Q 134.44 173.64 181.81 174.12
  A 0.67 0.67 0.0 0 0 182.43 173.17
  Z
  M 140.96 69.36
  L 138.95 70.10
  A 1.94 1.94 0.0 0 0 137.85 72.72
  Q 154.19 108.77 182.82 170.94
  Q 183.96 173.41 184.94 174.68
  A 0.38 0.38 0.0 0 1 184.64 175.30
  Q 157.94 175.21 99.59 175.19
  Q 85.24 175.18 79.54 176.72
  C 59.97 182.00 47.38 199.28 47.37 219.60
  Q 47.33 389.12 47.42 512.75
  Q 47.43 525.31 54.17 536.43
  C 62.39 550.01 77.69 557.03 93.25 557.12
  Q 112.00 557.22 531.75 557.57
  Q 544.44 557.58 552.56 557.08
  C 571.23 555.94 587.07 542.83 591.92 525.06
  Q 593.40 519.62 593.40 503.37
  Q 593.38 224.72 593.35 221.61
  C 593.26 212.55 591.64 203.99 587.11 196.17
  C 579.27 182.62 565.57 175.39 549.74 175.33
  Q 539.68 175.29 202.15 175.29
  A 0.84 0.83 76.9 0 1 201.40 174.82
  Q 174.75 122.50 148.03 70.72
  Q 146.73 68.18 145.25 67.98
  Q 143.08 68.09 140.96 69.36
  Z"
/>
<path fill="#ebbd86" d="
  M 145.25 67.98
  L 199.91 175.02
  A 2.84 2.83 -8.0 0 0 201.91 176.52
  Q 204.51 177.01 207.25 177.00
  Q 234.73 176.83 461.44 176.88
  Q 539.48 176.90 547.63 176.86
  Q 557.08 176.81 562.26 178.23
  Q 577.56 182.43 586.42 197.61
  C 589.41 202.72 590.47 207.70 591.63 213.74
  Q 592.23 216.90 592.23 221.81
  Q 592.25 351.99 592.20 513.49
  Q 592.19 525.67 585.07 537.14
  C 584.05 538.78 582.77 539.88 581.74 541.54
  Q 581.03 542.68 578.91 544.56
  Q 566.15 555.89 548.75 555.90
  Q 230.98 556.08 184.25 555.97
  Q 124.44 555.82 116.25 555.85
  Q 101.39 555.89 95.50 555.77
  Q 88.52 555.62 85.82 555.20
  Q 60.44 551.22 51.51 528.05
  C 49.89 523.84 48.82 517.45 48.82 513.26
  Q 48.76 351.10 48.83 240.50
  Q 48.84 231.68 48.73 224.68
  Q 48.55 213.61 49.74 208.95
  Q 53.04 196.10 62.17 187.44
  Q 67.20 182.67 74.16 179.89
  Q 81.72 176.87 88.00 176.88
  Q 159.85 176.95 184.01 176.92
  A 1.54 1.33 30.8 0 0 184.52 176.83
  Q 186.58 176.02 185.55 173.76
  Q 166.23 131.82 144.69 84.75
  Q 141.96 78.77 139.21 72.53
  A 1.02 1.00 50.6 0 1 139.30 71.53
  Q 139.82 70.79 141.29 70.39
  A 0.48 0.47 -18.1 0 0 141.62 69.76
  Q 141.47 69.40 140.96 69.36
  Q 143.08 68.09 145.25 67.98
  Z
  M 583.80 218.66
  A 33.62 33.62 0.0 0 0 550.18 185.04
  L 90.76 185.04
  A 33.62 33.62 0.0 0 0 57.14 218.66
  L 57.14 513.24
  A 33.62 33.62 0.0 0 0 90.76 546.86
  L 550.18 546.86
  A 33.62 33.62 0.0 0 0 583.80 513.24
  L 583.80 218.66
  Z"
/>
<path fill="#fef3c4" fill-opacity="0.996" d="
  M 140.96 69.36
  Q 141.47 69.40 141.62 69.76
  A 0.48 0.47 -18.1 0 1 141.29 70.39
  Q 139.82 70.79 139.30 71.53
  A 1.02 1.00 50.6 0 0 139.21 72.53
  Q 141.96 78.77 144.69 84.75
  Q 166.23 131.82 185.55 173.76
  Q 186.58 176.02 184.52 176.83
  A 1.54 1.33 30.8 0 1 184.01 176.92
  Q 159.85 176.95 88.00 176.88
  Q 81.72 176.87 74.16 179.89
  Q 67.20 182.67 62.17 187.44
  Q 53.04 196.10 49.74 208.95
  Q 48.55 213.61 48.73 224.68
  Q 48.84 231.68 48.83 240.50
  Q 48.76 351.10 48.82 513.26
  C 48.82 517.45 49.89 523.84 51.51 528.05
  Q 60.44 551.22 85.82 555.20
  Q 88.52 555.62 95.50 555.77
  Q 101.39 555.89 116.25 555.85
  Q 124.44 555.82 184.25 555.97
  Q 230.98 556.08 548.75 555.90
  Q 566.15 555.89 578.91 544.56
  Q 581.03 542.68 581.74 541.54
  C 582.77 539.88 584.05 538.78 585.07 537.14
  Q 592.19 525.67 592.20 513.49
  Q 592.25 351.99 592.23 221.81
  Q 592.23 216.90 591.63 213.74
  C 590.47 207.70 589.41 202.72 586.42 197.61
  Q 577.56 182.43 562.26 178.23
  Q 557.08 176.81 547.63 176.86
  Q 539.48 176.90 461.44 176.88
  Q 234.73 176.83 207.25 177.00
  Q 204.51 177.01 201.91 176.52
  A 2.84 2.83 -8.0 0 1 199.91 175.02
  L 145.25 67.98
  Q 146.73 68.18 148.03 70.72
  Q 174.75 122.50 201.40 174.82
  A 0.84 0.83 76.9 0 0 202.15 175.29
  Q 539.68 175.29 549.74 175.33
  C 565.57 175.39 579.27 182.62 587.11 196.17
  C 591.64 203.99 593.26 212.55 593.35 221.61
  Q 593.38 224.72 593.40 503.37
  Q 593.40 519.62 591.92 525.06
  C 587.07 542.83 571.23 555.94 552.56 557.08
  Q 544.44 557.58 531.75 557.57
  Q 112.00 557.22 93.25 557.12
  C 77.69 557.03 62.39 550.01 54.17 536.43
  Q 47.43 525.31 47.42 512.75
  Q 47.33 389.12 47.37 219.60
  C 47.38 199.28 59.97 182.00 79.54 176.72
  Q 85.24 175.18 99.59 175.19
  Q 157.94 175.21 184.64 175.30
  A 0.38 0.38 0.0 0 0 184.94 174.68
  Q 183.96 173.41 182.82 170.94
  Q 154.19 108.77 137.85 72.72
  A 1.94 1.94 0.0 0 1 138.95 70.10
  L 140.96 69.36
  Z"
/>
<path fill="#fef3c4" fill-opacity="0.996" d="
  M 208.54 570.76
  Q 373.47 571.22 538.41 571.02
  Q 557.99 571.00 563.94 569.59
  C 587.90 563.91 604.84 542.65 604.93 517.80
  Q 605.13 465.77 604.95 221.52
  C 604.93 192.91 585.32 169.34 556.77 165.89
  Q 551.44 165.25 542.29 165.43
  Q 539.11 165.03 535.81 165.17
  Q 535.77 165.17 535.72 165.18
  A 0.01 0.00 20.3 0 1 535.71 165.17
  C 540.93 164.25 546.14 163.76 551.77 163.80
  Q 555.65 163.83 558.19 164.55
  C 560.68 165.25 563.65 165.36 566.55 166.36
  Q 573.27 168.68 578.95 172.02
  Q 592.99 180.29 600.33 194.77
  Q 602.09 198.23 603.35 202.71
  Q 604.78 207.79 605.68 210.91
  A 3.54 3.31 -54.3 0 1 605.81 211.92
  C 605.74 214.57 606.66 217.97 606.65 221.14
  Q 606.49 283.28 606.61 515.75
  Q 606.61 518.70 605.94 525.04
  Q 605.66 527.69 604.90 529.59
  C 604.18 531.39 604.19 533.80 603.44 535.70
  Q 598.69 547.76 591.80 554.82
  Q 575.29 571.75 551.00 572.77
  Q 544.92 573.03 540.00 572.97
  Q 529.20 572.85 529.00 572.85
  Q 446.21 573.18 389.27 573.11
  Q 382.95 573.10 378.70 572.97
  C 370.64 572.71 362.19 573.43 355.32 572.93
  C 350.09 572.54 343.93 572.49 338.24 572.61
  Q 326.50 572.86 314.25 572.61
  C 312.24 572.57 309.57 572.86 306.96 572.84
  Q 242.86 572.39 216.89 571.99
  Q 213.15 571.93 208.54 570.76
  Z"
/>
<path fill="#fef3c4" fill-opacity="0.996" d="
  M 88.06 165.44
  C 66.16 167.04 48.01 179.54 40.12 199.83
  C 35.98 210.47 36.05 219.52 36.05 232.90
  Q 35.93 472.59 35.97 514.75
  Q 35.98 527.21 40.20 537.49
  C 47.66 555.69 63.52 567.75 83.27 569.98
  Q 90.30 570.77 99.45 570.53
  L 104.69 571.10
  A 0.04 0.04 0.0 0 1 104.70 571.17
  C 104.08 571.35 103.34 571.69 102.92 571.73
  Q 92.92 572.69 82.51 571.34
  Q 62.08 568.70 49.05 554.56
  Q 38.85 543.48 35.06 526.18
  Q 34.60 524.05 34.28 516.57
  C 33.95 508.98 34.32 503.00 34.28 493.50
  Q 34.12 453.74 34.34 233.99
  Q 34.36 217.99 34.54 216.50
  Q 35.56 207.97 38.76 199.55
  Q 41.42 192.55 44.11 188.87
  Q 51.97 178.10 59.00 173.75
  Q 66.99 168.81 74.45 166.15
  Q 80.96 163.82 88.06 165.44
  Z"
/>
<path fill="#fef3c4" fill-opacity="0.996" d="
  M 583.80 513.24
  A 33.62 33.62 0.0 0 1 550.18 546.86
  L 90.76 546.86
  A 33.62 33.62 0.0 0 1 57.14 513.24
  L 57.14 218.66
  A 33.62 33.62 0.0 0 1 90.76 185.04
  L 550.18 185.04
  A 33.62 33.62 0.0 0 1 583.80 218.66
  L 583.80 513.24
  Z
  M 582.68 218.42
  A 31.77 31.77 0.0 0 0 550.91 186.65
  L 90.59 186.65
  A 31.77 31.77 0.0 0 0 58.82 218.42
  L 58.82 513.94
  A 31.77 31.77 0.0 0 0 90.59 545.71
  L 550.91 545.71
  A 31.77 31.77 0.0 0 0 582.68 513.94
  L 582.68 218.42
  Z"
/>
<path fill="#080402" fill-opacity="0.996" d="
  M 582.68 513.94
  A 31.77 31.77 0.0 0 1 550.91 545.71
  L 90.59 545.71
  A 31.77 31.77 0.0 0 1 58.82 513.94
  L 58.82 218.42
  A 31.77 31.77 0.0 0 1 90.59 186.65
  L 550.91 186.65
  A 31.77 31.77 0.0 0 1 582.68 218.42
  L 582.68 513.94
  Z
  M 581.06 514.62
  C 581.47 504.24 581.27 493.38 581.29 486.13
  Q 581.48 402.13 581.17 340.48
  Q 581.03 310.98 581.33 228.51
  Q 581.35 222.32 581.13 217.91
  C 580.27 200.35 568.06 187.93 550.25 187.93
  Q 394.59 187.93 94.25 187.94
  Q 85.38 187.94 82.32 188.79
  Q 76.67 190.37 71.65 194.19
  C 61.54 201.87 60.44 211.21 60.44 223.25
  Q 60.49 468.29 60.37 509.25
  C 60.35 516.94 61.19 525.17 65.63 531.14
  C 67.92 534.21 73.03 539.18 77.05 541.02
  Q 83.58 544.03 90.40 544.12
  Q 97.92 544.22 149.50 544.31
  Q 238.05 544.48 462.02 544.30
  C 488.74 544.28 514.31 544.38 545.20 544.33
  Q 555.70 544.32 560.52 542.63
  C 572.51 538.45 580.56 527.20 581.06 514.62
  Z"
/>
<path fill="#35271b" d="
  M 581.06 514.62
  C 580.56 527.20 572.51 538.45 560.52 542.63
  Q 555.70 544.32 545.20 544.33
  C 514.31 544.38 488.74 544.28 462.02 544.30
  Q 238.05 544.48 149.50 544.31
  Q 97.92 544.22 90.40 544.12
  Q 83.58 544.03 77.05 541.02
  C 73.03 539.18 67.92 534.21 65.63 531.14
  C 61.19 525.17 60.35 516.94 60.37 509.25
  Q 60.49 468.29 60.44 223.25
  C 60.44 211.21 61.54 201.87 71.65 194.19
  Q 76.67 190.37 82.32 188.79
  Q 85.38 187.94 94.25 187.94
  Q 394.59 187.93 550.25 187.93
  C 568.06 187.93 580.27 200.35 581.13 217.91
  Q 581.35 222.32 581.33 228.51
  Q 581.03 310.98 581.17 340.48
  Q 581.48 402.13 581.29 486.13
  C 581.27 493.38 581.47 504.24 581.06 514.62
  Z
  M 449.03 412.40
  Q 448.87 412.49 448.79 412.59
  A 0.14 0.13 -64.2 0 0 448.86 412.81
  Q 449.19 412.86 449.53 412.79
  Q 445.90 413.77 442.29 414.84
  Q 431.08 418.17 423.31 425.48
  Q 415.18 433.13 411.13 443.58
  C 404.87 459.71 408.49 476.22 419.04 489.65
  Q 423.88 495.81 430.93 500.28
  Q 439.22 505.54 449.00 506.52
  Q 469.96 508.64 484.94 495.25
  Q 499.45 482.27 500.81 463.73
  Q 502.70 437.95 481.96 422.06
  Q 474.82 416.58 466.94 414.65
  Q 463.53 413.82 462.10 412.83
  A 1.34 1.34 0.0 0 0 461.35 412.60
  L 455.27 412.57
  A 0.19 0.19 0.0 0 1 455.08 412.40
  A 0.25 0.25 0.0 0 1 455.32 412.14
  C 459.12 412.07 463.19 412.33 466.58 412.00
  Q 505.15 408.15 531.06 381.82
  Q 552.76 359.75 558.94 327.54
  Q 560.10 321.50 560.22 313.44
  Q 560.37 304.00 559.93 299.26
  Q 557.11 269.07 538.10 245.36
  Q 530.12 235.39 521.02 228.24
  Q 487.46 201.83 443.72 205.99
  C 440.48 206.30 435.49 207.43 432.64 207.93
  C 427.07 208.91 419.53 211.71 415.48 213.44
  C 386.10 225.97 362.22 251.50 354.90 282.84
  Q 351.88 295.74 351.58 305.25
  C 350.97 324.12 355.48 344.13 365.12 360.39
  Q 382.36 389.49 413.03 403.46
  Q 428.50 410.51 449.03 412.40
  Z
  M 111.17 503.28
  Q 114.41 504.78 118.00 504.81
  Q 118.82 504.82 135.75 504.78
  Q 190.68 504.64 321.45 504.92
  Q 327.12 504.93 329.25 504.28
  C 336.08 502.19 341.27 496.47 343.33 489.70
  Q 344.70 485.16 344.27 476.62
  C 344.01 471.34 343.89 464.10 344.05 458.80
  Q 344.22 452.99 344.06 433.25
  Q 343.99 425.37 344.42 352.00
  C 344.44 347.56 343.99 342.62 344.02 338.66
  Q 344.21 310.18 344.18 286.00
  Q 344.13 251.50 344.12 250.78
  C 344.00 240.79 339.13 232.08 329.03 229.81
  A 4.90 4.70 50.0 0 0 327.84 229.68
  Q 185.86 230.21 146.12 229.80
  Q 123.45 229.57 120.50 229.63
  C 113.81 229.78 109.35 230.76 105.16 235.40
  Q 100.35 240.73 100.35 248.25
  Q 100.32 405.57 100.27 480.35
  Q 100.27 488.13 100.67 490.05
  Q 102.60 499.33 111.17 503.28
  Z"
/>
<path fill="#080402" fill-opacity="0.996" d="
  M 449.53 412.79
  L 454.04 412.57
  A 0.18 0.17 86.7 0 0 454.20 412.38
  L 454.20 412.37
  A 0.18 0.18 0.0 0 0 454.02 412.19
  L 449.03 412.40
  Q 428.50 410.51 413.03 403.46
  Q 382.36 389.49 365.12 360.39
  C 355.48 344.13 350.97 324.12 351.58 305.25
  Q 351.88 295.74 354.90 282.84
  C 362.22 251.50 386.10 225.97 415.48 213.44
  C 419.53 211.71 427.07 208.91 432.64 207.93
  C 435.49 207.43 440.48 206.30 443.72 205.99
  Q 487.46 201.83 521.02 228.24
  Q 530.12 235.39 538.10 245.36
  Q 557.11 269.07 559.93 299.26
  Q 560.37 304.00 560.22 313.44
  Q 560.10 321.50 558.94 327.54
  Q 552.76 359.75 531.06 381.82
  Q 505.15 408.15 466.58 412.00
  C 463.19 412.33 459.12 412.07 455.32 412.14
  A 0.25 0.25 0.0 0 0 455.08 412.40
  A 0.19 0.19 0.0 0 0 455.27 412.57
  L 461.35 412.60
  A 1.34 1.34 0.0 0 1 462.10 412.83
  Q 463.53 413.82 466.94 414.65
  Q 474.82 416.58 481.96 422.06
  Q 502.70 437.95 500.81 463.73
  Q 499.45 482.27 484.94 495.25
  Q 469.96 508.64 449.00 506.52
  Q 439.22 505.54 430.93 500.28
  Q 423.88 495.81 419.04 489.65
  C 408.49 476.22 404.87 459.71 411.13 443.58
  Q 415.18 433.13 423.31 425.48
  Q 431.08 418.17 442.29 414.84
  Q 445.90 413.77 449.53 412.79
  Z
  M 377.75 375.96
  Q 401.06 402.37 436.01 408.90
  C 469.80 415.22 504.18 406.39 528.79 382.14
  Q 555.32 355.99 558.47 318.03
  C 561.25 284.48 548.25 252.96 522.56 231.17
  Q 508.36 219.12 490.23 212.49
  Q 477.56 207.86 463.27 206.95
  C 428.86 204.75 396.88 218.58 375.07 245.07
  Q 359.96 263.44 355.28 287.01
  C 348.96 318.81 356.27 351.64 377.75 375.96
  Z
  M 456.3736 414.4835
  A 45.42 45.19 -87.8 0 0 409.4733 458.1353
  A 45.42 45.19 -87.8 0 0 452.8864 505.2565
  A 45.42 45.19 -87.8 0 0 499.7867 461.6047
  A 45.42 45.19 -87.8 0 0 456.3736 414.4835
  Z"
/>
<path fill="#fef3c4" fill-opacity="0.996" d="
  M 377.75 375.96
  C 356.27 351.64 348.96 318.81 355.28 287.01
  Q 359.96 263.44 375.07 245.07
  C 396.88 218.58 428.86 204.75 463.27 206.95
  Q 477.56 207.86 490.23 212.49
  Q 508.36 219.12 522.56 231.17
  C 548.25 252.96 561.25 284.48 558.47 318.03
  Q 555.32 355.99 528.79 382.14
  C 504.18 406.39 469.80 415.22 436.01 408.90
  Q 401.06 402.37 377.75 375.96
  Z
  M 378.63 375.09
  Q 401.66 401.18 436.18 407.63
  C 469.56 413.88 503.52 405.15 527.84 381.20
  Q 554.04 355.37 557.16 317.87
  C 559.90 284.73 547.06 253.59 521.68 232.07
  Q 507.66 220.16 489.75 213.61
  Q 477.23 209.04 463.11 208.14
  C 429.12 205.97 397.53 219.63 375.99 245.79
  Q 361.06 263.94 356.44 287.22
  C 350.19 318.64 357.41 351.07 378.63 375.09
  Z"
/>
<path fill="#ebbd86" d="
  M 378.63 375.09
  C 357.41 351.07 350.19 318.64 356.44 287.22
  Q 361.06 263.94 375.99 245.79
  C 397.53 219.63 429.12 205.97 463.11 208.14
  Q 477.23 209.04 489.75 213.61
  Q 507.66 220.16 521.68 232.07
  C 547.06 253.59 559.90 284.73 557.16 317.87
  Q 554.04 355.37 527.84 381.20
  C 503.52 405.15 469.56 413.88 436.18 407.63
  Q 401.66 401.18 378.63 375.09
  Z
  M 449.52 401.88
  C 479.42 403.94 508.48 392.21 527.98 369.64
  Q 546.01 348.77 549.35 320.37
  Q 552.22 295.97 543.24 273.83
  C 531.96 246.03 507.54 225.85 478.40 218.27
  Q 471.26 216.42 462.33 215.80
  Q 453.40 215.19 446.08 216.05
  C 416.18 219.56 389.22 236.20 374.24 262.19
  Q 362.31 282.89 361.81 307.46
  Q 361.22 336.05 376.22 359.19
  C 392.44 384.22 419.62 399.82 449.52 401.88
  Z"
/>
<path fill="#fef3c4" fill-opacity="0.996" d="
  M 462.33 215.80
  Q 471.26 216.42 478.40 218.27
  C 507.54 225.85 531.96 246.03 543.24 273.83
  Q 552.22 295.97 549.35 320.37
  Q 546.01 348.77 527.98 369.64
  C 508.48 392.21 479.42 403.94 449.52 401.88
  C 419.62 399.82 392.44 384.22 376.22 359.19
  Q 361.22 336.05 361.81 307.46
  Q 362.31 282.89 374.24 262.19
  C 389.22 236.20 416.18 219.56 446.08 216.05
  Q 453.40 215.19 462.33 215.80
  Z
  M 364.1874 293.0414
  A 93.17 92.10 -170.1 0 0 440.1353 399.7886
  A 93.17 92.10 -170.1 0 0 547.7526 325.0786
  A 93.17 92.10 -170.1 0 0 471.8047 218.3314
  A 93.17 92.10 -170.1 0 0 364.1874 293.0414
  Z"
/>
<path fill="#080402" fill-opacity="0.996" d="
  M 364.1874 293.0414
  A 93.17 92.10 -170.1 0 1 471.8047 218.3314
  A 93.17 92.10 -170.1 0 1 547.7526 325.0786
  A 93.17 92.10 -170.1 0 1 440.1353 399.7886
  A 93.17 92.10 -170.1 0 1 364.1874 293.0414
  Z
  M 516.51 377.87
  Q 522.67 372.58 525.02 369.61
  C 528.64 365.05 531.10 362.28 533.04 359.24
  Q 543.54 342.73 546.40 323.96
  Q 547.06 319.61 547.22 312.00
  Q 547.43 302.11 547.16 299.99
  Q 542.55 263.91 516.94 241.30
  Q 502.19 228.29 481.79 222.11
  C 442.32 210.16 397.09 227.11 376.51 263.24
  C 366.66 280.52 363.37 299.81 365.17 319.25
  Q 367.67 346.17 385.17 367.12
  Q 394.29 378.03 407.45 386.05
  Q 424.61 396.51 443.93 398.80
  C 448.42 399.34 452.49 398.99 456.70 399.11
  Q 462.43 399.28 466.26 398.95
  Q 494.80 396.52 516.51 377.87
  Z"
/>
<path fill="#35271b" d="
  M 516.51 377.87
  Q 494.80 396.52 466.26 398.95
  Q 462.43 399.28 456.70 399.11
  C 452.49 398.99 448.42 399.34 443.93 398.80
  Q 424.61 396.51 407.45 386.05
  Q 394.29 378.03 385.17 367.12
  Q 367.67 346.17 365.17 319.25
  C 363.37 299.81 366.66 280.52 376.51 263.24
  C 397.09 227.11 442.32 210.16 481.79 222.11
  Q 502.19 228.29 516.94 241.30
  Q 542.55 263.91 547.16 299.99
  Q 547.43 302.11 547.22 312.00
  Q 547.06 319.61 546.40 323.96
  Q 543.54 342.73 533.04 359.24
  C 531.10 362.28 528.64 365.05 525.02 369.61
  Q 522.67 372.58 516.51 377.87
  Z
  M 527.5529 277.9020
  A 78.04 77.90 -23.1 0 0 425.2069 236.8659
  A 78.04 77.90 -23.1 0 0 383.9871 339.1380
  A 78.04 77.90 -23.1 0 0 486.3331 380.1741
  A 78.04 77.90 -23.1 0 0 527.5529 277.9020
  Z"
/>
<path fill="#4a3827" d="
  M 111.17 503.28
  Q 102.60 499.33 100.67 490.05
  Q 100.27 488.13 100.27 480.35
  Q 100.32 405.57 100.35 248.25
  Q 100.35 240.73 105.16 235.40
  C 109.35 230.76 113.81 229.78 120.50 229.63
  Q 123.45 229.57 146.12 229.80
  Q 185.86 230.21 327.84 229.68
  A 4.90 4.70 50.0 0 1 329.03 229.81
  C 339.13 232.08 344.00 240.79 344.12 250.78
  Q 344.13 251.50 344.18 286.00
  Q 344.21 310.18 344.02 338.66
  C 343.99 342.62 344.44 347.56 344.42 352.00
  Q 343.99 425.37 344.06 433.25
  Q 344.22 452.99 344.05 458.80
  C 343.89 464.10 344.01 471.34 344.27 476.62
  Q 344.70 485.16 343.33 489.70
  C 341.27 496.47 336.08 502.19 329.25 504.28
  Q 327.12 504.93 321.45 504.92
  Q 190.68 504.64 135.75 504.78
  Q 118.82 504.82 118.00 504.81
  Q 114.41 504.78 111.17 503.28
  Z
  M 322.68 254.73
  A 6.29 6.29 0.0 0 0 316.39 248.44
  L 130.91 248.44
  A 6.29 6.29 0.0 0 0 124.62 254.73
  L 124.62 255.05
  A 6.29 6.29 0.0 0 0 130.91 261.34
  L 316.39 261.34
  A 6.29 6.29 0.0 0 0 322.68 255.05
  L 322.68 254.73
  Z
  M 322.60 292.28
  A 6.29 6.29 0.0 0 0 316.31 285.99
  L 131.03 285.99
  A 6.29 6.29 0.0 0 0 124.74 292.28
  L 124.74 292.38
  A 6.29 6.29 0.0 0 0 131.03 298.67
  L 316.31 298.67
  A 6.29 6.29 0.0 0 0 322.60 292.38
  L 322.60 292.28
  Z
  M 322.65 330.49
  A 6.28 6.28 0.0 0 0 316.37 324.21
  L 131.07 324.21
  A 6.28 6.28 0.0 0 0 124.79 330.49
  L 124.79 330.83
  A 6.28 6.28 0.0 0 0 131.07 337.11
  L 316.37 337.11
  A 6.28 6.28 0.0 0 0 322.65 330.83
  L 322.65 330.49
  Z
  M 322.55 367.50
  A 6.33 6.33 0.0 0 0 316.22 361.17
  L 130.98 361.17
  A 6.33 6.33 0.0 0 0 124.65 367.50
  L 124.65 367.60
  A 6.33 6.33 0.0 0 0 130.98 373.93
  L 316.22 373.93
  A 6.33 6.33 0.0 0 0 322.55 367.60
  L 322.55 367.50
  Z
  M 322.51 404.90
  A 6.13 6.13 0.0 0 0 316.38 398.77
  L 130.88 398.77
  A 6.13 6.13 0.0 0 0 124.75 404.90
  L 124.75 405.22
  A 6.13 6.13 0.0 0 0 130.88 411.35
  L 316.38 411.35
  A 6.13 6.13 0.0 0 0 322.51 405.22
  L 322.51 404.90
  Z
  M 322.65 442.59
  A 6.24 6.24 0.0 0 0 316.41 436.35
  L 130.91 436.35
  A 6.24 6.24 0.0 0 0 124.67 442.59
  L 124.67 442.69
  A 6.24 6.24 0.0 0 0 130.91 448.93
  L 316.41 448.93
  A 6.24 6.24 0.0 0 0 322.65 442.69
  L 322.65 442.59
  Z
  M 322.57 478.90
  A 6.06 6.06 0.0 0 0 316.51 472.84
  L 130.79 472.84
  A 6.06 6.06 0.0 0 0 124.73 478.90
  L 124.73 479.50
  A 6.06 6.06 0.0 0 0 130.79 485.56
  L 316.51 485.56
  A 6.06 6.06 0.0 0 0 322.57 479.50
  L 322.57 478.90
  Z"
/>
<path fill="#080402" fill-opacity="0.996" d="
  M 527.5529 277.9020
  A 78.04 77.90 -23.1 0 1 486.3331 380.1741
  A 78.04 77.90 -23.1 0 1 383.9871 339.1380
  A 78.04 77.90 -23.1 0 1 425.2069 236.8659
  A 78.04 77.90 -23.1 0 1 527.5529 277.9020
  Z
  M 450.63 232.24
  Q 449.65 232.49 449.05 232.29
  Q 418.51 235.87 398.97 257.21
  C 386.68 270.65 379.89 286.94 379.18 304.97
  Q 377.79 339.86 402.21 363.24
  Q 422.13 382.32 448.82 384.68
  C 476.52 387.12 501.31 375.43 517.59 353.57
  Q 532.31 333.81 532.41 308.49
  C 532.53 279.99 517.02 254.77 492.23 241.00
  Q 480.63 234.55 467.53 232.53
  Q 464.56 232.08 464.64 233.22
  L 464.76 243.32
  Q 464.28 244.16 465.12 244.32
  Q 496.90 250.26 512.39 277.38
  C 521.65 293.59 522.65 313.24 516.22 330.67
  C 508.42 351.79 489.57 367.45 467.54 371.46
  C 423.86 379.42 385.36 342.96 391.87 298.93
  Q 394.91 278.37 409.42 263.68
  Q 425.54 247.37 449.45 244.48
  C 449.37 242.26 448.99 238.20 449.53 236.78
  A 0.20 0.20 0.0 0 1 449.91 236.83
  L 450.69 243.56
  Q 450.70 265.76 450.81 287.99
  Q 450.83 293.03 455.21 293.93
  Q 460.64 295.05 462.69 291.51
  Q 463.67 289.83 463.68 283.27
  Q 463.71 255.10 463.66 233.79
  Q 463.66 233.30 463.71 233.26
  Q 463.98 233.05 464.00 232.92
  A 0.61 0.57 -87.7 0 0 463.44 232.26
  L 450.63 232.24
  Z
  M 448.37 245.49
  C 442.16 246.93 436.66 248.00 431.54 250.18
  Q 420.16 255.02 412.52 262.04
  C 395.05 278.08 388.53 303.04 394.76 325.65
  C 401.34 349.53 420.64 366.01 445.18 370.45
  C 449.05 371.15 452.77 370.84 456.50 370.97
  Q 461.24 371.13 464.96 370.59
  C 491.63 366.71 513.03 347.07 517.93 320.17
  C 522.79 293.49 511.34 267.83 488.24 253.86
  C 481.72 249.91 473.38 247.17 465.82 245.54
  A 0.69 0.68 -83.9 0 0 464.99 246.21
  Q 464.89 287.81 464.83 288.79
  C 464.57 293.00 460.87 296.25 456.40 295.53
  Q 449.23 294.36 449.26 286.22
  Q 449.38 262.30 449.35 246.27
  A 0.80 0.80 0.0 0 0 448.37 245.49
  Z"
/>
<path fill="#fcdfb1" d="
  M 450.69 243.56
  L 450.63 232.24
  L 463.44 232.26
  A 0.61 0.57 -87.7 0 1 464.00 232.92
  Q 463.98 233.05 463.71 233.26
  Q 463.66 233.30 463.66 233.79
  Q 463.71 255.10 463.68 283.27
  Q 463.67 289.83 462.69 291.51
  Q 460.64 295.05 455.21 293.93
  Q 450.83 293.03 450.81 287.99
  Q 450.70 265.76 450.69 243.56
  Z
  M 461.53 233.24
  L 452.61 233.24
  A 0.82 0.82 0.0 0 0 451.79 234.06
  L 451.79 287.63
  A 5.37 4.78 90.0 0 0 456.57 293.00
  L 457.57 293.00
  A 5.37 4.78 -90.0 0 0 462.35 287.63
  L 462.35 234.06
  A 0.82 0.82 0.0 0 0 461.53 233.24
  Z"
/>
<path fill="#cc955f" d="
  M 449.05 232.29
  Q 447.16 233.54 443.76 234.07
  C 419.80 237.81 399.71 252.48 388.31 273.55
  C 384.66 280.30 381.28 291.27 380.70 300.82
  Q 380.26 307.94 380.26 308.02
  Q 380.35 335.14 394.92 353.82
  C 415.57 380.31 448.87 390.48 480.62 379.97
  C 495.08 375.18 508.76 364.45 517.47 352.19
  Q 529.63 335.07 531.08 313.78
  Q 533.05 284.63 515.77 262.35
  Q 501.40 243.80 480.02 236.48
  Q 474.05 234.44 464.64 233.22
  Q 464.56 232.08 467.53 232.53
  Q 480.63 234.55 492.23 241.00
  C 517.02 254.77 532.53 279.99 532.41 308.49
  Q 532.31 333.81 517.59 353.57
  C 501.31 375.43 476.52 387.12 448.82 384.68
  Q 422.13 382.32 402.21 363.24
  Q 377.79 339.86 379.18 304.97
  C 379.89 286.94 386.68 270.65 398.97 257.21
  Q 418.51 235.87 449.05 232.29
  Z"
/>
<path fill="#8d6944" d="
  M 450.63 232.24
  L 450.69 243.56
  L 449.91 236.83
  A 0.20 0.20 0.0 0 0 449.53 236.78
  C 448.99 238.20 449.37 242.26 449.45 244.48
  Q 449.15 243.09 448.90 243.18
  Q 448.13 243.45 447.84 243.79
  A 1.00 0.97 -66.0 0 1 447.00 244.13
  Q 444.95 243.95 441.93 244.66
  Q 426.61 248.24 414.13 258.17
  Q 412.24 259.68 411.01 261.00
  C 408.56 263.62 406.06 265.85 403.76 268.72
  Q 389.74 286.29 390.00 309.73
  Q 390.06 315.01 390.20 316.00
  C 393.78 340.61 409.14 360.13 431.96 369.21
  Q 442.87 373.55 455.31 373.69
  Q 467.11 373.83 478.68 369.39
  Q 488.22 365.73 494.77 360.51
  Q 503.61 353.47 507.90 347.64
  Q 513.93 339.44 517.11 331.16
  Q 523.71 313.98 520.35 295.79
  C 517.32 279.40 506.53 264.15 493.28 254.70
  Q 480.98 245.94 464.76 243.32
  L 464.64 233.22
  Q 474.05 234.44 480.02 236.48
  Q 501.40 243.80 515.77 262.35
  Q 533.05 284.63 531.08 313.78
  Q 529.63 335.07 517.47 352.19
  C 508.76 364.45 495.08 375.18 480.62 379.97
  C 448.87 390.48 415.57 380.31 394.92 353.82
  Q 380.35 335.14 380.26 308.02
  Q 380.26 307.94 380.70 300.82
  C 381.28 291.27 384.66 280.30 388.31 273.55
  C 399.71 252.48 419.80 237.81 443.76 234.07
  Q 447.16 233.54 449.05 232.29
  Q 449.65 232.49 450.63 232.24
  Z"
/>
<path fill="#dbc46b" d="
  M 461.53 233.24
  A 0.82 0.82 0.0 0 1 462.35 234.06
  L 462.35 287.63
  A 5.37 4.78 90.0 0 1 457.57 293.00
  L 456.57 293.00
  A 5.37 4.78 -90.0 0 1 451.79 287.63
  L 451.79 234.06
  A 0.82 0.82 0.0 0 1 452.61 233.24
  L 461.53 233.24
  Z"
/>
<path fill="#cc955f" d="
  M 449.45 244.48
  Q 425.54 247.37 409.42 263.68
  Q 394.91 278.37 391.87 298.93
  C 385.36 342.96 423.86 379.42 467.54 371.46
  C 489.57 367.45 508.42 351.79 516.22 330.67
  C 522.65 313.24 521.65 293.59 512.39 277.38
  Q 496.90 250.26 465.12 244.32
  Q 464.28 244.16 464.76 243.32
  Q 480.98 245.94 493.28 254.70
  C 506.53 264.15 517.32 279.40 520.35 295.79
  Q 523.71 313.98 517.11 331.16
  Q 513.93 339.44 507.90 347.64
  Q 503.61 353.47 494.77 360.51
  Q 488.22 365.73 478.68 369.39
  Q 467.11 373.83 455.31 373.69
  Q 442.87 373.55 431.96 369.21
  C 409.14 360.13 393.78 340.61 390.20 316.00
  Q 390.06 315.01 390.00 309.73
  Q 389.74 286.29 403.76 268.72
  C 406.06 265.85 408.56 263.62 411.01 261.00
  Q 412.24 259.68 414.13 258.17
  Q 426.61 248.24 441.93 244.66
  Q 444.95 243.95 447.00 244.13
  A 1.00 0.97 -66.0 0 0 447.84 243.79
  Q 448.13 243.45 448.90 243.18
  Q 449.15 243.09 449.45 244.48
  Z"
/>
<path fill="#4a3827" d="
  M 448.37 245.49
  A 0.80 0.80 0.0 0 1 449.35 246.27
  Q 449.38 262.30 449.26 286.22
  Q 449.23 294.36 456.40 295.53
  C 460.87 296.25 464.57 293.00 464.83 288.79
  Q 464.89 287.81 464.99 246.21
  A 0.69 0.68 -83.9 0 1 465.82 245.54
  C 473.38 247.17 481.72 249.91 488.24 253.86
  C 511.34 267.83 522.79 293.49 517.93 320.17
  C 513.03 347.07 491.63 366.71 464.96 370.59
  Q 461.24 371.13 456.50 370.97
  C 452.77 370.84 449.05 371.15 445.18 370.45
  C 420.64 366.01 401.34 349.53 394.76 325.65
  C 388.53 303.04 395.05 278.08 412.52 262.04
  Q 420.16 255.02 431.54 250.18
  C 436.66 248.00 442.16 246.93 448.37 245.49
  Z"
/>
<path fill="#080402" fill-opacity="0.996" d="
  M 322.68 255.05
  A 6.29 6.29 0.0 0 1 316.39 261.34
  L 130.91 261.34
  A 6.29 6.29 0.0 0 1 124.62 255.05
  L 124.62 254.73
  A 6.29 6.29 0.0 0 1 130.91 248.44
  L 316.39 248.44
  A 6.29 6.29 0.0 0 1 322.68 254.73
  L 322.68 255.05
  Z
  M 321.47 254.53
  A 4.42 4.42 0.0 0 0 317.05 250.11
  L 130.33 250.11
  A 4.42 4.42 0.0 0 0 125.91 254.53
  L 125.91 255.63
  A 4.42 4.42 0.0 0 0 130.33 260.05
  L 317.05 260.05
  A 4.42 4.42 0.0 0 0 321.47 255.63
  L 321.47 254.53
  Z"
/>
<path fill="#dbc46b" d="
  M 321.47 255.63
  A 4.42 4.42 0.0 0 1 317.05 260.05
  L 130.33 260.05
  A 4.42 4.42 0.0 0 1 125.91 255.63
  L 125.91 254.53
  A 4.42 4.42 0.0 0 1 130.33 250.11
  L 317.05 250.11
  A 4.42 4.42 0.0 0 1 321.47 254.53
  L 321.47 255.63
  Z
  M 320.59 254.68
  A 3.92 3.92 0.0 0 0 316.67 250.76
  L 130.55 250.76
  A 3.92 3.92 0.0 0 0 126.63 254.68
  L 126.63 255.14
  A 3.92 3.92 0.0 0 0 130.55 259.06
  L 316.67 259.06
  A 3.92 3.92 0.0 0 0 320.59 255.14
  L 320.59 254.68
  Z"
/>
<rect fill="#9e754c" x="126.63" y="250.76" width="193.96" height="8.30" rx="3.92"/>
<path fill="#080402" fill-opacity="0.996" d="
  M 322.60 292.38
  A 6.29 6.29 0.0 0 1 316.31 298.67
  L 131.03 298.67
  A 6.29 6.29 0.0 0 1 124.74 292.38
  L 124.74 292.28
  A 6.29 6.29 0.0 0 1 131.03 285.99
  L 316.31 285.99
  A 6.29 6.29 0.0 0 1 322.60 292.28
  L 322.60 292.38
  Z
  M 321.64 292.06
  A 4.92 4.92 0.0 0 0 316.72 287.14
  L 130.58 287.14
  A 4.92 4.92 0.0 0 0 125.66 292.06
  L 125.66 292.38
  A 4.92 4.92 0.0 0 0 130.58 297.30
  L 316.72 297.30
  A 4.92 4.92 0.0 0 0 321.64 292.38
  L 321.64 292.06
  Z"
/>
<path fill="#cc955f" d="
  M 321.64 292.38
  A 4.92 4.92 0.0 0 1 316.72 297.30
  L 130.58 297.30
  A 4.92 4.92 0.0 0 1 125.66 292.38
  L 125.66 292.06
  A 4.92 4.92 0.0 0 1 130.58 287.14
  L 316.72 287.14
  A 4.92 4.92 0.0 0 1 321.64 292.06
  L 321.64 292.38
  Z
  M 284.81 289.06
  L 271.93 289.09
  L 269.83 289.07
  L 254.94 289.08
  Q 254.74 289.19 254.58 289.08
  L 247.90 289.08
  L 245.60 289.07
  L 239.93 289.04
  L 236.57 289.06
  L 206.96 289.04
  Q 206.78 289.19 206.55 289.03
  L 151.46 288.98
  L 130.08 288.73
  A 3.32 3.29 -2.5 0 0 126.74 292.34
  L 126.75 292.59
  A 3.86 3.86 0.0 0 0 130.60 296.22
  L 316.31 296.22
  A 3.88 3.88 0.0 0 0 320.18 292.58
  L 320.20 292.27
  A 3.31 3.28 2.4 0 0 316.87 288.68
  L 284.81 289.06
  Z"
/>
<path fill="#9e754c" d="
  M 151.46 288.98
  L 206.55 289.03
  Q 206.78 289.19 206.96 289.04
  L 236.57 289.06
  L 239.93 289.04
  Q 242.73 289.56 245.60 289.07
  L 247.90 289.08
  L 254.58 289.08
  Q 254.74 289.19 254.94 289.08
  L 269.83 289.07
  L 271.93 289.09
  L 284.81 289.06
  L 316.87 288.68
  A 3.31 3.28 2.4 0 1 320.20 292.27
  L 320.18 292.58
  A 3.88 3.88 0.0 0 1 316.31 296.22
  L 130.60 296.22
  A 3.86 3.86 0.0 0 1 126.75 292.59
  L 126.74 292.34
  A 3.32 3.29 -2.5 0 1 130.08 288.73
  L 151.46 288.98
  Z"
/>
<path fill="#8d6944" d="
  M 206.55 289.03
  L 151.46 288.98
  L 206.55 289.03
  Z"
/>
<path fill="#8d6944" d="
  M 236.57 289.06
  L 206.96 289.04
  L 236.57 289.06
  Z"
/>
<path fill="#8d6944" d="
  M 269.83 289.07
  L 254.94 289.08
  L 269.83 289.07
  Z"
/>
<path fill="#8d6944" d="
  M 245.60 289.07
  Q 242.73 289.56 239.93 289.04
  L 245.60 289.07
  Z"
/>
<path fill="#8d6944" d="
  M 254.58 289.08
  L 247.90 289.08
  L 254.58 289.08
  Z"
/>
<path fill="#8d6944" d="
  M 284.81 289.06
  L 271.93 289.09
  L 284.81 289.06
  Z"
/>
<path fill="#080402" fill-opacity="0.996" d="
  M 322.65 330.83
  A 6.28 6.28 0.0 0 1 316.37 337.11
  L 131.07 337.11
  A 6.28 6.28 0.0 0 1 124.79 330.83
  L 124.79 330.49
  A 6.28 6.28 0.0 0 1 131.07 324.21
  L 316.37 324.21
  A 6.28 6.28 0.0 0 1 322.65 330.49
  L 322.65 330.83
  Z
  M 321.53 330.17
  A 4.81 4.81 0.0 0 0 316.72 325.36
  L 130.46 325.36
  A 4.81 4.81 0.0 0 0 125.65 330.17
  L 125.65 330.83
  A 4.81 4.81 0.0 0 0 130.46 335.64
  L 316.72 335.64
  A 4.81 4.81 0.0 0 0 321.53 330.83
  L 321.53 330.17
  Z"
/>
<path fill="#cc955f" d="
  M 321.53 330.83
  A 4.81 4.81 0.0 0 1 316.72 335.64
  L 130.46 335.64
  A 4.81 4.81 0.0 0 1 125.65 330.83
  L 125.65 330.17
  A 4.81 4.81 0.0 0 1 130.46 325.36
  L 316.72 325.36
  A 4.81 4.81 0.0 0 1 321.53 330.17
  L 321.53 330.83
  Z
  M 320.27 330.18
  A 3.40 3.40 0.0 0 0 316.87 326.78
  L 130.27 326.78
  A 3.40 3.40 0.0 0 0 126.87 330.18
  L 126.87 330.82
  A 3.40 3.40 0.0 0 0 130.27 334.22
  L 316.87 334.22
  A 3.40 3.40 0.0 0 0 320.27 330.82
  L 320.27 330.18
  Z"
/>
<rect fill="#9e754c" x="126.87" y="326.78" width="193.40" height="7.44" rx="3.40"/>
<path fill="#080402" fill-opacity="0.996" d="
  M 322.55 367.60
  A 6.33 6.33 0.0 0 1 316.22 373.93
  L 130.98 373.93
  A 6.33 6.33 0.0 0 1 124.65 367.60
  L 124.65 367.50
  A 6.33 6.33 0.0 0 1 130.98 361.17
  L 316.22 361.17
  A 6.33 6.33 0.0 0 1 322.55 367.50
  L 322.55 367.60
  Z
  M 321.50 367.44
  A 4.83 4.83 0.0 0 0 316.67 362.61
  L 130.45 362.61
  A 4.83 4.83 0.0 0 0 125.62 367.44
  L 125.62 368.02
  A 4.83 4.83 0.0 0 0 130.45 372.85
  L 316.67 372.85
  A 4.83 4.83 0.0 0 0 321.50 368.02
  L 321.50 367.44
  Z"
/>
<path fill="#cc955f" d="
  M 321.50 368.02
  A 4.83 4.83 0.0 0 1 316.67 372.85
  L 130.45 372.85
  A 4.83 4.83 0.0 0 1 125.62 368.02
  L 125.62 367.44
  A 4.83 4.83 0.0 0 1 130.45 362.61
  L 316.67 362.61
  A 4.83 4.83 0.0 0 1 321.50 367.44
  L 321.50 368.02
  Z
  M 320.36 367.14
  A 3.23 3.23 0.0 0 0 317.13 363.91
  L 130.03 363.91
  A 3.23 3.23 0.0 0 0 126.80 367.14
  L 126.80 368.06
  A 3.23 3.23 0.0 0 0 130.03 371.29
  L 317.13 371.29
  A 3.23 3.23 0.0 0 0 320.36 368.06
  L 320.36 367.14
  Z"
/>
<rect fill="#9e754c" x="126.80" y="363.91" width="193.56" height="7.38" rx="3.23"/>
<path fill="#080402" fill-opacity="0.996" d="
  M 322.51 405.22
  A 6.13 6.13 0.0 0 1 316.38 411.35
  L 130.88 411.35
  A 6.13 6.13 0.0 0 1 124.75 405.22
  L 124.75 404.90
  A 6.13 6.13 0.0 0 1 130.88 398.77
  L 316.38 398.77
  A 6.13 6.13 0.0 0 1 322.51 404.90
  L 322.51 405.22
  Z
  M 321.52 404.83
  A 4.83 4.83 0.0 0 0 316.69 400.00
  L 130.41 400.00
  A 4.83 4.83 0.0 0 0 125.58 404.83
  L 125.58 405.31
  A 4.83 4.83 0.0 0 0 130.41 410.14
  L 316.69 410.14
  A 4.83 4.83 0.0 0 0 321.52 405.31
  L 321.52 404.83
  Z"
/>
<path fill="#dbc46b" d="
  M 321.52 405.31
  A 4.83 4.83 0.0 0 1 316.69 410.14
  L 130.41 410.14
  A 4.83 4.83 0.0 0 1 125.58 405.31
  L 125.58 404.83
  A 4.83 4.83 0.0 0 1 130.41 400.00
  L 316.69 400.00
  A 4.83 4.83 0.0 0 1 321.52 404.83
  L 321.52 405.31
  Z
  M 320.45 404.77
  A 3.70 3.70 0.0 0 0 316.75 401.07
  L 130.01 401.07
  A 3.70 3.70 0.0 0 0 126.31 404.77
  L 126.31 405.31
  A 3.70 3.70 0.0 0 0 130.01 409.01
  L 316.75 409.01
  A 3.70 3.70 0.0 0 0 320.45 405.31
  L 320.45 404.77
  Z"
/>
<rect fill="#9e754c" x="126.31" y="401.07" width="194.14" height="7.94" rx="3.70"/>
<path fill="#8d6944" d="
  M 449.53 412.79
  Q 449.19 412.86 448.86 412.81
  A 0.14 0.13 -64.2 0 1 448.79 412.59
  Q 448.87 412.49 449.03 412.40
  L 454.02 412.19
  A 0.18 0.18 0.0 0 1 454.20 412.37
  L 454.20 412.38
  A 0.18 0.17 86.7 0 1 454.04 412.57
  L 449.53 412.79
  Z"
/>
<path fill="#fef3c4" fill-opacity="0.996" d="
  M 456.3736 414.4835
  A 45.42 45.19 -87.8 0 1 499.7867 461.6047
  A 45.42 45.19 -87.8 0 1 452.8864 505.2565
  A 45.42 45.19 -87.8 0 1 409.4733 458.1353
  A 45.42 45.19 -87.8 0 1 456.3736 414.4835
  Z
  M 454.8984 415.6811
  A 44.17 43.92 -89.6 0 0 410.6711 459.5434
  A 44.17 43.92 -89.6 0 0 454.2816 504.0189
  A 44.17 43.92 -89.6 0 0 498.5089 460.1566
  A 44.17 43.92 -89.6 0 0 454.8984 415.6811
  Z"
/>
<path fill="#ebbd86" d="
  M 454.8984 415.6811
  A 44.17 43.92 -89.6 0 1 498.5089 460.1566
  A 44.17 43.92 -89.6 0 1 454.2816 504.0189
  A 44.17 43.92 -89.6 0 1 410.6711 459.5434
  A 44.17 43.92 -89.6 0 1 454.8984 415.6811
  Z
  M 449.85 424.35
  A 1.44 1.44 0.0 0 0 448.13 422.94
  Q 431.76 426.22 423.05 439.80
  C 417.42 448.58 416.17 460.07 418.71 469.95
  Q 421.71 481.66 431.23 489.31
  C 439.84 496.23 452.31 499.76 463.30 496.61
  C 482.06 491.22 494.76 473.46 491.47 453.92
  C 488.95 438.98 476.85 425.33 461.56 423.25
  A 2.15 2.15 0.0 0 0 459.12 425.38
  L 459.12 447.87
  A 3.76 3.76 0.0 0 1 455.36 451.63
  L 453.88 451.63
  A 4.03 4.03 0.0 0 1 449.85 447.60
  L 449.85 424.35
  Z"
/>
<path fill="#fcdfb1" d="
  M 449.85 424.35
  L 449.85 447.60
  A 4.03 4.03 0.0 0 0 453.88 451.63
  L 455.36 451.63
  A 3.76 3.76 0.0 0 0 459.12 447.87
  L 459.12 425.38
  A 2.15 2.15 0.0 0 1 461.56 423.25
  C 476.85 425.33 488.95 438.98 491.47 453.92
  C 494.76 473.46 482.06 491.22 463.30 496.61
  C 452.31 499.76 439.84 496.23 431.23 489.31
  Q 421.71 481.66 418.71 469.95
  C 416.17 460.07 417.42 448.58 423.05 439.80
  Q 431.76 426.22 448.13 422.94
  A 1.44 1.44 0.0 0 1 449.85 424.35
  Z
  M 454.73 496.33
  C 478.43 496.27 494.09 474.87 489.79 452.43
  C 487.04 438.06 475.88 427.24 461.32 424.17
  A 0.41 0.41 0.0 0 0 460.82 424.58
  Q 460.95 438.15 460.96 442.08
  C 460.98 447.70 461.36 453.04 454.62 453.06
  C 447.87 453.07 448.23 447.74 448.22 442.11
  Q 448.21 438.18 448.27 424.61
  A 0.41 0.41 0.0 0 0 447.77 424.21
  C 433.22 427.35 422.12 438.23 419.44 452.61
  C 415.26 475.07 431.03 496.39 454.73 496.33
  Z"
/>
<path fill="#080402" fill-opacity="0.996" d="
  M 454.62 453.06
  C 461.36 453.04 460.98 447.70 460.96 442.08
  Q 460.95 438.15 460.82 424.58
  A 0.41 0.41 0.0 0 1 461.32 424.17
  C 475.88 427.24 487.04 438.06 489.79 452.43
  C 494.09 474.87 478.43 496.27 454.73 496.33
  C 431.03 496.39 415.26 475.07 419.44 452.61
  C 422.12 438.23 433.22 427.35 447.77 424.21
  A 0.41 0.41 0.0 0 1 448.27 424.61
  Q 448.21 438.18 448.22 442.11
  C 448.23 447.74 447.87 453.07 454.62 453.06
  Z
  M 446.14 425.90
  Q 436.63 428.47 429.98 435.12
  C 415.69 449.41 417.07 474.86 432.86 487.46
  C 443.02 495.57 457.93 497.49 469.47 491.80
  Q 477.90 487.64 482.96 480.32
  C 496.72 460.42 487.24 432.18 463.32 426.10
  A 1.22 1.22 0.0 0 0 461.80 427.26
  Q 461.50 441.46 461.81 446.48
  Q 461.99 449.48 461.07 450.96
  C 458.50 455.09 453.25 455.31 449.61 452.65
  Q 447.52 451.14 447.41 448.91
  Q 446.98 440.51 447.31 426.82
  A 0.93 0.93 0.0 0 0 446.14 425.90
  Z"
/>
<path fill="#4a3827" d="
  M 446.14 425.90
  A 0.93 0.93 0.0 0 1 447.31 426.82
  Q 446.98 440.51 447.41 448.91
  Q 447.52 451.14 449.61 452.65
  C 453.25 455.31 458.50 455.09 461.07 450.96
  Q 461.99 449.48 461.81 446.48
  Q 461.50 441.46 461.80 427.26
  A 1.22 1.22 0.0 0 1 463.32 426.10
  C 487.24 432.18 496.72 460.42 482.96 480.32
  Q 477.90 487.64 469.47 491.80
  C 457.93 497.49 443.02 495.57 432.86 487.46
  C 417.07 474.86 415.69 449.41 429.98 435.12
  Q 436.63 428.47 446.14 425.90
  Z"
/>
<path fill="#080402" fill-opacity="0.996" d="
  M 322.65 442.69
  A 6.24 6.24 0.0 0 1 316.41 448.93
  L 130.91 448.93
  A 6.24 6.24 0.0 0 1 124.67 442.69
  L 124.67 442.59
  A 6.24 6.24 0.0 0 1 130.91 436.35
  L 316.41 436.35
  A 6.24 6.24 0.0 0 1 322.65 442.59
  L 322.65 442.69
  Z
  M 321.60 442.11
  A 4.56 4.56 0.0 0 0 317.04 437.55
  L 130.18 437.55
  A 4.56 4.56 0.0 0 0 125.62 442.11
  L 125.62 442.83
  A 4.56 4.56 0.0 0 0 130.18 447.39
  L 317.04 447.39
  A 4.56 4.56 0.0 0 0 321.60 442.83
  L 321.60 442.11
  Z"
/>
<path fill="#cc955f" d="
  M 321.60 442.83
  A 4.56 4.56 0.0 0 1 317.04 447.39
  L 130.18 447.39
  A 4.56 4.56 0.0 0 1 125.62 442.83
  L 125.62 442.11
  A 4.56 4.56 0.0 0 1 130.18 437.55
  L 317.04 437.55
  A 4.56 4.56 0.0 0 1 321.60 442.11
  L 321.60 442.83
  Z
  M 320.46 442.41
  A 3.64 3.64 0.0 0 0 316.82 438.77
  L 130.34 438.77
  A 3.64 3.64 0.0 0 0 126.70 442.41
  L 126.70 442.67
  A 3.64 3.64 0.0 0 0 130.34 446.31
  L 316.82 446.31
  A 3.64 3.64 0.0 0 0 320.46 442.67
  L 320.46 442.41
  Z"
/>
<rect fill="#9e754c" x="126.70" y="438.77" width="193.76" height="7.54" rx="3.64"/>
<path fill="#080402" fill-opacity="0.996" d="
  M 322.57 479.50
  A 6.06 6.06 0.0 0 1 316.51 485.56
  L 130.79 485.56
  A 6.06 6.06 0.0 0 1 124.73 479.50
  L 124.73 478.90
  A 6.06 6.06 0.0 0 1 130.79 472.84
  L 316.51 472.84
  A 6.06 6.06 0.0 0 1 322.57 478.90
  L 322.57 479.50
  Z
  M 321.61 478.75
  A 4.70 4.70 0.0 0 0 316.91 474.05
  L 130.55 474.05
  A 4.70 4.70 0.0 0 0 125.85 478.75
  L 125.85 479.57
  A 4.70 4.70 0.0 0 0 130.55 484.27
  L 316.91 484.27
  A 4.70 4.70 0.0 0 0 321.61 479.57
  L 321.61 478.75
  Z"
/>
<path fill="#dbc46b" d="
  M 321.61 479.57
  A 4.70 4.70 0.0 0 1 316.91 484.27
  L 130.55 484.27
  A 4.70 4.70 0.0 0 1 125.85 479.57
  L 125.85 478.75
  A 4.70 4.70 0.0 0 1 130.55 474.05
  L 316.91 474.05
  A 4.70 4.70 0.0 0 1 321.61 478.75
  L 321.61 479.57
  Z
  M 320.36 478.65
  A 3.56 3.56 0.0 0 0 316.80 475.09
  L 130.26 475.09
  A 3.56 3.56 0.0 0 0 126.70 478.65
  L 126.70 479.65
  A 3.56 3.56 0.0 0 0 130.26 483.21
  L 316.80 483.21
  A 3.56 3.56 0.0 0 0 320.36 479.65
  L 320.36 478.65
  Z"
/>
<rect fill="#9e754c" x="126.70" y="475.09" width="193.66" height="8.12" rx="3.56"/>
</svg>
