<?xml version="1.0" encoding="UTF-8" standalone="no"?>
<!DOCTYPE svg PUBLIC "-//W3C//DTD SVG 1.1//EN" "http://www.w3.org/Graphics/SVG/1.1/DTD/svg11.dtd">
<svg xmlns="http://www.w3.org/2000/svg" version="1.1" viewBox="0.00 0.00 48.00 48.00">
<g stroke-width="2.00" fill="none" stroke-linecap="butt">
<path stroke="#8d6935" vector-effect="non-scaling-stroke" d="
  M 43.17 23.42
  A 19.41 19.41 0.0 0 0 23.76 4.01
  A 19.41 19.41 0.0 0 0 4.35 23.42
  A 19.41 19.41 0.0 0 0 23.76 42.83
  A 19.41 19.41 0.0 0 0 43.17 23.42"
/>
<path stroke="#8d6935" vector-effect="non-scaling-stroke" d="
  M 41.65 22.92
  A 17.92 17.92 0.0 0 0 23.73 5.00
  A 17.92 17.92 0.0 0 0 5.81 22.92
  A 17.92 17.92 0.0 0 0 23.73 40.84
  A 17.92 17.92 0.0 0 0 41.65 22.92"
/>
<path stroke="#3e4533" vector-effect="non-scaling-stroke" d="
  M 16.28 17.25
  Q 17.17 16.27 15.85 15.40
  Q 15.57 15.23 15.39 15.17
  A 0.68 0.68 0.0 0 1 15.23 13.95
  Q 17.17 12.70 18.32 14.02
  Q 18.50 14.22 18.65 14.05
  Q 18.76 13.93 18.84 13.75
  Q 18.94 13.52 18.70 13.29
  Q 16.40 11.07 14.47 12.63
  A 2.87 2.83 52.0 0 0 14.01 16.56
  Q 15.65 18.73 18.36 20.79
  A 1.45 1.45 0.0 0 1 18.91 21.66
  Q 19.33 23.57 20.71 23.99
  A 0.84 0.84 0.0 0 0 21.64 22.71
  Q 19.62 19.73 19.62 16.78
  Q 19.63 15.40 18.51 15.66
  A 0.36 0.36 0.0 0 1 18.07 15.28
  Q 18.18 14.05 16.83 14.09
  A 0.44 0.43 -28.3 0 0 16.59 14.88
  Q 17.34 15.40 17.59 16.07
  A 0.79 0.77 56.8 0 1 17.43 16.88
  Q 16.55 17.83 16.49 17.82
  A 0.34 0.34 0.0 0 1 16.28 17.25"
/>
<path stroke="#88866e" vector-effect="non-scaling-stroke" d="
  M 31.24 15.38
  L 25.71 13.43
  A 1.43 1.42 19.2 0 0 23.90 14.30
  L 21.93 19.93
  A 2.05 2.00 52.0 0 0 21.83 20.86
  Q 21.97 22.00 22.96 23.44
  A 1.06 1.06 0.0 0 0 23.87 23.90
  Q 27.17 23.75 29.73 22.28
  A 1.64 1.63 84.8 0 0 30.44 21.42
  L 32.00 16.96
  A 1.24 1.24 0.0 0 0 31.24 15.38"
/>
<path stroke="#81462a" vector-effect="non-scaling-stroke" d="
  M 26.31 37.05
  Q 30.30 37.91 32.17 35.66
  C 33.82 33.66 32.90 29.84 33.33 27.56
  A 1.00 0.98 80.5 0 1 33.82 26.86
  L 35.78 25.73
  A 0.49 0.49 0.0 0 0 35.55 24.81
  Q 34.66 24.77 33.88 25.21
  A 0.46 0.46 0.0 0 1 33.25 24.59
  Q 34.13 23.04 33.46 21.28"
/>
<path stroke="#8d6935" vector-effect="non-scaling-stroke" d="
  M 33.46 21.28
  Q 35.69 20.20 35.15 18.06
  A 0.56 0.55 73.2 0 0 34.43 17.67
  Q 33.81 17.89 33.03 18.60
  A 1.19 1.16 71.5 0 0 32.64 19.41
  Q 32.53 20.88 31.96 21.36
  Q 24.89 27.26 15.87 23.28
  A 0.57 0.57 0.0 0 1 15.82 22.26
  Q 16.42 21.93 17.32 21.85
  A 0.35 0.35 0.0 0 0 17.38 21.17
  Q 15.59 20.69 14.25 22.29
  Q 13.64 23.01 14.87 24.46
  A 0.54 0.54 0.0 0 1 14.29 25.32
  L 12.47 24.68
  A 0.37 0.37 0.0 0 0 11.99 24.91
  L 11.83 25.37
  A 0.48 0.48 0.0 0 0 12.23 26.01
  C 17.75 26.59 12.01 34.82 17.56 36.97
  A 2.11 1.97 -33.0 0 0 18.36 37.11
  L 26.31 37.05"
/>
<path stroke="#e58636" vector-effect="non-scaling-stroke" d="
  M 33.46 21.28
  L 28.59 25.30
  A 0.22 0.21 29.2 0 0 28.70 25.68
  Q 28.72 25.68 28.81 25.70
  A 0.72 0.72 0.0 0 1 29.44 26.37
  C 29.70 30.27 30.45 36.30 26.31 37.05"
/>
<path stroke="#ecc57a" vector-effect="non-scaling-stroke" d="
  M 25.28 15.61
  Q 25.74 16.52 26.05 16.78
  A 0.48 0.48 0.0 0 0 26.83 16.37
  Q 26.76 15.41 25.80 15.04
  A 0.41 0.41 0.0 0 0 25.28 15.61"
/>
<path stroke="#f4bf67" vector-effect="non-scaling-stroke" d="
  M 16.22 35.45
  L 17.16 35.42
  A 0.19 0.19 0.0 0 0 17.34 35.22
  L 17.06 26.99
  A 1.35 0.64 88.0 0 0 16.37 25.66
  L 16.33 25.66
  A 1.35 0.64 88.0 0 0 15.74 27.04
  L 16.02 35.27
  A 0.19 0.19 0.0 0 0 16.22 35.45"
/>
<path stroke="#e58636" vector-effect="non-scaling-stroke" d="
  M 22.03 32.53
  A 0.68 0.68 0.0 0 0 23.06 33.11
  L 26.70 30.98
  A 0.68 0.68 0.0 0 0 26.69 29.81
  L 23.03 27.72
  A 0.68 0.68 0.0 0 0 22.01 28.31
  L 22.03 32.53"
/>
</g>
<path fill="#292929" d="
  M 48.00 0.00
  L 48.00 48.00
  L 0.00 48.00
  L 0.00 0.00
  L 48.00 0.00
  Z
  M 43.17 23.42
  A 19.41 19.41 0.0 0 0 23.76 4.01
  A 19.41 19.41 0.0 0 0 4.35 23.42
  A 19.41 19.41 0.0 0 0 23.76 42.83
  A 19.41 19.41 0.0 0 0 43.17 23.42
  Z"
/>
<path fill="#f1a841" d="
  M 43.17 23.42
  A 19.41 19.41 0.0 0 1 23.76 42.83
  A 19.41 19.41 0.0 0 1 4.35 23.42
  A 19.41 19.41 0.0 0 1 23.76 4.01
  A 19.41 19.41 0.0 0 1 43.17 23.42
  Z
  M 41.65 22.92
  A 17.92 17.92 0.0 0 0 23.73 5.00
  A 17.92 17.92 0.0 0 0 5.81 22.92
  A 17.92 17.92 0.0 0 0 23.73 40.84
  A 17.92 17.92 0.0 0 0 41.65 22.92
  Z"
/>
<path fill="#292929" d="
  M 41.65 22.92
  A 17.92 17.92 0.0 0 1 23.73 40.84
  A 17.92 17.92 0.0 0 1 5.81 22.92
  A 17.92 17.92 0.0 0 1 23.73 5.00
  A 17.92 17.92 0.0 0 1 41.65 22.92
  Z
  M 16.28 17.25
  Q 17.17 16.27 15.85 15.40
  Q 15.57 15.23 15.39 15.17
  A 0.68 0.68 0.0 0 1 15.23 13.95
  Q 17.17 12.70 18.32 14.02
  Q 18.50 14.22 18.65 14.05
  Q 18.76 13.93 18.84 13.75
  Q 18.94 13.52 18.70 13.29
  Q 16.40 11.07 14.47 12.63
  A 2.87 2.83 52.0 0 0 14.01 16.56
  Q 15.65 18.73 18.36 20.79
  A 1.45 1.45 0.0 0 1 18.91 21.66
  Q 19.33 23.57 20.71 23.99
  A 0.84 0.84 0.0 0 0 21.64 22.71
  Q 19.62 19.73 19.62 16.78
  Q 19.63 15.40 18.51 15.66
  A 0.36 0.36 0.0 0 1 18.07 15.28
  Q 18.18 14.05 16.83 14.09
  A 0.44 0.43 -28.3 0 0 16.59 14.88
  Q 17.34 15.40 17.59 16.07
  A 0.79 0.77 56.8 0 1 17.43 16.88
  Q 16.55 17.83 16.49 17.82
  A 0.34 0.34 0.0 0 1 16.28 17.25
  Z
  M 31.24 15.38
  L 25.71 13.43
  A 1.43 1.42 19.2 0 0 23.90 14.30
  L 21.93 19.93
  A 2.05 2.00 52.0 0 0 21.83 20.86
  Q 21.97 22.00 22.96 23.44
  A 1.06 1.06 0.0 0 0 23.87 23.90
  Q 27.17 23.75 29.73 22.28
  A 1.64 1.63 84.8 0 0 30.44 21.42
  L 32.00 16.96
  A 1.24 1.24 0.0 0 0 31.24 15.38
  Z
  M 26.31 37.05
  Q 30.30 37.91 32.17 35.66
  C 33.82 33.66 32.90 29.84 33.33 27.56
  A 1.00 0.98 80.5 0 1 33.82 26.86
  L 35.78 25.73
  A 0.49 0.49 0.0 0 0 35.55 24.81
  Q 34.66 24.77 33.88 25.21
  A 0.46 0.46 0.0 0 1 33.25 24.59
  Q 34.13 23.04 33.46 21.28
  Q 35.69 20.20 35.15 18.06
  A 0.56 0.55 73.2 0 0 34.43 17.67
  Q 33.81 17.89 33.03 18.60
  A 1.19 1.16 71.5 0 0 32.64 19.41
  Q 32.53 20.88 31.96 21.36
  Q 24.89 27.26 15.87 23.28
  A 0.57 0.57 0.0 0 1 15.82 22.26
  Q 16.42 21.93 17.32 21.85
  A 0.35 0.35 0.0 0 0 17.38 21.17
  Q 15.59 20.69 14.25 22.29
  Q 13.64 23.01 14.87 24.46
  A 0.54 0.54 0.0 0 1 14.29 25.32
  L 12.47 24.68
  A 0.37 0.37 0.0 0 0 11.99 24.91
  L 11.83 25.37
  A 0.48 0.48 0.0 0 0 12.23 26.01
  C 17.75 26.59 12.01 34.82 17.56 36.97
  A 2.11 1.97 -33.0 0 0 18.36 37.11
  L 26.31 37.05
  Z"
/>
<path fill="#53613d" d="
  M 16.49 17.82
  Q 16.55 17.83 17.43 16.88
  A 0.79 0.77 56.8 0 0 17.59 16.07
  Q 17.34 15.40 16.59 14.88
  A 0.44 0.43 -28.3 0 1 16.83 14.09
  Q 18.18 14.05 18.07 15.28
  A 0.36 0.36 0.0 0 0 18.51 15.66
  Q 19.63 15.40 19.62 16.78
  Q 19.62 19.73 21.64 22.71
  A 0.84 0.84 0.0 0 1 20.71 23.99
  Q 19.33 23.57 18.91 21.66
  A 1.45 1.45 0.0 0 0 18.36 20.79
  Q 15.65 18.73 14.01 16.56
  A 2.87 2.83 52.0 0 1 14.47 12.63
  Q 16.40 11.07 18.70 13.29
  Q 18.94 13.52 18.84 13.75
  Q 18.76 13.93 18.65 14.05
  Q 18.50 14.22 18.32 14.02
  Q 17.17 12.70 15.23 13.95
  A 0.68 0.68 0.0 0 0 15.39 15.17
  Q 15.57 15.23 15.85 15.40
  Q 17.17 16.27 16.28 17.25
  A 0.34 0.34 0.0 0 0 16.49 17.82
  Z"
/>
<path fill="#e6e2b3" d="
  M 31.24 15.38
  A 1.24 1.24 0.0 0 1 32.00 16.96
  L 30.44 21.42
  A 1.64 1.63 84.8 0 1 29.73 22.28
  Q 27.17 23.75 23.87 23.90
  A 1.06 1.06 0.0 0 1 22.96 23.44
  Q 21.97 22.00 21.83 20.86
  A 2.05 2.00 52.0 0 1 21.93 19.93
  L 23.90 14.30
  A 1.43 1.42 19.2 0 1 25.71 13.43
  L 31.24 15.38
  Z
  M 25.28 15.61
  Q 25.74 16.52 26.05 16.78
  A 0.48 0.48 0.0 0 0 26.83 16.37
  Q 26.76 15.41 25.80 15.04
  A 0.41 0.41 0.0 0 0 25.28 15.61
  Z"
/>
<path fill="#f1a841" d="
  M 25.28 15.61
  A 0.41 0.41 0.0 0 1 25.80 15.04
  Q 26.76 15.41 26.83 16.37
  A 0.48 0.48 0.0 0 1 26.05 16.78
  Q 25.74 16.52 25.28 15.61
  Z"
/>
<path fill="#f1a841" d="
  M 33.46 21.28
  L 28.59 25.30
  A 0.22 0.21 29.2 0 0 28.70 25.68
  Q 28.72 25.68 28.81 25.70
  A 0.72 0.72 0.0 0 1 29.44 26.37
  C 29.70 30.27 30.45 36.30 26.31 37.05
  L 18.36 37.11
  A 2.11 1.97 -33.0 0 1 17.56 36.97
  C 12.01 34.82 17.75 26.59 12.23 26.01
  A 0.48 0.48 0.0 0 1 11.83 25.37
  L 11.99 24.91
  A 0.37 0.37 0.0 0 1 12.47 24.68
  L 14.29 25.32
  A 0.54 0.54 0.0 0 0 14.87 24.46
  Q 13.64 23.01 14.25 22.29
  Q 15.59 20.69 17.38 21.17
  A 0.35 0.35 0.0 0 1 17.32 21.85
  Q 16.42 21.93 15.82 22.26
  A 0.57 0.57 0.0 0 0 15.87 23.28
  Q 24.89 27.26 31.96 21.36
  Q 32.53 20.88 32.64 19.41
  A 1.19 1.16 71.5 0 1 33.03 18.60
  Q 33.81 17.89 34.43 17.67
  A 0.56 0.55 73.2 0 1 35.15 18.06
  Q 35.69 20.20 33.46 21.28
  Z
  M 16.22 35.45
  L 17.16 35.42
  A 0.19 0.19 0.0 0 0 17.34 35.22
  L 17.06 26.99
  A 1.35 0.64 88.0 0 0 16.37 25.66
  L 16.33 25.66
  A 1.35 0.64 88.0 0 0 15.74 27.04
  L 16.02 35.27
  A 0.19 0.19 0.0 0 0 16.22 35.45
  Z
  M 22.03 32.53
  A 0.68 0.68 0.0 0 0 23.06 33.11
  L 26.70 30.98
  A 0.68 0.68 0.0 0 0 26.69 29.81
  L 23.03 27.72
  A 0.68 0.68 0.0 0 0 22.01 28.31
  L 22.03 32.53
  Z"
/>
<path fill="#d9632b" d="
  M 33.46 21.28
  Q 34.13 23.04 33.25 24.59
  A 0.46 0.46 0.0 0 0 33.88 25.21
  Q 34.66 24.77 35.55 24.81
  A 0.49 0.49 0.0 0 1 35.78 25.73
  L 33.82 26.86
  A 1.00 0.98 80.5 0 0 33.33 27.56
  C 32.90 29.84 33.82 33.66 32.17 35.66
  Q 30.30 37.91 26.31 37.05
  C 30.45 36.30 29.70 30.27 29.44 26.37
  A 0.72 0.72 0.0 0 0 28.81 25.70
  Q 28.72 25.68 28.70 25.68
  A 0.22 0.21 29.2 0 1 28.59 25.30
  L 33.46 21.28
  Z"
/>
<path fill="#f6d58d" d="
  M 16.22 35.45
  A 0.19 0.19 0.0 0 1 16.02 35.27
  L 15.74 27.04
  A 1.35 0.64 88.0 0 1 16.33 25.66
  L 16.37 25.66
  A 1.35 0.64 88.0 0 1 17.06 26.99
  L 17.34 35.22
  A 0.19 0.19 0.0 0 1 17.16 35.42
  L 16.22 35.45
  Z"
/>
<path fill="#d9632b" d="
  M 22.03 32.53
  L 22.01 28.31
  A 0.68 0.68 0.0 0 1 23.03 27.72
  L 26.69 29.81
  A 0.68 0.68 0.0 0 1 26.70 30.98
  L 23.06 33.11
  A 0.68 0.68 0.0 0 1 22.03 32.53
  Z"
/>
</svg>
