<?xml version="1.0" encoding="UTF-8" standalone="no"?>
<!DOCTYPE svg PUBLIC "-//W3C//DTD SVG 1.1//EN" "http://www.w3.org/Graphics/SVG/1.1/DTD/svg11.dtd">
<svg xmlns="http://www.w3.org/2000/svg" version="1.1" viewBox="0.00 0.00 64.00 64.00">
<g stroke-width="2.00" fill="none" stroke-linecap="butt">
<path stroke="#51c8b3" vector-effect="non-scaling-stroke" d="
  M 29.52 27.66
  Q 27.53 32.10 27.46 37.15"
/>
<path stroke="#51c8b3" vector-effect="non-scaling-stroke" d="
  M 20.48 29.20
  L 20.52 28.79"
/>
<path stroke="#51c8b3" vector-effect="non-scaling-stroke" d="
  M 20.62 28.30
  Q 20.82 27.37 20.67 26.21"
/>
<path stroke="#5f81cd" stroke-opacity="0.996" vector-effect="non-scaling-stroke" d="
  M 31.23 44.66
  Q 33.72 36.33 32.00 31.92"
/>
<path stroke="#794fe9" vector-effect="non-scaling-stroke" d="
  M 42.58 26.04
  Q 42.47 27.87 43.25 28.90"
/>
<path stroke="#794fe9" vector-effect="non-scaling-stroke" d="
  M 38.45 32.78
  Q 37.33 27.54 37.74 21.60"
/>
<path stroke="#51c8b3" vector-effect="non-scaling-stroke" d="
  M 16.34 25.57
  L 16.34 30.43"
/>
<path stroke="#794fe9" vector-effect="non-scaling-stroke" d="
  M 44.70 29.21
  L 44.70 26.19"
/>
<path stroke="#794fe9" vector-effect="non-scaling-stroke" d="
  M 44.83 24.21
  L 44.90 23.23"
/>
<path stroke="#794fe9" vector-effect="non-scaling-stroke" d="
  M 46.91 27.00
  L 46.88 26.04"
/>
<path stroke="#626fd6" stroke-opacity="0.996" vector-effect="non-scaling-stroke" d="
  M 31.67 51.54
  Q 31.65 51.81 31.71 51.85"
/>
</g>
<path fill="#51e6ab" d="
  M 29.52 27.66
  Q 27.53 32.10 27.46 37.15
  L 22.52 28.02
  A 0.25 0.25 0.0 0 0 22.05 28.16
  Q 22.16 29.16 21.71 30.05
  Q 21.42 30.61 20.90 30.09
  Q 20.60 29.78 20.48 29.20
  L 20.52 28.79
  L 20.62 28.30
  Q 20.82 27.37 20.67 26.21
  C 20.84 23.80 17.77 19.26 14.68 13.73
  A 0.78 0.77 75.5 0 1 15.35 12.58
  L 20.13 12.58
  A 2.34 2.33 75.9 0 1 22.19 13.82
  L 29.52 27.66
  Z"
/>
<path fill="#8747f5" d="
  M 42.58 26.04
  Q 42.47 27.87 43.25 28.90
  Q 43.02 29.54 42.63 29.88
  A 0.58 0.57 55.6 0 1 41.75 29.71
  Q 41.52 29.26 41.32 29.17
  A 0.78 0.67 -61.0 0 0 40.39 29.51
  L 38.45 32.78
  Q 37.33 27.54 37.74 21.60
  L 42.05 13.78
  A 2.34 2.31 14.3 0 1 44.09 12.58
  L 48.93 12.58
  A 0.75 0.74 14.7 0 1 49.58 13.69
  L 42.58 26.04
  Z"
/>
<path fill="#6b57dd" fill-opacity="0.996" d="
  M 37.74 21.60
  Q 37.33 27.54 38.45 32.78
  Q 35.91 38.65 31.23 44.66
  Q 33.72 36.33 32.00 31.92
  L 37.74 21.60
  Z"
/>
<path fill="#51e6ab" d="
  M 16.34 25.57
  L 16.34 30.43
  Q 16.25 30.91 16.07 31.10
  A 0.74 0.69 68.6 0 1 14.88 30.53
  Q 14.86 26.87 14.98 22.56
  A 0.61 0.61 0.0 0 1 16.15 22.35
  Q 16.65 23.60 16.34 25.57
  Z"
/>
<path fill="#8747f5" d="
  M 44.70 29.21
  L 44.70 26.19
  L 44.83 24.21
  L 44.90 23.23
  Q 45.04 22.80 45.44 22.65
  A 0.57 0.57 0.0 0 1 46.22 23.20
  Q 46.05 27.50 46.17 31.90
  A 0.59 0.59 0.0 0 1 45.58 32.50
  L 45.29 32.50
  A 0.38 0.38 0.0 0 1 44.91 32.14
  L 44.70 29.21
  Z"
/>
<path fill="#6b57dd" fill-opacity="0.996" d="
  M 44.90 23.23
  L 44.83 24.21
  L 44.90 23.23
  Z"
/>
<path fill="#51e6ab" d="
  M 18.73 28.57
  L 18.56 32.82
  A 0.79 0.79 0.0 0 1 17.91 33.56
  L 17.89 33.56
  A 0.73 0.73 0.0 0 1 17.12 32.84
  L 17.02 24.86
  A 0.68 0.68 0.0 0 1 17.70 24.17
  L 18.14 24.17
  A 0.48 0.47 89.4 0 1 18.61 24.64
  Q 18.64 25.89 19.46 27.63
  A 0.52 0.52 0.0 0 1 19.29 28.28
  Q 19.27 28.30 19.02 28.30
  A 0.29 0.29 0.0 0 0 18.73 28.57
  Z"
/>
<path fill="#8747f5" d="
  M 46.91 27.00
  L 46.88 26.04
  Q 46.82 25.51 46.99 25.24
  A 0.62 0.61 -30.3 0 1 48.14 25.53
  Q 48.18 27.56 48.17 29.68
  A 0.57 0.57 0.0 0 1 47.60 30.24
  L 47.30 30.24
  A 0.34 0.33 -0.0 0 1 46.96 29.91
  L 46.91 27.00
  Z"
/>
<path fill="#51e6ab" d="
  M 13.50 25.34
  Q 14.11 25.34 14.09 27.48
  Q 14.07 29.61 13.45 29.60
  Q 12.84 29.60 12.86 27.46
  Q 12.88 25.33 13.50 25.34
  Z"
/>
<path fill="#52aabc" fill-opacity="0.996" d="
  M 16.34 30.43
  L 16.34 25.57
  L 16.34 30.43
  Z"
/>
<path fill="#6b57dd" fill-opacity="0.996" d="
  M 46.88 26.04
  L 46.91 27.00
  L 46.88 26.04
  Z"
/>
<path fill="#8747f5" d="
  M 53.57 27.70
  Q 53.57 28.16 51.25 28.35
  A 0.92 0.91 2.9 0 0 50.42 29.09
  Q 50.37 29.39 50.15 29.56
  A 0.78 0.78 0.0 0 1 48.92 29.14
  Q 48.88 28.99 48.85 27.79
  Q 48.83 26.58 48.87 26.42
  A 0.78 0.78 0.0 0 1 50.09 25.96
  Q 50.31 26.13 50.37 26.42
  A 0.92 0.91 -5.0 0 0 51.22 27.13
  Q 53.56 27.24 53.57 27.70
  Z"
/>
<path fill="#52aabc" fill-opacity="0.996" d="
  M 20.67 26.21
  Q 20.82 27.37 20.62 28.30
  Q 20.47 27.23 20.67 26.21
  Z"
/>
<path fill="#6b57dd" fill-opacity="0.996" d="
  M 42.58 26.04
  Q 42.84 27.65 43.23 27.34
  Q 43.94 27.85 43.25 28.90
  Q 42.47 27.87 42.58 26.04
  Z"
/>
<path fill="#6b57dd" fill-opacity="0.996" d="
  M 44.70 26.19
  L 44.70 29.21
  Q 44.37 27.61 44.70 26.19
  Z"
/>
<ellipse fill="#51e6ab" cx="0.00" cy="0.00" transform="translate(11.50,27.58) rotate(-87.6)" rx="1.02" ry="0.70"/>
<path fill="#51e6ab" d="
  M 9.96 27.31
  Q 10.10 27.60 9.84 27.92
  A 0.39 0.35 -28.2 0 1 9.17 27.76
  Q 9.16 27.33 9.71 27.20
  A 0.21 0.21 0.0 0 1 9.96 27.31
  Z"
/>
<path fill="#52aabc" fill-opacity="0.996" d="
  M 32.00 31.92
  Q 33.72 36.33 31.23 44.66
  L 27.46 37.15
  Q 27.53 32.10 29.52 27.66
  L 32.00 31.92
  Z"
/>
<path fill="#5986ce" fill-opacity="0.996" d="
  M 19.99 29.00
  Q 19.71 29.22 19.45 29.06
  Q 19.26 28.94 19.24 28.76
  A 0.12 0.12 0.0 0 1 19.43 28.64
  L 19.99 29.00
  Z"
/>
<path fill="#52aabc" fill-opacity="0.996" d="
  M 20.52 28.79
  L 20.48 29.20
  L 19.99 29.00
  L 20.52 28.79
  Z"
/>
<rect fill="#6b57dd" fill-opacity="0.996" x="-0.67" y="-3.27" transform="translate(38.24,49.31) rotate(-1.2)" width="1.34" height="6.54" rx="0.50"/>
<path fill="#51e6ab" d="
  M 19.05 50.47
  Q 19.76 49.61 20.66 46.95
  A 0.50 0.50 0.0 0 1 21.13 46.61
  L 21.70 46.61
  A 0.36 0.36 0.0 0 1 22.03 47.10
  Q 20.55 50.85 19.83 52.29
  Q 19.63 52.69 19.05 52.69
  Q 18.47 52.69 18.27 52.29
  Q 17.54 50.85 16.06 47.10
  A 0.36 0.36 0.0 0 1 16.39 46.61
  L 16.96 46.61
  A 0.50 0.50 0.0 0 1 17.44 46.95
  Q 18.34 49.61 19.05 50.47
  Z"
/>
<path fill="#8747f5" d="
  M 42.55 46.60
  Q 43.06 46.60 43.25 46.97
  Q 44.05 48.51 45.46 52.02
  A 0.43 0.41 57.4 0 1 45.37 52.47
  Q 45.28 52.57 44.85 52.68
  A 0.28 0.27 -17.5 0 1 44.52 52.51
  Q 44.05 51.32 42.57 51.33
  Q 41.09 51.33 40.62 52.53
  A 0.28 0.27 17.2 0 1 40.29 52.69
  Q 39.86 52.59 39.77 52.49
  A 0.43 0.41 -57.8 0 1 39.68 52.04
  Q 41.07 48.52 41.85 46.98
  Q 42.05 46.60 42.55 46.60
  Z
  M 42.5719 48.6706
  A 0.83 0.65 -87.8 0 0 41.8905 49.4750
  A 0.83 0.65 -87.8 0 0 42.5081 50.3294
  A 0.83 0.65 -87.8 0 0 43.1895 49.5250
  A 0.83 0.65 -87.8 0 0 42.5719 48.6706
  Z"
/>
<rect fill="#8747f5" x="-0.69" y="-2.96" transform="translate(47.02,49.61) rotate(-0.2)" width="1.38" height="5.92" rx="0.51"/>
<path fill="#51e6ab" d="
  M 26.87 50.38
  A 2.42 2.42 0.0 0 1 24.45 52.80
  A 2.42 2.42 0.0 0 1 22.03 50.38
  A 2.42 2.42 0.0 0 1 24.45 47.96
  A 2.42 2.42 0.0 0 1 26.87 50.38
  Z
  M 24.5778 49.0754
  A 1.30 1.05 -84.8 0 0 23.4143 50.2748
  A 1.30 1.05 -84.8 0 0 24.3422 51.6646
  A 1.30 1.05 -84.8 0 0 25.5057 50.4652
  A 1.30 1.05 -84.8 0 0 24.5778 49.0754
  Z"
/>
<path fill="#5986ce" fill-opacity="0.996" d="
  M 31.67 51.54
  Q 31.65 51.81 31.71 51.85
  C 29.64 54.26 26.47 51.62 27.75 49.27
  Q 28.83 47.30 31.27 48.35
  A 0.59 0.59 0.0 0 1 31.06 49.49
  Q 30.67 49.51 29.89 49.22
  A 0.68 0.68 0.0 0 0 29.01 49.62
  Q 28.68 50.54 28.95 51.07
  A 0.80 0.78 68.2 0 0 29.86 51.47
  Q 30.84 51.21 31.67 51.54
  Z"
/>
<path fill="#6b57dd" fill-opacity="0.996" d="
  M 31.71 51.85
  Q 31.65 51.81 31.67 51.54
  Q 32.32 51.21 32.85 50.35
  Q 33.03 50.07 33.33 50.00
  Q 33.71 49.90 34.05 50.07
  A 0.37 0.37 0.0 0 1 34.09 50.71
  Q 33.92 50.82 33.76 51.27
  C 33.56 51.81 34.09 52.10 34.56 52.00
  A 0.40 0.40 0.0 0 0 34.87 51.61
  L 34.87 49.62
  A 0.63 0.62 -8.9 0 0 34.05 49.03
  Q 33.61 49.17 33.14 49.11
  A 0.43 0.43 0.0 0 1 33.01 48.29
  Q 34.58 47.57 35.49 48.24
  C 36.54 49.01 36.32 50.37 36.37 51.77
  A 0.81 0.80 82.6 0 1 35.75 52.58
  Q 33.61 53.10 31.71 51.85
  Z"
/>
</svg>
