<?xml version="1.0" encoding="UTF-8" standalone="no"?>
<!DOCTYPE svg PUBLIC "-//W3C//DTD SVG 1.1//EN" "http://www.w3.org/Graphics/SVG/1.1/DTD/svg11.dtd">
<svg xmlns="http://www.w3.org/2000/svg" version="1.1" viewBox="0.00 0.00 256.00 256.00">
<path fill="#f98828" d="
  M 200.27 77.95
  A 2.71 2.71 0.0 0 1 196.55 78.17
  Q 189.14 71.95 184.72 68.57
  Q 181.03 65.74 177.10 67.17
  C 175.93 67.60 174.64 68.79 173.37 69.63
  A 1.93 1.90 24.7 0 1 172.51 69.94
  C 169.83 70.21 167.63 67.76 169.48 65.38
  C 173.18 60.66 175.33 58.83 170.47 53.32
  Q 166.36 48.66 160.80 42.56
  A 2.65 2.64 48.7 0 1 161.04 38.76
  L 161.12 38.69
  A 2.83 2.83 0.0 0 1 165.02 38.90
  Q 171.75 46.07 173.98 48.28
  C 176.38 50.66 178.89 50.67 179.79 47.00
  Q 181.59 39.71 183.25 32.05
  A 2.82 2.81 -79.1 0 1 186.47 29.87
  L 186.57 29.89
  A 2.77 2.77 0.0 0 1 188.85 33.04
  Q 187.67 40.94 186.97 46.99
  C 186.60 50.26 187.57 53.16 191.63 51.63
  Q 192.64 51.25 202.85 45.85
  A 2.90 2.89 -28.6 0 1 206.71 46.98
  L 206.78 47.11
  A 2.77 2.77 0.0 0 1 205.76 50.87
  Q 200.64 53.87 192.95 58.39
  Q 189.40 60.48 192.11 64.45
  Q 193.07 65.85 200.40 74.09
  A 2.80 2.79 -44.4 0 1 200.35 77.86
  L 200.27 77.95
  Z"
/>
<rect fill="#f98828" x="-38.15" y="-58.18" transform="translate(125.91,105.37) rotate(-0.1)" width="76.30" height="116.36" rx="33.27"/>
<path fill="#f98828" d="
  M 125.93 175.28
  C 137.88 175.29 147.94 172.56 157.11 164.91
  Q 173.52 151.24 173.69 129.01
  Q 173.73 123.86 173.62 118.13
  Q 173.53 113.81 175.08 111.78
  C 178.79 106.90 187.40 109.07 187.54 116.05
  Q 187.73 125.96 187.60 130.76
  C 186.75 161.36 164.14 186.67 133.40 189.09
  A 0.67 0.67 0.0 0 0 132.78 189.76
  L 132.78 208.17
  A 0.61 0.61 0.0 0 0 133.39 208.78
  L 151.44 208.78
  A 0.61 0.51 49.7 0 1 151.62 208.81
  Q 158.51 210.54 160.00 216.79
  C 160.80 220.15 159.42 222.92 155.75 222.86
  Q 154.41 222.84 125.90 222.82
  Q 97.39 222.80 96.05 222.82
  C 92.38 222.87 91.00 220.10 91.81 216.74
  Q 93.31 210.50 100.20 208.77
  A 0.61 0.51 -49.7 0 1 100.38 208.74
  L 118.43 208.77
  A 0.61 0.61 0.0 0 0 119.04 208.16
  L 119.06 189.75
  A 0.67 0.67 0.0 0 0 118.45 189.08
  C 87.71 186.62 65.13 161.28 64.33 130.68
  Q 64.20 125.88 64.41 115.97
  C 64.56 108.99 73.17 106.83 76.87 111.71
  Q 78.42 113.74 78.32 118.06
  Q 78.21 123.79 78.24 128.94
  Q 78.38 151.17 94.77 164.87
  C 103.93 172.53 113.98 175.27 125.93 175.28
  Z"
/>
</svg>
