<?xml version="1.0" encoding="UTF-8" standalone="no"?>
<!DOCTYPE svg PUBLIC "-//W3C//DTD SVG 1.1//EN" "http://www.w3.org/Graphics/SVG/1.1/DTD/svg11.dtd">
<svg xmlns="http://www.w3.org/2000/svg" version="1.1" viewBox="0.00 0.00 32.00 32.00">
<g stroke-width="2.00" fill="none" stroke-linecap="butt">
<path stroke="#485c7f" vector-effect="non-scaling-stroke" d="
  M 28.40 15.99
  A 12.43 12.43 0.0 0 0 15.97 3.56
  A 12.43 12.43 0.0 0 0 3.54 15.99
  A 12.43 12.43 0.0 0 0 15.97 28.42
  A 12.43 12.43 0.0 0 0 28.40 15.99"
/>
<path stroke="#4f6295" vector-effect="non-scaling-stroke" d="
  M 26.96 16.02
  A 10.96 10.96 0.0 0 0 16.00 5.06
  A 10.96 10.96 0.0 0 0 5.04 16.02
  A 10.96 10.96 0.0 0 0 16.00 26.98
  A 10.96 10.96 0.0 0 0 26.96 16.02"
/>
<path stroke="#5f5b96" vector-effect="non-scaling-stroke" d="
  M 10.05 9.44
  Q 8.43 9.98 8.49 10.89"
/>
<path stroke="#1d173e" vector-effect="non-scaling-stroke" d="
  M 8.49 10.89
  Q 7.21 11.56 7.72 13.57"
/>
<path stroke="#2a2b5f" vector-effect="non-scaling-stroke" d="
  M 7.72 13.57
  Q 5.61 21.13 13.01 24.60"
/>
<path stroke="#1d173e" vector-effect="non-scaling-stroke" d="
  M 13.01 24.60
  Q 13.70 25.39 14.72 24.71"
/>
<path stroke="#5f5b96" vector-effect="non-scaling-stroke" d="
  M 14.72 24.71
  Q 15.50 26.32 17.12 25.11"
/>
<path stroke="#1d173e" vector-effect="non-scaling-stroke" d="
  M 17.12 25.11
  Q 28.12 21.62 23.66 10.83"
/>
<path stroke="#5f5b96" vector-effect="non-scaling-stroke" d="
  M 23.66 10.83
  Q 23.35 10.01 22.43 9.73
  A 0.85 0.83 -59.5 0 0 21.58 9.96
  Q 20.48 11.13 20.18 12.44"
/>
<path stroke="#0f0c22" vector-effect="non-scaling-stroke" d="
  M 20.18 12.44
  Q 17.44 9.35 13.21 11.28
  A 0.57 0.57 0.0 0 1 12.61 10.32
  Q 15.64 7.80 19.13 10.03
  Q 19.91 10.53 20.10 10.10
  Q 20.24 9.78 20.20 9.21"
/>
<path stroke="#2a2b5f" vector-effect="non-scaling-stroke" d="
  M 20.20 9.21
  Q 20.80 9.72 21.09 9.58
  A 0.53 0.53 0.0 0 0 21.13 8.65
  Q 15.21 5.08 10.05 9.44"
/>
<path stroke="#272953" vector-effect="non-scaling-stroke" d="
  M 20.20 9.21
  C 16.66 7.26 14.75 8.17 11.17 9.29
  Q 10.72 9.43 10.74 9.91"
/>
<path stroke="#7777c7" vector-effect="non-scaling-stroke" d="
  M 10.74 9.91
  L 10.05 9.44"
/>
<path stroke="#5c598a" vector-effect="non-scaling-stroke" d="
  M 20.18 12.44
  L 16.15 20.67
  A 0.25 0.25 0.0 0 1 15.69 20.66
  L 10.74 9.91"
/>
<path stroke="#6a63a6" vector-effect="non-scaling-stroke" d="
  M 23.66 10.83
  L 17.12 25.11"
/>
<path stroke="#6a63a6" vector-effect="non-scaling-stroke" d="
  M 14.72 24.71
  L 8.49 10.89"
/>
<path stroke="#35336f" vector-effect="non-scaling-stroke" d="
  M 13.01 24.60
  Q 13.20 24.52 13.31 24.49
  A 0.42 0.41 49.7 0 0 13.37 23.70
  Q 7.40 21.30 7.72 13.57"
/>
<path stroke="#272953" vector-effect="non-scaling-stroke" d="
  M 15.2231 14.8288
  A 0.99 0.72 -138.1 0 0 15.4792 16.0259
  A 0.99 0.72 -138.1 0 0 16.6969 16.1512
  A 0.99 0.72 -138.1 0 0 16.4408 14.9541
  A 0.99 0.72 -138.1 0 0 15.2231 14.8288"
/>
</g>
<path fill="#020203" d="
  M 32.00 0.00
  L 32.00 32.00
  L 0.00 32.00
  L 0.00 0.00
  L 32.00 0.00
  Z
  M 28.40 15.99
  A 12.43 12.43 0.0 0 0 15.97 3.56
  A 12.43 12.43 0.0 0 0 3.54 15.99
  A 12.43 12.43 0.0 0 0 15.97 28.42
  A 12.43 12.43 0.0 0 0 28.40 15.99
  Z"
/>
<path fill="#8db5fb" d="
  M 28.40 15.99
  A 12.43 12.43 0.0 0 1 15.97 28.42
  A 12.43 12.43 0.0 0 1 3.54 15.99
  A 12.43 12.43 0.0 0 1 15.97 3.56
  A 12.43 12.43 0.0 0 1 28.40 15.99
  Z
  M 26.96 16.02
  A 10.96 10.96 0.0 0 0 16.00 5.06
  A 10.96 10.96 0.0 0 0 5.04 16.02
  A 10.96 10.96 0.0 0 0 16.00 26.98
  A 10.96 10.96 0.0 0 0 26.96 16.02
  Z"
/>
<path fill="#110e2e" d="
  M 26.96 16.02
  A 10.96 10.96 0.0 0 1 16.00 26.98
  A 10.96 10.96 0.0 0 1 5.04 16.02
  A 10.96 10.96 0.0 0 1 16.00 5.06
  A 10.96 10.96 0.0 0 1 26.96 16.02
  Z
  M 10.05 9.44
  Q 8.43 9.98 8.49 10.89
  Q 7.21 11.56 7.72 13.57
  Q 5.61 21.13 13.01 24.60
  Q 13.70 25.39 14.72 24.71
  Q 15.50 26.32 17.12 25.11
  Q 28.12 21.62 23.66 10.83
  Q 23.35 10.01 22.43 9.73
  A 0.85 0.83 -59.5 0 0 21.58 9.96
  Q 20.48 11.13 20.18 12.44
  Q 17.44 9.35 13.21 11.28
  A 0.57 0.57 0.0 0 1 12.61 10.32
  Q 15.64 7.80 19.13 10.03
  Q 19.91 10.53 20.10 10.10
  Q 20.24 9.78 20.20 9.21
  Q 20.80 9.72 21.09 9.58
  A 0.53 0.53 0.0 0 0 21.13 8.65
  Q 15.21 5.08 10.05 9.44
  Z"
/>
<path fill="#424790" d="
  M 20.20 9.21
  C 16.66 7.26 14.75 8.17 11.17 9.29
  Q 10.72 9.43 10.74 9.91
  L 10.05 9.44
  Q 15.21 5.08 21.13 8.65
  A 0.53 0.53 0.0 0 1 21.09 9.58
  Q 20.80 9.72 20.20 9.21
  Z"
/>
<path fill="#0c0a16" d="
  M 20.20 9.21
  Q 20.24 9.78 20.10 10.10
  Q 19.91 10.53 19.13 10.03
  Q 15.64 7.80 12.61 10.32
  A 0.57 0.57 0.0 0 0 13.21 11.28
  Q 17.44 9.35 20.18 12.44
  L 16.15 20.67
  A 0.25 0.25 0.0 0 1 15.69 20.66
  L 10.74 9.91
  Q 10.72 9.43 11.17 9.29
  C 14.75 8.17 16.66 7.26 20.20 9.21
  Z
  M 15.2231 14.8288
  A 0.99 0.72 -138.1 0 0 15.4792 16.0259
  A 0.99 0.72 -138.1 0 0 16.6969 16.1512
  A 0.99 0.72 -138.1 0 0 16.4408 14.9541
  A 0.99 0.72 -138.1 0 0 15.2231 14.8288
  Z"
/>
<path fill="#aca7fe" d="
  M 10.05 9.44
  L 10.74 9.91
  L 15.69 20.66
  A 0.25 0.25 0.0 0 0 16.15 20.67
  L 20.18 12.44
  Q 20.48 11.13 21.58 9.96
  A 0.85 0.83 -59.5 0 1 22.43 9.73
  Q 23.35 10.01 23.66 10.83
  L 17.12 25.11
  Q 15.50 26.32 14.72 24.71
  L 8.49 10.89
  Q 8.43 9.98 10.05 9.44
  Z"
/>
<path fill="#281f4d" d="
  M 8.49 10.89
  L 14.72 24.71
  Q 13.70 25.39 13.01 24.60
  Q 13.20 24.52 13.31 24.49
  A 0.42 0.41 49.7 0 0 13.37 23.70
  Q 7.40 21.30 7.72 13.57
  Q 7.21 11.56 8.49 10.89
  Z"
/>
<path fill="#281f4d" d="
  M 17.12 25.11
  L 23.66 10.83
  Q 28.12 21.62 17.12 25.11
  Z"
/>
<path fill="#424790" d="
  M 13.01 24.60
  Q 5.61 21.13 7.72 13.57
  Q 7.40 21.30 13.37 23.70
  A 0.42 0.41 49.7 0 1 13.31 24.49
  Q 13.20 24.52 13.01 24.60
  Z"
/>
<ellipse fill="#424790" cx="0.00" cy="0.00" transform="translate(15.96,15.49) rotate(-138.1)" rx="0.99" ry="0.72"/>
</svg>
