<?xml version="1.0" encoding="UTF-8" standalone="no"?>
<!DOCTYPE svg PUBLIC "-//W3C//DTD SVG 1.1//EN" "http://www.w3.org/Graphics/SVG/1.1/DTD/svg11.dtd">
<svg xmlns="http://www.w3.org/2000/svg" version="1.1" viewBox="0.00 0.00 128.00 128.00">
<g stroke-width="2.00" fill="none" stroke-linecap="butt">
<path stroke="#69f355" vector-effect="non-scaling-stroke" d="
  M 93.98 14.86
  Q 89.83 24.89 85.24 34.74
  Q 85.05 35.14 84.17 35.21"
/>
<path stroke="#82f54d" vector-effect="non-scaling-stroke" d="
  M 54.88 42.16
  L 52.94 38.86"
/>
<path stroke="#69f355" vector-effect="non-scaling-stroke" d="
  M 52.94 38.86
  L 45.27 25.84"
/>
<path stroke="#82f54d" vector-effect="non-scaling-stroke" d="
  M 62.36 55.44
  Q 58.65 57.96 57.84 59.13
  Q 55.49 62.53 52.48 65.62"
/>
<path stroke="#82f54d" vector-effect="non-scaling-stroke" d="
  M 45.77 53.82
  L 41.50 46.09"
/>
<path stroke="#38f063" vector-effect="non-scaling-stroke" d="
  M 52.94 38.86
  Q 49.35 37.70 47.19 39.91
  Q 44.31 42.87 41.50 46.09"
/>
<path stroke="#69f355" vector-effect="non-scaling-stroke" d="
  M 41.50 46.09
  L 37.42 37.99"
/>
<path stroke="#69f355" vector-effect="non-scaling-stroke" d="
  M 24.32 62.64
  L 29.38 76.40
  A 0.52 0.13 17.8 0 0 29.74 76.62
  Q 29.84 76.66 29.96 76.76"
/>
<path stroke="#69f355" vector-effect="non-scaling-stroke" d="
  M 60.68 79.28
  L 68.69 66.76"
/>
<path stroke="#69f355" vector-effect="non-scaling-stroke" d="
  M 113.70 53.19
  Q 113.24 53.00 112.96 53.49
  Q 106.63 64.32 102.46 70.74
  Q 102.29 71.00 102.24 71.71"
/>
<path stroke="#69f355" vector-effect="non-scaling-stroke" d="
  M 86.03 94.91
  Q 85.24 94.76 85.04 95.01
  Q 81.47 99.48 77.53 103.61
  A 0.50 0.46 -20.8 0 0 77.39 103.89
  L 77.36 104.16"
/>
<path stroke="#38f063" vector-effect="non-scaling-stroke" d="
  M 15.87 100.58
  Q 15.88 99.74 15.19 98.86
  C 13.88 97.17 13.35 94.91 12.21 93.02
  Q 11.89 92.50 11.13 92.41"
/>
</g>
<path fill="#b3f73e" d="
  M 93.98 14.86
  Q 89.83 24.89 85.24 34.74
  Q 85.05 35.14 84.17 35.21
  Q 81.17 31.00 76.68 28.93
  C 69.14 25.46 59.34 37.24 54.88 42.16
  L 52.94 38.86
  L 45.27 25.84
  C 51.19 16.51 60.17 8.55 71.04 6.87
  Q 83.66 4.91 93.98 14.86
  Z"
/>
<path fill="#1eee6b" d="
  M 45.27 25.84
  L 52.94 38.86
  Q 49.35 37.70 47.19 39.91
  Q 44.31 42.87 41.50 46.09
  L 37.42 37.99
  Q 33.51 29.80 28.39 24.12
  Q 27.60 23.25 25.17 21.99
  A 1.26 1.26 0.0 0 0 24.23 21.89
  Q 21.83 22.53 21.31 24.83
  Q 19.67 32.09 20.10 39.01
  Q 20.84 50.95 24.32 62.64
  L 29.38 76.40
  A 0.52 0.13 17.8 0 0 29.74 76.62
  Q 29.84 76.66 29.96 76.76
  Q 29.73 77.25 29.97 77.77
  C 32.59 83.44 37.37 92.55 43.09 94.87
  Q 45.71 95.93 47.22 94.74
  Q 54.29 89.14 60.68 79.28
  L 68.69 66.76
  Q 69.25 65.61 69.82 64.63
  Q 77.81 50.86 84.47 36.40
  A 0.76 0.69 -36.2 0 0 84.54 36.05
  Q 84.51 35.52 84.17 35.21
  Q 85.05 35.14 85.24 34.74
  Q 89.83 24.89 93.98 14.86
  Q 100.91 5.55 111.24 6.90
  C 123.07 8.46 130.25 20.76 124.86 31.63
  Q 119.53 42.40 113.82 52.08
  Q 113.58 52.48 113.70 53.19
  Q 113.24 53.00 112.96 53.49
  Q 106.63 64.32 102.46 70.74
  Q 102.29 71.00 102.24 71.71
  Q 101.88 71.91 101.70 72.18
  Q 94.35 83.38 86.04 93.89
  Q 85.83 94.16 85.82 94.39
  Q 85.81 94.72 86.03 94.91
  Q 85.24 94.76 85.04 95.01
  Q 81.47 99.48 77.53 103.61
  A 0.50 0.46 -20.8 0 0 77.39 103.89
  L 77.36 104.16
  Q 77.12 104.32 76.90 104.37
  Q 76.57 104.45 76.48 104.55
  Q 67.30 115.33 55.70 119.42
  C 42.77 123.99 30.63 119.21 22.21 109.29
  Q 18.81 105.28 15.87 100.58
  Q 15.88 99.74 15.19 98.86
  C 13.88 97.17 13.35 94.91 12.21 93.02
  Q 11.89 92.50 11.13 92.41
  Q 11.60 92.40 11.35 91.74
  Q 1.83 66.54 2.27 39.74
  C 2.41 31.59 3.70 22.71 7.60 15.66
  C 12.68 6.46 22.81 3.79 31.37 10.41
  Q 36.38 14.28 39.45 18.06
  Q 42.35 21.63 45.27 25.84
  Z"
/>
<path fill="#51f25b" d="
  M 52.94 38.86
  L 54.88 42.16
  L 62.36 55.44
  Q 58.65 57.96 57.84 59.13
  Q 55.49 62.53 52.48 65.62
  L 45.77 53.82
  L 41.50 46.09
  Q 44.31 42.87 47.19 39.91
  Q 49.35 37.70 52.94 38.86
  Z"
/>
<path fill="#b3f73e" d="
  M 41.50 46.09
  L 45.77 53.82
  L 29.96 76.76
  Q 29.84 76.66 29.74 76.62
  A 0.52 0.13 17.8 0 1 29.38 76.40
  L 24.32 62.64
  L 37.42 37.99
  L 41.50 46.09
  Z"
/>
<path fill="#b3f73e" d="
  M 113.70 53.19
  Q 119.79 72.49 119.86 92.61
  Q 119.90 102.73 116.41 110.65
  C 112.14 120.36 102.48 124.00 93.18 118.52
  Q 83.87 113.04 77.36 104.16
  L 77.39 103.89
  A 0.50 0.46 -20.8 0 1 77.53 103.61
  Q 81.47 99.48 85.04 95.01
  Q 85.24 94.76 86.03 94.91
  C 88.05 97.64 101.11 116.23 104.58 106.81
  Q 106.01 102.95 105.98 97.75
  Q 105.92 84.49 102.24 71.71
  Q 102.29 71.00 102.46 70.74
  Q 106.63 64.32 112.96 53.49
  Q 113.24 53.00 113.70 53.19
  Z"
/>
<path fill="#b3f73e" d="
  M 68.69 66.76
  L 60.68 79.28
  L 52.48 65.62
  Q 55.49 62.53 57.84 59.13
  Q 58.65 57.96 62.36 55.44
  L 68.69 66.76
  Z"
/>
<path fill="#51f25b" d="
  M 11.13 92.41
  Q 11.89 92.50 12.21 93.02
  C 13.35 94.91 13.88 97.17 15.19 98.86
  Q 15.88 99.74 15.87 100.58
  L 6.45 118.17
  A 2.39 2.37 -62.3 0 1 3.26 119.18
  L 3.18 119.14
  A 2.67 2.59 24.3 0 1 1.88 115.85
  L 11.13 92.41
  Z"
/>
</svg>
