<?xml version="1.0" encoding="UTF-8" standalone="no"?>
<!DOCTYPE svg PUBLIC "-//W3C//DTD SVG 1.1//EN" "http://www.w3.org/Graphics/SVG/1.1/DTD/svg11.dtd">
<svg xmlns="http://www.w3.org/2000/svg" version="1.1" viewBox="0.00 0.00 250.00 246.00">
<g stroke-width="2.00" fill="none" stroke-linecap="butt">
<path stroke="#7d848f" vector-effect="non-scaling-stroke" d="
  M 39.31 56.72
  Q 34.65 62.17 33.77 69.43"
/>
<path stroke="#c5d4e0" vector-effect="non-scaling-stroke" d="
  M 33.77 69.43
  Q 32.39 70.78 32.38 73.00
  Q 32.27 153.59 32.23 174.25
  Q 32.22 177.90 33.72 180.56
  A 0.20 0.20 0.0 0 0 34.09 180.49
  Q 34.28 179.40 33.95 178.28"
/>
<path stroke="#7d848f" vector-effect="non-scaling-stroke" d="
  M 33.95 178.28
  Q 34.25 180.28 35.56 181.62
  A 1.11 1.10 -65.5 0 1 35.87 182.46
  Q 35.77 184.36 37.17 186.33
  Q 41.25 192.07 46.98 195.30
  Q 64.89 205.39 90.21 220.27
  Q 105.27 229.12 122.48 238.84
  A 4.18 3.72 -19.7 0 0 123.40 239.21
  Q 132.13 241.48 139.65 237.97"
/>
<path stroke="#afbdcc" vector-effect="non-scaling-stroke" d="
  M 139.65 237.97
  Q 144.56 236.88 149.02 234.09
  Q 150.96 232.87 155.22 230.38
  Q 158.36 228.53 160.92 225.93"
/>
<path stroke="#7d848f" vector-effect="non-scaling-stroke" d="
  M 160.92 225.93
  L 175.05 217.80"
/>
<path stroke="#afbdcc" vector-effect="non-scaling-stroke" d="
  M 175.05 217.80
  Q 183.91 214.23 191.66 208.47"
/>
<path stroke="#7d848f" vector-effect="non-scaling-stroke" d="
  M 191.66 208.47
  Q 195.21 206.51 198.77 204.28
  Q 201.90 202.33 205.89 200.14
  C 212.74 196.39 220.21 192.44 224.55 185.57"
/>
<path stroke="#8c9aad" vector-effect="non-scaling-stroke" d="
  M 224.55 185.57
  Q 228.09 180.07 228.09 173.50
  Q 228.10 87.63 228.10 85.33
  Q 228.07 70.18 227.26 66.72
  Q 224.98 56.90 214.18 50.52
  C 192.30 37.61 175.62 28.02 147.68 11.25
  Q 140.34 6.85 137.65 6.22
  Q 132.06 4.91 126.40 5.69
  Q 122.69 6.20 114.15 11.12
  Q 100.92 18.76 87.86 26.57
  Q 82.94 29.51 48.06 50.06
  Q 42.21 53.51 39.31 56.72"
/>
<path stroke="#172948" vector-effect="non-scaling-stroke" d="
  M 224.55 185.57
  Q 225.96 180.50 225.29 175.68
  A 0.35 0.34 46.5 0 0 224.61 175.66
  Q 223.43 181.80 219.37 186.24"
/>
<path stroke="#455c83" vector-effect="non-scaling-stroke" d="
  M 219.37 186.24
  Q 224.05 179.26 224.04 168.75
  Q 224.02 152.49 223.93 136.20"
/>
<path stroke="#5d7599" vector-effect="non-scaling-stroke" d="
  M 223.93 136.20
  Q 224.00 104.24 223.90 72.25
  Q 223.89 68.92 221.77 63.71
  Q 219.68 58.57 215.79 56.73"
/>
<path stroke="#738cad" vector-effect="non-scaling-stroke" d="
  M 215.79 56.73
  Q 208.58 51.86 196.77 45.50
  Q 196.26 45.23 192.40 42.68
  C 188.35 40.00 183.54 37.78 180.06 35.47
  C 174.55 31.84 168.88 29.04 163.76 25.72
  C 157.73 21.81 150.44 18.08 144.38 14.42
  Q 138.33 10.77 135.80 10.20
  Q 127.15 8.26 119.86 12.60
  Q 95.64 27.03 89.76 30.35
  C 85.10 32.98 81.55 35.68 77.37 37.74
  C 72.69 40.05 65.38 45.40 59.49 48.42
  C 54.96 50.74 51.96 52.93 47.21 55.60
  C 45.49 56.57 43.97 58.01 42.45 59.39"
/>
<path stroke="#172948" vector-effect="non-scaling-stroke" d="
  M 42.45 59.39
  Q 43.15 57.93 42.84 56.85
  A 0.85 0.84 -3.3 0 0 42.17 56.26
  Q 41.04 56.07 39.31 56.72"
/>
<path stroke="#7b91b5" vector-effect="non-scaling-stroke" d="
  M 223.93 136.20
  L 222.53 139.30
  A 0.89 0.89 0.0 0 1 221.01 139.47
  L 220.06 138.20"
/>
<path stroke="#586f92" vector-effect="non-scaling-stroke" d="
  M 220.06 138.20
  L 219.94 80.50"
/>
<path stroke="#a9c1df" vector-effect="non-scaling-stroke" d="
  M 215.79 56.73
  L 220.03 63.39
  A 0.34 0.34 0.0 0 1 219.67 63.90
  Q 219.24 63.80 218.96 63.98
  A 0.38 0.38 0.0 0 1 218.54 63.98
  L 215.99 62.27"
/>
<path stroke="#7a96b7" vector-effect="non-scaling-stroke" d="
  M 215.99 62.27
  Q 212.60 58.68 210.11 57.38
  Q 202.92 53.61 196.08 49.24
  Q 192.04 46.66 187.90 44.25
  Q 170.06 33.86 154.96 25.03
  C 149.49 21.83 144.17 18.04 137.45 15.05
  C 131.00 12.18 124.83 14.13 119.14 17.40
  Q 106.61 24.60 94.47 32.08"
/>
<path stroke="#738cad" vector-effect="non-scaling-stroke" d="
  M 94.47 32.08
  Q 84.35 38.02 74.25 43.76
  Q 69.76 46.32 64.52 49.55
  C 58.19 53.46 50.74 56.98 45.50 61.74
  Q 44.11 63.01 43.07 65.81"
/>
<path stroke="#6b809e" vector-effect="non-scaling-stroke" d="
  M 43.07 65.81
  L 42.33 67.05"
/>
<path stroke="#91a8c9" vector-effect="non-scaling-stroke" d="
  M 42.33 67.05
  Q 40.35 73.56 40.21 79.08
  Q 40.10 83.04 40.14 101.99
  Q 40.15 106.95 39.41 111.90
  A 0.14 0.14 0.0 0 1 39.14 111.91
  L 37.98 107.76"
/>
<path stroke="#738cad" vector-effect="non-scaling-stroke" d="
  M 37.98 107.76
  L 37.98 67.69"
/>
<path stroke="#63768e" vector-effect="non-scaling-stroke" d="
  M 37.98 67.69
  Q 39.53 63.03 42.45 59.39"
/>
<path stroke="#172948" vector-effect="non-scaling-stroke" d="
  M 37.98 67.69
  Q 36.01 70.49 36.02 73.50
  Q 36.16 154.14 36.10 157.33
  C 36.07 158.85 35.76 159.85 35.99 161.24
  C 36.69 165.50 36.51 170.12 37.65 174.48"
/>
<path stroke="#354664" vector-effect="non-scaling-stroke" d="
  M 37.65 174.48
  Q 38.16 180.56 41.37 185.04
  Q 43.38 187.85 47.80 190.67
  Q 51.99 193.34 55.26 195.01
  C 59.92 197.40 63.70 200.41 68.09 202.70
  C 74.69 206.15 81.06 210.42 86.38 213.35
  Q 97.98 219.73 105.92 224.74
  C 108.77 226.53 112.04 227.87 115.07 230.09
  C 120.10 233.77 127.88 237.51 133.72 235.32
  C 137.35 233.95 139.92 233.62 143.71 231.90
  A 1.38 1.35 -88.4 0 0 144.38 231.25
  Q 144.59 230.84 144.91 230.66
  Q 160.49 222.19 161.99 221.21
  Q 170.74 215.46 174.11 213.61
  Q 185.07 207.58 187.37 205.65
  A 3.66 3.56 12.1 0 1 188.23 205.11
  Q 195.14 202.01 201.67 197.80
  Q 204.49 195.98 206.81 194.85
  C 211.34 192.64 215.46 190.56 219.37 186.24"
/>
<path stroke="#3a4c67" vector-effect="non-scaling-stroke" d="
  M 191.66 208.47
  Q 189.49 209.03 186.64 210.65
  Q 179.50 214.68 175.05 217.80"
/>
<path stroke="#3a4c67" vector-effect="non-scaling-stroke" d="
  M 160.92 225.93
  L 139.65 237.97"
/>
<path stroke="#50647a" vector-effect="non-scaling-stroke" d="
  M 33.95 178.28
  L 33.77 69.43"
/>
<path stroke="#40567c" vector-effect="non-scaling-stroke" d="
  M 205.32 191.06
  C 211.72 187.71 217.55 184.16 219.42 177.45
  Q 220.14 174.86 220.07 168.00
  Q 219.93 153.10 220.06 138.20"
/>
<path stroke="#455c83" vector-effect="non-scaling-stroke" d="
  M 37.65 174.48
  L 37.98 107.76"
/>
<path stroke="#647fa3" vector-effect="non-scaling-stroke" d="
  M 215.99 62.27
  C 220.47 66.89 220.50 74.45 219.94 80.50"
/>
<path stroke="#29446a" vector-effect="non-scaling-stroke" d="
  M 219.94 80.50
  Q 217.67 87.25 217.69 95.60
  Q 217.75 113.47 217.74 114.18
  Q 217.67 117.96 217.05 119.78
  A 3.02 3.02 0.0 0 1 214.29 121.83
  L 205.03 122.14
  A 1.61 1.61 0.0 0 0 204.16 122.44
  L 200.00 125.54"
/>
<path stroke="#5a7195" vector-effect="non-scaling-stroke" d="
  M 200.00 125.54
  Q 200.16 124.55 201.08 124.04
  Q 202.12 123.47 202.41 122.87
  Q 202.79 122.09 203.58 121.72
  A 0.87 0.87 0.0 0 0 204.08 120.95
  Q 204.08 120.83 204.08 120.74
  A 0.61 0.60 88.5 0 1 204.65 120.13
  Q 207.84 119.93 208.03 118.05"
/>
<path stroke="#7f9ab3" vector-effect="non-scaling-stroke" d="
  M 208.03 118.05
  L 214.71 117.92
  A 1.21 1.20 88.6 0 0 215.89 116.67
  L 215.84 115.21
  A 1.16 1.15 87.1 0 0 214.61 114.09
  Q 212.25 114.24 208.76 113.84
  Q 207.70 113.72 207.82 112.76
  A 0.58 0.57 -86.5 0 0 207.25 112.11
  L 204.98 112.11
  A 0.95 0.95 0.0 0 1 204.03 111.07
  Q 204.16 109.83 202.96 109.88
  A 0.80 0.80 0.0 0 1 202.15 109.22
  Q 202.03 108.52 201.67 108.05"
/>
<path stroke="#647fa3" vector-effect="non-scaling-stroke" d="
  M 201.67 108.05
  Q 201.61 106.61 200.40 105.99
  A 0.99 0.99 0.0 0 1 199.86 105.06
  Q 199.94 103.78 199.50 102.53
  A 2.99 2.87 15.9 0 0 198.97 101.62
  Q 197.88 100.36 197.62 98.99
  A 2.84 2.78 -68.2 0 0 197.15 97.86
  C 195.68 95.72 195.09 93.94 192.31 94.16
  A 1.59 1.58 23.8 0 0 191.50 94.47
  Q 189.02 96.40 187.53 99.24"
/>
<path stroke="#395a83" vector-effect="non-scaling-stroke" d="
  M 187.53 99.24
  Q 190.69 76.17 198.36 54.23
  A 0.64 0.64 0.0 0 0 198.07 53.47
  C 191.00 49.49 185.79 45.58 178.58 41.57
  Q 175.12 39.65 169.09 35.67
  Q 165.23 33.12 142.04 19.78
  Q 136.11 16.36 132.71 16.03
  Q 127.23 15.50 121.11 19.10
  Q 116.84 21.61 104.57 29.22
  A 0.30 0.29 -46.5 0 0 104.58 29.73
  Q 115.53 35.62 127.15 39.67
  A 0.96 0.95 77.9 0 1 127.56 39.94
  L 129.97 42.53
  A 0.60 0.60 0.0 0 0 130.84 42.54
  Q 132.72 40.62 133.46 38.82
  A 0.25 0.25 0.0 0 1 133.93 38.83
  L 137.69 49.48"
/>
<path stroke="#7f8686" vector-effect="non-scaling-stroke" d="
  M 137.69 49.48
  Q 135.28 50.63 134.50 49.27
  Q 132.85 46.42 131.87 44.90
  A 1.66 1.66 0.0 0 0 129.03 44.96
  L 126.30 49.69
  A 1.29 1.29 0.0 0 1 124.20 49.88
  L 121.22 46.37"
/>
<path stroke="#8296af" vector-effect="non-scaling-stroke" d="
  M 121.22 46.37
  Q 121.13 44.73 121.30 43.35
  A 1.92 1.88 0.2 0 0 119.18 41.26
  Q 118.03 41.39 117.37 42.92
  A 1.36 1.32 -65.0 0 0 117.97 44.66
  Q 120.51 45.93 119.69 49.48"
/>
<path stroke="#7f8686" vector-effect="non-scaling-stroke" d="
  M 119.69 49.48
  Q 119.81 51.71 118.83 52.84
  A 1.56 1.48 43.2 0 1 116.61 52.85
  Q 114.65 50.88 112.88 50.26
  A 0.47 0.47 0.0 0 0 112.28 50.83
  L 114.15 57.48
  A 1.95 1.95 0.0 0 0 116.83 58.73
  Q 121.48 56.60 125.80 56.55
  A 0.20 0.20 0.0 0 1 126.00 56.78
  L 125.91 57.40
  A 0.06 0.04 7.0 0 1 125.86 57.43
  Q 122.67 57.50 120.22 59.22"
/>
<path stroke="#8296af" vector-effect="non-scaling-stroke" d="
  M 120.22 59.22
  L 117.30 60.19
  A 1.49 1.48 -10.2 0 0 116.28 61.65
  L 116.30 62.16
  A 0.92 0.92 0.0 0 0 117.56 62.99
  L 122.02 61.22"
/>
<path stroke="#2e4971" vector-effect="non-scaling-stroke" d="
  M 122.02 61.22
  L 116.69 63.89
  A 0.88 0.87 -10.1 0 0 116.22 64.55
  Q 115.70 68.29 113.76 73.47
  Q 112.94 75.67 113.03 79.16
  A 0.72 0.72 0.0 0 0 113.67 79.85
  L 122.28 80.75"
/>
<path stroke="#7a96b7" vector-effect="non-scaling-stroke" d="
  M 122.28 80.75
  L 116.85 81.03
  A 1.40 1.39 -2.7 0 0 115.53 82.47
  L 115.55 83.21
  A 1.51 1.50 -88.0 0 0 116.89 84.65
  L 121.43 85.16"
/>
<path stroke="#5b769b" vector-effect="non-scaling-stroke" d="
  M 121.43 85.16
  Q 123.24 85.03 124.03 85.47
  Q 126.14 86.62 124.36 87.84"
/>
<path stroke="#2e4971" vector-effect="non-scaling-stroke" d="
  M 124.36 87.84
  C 120.01 84.73 116.12 85.29 111.59 88.14
  Q 108.38 90.16 104.81 91.87
  A 0.68 0.68 0.0 0 1 103.91 91.55
  L 101.36 86.00
  A 0.29 0.24 -85.3 0 0 101.31 85.93
  Q 99.99 84.52 99.32 82.12
  A 2.23 2.22 20.9 0 0 99.05 81.52
  C 93.25 72.67 85.64 71.79 75.54 71.36
  A 2.13 2.05 58.6 0 1 74.70 71.14
  Q 64.48 66.18 57.10 58.08
  A 0.42 0.41 -40.5 0 1 57.15 57.47
  C 63.11 52.81 70.26 49.72 76.05 45.73
  Q 81.61 41.90 90.09 37.33
  Q 93.54 35.47 94.47 32.08"
/>
<path stroke="#4e6184" vector-effect="non-scaling-stroke" d="
  M 182.68 197.73
  Q 184.17 197.92 184.32 196.24
  Q 184.53 193.78 184.16 191.33
  Q 183.86 189.41 182.28 190.41"
/>
<path stroke="#778ca7" vector-effect="non-scaling-stroke" d="
  M 163.43 167.09
  Q 160.51 163.26 155.77 163.28
  Q 151.66 163.29 147.16 163.52
  A 1.42 1.41 88.5 0 0 145.81 164.95
  L 146.07 183.90"
/>
<path stroke="#778ca7" vector-effect="non-scaling-stroke" d="
  M 141.66 175.51
  Q 143.03 171.40 141.97 167.21
  A 1.86 1.86 0.0 0 0 141.56 166.43
  Q 139.27 163.83 136.85 163.68
  Q 130.75 163.28 125.77 162.72
  A 0.98 0.98 0.0 0 0 124.68 163.68
  L 124.45 181.07"
/>
<path stroke="#8894a7" vector-effect="non-scaling-stroke" d="
  M 122.07 183.83
  C 122.16 182.55 121.72 182.37 121.22 181.50
  Q 119.09 177.81 116.40 175.08
  A 2.22 2.21 40.9 0 1 116.19 172.23
  L 121.43 165.07
  A 1.09 1.09 0.0 0 0 120.51 163.33
  L 117.62 163.42
  A 1.75 1.74 -73.0 0 0 116.27 164.14
  L 113.77 167.55
  A 1.84 1.84 0.0 0 1 110.60 167.20
  Q 108.55 162.46 103.45 163.63
  A 0.64 0.64 0.0 0 0 103.03 164.56
  L 104.28 166.90"
/>
<path stroke="#455d7f" vector-effect="non-scaling-stroke" d="
  M 80.12 131.36
  Q 82.14 126.20 82.59 119.88"
/>
<path stroke="#6e86a6" vector-effect="non-scaling-stroke" d="
  M 82.59 119.88
  Q 83.49 118.85 84.18 118.64
  Q 84.99 118.40 85.40 119.52
  Q 85.69 120.28 85.67 121.21"
/>
<path stroke="#40567c" vector-effect="non-scaling-stroke" d="
  M 85.67 121.21
  Q 85.62 129.79 88.07 138.00
  A 0.29 0.06 55.9 0 1 88.10 138.07
  L 90.25 142.06
  A 0.93 0.92 -43.8 0 0 91.86 142.09
  Q 95.14 136.59 96.08 130.79"
/>
<path stroke="#455d7f" vector-effect="non-scaling-stroke" d="
  M 117.58 153.08
  Q 137.13 158.23 145.73 140.97
  Q 146.27 139.90 148.56 135.81"
/>
<path stroke="#738aa2" vector-effect="non-scaling-stroke" d="
  M 173.92 96.54
  Q 171.01 102.93 167.43 109.15
  Q 166.63 110.55 165.64 111.78
  Q 165.31 112.18 164.86 112.48
  A 1.16 1.15 -13.0 0 0 164.35 113.29
  Q 163.91 116.72 160.93 120.03
  A 1.03 0.99 -14.3 0 0 160.72 120.37
  L 159.45 123.73
  A 0.67 0.65 0.7 0 1 159.05 124.11
  Q 158.11 124.42 158.01 126.17"
/>
<path stroke="#40567c" vector-effect="non-scaling-stroke" d="
  M 158.01 126.17
  L 153.28 134.55
  A 0.96 0.95 -43.4 0 0 153.25 135.44
  Q 156.11 141.29 162.18 141.18
  C 163.71 141.16 165.99 139.77 167.36 139.14
  A 1.51 1.50 -46.3 0 1 168.57 139.11
  Q 170.48 139.87 171.04 141.37
  Q 172.81 146.11 175.10 149.06
  A 1.62 1.62 0.0 0 0 177.70 149.01
  C 180.45 145.12 180.23 140.40 180.28 134.55"
/>
<path stroke="#738aa2" vector-effect="non-scaling-stroke" d="
  M 180.28 134.55
  Q 180.42 133.27 181.34 131.02
  Q 182.29 128.68 182.38 124.61
  A 0.62 0.60 87.3 0 1 182.90 124.02
  Q 185.43 123.62 186.02 126.42"
/>
<path stroke="#4e6184" vector-effect="non-scaling-stroke" d="
  M 186.02 126.42
  Q 185.96 128.90 187.44 130.32
  A 1.64 1.60 -76.6 0 1 187.87 131.04
  C 188.61 133.55 190.66 136.20 193.50 136.01
  Q 194.60 135.93 195.59 134.05
  Q 197.86 129.72 200.00 125.54"
/>
<path stroke="#536c90" vector-effect="non-scaling-stroke" d="
  M 124.36 87.84
  L 117.20 88.27
  A 1.92 1.76 -2.7 0 0 115.39 90.10
  L 115.38 90.41
  A 1.57 1.57 0.0 0 0 116.95 92.02
  L 123.72 92.02
  A 1.40 1.40 0.0 0 1 123.94 94.80
  Q 121.30 95.22 116.59 94.87
  A 1.04 1.03 -87.4 0 0 115.48 95.89
  C 115.39 100.38 115.08 103.59 117.06 107.74
  Q 120.82 115.64 130.74 116.22
  Q 135.55 116.50 138.63 114.20
  C 142.13 111.60 145.57 108.24 145.78 103.99
  Q 146.11 97.53 146.12 96.49
  A 1.61 1.61 0.0 0 0 144.51 94.86
  L 137.77 94.86
  A 1.25 1.25 0.0 0 1 137.47 92.40
  Q 140.81 91.58 144.18 91.95
  A 1.83 1.83 0.0 0 0 146.21 90.13
  L 146.21 89.76
  A 1.88 1.88 0.0 0 0 144.12 87.88
  Q 142.51 88.05 139.29 88.07
  Q 137.62 88.08 136.90 87.19
  A 1.17 1.17 0.0 0 1 137.77 85.28
  L 144.29 85.06
  A 1.94 1.94 0.0 0 0 146.17 83.05
  L 146.15 82.45
  A 1.94 1.93 84.5 0 0 143.91 80.60
  Q 139.81 81.25 136.47 79.68"
/>
<path stroke="#738cad" vector-effect="non-scaling-stroke" d="
  M 136.47 79.68
  Q 138.23 76.66 144.65 77.30
  A 1.04 1.03 1.0 0 0 145.79 76.21
  Q 145.41 70.42 140.86 67.14
  Q 130.44 59.62 121.11 66.83
  C 118.01 69.23 115.93 72.83 115.61 76.62
  A 0.99 0.99 0.0 0 0 116.64 77.70
  Q 120.62 77.52 123.81 78.03
  A 1.21 1.19 21.6 0 1 124.63 79.88
  Q 123.92 80.91 122.28 80.75"
/>
<path stroke="#7a8ca5" vector-effect="non-scaling-stroke" d="
  M 122.02 61.22
  Q 132.04 58.11 141.22 61.57"
/>
<path stroke="#787c7c" vector-effect="non-scaling-stroke" d="
  M 141.22 61.57
  Q 142.72 63.25 144.55 63.16
  A 0.93 0.92 -8.2 0 0 145.41 62.02
  Q 145.00 60.39 145.96 59.59
  C 147.12 58.62 147.60 57.79 147.95 56.43"
/>
<path stroke="#8498b1" vector-effect="non-scaling-stroke" d="
  M 155.92 85.71
  Q 153.45 89.95 151.14 94.13
  Q 150.18 95.86 150.11 98.02
  Q 149.89 104.24 148.16 109.23"
/>
<path stroke="#7a8ca5" vector-effect="non-scaling-stroke" d="
  M 148.16 109.23
  Q 144.71 114.59 139.08 117.95"
/>
<path stroke="#5d7599" vector-effect="non-scaling-stroke" d="
  M 139.08 117.95
  L 137.90 118.27
  A 1.52 1.48 -76.7 0 0 137.13 118.76
  Q 136.24 119.81 134.63 120.00
  Q 124.73 121.14 117.98 114.88
  C 112.01 109.35 111.65 101.87 112.41 93.93
  A 2.18 2.18 0.0 0 0 110.22 91.54
  L 110.05 91.54
  A 2.53 2.53 0.0 0 0 107.53 94.04
  Q 107.51 96.15 107.71 101.57
  Q 108.23 115.20 120.04 121.50
  A 4.89 4.86 65.8 0 0 121.24 121.96
  C 123.81 122.57 127.36 123.57 128.00 126.32
  Q 128.72 129.43 128.21 133.30"
/>
<path stroke="#7a8ca5" vector-effect="non-scaling-stroke" d="
  M 128.21 133.30
  Q 126.88 134.18 124.87 134.23"
/>
<path stroke="#8c9aad" vector-effect="non-scaling-stroke" d="
  M 124.87 134.23
  Q 122.76 133.64 121.12 131.43
  A 4.85 4.79 18.9 0 1 120.37 129.92
  Q 119.57 127.28 117.69 125.07
  Q 116.53 123.71 114.51 122.01
  Q 112.70 120.48 112.69 120.48
  Q 104.59 113.06 104.10 100.82
  Q 104.01 98.60 103.06 96.56
  Q 100.30 90.68 96.12 83.14
  C 93.67 78.71 91.47 76.54 86.75 76.24
  Q 79.55 75.78 73.10 76.06
  Q 72.25 76.10 72.04 76.54
  Q 71.82 76.99 72.24 77.72"
/>
<path stroke="#172948" vector-effect="non-scaling-stroke" d="
  M 72.24 77.72
  Q 71.60 77.29 71.43 76.56
  A 0.89 0.88 -87.1 0 0 70.86 75.92
  Q 69.67 75.51 68.67 75.63
  A 0.73 0.73 0.0 0 0 68.12 76.73
  Q 71.25 82.14 74.66 87.58
  Q 77.79 92.55 78.74 98.27"
/>
<path stroke="#496285" vector-effect="non-scaling-stroke" d="
  M 78.74 98.27
  L 77.68 96.74
  A 0.71 0.70 -56.4 0 0 76.41 97.00
  L 74.15 107.85"
/>
<path stroke="#738cad" vector-effect="non-scaling-stroke" d="
  M 74.15 107.85
  L 73.92 110.69"
/>
<path stroke="#496285" vector-effect="non-scaling-stroke" d="
  M 73.92 110.69
  Q 73.22 111.02 73.14 111.68
  A 1.46 1.41 35.7 0 1 70.42 112.08
  Q 69.69 110.62 69.26 108.06
  Q 68.94 106.12 67.30 106.09
  A 1.95 1.92 27.0 0 0 66.13 106.46
  Q 63.38 108.47 62.39 110.84
  A 3.34 3.31 -83.6 0 1 59.92 112.83
  L 46.93 115.19
  A 0.44 0.44 0.0 0 0 46.83 116.02
  Q 49.34 117.11 55.19 117.12
  C 61.45 117.14 61.83 120.17 65.15 124.20
  A 1.45 1.43 -14.7 0 0 66.02 124.70
  Q 67.57 124.97 68.35 123.01"
/>
<path stroke="#738cad" vector-effect="non-scaling-stroke" d="
  M 68.35 123.01
  L 70.20 119.17
  A 1.63 1.63 0.0 0 1 73.23 119.41
  L 74.45 123.47"
/>
<path stroke="#496285" vector-effect="non-scaling-stroke" d="
  M 74.45 123.47
  L 76.58 132.15
  A 1.36 1.36 0.0 0 0 78.91 132.73
  L 80.12 131.36"
/>
<path stroke="#223a60" vector-effect="non-scaling-stroke" d="
  M 80.12 131.36
  Q 78.95 134.57 76.19 133.69
  Q 66.27 130.52 61.56 128.32
  Q 51.29 123.49 43.97 114.35"
/>
<path stroke="#1f3458" vector-effect="non-scaling-stroke" d="
  M 43.97 114.35
  Q 44.32 92.20 43.77 69.77
  Q 43.74 68.50 46.30 63.52
  A 0.27 0.26 17.8 0 0 46.10 63.14
  L 45.41 63.05
  A 0.02 0.02 0.0 0 0 45.38 63.06
  Q 44.54 64.90 43.07 65.81"
/>
<path stroke="#1a2e51" vector-effect="non-scaling-stroke" d="
  M 43.97 114.35
  L 44.14 164.71
  A 2.65 2.37 37.4 0 0 44.29 165.50
  Q 45.65 169.06 47.55 170.01
  Q 49.15 170.81 56.10 173.51
  A 0.29 0.29 0.0 0 0 56.48 173.16
  L 53.55 162.77
  A 0.74 0.73 70.0 0 1 53.95 161.90
  Q 60.44 158.85 67.38 159.42
  Q 70.52 159.68 76.81 160.95
  C 81.30 161.86 85.32 160.48 89.63 160.19
  C 96.11 159.74 99.74 162.85 104.28 166.90"
/>
<path stroke="#858e9f" vector-effect="non-scaling-stroke" d="
  M 104.28 166.90
  L 107.77 171.71
  A 3.18 3.17 45.1 0 1 107.77 175.46
  L 102.52 182.64
  A 0.90 0.90 0.0 0 0 103.24 184.07
  L 106.07 184.07
  A 2.81 2.80 15.0 0 0 108.50 182.67
  L 110.56 179.10
  A 1.87 1.87 0.0 0 1 113.94 179.41
  Q 114.62 181.33 116.41 183.37
  A 1.40 1.37 73.7 0 0 117.23 183.83
  Q 119.64 184.23 122.07 183.83"
/>
<path stroke="#1a2e51" vector-effect="non-scaling-stroke" d="
  M 122.07 183.83
  L 122.28 182.35
  A 0.22 0.22 0.0 0 1 122.68 182.27
  Q 122.71 182.31 122.63 182.65
  A 0.43 0.43 0.0 0 0 123.10 183.17
  Q 123.60 183.11 123.65 182.43
  Q 123.96 178.26 124.08 175.14
  L 124.09 175.14
  A 0.02 0.01 80.8 0 1 124.11 175.16
  L 124.45 181.07"
/>
<path stroke="#74869f" vector-effect="non-scaling-stroke" d="
  M 124.45 181.07
  L 124.32 183.21
  A 0.66 0.65 -88.3 0 0 124.97 183.91
  L 129.26 183.91
  A 0.72 0.72 0.0 0 0 129.98 183.19
  L 129.98 178.99
  A 0.78 0.77 -1.2 0 1 130.73 178.22
  Q 133.78 178.07 137.02 178.01
  Q 139.89 177.94 141.66 175.51"
/>
<path stroke="#1a2e51" vector-effect="non-scaling-stroke" d="
  M 141.66 175.51
  Q 142.23 174.34 143.19 174.30
  A 0.72 0.71 88.5 0 1 143.94 175.02
  Q 143.91 178.74 144.18 182.49
  Q 144.29 183.98 146.07 183.90"
/>
<path stroke="#74869f" vector-effect="non-scaling-stroke" d="
  M 146.07 183.90
  L 149.81 184.16"
/>
<path stroke="#425777" vector-effect="non-scaling-stroke" d="
  M 149.81 184.16
  Q 151.99 184.42 152.34 178.81
  A 0.51 0.50 -87.6 0 1 152.85 178.33
  Q 153.25 178.34 153.50 178.88
  A 0.99 0.96 -3.3 0 0 154.09 179.39
  Q 155.22 179.72 156.44 180.71"
/>
<path stroke="#74869f" vector-effect="non-scaling-stroke" d="
  M 156.44 180.71
  Q 156.31 185.20 163.54 183.85
  A 0.50 0.50 0.0 0 0 163.77 182.97
  Q 162.17 181.64 162.15 180.71"
/>
<path stroke="#3d5074" vector-effect="non-scaling-stroke" d="
  M 162.15 180.71
  Q 161.79 178.74 162.14 177.03
  A 1.20 1.20 0.0 0 1 162.63 176.27
  Q 164.20 175.11 163.68 173.03"
/>
<path stroke="#74869f" vector-effect="non-scaling-stroke" d="
  M 163.68 173.03
  Q 164.03 169.94 163.43 167.09"
/>
<path stroke="#1a2e51" vector-effect="non-scaling-stroke" d="
  M 163.43 167.09
  Q 163.31 165.55 162.50 164.59
  A 0.62 0.61 -18.3 0 1 163.01 163.58
  C 166.15 163.78 165.69 165.95 165.80 168.29
  Q 166.01 172.70 165.98 183.53
  A 0.71 0.69 -80.9 0 0 166.45 184.20
  Q 170.58 185.66 176.05 186.20
  Q 180.48 186.63 182.28 190.41"
/>
<path stroke="#4b5b7c" vector-effect="non-scaling-stroke" d="
  M 182.28 190.41
  Q 182.09 191.95 181.19 192.31
  A 0.78 0.77 -18.4 0 1 180.16 191.80
  L 180.00 191.21
  A 1.26 1.24 -3.9 0 0 178.96 190.31
  Q 174.37 189.70 170.78 190.77
  A 1.53 1.45 12.7 0 0 170.16 191.14
  Q 169.54 191.79 168.99 191.81
  A 0.66 0.66 0.0 0 1 168.31 191.24
  Q 168.14 189.96 166.77 190.10
  Q 165.69 190.21 163.51 190.81
  A 1.62 1.60 -36.5 0 1 162.20 190.62
  Q 162.09 190.55 161.98 190.49
  A 4.43 2.83 -20.3 0 0 160.29 190.12
  L 154.49 190.00"
/>
<path stroke="#4c6182" vector-effect="non-scaling-stroke" d="
  M 154.49 190.00
  Q 145.01 190.46 150.25 197.18
  A 1.64 1.62 79.5 0 0 151.00 197.70
  L 151.72 197.92"
/>
<path stroke="#4b5b7c" vector-effect="non-scaling-stroke" d="
  M 151.72 197.92
  L 167.20 197.40
  A 0.37 0.18 -19.3 0 1 167.29 197.41
  Q 173.35 197.92 177.76 197.80
  Q 180.27 197.73 180.45 195.62
  A 0.58 0.58 0.0 0 1 181.54 195.41
  L 182.68 197.73"
/>
<path stroke="#1a2e51" vector-effect="non-scaling-stroke" d="
  M 182.68 197.73
  L 183.07 198.15
  A 0.65 0.64 52.4 0 0 183.90 198.26
  C 189.55 194.55 195.06 193.04 202.37 190.31
  Q 203.97 189.71 205.32 191.06"
/>
<path stroke="#3d5074" vector-effect="non-scaling-stroke" d="
  M 205.32 191.06
  Q 195.32 196.78 185.52 202.79
  Q 184.68 203.30 183.87 203.76
  Q 175.45 208.55 167.15 213.64
  C 163.28 216.02 159.64 217.75 155.90 220.18
  C 150.01 223.99 146.14 225.98 138.56 230.33
  C 132.23 233.96 126.29 232.40 119.82 228.49
  C 115.57 225.92 111.59 224.24 106.47 221.00
  Q 94.72 213.57 80.39 205.74
  C 76.14 203.41 73.49 201.01 68.95 198.66
  Q 60.94 194.52 58.14 192.61
  C 54.83 190.36 50.17 188.55 47.92 186.57
  Q 43.65 182.81 41.79 176.92
  A 5.44 5.15 -55.7 0 1 41.54 175.37
  C 41.37 166.83 41.85 158.86 41.85 149.32
  Q 41.85 86.94 41.93 70.25
  Q 41.94 69.24 42.33 67.05"
/>
<path stroke="#ccc8ba" vector-effect="non-scaling-stroke" d="
  M 121.22 46.37
  Q 120.06 46.17 120.01 47.32
  Q 119.97 48.44 119.69 49.48"
/>
<path stroke="#aec5db" vector-effect="non-scaling-stroke" d="
  M 186.05 103.56
  Q 187.45 102.36 188.37 100.69
  A 0.93 0.92 -72.8 0 1 189.23 100.23
  C 191.53 100.40 192.03 104.01 192.23 105.95
  A 3.76 3.64 -63.6 0 0 192.70 107.42
  L 194.33 110.25
  A 0.76 0.74 70.3 0 0 195.08 110.62
  Q 197.29 110.32 198.26 108.62
  A 0.94 0.94 0.0 0 1 199.03 108.16
  L 201.67 108.05"
/>
<path stroke="#a4b7cd" vector-effect="non-scaling-stroke" d="
  M 208.03 118.05
  Q 206.19 117.86 204.51 118.39
  A 1.04 1.04 0.0 0 0 203.86 119.00
  Q 203.71 119.38 203.46 119.73
  Q 203.03 120.33 201.41 121.58
  Q 200.16 122.55 198.53 122.00
  A 1.53 1.51 -6.8 0 1 197.77 121.41
  Q 196.82 119.95 194.93 119.86
  A 0.62 0.61 6.3 0 0 194.29 120.37
  L 193.95 122.44
  A 2.58 2.32 -29.8 0 1 193.69 123.23
  L 190.16 130.11
  A 1.00 1.00 0.0 0 1 188.42 130.19
  L 186.02 126.42"
/>
<path stroke="#96acc5" vector-effect="non-scaling-stroke" d="
  M 180.28 134.55
  L 177.60 143.01
  A 0.95 0.93 2.0 0 1 176.90 143.65
  Q 174.72 144.15 174.32 141.51
  Q 173.60 136.63 172.44 135.10
  A 1.58 1.54 -66.5 0 1 172.14 134.31
  L 171.55 126.02
  A 0.89 0.88 13.5 0 0 171.11 125.31
  L 170.71 125.08
  A 1.06 1.05 -83.5 0 1 170.22 124.46
  L 169.60 122.26
  A 0.78 0.78 0.0 0 0 168.07 122.49
  Q 168.15 125.47 166.76 127.25
  A 1.93 1.89 66.5 0 0 166.36 128.30
  Q 166.05 132.50 163.88 135.15
  A 2.12 2.12 0.0 0 1 160.24 134.53
  Q 160.00 133.85 159.53 131.92
  Q 159.53 131.90 158.48 129.39
  Q 157.88 127.95 158.01 126.17"
/>
<path stroke="#ccc8ba" vector-effect="non-scaling-stroke" d="
  M 141.22 61.57
  L 143.92 62.90
  A 0.70 0.70 0.0 0 0 144.78 61.84
  Q 144.08 60.96 142.88 60.46
  Q 131.73 55.84 120.22 59.22"
/>
<path stroke="#a0b9d7" vector-effect="non-scaling-stroke" d="
  M 136.47 79.68
  Q 129.55 84.37 121.43 85.16"
/>
<path stroke="#6886ab" vector-effect="non-scaling-stroke" d="
  M 187.53 99.24
  L 186.05 103.56"
/>
<path stroke="#83a1ba" vector-effect="non-scaling-stroke" d="
  M 186.05 103.56
  Q 185.71 106.18 183.50 105.87
  A 1.08 1.05 -11.4 0 1 182.74 105.38
  Q 181.61 103.60 181.85 101.15
  A 1.52 1.49 22.8 0 0 181.31 99.86
  Q 180.57 99.26 180.47 98.37
  Q 180.05 94.50 179.59 91.41
  A 1.42 1.42 0.0 0 0 176.82 91.22
  Q 175.97 94.13 173.92 96.54"
/>
<path stroke="#2d4b72" vector-effect="non-scaling-stroke" d="
  M 173.92 96.54
  Q 176.37 92.03 177.16 87.81
  A 0.62 0.62 0.0 0 0 176.02 87.38
  Q 175.28 88.62 174.19 89.54"
/>
<path stroke="#8fa9c3" vector-effect="non-scaling-stroke" d="
  M 174.19 89.54
  L 176.45 85.94
  A 1.73 1.73 0.0 0 1 178.48 85.23
  L 180.82 86.04
  A 1.09 1.05 82.5 0 1 181.36 86.47
  Q 182.44 88.08 184.70 88.12
  A 1.06 1.05 1.4 0 0 185.78 87.10
  Q 186.02 80.57 185.49 73.58
  Q 185.43 72.85 184.32 70.86
  A 0.85 0.82 30.2 0 1 184.20 70.43
  L 183.93 56.57
  A 1.23 1.22 87.7 0 0 182.64 55.37
  Q 179.81 55.53 177.28 57.10
  Q 173.11 59.69 169.98 60.75
  A 1.33 1.15 15.5 0 0 169.60 60.93
  L 164.02 64.61
  A 0.79 0.78 -3.8 0 0 163.77 64.89
  C 163.30 65.83 161.16 66.37 160.06 67.16
  Q 157.54 68.98 154.55 70.27
  A 1.07 1.07 0.0 0 0 154.43 72.18
  Q 157.66 74.10 160.93 74.39
  A 0.49 0.49 0.0 0 1 161.33 75.11
  L 155.92 85.71"
/>
<path stroke="#325078" vector-effect="non-scaling-stroke" d="
  M 155.92 85.71
  Q 154.67 82.03 151.02 88.41
  A 1.20 1.20 0.0 0 1 148.79 87.64
  Q 149.95 79.78 147.70 71.93
  Q 146.66 68.27 146.72 66.78
  C 146.87 63.24 149.86 60.24 147.95 56.43"
/>
<path stroke="#838d8e" vector-effect="non-scaling-stroke" d="
  M 147.95 56.43
  L 150.07 48.83
  A 1.86 1.75 -20.6 0 1 150.37 48.22
  L 151.71 46.39
  A 0.43 0.43 0.0 0 0 151.58 45.77
  Q 151.15 45.52 150.67 45.70
  A 0.72 0.71 85.4 0 0 150.23 46.22
  Q 149.19 51.16 144.87 52.70
  A 2.01 2.01 0.0 0 1 142.19 50.87
  L 142.06 47.05
  A 1.31 1.28 -24.3 0 1 142.43 46.10
  Q 143.16 45.36 143.55 44.95
  A 2.34 2.06 -46.3 0 0 143.68 41.84
  Q 142.60 40.82 140.68 41.62
  A 1.00 0.99 78.1 0 0 140.07 42.57
  L 140.18 45.75
  A 0.94 0.93 -28.0 0 1 140.00 46.33
  L 137.69 49.48"
/>
<path stroke="#96afcc" vector-effect="non-scaling-stroke" d="
  M 82.32 106.02
  L 81.56 105.40
  A 0.82 0.82 0.0 0 0 80.22 106.01
  L 79.82 118.20
  A 4.20 3.61 -52.0 0 0 79.85 118.83
  L 80.14 121.05
  A 0.76 0.76 0.0 0 0 81.59 121.25
  Q 81.97 120.39 82.59 119.88"
/>
<path stroke="#96afcc" vector-effect="non-scaling-stroke" d="
  M 74.45 123.47
  L 75.14 123.94
  A 0.44 0.44 0.0 0 0 75.82 123.62
  Q 76.58 115.45 75.67 107.32
  A 0.47 0.47 0.0 0 0 74.94 106.98
  Q 74.58 107.21 74.15 107.85"
/>
<path stroke="#7f93ab" vector-effect="non-scaling-stroke" d="
  M 174.19 89.54
  L 170.09 96.95"
/>
<path stroke="#bdd3e4" vector-effect="non-scaling-stroke" d="
  M 170.09 96.95
  L 168.79 97.60
  A 0.28 0.27 -10.8 0 1 168.39 97.33
  Q 168.61 94.93 169.58 92.66
  Q 172.29 86.37 176.37 80.17
  A 0.66 0.66 0.0 0 1 177.25 79.96
  L 181.09 82.18
  A 0.90 0.89 -76.1 0 0 182.43 81.37
  L 181.75 60.97
  A 1.04 1.04 0.0 0 0 179.88 60.38
  Q 179.47 60.88 178.73 61.19
  A 0.79 0.78 -2.7 0 0 178.30 61.66
  L 175.43 69.89
  A 1.81 1.78 -18.0 0 1 175.17 70.39
  Q 172.28 74.44 170.46 78.20
  Q 168.56 82.14 166.84 85.25
  Q 160.09 97.48 153.36 109.70"
/>
<path stroke="#d8e5f0" vector-effect="non-scaling-stroke" d="
  M 153.36 109.70
  Q 150.00 112.07 148.16 109.23"
/>
<path stroke="#5b7492" vector-effect="non-scaling-stroke" d="
  M 170.09 96.95
  L 148.56 135.81"
/>
<path stroke="#829db8" vector-effect="non-scaling-stroke" d="
  M 148.56 135.81
  C 148.49 131.07 149.95 126.03 146.42 122.15"
/>
<path stroke="#b3c6d7" vector-effect="non-scaling-stroke" d="
  M 146.42 122.15
  L 153.36 109.70"
/>
<path stroke="#7d848f" vector-effect="non-scaling-stroke" d="
  M 72.24 77.72
  Q 72.23 77.89 72.22 78.06"
/>
<path stroke="#6b7686" vector-effect="non-scaling-stroke" d="
  M 72.22 78.06
  L 91.40 114.48
  A 2.51 2.43 13.1 0 0 91.69 114.93
  Q 92.61 116.08 92.72 116.70
  Q 92.77 117.01 93.09 117.62
  Q 96.23 123.69 106.99 143.53
  Q 108.30 145.95 110.23 147.45"
/>
<path stroke="#3a4c67" vector-effect="non-scaling-stroke" d="
  M 110.23 147.45
  Q 110.89 148.84 112.22 149.28
  A 1.69 1.67 -5.7 0 1 113.15 150.03
  Q 113.18 150.08 113.34 150.30
  A 1.66 1.42 83.3 0 0 113.76 150.69
  L 117.58 153.08"
/>
<path stroke="#122441" vector-effect="non-scaling-stroke" d="
  M 117.58 153.08
  Q 112.94 156.52 107.28 149.22
  Q 104.71 145.90 100.13 136.39
  Q 99.20 134.46 96.08 130.79"
/>
<path stroke="#354664" vector-effect="non-scaling-stroke" d="
  M 96.08 130.79
  Q 93.17 124.06 89.16 118.36"
/>
<path stroke="#63768e" vector-effect="non-scaling-stroke" d="
  M 89.16 118.36
  Q 87.78 113.70 84.38 110.61
  Q 83.26 109.59 82.32 106.02"
/>
<path stroke="#3a4c67" vector-effect="non-scaling-stroke" d="
  M 82.32 106.02
  L 78.74 98.27"
/>
<path stroke="#91a8c9" vector-effect="non-scaling-stroke" d="
  M 89.16 118.36
  L 89.35 123.23
  A 1.54 1.54 0.0 0 1 86.33 123.69
  L 85.67 121.21"
/>
<path stroke="#9aaeca" vector-effect="non-scaling-stroke" d="
  M 163.68 173.03
  Q 162.35 173.80 161.82 175.16
  A 1.20 1.20 0.0 0 1 161.02 175.88
  Q 160.56 176.01 160.28 176.22
  A 1.15 1.14 -20.7 0 0 159.82 177.23
  Q 159.99 179.37 162.15 180.71"
/>
<path stroke="#9fb4cc" vector-effect="non-scaling-stroke" d="
  M 156.44 180.71
  Q 154.95 176.73 150.64 178.30
  A 0.74 0.73 82.3 0 0 150.15 178.95
  L 149.81 184.16"
/>
<path stroke="#e0e6ec" vector-effect="non-scaling-stroke" d="
  M 124.87 134.23
  L 126.22 135.10
  A 0.88 0.88 0.0 0 1 126.62 135.95
  Q 126.42 137.62 124.60 137.86
  Q 120.35 138.43 117.16 137.96
  A 1.69 1.69 0.0 0 1 116.04 137.29
  Q 107.88 126.46 105.18 121.07
  C 101.49 113.70 99.23 108.71 95.69 104.15
  A 2.58 2.50 -73.4 0 1 95.25 103.30
  Q 92.42 93.80 86.20 85.40
  C 82.92 80.97 77.37 79.52 72.22 78.06"
/>
<path stroke="#b1c1d7" vector-effect="non-scaling-stroke" d="
  M 128.21 133.30
  Q 130.84 131.79 131.68 130.15
  Q 134.98 123.66 139.08 117.95"
/>
<path stroke="#9dafc4" vector-effect="non-scaling-stroke" d="
  M 146.42 122.15
  Q 142.21 130.60 137.42 138.76
  C 134.78 143.26 128.86 149.46 123.47 150.16
  Q 116.33 151.09 110.23 147.45"
/>
<path stroke="#96afcc" vector-effect="non-scaling-stroke" d="
  M 73.92 110.69
  Q 74.04 111.87 73.59 112.94
  A 1.19 1.19 0.0 0 1 72.89 113.61
  C 69.76 114.76 69.25 110.45 68.67 108.24
  A 0.49 0.49 0.0 0 0 67.85 108.01
  L 67.81 108.06
  A 1.44 1.44 0.0 0 0 67.41 109.38
  C 68.19 113.09 68.43 119.04 66.35 122.65
  A 0.72 0.71 21.1 0 0 66.82 123.70
  Q 67.33 123.81 68.35 123.01"
/>
<path stroke="#8094b5" vector-effect="non-scaling-stroke" d="
  M 154.49 190.00
  L 154.35 191.02
  A 0.70 0.70 0.0 0 1 153.65 191.62
  Q 152.09 191.59 151.92 193.22
  Q 151.73 194.98 153.52 196.61
  A 0.58 0.58 0.0 0 1 153.11 197.62
  Q 152.58 197.61 151.72 197.92"
/>
<path stroke="#6784a3" vector-effect="non-scaling-stroke" d="
  M 111.94 46.66
  A 1.34 1.34 0.0 0 0 110.60 45.32
  A 1.34 1.34 0.0 0 0 109.26 46.66
  A 1.34 1.34 0.0 0 0 110.60 48.00
  A 1.34 1.34 0.0 0 0 111.94 46.66"
/>
<path stroke="#869db7" vector-effect="non-scaling-stroke" d="
  M 132.0992 36.7595
  A 2.54 2.41 -52.7 0 0 128.6429 37.3196
  A 2.54 2.41 -52.7 0 0 129.0208 40.8005
  A 2.54 2.41 -52.7 0 0 132.4771 40.2404
  A 2.54 2.41 -52.7 0 0 132.0992 36.7595"
/>
<path stroke="#858e9f" vector-effect="non-scaling-stroke" d="
  M 67.85 184.09
  Q 70.54 184.11 71.75 181.27
  Q 77.02 168.87 79.01 165.39
  A 1.58 1.58 0.0 0 0 77.64 163.02
  L 76.22 163.02
  A 3.69 3.68 8.9 0 0 72.71 165.58
  Q 71.89 168.17 68.99 174.75
  Q 68.49 175.90 67.91 175.89
  Q 67.32 175.89 66.83 174.74
  Q 64.02 168.12 63.24 165.52
  A 3.69 3.68 -8.1 0 0 59.76 162.91
  L 58.34 162.89
  A 1.58 1.58 0.0 0 0 56.94 165.25
  Q 58.88 168.75 63.99 181.22
  Q 65.17 184.07 67.85 184.09"
/>
<path stroke="#858e9f" vector-effect="non-scaling-stroke" d="
  M 101.2747 172.4500
  A 9.56 9.56 0.0 0 0 91.4840 163.1265
  L 88.4849 163.1998
  A 9.56 9.56 0.0 0 0 79.1613 172.9905
  L 79.2053 174.7900
  A 9.56 9.56 0.0 0 0 88.9960 184.1135
  L 91.9951 184.0402
  A 9.56 9.56 0.0 0 0 101.3187 174.2495
  L 101.2747 172.4500"
/>
<path stroke="#2a456a" vector-effect="non-scaling-stroke" d="
  M 130.70 197.82
  L 138.22 197.65"
/>
<path stroke="#4b5b7c" vector-effect="non-scaling-stroke" d="
  M 138.22 197.65
  Q 139.05 198.21 139.84 197.82
  A 0.69 0.69 0.0 0 0 140.23 197.20
  L 140.23 196.46
  A 0.45 0.45 0.0 0 1 140.54 196.03
  Q 141.63 195.69 142.00 197.42"
/>
<path stroke="#55698a" vector-effect="non-scaling-stroke" d="
  M 142.00 197.42
  Q 143.03 198.38 144.05 197.54
  Q 145.01 196.74 145.46 194.77
  Q 145.90 192.85 145.91 190.72
  A 0.58 0.58 0.0 0 0 145.44 190.14
  Q 143.78 189.84 143.74 191.76
  A 0.64 0.64 0.0 0 1 143.10 192.39
  L 142.77 192.39
  A 0.48 0.48 0.0 0 1 142.30 191.99
  L 142.09 190.82
  A 0.94 0.93 87.8 0 0 141.28 190.06
  Q 140.63 189.99 139.98 190.28"
/>
<path stroke="#4b5b7c" vector-effect="non-scaling-stroke" d="
  M 139.98 190.28
  Q 139.61 190.85 139.60 191.64
  A 0.57 0.56 -78.7 0 1 138.83 192.16
  Q 138.16 191.89 138.10 190.67
  A 0.82 0.82 0.0 0 0 137.26 189.88
  L 124.90 190.30
  A 0.95 0.95 0.0 0 0 123.98 191.25
  L 123.98 191.67
  A 0.93 0.93 0.0 0 1 122.14 191.84
  L 121.97 190.94
  A 0.98 0.98 0.0 0 0 121.02 190.13
  Q 110.44 190.03 100.76 190.20
  Q 98.48 190.24 97.39 191.71
  A 0.61 0.59 55.2 0 1 96.34 191.50
  Q 96.17 191.00 95.73 190.54
  A 0.96 0.96 0.0 0 0 95.03 190.26
  L 91.42 190.38
  A 1.41 1.41 0.0 0 0 90.06 191.83
  L 90.23 196.79
  A 0.95 0.95 0.0 0 0 91.41 197.68
  Q 92.87 197.32 94.83 197.61
  Q 95.91 197.77 96.25 196.74
  A 0.74 0.73 -49.6 0 1 97.60 196.62
  Q 97.89 197.19 98.48 197.71
  A 0.92 0.91 -69.3 0 0 100.00 197.02
  L 100.00 192.66
  A 0.73 0.72 33.2 0 1 101.39 192.37
  Q 102.06 193.88 102.03 196.84
  A 1.00 0.99 4.8 0 0 102.86 197.82
  L 102.92 197.83
  A 0.84 0.84 0.0 0 0 103.89 197.13
  L 104.52 193.13
  A 0.39 0.38 -85.6 0 1 104.90 192.80
  L 105.30 192.80
  A 0.17 0.16 -3.8 0 1 105.47 192.94
  L 106.15 196.66
  A 1.17 1.15 -1.6 0 0 107.16 197.60
  C 111.83 198.13 116.00 197.83 121.19 197.61
  Q 121.66 197.59 122.73 197.88
  Q 123.70 198.14 124.09 197.31
  Q 124.14 197.20 124.11 196.77
  Q 124.10 196.46 124.24 196.24
  Q 124.51 195.80 124.97 195.94
  Q 125.63 196.13 125.95 197.03
  A 0.88 0.88 0.0 0 0 126.73 197.61
  L 130.70 197.82"
/>
<path stroke="#899cbd" vector-effect="non-scaling-stroke" d="
  M 139.98 190.28
  L 139.92 193.28
  A 0.87 0.83 5.2 0 0 140.65 194.12
  Q 140.79 194.14 141.01 194.15
  A 0.72 0.71 -2.3 0 1 141.70 194.78
  L 142.00 197.42"
/>
<path stroke="#5e789d" vector-effect="non-scaling-stroke" d="
  M 138.22 197.65
  Q 138.09 195.96 136.69 195.09
  A 0.93 0.91 11.6 0 1 136.27 194.47
  L 135.86 192.19
  A 0.79 0.78 -42.6 0 0 134.33 192.13
  Q 133.49 195.23 135.16 196.94
  A 0.38 0.38 0.0 0 1 134.91 197.59
  L 130.70 197.82"
/>
<path stroke="#4c6182" vector-effect="non-scaling-stroke" d="
  M 82.54 192.71
  L 81.88 191.28
  A 1.47 1.46 -42.3 0 0 79.28 191.16
  L 76.66 195.70
  A 1.05 1.05 0.0 0 0 77.98 197.19
  Q 80.69 196.03 82.43 197.19
  A 1.44 1.29 63.0 0 0 83.03 197.42
  Q 85.31 197.76 86.28 197.42
  A 1.62 1.60 80.8 0 0 87.36 195.91
  L 87.41 191.42
  A 1.09 1.09 0.0 0 0 86.32 190.32
  L 85.71 190.32
  A 1.68 1.67 -84.6 0 0 84.07 191.69
  Q 83.84 192.91 82.96 192.96
  A 0.43 0.42 -13.7 0 1 82.54 192.71"
/>
<path stroke="#778ca7" vector-effect="non-scaling-stroke" d="
  M 203.52 174.38
  Q 204.59 171.42 203.76 167.69
  A 2.20 2.19 19.5 0 0 203.33 166.79
  Q 200.35 163.07 195.55 163.09
  Q 189.01 163.12 187.11 163.48
  A 1.76 1.75 -6.6 0 0 185.69 165.26
  L 186.28 182.94
  A 1.23 1.23 0.0 0 0 187.55 184.13
  L 190.56 184.03
  A 1.21 1.20 -1.0 0 0 191.73 182.83
  L 191.73 179.22
  A 0.83 0.82 -2.7 0 1 192.48 178.40
  C 196.64 178.01 200.17 178.75 203.06 175.19
  A 2.88 2.74 -16.9 0 0 203.52 174.38"
/>
<path stroke="#4f678a" vector-effect="non-scaling-stroke" d="
  M 167.50 163.58
  Q 165.54 172.23 166.34 183.01
  Q 166.42 184.07 167.78 183.96"
/>
<path stroke="#778ca7" vector-effect="non-scaling-stroke" d="
  M 167.78 183.96
  L 182.06 184.07
  A 1.43 1.42 -77.8 0 0 183.38 183.21
  Q 183.71 182.44 183.63 180.38
  A 0.71 0.71 0.0 0 0 182.92 179.69
  L 173.07 179.69
  A 0.90 0.89 81.8 0 1 172.21 179.04
  Q 171.62 176.97 172.35 175.85"
/>
<path stroke="#455d7f" vector-effect="non-scaling-stroke" d="
  M 172.35 175.85
  L 179.82 175.93
  A 2.12 2.12 0.0 0 0 181.96 173.81
  L 181.96 172.88
  A 2.42 2.42 0.0 0 0 179.71 170.47
  L 172.01 169.91"
/>
<path stroke="#778ca7" vector-effect="non-scaling-stroke" d="
  M 172.01 169.91
  Q 171.59 168.26 172.52 167.86
  A 0.29 0.23 -52.0 0 1 172.64 167.83
  L 180.92 167.87
  A 2.05 2.05 0.0 0 0 182.98 165.82
  L 182.98 165.21
  A 2.05 2.05 0.0 0 0 180.87 163.16
  L 167.50 163.58"
/>
<path stroke="#9fb4cc" vector-effect="non-scaling-stroke" d="
  M 172.01 169.91
  Q 172.20 171.52 173.87 171.56
  Q 178.20 171.68 179.51 171.64
  A 1.37 1.37 0.0 0 1 180.92 173.01
  L 180.92 173.47
  A 2.07 2.07 0.0 0 1 178.96 175.54
  L 172.35 175.85"
/>
<path stroke="#a9bed7" vector-effect="non-scaling-stroke" d="
  M 167.78 183.96
  L 167.50 163.58"
/>
<path stroke="#6c7b8f" vector-effect="non-scaling-stroke" d="
  M 136.4628 169.2835
  A 1.51 1.51 0.0 0 0 134.9267 167.8001
  L 131.4472 167.8608
  A 1.51 1.51 0.0 0 0 129.9638 169.3970
  L 130.0172 172.4565
  A 1.51 1.51 0.0 0 0 131.5533 173.9399
  L 135.0328 173.8792
  A 1.51 1.51 0.0 0 0 136.5162 172.3430
  L 136.4628 169.2835"
/>
<path stroke="#858e9f" vector-effect="non-scaling-stroke" d="
  M 96.46 173.69
  A 6.00 6.00 0.0 0 0 90.46 167.69
  A 6.00 6.00 0.0 0 0 84.46 173.69
  A 6.00 6.00 0.0 0 0 90.46 179.69
  A 6.00 6.00 0.0 0 0 96.46 173.69"
/>
<path stroke="#6c7b8f" vector-effect="non-scaling-stroke" d="
  M 198.1965 169.5098
  A 1.54 1.54 0.0 0 0 196.6754 167.9511
  L 193.2557 167.9093
  A 1.54 1.54 0.0 0 0 191.6970 169.4304
  L 191.6635 172.1702
  A 1.54 1.54 0.0 0 0 193.1846 173.7289
  L 196.6043 173.7707
  A 1.54 1.54 0.0 0 0 198.1630 172.2496
  L 198.1965 169.5098"
/>
<path stroke="#6c7b8f" vector-effect="non-scaling-stroke" d="
  M 156.47 173.80
  Q 158.84 172.91 157.91 169.43
  A 1.14 1.12 6.4 0 0 157.33 168.72
  Q 155.96 168.02 154.37 167.91"
/>
<path stroke="#a8b9d2" vector-effect="non-scaling-stroke" d="
  M 154.37 167.91
  Q 152.82 167.08 151.13 167.76
  A 1.18 1.18 0.0 0 0 150.43 168.58
  Q 149.85 170.94 150.25 173.38
  A 0.74 0.73 84.4 0 0 151.01 174.01
  L 156.47 173.80"
/>
<path stroke="#43516c" vector-effect="non-scaling-stroke" d="
  M 154.37 167.91
  Q 152.95 167.76 152.22 168.24
  A 0.87 0.85 -18.2 0 0 151.83 168.99
  L 151.95 172.63
  A 1.05 1.05 0.0 0 0 152.95 173.65
  L 156.47 173.80"
/>
<path stroke="#5a7195" vector-effect="non-scaling-stroke" d="
  M 158.9049 191.9424
  A 1.88 0.95 -92.9 0 0 158.0512 193.8681
  A 1.88 0.95 -92.9 0 0 159.0951 195.6976
  A 1.88 0.95 -92.9 0 0 159.9488 193.7719
  A 1.88 0.95 -92.9 0 0 158.9049 191.9424"
/>
</g>
<path fill="#f2f4f4" d="
  M 250.00 0.00
  L 250.00 246.00
  L 0.00 246.00
  L 0.00 0.00
  L 250.00 0.00
  Z
  M 39.31 56.72
  Q 34.65 62.17 33.77 69.43
  Q 32.39 70.78 32.38 73.00
  Q 32.27 153.59 32.23 174.25
  Q 32.22 177.90 33.72 180.56
  A 0.20 0.20 0.0 0 0 34.09 180.49
  Q 34.28 179.40 33.95 178.28
  Q 34.25 180.28 35.56 181.62
  A 1.11 1.10 -65.5 0 1 35.87 182.46
  Q 35.77 184.36 37.17 186.33
  Q 41.25 192.07 46.98 195.30
  Q 64.89 205.39 90.21 220.27
  Q 105.27 229.12 122.48 238.84
  A 4.18 3.72 -19.7 0 0 123.40 239.21
  Q 132.13 241.48 139.65 237.97
  Q 144.56 236.88 149.02 234.09
  Q 150.96 232.87 155.22 230.38
  Q 158.36 228.53 160.92 225.93
  L 175.05 217.80
  Q 183.91 214.23 191.66 208.47
  Q 195.21 206.51 198.77 204.28
  Q 201.90 202.33 205.89 200.14
  C 212.74 196.39 220.21 192.44 224.55 185.57
  Q 228.09 180.07 228.09 173.50
  Q 228.10 87.63 228.10 85.33
  Q 228.07 70.18 227.26 66.72
  Q 224.98 56.90 214.18 50.52
  C 192.30 37.61 175.62 28.02 147.68 11.25
  Q 140.34 6.85 137.65 6.22
  Q 132.06 4.91 126.40 5.69
  Q 122.69 6.20 114.15 11.12
  Q 100.92 18.76 87.86 26.57
  Q 82.94 29.51 48.06 50.06
  Q 42.21 53.51 39.31 56.72
  Z"
/>
<path fill="#263f66" d="
  M 224.55 185.57
  Q 225.96 180.50 225.29 175.68
  A 0.35 0.34 46.5 0 0 224.61 175.66
  Q 223.43 181.80 219.37 186.24
  Q 224.05 179.26 224.04 168.75
  Q 224.02 152.49 223.93 136.20
  Q 224.00 104.24 223.90 72.25
  Q 223.89 68.92 221.77 63.71
  Q 219.68 58.57 215.79 56.73
  Q 208.58 51.86 196.77 45.50
  Q 196.26 45.23 192.40 42.68
  C 188.35 40.00 183.54 37.78 180.06 35.47
  C 174.55 31.84 168.88 29.04 163.76 25.72
  C 157.73 21.81 150.44 18.08 144.38 14.42
  Q 138.33 10.77 135.80 10.20
  Q 127.15 8.26 119.86 12.60
  Q 95.64 27.03 89.76 30.35
  C 85.10 32.98 81.55 35.68 77.37 37.74
  C 72.69 40.05 65.38 45.40 59.49 48.42
  C 54.96 50.74 51.96 52.93 47.21 55.60
  C 45.49 56.57 43.97 58.01 42.45 59.39
  Q 43.15 57.93 42.84 56.85
  A 0.85 0.84 -3.3 0 0 42.17 56.26
  Q 41.04 56.07 39.31 56.72
  Q 42.21 53.51 48.06 50.06
  Q 82.94 29.51 87.86 26.57
  Q 100.92 18.76 114.15 11.12
  Q 122.69 6.20 126.40 5.69
  Q 132.06 4.91 137.65 6.22
  Q 140.34 6.85 147.68 11.25
  C 175.62 28.02 192.30 37.61 214.18 50.52
  Q 224.98 56.90 227.26 66.72
  Q 228.07 70.18 228.10 85.33
  Q 228.10 87.63 228.09 173.50
  Q 228.09 180.07 224.55 185.57
  Z"
/>
<path fill="#bfd8f3" d="
  M 215.79 56.73
  L 220.03 63.39
  A 0.34 0.34 0.0 0 1 219.67 63.90
  Q 219.24 63.80 218.96 63.98
  A 0.38 0.38 0.0 0 1 218.54 63.98
  L 215.99 62.27
  Q 212.60 58.68 210.11 57.38
  Q 202.92 53.61 196.08 49.24
  Q 192.04 46.66 187.90 44.25
  Q 170.06 33.86 154.96 25.03
  C 149.49 21.83 144.17 18.04 137.45 15.05
  C 131.00 12.18 124.83 14.13 119.14 17.40
  Q 106.61 24.60 94.47 32.08
  Q 84.35 38.02 74.25 43.76
  Q 69.76 46.32 64.52 49.55
  C 58.19 53.46 50.74 56.98 45.50 61.74
  Q 44.11 63.01 43.07 65.81
  L 42.33 67.05
  Q 40.35 73.56 40.21 79.08
  Q 40.10 83.04 40.14 101.99
  Q 40.15 106.95 39.41 111.90
  A 0.14 0.14 0.0 0 1 39.14 111.91
  L 37.98 107.76
  L 37.98 67.69
  Q 39.53 63.03 42.45 59.39
  C 43.97 58.01 45.49 56.57 47.21 55.60
  C 51.96 52.93 54.96 50.74 59.49 48.42
  C 65.38 45.40 72.69 40.05 77.37 37.74
  C 81.55 35.68 85.10 32.98 89.76 30.35
  Q 95.64 27.03 119.86 12.60
  Q 127.15 8.26 135.80 10.20
  Q 138.33 10.77 144.38 14.42
  C 150.44 18.08 157.73 21.81 163.76 25.72
  C 168.88 29.04 174.55 31.84 180.06 35.47
  C 183.54 37.78 188.35 40.00 192.40 42.68
  Q 196.26 45.23 196.77 45.50
  Q 208.58 51.86 215.79 56.73
  Z"
/>
<path fill="#35537b" d="
  M 215.99 62.27
  C 220.47 66.89 220.50 74.45 219.94 80.50
  Q 217.67 87.25 217.69 95.60
  Q 217.75 113.47 217.74 114.18
  Q 217.67 117.96 217.05 119.78
  A 3.02 3.02 0.0 0 1 214.29 121.83
  L 205.03 122.14
  A 1.61 1.61 0.0 0 0 204.16 122.44
  L 200.00 125.54
  Q 200.16 124.55 201.08 124.04
  Q 202.12 123.47 202.41 122.87
  Q 202.79 122.09 203.58 121.72
  A 0.87 0.87 0.0 0 0 204.08 120.95
  Q 204.08 120.83 204.08 120.74
  A 0.61 0.60 88.5 0 1 204.65 120.13
  Q 207.84 119.93 208.03 118.05
  L 214.71 117.92
  A 1.21 1.20 88.6 0 0 215.89 116.67
  L 215.84 115.21
  A 1.16 1.15 87.1 0 0 214.61 114.09
  Q 212.25 114.24 208.76 113.84
  Q 207.70 113.72 207.82 112.76
  A 0.58 0.57 -86.5 0 0 207.25 112.11
  L 204.98 112.11
  A 0.95 0.95 0.0 0 1 204.03 111.07
  Q 204.16 109.83 202.96 109.88
  A 0.80 0.80 0.0 0 1 202.15 109.22
  Q 202.03 108.52 201.67 108.05
  Q 201.61 106.61 200.40 105.99
  A 0.99 0.99 0.0 0 1 199.86 105.06
  Q 199.94 103.78 199.50 102.53
  A 2.99 2.87 15.9 0 0 198.97 101.62
  Q 197.88 100.36 197.62 98.99
  A 2.84 2.78 -68.2 0 0 197.15 97.86
  C 195.68 95.72 195.09 93.94 192.31 94.16
  A 1.59 1.58 23.8 0 0 191.50 94.47
  Q 189.02 96.40 187.53 99.24
  Q 190.69 76.17 198.36 54.23
  A 0.64 0.64 0.0 0 0 198.07 53.47
  C 191.00 49.49 185.79 45.58 178.58 41.57
  Q 175.12 39.65 169.09 35.67
  Q 165.23 33.12 142.04 19.78
  Q 136.11 16.36 132.71 16.03
  Q 127.23 15.50 121.11 19.10
  Q 116.84 21.61 104.57 29.22
  A 0.30 0.29 -46.5 0 0 104.58 29.73
  Q 115.53 35.62 127.15 39.67
  A 0.96 0.95 77.9 0 1 127.56 39.94
  L 129.97 42.53
  A 0.60 0.60 0.0 0 0 130.84 42.54
  Q 132.72 40.62 133.46 38.82
  A 0.25 0.25 0.0 0 1 133.93 38.83
  L 137.69 49.48
  Q 135.28 50.63 134.50 49.27
  Q 132.85 46.42 131.87 44.90
  A 1.66 1.66 0.0 0 0 129.03 44.96
  L 126.30 49.69
  A 1.29 1.29 0.0 0 1 124.20 49.88
  L 121.22 46.37
  Q 121.13 44.73 121.30 43.35
  A 1.92 1.88 0.2 0 0 119.18 41.26
  Q 118.03 41.39 117.37 42.92
  A 1.36 1.32 -65.0 0 0 117.97 44.66
  Q 120.51 45.93 119.69 49.48
  Q 119.81 51.71 118.83 52.84
  A 1.56 1.48 43.2 0 1 116.61 52.85
  Q 114.65 50.88 112.88 50.26
  A 0.47 0.47 0.0 0 0 112.28 50.83
  L 114.15 57.48
  A 1.95 1.95 0.0 0 0 116.83 58.73
  Q 121.48 56.60 125.80 56.55
  A 0.20 0.20 0.0 0 1 126.00 56.78
  L 125.91 57.40
  A 0.06 0.04 7.0 0 1 125.86 57.43
  Q 122.67 57.50 120.22 59.22
  L 117.30 60.19
  A 1.49 1.48 -10.2 0 0 116.28 61.65
  L 116.30 62.16
  A 0.92 0.92 0.0 0 0 117.56 62.99
  L 122.02 61.22
  L 116.69 63.89
  A 0.88 0.87 -10.1 0 0 116.22 64.55
  Q 115.70 68.29 113.76 73.47
  Q 112.94 75.67 113.03 79.16
  A 0.72 0.72 0.0 0 0 113.67 79.85
  L 122.28 80.75
  L 116.85 81.03
  A 1.40 1.39 -2.7 0 0 115.53 82.47
  L 115.55 83.21
  A 1.51 1.50 -88.0 0 0 116.89 84.65
  L 121.43 85.16
  Q 123.24 85.03 124.03 85.47
  Q 126.14 86.62 124.36 87.84
  C 120.01 84.73 116.12 85.29 111.59 88.14
  Q 108.38 90.16 104.81 91.87
  A 0.68 0.68 0.0 0 1 103.91 91.55
  L 101.36 86.00
  A 0.29 0.24 -85.3 0 0 101.31 85.93
  Q 99.99 84.52 99.32 82.12
  A 2.23 2.22 20.9 0 0 99.05 81.52
  C 93.25 72.67 85.64 71.79 75.54 71.36
  A 2.13 2.05 58.6 0 1 74.70 71.14
  Q 64.48 66.18 57.10 58.08
  A 0.42 0.41 -40.5 0 1 57.15 57.47
  C 63.11 52.81 70.26 49.72 76.05 45.73
  Q 81.61 41.90 90.09 37.33
  Q 93.54 35.47 94.47 32.08
  Q 106.61 24.60 119.14 17.40
  C 124.83 14.13 131.00 12.18 137.45 15.05
  C 144.17 18.04 149.49 21.83 154.96 25.03
  Q 170.06 33.86 187.90 44.25
  Q 192.04 46.66 196.08 49.24
  Q 202.92 53.61 210.11 57.38
  Q 212.60 58.68 215.99 62.27
  Z
  M 111.94 46.66
  A 1.34 1.34 0.0 0 0 110.60 45.32
  A 1.34 1.34 0.0 0 0 109.26 46.66
  A 1.34 1.34 0.0 0 0 110.60 48.00
  A 1.34 1.34 0.0 0 0 111.94 46.66
  Z"
/>
<path fill="#3d618a" d="
  M 187.53 99.24
  L 186.05 103.56
  Q 185.71 106.18 183.50 105.87
  A 1.08 1.05 -11.4 0 1 182.74 105.38
  Q 181.61 103.60 181.85 101.15
  A 1.52 1.49 22.8 0 0 181.31 99.86
  Q 180.57 99.26 180.47 98.37
  Q 180.05 94.50 179.59 91.41
  A 1.42 1.42 0.0 0 0 176.82 91.22
  Q 175.97 94.13 173.92 96.54
  Q 176.37 92.03 177.16 87.81
  A 0.62 0.62 0.0 0 0 176.02 87.38
  Q 175.28 88.62 174.19 89.54
  L 176.45 85.94
  A 1.73 1.73 0.0 0 1 178.48 85.23
  L 180.82 86.04
  A 1.09 1.05 82.5 0 1 181.36 86.47
  Q 182.44 88.08 184.70 88.12
  A 1.06 1.05 1.4 0 0 185.78 87.10
  Q 186.02 80.57 185.49 73.58
  Q 185.43 72.85 184.32 70.86
  A 0.85 0.82 30.2 0 1 184.20 70.43
  L 183.93 56.57
  A 1.23 1.22 87.7 0 0 182.64 55.37
  Q 179.81 55.53 177.28 57.10
  Q 173.11 59.69 169.98 60.75
  A 1.33 1.15 15.5 0 0 169.60 60.93
  L 164.02 64.61
  A 0.79 0.78 -3.8 0 0 163.77 64.89
  C 163.30 65.83 161.16 66.37 160.06 67.16
  Q 157.54 68.98 154.55 70.27
  A 1.07 1.07 0.0 0 0 154.43 72.18
  Q 157.66 74.10 160.93 74.39
  A 0.49 0.49 0.0 0 1 161.33 75.11
  L 155.92 85.71
  Q 154.67 82.03 151.02 88.41
  A 1.20 1.20 0.0 0 1 148.79 87.64
  Q 149.95 79.78 147.70 71.93
  Q 146.66 68.27 146.72 66.78
  C 146.87 63.24 149.86 60.24 147.95 56.43
  L 150.07 48.83
  A 1.86 1.75 -20.6 0 1 150.37 48.22
  L 151.71 46.39
  A 0.43 0.43 0.0 0 0 151.58 45.77
  Q 151.15 45.52 150.67 45.70
  A 0.72 0.71 85.4 0 0 150.23 46.22
  Q 149.19 51.16 144.87 52.70
  A 2.01 2.01 0.0 0 1 142.19 50.87
  L 142.06 47.05
  A 1.31 1.28 -24.3 0 1 142.43 46.10
  Q 143.16 45.36 143.55 44.95
  A 2.34 2.06 -46.3 0 0 143.68 41.84
  Q 142.60 40.82 140.68 41.62
  A 1.00 0.99 78.1 0 0 140.07 42.57
  L 140.18 45.75
  A 0.94 0.93 -28.0 0 1 140.00 46.33
  L 137.69 49.48
  L 133.93 38.83
  A 0.25 0.25 0.0 0 0 133.46 38.82
  Q 132.72 40.62 130.84 42.54
  A 0.60 0.60 0.0 0 1 129.97 42.53
  L 127.56 39.94
  A 0.96 0.95 77.9 0 0 127.15 39.67
  Q 115.53 35.62 104.58 29.73
  A 0.30 0.29 -46.5 0 1 104.57 29.22
  Q 116.84 21.61 121.11 19.10
  Q 127.23 15.50 132.71 16.03
  Q 136.11 16.36 142.04 19.78
  Q 165.23 33.12 169.09 35.67
  Q 175.12 39.65 178.58 41.57
  C 185.79 45.58 191.00 49.49 198.07 53.47
  A 0.64 0.64 0.0 0 1 198.36 54.23
  Q 190.69 76.17 187.53 99.24
  Z
  M 132.0992 36.7595
  A 2.54 2.41 -52.7 0 0 128.6429 37.3196
  A 2.54 2.41 -52.7 0 0 129.0208 40.8005
  A 2.54 2.41 -52.7 0 0 132.4771 40.2404
  A 2.54 2.41 -52.7 0 0 132.0992 36.7595
  Z"
/>
<path fill="#263f66" d="
  M 94.47 32.08
  Q 93.54 35.47 90.09 37.33
  Q 81.61 41.90 76.05 45.73
  C 70.26 49.72 63.11 52.81 57.15 57.47
  A 0.42 0.41 -40.5 0 0 57.10 58.08
  Q 64.48 66.18 74.70 71.14
  A 2.13 2.05 58.6 0 0 75.54 71.36
  C 85.64 71.79 93.25 72.67 99.05 81.52
  A 2.23 2.22 20.9 0 1 99.32 82.12
  Q 99.99 84.52 101.31 85.93
  A 0.29 0.24 -85.3 0 1 101.36 86.00
  L 103.91 91.55
  A 0.68 0.68 0.0 0 0 104.81 91.87
  Q 108.38 90.16 111.59 88.14
  C 116.12 85.29 120.01 84.73 124.36 87.84
  L 117.20 88.27
  A 1.92 1.76 -2.7 0 0 115.39 90.10
  L 115.38 90.41
  A 1.57 1.57 0.0 0 0 116.95 92.02
  L 123.72 92.02
  A 1.40 1.40 0.0 0 1 123.94 94.80
  Q 121.30 95.22 116.59 94.87
  A 1.04 1.03 -87.4 0 0 115.48 95.89
  C 115.39 100.38 115.08 103.59 117.06 107.74
  Q 120.82 115.64 130.74 116.22
  Q 135.55 116.50 138.63 114.20
  C 142.13 111.60 145.57 108.24 145.78 103.99
  Q 146.11 97.53 146.12 96.49
  A 1.61 1.61 0.0 0 0 144.51 94.86
  L 137.77 94.86
  A 1.25 1.25 0.0 0 1 137.47 92.40
  Q 140.81 91.58 144.18 91.95
  A 1.83 1.83 0.0 0 0 146.21 90.13
  L 146.21 89.76
  A 1.88 1.88 0.0 0 0 144.12 87.88
  Q 142.51 88.05 139.29 88.07
  Q 137.62 88.08 136.90 87.19
  A 1.17 1.17 0.0 0 1 137.77 85.28
  L 144.29 85.06
  A 1.94 1.94 0.0 0 0 146.17 83.05
  L 146.15 82.45
  A 1.94 1.93 84.5 0 0 143.91 80.60
  Q 139.81 81.25 136.47 79.68
  Q 138.23 76.66 144.65 77.30
  A 1.04 1.03 1.0 0 0 145.79 76.21
  Q 145.41 70.42 140.86 67.14
  Q 130.44 59.62 121.11 66.83
  C 118.01 69.23 115.93 72.83 115.61 76.62
  A 0.99 0.99 0.0 0 0 116.64 77.70
  Q 120.62 77.52 123.81 78.03
  A 1.21 1.19 21.6 0 1 124.63 79.88
  Q 123.92 80.91 122.28 80.75
  L 113.67 79.85
  A 0.72 0.72 0.0 0 1 113.03 79.16
  Q 112.94 75.67 113.76 73.47
  Q 115.70 68.29 116.22 64.55
  A 0.88 0.87 -10.1 0 1 116.69 63.89
  L 122.02 61.22
  Q 132.04 58.11 141.22 61.57
  Q 142.72 63.25 144.55 63.16
  A 0.93 0.92 -8.2 0 0 145.41 62.02
  Q 145.00 60.39 145.96 59.59
  C 147.12 58.62 147.60 57.79 147.95 56.43
  C 149.86 60.24 146.87 63.24 146.72 66.78
  Q 146.66 68.27 147.70 71.93
  Q 149.95 79.78 148.79 87.64
  A 1.20 1.20 0.0 0 0 151.02 88.41
  Q 154.67 82.03 155.92 85.71
  Q 153.45 89.95 151.14 94.13
  Q 150.18 95.86 150.11 98.02
  Q 149.89 104.24 148.16 109.23
  Q 144.71 114.59 139.08 117.95
  L 137.90 118.27
  A 1.52 1.48 -76.7 0 0 137.13 118.76
  Q 136.24 119.81 134.63 120.00
  Q 124.73 121.14 117.98 114.88
  C 112.01 109.35 111.65 101.87 112.41 93.93
  A 2.18 2.18 0.0 0 0 110.22 91.54
  L 110.05 91.54
  A 2.53 2.53 0.0 0 0 107.53 94.04
  Q 107.51 96.15 107.71 101.57
  Q 108.23 115.20 120.04 121.50
  A 4.89 4.86 65.8 0 0 121.24 121.96
  C 123.81 122.57 127.36 123.57 128.00 126.32
  Q 128.72 129.43 128.21 133.30
  Q 126.88 134.18 124.87 134.23
  Q 122.76 133.64 121.12 131.43
  A 4.85 4.79 18.9 0 1 120.37 129.92
  Q 119.57 127.28 117.69 125.07
  Q 116.53 123.71 114.51 122.01
  Q 112.70 120.48 112.69 120.48
  Q 104.59 113.06 104.10 100.82
  Q 104.01 98.60 103.06 96.56
  Q 100.30 90.68 96.12 83.14
  C 93.67 78.71 91.47 76.54 86.75 76.24
  Q 79.55 75.78 73.10 76.06
  Q 72.25 76.10 72.04 76.54
  Q 71.82 76.99 72.24 77.72
  Q 71.60 77.29 71.43 76.56
  A 0.89 0.88 -87.1 0 0 70.86 75.92
  Q 69.67 75.51 68.67 75.63
  A 0.73 0.73 0.0 0 0 68.12 76.73
  Q 71.25 82.14 74.66 87.58
  Q 77.79 92.55 78.74 98.27
  L 77.68 96.74
  A 0.71 0.70 -56.4 0 0 76.41 97.00
  L 74.15 107.85
  L 73.92 110.69
  Q 73.22 111.02 73.14 111.68
  A 1.46 1.41 35.7 0 1 70.42 112.08
  Q 69.69 110.62 69.26 108.06
  Q 68.94 106.12 67.30 106.09
  A 1.95 1.92 27.0 0 0 66.13 106.46
  Q 63.38 108.47 62.39 110.84
  A 3.34 3.31 -83.6 0 1 59.92 112.83
  L 46.93 115.19
  A 0.44 0.44 0.0 0 0 46.83 116.02
  Q 49.34 117.11 55.19 117.12
  C 61.45 117.14 61.83 120.17 65.15 124.20
  A 1.45 1.43 -14.7 0 0 66.02 124.70
  Q 67.57 124.97 68.35 123.01
  L 70.20 119.17
  A 1.63 1.63 0.0 0 1 73.23 119.41
  L 74.45 123.47
  L 76.58 132.15
  A 1.36 1.36 0.0 0 0 78.91 132.73
  L 80.12 131.36
  Q 78.95 134.57 76.19 133.69
  Q 66.27 130.52 61.56 128.32
  Q 51.29 123.49 43.97 114.35
  Q 44.32 92.20 43.77 69.77
  Q 43.74 68.50 46.30 63.52
  A 0.27 0.26 17.8 0 0 46.10 63.14
  L 45.41 63.05
  A 0.02 0.02 0.0 0 0 45.38 63.06
  Q 44.54 64.90 43.07 65.81
  Q 44.11 63.01 45.50 61.74
  C 50.74 56.98 58.19 53.46 64.52 49.55
  Q 69.76 46.32 74.25 43.76
  Q 84.35 38.02 94.47 32.08
  Z"
/>
<ellipse fill="#ced8e3" cx="0.00" cy="0.00" transform="translate(130.56,38.78) rotate(-52.7)" rx="2.54" ry="2.41"/>
<path fill="#ced8e3" d="
  M 121.22 46.37
  Q 120.06 46.17 120.01 47.32
  Q 119.97 48.44 119.69 49.48
  Q 120.51 45.93 117.97 44.66
  A 1.36 1.32 -65.0 0 1 117.37 42.92
  Q 118.03 41.39 119.18 41.26
  A 1.92 1.88 0.2 0 1 121.30 43.35
  Q 121.13 44.73 121.22 46.37
  Z"
/>
<path fill="#c9b891" d="
  M 147.95 56.43
  C 147.60 57.79 147.12 58.62 145.96 59.59
  Q 145.00 60.39 145.41 62.02
  A 0.93 0.92 -8.2 0 1 144.55 63.16
  Q 142.72 63.25 141.22 61.57
  L 143.92 62.90
  A 0.70 0.70 0.0 0 0 144.78 61.84
  Q 144.08 60.96 142.88 60.46
  Q 131.73 55.84 120.22 59.22
  Q 122.67 57.50 125.86 57.43
  A 0.06 0.04 7.0 0 0 125.91 57.40
  L 126.00 56.78
  A 0.20 0.20 0.0 0 0 125.80 56.55
  Q 121.48 56.60 116.83 58.73
  A 1.95 1.95 0.0 0 1 114.15 57.48
  L 112.28 50.83
  A 0.47 0.47 0.0 0 1 112.88 50.26
  Q 114.65 50.88 116.61 52.85
  A 1.56 1.48 43.2 0 0 118.83 52.84
  Q 119.81 51.71 119.69 49.48
  Q 119.97 48.44 120.01 47.32
  Q 120.06 46.17 121.22 46.37
  L 124.20 49.88
  A 1.29 1.29 0.0 0 0 126.30 49.69
  L 129.03 44.96
  A 1.66 1.66 0.0 0 1 131.87 44.90
  Q 132.85 46.42 134.50 49.27
  Q 135.28 50.63 137.69 49.48
  L 140.00 46.33
  A 0.94 0.93 -28.0 0 0 140.18 45.75
  L 140.07 42.57
  A 1.00 0.99 78.1 0 1 140.68 41.62
  Q 142.60 40.82 143.68 41.84
  A 2.34 2.06 -46.3 0 1 143.55 44.95
  Q 143.16 45.36 142.43 46.10
  A 1.31 1.28 -24.3 0 0 142.06 47.05
  L 142.19 50.87
  A 2.01 2.01 0.0 0 0 144.87 52.70
  Q 149.19 51.16 150.23 46.22
  A 0.72 0.71 85.4 0 1 150.67 45.70
  Q 151.15 45.52 151.58 45.77
  A 0.43 0.43 0.0 0 1 151.71 46.39
  L 150.37 48.22
  A 1.86 1.75 -20.6 0 0 150.07 48.83
  L 147.95 56.43
  Z"
/>
<circle fill="#98b4cb" cx="110.60" cy="46.66" r="1.34"/>
<path fill="#071329" d="
  M 42.45 59.39
  Q 39.53 63.03 37.98 67.69
  Q 36.01 70.49 36.02 73.50
  Q 36.16 154.14 36.10 157.33
  C 36.07 158.85 35.76 159.85 35.99 161.24
  C 36.69 165.50 36.51 170.12 37.65 174.48
  Q 38.16 180.56 41.37 185.04
  Q 43.38 187.85 47.80 190.67
  Q 51.99 193.34 55.26 195.01
  C 59.92 197.40 63.70 200.41 68.09 202.70
  C 74.69 206.15 81.06 210.42 86.38 213.35
  Q 97.98 219.73 105.92 224.74
  C 108.77 226.53 112.04 227.87 115.07 230.09
  C 120.10 233.77 127.88 237.51 133.72 235.32
  C 137.35 233.95 139.92 233.62 143.71 231.90
  A 1.38 1.35 -88.4 0 0 144.38 231.25
  Q 144.59 230.84 144.91 230.66
  Q 160.49 222.19 161.99 221.21
  Q 170.74 215.46 174.11 213.61
  Q 185.07 207.58 187.37 205.65
  A 3.66 3.56 12.1 0 1 188.23 205.11
  Q 195.14 202.01 201.67 197.80
  Q 204.49 195.98 206.81 194.85
  C 211.34 192.64 215.46 190.56 219.37 186.24
  Q 223.43 181.80 224.61 175.66
  A 0.35 0.34 46.5 0 1 225.29 175.68
  Q 225.96 180.50 224.55 185.57
  C 220.21 192.44 212.74 196.39 205.89 200.14
  Q 201.90 202.33 198.77 204.28
  Q 195.21 206.51 191.66 208.47
  Q 189.49 209.03 186.64 210.65
  Q 179.50 214.68 175.05 217.80
  L 160.92 225.93
  L 139.65 237.97
  Q 132.13 241.48 123.40 239.21
  A 4.18 3.72 -19.7 0 1 122.48 238.84
  Q 105.27 229.12 90.21 220.27
  Q 64.89 205.39 46.98 195.30
  Q 41.25 192.07 37.17 186.33
  Q 35.77 184.36 35.87 182.46
  A 1.11 1.10 -65.5 0 0 35.56 181.62
  Q 34.25 180.28 33.95 178.28
  L 33.77 69.43
  Q 34.65 62.17 39.31 56.72
  Q 41.04 56.07 42.17 56.26
  A 0.85 0.84 -3.3 0 1 42.84 56.85
  Q 43.15 57.93 42.45 59.39
  Z"
/>
<path fill="#e1f1fc" d="
  M 174.19 89.54
  L 170.09 96.95
  L 168.79 97.60
  A 0.28 0.27 -10.8 0 1 168.39 97.33
  Q 168.61 94.93 169.58 92.66
  Q 172.29 86.37 176.37 80.17
  A 0.66 0.66 0.0 0 1 177.25 79.96
  L 181.09 82.18
  A 0.90 0.89 -76.1 0 0 182.43 81.37
  L 181.75 60.97
  A 1.04 1.04 0.0 0 0 179.88 60.38
  Q 179.47 60.88 178.73 61.19
  A 0.79 0.78 -2.7 0 0 178.30 61.66
  L 175.43 69.89
  A 1.81 1.78 -18.0 0 1 175.17 70.39
  Q 172.28 74.44 170.46 78.20
  Q 168.56 82.14 166.84 85.25
  Q 160.09 97.48 153.36 109.70
  Q 150.00 112.07 148.16 109.23
  Q 149.89 104.24 150.11 98.02
  Q 150.18 95.86 151.14 94.13
  Q 153.45 89.95 155.92 85.71
  L 161.33 75.11
  A 0.49 0.49 0.0 0 0 160.93 74.39
  Q 157.66 74.10 154.43 72.18
  A 1.07 1.07 0.0 0 1 154.55 70.27
  Q 157.54 68.98 160.06 67.16
  C 161.16 66.37 163.30 65.83 163.77 64.89
  A 0.79 0.78 -3.8 0 1 164.02 64.61
  L 169.60 60.93
  A 1.33 1.15 15.5 0 1 169.98 60.75
  Q 173.11 59.69 177.28 57.10
  Q 179.81 55.53 182.64 55.37
  A 1.23 1.22 87.7 0 1 183.93 56.57
  L 184.20 70.43
  A 0.85 0.82 30.2 0 0 184.32 70.86
  Q 185.43 72.85 185.49 73.58
  Q 186.02 80.57 185.78 87.10
  A 1.06 1.05 1.4 0 1 184.70 88.12
  Q 182.44 88.08 181.36 86.47
  A 1.09 1.05 82.5 0 0 180.82 86.04
  L 178.48 85.23
  A 1.73 1.73 0.0 0 0 176.45 85.94
  L 174.19 89.54
  Z"
/>
<path fill="#93aacb" d="
  M 223.93 136.20
  L 222.53 139.30
  A 0.89 0.89 0.0 0 1 221.01 139.47
  L 220.06 138.20
  L 219.94 80.50
  C 220.50 74.45 220.47 66.89 215.99 62.27
  L 218.54 63.98
  A 0.38 0.38 0.0 0 0 218.96 63.98
  Q 219.24 63.80 219.67 63.90
  A 0.34 0.34 0.0 0 0 220.03 63.39
  L 215.79 56.73
  Q 219.68 58.57 221.77 63.71
  Q 223.89 68.92 223.90 72.25
  Q 224.00 104.24 223.93 136.20
  Z"
/>
<path fill="#ced8e3" d="
  M 141.22 61.57
  Q 132.04 58.11 122.02 61.22
  L 117.56 62.99
  A 0.92 0.92 0.0 0 1 116.30 62.16
  L 116.28 61.65
  A 1.49 1.48 -10.2 0 1 117.30 60.19
  L 120.22 59.22
  Q 131.73 55.84 142.88 60.46
  Q 144.08 60.96 144.78 61.84
  A 0.70 0.70 0.0 0 1 143.92 62.90
  L 141.22 61.57
  Z"
/>
<path fill="#98b4cb" d="
  M 170.09 96.95
  L 148.56 135.81
  C 148.49 131.07 149.95 126.03 146.42 122.15
  L 153.36 109.70
  Q 160.09 97.48 166.84 85.25
  Q 168.56 82.14 170.46 78.20
  Q 172.28 74.44 175.17 70.39
  A 1.81 1.78 -18.0 0 0 175.43 69.89
  L 178.30 61.66
  A 0.79 0.78 -2.7 0 1 178.73 61.19
  Q 179.47 60.88 179.88 60.38
  A 1.04 1.04 0.0 0 1 181.75 60.97
  L 182.43 81.37
  A 0.90 0.89 -76.1 0 1 181.09 82.18
  L 177.25 79.96
  A 0.66 0.66 0.0 0 0 176.37 80.17
  Q 172.29 86.37 169.58 92.66
  Q 168.61 94.93 168.39 97.33
  A 0.28 0.27 -10.8 0 0 168.79 97.60
  L 170.09 96.95
  Z"
/>
<path fill="#172849" d="
  M 43.97 114.35
  L 44.14 164.71
  A 2.65 2.37 37.4 0 0 44.29 165.50
  Q 45.65 169.06 47.55 170.01
  Q 49.15 170.81 56.10 173.51
  A 0.29 0.29 0.0 0 0 56.48 173.16
  L 53.55 162.77
  A 0.74 0.73 70.0 0 1 53.95 161.90
  Q 60.44 158.85 67.38 159.42
  Q 70.52 159.68 76.81 160.95
  C 81.30 161.86 85.32 160.48 89.63 160.19
  C 96.11 159.74 99.74 162.85 104.28 166.90
  L 107.77 171.71
  A 3.18 3.17 45.1 0 1 107.77 175.46
  L 102.52 182.64
  A 0.90 0.90 0.0 0 0 103.24 184.07
  L 106.07 184.07
  A 2.81 2.80 15.0 0 0 108.50 182.67
  L 110.56 179.10
  A 1.87 1.87 0.0 0 1 113.94 179.41
  Q 114.62 181.33 116.41 183.37
  A 1.40 1.37 73.7 0 0 117.23 183.83
  Q 119.64 184.23 122.07 183.83
  L 122.28 182.35
  A 0.22 0.22 0.0 0 1 122.68 182.27
  Q 122.71 182.31 122.63 182.65
  A 0.43 0.43 0.0 0 0 123.10 183.17
  Q 123.60 183.11 123.65 182.43
  Q 123.96 178.26 124.08 175.14
  L 124.09 175.14
  A 0.02 0.01 80.8 0 1 124.11 175.16
  L 124.45 181.07
  L 124.32 183.21
  A 0.66 0.65 -88.3 0 0 124.97 183.91
  L 129.26 183.91
  A 0.72 0.72 0.0 0 0 129.98 183.19
  L 129.98 178.99
  A 0.78 0.77 -1.2 0 1 130.73 178.22
  Q 133.78 178.07 137.02 178.01
  Q 139.89 177.94 141.66 175.51
  Q 142.23 174.34 143.19 174.30
  A 0.72 0.71 88.5 0 1 143.94 175.02
  Q 143.91 178.74 144.18 182.49
  Q 144.29 183.98 146.07 183.90
  L 149.81 184.16
  Q 151.99 184.42 152.34 178.81
  A 0.51 0.50 -87.6 0 1 152.85 178.33
  Q 153.25 178.34 153.50 178.88
  A 0.99 0.96 -3.3 0 0 154.09 179.39
  Q 155.22 179.72 156.44 180.71
  Q 156.31 185.20 163.54 183.85
  A 0.50 0.50 0.0 0 0 163.77 182.97
  Q 162.17 181.64 162.15 180.71
  Q 161.79 178.74 162.14 177.03
  A 1.20 1.20 0.0 0 1 162.63 176.27
  Q 164.20 175.11 163.68 173.03
  Q 164.03 169.94 163.43 167.09
  Q 163.31 165.55 162.50 164.59
  A 0.62 0.61 -18.3 0 1 163.01 163.58
  C 166.15 163.78 165.69 165.95 165.80 168.29
  Q 166.01 172.70 165.98 183.53
  A 0.71 0.69 -80.9 0 0 166.45 184.20
  Q 170.58 185.66 176.05 186.20
  Q 180.48 186.63 182.28 190.41
  Q 182.09 191.95 181.19 192.31
  A 0.78 0.77 -18.4 0 1 180.16 191.80
  L 180.00 191.21
  A 1.26 1.24 -3.9 0 0 178.96 190.31
  Q 174.37 189.70 170.78 190.77
  A 1.53 1.45 12.7 0 0 170.16 191.14
  Q 169.54 191.79 168.99 191.81
  A 0.66 0.66 0.0 0 1 168.31 191.24
  Q 168.14 189.96 166.77 190.10
  Q 165.69 190.21 163.51 190.81
  A 1.62 1.60 -36.5 0 1 162.20 190.62
  Q 162.09 190.55 161.98 190.49
  A 4.43 2.83 -20.3 0 0 160.29 190.12
  L 154.49 190.00
  Q 145.01 190.46 150.25 197.18
  A 1.64 1.62 79.5 0 0 151.00 197.70
  L 151.72 197.92
  L 167.20 197.40
  A 0.37 0.18 -19.3 0 1 167.29 197.41
  Q 173.35 197.92 177.76 197.80
  Q 180.27 197.73 180.45 195.62
  A 0.58 0.58 0.0 0 1 181.54 195.41
  L 182.68 197.73
  L 183.07 198.15
  A 0.65 0.64 52.4 0 0 183.90 198.26
  C 189.55 194.55 195.06 193.04 202.37 190.31
  Q 203.97 189.71 205.32 191.06
  Q 195.32 196.78 185.52 202.79
  Q 184.68 203.30 183.87 203.76
  Q 175.45 208.55 167.15 213.64
  C 163.28 216.02 159.64 217.75 155.90 220.18
  C 150.01 223.99 146.14 225.98 138.56 230.33
  C 132.23 233.96 126.29 232.40 119.82 228.49
  C 115.57 225.92 111.59 224.24 106.47 221.00
  Q 94.72 213.57 80.39 205.74
  C 76.14 203.41 73.49 201.01 68.95 198.66
  Q 60.94 194.52 58.14 192.61
  C 54.83 190.36 50.17 188.55 47.92 186.57
  Q 43.65 182.81 41.79 176.92
  A 5.44 5.15 -55.7 0 1 41.54 175.37
  C 41.37 166.83 41.85 158.86 41.85 149.32
  Q 41.85 86.94 41.93 70.25
  Q 41.94 69.24 42.33 67.05
  L 43.07 65.81
  Q 44.54 64.90 45.38 63.06
  A 0.02 0.02 0.0 0 1 45.41 63.05
  L 46.10 63.14
  A 0.27 0.26 17.8 0 1 46.30 63.52
  Q 43.74 68.50 43.77 69.77
  Q 44.32 92.20 43.97 114.35
  Z
  M 67.85 184.09
  Q 70.54 184.11 71.75 181.27
  Q 77.02 168.87 79.01 165.39
  A 1.58 1.58 0.0 0 0 77.64 163.02
  L 76.22 163.02
  A 3.69 3.68 8.9 0 0 72.71 165.58
  Q 71.89 168.17 68.99 174.75
  Q 68.49 175.90 67.91 175.89
  Q 67.32 175.89 66.83 174.74
  Q 64.02 168.12 63.24 165.52
  A 3.69 3.68 -8.1 0 0 59.76 162.91
  L 58.34 162.89
  A 1.58 1.58 0.0 0 0 56.94 165.25
  Q 58.88 168.75 63.99 181.22
  Q 65.17 184.07 67.85 184.09
  Z
  M 101.2747 172.4500
  A 9.56 9.56 0.0 0 0 91.4840 163.1265
  L 88.4849 163.1998
  A 9.56 9.56 0.0 0 0 79.1613 172.9905
  L 79.2053 174.7900
  A 9.56 9.56 0.0 0 0 88.9960 184.1135
  L 91.9951 184.0402
  A 9.56 9.56 0.0 0 0 101.3187 174.2495
  L 101.2747 172.4500
  Z
  M 130.70 197.82
  L 138.22 197.65
  Q 139.05 198.21 139.84 197.82
  A 0.69 0.69 0.0 0 0 140.23 197.20
  L 140.23 196.46
  A 0.45 0.45 0.0 0 1 140.54 196.03
  Q 141.63 195.69 142.00 197.42
  Q 143.03 198.38 144.05 197.54
  Q 145.01 196.74 145.46 194.77
  Q 145.90 192.85 145.91 190.72
  A 0.58 0.58 0.0 0 0 145.44 190.14
  Q 143.78 189.84 143.74 191.76
  A 0.64 0.64 0.0 0 1 143.10 192.39
  L 142.77 192.39
  A 0.48 0.48 0.0 0 1 142.30 191.99
  L 142.09 190.82
  A 0.94 0.93 87.8 0 0 141.28 190.06
  Q 140.63 189.99 139.98 190.28
  Q 139.61 190.85 139.60 191.64
  A 0.57 0.56 -78.7 0 1 138.83 192.16
  Q 138.16 191.89 138.10 190.67
  A 0.82 0.82 0.0 0 0 137.26 189.88
  L 124.90 190.30
  A 0.95 0.95 0.0 0 0 123.98 191.25
  L 123.98 191.67
  A 0.93 0.93 0.0 0 1 122.14 191.84
  L 121.97 190.94
  A 0.98 0.98 0.0 0 0 121.02 190.13
  Q 110.44 190.03 100.76 190.20
  Q 98.48 190.24 97.39 191.71
  A 0.61 0.59 55.2 0 1 96.34 191.50
  Q 96.17 191.00 95.73 190.54
  A 0.96 0.96 0.0 0 0 95.03 190.26
  L 91.42 190.38
  A 1.41 1.41 0.0 0 0 90.06 191.83
  L 90.23 196.79
  A 0.95 0.95 0.0 0 0 91.41 197.68
  Q 92.87 197.32 94.83 197.61
  Q 95.91 197.77 96.25 196.74
  A 0.74 0.73 -49.6 0 1 97.60 196.62
  Q 97.89 197.19 98.48 197.71
  A 0.92 0.91 -69.3 0 0 100.00 197.02
  L 100.00 192.66
  A 0.73 0.72 33.2 0 1 101.39 192.37
  Q 102.06 193.88 102.03 196.84
  A 1.00 0.99 4.8 0 0 102.86 197.82
  L 102.92 197.83
  A 0.84 0.84 0.0 0 0 103.89 197.13
  L 104.52 193.13
  A 0.39 0.38 -85.6 0 1 104.90 192.80
  L 105.30 192.80
  A 0.17 0.16 -3.8 0 1 105.47 192.94
  L 106.15 196.66
  A 1.17 1.15 -1.6 0 0 107.16 197.60
  C 111.83 198.13 116.00 197.83 121.19 197.61
  Q 121.66 197.59 122.73 197.88
  Q 123.70 198.14 124.09 197.31
  Q 124.14 197.20 124.11 196.77
  Q 124.10 196.46 124.24 196.24
  Q 124.51 195.80 124.97 195.94
  Q 125.63 196.13 125.95 197.03
  A 0.88 0.88 0.0 0 0 126.73 197.61
  L 130.70 197.82
  Z
  M 82.54 192.71
  L 81.88 191.28
  A 1.47 1.46 -42.3 0 0 79.28 191.16
  L 76.66 195.70
  A 1.05 1.05 0.0 0 0 77.98 197.19
  Q 80.69 196.03 82.43 197.19
  A 1.44 1.29 63.0 0 0 83.03 197.42
  Q 85.31 197.76 86.28 197.42
  A 1.62 1.60 80.8 0 0 87.36 195.91
  L 87.41 191.42
  A 1.09 1.09 0.0 0 0 86.32 190.32
  L 85.71 190.32
  A 1.68 1.67 -84.6 0 0 84.07 191.69
  Q 83.84 192.91 82.96 192.96
  A 0.43 0.42 -13.7 0 1 82.54 192.71
  Z"
/>
<path fill="#bfd8f3" d="
  M 136.47 79.68
  Q 129.55 84.37 121.43 85.16
  L 116.89 84.65
  A 1.51 1.50 -88.0 0 1 115.55 83.21
  L 115.53 82.47
  A 1.40 1.39 -2.7 0 1 116.85 81.03
  L 122.28 80.75
  Q 123.92 80.91 124.63 79.88
  A 1.21 1.19 21.6 0 0 123.81 78.03
  Q 120.62 77.52 116.64 77.70
  A 0.99 0.99 0.0 0 1 115.61 76.62
  C 115.93 72.83 118.01 69.23 121.11 66.83
  Q 130.44 59.62 140.86 67.14
  Q 145.41 70.42 145.79 76.21
  A 1.04 1.03 1.0 0 1 144.65 77.30
  Q 138.23 76.66 136.47 79.68
  Z"
/>
<path fill="#63789f" d="
  M 42.33 67.05
  Q 41.94 69.24 41.93 70.25
  Q 41.85 86.94 41.85 149.32
  C 41.85 158.86 41.37 166.83 41.54 175.37
  A 5.44 5.15 -55.7 0 0 41.79 176.92
  Q 43.65 182.81 47.92 186.57
  C 50.17 188.55 54.83 190.36 58.14 192.61
  Q 60.94 194.52 68.95 198.66
  C 73.49 201.01 76.14 203.41 80.39 205.74
  Q 94.72 213.57 106.47 221.00
  C 111.59 224.24 115.57 225.92 119.82 228.49
  C 126.29 232.40 132.23 233.96 138.56 230.33
  C 146.14 225.98 150.01 223.99 155.90 220.18
  C 159.64 217.75 163.28 216.02 167.15 213.64
  Q 175.45 208.55 183.87 203.76
  Q 184.68 203.30 185.52 202.79
  Q 195.32 196.78 205.32 191.06
  C 211.72 187.71 217.55 184.16 219.42 177.45
  Q 220.14 174.86 220.07 168.00
  Q 219.93 153.10 220.06 138.20
  L 221.01 139.47
  A 0.89 0.89 0.0 0 0 222.53 139.30
  L 223.93 136.20
  Q 224.02 152.49 224.04 168.75
  Q 224.05 179.26 219.37 186.24
  C 215.46 190.56 211.34 192.64 206.81 194.85
  Q 204.49 195.98 201.67 197.80
  Q 195.14 202.01 188.23 205.11
  A 3.66 3.56 12.1 0 0 187.37 205.65
  Q 185.07 207.58 174.11 213.61
  Q 170.74 215.46 161.99 221.21
  Q 160.49 222.19 144.91 230.66
  Q 144.59 230.84 144.38 231.25
  A 1.38 1.35 -88.4 0 1 143.71 231.90
  C 139.92 233.62 137.35 233.95 133.72 235.32
  C 127.88 237.51 120.10 233.77 115.07 230.09
  C 112.04 227.87 108.77 226.53 105.92 224.74
  Q 97.98 219.73 86.38 213.35
  C 81.06 210.42 74.69 206.15 68.09 202.70
  C 63.70 200.41 59.92 197.40 55.26 195.01
  Q 51.99 193.34 47.80 190.67
  Q 43.38 187.85 41.37 185.04
  Q 38.16 180.56 37.65 174.48
  L 37.98 107.76
  L 39.14 111.91
  A 0.14 0.14 0.0 0 0 39.41 111.90
  Q 40.15 106.95 40.14 101.99
  Q 40.10 83.04 40.21 79.08
  Q 40.35 73.56 42.33 67.05
  Z"
/>
<path fill="#263f66" d="
  M 37.98 67.69
  L 37.98 107.76
  L 37.65 174.48
  C 36.51 170.12 36.69 165.50 35.99 161.24
  C 35.76 159.85 36.07 158.85 36.10 157.33
  Q 36.16 154.14 36.02 73.50
  Q 36.01 70.49 37.98 67.69
  Z"
/>
<path fill="#98b4cb" d="
  M 33.77 69.43
  L 33.95 178.28
  Q 34.28 179.40 34.09 180.49
  A 0.20 0.20 0.0 0 1 33.72 180.56
  Q 32.22 177.90 32.23 174.25
  Q 32.27 153.59 32.38 73.00
  Q 32.39 70.78 33.77 69.43
  Z"
/>
<path fill="#071329" d="
  M 72.24 77.72
  Q 72.23 77.89 72.22 78.06
  L 91.40 114.48
  A 2.51 2.43 13.1 0 0 91.69 114.93
  Q 92.61 116.08 92.72 116.70
  Q 92.77 117.01 93.09 117.62
  Q 96.23 123.69 106.99 143.53
  Q 108.30 145.95 110.23 147.45
  Q 110.89 148.84 112.22 149.28
  A 1.69 1.67 -5.7 0 1 113.15 150.03
  Q 113.18 150.08 113.34 150.30
  A 1.66 1.42 83.3 0 0 113.76 150.69
  L 117.58 153.08
  Q 112.94 156.52 107.28 149.22
  Q 104.71 145.90 100.13 136.39
  Q 99.20 134.46 96.08 130.79
  Q 93.17 124.06 89.16 118.36
  Q 87.78 113.70 84.38 110.61
  Q 83.26 109.59 82.32 106.02
  L 78.74 98.27
  Q 77.79 92.55 74.66 87.58
  Q 71.25 82.14 68.12 76.73
  A 0.73 0.73 0.0 0 1 68.67 75.63
  Q 69.67 75.51 70.86 75.92
  A 0.89 0.88 -87.1 0 1 71.43 76.56
  Q 71.60 77.29 72.24 77.72
  Z"
/>
<path fill="#f2f4f4" d="
  M 124.87 134.23
  L 126.22 135.10
  A 0.88 0.88 0.0 0 1 126.62 135.95
  Q 126.42 137.62 124.60 137.86
  Q 120.35 138.43 117.16 137.96
  A 1.69 1.69 0.0 0 1 116.04 137.29
  Q 107.88 126.46 105.18 121.07
  C 101.49 113.70 99.23 108.71 95.69 104.15
  A 2.58 2.50 -73.4 0 1 95.25 103.30
  Q 92.42 93.80 86.20 85.40
  C 82.92 80.97 77.37 79.52 72.22 78.06
  Q 72.23 77.89 72.24 77.72
  Q 71.82 76.99 72.04 76.54
  Q 72.25 76.10 73.10 76.06
  Q 79.55 75.78 86.75 76.24
  C 91.47 76.54 93.67 78.71 96.12 83.14
  Q 100.30 90.68 103.06 96.56
  Q 104.01 98.60 104.10 100.82
  Q 104.59 113.06 112.69 120.48
  Q 112.70 120.48 114.51 122.01
  Q 116.53 123.71 117.69 125.07
  Q 119.57 127.28 120.37 129.92
  A 4.85 4.79 18.9 0 0 121.12 131.43
  Q 122.76 133.64 124.87 134.23
  Z"
/>
<path fill="#ced8e3" d="
  M 124.87 134.23
  Q 126.88 134.18 128.21 133.30
  Q 130.84 131.79 131.68 130.15
  Q 134.98 123.66 139.08 117.95
  Q 144.71 114.59 148.16 109.23
  Q 150.00 112.07 153.36 109.70
  L 146.42 122.15
  Q 142.21 130.60 137.42 138.76
  C 134.78 143.26 128.86 149.46 123.47 150.16
  Q 116.33 151.09 110.23 147.45
  Q 108.30 145.95 106.99 143.53
  Q 96.23 123.69 93.09 117.62
  Q 92.77 117.01 92.72 116.70
  Q 92.61 116.08 91.69 114.93
  A 2.51 2.43 13.1 0 1 91.40 114.48
  L 72.22 78.06
  C 77.37 79.52 82.92 80.97 86.20 85.40
  Q 92.42 93.80 95.25 103.30
  A 2.58 2.50 -73.4 0 0 95.69 104.15
  C 99.23 108.71 101.49 113.70 105.18 121.07
  Q 107.88 126.46 116.04 137.29
  A 1.69 1.69 0.0 0 0 117.16 137.96
  Q 120.35 138.43 124.60 137.86
  Q 126.42 137.62 126.62 135.95
  A 0.88 0.88 0.0 0 0 126.22 135.10
  L 124.87 134.23
  Z"
/>
<path fill="#8099ba" d="
  M 124.36 87.84
  Q 126.14 86.62 124.03 85.47
  Q 123.24 85.03 121.43 85.16
  Q 129.55 84.37 136.47 79.68
  Q 139.81 81.25 143.91 80.60
  A 1.94 1.93 84.5 0 1 146.15 82.45
  L 146.17 83.05
  A 1.94 1.94 0.0 0 1 144.29 85.06
  L 137.77 85.28
  A 1.17 1.17 0.0 0 0 136.90 87.19
  Q 137.62 88.08 139.29 88.07
  Q 142.51 88.05 144.12 87.88
  A 1.88 1.88 0.0 0 1 146.21 89.76
  L 146.21 90.13
  A 1.83 1.83 0.0 0 1 144.18 91.95
  Q 140.81 91.58 137.47 92.40
  A 1.25 1.25 0.0 0 0 137.77 94.86
  L 144.51 94.86
  A 1.61 1.61 0.0 0 1 146.12 96.49
  Q 146.11 97.53 145.78 103.99
  C 145.57 108.24 142.13 111.60 138.63 114.20
  Q 135.55 116.50 130.74 116.22
  Q 120.82 115.64 117.06 107.74
  C 115.08 103.59 115.39 100.38 115.48 95.89
  A 1.04 1.03 -87.4 0 1 116.59 94.87
  Q 121.30 95.22 123.94 94.80
  A 1.40 1.40 0.0 0 0 123.72 92.02
  L 116.95 92.02
  A 1.57 1.57 0.0 0 1 115.38 90.41
  L 115.39 90.10
  A 1.92 1.76 -2.7 0 1 117.20 88.27
  L 124.36 87.84
  Z"
/>
<path fill="#1d3459" d="
  M 219.94 80.50
  L 220.06 138.20
  Q 219.93 153.10 220.07 168.00
  Q 220.14 174.86 219.42 177.45
  C 217.55 184.16 211.72 187.71 205.32 191.06
  Q 203.97 189.71 202.37 190.31
  C 195.06 193.04 189.55 194.55 183.90 198.26
  A 0.65 0.64 52.4 0 1 183.07 198.15
  L 182.68 197.73
  Q 184.17 197.92 184.32 196.24
  Q 184.53 193.78 184.16 191.33
  Q 183.86 189.41 182.28 190.41
  Q 180.48 186.63 176.05 186.20
  Q 170.58 185.66 166.45 184.20
  A 0.71 0.69 -80.9 0 1 165.98 183.53
  Q 166.01 172.70 165.80 168.29
  C 165.69 165.95 166.15 163.78 163.01 163.58
  A 0.62 0.61 -18.3 0 0 162.50 164.59
  Q 163.31 165.55 163.43 167.09
  Q 160.51 163.26 155.77 163.28
  Q 151.66 163.29 147.16 163.52
  A 1.42 1.41 88.5 0 0 145.81 164.95
  L 146.07 183.90
  Q 144.29 183.98 144.18 182.49
  Q 143.91 178.74 143.94 175.02
  A 0.72 0.71 88.5 0 0 143.19 174.30
  Q 142.23 174.34 141.66 175.51
  Q 143.03 171.40 141.97 167.21
  A 1.86 1.86 0.0 0 0 141.56 166.43
  Q 139.27 163.83 136.85 163.68
  Q 130.75 163.28 125.77 162.72
  A 0.98 0.98 0.0 0 0 124.68 163.68
  L 124.45 181.07
  L 124.11 175.16
  A 0.02 0.01 80.8 0 0 124.09 175.14
  L 124.08 175.14
  Q 123.96 178.26 123.65 182.43
  Q 123.60 183.11 123.10 183.17
  A 0.43 0.43 0.0 0 1 122.63 182.65
  Q 122.71 182.31 122.68 182.27
  A 0.22 0.22 0.0 0 0 122.28 182.35
  L 122.07 183.83
  C 122.16 182.55 121.72 182.37 121.22 181.50
  Q 119.09 177.81 116.40 175.08
  A 2.22 2.21 40.9 0 1 116.19 172.23
  L 121.43 165.07
  A 1.09 1.09 0.0 0 0 120.51 163.33
  L 117.62 163.42
  A 1.75 1.74 -73.0 0 0 116.27 164.14
  L 113.77 167.55
  A 1.84 1.84 0.0 0 1 110.60 167.20
  Q 108.55 162.46 103.45 163.63
  A 0.64 0.64 0.0 0 0 103.03 164.56
  L 104.28 166.90
  C 99.74 162.85 96.11 159.74 89.63 160.19
  C 85.32 160.48 81.30 161.86 76.81 160.95
  Q 70.52 159.68 67.38 159.42
  Q 60.44 158.85 53.95 161.90
  A 0.74 0.73 70.0 0 0 53.55 162.77
  L 56.48 173.16
  A 0.29 0.29 0.0 0 1 56.10 173.51
  Q 49.15 170.81 47.55 170.01
  Q 45.65 169.06 44.29 165.50
  A 2.65 2.37 37.4 0 1 44.14 164.71
  L 43.97 114.35
  Q 51.29 123.49 61.56 128.32
  Q 66.27 130.52 76.19 133.69
  Q 78.95 134.57 80.12 131.36
  Q 82.14 126.20 82.59 119.88
  Q 83.49 118.85 84.18 118.64
  Q 84.99 118.40 85.40 119.52
  Q 85.69 120.28 85.67 121.21
  Q 85.62 129.79 88.07 138.00
  A 0.29 0.06 55.9 0 1 88.10 138.07
  L 90.25 142.06
  A 0.93 0.92 -43.8 0 0 91.86 142.09
  Q 95.14 136.59 96.08 130.79
  Q 99.20 134.46 100.13 136.39
  Q 104.71 145.90 107.28 149.22
  Q 112.94 156.52 117.58 153.08
  Q 137.13 158.23 145.73 140.97
  Q 146.27 139.90 148.56 135.81
  L 170.09 96.95
  L 174.19 89.54
  Q 175.28 88.62 176.02 87.38
  A 0.62 0.62 0.0 0 1 177.16 87.81
  Q 176.37 92.03 173.92 96.54
  Q 171.01 102.93 167.43 109.15
  Q 166.63 110.55 165.64 111.78
  Q 165.31 112.18 164.86 112.48
  A 1.16 1.15 -13.0 0 0 164.35 113.29
  Q 163.91 116.72 160.93 120.03
  A 1.03 0.99 -14.3 0 0 160.72 120.37
  L 159.45 123.73
  A 0.67 0.65 0.7 0 1 159.05 124.11
  Q 158.11 124.42 158.01 126.17
  L 153.28 134.55
  A 0.96 0.95 -43.4 0 0 153.25 135.44
  Q 156.11 141.29 162.18 141.18
  C 163.71 141.16 165.99 139.77 167.36 139.14
  A 1.51 1.50 -46.3 0 1 168.57 139.11
  Q 170.48 139.87 171.04 141.37
  Q 172.81 146.11 175.10 149.06
  A 1.62 1.62 0.0 0 0 177.70 149.01
  C 180.45 145.12 180.23 140.40 180.28 134.55
  Q 180.42 133.27 181.34 131.02
  Q 182.29 128.68 182.38 124.61
  A 0.62 0.60 87.3 0 1 182.90 124.02
  Q 185.43 123.62 186.02 126.42
  Q 185.96 128.90 187.44 130.32
  A 1.64 1.60 -76.6 0 1 187.87 131.04
  C 188.61 133.55 190.66 136.20 193.50 136.01
  Q 194.60 135.93 195.59 134.05
  Q 197.86 129.72 200.00 125.54
  L 204.16 122.44
  A 1.61 1.61 0.0 0 1 205.03 122.14
  L 214.29 121.83
  A 3.02 3.02 0.0 0 0 217.05 119.78
  Q 217.67 117.96 217.74 114.18
  Q 217.75 113.47 217.69 95.60
  Q 217.67 87.25 219.94 80.50
  Z
  M 203.52 174.38
  Q 204.59 171.42 203.76 167.69
  A 2.20 2.19 19.5 0 0 203.33 166.79
  Q 200.35 163.07 195.55 163.09
  Q 189.01 163.12 187.11 163.48
  A 1.76 1.75 -6.6 0 0 185.69 165.26
  L 186.28 182.94
  A 1.23 1.23 0.0 0 0 187.55 184.13
  L 190.56 184.03
  A 1.21 1.20 -1.0 0 0 191.73 182.83
  L 191.73 179.22
  A 0.83 0.82 -2.7 0 1 192.48 178.40
  C 196.64 178.01 200.17 178.75 203.06 175.19
  A 2.88 2.74 -16.9 0 0 203.52 174.38
  Z
  M 167.50 163.58
  Q 165.54 172.23 166.34 183.01
  Q 166.42 184.07 167.78 183.96
  L 182.06 184.07
  A 1.43 1.42 -77.8 0 0 183.38 183.21
  Q 183.71 182.44 183.63 180.38
  A 0.71 0.71 0.0 0 0 182.92 179.69
  L 173.07 179.69
  A 0.90 0.89 81.8 0 1 172.21 179.04
  Q 171.62 176.97 172.35 175.85
  L 179.82 175.93
  A 2.12 2.12 0.0 0 0 181.96 173.81
  L 181.96 172.88
  A 2.42 2.42 0.0 0 0 179.71 170.47
  L 172.01 169.91
  Q 171.59 168.26 172.52 167.86
  A 0.29 0.23 -52.0 0 1 172.64 167.83
  L 180.92 167.87
  A 2.05 2.05 0.0 0 0 182.98 165.82
  L 182.98 165.21
  A 2.05 2.05 0.0 0 0 180.87 163.16
  L 167.50 163.58
  Z"
/>
<path fill="#c8e0ea" d="
  M 186.05 103.56
  Q 187.45 102.36 188.37 100.69
  A 0.93 0.92 -72.8 0 1 189.23 100.23
  C 191.53 100.40 192.03 104.01 192.23 105.95
  A 3.76 3.64 -63.6 0 0 192.70 107.42
  L 194.33 110.25
  A 0.76 0.74 70.3 0 0 195.08 110.62
  Q 197.29 110.32 198.26 108.62
  A 0.94 0.94 0.0 0 1 199.03 108.16
  L 201.67 108.05
  Q 202.03 108.52 202.15 109.22
  A 0.80 0.80 0.0 0 0 202.96 109.88
  Q 204.16 109.83 204.03 111.07
  A 0.95 0.95 0.0 0 0 204.98 112.11
  L 207.25 112.11
  A 0.58 0.57 -86.5 0 1 207.82 112.76
  Q 207.70 113.72 208.76 113.84
  Q 212.25 114.24 214.61 114.09
  A 1.16 1.15 87.1 0 1 215.84 115.21
  L 215.89 116.67
  A 1.21 1.20 88.6 0 1 214.71 117.92
  L 208.03 118.05
  Q 206.19 117.86 204.51 118.39
  A 1.04 1.04 0.0 0 0 203.86 119.00
  Q 203.71 119.38 203.46 119.73
  Q 203.03 120.33 201.41 121.58
  Q 200.16 122.55 198.53 122.00
  A 1.53 1.51 -6.8 0 1 197.77 121.41
  Q 196.82 119.95 194.93 119.86
  A 0.62 0.61 6.3 0 0 194.29 120.37
  L 193.95 122.44
  A 2.58 2.32 -29.8 0 1 193.69 123.23
  L 190.16 130.11
  A 1.00 1.00 0.0 0 1 188.42 130.19
  L 186.02 126.42
  Q 185.43 123.62 182.90 124.02
  A 0.62 0.60 87.3 0 0 182.38 124.61
  Q 182.29 128.68 181.34 131.02
  Q 180.42 133.27 180.28 134.55
  L 177.60 143.01
  A 0.95 0.93 2.0 0 1 176.90 143.65
  Q 174.72 144.15 174.32 141.51
  Q 173.60 136.63 172.44 135.10
  A 1.58 1.54 -66.5 0 1 172.14 134.31
  L 171.55 126.02
  A 0.89 0.88 13.5 0 0 171.11 125.31
  L 170.71 125.08
  A 1.06 1.05 -83.5 0 1 170.22 124.46
  L 169.60 122.26
  A 0.78 0.78 0.0 0 0 168.07 122.49
  Q 168.15 125.47 166.76 127.25
  A 1.93 1.89 66.5 0 0 166.36 128.30
  Q 166.05 132.50 163.88 135.15
  A 2.12 2.12 0.0 0 1 160.24 134.53
  Q 160.00 133.85 159.53 131.92
  Q 159.53 131.90 158.48 129.39
  Q 157.88 127.95 158.01 126.17
  Q 158.11 124.42 159.05 124.11
  A 0.67 0.65 0.7 0 0 159.45 123.73
  L 160.72 120.37
  A 1.03 0.99 -14.3 0 1 160.93 120.03
  Q 163.91 116.72 164.35 113.29
  A 1.16 1.15 -13.0 0 1 164.86 112.48
  Q 165.31 112.18 165.64 111.78
  Q 166.63 110.55 167.43 109.15
  Q 171.01 102.93 173.92 96.54
  Q 175.97 94.13 176.82 91.22
  A 1.42 1.42 0.0 0 1 179.59 91.41
  Q 180.05 94.50 180.47 98.37
  Q 180.57 99.26 181.31 99.86
  A 1.52 1.49 22.8 0 1 181.85 101.15
  Q 181.61 103.60 182.74 105.38
  A 1.08 1.05 -11.4 0 0 183.50 105.87
  Q 185.71 106.18 186.05 103.56
  Z"
/>
<path fill="#93aacb" d="
  M 139.08 117.95
  Q 134.98 123.66 131.68 130.15
  Q 130.84 131.79 128.21 133.30
  Q 128.72 129.43 128.00 126.32
  C 127.36 123.57 123.81 122.57 121.24 121.96
  A 4.89 4.86 65.8 0 1 120.04 121.50
  Q 108.23 115.20 107.71 101.57
  Q 107.51 96.15 107.53 94.04
  A 2.53 2.53 0.0 0 1 110.05 91.54
  L 110.22 91.54
  A 2.18 2.18 0.0 0 1 112.41 93.93
  C 111.65 101.87 112.01 109.35 117.98 114.88
  Q 124.73 121.14 134.63 120.00
  Q 136.24 119.81 137.13 118.76
  A 1.52 1.48 -76.7 0 1 137.90 118.27
  L 139.08 117.95
  Z"
/>
<path fill="#93aacb" d="
  M 201.67 108.05
  L 199.03 108.16
  A 0.94 0.94 0.0 0 0 198.26 108.62
  Q 197.29 110.32 195.08 110.62
  A 0.76 0.74 70.3 0 1 194.33 110.25
  L 192.70 107.42
  A 3.76 3.64 -63.6 0 1 192.23 105.95
  C 192.03 104.01 191.53 100.40 189.23 100.23
  A 0.93 0.92 -72.8 0 0 188.37 100.69
  Q 187.45 102.36 186.05 103.56
  L 187.53 99.24
  Q 189.02 96.40 191.50 94.47
  A 1.59 1.58 23.8 0 1 192.31 94.16
  C 195.09 93.94 195.68 95.72 197.15 97.86
  A 2.84 2.78 -68.2 0 1 197.62 98.99
  Q 197.88 100.36 198.97 101.62
  A 2.99 2.87 15.9 0 1 199.50 102.53
  Q 199.94 103.78 199.86 105.06
  A 0.99 0.99 0.0 0 0 200.40 105.99
  Q 201.61 106.61 201.67 108.05
  Z"
/>
<path fill="#6c85a4" d="
  M 78.74 98.27
  L 82.32 106.02
  L 81.56 105.40
  A 0.82 0.82 0.0 0 0 80.22 106.01
  L 79.82 118.20
  A 4.20 3.61 -52.0 0 0 79.85 118.83
  L 80.14 121.05
  A 0.76 0.76 0.0 0 0 81.59 121.25
  Q 81.97 120.39 82.59 119.88
  Q 82.14 126.20 80.12 131.36
  L 78.91 132.73
  A 1.36 1.36 0.0 0 1 76.58 132.15
  L 74.45 123.47
  L 75.14 123.94
  A 0.44 0.44 0.0 0 0 75.82 123.62
  Q 76.58 115.45 75.67 107.32
  A 0.47 0.47 0.0 0 0 74.94 106.98
  Q 74.58 107.21 74.15 107.85
  L 76.41 97.00
  A 0.71 0.70 -56.4 0 1 77.68 96.74
  L 78.74 98.27
  Z"
/>
<path fill="#bfd8f3" d="
  M 82.32 106.02
  Q 83.26 109.59 84.38 110.61
  Q 87.78 113.70 89.16 118.36
  L 89.35 123.23
  A 1.54 1.54 0.0 0 1 86.33 123.69
  L 85.67 121.21
  Q 85.69 120.28 85.40 119.52
  Q 84.99 118.40 84.18 118.64
  Q 83.49 118.85 82.59 119.88
  Q 81.97 120.39 81.59 121.25
  A 0.76 0.76 0.0 0 1 80.14 121.05
  L 79.85 118.83
  A 4.20 3.61 -52.0 0 1 79.82 118.20
  L 80.22 106.01
  A 0.82 0.82 0.0 0 1 81.56 105.40
  L 82.32 106.02
  Z"
/>
<path fill="#6c85a4" d="
  M 73.92 110.69
  Q 74.04 111.87 73.59 112.94
  A 1.19 1.19 0.0 0 1 72.89 113.61
  C 69.76 114.76 69.25 110.45 68.67 108.24
  A 0.49 0.49 0.0 0 0 67.85 108.01
  L 67.81 108.06
  A 1.44 1.44 0.0 0 0 67.41 109.38
  C 68.19 113.09 68.43 119.04 66.35 122.65
  A 0.72 0.71 21.1 0 0 66.82 123.70
  Q 67.33 123.81 68.35 123.01
  Q 67.57 124.97 66.02 124.70
  A 1.45 1.43 -14.7 0 1 65.15 124.20
  C 61.83 120.17 61.45 117.14 55.19 117.12
  Q 49.34 117.11 46.83 116.02
  A 0.44 0.44 0.0 0 1 46.93 115.19
  L 59.92 112.83
  A 3.34 3.31 -83.6 0 0 62.39 110.84
  Q 63.38 108.47 66.13 106.46
  A 1.95 1.92 27.0 0 1 67.30 106.09
  Q 68.94 106.12 69.26 108.06
  Q 69.69 110.62 70.42 112.08
  A 1.46 1.41 35.7 0 0 73.14 111.68
  Q 73.22 111.02 73.92 110.69
  Z"
/>
<path fill="#bfd8f3" d="
  M 74.45 123.47
  L 73.23 119.41
  A 1.63 1.63 0.0 0 0 70.20 119.17
  L 68.35 123.01
  Q 67.33 123.81 66.82 123.70
  A 0.72 0.71 21.1 0 1 66.35 122.65
  C 68.43 119.04 68.19 113.09 67.41 109.38
  A 1.44 1.44 0.0 0 1 67.81 108.06
  L 67.85 108.01
  A 0.49 0.49 0.0 0 1 68.67 108.24
  C 69.25 110.45 69.76 114.76 72.89 113.61
  A 1.19 1.19 0.0 0 0 73.59 112.94
  Q 74.04 111.87 73.92 110.69
  L 74.15 107.85
  Q 74.58 107.21 74.94 106.98
  A 0.47 0.47 0.0 0 1 75.67 107.32
  Q 76.58 115.45 75.82 123.62
  A 0.44 0.44 0.0 0 1 75.14 123.94
  L 74.45 123.47
  Z"
/>
<path fill="#7f8eaf" d="
  M 208.03 118.05
  Q 207.84 119.93 204.65 120.13
  A 0.61 0.60 88.5 0 0 204.08 120.74
  Q 204.08 120.83 204.08 120.95
  A 0.87 0.87 0.0 0 1 203.58 121.72
  Q 202.79 122.09 202.41 122.87
  Q 202.12 123.47 201.08 124.04
  Q 200.16 124.55 200.00 125.54
  Q 197.86 129.72 195.59 134.05
  Q 194.60 135.93 193.50 136.01
  C 190.66 136.20 188.61 133.55 187.87 131.04
  A 1.64 1.60 -76.6 0 0 187.44 130.32
  Q 185.96 128.90 186.02 126.42
  L 188.42 130.19
  A 1.00 1.00 0.0 0 0 190.16 130.11
  L 193.69 123.23
  A 2.58 2.32 -29.8 0 0 193.95 122.44
  L 194.29 120.37
  A 0.62 0.61 6.3 0 1 194.93 119.86
  Q 196.82 119.95 197.77 121.41
  A 1.53 1.51 -6.8 0 0 198.53 122.00
  Q 200.16 122.55 201.41 121.58
  Q 203.03 120.33 203.46 119.73
  Q 203.71 119.38 203.86 119.00
  A 1.04 1.04 0.0 0 1 204.51 118.39
  Q 206.19 117.86 208.03 118.05
  Z"
/>
<path fill="#63789f" d="
  M 96.08 130.79
  Q 95.14 136.59 91.86 142.09
  A 0.93 0.92 -43.8 0 1 90.25 142.06
  L 88.10 138.07
  A 0.29 0.06 55.9 0 0 88.07 138.00
  Q 85.62 129.79 85.67 121.21
  L 86.33 123.69
  A 1.54 1.54 0.0 0 0 89.35 123.23
  L 89.16 118.36
  Q 93.17 124.06 96.08 130.79
  Z"
/>
<path fill="#63789f" d="
  M 180.28 134.55
  C 180.23 140.40 180.45 145.12 177.70 149.01
  A 1.62 1.62 0.0 0 1 175.10 149.06
  Q 172.81 146.11 171.04 141.37
  Q 170.48 139.87 168.57 139.11
  A 1.51 1.50 -46.3 0 0 167.36 139.14
  C 165.99 139.77 163.71 141.16 162.18 141.18
  Q 156.11 141.29 153.25 135.44
  A 0.96 0.95 -43.4 0 1 153.28 134.55
  L 158.01 126.17
  Q 157.88 127.95 158.48 129.39
  Q 159.53 131.90 159.53 131.92
  Q 160.00 133.85 160.24 134.53
  A 2.12 2.12 0.0 0 0 163.88 135.15
  Q 166.05 132.50 166.36 128.30
  A 1.93 1.89 66.5 0 1 166.76 127.25
  Q 168.15 125.47 168.07 122.49
  A 0.78 0.78 0.0 0 1 169.60 122.26
  L 170.22 124.46
  A 1.06 1.05 -83.5 0 0 170.71 125.08
  L 171.11 125.31
  A 0.89 0.88 13.5 0 1 171.55 126.02
  L 172.14 134.31
  A 1.58 1.54 -66.5 0 0 172.44 135.10
  Q 173.60 136.63 174.32 141.51
  Q 174.72 144.15 176.90 143.65
  A 0.95 0.93 2.0 0 0 177.60 143.01
  L 180.28 134.55
  Z"
/>
<path fill="#6c85a4" d="
  M 148.56 135.81
  Q 146.27 139.90 145.73 140.97
  Q 137.13 158.23 117.58 153.08
  L 113.76 150.69
  A 1.66 1.42 83.3 0 1 113.34 150.30
  Q 113.18 150.08 113.15 150.03
  A 1.69 1.67 -5.7 0 0 112.22 149.28
  Q 110.89 148.84 110.23 147.45
  Q 116.33 151.09 123.47 150.16
  C 128.86 149.46 134.78 143.26 137.42 138.76
  Q 142.21 130.60 146.42 122.15
  C 149.95 126.03 148.49 131.07 148.56 135.81
  Z"
/>
<path fill="#d1e3f4" d="
  M 141.66 175.51
  Q 139.89 177.94 137.02 178.01
  Q 133.78 178.07 130.73 178.22
  A 0.78 0.77 -1.2 0 0 129.98 178.99
  L 129.98 183.19
  A 0.72 0.72 0.0 0 1 129.26 183.91
  L 124.97 183.91
  A 0.66 0.65 -88.3 0 1 124.32 183.21
  L 124.45 181.07
  L 124.68 163.68
  A 0.98 0.98 0.0 0 1 125.77 162.72
  Q 130.75 163.28 136.85 163.68
  Q 139.27 163.83 141.56 166.43
  A 1.86 1.86 0.0 0 1 141.97 167.21
  Q 143.03 171.40 141.66 175.51
  Z
  M 136.4628 169.2835
  A 1.51 1.51 0.0 0 0 134.9267 167.8001
  L 131.4472 167.8608
  A 1.51 1.51 0.0 0 0 129.9638 169.3970
  L 130.0172 172.4565
  A 1.51 1.51 0.0 0 0 131.5533 173.9399
  L 135.0328 173.8792
  A 1.51 1.51 0.0 0 0 136.5162 172.3430
  L 136.4628 169.2835
  Z"
/>
<path fill="#f2f4f4" d="
  M 67.91 175.89
  Q 68.49 175.90 68.99 174.75
  Q 71.89 168.17 72.71 165.58
  A 3.69 3.68 8.9 0 1 76.22 163.02
  L 77.64 163.02
  A 1.58 1.58 0.0 0 1 79.01 165.39
  Q 77.02 168.87 71.75 181.27
  Q 70.54 184.11 67.85 184.09
  Q 65.17 184.07 63.99 181.22
  Q 58.88 168.75 56.94 165.25
  A 1.58 1.58 0.0 0 1 58.34 162.89
  L 59.76 162.91
  A 3.69 3.68 -8.1 0 1 63.24 165.52
  Q 64.02 168.12 66.83 174.74
  Q 67.32 175.89 67.91 175.89
  Z"
/>
<path fill="#f2f4f4" d="
  M 101.3187 174.2495
  A 9.56 9.56 0.0 0 1 91.9951 184.0402
  L 88.9960 184.1135
  A 9.56 9.56 0.0 0 1 79.2053 174.7900
  L 79.1613 172.9905
  A 9.56 9.56 0.0 0 1 88.4849 163.1998
  L 91.4840 163.1265
  A 9.56 9.56 0.0 0 1 101.2747 172.4500
  L 101.3187 174.2495
  Z
  M 96.46 173.69
  A 6.00 6.00 0.0 0 0 90.46 167.69
  A 6.00 6.00 0.0 0 0 84.46 173.69
  A 6.00 6.00 0.0 0 0 90.46 179.69
  A 6.00 6.00 0.0 0 0 96.46 173.69
  Z"
/>
<path fill="#d1e3f4" d="
  M 203.06 175.19
  C 200.17 178.75 196.64 178.01 192.48 178.40
  A 0.83 0.82 -2.7 0 0 191.73 179.22
  L 191.73 182.83
  A 1.21 1.20 -1.0 0 1 190.56 184.03
  L 187.55 184.13
  A 1.23 1.23 0.0 0 1 186.28 182.94
  L 185.69 165.26
  A 1.76 1.75 -6.6 0 1 187.11 163.48
  Q 189.01 163.12 195.55 163.09
  Q 200.35 163.07 203.33 166.79
  A 2.20 2.19 19.5 0 1 203.76 167.69
  Q 204.59 171.42 203.52 174.38
  A 2.88 2.74 -16.9 0 1 203.06 175.19
  Z
  M 198.1965 169.5098
  A 1.54 1.54 0.0 0 0 196.6754 167.9511
  L 193.2557 167.9093
  A 1.54 1.54 0.0 0 0 191.6970 169.4304
  L 191.6635 172.1702
  A 1.54 1.54 0.0 0 0 193.1846 173.7289
  L 196.6043 173.7707
  A 1.54 1.54 0.0 0 0 198.1630 172.2496
  L 198.1965 169.5098
  Z"
/>
<path fill="#f2f4f4" d="
  M 122.07 183.83
  Q 119.64 184.23 117.23 183.83
  A 1.40 1.37 73.7 0 1 116.41 183.37
  Q 114.62 181.33 113.94 179.41
  A 1.87 1.87 0.0 0 0 110.56 179.10
  L 108.50 182.67
  A 2.81 2.80 15.0 0 1 106.07 184.07
  L 103.24 184.07
  A 0.90 0.90 0.0 0 1 102.52 182.64
  L 107.77 175.46
  A 3.18 3.17 45.1 0 0 107.77 171.71
  L 104.28 166.90
  L 103.03 164.56
  A 0.64 0.64 0.0 0 1 103.45 163.63
  Q 108.55 162.46 110.60 167.20
  A 1.84 1.84 0.0 0 0 113.77 167.55
  L 116.27 164.14
  A 1.75 1.74 -73.0 0 1 117.62 163.42
  L 120.51 163.33
  A 1.09 1.09 0.0 0 1 121.43 165.07
  L 116.19 172.23
  A 2.22 2.21 40.9 0 0 116.40 175.08
  Q 119.09 177.81 121.22 181.50
  C 121.72 182.37 122.16 182.55 122.07 183.83
  Z"
/>
<path fill="#d1e3f4" d="
  M 172.01 169.91
  Q 172.20 171.52 173.87 171.56
  Q 178.20 171.68 179.51 171.64
  A 1.37 1.37 0.0 0 1 180.92 173.01
  L 180.92 173.47
  A 2.07 2.07 0.0 0 1 178.96 175.54
  L 172.35 175.85
  Q 171.62 176.97 172.21 179.04
  A 0.90 0.89 81.8 0 0 173.07 179.69
  L 182.92 179.69
  A 0.71 0.71 0.0 0 1 183.63 180.38
  Q 183.71 182.44 183.38 183.21
  A 1.43 1.42 -77.8 0 1 182.06 184.07
  L 167.78 183.96
  L 167.50 163.58
  L 180.87 163.16
  A 2.05 2.05 0.0 0 1 182.98 165.21
  L 182.98 165.82
  A 2.05 2.05 0.0 0 1 180.92 167.87
  L 172.64 167.83
  A 0.29 0.23 -52.0 0 0 172.52 167.86
  Q 171.59 168.26 172.01 169.91
  Z"
/>
<path fill="#d1e3f4" d="
  M 163.43 167.09
  Q 164.03 169.94 163.68 173.03
  Q 162.35 173.80 161.82 175.16
  A 1.20 1.20 0.0 0 1 161.02 175.88
  Q 160.56 176.01 160.28 176.22
  A 1.15 1.14 -20.7 0 0 159.82 177.23
  Q 159.99 179.37 162.15 180.71
  Q 162.17 181.64 163.77 182.97
  A 0.50 0.50 0.0 0 1 163.54 183.85
  Q 156.31 185.20 156.44 180.71
  Q 154.95 176.73 150.64 178.30
  A 0.74 0.73 82.3 0 0 150.15 178.95
  L 149.81 184.16
  L 146.07 183.90
  L 145.81 164.95
  A 1.42 1.41 88.5 0 1 147.16 163.52
  Q 151.66 163.29 155.77 163.28
  Q 160.51 163.26 163.43 167.09
  Z
  M 156.47 173.80
  Q 158.84 172.91 157.91 169.43
  A 1.14 1.12 6.4 0 0 157.33 168.72
  Q 155.96 168.02 154.37 167.91
  Q 152.82 167.08 151.13 167.76
  A 1.18 1.18 0.0 0 0 150.43 168.58
  Q 149.85 170.94 150.25 173.38
  A 0.74 0.73 84.4 0 0 151.01 174.01
  L 156.47 173.80
  Z"
/>
<path fill="#8099ba" d="
  M 167.50 163.58
  L 167.78 183.96
  Q 166.42 184.07 166.34 183.01
  Q 165.54 172.23 167.50 163.58
  Z"
/>
<circle fill="#172849" cx="90.46" cy="173.69" r="6.00"/>
<path fill="#7f8eaf" d="
  M 154.37 167.91
  Q 152.95 167.76 152.22 168.24
  A 0.87 0.85 -18.2 0 0 151.83 168.99
  L 151.95 172.63
  A 1.05 1.05 0.0 0 0 152.95 173.65
  L 156.47 173.80
  L 151.01 174.01
  A 0.74 0.73 84.4 0 1 150.25 173.38
  Q 149.85 170.94 150.43 168.58
  A 1.18 1.18 0.0 0 1 151.13 167.76
  Q 152.82 167.08 154.37 167.91
  Z"
/>
<rect fill="#071329" x="-3.25" y="-3.04" transform="translate(133.24,170.87) rotate(-1.0)" width="6.50" height="6.08" rx="1.51"/>
<rect fill="#071329" x="-3.25" y="-2.91" transform="translate(194.93,170.84) rotate(0.7)" width="6.50" height="5.82" rx="1.54"/>
<path fill="#071329" d="
  M 154.37 167.91
  Q 155.96 168.02 157.33 168.72
  A 1.14 1.12 6.4 0 1 157.91 169.43
  Q 158.84 172.91 156.47 173.80
  L 152.95 173.65
  A 1.05 1.05 0.0 0 1 151.95 172.63
  L 151.83 168.99
  A 0.87 0.85 -18.2 0 1 152.22 168.24
  Q 152.95 167.76 154.37 167.91
  Z"
/>
<path fill="#6c85a4" d="
  M 172.35 175.85
  L 178.96 175.54
  A 2.07 2.07 0.0 0 0 180.92 173.47
  L 180.92 173.01
  A 1.37 1.37 0.0 0 0 179.51 171.64
  Q 178.20 171.68 173.87 171.56
  Q 172.20 171.52 172.01 169.91
  L 179.71 170.47
  A 2.42 2.42 0.0 0 1 181.96 172.88
  L 181.96 173.81
  A 2.12 2.12 0.0 0 1 179.82 175.93
  L 172.35 175.85
  Z"
/>
<path fill="#63789f" d="
  M 163.68 173.03
  Q 164.20 175.11 162.63 176.27
  A 1.20 1.20 0.0 0 0 162.14 177.03
  Q 161.79 178.74 162.15 180.71
  Q 159.99 179.37 159.82 177.23
  A 1.15 1.14 -20.7 0 1 160.28 176.22
  Q 160.56 176.01 161.02 175.88
  A 1.20 1.20 0.0 0 0 161.82 175.16
  Q 162.35 173.80 163.68 173.03
  Z"
/>
<path fill="#6c85a4" d="
  M 156.44 180.71
  Q 155.22 179.72 154.09 179.39
  A 0.99 0.96 -3.3 0 1 153.50 178.88
  Q 153.25 178.34 152.85 178.33
  A 0.51 0.50 -87.6 0 0 152.34 178.81
  Q 151.99 184.42 149.81 184.16
  L 150.15 178.95
  A 0.74 0.73 82.3 0 1 150.64 178.30
  Q 154.95 176.73 156.44 180.71
  Z"
/>
<path fill="#7f8eaf" d="
  M 139.98 190.28
  L 139.92 193.28
  A 0.87 0.83 5.2 0 0 140.65 194.12
  Q 140.79 194.14 141.01 194.15
  A 0.72 0.71 -2.3 0 1 141.70 194.78
  L 142.00 197.42
  Q 141.63 195.69 140.54 196.03
  A 0.45 0.45 0.0 0 0 140.23 196.46
  L 140.23 197.20
  A 0.69 0.69 0.0 0 1 139.84 197.82
  Q 139.05 198.21 138.22 197.65
  Q 138.09 195.96 136.69 195.09
  A 0.93 0.91 11.6 0 1 136.27 194.47
  L 135.86 192.19
  A 0.79 0.78 -42.6 0 0 134.33 192.13
  Q 133.49 195.23 135.16 196.94
  A 0.38 0.38 0.0 0 1 134.91 197.59
  L 130.70 197.82
  L 126.73 197.61
  A 0.88 0.88 0.0 0 1 125.95 197.03
  Q 125.63 196.13 124.97 195.94
  Q 124.51 195.80 124.24 196.24
  Q 124.10 196.46 124.11 196.77
  Q 124.14 197.20 124.09 197.31
  Q 123.70 198.14 122.73 197.88
  Q 121.66 197.59 121.19 197.61
  C 116.00 197.83 111.83 198.13 107.16 197.60
  A 1.17 1.15 -1.6 0 1 106.15 196.66
  L 105.47 192.94
  A 0.17 0.16 -3.8 0 0 105.30 192.80
  L 104.90 192.80
  A 0.39 0.38 -85.6 0 0 104.52 193.13
  L 103.89 197.13
  A 0.84 0.84 0.0 0 1 102.92 197.83
  L 102.86 197.82
  A 1.00 0.99 4.8 0 1 102.03 196.84
  Q 102.06 193.88 101.39 192.37
  A 0.73 0.72 33.2 0 0 100.00 192.66
  L 100.00 197.02
  A 0.92 0.91 -69.3 0 1 98.48 197.71
  Q 97.89 197.19 97.60 196.62
  A 0.74 0.73 -49.6 0 0 96.25 196.74
  Q 95.91 197.77 94.83 197.61
  Q 92.87 197.32 91.41 197.68
  A 0.95 0.95 0.0 0 1 90.23 196.79
  L 90.06 191.83
  A 1.41 1.41 0.0 0 1 91.42 190.38
  L 95.03 190.26
  A 0.96 0.96 0.0 0 1 95.73 190.54
  Q 96.17 191.00 96.34 191.50
  A 0.61 0.59 55.2 0 0 97.39 191.71
  Q 98.48 190.24 100.76 190.20
  Q 110.44 190.03 121.02 190.13
  A 0.98 0.98 0.0 0 1 121.97 190.94
  L 122.14 191.84
  A 0.93 0.93 0.0 0 0 123.98 191.67
  L 123.98 191.25
  A 0.95 0.95 0.0 0 1 124.90 190.30
  L 137.26 189.88
  A 0.82 0.82 0.0 0 1 138.10 190.67
  Q 138.16 191.89 138.83 192.16
  A 0.57 0.56 -78.7 0 0 139.60 191.64
  Q 139.61 190.85 139.98 190.28
  Z"
/>
<path fill="#93aacb" d="
  M 142.00 197.42
  L 141.70 194.78
  A 0.72 0.71 -2.3 0 0 141.01 194.15
  Q 140.79 194.14 140.65 194.12
  A 0.87 0.83 5.2 0 1 139.92 193.28
  L 139.98 190.28
  Q 140.63 189.99 141.28 190.06
  A 0.94 0.93 87.8 0 1 142.09 190.82
  L 142.30 191.99
  A 0.48 0.48 0.0 0 0 142.77 192.39
  L 143.10 192.39
  A 0.64 0.64 0.0 0 0 143.74 191.76
  Q 143.78 189.84 145.44 190.14
  A 0.58 0.58 0.0 0 1 145.91 190.72
  Q 145.90 192.85 145.46 194.77
  Q 145.01 196.74 144.05 197.54
  Q 143.03 198.38 142.00 197.42
  Z"
/>
<path fill="#8099ba" d="
  M 154.49 190.00
  L 154.35 191.02
  A 0.70 0.70 0.0 0 1 153.65 191.62
  Q 152.09 191.59 151.92 193.22
  Q 151.73 194.98 153.52 196.61
  A 0.58 0.58 0.0 0 1 153.11 197.62
  Q 152.58 197.61 151.72 197.92
  L 151.00 197.70
  A 1.64 1.62 79.5 0 1 150.25 197.18
  Q 145.01 190.46 154.49 190.00
  Z"
/>
<path fill="#7f8eaf" d="
  M 182.28 190.41
  Q 183.86 189.41 184.16 191.33
  Q 184.53 193.78 184.32 196.24
  Q 184.17 197.92 182.68 197.73
  L 181.54 195.41
  A 0.58 0.58 0.0 0 0 180.45 195.62
  Q 180.27 197.73 177.76 197.80
  Q 173.35 197.92 167.29 197.41
  A 0.37 0.18 -19.3 0 0 167.20 197.40
  L 151.72 197.92
  Q 152.58 197.61 153.11 197.62
  A 0.58 0.58 0.0 0 0 153.52 196.61
  Q 151.73 194.98 151.92 193.22
  Q 152.09 191.59 153.65 191.62
  A 0.70 0.70 0.0 0 0 154.35 191.02
  L 154.49 190.00
  L 160.29 190.12
  A 4.43 2.83 -20.3 0 1 161.98 190.49
  Q 162.09 190.55 162.20 190.62
  A 1.62 1.60 -36.5 0 0 163.51 190.81
  Q 165.69 190.21 166.77 190.10
  Q 168.14 189.96 168.31 191.24
  A 0.66 0.66 0.0 0 0 168.99 191.81
  Q 169.54 191.79 170.16 191.14
  A 1.53 1.45 12.7 0 1 170.78 190.77
  Q 174.37 189.70 178.96 190.31
  A 1.26 1.24 -3.9 0 1 180.00 191.21
  L 180.16 191.80
  A 0.78 0.77 -18.4 0 0 181.19 192.31
  Q 182.09 191.95 182.28 190.41
  Z
  M 158.9049 191.9424
  A 1.88 0.95 -92.9 0 0 158.0512 193.8681
  A 1.88 0.95 -92.9 0 0 159.0951 195.6976
  A 1.88 0.95 -92.9 0 0 159.9488 193.7719
  A 1.88 0.95 -92.9 0 0 158.9049 191.9424
  Z"
/>
<path fill="#8099ba" d="
  M 82.96 192.96
  Q 83.84 192.91 84.07 191.69
  A 1.68 1.67 -84.6 0 1 85.71 190.32
  L 86.32 190.32
  A 1.09 1.09 0.0 0 1 87.41 191.42
  L 87.36 195.91
  A 1.62 1.60 80.8 0 1 86.28 197.42
  Q 85.31 197.76 83.03 197.42
  A 1.44 1.29 63.0 0 1 82.43 197.19
  Q 80.69 196.03 77.98 197.19
  A 1.05 1.05 0.0 0 1 76.66 195.70
  L 79.28 191.16
  A 1.47 1.46 -42.3 0 1 81.88 191.28
  L 82.54 192.71
  A 0.43 0.42 -13.7 0 0 82.96 192.96
  Z"
/>
<path fill="#3d618a" d="
  M 138.22 197.65
  L 130.70 197.82
  L 134.91 197.59
  A 0.38 0.38 0.0 0 0 135.16 196.94
  Q 133.49 195.23 134.33 192.13
  A 0.79 0.78 -42.6 0 1 135.86 192.19
  L 136.27 194.47
  A 0.93 0.91 11.6 0 0 136.69 195.09
  Q 138.09 195.96 138.22 197.65
  Z"
/>
<ellipse fill="#35537b" cx="0.00" cy="0.00" transform="translate(159.00,193.82) rotate(-92.9)" rx="1.88" ry="0.95"/>
<path fill="#6c85a4" d="
  M 191.66 208.47
  Q 183.91 214.23 175.05 217.80
  Q 179.50 214.68 186.64 210.65
  Q 189.49 209.03 191.66 208.47
  Z"
/>
<path fill="#6c85a4" d="
  M 160.92 225.93
  Q 158.36 228.53 155.22 230.38
  Q 150.96 232.87 149.02 234.09
  Q 144.56 236.88 139.65 237.97
  L 160.92 225.93
  Z"
/>
</svg>
