<?xml version="1.0" encoding="UTF-8"?>
<svg width="512" height="512" viewBox="0 0 512 512" fill="none" xmlns="http://www.w3.org/2000/svg">
  <defs><linearGradient id="dlg" x1="0%" y1="0%" x2="100%" y2="100%"><stop offset="0%" stop-color="#F59E0B"/><stop offset="50%" stop-color="#EC4899"/><stop offset="100%" stop-color="#8B5CF6"/></linearGradient></defs>
  <rect width="512" height="512" rx="113" fill="url(#dlg)"/>
  <g transform="translate(72,149) scale(0.34324)" fill="white" opacity="0.95"><path d="M404.554 316.755C404.85 317.844 405.103 318.891 405.483 319.896C408.309 327.266 411.094 334.636 412.908 342.341C413.541 345.063 414.216 347.743 414.976 350.423C417.381 359.049 419.997 367.634 422.275 376.302C424.807 385.891 427.507 395.355 430.925 404.651C434.216 413.613 438.435 421.904 445.481 428.604C449.616 432.54 453.287 437.021 457.337 441.083C461.177 444.935 464.51 449.207 467.885 453.436C470.712 456.954 471.134 460.806 470.121 464.784C469.446 467.423 468.223 470.019 466.83 472.406C465.016 475.463 462.78 478.226 460.797 481.2C458.181 485.052 455.565 488.863 453.118 492.799C449.827 498.033 446.156 503.142 444.721 509.256C442.021 520.73 440.502 532.371 439.574 544.096C438.899 552.262 438.308 560.428 437.38 568.551C436.241 578.685 434.891 588.777 432.233 598.66C430.756 604.187 429.659 609.799 427.043 614.949C426.452 616.164 425.608 617.42 426.494 619.053C428.857 620.267 431.557 619.932 434.089 619.43C437.76 618.718 441.346 617.755 445.143 617.755C446.029 617.755 447 617.42 447.844 617.085C451.303 615.703 454.721 614.196 458.181 612.856C459.742 612.227 461.387 611.557 463.033 611.39C465.522 611.139 467.379 610.05 469.151 608.417C471.64 606.114 474.087 603.517 477.083 602.052C481.556 599.832 483.412 595.393 486.83 592.295C489.192 590.159 490.669 587.102 492.694 584.59C494.593 582.287 495.732 579.607 497.082 577.01C498.348 574.54 500.247 572.362 501.302 569.808C504.593 561.642 509.698 554.272 511.765 545.604C511.85 545.143 512.187 544.766 512.356 544.347C514.55 538.904 516.617 533.418 518.98 528.016C520.921 523.577 522.398 519.055 523.41 514.365C523.621 513.485 523.917 512.564 524.381 511.769C528.178 505.027 529.613 497.238 533.663 490.58C536.87 485.303 539.908 479.943 543.114 474.667C543.832 473.494 544.802 472.448 545.688 471.359C547.376 469.307 549.528 468.344 552.27 468.553C556.321 468.846 560.329 469.056 564.379 469.265C572.312 469.684 580.244 470.144 588.134 470.396C594.209 470.563 600.285 470.479 606.361 470.396C611.508 470.396 616.656 470.354 621.761 470.144C626.402 469.977 631.086 469.684 635.727 469.391C639.609 469.139 643.49 468.763 647.33 468.428C649.946 468.176 652.604 467.925 655.22 467.632C660.958 467.004 666.654 466.418 672.35 465.747C673.109 465.664 673.953 465.58 674.628 465.203C676.864 463.947 679.227 463.863 681.717 463.612C691.168 462.649 700.492 460.806 709.69 458.336C715.091 456.87 720.576 455.907 725.808 453.855C731.293 451.761 737.115 450.463 742.769 448.662C747.368 447.197 751.925 445.689 756.397 443.972C762.178 441.711 767.958 439.408 773.485 436.602C776.65 434.969 779.941 433.545 783.316 432.457C785.426 431.787 787.324 430.823 789.181 429.735C791.712 428.269 794.286 426.762 796.902 425.422C800.362 423.663 803.948 422.155 807.366 420.271C810.615 418.47 813.695 416.376 816.944 414.492C818.673 413.487 820.698 412.859 822.26 411.645C827.66 407.457 834.073 404.861 839.432 400.506C842.934 397.7 846.858 395.397 850.698 393.094C854.41 390.874 857.49 387.818 861.161 385.473C867.068 381.787 872.722 377.684 877.785 372.784C880.19 370.439 883.228 368.722 886.013 366.754C886.899 366.126 888.038 365.791 888.755 365.037C891.666 361.813 895.886 360.012 898.375 356.285C898.712 355.783 899.345 355.532 899.809 355.113C901.961 353.354 904.155 351.595 906.307 349.878C906.771 349.543 907.32 349.292 908.079 348.873C908.29 349.753 908.543 350.297 908.543 350.883C908.543 353.522 908.628 356.16 908.543 358.756C908.121 369.434 906.012 379.903 903.775 390.33C901.539 400.59 899.134 410.849 897.236 421.192C896.054 427.557 895.548 434.048 896.308 440.539C896.476 442.004 896.307 443.679 897.7 444.81C898.164 444.81 898.628 444.935 899.05 444.852C908.163 443.177 915.716 438.194 923.521 433.713C923.901 433.504 924.239 433.127 924.576 432.792C928.458 429.232 932.593 425.882 936.179 422.072C939.259 418.847 941.918 415.162 944.534 411.519C946.306 409.006 947.487 406.075 949.217 403.521C951.242 400.548 952.677 397.323 953.731 393.889C954.069 392.717 954.575 391.586 954.997 390.414C958.752 379.736 961.875 368.932 963.14 357.625C963.815 351.47 964.322 345.314 965.25 339.242C966.769 329.15 966.727 318.933 967.655 308.757C968.246 302.308 968.372 295.817 968.794 289.327C969.09 284.846 969.343 280.365 969.807 275.927C970.566 269.31 971.41 262.736 972.423 256.161C973.688 247.577 975.545 239.16 979.047 231.162C981.072 226.514 982.718 221.656 984.49 216.882C985.249 214.872 985.671 212.695 986.641 210.81C989.553 205.199 992.591 199.63 995.755 194.186C998.455 189.496 1000.1 184.262 1003.86 180.158C1004.28 179.697 1004.45 179.069 1004.7 178.525C1008.62 170.987 1012.25 163.282 1016.64 155.996C1017.91 153.86 1019.13 151.724 1020.27 149.505C1021.83 146.49 1023.39 143.475 1024.7 140.376C1026.72 135.519 1028.54 130.577 1030.52 125.72C1033.39 118.727 1036.43 111.775 1039.26 104.74C1041.15 100.008 1042.63 95.1089 1044.49 90.377C1046.39 85.4776 1048.62 80.7038 1050.56 75.8463C1051.96 72.4125 1053.09 68.895 1054.36 65.4193C1055.16 63.2418 1056.22 61.148 1056.81 58.9286C1058.12 53.7361 1061.15 49.0042 1061.32 43.4348C1061.32 42.5973 1062 41.7598 1062.42 40.9223C1062.88 39.9591 1063.47 39.0379 1063.85 38.0329C1065.92 32.5472 1068.16 27.1034 1069.89 21.4921C1071.45 16.4671 1072.5 11.3164 1073.73 6.2076C1073.9 5.49572 1074.02 4.57447 1073.77 3.94634C1073.47 3.15071 1072.8 2.1457 1072.08 1.93632C1069.25 1.14069 1066.39 0.219432 1063.47 0.093806C1055.75 -0.241197 1048.45 1.26632 1041.37 4.74197C1031.66 9.51576 1022.88 15.5458 1014.57 22.3296C1012.17 24.2977 1010.06 26.559 1007.78 28.6528C1004.74 31.5422 1001.66 34.3478 998.666 37.2791C990.734 44.9423 983.941 53.6524 975.46 60.7712C974.87 61.2737 974.448 61.9437 973.899 62.488C966.431 69.9419 958.963 77.3957 951.495 84.8076C951.073 85.2264 950.483 85.5614 950.061 85.9801C948.922 87.027 947.782 88.0739 946.727 89.2045C943.099 93.2246 939.681 97.454 935.842 101.306C926.897 110.226 919.218 120.15 911.328 129.907C902.383 141.004 894.282 152.729 886.983 164.999C886.434 165.878 885.717 166.674 885.084 167.553C880.19 166.423 875.549 165.292 870.823 164.329C856.646 161.439 842.512 158.383 827.871 158.424C821.838 158.424 815.762 158.257 809.729 158.424C800.657 158.634 791.712 159.806 782.767 160.937C775.679 161.816 768.675 163.491 761.714 164.999C758.212 165.753 754.752 166.674 751.376 167.805C746.229 169.521 741.166 171.531 736.018 173.29C727.453 176.221 719.099 179.613 711.167 183.885C703.361 188.072 695.64 192.385 687.961 196.824C678.552 202.268 669.481 208.256 660.789 214.789C653.49 220.274 646.359 226.053 639.44 232.083C629.229 240.961 619.398 250.173 609.947 259.805C609.483 260.265 609.188 260.893 608.344 262.192C609.778 261.647 610.327 261.438 610.875 261.228C615.812 258.925 620.706 256.538 625.685 254.361C630.959 252.058 636.106 249.587 641.17 246.823C644.418 245.064 647.878 243.264 651.465 242.552C658.089 241.254 663.194 236.145 670.071 235.643C670.662 235.601 671.169 235.098 671.717 234.805C674.628 233.381 677.497 231.664 680.535 230.659C685.092 229.152 689.818 228.189 694.501 226.974C695.556 226.681 696.568 226.262 697.623 226.011C700.323 225.299 703.024 224.587 705.724 223.959C706.779 223.708 707.876 223.75 708.931 223.499C717.411 221.614 725.892 219.521 734.71 219.73C735.807 219.73 736.904 219.604 737.959 219.437C742.305 218.725 746.651 218.809 750.997 219.269C752.22 219.395 753.486 219.562 754.71 219.688C760.279 220.107 765.891 220.358 771.46 220.944C775.173 221.321 778.886 221.949 782.514 222.871C786.438 223.876 790.236 225.216 794.033 226.639C796.311 227.477 796.775 228.733 796.016 231.078C795.594 232.376 795.088 233.758 794.244 234.847C791.037 239.034 787.999 243.39 784.329 247.116C780.109 251.43 775.342 255.198 770.743 259.176C764.667 264.453 757.874 268.892 752.094 274.545C749.309 277.267 746.651 280.072 743.866 282.794C737.2 289.327 731.461 296.697 725.976 304.151C720.027 312.233 714.374 320.566 708.72 328.899C704.627 334.929 700.788 341.085 696.779 347.157C693.699 351.805 690.661 356.495 687.455 361.017C683.446 366.712 679.396 372.407 675.05 377.851C670.114 384.007 665.304 390.372 659.65 395.816C652.182 402.976 644.376 409.97 634.503 414.031C633.913 414.283 633.406 414.618 632.858 414.911C626.065 419.015 618.639 421.904 611.297 424.919C605.981 427.097 600.412 428.562 594.842 430.028C582.058 433.336 569.189 435.053 555.983 434.048C551.975 433.755 547.882 433.127 544.085 431.912C536.743 429.609 530.161 425.798 524.381 420.648C522.313 418.805 519.74 417.256 518.221 415.036C515.31 410.681 511.175 407.122 509.234 402.139C502.778 392.968 498.179 382.834 493.116 372.952C490.585 368.01 488.391 362.818 485.311 358.254C482.188 353.647 478.982 349.125 475.733 344.602C472.4 339.954 468.476 335.766 464.088 331.998C454.51 323.79 443.371 318.765 431.051 316.713C423.71 315.457 416.199 315.122 408.689 315.415C407.339 315.457 405.862 315.206 404.428 316.839L404.554 316.755Z"/><path d="M404.558 316.749C405.992 315.116 407.469 315.367 408.819 315.325C416.329 315.074 423.84 315.409 431.181 316.623C443.501 318.717 454.64 323.7 464.218 331.908C468.606 335.676 472.53 339.864 475.863 344.512C479.112 349.035 482.36 353.557 485.44 358.163C488.521 362.728 490.757 367.92 493.246 372.862C498.309 382.786 502.908 392.92 509.364 402.049C511.347 407.032 515.439 410.591 518.351 414.946C519.87 417.166 522.401 418.715 524.511 420.558C530.629 426.001 537.633 429.938 545.48 432.199C548.392 433.037 551.43 433.539 554.467 433.832C568.222 435.088 581.639 433.413 594.972 429.938C600.542 428.472 606.111 427.007 611.427 424.829C618.938 421.73 626.574 418.799 633.536 414.486C633.874 414.276 634.253 414.067 634.633 413.941C644.506 409.879 652.312 402.928 659.78 395.726C665.434 390.282 670.286 383.917 675.18 377.761C679.526 372.317 683.534 366.622 687.585 360.927C690.791 356.363 693.829 351.715 696.909 347.066C700.917 340.995 704.757 334.839 708.85 328.809C714.503 320.476 720.157 312.142 726.106 304.061C731.591 296.565 737.329 289.237 743.996 282.704C746.781 279.982 749.439 277.177 752.223 274.455C758.004 268.801 764.797 264.363 770.873 259.086C775.429 255.108 780.239 251.339 784.459 247.026C788.129 243.258 791.167 238.944 794.374 234.757C795.218 233.668 795.682 232.286 796.146 230.988C796.947 228.685 796.441 227.429 794.163 226.549C790.365 225.126 786.568 223.785 782.644 222.78C779.016 221.859 775.303 221.231 771.59 220.854C751.802 218.76 732.688 218.174 712.985 222.529C705.727 224.12 698.512 225.502 691.34 227.471C680.159 230.569 668.893 234.045 658.725 239.531C642.481 248.283 611.68 266.917 608.432 262.018C607.503 259.673 615.9 251.842 623.03 246.943C629.148 242.713 633.958 236.851 639.57 231.951C646.489 225.921 653.577 220.184 660.919 214.657C669.611 208.124 678.682 202.136 688.091 196.692C695.517 192.379 703.027 188.191 710.622 184.13C718.216 180.068 726.866 176.341 735.389 173.451C740.789 171.609 746.105 169.515 751.506 167.714C754.882 166.584 758.384 165.663 761.843 164.909C768.847 163.443 775.851 161.768 782.897 160.847C791.842 159.716 800.787 158.502 809.858 158.334C815.934 158.209 821.968 158.376 828.001 158.334C842.642 158.292 856.776 161.349 870.953 164.239C875.636 165.202 880.32 166.374 885.214 167.463C885.889 166.584 886.606 165.788 887.113 164.909C894.412 152.639 902.513 140.914 911.458 129.817C919.348 120.06 927.027 110.136 935.972 101.216C939.727 97.4895 943.102 93.4276 946.562 89.4494C947.659 88.1932 948.925 87.0625 950.148 85.9319C950.612 85.5131 951.161 85.22 951.583 84.7594C959.051 77.3056 966.519 69.8936 973.987 62.4398C974.536 61.8955 974.957 61.2254 975.548 60.7229C984.029 53.6041 990.822 44.8941 998.754 37.2309C1002.68 33.4202 1006.73 29.7352 1010.69 25.9664C1012.51 24.2495 1014.37 22.5326 1016.31 20.9833C1024.11 14.702 1032.38 9.17441 1041.45 4.69375C1048.5 1.2181 1055.84 -0.289414 1063.56 0.0455882C1066.47 0.171214 1069.34 1.09247 1072.17 1.8881C1072.89 2.09748 1073.52 3.10249 1073.86 3.89812C1074.11 4.56812 1073.98 5.44751 1073.81 6.15939C1071.2 17.047 1067.82 27.5577 1064.07 38.1103L1060.31 49.1235C1058.58 54.6091 1056.47 60.0529 1054.49 65.3711C1053.22 68.8468 1052.04 72.3643 1050.69 75.7981C1048.75 80.6556 1046.52 85.4294 1044.62 90.3288C1042.76 95.0607 1041.28 99.9601 1039.39 104.692C1036.6 111.727 1033.52 118.678 1030.65 125.672C1028.67 130.529 1026.85 135.47 1024.83 140.328C1023.44 143.636 1021.75 146.861 1020.1 150.085C1019.09 152.095 1017.95 154.063 1016.77 155.989C1012.38 163.276 1008.8 170.981 1004.83 178.518C1004.53 179.063 1004.37 179.733 1003.99 180.151C1000.23 184.213 998.585 189.49 995.885 194.18C992.72 199.665 989.683 205.235 986.771 210.804C985.801 212.689 985.379 214.866 984.62 216.876C982.848 221.65 981.244 226.466 979.177 231.156C975.675 239.196 973.818 247.613 972.552 256.155C971.582 262.73 970.696 269.304 969.936 275.92C969.43 280.359 969.177 284.84 968.924 289.32C968.502 295.811 968.376 302.302 967.785 308.751C966.899 318.759 966.941 328.851 965.464 338.817C964.747 343.716 963.987 348.574 963.65 353.515C962.764 366.287 959.346 378.431 955.169 390.407C954.747 391.58 954.283 392.711 953.903 393.883C952.891 397.317 951.456 400.499 949.389 403.514C947.659 406.069 946.478 409 944.705 411.513C942.132 415.156 939.474 418.841 936.351 422.065C932.47 426.127 928.039 429.687 923.905 433.497C923.82 433.581 923.778 433.623 923.694 433.665C915.888 438.145 908.336 443.128 899.222 444.803C898.8 444.887 898.336 444.804 897.872 444.762C896.437 443.589 896.648 441.956 896.479 440.49C895.72 434 896.226 427.467 897.408 421.144C899.348 410.801 901.754 400.583 903.948 390.282C906.184 379.855 908.293 369.386 908.715 358.708C908.842 356.07 908.758 353.473 908.715 350.835C908.715 350.291 908.462 349.705 908.251 348.825C907.492 349.244 906.943 349.453 906.479 349.83C904.285 351.547 902.133 353.348 899.982 355.065C899.517 355.442 898.842 355.735 898.547 356.237C896.058 359.964 891.838 361.723 888.927 364.989C888.252 365.743 887.071 366.12 886.185 366.706C883.4 368.674 880.362 370.391 877.957 372.736C872.894 377.635 867.24 381.739 861.333 385.424C857.62 387.727 854.582 390.784 850.869 393.046C846.988 395.349 843.064 397.652 839.604 400.458C834.246 404.771 827.832 407.409 822.432 411.596C820.871 412.811 818.845 413.397 817.115 414.444C813.909 416.328 810.829 418.464 807.538 420.223C804.12 422.065 800.534 423.573 797.074 425.373C794.458 426.713 791.927 428.221 789.353 429.687C787.454 430.775 785.556 431.738 783.404 432.45C780.324 433.455 777.286 434.67 774.417 436.177C768.636 439.234 762.561 441.621 756.485 444.008C752.013 445.767 747.414 447.274 742.857 448.698C737.203 450.499 731.423 451.797 725.895 453.89C711.423 459.46 695.475 461.512 680.159 464.15C673.197 465.364 661.721 466.914 654.675 467.667C652.27 467.919 649.822 468.17 647.417 468.379C643.536 468.714 639.696 469.091 635.814 469.342C631.173 469.636 626.49 469.971 621.849 470.096C616.701 470.264 611.554 470.306 606.449 470.347C600.373 470.347 594.297 470.515 588.221 470.347C580.289 470.096 572.357 469.636 564.467 469.217C560.417 469.007 556.408 468.798 552.358 468.505C549.657 468.296 547.506 469.259 545.776 471.311C544.89 472.399 543.919 473.404 543.202 474.619C535.523 487.349 528.688 499.911 524.004 514.275C517.802 533.244 510.672 551.879 501.558 569.634C497.212 578.093 492.191 586.803 485.778 593.964C481.896 598.277 477.424 602.045 472.909 605.689C466.538 610.797 458.775 614.022 450.927 616.241C446.834 617.372 442.657 618.251 438.438 618.879C435.527 619.298 430.042 620.931 427.342 619.424C425.443 618.335 426.413 616.492 427.131 615.027C429.747 609.876 430.843 604.223 432.32 598.737C434.978 588.813 436.328 578.679 437.468 568.503C438.312 561.133 438.944 553.721 439.493 546.351C440.421 533.872 441.94 521.519 444.809 509.333C446.244 503.178 449.872 498.111 453.206 492.876C455.695 488.94 458.311 485.129 460.885 481.277C462.868 478.346 465.146 475.54 466.918 472.483C468.31 470.096 469.534 467.5 470.209 464.862C471.222 460.842 470.8 456.989 467.973 453.514C464.555 449.284 461.264 445.013 457.425 441.16C453.374 437.098 449.704 432.618 445.569 428.682C438.523 421.94 434.303 413.69 431.012 404.729C427.51 395.181 424.726 385.466 422.152 375.667C420.338 368.674 418.481 361.723 416.329 354.813C415.064 350.71 413.966 346.564 412.954 342.418C411.14 334.713 408.313 327.343 405.528 319.973C405.148 318.968 404.937 317.921 404.6 316.832L404.558 316.749Z"/><path d="M628.766 355.886C624.209 349.437 619.947 342.821 615.433 336.33C612.606 332.268 609.526 328.374 606.615 324.354C602.227 318.365 597.965 312.293 593.493 306.389C588.641 299.982 583.662 293.701 578.725 287.378C576.489 284.53 574.295 281.683 572.059 278.835C571.426 278.039 570.793 277.244 570.202 276.448C568.641 274.438 567.038 272.428 565.477 270.46C565.477 270.418 565.393 270.376 565.35 270.334C565.224 270.167 565.097 270.041 564.971 269.874C562.734 267.11 560.414 264.472 557.967 261.876C554.169 257.772 550.414 253.668 546.406 249.774C542.06 245.586 537.461 241.65 532.989 237.588C532.651 237.295 532.356 236.876 532.061 236.541C528.474 232.479 525.014 228.333 521.217 224.439C514.973 217.948 508.77 211.5 504.256 203.627C501.724 199.188 498.897 194.917 496.534 190.436C492.568 182.731 489.446 174.649 486.408 166.525C484.889 162.464 483.286 158.443 481.809 154.382C479.447 148.017 477.379 141.526 474.805 135.245C471.43 126.953 467.801 118.746 464.173 110.58C459.911 101.032 453.372 92.9086 446.832 84.8685C444.722 82.2722 442.022 80.0528 439.279 78.001C432.655 73.0597 425.609 68.9559 417.508 66.6527C411.348 64.894 405.146 63.6377 398.775 62.8421C398.226 62.7583 397.593 63.0515 396.876 63.219C396.707 67.6159 397.846 71.594 399.534 75.4047C401.517 79.7597 403.669 84.0729 405.947 88.2604C410.251 96.133 414.766 103.922 419.069 111.752C422.234 117.489 424.343 123.603 426.242 129.843C426.453 130.596 426.242 131.518 426.2 132.523C425.229 132.397 424.596 132.439 424.048 132.23C420.715 130.931 417.339 129.675 414.133 128.168C401.475 122.138 388.353 117.322 375.358 112.129C370.885 110.329 366.118 109.324 361.645 107.523C351.477 103.419 340.802 101.116 330.254 98.6036C327.596 97.9755 324.98 97.3892 322.322 96.8867C321.351 96.6774 320.339 96.5098 319.368 96.3423C317.681 96.0073 315.993 95.6723 314.263 95.3792C312.871 95.128 311.521 94.9186 310.128 94.6673C308.23 94.3323 306.289 93.9973 304.39 93.7042C302.154 93.3273 299.918 92.9504 297.724 92.5736C294.559 92.0292 291.31 91.8198 288.061 91.4848C287.175 91.4011 286.289 91.3173 285.446 91.1917C284.264 91.0661 283.083 90.9404 281.944 90.8148C281.859 90.8148 281.733 90.8148 281.648 90.8148C280.636 90.7311 279.623 90.6054 278.61 90.5217C278.273 90.5217 277.893 90.4798 277.556 90.4379C276.796 90.3542 276.037 90.3123 275.277 90.2704C274.855 90.2704 274.433 90.2286 274.011 90.1867C273.294 90.1448 272.577 90.1029 271.86 90.0611C271.438 90.0611 271.016 90.0192 270.594 89.9773C269.834 89.9773 269.075 89.9354 268.315 89.8935C267.936 89.8935 267.598 89.8935 267.218 89.8935C266.079 89.8935 264.982 89.8935 263.843 89.8935C259.328 89.9773 254.814 89.9354 250.299 89.9354C243.759 89.9354 237.262 89.9354 230.722 90.8986C225.659 91.6523 220.511 91.7779 215.406 92.3642C209.373 93.0761 203.381 93.8717 197.348 94.793C191.061 95.7561 184.732 96.803 178.488 97.9755C170.091 99.5249 162.159 102.959 153.636 104.215C153.046 104.299 152.455 104.634 151.864 104.801C143.004 107.188 134.565 110.831 125.62 113.009C122.54 113.762 119.714 112.757 117.182 111.041C117.098 110.957 116.971 110.873 116.887 110.747C116.127 109.952 115.368 109.198 114.693 108.319C113.427 106.727 112.077 105.304 110.263 104.299C110.136 104.215 110.009 104.131 109.925 104.047C109.165 103.21 108.448 102.414 107.773 101.702C106.465 100.321 105.157 98.9386 103.891 97.5149C99.7143 92.3642 95.3263 87.3391 91.4868 81.9791C87.5207 76.4516 83.9344 70.6309 79.5464 65.4384C77.7321 63.3027 76.0866 61.0833 74.2723 58.9477C69.9687 53.9226 66.3401 48.3532 61.1504 43.9982C55.4544 39.1406 49.6741 34.5344 42.8389 31.3518C37.0163 28.6299 30.8563 26.6618 24.5696 26.0337C18.5783 25.4474 12.4603 25.1124 6.42678 26.1593C4.31716 26.5362 2.20762 27.0387 0.0558079 27.4574C-0.281732 29.9699 0.984052 31.0587 1.91229 32.2312C7.73485 39.8106 11.4478 48.5207 15.2029 57.147C18.1142 63.8052 20.0972 70.7984 22.7975 77.5822C26.426 86.7529 29.2951 96.3423 34.6535 104.759C36.2991 107.356 38.1555 109.91 40.3496 112.004C44.7376 116.149 49.4631 119.96 54.0199 123.938C56.7202 126.283 59.4205 128.586 61.4036 131.643C62.6693 133.57 63.3867 135.621 62.796 137.799C61.8256 141.61 60.391 145.001 58.7455 148.435C57.6485 149.985 56.5515 151.534 55.9608 153.251C55.7077 154.005 55.4123 154.717 55.1169 155.428C51.3196 162.212 46.8894 169.205 45.1173 176.701C44.8642 177.706 44.6532 178.669 44.4422 179.674C44.3578 179.967 44.3156 180.302 44.2734 180.596C44.1468 181.307 43.9781 181.977 43.8515 182.689C43.7671 183.066 43.7249 183.401 43.6406 183.778C43.514 184.448 43.4297 185.118 43.3031 185.788C43.2609 186.165 43.1765 186.5 43.1343 186.877C43.0077 187.631 42.9233 188.384 42.8389 189.138C42.8389 189.389 42.7546 189.641 42.7546 189.934C42.628 190.939 42.5436 191.944 42.5014 192.991C42.5014 193.2 42.5014 193.451 42.5014 193.703C42.4592 194.498 42.417 195.294 42.3748 196.089C42.3748 196.424 42.3748 196.801 42.3748 197.136C42.3748 197.513 42.3748 197.932 42.3748 198.309C42.3748 207.27 42.3748 216.231 42.2904 225.193C42.2904 225.653 42.2904 226.114 42.2904 226.575C42.2904 226.952 42.2904 227.328 42.2904 227.663C42.2904 228.585 42.2904 229.506 42.2904 230.427C42.2904 231.558 42.2904 232.688 42.2904 233.819C42.2904 234.07 42.2904 234.322 42.2904 234.615C42.2904 235.41 42.2904 236.206 42.2904 237.043C42.2904 237.42 42.2904 237.797 42.2904 238.174C42.2904 238.886 42.2482 239.598 42.206 240.31C42.206 240.687 42.2061 241.105 42.1217 241.482C42.0795 242.194 42.0373 242.948 41.9529 243.66C41.9529 243.995 41.9107 244.372 41.8686 244.707C41.742 245.754 41.6154 246.842 41.4466 247.889C41.0669 250.192 40.8981 252.495 40.8137 254.799C40.7294 256.934 41.6575 257.897 43.5983 257.73C46.1299 258.107 49.8429 257.186 52.5432 256.306C52.5432 256.306 52.5854 256.306 52.6276 256.306C53.809 256.055 55.0326 255.678 56.0874 255.05C56.889 254.589 57.6485 254.087 58.4502 253.626C59.294 253.165 60.18 252.705 61.0661 252.37C61.5302 252.202 61.9943 251.951 62.4584 251.784C63.1334 251.574 63.8086 251.449 64.5259 251.407C64.9478 251.407 65.4119 251.072 65.7916 250.82C67.9856 249.397 70.1796 247.973 72.3736 246.549C73.3019 245.963 74.1879 245.377 75.1161 244.707C76.1287 243.995 77.1414 243.241 78.154 242.487C81.9513 239.556 85.0314 235.955 87.141 231.432C89.0818 227.203 90.643 222.806 92.415 218.493C93.3855 216.441 94.3981 214.389 95.3686 212.295C95.7483 211.625 96.0858 210.955 96.5077 210.285C96.8453 209.741 96.8453 208.987 96.9719 208.317V208.233C97.8579 205.637 98.6173 202.999 99.3768 200.361C100.389 197.723 101.275 195.084 101.486 192.195C101.908 190.436 102.33 188.636 102.752 186.877C102.879 186.416 103.048 185.914 103.174 185.453C103.554 183.946 104.145 182.48 104.145 180.972C104.145 180.972 104.145 180.889 104.145 180.847C104.609 178.711 105.073 176.617 105.579 174.524C105.579 174.44 105.579 174.356 105.621 174.272C105.832 173.686 106.085 173.142 106.339 172.555C107.689 169.499 108.701 166.316 109.165 163.008C110.178 161.375 111.444 159.783 112.625 158.318C114.482 156.852 116.169 155.219 117.182 152.916C117.899 152.12 118.659 151.367 119.418 150.613C121.908 149.817 123.511 148.058 125.072 146.132C125.367 145.755 125.705 145.42 126 145.043C126.886 144.415 127.772 143.787 128.658 143.243C129.755 142.573 130.895 141.945 131.992 141.316C132.371 141.233 132.751 141.149 133.131 141.107C134.017 141.023 135.114 140.73 135.705 140.144C136.506 139.432 137.308 138.888 138.194 138.427C138.869 138.176 139.586 137.883 140.261 137.631C142.413 137.003 144.734 136.794 147.012 136.459C149.797 136.04 152.624 135.831 155.282 135.035C157.096 134.491 158.91 134.198 160.725 134.072C161.526 134.072 162.328 134.03 163.172 134.072C163.763 134.072 164.395 134.072 164.986 134.114C165.619 134.114 166.21 134.198 166.843 134.281C168.53 134.491 170.26 134.449 171.948 134.491C173.973 134.575 175.956 134.533 177.981 134.7C179.669 134.826 181.357 135.161 183.087 135.286C189.922 135.747 196.673 136.794 203.255 138.678C212.41 141.316 221.229 144.625 229.161 150.11C236.418 155.135 243.759 160.035 250.426 165.897C252.24 167.489 254.054 169.038 255.911 170.587C256.797 171.299 257.683 172.053 258.527 172.765C259.919 173.895 261.269 175.026 262.662 176.157C264.054 177.287 265.404 178.418 266.797 179.549C267.514 180.135 268.231 180.763 268.948 181.391C270.256 182.522 271.607 183.611 272.872 184.741C280.636 191.567 288.61 198.099 296.964 204.213C297.175 204.381 297.428 204.548 297.639 204.716C297.724 204.799 297.808 204.841 297.892 204.925C298.694 205.511 299.538 206.098 300.34 206.684C301.099 207.228 301.901 207.814 302.66 208.359C304.474 209.657 306.331 210.913 308.187 212.086C312.364 214.766 316.499 217.571 320.972 219.665C329.706 223.769 338.65 227.328 347.469 231.223C353.46 233.903 358.945 237.42 363.755 241.901C364.852 242.948 366.202 243.869 366.371 245.795C366.075 246.172 365.822 246.759 365.358 247.135C359.156 251.616 352.236 254.757 345.317 257.981C339.494 260.661 333.25 262.211 327.047 263.467C319.579 265.016 312.069 266.398 304.474 267.068C301.183 267.361 297.85 267.487 294.559 267.529C289.327 267.612 284.095 267.403 278.864 267.152C274.18 266.901 269.497 266.607 264.814 266.356C264.392 266.356 263.97 266.272 263.506 266.231C262.704 266.147 261.902 266.063 261.101 265.937C252.831 264.639 244.434 263.886 236.249 262.043C228.654 260.326 220.975 259.196 213.296 257.856C212.748 257.772 212.157 257.856 210.765 257.939C211.946 258.986 212.495 259.698 213.212 260.117C222.621 265.602 232.241 270.711 242.114 275.192C249.751 278.668 257.472 281.892 265.278 285.074C269.286 286.708 273.463 288.09 277.64 289.304C284.222 291.188 290.888 292.696 297.47 294.538C310.424 298.14 323.714 300.024 337.047 300.652C348.228 301.155 359.493 301.783 370.59 299.689C370.674 299.689 370.759 299.689 370.885 299.647C373.881 299.312 376.919 298.893 379.915 298.433C384.682 297.888 389.45 297.344 394.049 295.92C397.931 294.748 401.981 294.078 405.694 292.193C406.749 291.858 407.846 291.481 408.901 291.105C409.027 291.063 409.154 291.021 409.28 290.979C409.829 290.853 410.377 290.77 410.926 290.686C413.457 290.309 415.694 289.388 417.93 288.257C420.419 286.959 422.993 285.954 425.525 284.781C430.292 282.562 435.482 281.264 439.786 278.039C440.63 277.411 441.6 276.867 442.528 276.406C443.077 276.113 443.667 275.82 444.216 275.527C444.638 275.318 445.06 275.108 445.439 274.941C446.199 274.606 446.79 274.396 447.38 274.354C447.971 274.271 448.477 274.354 449.026 274.564C449.827 274.857 450.671 275.485 451.768 276.49C452.106 276.783 452.443 277.118 452.781 277.453C458.392 282.813 464.426 287.629 470.586 292.403C482.864 301.95 496.239 309.907 509.361 318.156C516.956 322.93 524.972 327.159 532.82 331.598C543.242 337.461 553.705 343.281 564.085 349.144C574 354.713 584.042 359.864 594.97 363.339C605.813 366.773 616.403 366.564 626.909 362.251C629.567 361.162 631.086 359.194 628.892 356.095L628.766 355.886Z"/></g>
</svg>