<?xml version="1.0" encoding="UTF-8" standalone="no"?>
<!DOCTYPE svg PUBLIC "-//W3C//DTD SVG 1.1//EN" "http://www.w3.org/Graphics/SVG/1.1/DTD/svg11.dtd">
<svg xmlns="http://www.w3.org/2000/svg" version="1.1" viewBox="0.00 0.00 180.00 180.00">
<g stroke-width="2.00" fill="none" stroke-linecap="butt">
<path stroke="#82ddb7" vector-effect="non-scaling-stroke" d="
  M 155.03 90.00
  A 65.03 65.03 0.0 0 0 90.00 24.97
  A 65.03 65.03 0.0 0 0 24.97 90.00
  A 65.03 65.03 0.0 0 0 90.00 155.03
  A 65.03 65.03 0.0 0 0 155.03 90.00"
/>
<path stroke="#ff949a" vector-effect="non-scaling-stroke" d="
  M 117.36 134.88
  C 138.06 122.20 148.44 96.02 139.59 72.27
  C 135.30 60.76 121.55 58.31 112.96 66.90
  Q 90.81 89.04 66.50 113.34
  C 60.17 119.66 60.20 129.70 66.54 135.90
  Q 70.27 139.54 77.40 141.13
  Q 99.24 145.97 117.36 134.88"
/>
</g>
<path fill="#05ba6e" d="
  M 84.90 0.00
  L 94.56 0.00
  C 141.29 3.31 176.92 38.52 180.00 85.38
  L 180.00 94.53
  C 176.70 141.33 141.40 177.03 94.45 180.00
  L 85.45 180.00
  C 38.72 176.69 3.07 141.49 0.00 94.62
  L 0.00 85.48
  C 3.11 38.85 38.31 3.49 84.90 0.00
  Z
  M 155.03 90.00
  A 65.03 65.03 0.0 0 0 90.00 24.97
  A 65.03 65.03 0.0 0 0 24.97 90.00
  A 65.03 65.03 0.0 0 0 90.00 155.03
  A 65.03 65.03 0.0 0 0 155.03 90.00
  Z"
/>
<path fill="#ffffff" d="
  M 155.03 90.00
  A 65.03 65.03 0.0 0 1 90.00 155.03
  A 65.03 65.03 0.0 0 1 24.97 90.00
  A 65.03 65.03 0.0 0 1 90.00 24.97
  A 65.03 65.03 0.0 0 1 155.03 90.00
  Z
  M 117.36 134.88
  C 138.06 122.20 148.44 96.02 139.59 72.27
  C 135.30 60.76 121.55 58.31 112.96 66.90
  Q 90.81 89.04 66.50 113.34
  C 60.17 119.66 60.20 129.70 66.54 135.90
  Q 70.27 139.54 77.40 141.13
  Q 99.24 145.97 117.36 134.88
  Z"
/>
<path fill="#ff2934" d="
  M 117.36 134.88
  Q 99.24 145.97 77.40 141.13
  Q 70.27 139.54 66.54 135.90
  C 60.20 129.70 60.17 119.66 66.50 113.34
  Q 90.81 89.04 112.96 66.90
  C 121.55 58.31 135.30 60.76 139.59 72.27
  C 148.44 96.02 138.06 122.20 117.36 134.88
  Z"
/>
</svg>
