<?xml version="1.0" encoding="UTF-8" standalone="no"?>
<!DOCTYPE svg PUBLIC "-//W3C//DTD SVG 1.1//EN" "http://www.w3.org/Graphics/SVG/1.1/DTD/svg11.dtd">
<svg xmlns="http://www.w3.org/2000/svg" version="1.1" viewBox="0.00 0.00 192.00 192.00">
<g stroke-width="2.00" fill="none" stroke-linecap="butt">
<path stroke="#824905" stroke-opacity="0.992" vector-effect="non-scaling-stroke" d="
  M 146.55 17.83
  L 146.50 16.43"
/>
<path stroke="#827a27" stroke-opacity="0.992" vector-effect="non-scaling-stroke" d="
  M 146.50 16.43
  Q 148.14 15.54 148.33 14.16
  A 0.58 0.57 78.2 0 0 147.47 13.59
  L 140.50 17.78"
/>
<path stroke="#997c10" stroke-opacity="0.992" vector-effect="non-scaling-stroke" d="
  M 81.44 54.03
  L 69.19 61.48"
/>
<path stroke="#996209" stroke-opacity="0.992" vector-effect="non-scaling-stroke" d="
  M 69.19 61.48
  L 46.56 75.46
  A 0.59 0.59 0.0 0 0 46.71 76.53
  Q 59.06 80.05 71.46 82.86
  Q 65.82 89.04 60.40 95.52"
/>
<path stroke="#994309" stroke-opacity="0.992" vector-effect="non-scaling-stroke" d="
  M 60.40 95.52
  Q 33.96 126.68 25.74 136.99
  Q 20.53 143.51 17.52 146.05"
/>
<path stroke="#febc22" vector-effect="non-scaling-stroke" d="
  M 146.50 16.43
  L 100.76 57.18"
/>
<path stroke="#feac22" vector-effect="non-scaling-stroke" d="
  M 100.76 57.18
  L 83.48 71.58"
/>
<path stroke="#fecb22" vector-effect="non-scaling-stroke" d="
  M 83.48 71.58
  L 79.87 73.94
  A 0.33 0.33 0.0 0 0 79.98 74.54
  Q 85.36 75.74 89.17 73.79"
/>
<path stroke="#fef260" vector-effect="non-scaling-stroke" d="
  M 89.17 73.79
  Q 90.62 75.00 91.54 77.27"
/>
<path stroke="#fed322" vector-effect="non-scaling-stroke" d="
  M 91.54 77.27
  L 81.72 75.75"
/>
<path stroke="#febc22" vector-effect="non-scaling-stroke" d="
  M 81.72 75.75
  L 76.95 74.68
  A 0.30 0.29 30.2 0 1 76.81 74.18
  L 90.00 62.06"
/>
<path stroke="#fee529" vector-effect="non-scaling-stroke" d="
  M 90.00 62.06
  Q 100.00 53.62 110.41 45.64
  Q 121.54 37.10 127.69 30.95
  Q 129.07 29.58 129.79 28.14
  A 0.99 0.99 0.0 0 0 128.46 26.82
  Q 127.00 27.56 121.12 31.14
  Q 117.71 33.22 84.36 53.83
  Q 82.06 55.25 81.44 54.03"
/>
<path stroke="#98842b" stroke-opacity="0.992" vector-effect="non-scaling-stroke" d="
  M 81.44 54.03
  L 140.50 17.78"
/>
<path stroke="#824905" stroke-opacity="0.992" vector-effect="non-scaling-stroke" d="
  M 146.08 18.47
  L 103.53 67.26"
/>
<path stroke="#fe7b00" vector-effect="non-scaling-stroke" d="
  M 103.53 67.26
  Q 103.00 61.92 100.76 57.18"
/>
<path stroke="#feb308" vector-effect="non-scaling-stroke" d="
  M 90.00 62.06
  L 82.74 64.12"
/>
<path stroke="#fec208" vector-effect="non-scaling-stroke" d="
  M 82.74 64.12
  L 82.24 55.94
  A 0.31 0.30 73.9 0 0 81.79 55.69
  Q 76.31 58.70 71.02 62.01
  Q 69.42 63.01 69.19 61.48"
/>
<path stroke="#e74e00" vector-effect="non-scaling-stroke" d="
  M 58.16 102.20
  L 28.61 136.60
  A 0.17 0.02 -52.0 0 0 28.58 136.65
  Q 28.35 137.12 29.08 137.15
  A 0.58 0.54 -61.9 0 0 29.46 137.02
  L 66.04 106.98"
/>
<path stroke="#e74e00" vector-effect="non-scaling-stroke" d="
  M 72.42 105.90
  Q 49.63 122.15 28.70 140.73
  Q 28.01 141.34 27.43 142.06
  A 0.87 0.53 -13.3 0 1 27.28 142.21
  L 20.78 147.47"
/>
<path stroke="#994309" stroke-opacity="0.992" vector-effect="non-scaling-stroke" d="
  M 20.78 147.47
  Q 18.64 148.65 17.36 150.25"
/>
<path stroke="#fe9900" vector-effect="non-scaling-stroke" d="
  M 82.74 64.12
  L 67.45 68.15"
/>
<path stroke="#f98000" vector-effect="non-scaling-stroke" d="
  M 67.45 68.15
  Q 64.84 68.83 62.20 69.18
  Q 61.13 69.33 60.90 69.23
  A 0.82 0.82 0.0 0 0 60.25 69.25
  L 50.25 74.10
  A 0.70 0.70 0.0 0 0 50.43 75.42
  L 66.18 78.36"
/>
<path stroke="#fe9900" vector-effect="non-scaling-stroke" d="
  M 66.18 78.36
  L 76.39 80.71
  A 0.54 0.54 0.0 0 1 76.66 81.61
  L 68.24 90.51"
/>
<path stroke="#f98000" vector-effect="non-scaling-stroke" d="
  M 68.24 90.51
  L 63.22 96.03"
/>
<path stroke="#fe8a00" vector-effect="non-scaling-stroke" d="
  M 63.22 96.03
  L 60.40 95.52"
/>
<path stroke="#feb13e" vector-effect="non-scaling-stroke" d="
  M 101.35 70.17
  L 93.33 70.50"
/>
<path stroke="#fe8a00" vector-effect="non-scaling-stroke" d="
  M 93.33 70.50
  Q 89.24 69.77 85.25 71.99
  Q 83.97 72.71 83.48 71.58"
/>
<path stroke="#fec13e" vector-effect="non-scaling-stroke" d="
  M 125.12 70.10
  Q 115.02 75.38 106.37 81.58"
/>
<path stroke="#feea46" vector-effect="non-scaling-stroke" d="
  M 106.37 81.58
  L 99.86 78.91"
/>
<path stroke="#fed83e" vector-effect="non-scaling-stroke" d="
  M 99.86 78.91
  L 91.54 77.27"
/>
<path stroke="#fed03e" vector-effect="non-scaling-stroke" d="
  M 89.17 73.79
  L 93.33 70.50"
/>
<path stroke="#fecb08" vector-effect="non-scaling-stroke" d="
  M 99.86 78.91
  L 89.73 87.31
  A 0.51 0.51 0.0 0 0 89.82 88.15
  L 93.84 90.20"
/>
<path stroke="#fe9200" vector-effect="non-scaling-stroke" d="
  M 93.84 90.20
  L 91.70 91.98"
/>
<path stroke="#f98900" vector-effect="non-scaling-stroke" d="
  M 91.70 91.98
  L 82.36 98.60"
/>
<path stroke="#fea200" vector-effect="non-scaling-stroke" d="
  M 81.72 75.75
  Q 84.00 82.29 88.11 87.86
  A 0.61 0.60 52.2 0 1 88.01 88.68
  L 79.37 96.00
  A 0.46 0.45 41.4 0 0 79.42 96.74
  L 82.36 98.60"
/>
<path stroke="#f97100" vector-effect="non-scaling-stroke" d="
  M 82.36 98.60
  L 78.26 101.68"
/>
<path stroke="#e75d00" vector-effect="non-scaling-stroke" d="
  M 78.26 101.68
  L 72.42 105.90"
/>
<path stroke="#fe7b00" vector-effect="non-scaling-stroke" d="
  M 72.42 105.90
  L 70.65 103.20"
/>
<path stroke="#f97100" vector-effect="non-scaling-stroke" d="
  M 70.65 103.20
  L 77.21 97.69
  A 0.53 0.53 0.0 0 0 77.17 96.85
  L 68.24 90.51"
/>
<path stroke="#f97100" vector-effect="non-scaling-stroke" d="
  M 66.18 78.36
  L 67.45 68.15"
/>
<path stroke="#6b1b05" stroke-opacity="0.992" vector-effect="non-scaling-stroke" d="
  M 34.56 138.63
  Q 34.61 137.98 35.40 137.42
  Q 59.89 119.80 80.01 106.34"
/>
<path stroke="#7d2f05" stroke-opacity="0.992" vector-effect="non-scaling-stroke" d="
  M 80.01 106.34
  L 97.63 94.29"
/>
<path stroke="#823905" stroke-opacity="0.992" vector-effect="non-scaling-stroke" d="
  M 97.63 94.29
  L 107.45 87.31"
/>
<path stroke="#824905" stroke-opacity="0.992" vector-effect="non-scaling-stroke" d="
  M 107.45 87.31
  Q 113.27 82.96 123.83 74.07
  Q 125.66 72.53 126.56 71.14
  A 0.73 0.73 0.0 0 0 126.51 70.28
  Q 125.96 69.61 125.12 70.10"
/>
<path stroke="#827f44" stroke-opacity="0.992" vector-effect="non-scaling-stroke" d="
  M 125.12 70.10
  L 101.35 70.17"
/>
<path stroke="#823905" stroke-opacity="0.992" vector-effect="non-scaling-stroke" d="
  M 101.35 70.17
  L 103.53 67.26"
/>
<path stroke="#6b1b05" stroke-opacity="0.992" vector-effect="non-scaling-stroke" d="
  M 34.56 138.63
  Q 34.31 138.18 33.97 138.46
  Q 33.62 138.75 33.79 139.04"
/>
<path stroke="#6b1b05" stroke-opacity="0.992" vector-effect="non-scaling-stroke" d="
  M 32.77 139.71
  Q 32.25 139.74 32.21 140.23"
/>
<path stroke="#822509" stroke-opacity="0.992" vector-effect="non-scaling-stroke" d="
  M 21.69 147.48
  Q 21.34 147.10 20.78 147.47"
/>
<path stroke="#f96200" vector-effect="non-scaling-stroke" d="
  M 70.65 103.20
  L 66.04 106.98"
/>
<path stroke="#e24400" vector-effect="non-scaling-stroke" d="
  M 66.04 106.98
  L 58.16 102.20"
/>
<path stroke="#f96200" vector-effect="non-scaling-stroke" d="
  M 58.16 102.20
  L 63.22 96.03"
/>
<path stroke="#fea408" vector-effect="non-scaling-stroke" d="
  M 100.39 85.71
  L 93.84 90.20"
/>
<path stroke="#fe7b00" vector-effect="non-scaling-stroke" d="
  M 107.45 87.31
  L 100.39 85.71"
/>
<path stroke="#feb308" vector-effect="non-scaling-stroke" d="
  M 100.39 85.71
  L 106.37 81.58"
/>
<path stroke="#f96200" vector-effect="non-scaling-stroke" d="
  M 97.63 94.29
  L 91.70 91.98"
/>
<path stroke="#e24400" vector-effect="non-scaling-stroke" d="
  M 80.01 106.34
  Q 77.71 105.19 78.26 101.68"
/>
<path stroke="#185c86" stroke-opacity="0.992" vector-effect="non-scaling-stroke" d="
  M 178.98 156.75
  Q 177.75 156.32 176.65 155.33
  Q 164.04 143.95 151.08 132.97
  C 148.48 130.75 146.17 129.72 143.31 131.88"
/>
<path stroke="#7d8285" stroke-opacity="0.992" vector-effect="non-scaling-stroke" d="
  M 143.31 131.88
  L 136.26 137.94"
/>
<path stroke="#185c86" stroke-opacity="0.992" vector-effect="non-scaling-stroke" d="
  M 136.26 137.94
  Q 133.31 141.02 132.32 145.27"
/>
<path stroke="#0f3882" stroke-opacity="0.992" vector-effect="non-scaling-stroke" d="
  M 132.32 145.27
  Q 131.53 149.11 134.61 151.91
  Q 144.93 161.28 161.59 176.08
  C 162.69 177.07 164.40 178.26 165.45 178.83
  C 170.94 181.80 178.41 173.47 180.70 169.44
  C 182.55 166.17 183.53 162.66 181.31 159.74"
/>
<path stroke="#707f85" stroke-opacity="0.992" vector-effect="non-scaling-stroke" d="
  M 181.31 159.74
  L 179.47 158.18"
/>
<path stroke="#185c86" stroke-opacity="0.992" vector-effect="non-scaling-stroke" d="
  M 179.47 158.18
  L 178.98 156.75"
/>
<path stroke="#82d4ff" vector-effect="non-scaling-stroke" d="
  M 179.47 158.18
  Q 172.82 158.39 168.21 164.50"
/>
<path stroke="#4cc5ff" vector-effect="non-scaling-stroke" d="
  M 168.21 164.50
  L 167.08 165.49"
/>
<path stroke="#1d6bd4" vector-effect="non-scaling-stroke" d="
  M 167.08 165.49
  L 138.90 140.66
  A 1.18 1.18 0.0 0 0 137.13 140.91
  L 134.51 145.04"
/>
<path stroke="#218dfb" vector-effect="non-scaling-stroke" d="
  M 134.51 145.04
  L 132.32 145.27"
/>
<path stroke="#8fd7ff" vector-effect="non-scaling-stroke" d="
  M 136.26 137.94
  L 136.98 139.34"
/>
<path stroke="#3abcff" vector-effect="non-scaling-stroke" d="
  M 136.98 139.34
  Q 141.48 140.08 146.32 143.69
  Q 158.18 152.55 164.94 158.41
  Q 167.61 160.73 171.33 159.20"
/>
<path stroke="#82d4ff" vector-effect="non-scaling-stroke" d="
  M 171.33 159.20
  Q 173.56 158.17 173.71 157.34
  Q 174.10 155.30 172.53 153.94
  Q 161.85 144.70 150.73 135.19"
/>
<path stroke="#8fd7ff" vector-effect="non-scaling-stroke" d="
  M 150.73 135.19
  Q 147.41 131.44 143.31 131.88"
/>
<path stroke="#43a1fb" vector-effect="non-scaling-stroke" d="
  M 163.98 173.24
  Q 164.80 173.48 164.89 173.00"
/>
<path stroke="#1447d0" vector-effect="non-scaling-stroke" d="
  M 164.89 173.00
  Q 164.30 175.88 165.41 177.08
  C 167.70 179.55 171.34 177.90 173.53 176.28
  C 177.41 173.42 184.02 165.68 180.79 160.48"
/>
<path stroke="#79b0fb" vector-effect="non-scaling-stroke" d="
  M 180.79 160.48
  Q 181.11 160.40 181.31 159.74"
/>
<path stroke="#e6fafe" vector-effect="non-scaling-stroke" d="
  M 150.73 135.19
  Q 153.80 138.90 158.42 143.57
  Q 161.42 146.62 162.12 150.85
  A 0.22 0.22 0.0 0 1 161.79 151.07
  Q 160.87 150.49 159.99 150.49"
/>
<path stroke="#9fe2ff" vector-effect="non-scaling-stroke" d="
  M 159.99 150.49
  Q 152.14 143.94 144.40 137.10
  Q 143.77 136.54 143.71 136.29
  Q 143.54 135.63 143.01 135.48
  Q 142.62 135.36 141.62 136.27
  Q 139.29 138.38 136.98 139.34"
/>
<path stroke="#758ed4" vector-effect="non-scaling-stroke" d="
  M 180.79 160.48
  C 177.02 157.62 171.35 162.37 169.04 165.35"
/>
<path stroke="#a3e8ff" vector-effect="non-scaling-stroke" d="
  M 169.04 165.35
  Q 168.49 164.98 168.21 164.50"
/>
<path stroke="#3f7fd4" vector-effect="non-scaling-stroke" d="
  M 167.08 165.49
  Q 164.28 169.34 163.98 173.24"
/>
<path stroke="#1447d0" vector-effect="non-scaling-stroke" d="
  M 163.98 173.24
  Q 163.38 173.94 162.17 172.84
  Q 149.20 161.04 135.87 149.64
  Q 134.12 148.15 134.51 145.04"
/>
<path stroke="#92dfff" vector-effect="non-scaling-stroke" d="
  M 171.33 159.20
  Q 165.51 156.40 159.99 150.49"
/>
<path stroke="#3f7fd4" vector-effect="non-scaling-stroke" d="
  M 164.89 173.00
  Q 166.04 168.68 169.04 165.35"
/>
<path stroke="#4a7686" stroke-opacity="0.992" vector-effect="non-scaling-stroke" d="
  M 76.20 9.99
  L 68.66 11.01"
/>
<path stroke="#397086" stroke-opacity="0.992" vector-effect="non-scaling-stroke" d="
  M 68.66 11.01
  L 57.90 14.03"
/>
<path stroke="#286786" stroke-opacity="0.992" vector-effect="non-scaling-stroke" d="
  M 57.90 14.03
  L 52.03 16.46"
/>
<path stroke="#185c86" stroke-opacity="0.992" vector-effect="non-scaling-stroke" d="
  M 52.03 16.46
  L 42.73 21.63"
/>
<path stroke="#0e4586" stroke-opacity="0.992" vector-effect="non-scaling-stroke" d="
  M 42.73 21.63
  Q 28.89 31.07 21.17 45.66
  Q 7.36 71.77 16.57 100.32"
/>
<path stroke="#185c86" stroke-opacity="0.992" vector-effect="non-scaling-stroke" d="
  M 16.57 100.32
  Q 20.83 113.36 30.28 124.24
  A 1.09 1.09 0.0 0 0 31.94 124.23
  L 39.04 115.79
  A 1.45 1.45 0.0 0 0 39.07 113.95
  Q 32.79 106.07 29.56 96.20"
/>
<path stroke="#125186" stroke-opacity="0.992" vector-effect="non-scaling-stroke" d="
  M 29.56 96.20
  Q 27.21 88.96 26.83 81.48"
/>
<path stroke="#0f3882" stroke-opacity="0.992" vector-effect="non-scaling-stroke" d="
  M 26.83 81.48
  Q 25.73 60.70 37.79 44.58"
/>
<path stroke="#0e4586" stroke-opacity="0.992" vector-effect="non-scaling-stroke" d="
  M 37.79 44.58
  Q 45.72 34.64 57.08 29.31"
/>
<path stroke="#185c86" stroke-opacity="0.992" vector-effect="non-scaling-stroke" d="
  M 57.08 29.31
  Q 64.80 25.85 73.35 24.33"
/>
<path stroke="#286786" stroke-opacity="0.992" vector-effect="non-scaling-stroke" d="
  M 73.35 24.33
  L 85.75 23.96"
/>
<path stroke="#397086" stroke-opacity="0.992" vector-effect="non-scaling-stroke" d="
  M 85.75 23.96
  L 97.59 26.22"
/>
<path stroke="#4a7686" stroke-opacity="0.992" vector-effect="non-scaling-stroke" d="
  M 97.59 26.22
  L 102.35 27.88
  A 2.45 2.44 36.4 0 0 104.59 27.55
  L 108.95 24.34"
/>
<path stroke="#5d7b86" stroke-opacity="0.992" vector-effect="non-scaling-stroke" d="
  M 108.95 24.34
  L 114.81 20.00
  A 0.75 0.74 -48.7 0 0 114.73 18.75
  Q 96.80 8.66 76.20 9.99"
/>
<path stroke="#a1e9ff" vector-effect="non-scaling-stroke" d="
  M 108.95 24.34
  Q 96.74 20.22 86.66 11.81
  A 1.70 1.66 -20.2 0 0 85.83 11.44
  L 76.20 9.99"
/>
<path stroke="#7edeff" vector-effect="non-scaling-stroke" d="
  M 97.59 26.22
  C 92.31 22.96 86.89 20.27 81.68 16.80
  C 77.23 13.82 74.18 12.44 68.66 11.01"
/>
<path stroke="#5cd0ff" vector-effect="non-scaling-stroke" d="
  M 85.75 23.96
  Q 78.31 20.15 70.91 16.13
  Q 65.46 13.17 57.90 14.03"
/>
<path stroke="#3abcff" vector-effect="non-scaling-stroke" d="
  M 73.35 24.33
  C 66.42 21.12 59.41 18.19 52.03 16.46"
/>
<path stroke="#209aff" vector-effect="non-scaling-stroke" d="
  M 57.08 29.31
  Q 51.70 21.03 42.73 21.63"
/>
<path stroke="#1776fb" vector-effect="non-scaling-stroke" d="
  M 37.79 44.58
  Q 35.16 38.73 30.72 34.23
  A 0.51 0.50 43.9 0 0 29.98 34.24
  C 22.01 43.13 17.70 54.21 15.20 65.82
  Q 13.50 73.70 14.05 81.79
  Q 14.69 91.14 17.58 100.22"
/>
<path stroke="#209aff" vector-effect="non-scaling-stroke" d="
  M 17.58 100.22
  Q 16.74 99.79 16.57 100.32"
/>
<path stroke="#1b82fb" vector-effect="non-scaling-stroke" d="
  M 26.83 81.48
  Q 26.35 81.81 26.13 82.42"
/>
<path stroke="#1776fb" vector-effect="non-scaling-stroke" d="
  M 26.13 82.42
  Q 23.01 92.01 17.69 100.47"
/>
<path stroke="#218dfb" vector-effect="non-scaling-stroke" d="
  M 17.69 100.47
  L 17.58 100.22"
/>
<path stroke="#209aff" vector-effect="non-scaling-stroke" d="
  M 21.32 108.98
  L 17.69 100.47"
/>
<path stroke="#24a6ff" vector-effect="non-scaling-stroke" d="
  M 29.56 96.20
  C 29.10 100.42 32.55 104.98 33.86 108.60
  A 0.71 0.70 60.5 0 1 33.65 109.37
  L 26.02 115.83
  A 0.48 0.48 0.0 0 1 25.30 115.71
  L 21.32 108.98"
/>
<path stroke="#1a8fff" vector-effect="non-scaling-stroke" d="
  M 21.32 108.98
  Q 26.08 104.35 28.68 98.22
  A 1.46 1.46 0.0 0 0 28.74 97.28
  Q 26.71 90.04 26.13 82.42"
/>
<path stroke="#4a7686" stroke-opacity="0.992" vector-effect="non-scaling-stroke" d="
  M 139.02 73.78
  C 141.39 93.87 134.14 112.84 118.13 124.88
  C 100.03 138.49 76.54 139.89 56.46 129.03
  Q 55.93 128.74 55.17 129.00"
/>
<path stroke="#0e4586" stroke-opacity="0.992" vector-effect="non-scaling-stroke" d="
  M 55.17 129.00
  L 44.46 136.25
  A 0.83 0.83 0.0 0 0 44.45 137.61
  Q 64.88 152.02 90.32 149.96"
/>
<path stroke="#0d2877" stroke-opacity="0.992" vector-effect="non-scaling-stroke" d="
  M 90.32 149.96
  Q 107.81 148.11 122.36 138.10
  Q 124.07 136.92 125.69 135.96"
/>
<path stroke="#0f3882" stroke-opacity="0.992" vector-effect="non-scaling-stroke" d="
  M 125.69 135.96
  L 131.97 141.78
  A 0.52 0.52 0.0 0 0 132.74 141.71
  Q 133.35 140.92 133.85 139.35"
/>
<path stroke="#0b165b" stroke-opacity="0.992" vector-effect="non-scaling-stroke" d="
  M 133.85 139.35
  Q 135.16 138.56 135.71 137.17"
/>
<path stroke="#125186" stroke-opacity="0.992" vector-effect="non-scaling-stroke" d="
  M 135.71 137.17
  L 137.50 135.19"
/>
<path stroke="#7d8285" stroke-opacity="0.992" vector-effect="non-scaling-stroke" d="
  M 137.50 135.19
  Q 138.90 133.49 140.64 132.83"
/>
<path stroke="#185c86" stroke-opacity="0.992" vector-effect="non-scaling-stroke" d="
  M 140.64 132.83
  Q 142.62 130.73 136.32 126.69"
/>
<path stroke="#0f3882" stroke-opacity="0.992" vector-effect="non-scaling-stroke" d="
  M 136.32 126.69
  Q 142.52 119.48 146.38 111.30"
/>
<path stroke="#125186" stroke-opacity="0.992" vector-effect="non-scaling-stroke" d="
  M 146.38 111.30
  Q 150.61 102.55 152.29 92.78"
/>
<path stroke="#185c86" stroke-opacity="0.992" vector-effect="non-scaling-stroke" d="
  M 152.29 92.78
  L 153.08 85.03"
/>
<path stroke="#286786" stroke-opacity="0.992" vector-effect="non-scaling-stroke" d="
  M 153.08 85.03
  L 153.20 81.96"
/>
<path stroke="#397086" stroke-opacity="0.992" vector-effect="non-scaling-stroke" d="
  M 153.20 81.96
  Q 153.31 71.30 150.42 61.30"
/>
<path stroke="#4a7686" stroke-opacity="0.992" vector-effect="non-scaling-stroke" d="
  M 150.42 61.30
  L 148.18 54.50"
/>
<path stroke="#5d7b86" stroke-opacity="0.992" vector-effect="non-scaling-stroke" d="
  M 148.18 54.50
  Q 145.14 46.42 140.16 39.50
  A 1.05 1.05 0.0 0 0 138.51 39.44
  L 130.62 48.83
  A 1.11 1.11 0.0 0 0 130.51 50.11
  Q 137.17 61.17 139.02 73.78"
/>
<path stroke="#a1e9ff" vector-effect="non-scaling-stroke" d="
  M 148.18 54.50
  C 144.10 53.57 138.82 52.55 134.80 54.08
  A 0.49 0.49 0.0 0 0 134.52 54.73
  L 137.95 63.11"
/>
<path stroke="#91e3ff" vector-effect="non-scaling-stroke" d="
  M 137.95 63.11
  L 140.09 72.95"
/>
<path stroke="#a1e9ff" vector-effect="non-scaling-stroke" d="
  M 140.09 72.95
  Q 139.88 73.84 139.02 73.78"
/>
<path stroke="#5cd0ff" vector-effect="non-scaling-stroke" d="
  M 153.20 81.96
  L 152.03 74.36
  A 0.41 0.41 0.0 0 0 151.51 74.03
  L 140.90 77.23"
/>
<path stroke="#7edeff" vector-effect="non-scaling-stroke" d="
  M 140.90 77.23
  L 140.09 72.95"
/>
<path stroke="#6cd6ff" vector-effect="non-scaling-stroke" d="
  M 140.90 77.23
  L 140.91 83.91"
/>
<path stroke="#5ccbff" vector-effect="non-scaling-stroke" d="
  M 140.91 83.91
  L 139.57 94.04"
/>
<path stroke="#56c0ff" vector-effect="non-scaling-stroke" d="
  M 139.57 94.04
  Q 137.71 102.02 133.65 109.26"
/>
<path stroke="#53a7fb" vector-effect="non-scaling-stroke" d="
  M 133.65 109.26
  Q 128.40 118.67 119.72 125.51"
/>
<path stroke="#5297f0" vector-effect="non-scaling-stroke" d="
  M 119.72 125.51
  Q 108.32 134.00 94.25 136.68"
/>
<path stroke="#53a7fb" vector-effect="non-scaling-stroke" d="
  M 94.25 136.68
  Q 87.96 137.88 82.01 137.60"
/>
<path stroke="#52b4ff" vector-effect="non-scaling-stroke" d="
  M 82.01 137.60
  Q 67.47 136.72 55.52 129.87
  Q 55.10 129.63 55.17 129.00"
/>
<path stroke="#7edeff" vector-effect="non-scaling-stroke" d="
  M 150.42 61.30
  L 137.95 63.11"
/>
<path stroke="#3abcff" vector-effect="non-scaling-stroke" d="
  M 153.08 85.03
  Q 151.22 82.42 148.31 82.75
  Q 144.75 83.15 140.91 83.91"
/>
<path stroke="#24a6ff" vector-effect="non-scaling-stroke" d="
  M 152.29 92.78
  L 139.57 94.04"
/>
<path stroke="#1b82fb" vector-effect="non-scaling-stroke" d="
  M 146.38 111.30
  L 133.65 109.26"
/>
<path stroke="#1776fb" vector-effect="non-scaling-stroke" d="
  M 82.01 137.60
  C 78.95 140.59 77.97 144.43 76.77 148.66
  A 0.39 0.39 0.0 0 0 77.14 149.16
  L 88.72 149.29"
/>
<path stroke="#1338c5" vector-effect="non-scaling-stroke" d="
  M 129.08 131.99
  Q 127.89 132.79 127.74 133.91"
/>
<path stroke="#175aec" vector-effect="non-scaling-stroke" d="
  M 127.74 133.91
  Q 126.28 134.17 125.69 135.96"
/>
<path stroke="#1667f0" vector-effect="non-scaling-stroke" d="
  M 90.32 149.96
  L 88.72 149.29"
/>
<path stroke="#175aec" vector-effect="non-scaling-stroke" d="
  M 88.72 149.29
  L 94.25 136.68"
/>
<path stroke="#218dfb" vector-effect="non-scaling-stroke" d="
  M 136.32 126.69
  Q 135.48 126.44 133.98 127.22"
/>
<path stroke="#86b3fb" vector-effect="non-scaling-stroke" d="
  M 133.98 127.22
  Q 132.17 128.15 131.00 130.00"
/>
<path stroke="#1b82fb" vector-effect="non-scaling-stroke" d="
  M 131.00 130.00
  Q 129.93 130.84 129.54 131.94"
/>
<path stroke="#1447d0" vector-effect="non-scaling-stroke" d="
  M 129.54 131.94
  L 129.08 131.99"
/>
<path stroke="#175aec" vector-effect="non-scaling-stroke" d="
  M 129.08 131.99
  Q 124.98 128.03 119.72 125.51"
/>
<path stroke="#1447d0" vector-effect="non-scaling-stroke" d="
  M 133.85 139.35
  L 127.74 133.91"
/>
<path stroke="#89ccff" vector-effect="non-scaling-stroke" d="
  M 137.50 135.19
  L 131.00 130.00"
/>
<path stroke="#1760d4" vector-effect="non-scaling-stroke" d="
  M 135.71 137.17
  L 129.54 131.94"
/>
<path stroke="#8fd7ff" vector-effect="non-scaling-stroke" d="
  M 140.64 132.83
  L 133.98 127.22"
/>
</g>
<path fill="#05060b" fill-opacity="0.984" d="
  M 115.89 18.90
  A 1.10 1.09 -42.5 0 1 115.81 20.58
  L 104.57 29.07
  A 2.11 2.10 37.7 0 1 102.47 29.33
  Q 83.80 21.36 64.36 27.66
  C 26.69 39.86 17.06 83.66 39.96 113.90
  A 1.75 1.74 -43.8 0 1 39.91 116.07
  L 32.20 125.22
  A 1.30 1.30 0.0 0 1 30.25 125.27
  C 9.91 103.05 6.33 70.38 20.81 44.30
  C 31.91 24.33 51.78 11.73 74.32 9.22
  Q 92.18 7.23 111.47 15.98
  Q 113.91 17.08 115.89 18.90
  Z
  M 76.20 9.99
  L 68.66 11.01
  L 57.90 14.03
  L 52.03 16.46
  L 42.73 21.63
  Q 28.89 31.07 21.17 45.66
  Q 7.36 71.77 16.57 100.32
  Q 20.83 113.36 30.28 124.24
  A 1.09 1.09 0.0 0 0 31.94 124.23
  L 39.04 115.79
  A 1.45 1.45 0.0 0 0 39.07 113.95
  Q 32.79 106.07 29.56 96.20
  Q 27.21 88.96 26.83 81.48
  Q 25.73 60.70 37.79 44.58
  Q 45.72 34.64 57.08 29.31
  Q 64.80 25.85 73.35 24.33
  L 85.75 23.96
  L 97.59 26.22
  L 102.35 27.88
  A 2.45 2.44 36.4 0 0 104.59 27.55
  L 108.95 24.34
  L 114.81 20.00
  A 0.75 0.74 -48.7 0 0 114.73 18.75
  Q 96.80 8.66 76.20 9.99
  Z"
/>
<path fill="#b4eeff" d="
  M 108.95 24.34
  Q 96.74 20.22 86.66 11.81
  A 1.70 1.66 -20.2 0 0 85.83 11.44
  L 76.20 9.99
  Q 96.80 8.66 114.73 18.75
  A 0.75 0.74 -48.7 0 1 114.81 20.00
  L 108.95 24.34
  Z"
/>
<path fill="#8ee4ff" d="
  M 76.20 9.99
  L 85.83 11.44
  A 1.70 1.66 -20.2 0 1 86.66 11.81
  Q 96.74 20.22 108.95 24.34
  L 104.59 27.55
  A 2.45 2.44 36.4 0 1 102.35 27.88
  L 97.59 26.22
  C 92.31 22.96 86.89 20.27 81.68 16.80
  C 77.23 13.82 74.18 12.44 68.66 11.01
  L 76.20 9.99
  Z"
/>
<path fill="#6dd8ff" d="
  M 68.66 11.01
  C 74.18 12.44 77.23 13.82 81.68 16.80
  C 86.89 20.27 92.31 22.96 97.59 26.22
  L 85.75 23.96
  Q 78.31 20.15 70.91 16.13
  Q 65.46 13.17 57.90 14.03
  L 68.66 11.01
  Z"
/>
<path fill="#05060b" fill-opacity="0.984" d="
  M 146.55 17.83
  L 146.50 16.43
  Q 148.14 15.54 148.33 14.16
  A 0.58 0.57 78.2 0 0 147.47 13.59
  L 140.50 17.78
  L 137.74 18.74
  L 148.07 13.01
  A 0.77 0.77 0.0 0 1 149.15 13.97
  Q 148.30 16.01 146.55 17.83
  Z"
/>
<path fill="#4ac7ff" d="
  M 85.75 23.96
  L 73.35 24.33
  C 66.42 21.12 59.41 18.19 52.03 16.46
  L 57.90 14.03
  Q 65.46 13.17 70.91 16.13
  Q 78.31 20.15 85.75 23.96
  Z"
/>
<path fill="#fded43" d="
  M 146.50 16.43
  L 100.76 57.18
  L 83.48 71.58
  L 79.87 73.94
  A 0.33 0.33 0.0 0 0 79.98 74.54
  Q 85.36 75.74 89.17 73.79
  Q 90.62 75.00 91.54 77.27
  L 81.72 75.75
  L 76.95 74.68
  A 0.30 0.29 30.2 0 1 76.81 74.18
  L 90.00 62.06
  Q 100.00 53.62 110.41 45.64
  Q 121.54 37.10 127.69 30.95
  Q 129.07 29.58 129.79 28.14
  A 0.99 0.99 0.0 0 0 128.46 26.82
  Q 127.00 27.56 121.12 31.14
  Q 117.71 33.22 84.36 53.83
  Q 82.06 55.25 81.44 54.03
  L 140.50 17.78
  L 147.47 13.59
  A 0.58 0.57 78.2 0 1 148.33 14.16
  Q 148.14 15.54 146.50 16.43
  Z"
/>
<path fill="#2ab1ff" d="
  M 52.03 16.46
  C 59.41 18.19 66.42 21.12 73.35 24.33
  Q 64.80 25.85 57.08 29.31
  Q 51.70 21.03 42.73 21.63
  L 52.03 16.46
  Z"
/>
<path fill="#fe8a00" d="
  M 146.50 16.43
  L 146.55 17.83
  L 146.08 18.47
  L 103.53 67.26
  Q 103.00 61.92 100.76 57.18
  L 146.50 16.43
  Z"
/>
<path fill="#321a12" fill-opacity="0.984" d="
  M 140.50 17.78
  L 81.44 54.03
  L 69.19 61.48
  L 46.56 75.46
  A 0.59 0.59 0.0 0 0 46.71 76.53
  Q 59.06 80.05 71.46 82.86
  Q 65.82 89.04 60.40 95.52
  Q 33.96 126.68 25.74 136.99
  Q 20.53 143.51 17.52 146.05
  L 69.21 83.88
  A 0.14 0.14 0.0 0 0 69.14 83.65
  L 45.89 77.22
  A 1.10 1.10 0.0 0 1 45.61 75.23
  L 110.29 35.31
  Q 112.26 34.80 113.22 33.43
  L 137.74 18.74
  L 140.50 17.78
  Z"
/>
<path fill="#05060b" fill-opacity="0.984" d="
  M 146.08 18.47
  Q 144.47 21.01 142.62 23.34
  Q 125.02 45.50 103.47 68.71
  A 0.36 0.36 0.0 0 0 103.74 69.32
  L 126.56 69.32
  A 1.20 1.19 17.5 0 1 127.54 71.20
  Q 126.66 72.46 125.12 73.87
  Q 114.42 83.65 98.89 94.39
  C 84.76 104.18 66.04 116.29 49.46 128.18
  Q 42.08 133.47 34.56 138.63
  Q 34.61 137.98 35.40 137.42
  Q 59.89 119.80 80.01 106.34
  L 97.63 94.29
  L 107.45 87.31
  Q 113.27 82.96 123.83 74.07
  Q 125.66 72.53 126.56 71.14
  A 0.73 0.73 0.0 0 0 126.51 70.28
  Q 125.96 69.61 125.12 70.10
  L 101.35 70.17
  L 103.53 67.26
  L 146.08 18.47
  Z"
/>
<path fill="#1683ff" d="
  M 57.08 29.31
  Q 45.72 34.64 37.79 44.58
  Q 35.16 38.73 30.72 34.23
  A 0.51 0.50 43.9 0 0 29.98 34.24
  C 22.01 43.13 17.70 54.21 15.20 65.82
  Q 13.50 73.70 14.05 81.79
  Q 14.69 91.14 17.58 100.22
  Q 16.74 99.79 16.57 100.32
  Q 7.36 71.77 21.17 45.66
  Q 28.89 31.07 42.73 21.63
  Q 51.70 21.03 57.08 29.31
  Z"
/>
<path fill="#fedc0f" d="
  M 90.00 62.06
  L 82.74 64.12
  L 82.24 55.94
  A 0.31 0.30 73.9 0 0 81.79 55.69
  Q 76.31 58.70 71.02 62.01
  Q 69.42 63.01 69.19 61.48
  L 81.44 54.03
  Q 82.06 55.25 84.36 53.83
  Q 117.71 33.22 121.12 31.14
  Q 127.00 27.56 128.46 26.82
  A 0.99 0.99 0.0 0 1 129.79 28.14
  Q 129.07 29.58 127.69 30.95
  Q 121.54 37.10 110.41 45.64
  Q 100.00 53.62 90.00 62.06
  Z"
/>
<path fill="#1869f7" d="
  M 37.79 44.58
  Q 25.73 60.70 26.83 81.48
  Q 26.35 81.81 26.13 82.42
  Q 23.01 92.01 17.69 100.47
  L 17.58 100.22
  Q 14.69 91.14 14.05 81.79
  Q 13.50 73.70 15.20 65.82
  C 17.70 54.21 22.01 43.13 29.98 34.24
  A 0.51 0.50 43.9 0 1 30.72 34.23
  Q 35.16 38.73 37.79 44.58
  Z"
/>
<path fill="#05060b" fill-opacity="0.984" d="
  M 113.22 33.43
  Q 112.26 34.80 110.29 35.31
  L 113.22 33.43
  Z"
/>
<path fill="#05060b" fill-opacity="0.984" d="
  M 178.98 156.75
  Q 177.75 156.32 176.65 155.33
  Q 164.04 143.95 151.08 132.97
  C 148.48 130.75 146.17 129.72 143.31 131.88
  L 136.26 137.94
  Q 133.31 141.02 132.32 145.27
  Q 131.53 149.11 134.61 151.91
  Q 144.93 161.28 161.59 176.08
  C 162.69 177.07 164.40 178.26 165.45 178.83
  C 170.94 181.80 178.41 173.47 180.70 169.44
  C 182.55 166.17 183.53 162.66 181.31 159.74
  L 179.47 158.18
  L 178.98 156.75
  Q 185.27 160.70 182.33 167.70
  Q 178.54 176.72 169.80 180.15
  C 167.34 181.12 164.56 179.76 162.46 177.96
  Q 148.21 165.79 134.04 152.56
  Q 130.23 149.01 131.77 143.61
  A 1.33 1.33 0.0 0 0 131.35 142.24
  L 125.78 137.56
  A 0.70 0.70 0.0 0 0 124.91 137.53
  C 100.09 155.52 68.54 156.02 43.52 138.08
  A 1.26 1.26 0.0 0 1 43.54 136.02
  L 54.93 128.15
  A 1.64 1.64 0.0 0 1 56.66 128.07
  C 72.86 137.16 91.05 138.03 107.77 130.07
  C 138.62 115.39 147.12 78.59 129.54 50.32
  A 1.45 1.45 0.0 0 1 129.66 48.63
  L 138.19 38.50
  A 1.42 1.42 0.0 0 1 140.39 38.53
  C 148.86 49.18 153.37 63.92 154.01 77.53
  Q 155.31 105.20 137.87 126.27
  A 0.62 0.62 0.0 0 0 137.95 127.14
  L 142.23 130.74
  A 1.11 1.09 53.0 0 0 143.36 130.91
  Q 147.75 129.00 150.95 131.79
  Q 164.95 144.00 178.13 155.62
  Q 178.72 156.14 178.98 156.75
  Z
  M 139.02 73.78
  C 141.39 93.87 134.14 112.84 118.13 124.88
  C 100.03 138.49 76.54 139.89 56.46 129.03
  Q 55.93 128.74 55.17 129.00
  L 44.46 136.25
  A 0.83 0.83 0.0 0 0 44.45 137.61
  Q 64.88 152.02 90.32 149.96
  Q 107.81 148.11 122.36 138.10
  Q 124.07 136.92 125.69 135.96
  L 131.97 141.78
  A 0.52 0.52 0.0 0 0 132.74 141.71
  Q 133.35 140.92 133.85 139.35
  Q 135.16 138.56 135.71 137.17
  L 137.50 135.19
  Q 138.90 133.49 140.64 132.83
  Q 142.62 130.73 136.32 126.69
  Q 142.52 119.48 146.38 111.30
  Q 150.61 102.55 152.29 92.78
  L 153.08 85.03
  L 153.20 81.96
  Q 153.31 71.30 150.42 61.30
  L 148.18 54.50
  Q 145.14 46.42 140.16 39.50
  A 1.05 1.05 0.0 0 0 138.51 39.44
  L 130.62 48.83
  A 1.11 1.11 0.0 0 0 130.51 50.11
  Q 137.17 61.17 139.02 73.78
  Z"
/>
<path fill="#b4eeff" d="
  M 148.18 54.50
  C 144.10 53.57 138.82 52.55 134.80 54.08
  A 0.49 0.49 0.0 0 0 134.52 54.73
  L 137.95 63.11
  L 140.09 72.95
  Q 139.88 73.84 139.02 73.78
  Q 137.17 61.17 130.51 50.11
  A 1.11 1.11 0.0 0 1 130.62 48.83
  L 138.51 39.44
  A 1.05 1.05 0.0 0 1 140.16 39.50
  Q 145.14 46.42 148.18 54.50
  Z"
/>
<path fill="#8ee4ff" d="
  M 148.18 54.50
  L 150.42 61.30
  L 137.95 63.11
  L 134.52 54.73
  A 0.49 0.49 0.0 0 1 134.80 54.08
  C 138.82 52.55 144.10 53.57 148.18 54.50
  Z"
/>
<path fill="#fea800" d="
  M 82.74 64.12
  L 67.45 68.15
  Q 64.84 68.83 62.20 69.18
  Q 61.13 69.33 60.90 69.23
  A 0.82 0.82 0.0 0 0 60.25 69.25
  L 50.25 74.10
  A 0.70 0.70 0.0 0 0 50.43 75.42
  L 66.18 78.36
  L 76.39 80.71
  A 0.54 0.54 0.0 0 1 76.66 81.61
  L 68.24 90.51
  L 63.22 96.03
  L 60.40 95.52
  Q 65.82 89.04 71.46 82.86
  Q 59.06 80.05 46.71 76.53
  A 0.59 0.59 0.0 0 1 46.56 75.46
  L 69.19 61.48
  Q 69.42 63.01 71.02 62.01
  Q 76.31 58.70 81.79 55.69
  A 0.31 0.30 73.9 0 1 82.24 55.94
  L 82.74 64.12
  Z"
/>
<path fill="#fe6b00" d="
  M 103.53 67.26
  L 101.35 70.17
  L 93.33 70.50
  Q 89.24 69.77 85.25 71.99
  Q 83.97 72.71 83.48 71.58
  L 100.76 57.18
  Q 103.00 61.92 103.53 67.26
  Z"
/>
<path fill="#6dd8ff" d="
  M 153.20 81.96
  L 152.03 74.36
  A 0.41 0.41 0.0 0 0 151.51 74.03
  L 140.90 77.23
  L 140.09 72.95
  L 137.95 63.11
  L 150.42 61.30
  Q 153.31 71.30 153.20 81.96
  Z"
/>
<path fill="#fe8a00" d="
  M 90.00 62.06
  L 76.81 74.18
  A 0.30 0.29 30.2 0 0 76.95 74.68
  L 81.72 75.75
  Q 84.00 82.29 88.11 87.86
  A 0.61 0.60 52.2 0 1 88.01 88.68
  L 79.37 96.00
  A 0.46 0.45 41.4 0 0 79.42 96.74
  L 82.36 98.60
  L 78.26 101.68
  L 72.42 105.90
  L 70.65 103.20
  L 77.21 97.69
  A 0.53 0.53 0.0 0 0 77.17 96.85
  L 68.24 90.51
  L 76.66 81.61
  A 0.54 0.54 0.0 0 0 76.39 80.71
  L 66.18 78.36
  L 67.45 68.15
  L 82.74 64.12
  L 90.00 62.06
  Z"
/>
<path fill="#f35800" d="
  M 67.45 68.15
  L 66.18 78.36
  L 50.43 75.42
  A 0.70 0.70 0.0 0 1 50.25 74.10
  L 60.25 69.25
  A 0.82 0.82 0.0 0 1 60.90 69.23
  Q 61.13 69.33 62.20 69.18
  Q 64.84 68.83 67.45 68.15
  Z"
/>
<path fill="#fef77c" d="
  M 125.12 70.10
  Q 115.02 75.38 106.37 81.58
  L 99.86 78.91
  L 91.54 77.27
  Q 90.62 75.00 89.17 73.79
  L 93.33 70.50
  L 101.35 70.17
  L 125.12 70.10
  Z"
/>
<path fill="#fe8a00" d="
  M 107.45 87.31
  L 100.39 85.71
  L 106.37 81.58
  Q 115.02 75.38 125.12 70.10
  Q 125.96 69.61 126.51 70.28
  A 0.73 0.73 0.0 0 1 126.56 71.14
  Q 125.66 72.53 123.83 74.07
  Q 113.27 82.96 107.45 87.31
  Z"
/>
<path fill="#fea800" d="
  M 93.33 70.50
  L 89.17 73.79
  Q 85.36 75.74 79.98 74.54
  A 0.33 0.33 0.0 0 1 79.87 73.94
  L 83.48 71.58
  Q 83.97 72.71 85.25 71.99
  Q 89.24 69.77 93.33 70.50
  Z"
/>
<path fill="#8ee4ff" d="
  M 140.90 77.23
  L 140.91 83.91
  L 139.57 94.04
  Q 137.71 102.02 133.65 109.26
  Q 128.40 118.67 119.72 125.51
  Q 108.32 134.00 94.25 136.68
  Q 87.96 137.88 82.01 137.60
  Q 67.47 136.72 55.52 129.87
  Q 55.10 129.63 55.17 129.00
  Q 55.93 128.74 56.46 129.03
  C 76.54 139.89 100.03 138.49 118.13 124.88
  C 134.14 112.84 141.39 93.87 139.02 73.78
  Q 139.88 73.84 140.09 72.95
  L 140.90 77.23
  Z"
/>
<path fill="#4ac7ff" d="
  M 153.20 81.96
  L 153.08 85.03
  Q 151.22 82.42 148.31 82.75
  Q 144.75 83.15 140.91 83.91
  L 140.90 77.23
  L 151.51 74.03
  A 0.41 0.41 0.0 0 1 152.03 74.36
  L 153.20 81.96
  Z"
/>
<path fill="#feb900" d="
  M 91.54 77.27
  L 99.86 78.91
  L 89.73 87.31
  A 0.51 0.51 0.0 0 0 89.82 88.15
  L 93.84 90.20
  L 91.70 91.98
  L 82.36 98.60
  L 79.42 96.74
  A 0.46 0.45 41.4 0 1 79.37 96.00
  L 88.01 88.68
  A 0.61 0.60 52.2 0 0 88.11 87.86
  Q 84.00 82.29 81.72 75.75
  L 91.54 77.27
  Z"
/>
<path fill="#fedc0f" d="
  M 106.37 81.58
  L 100.39 85.71
  L 93.84 90.20
  L 89.82 88.15
  A 0.51 0.51 0.0 0 1 89.73 87.31
  L 99.86 78.91
  L 106.37 81.58
  Z"
/>
<path fill="#2ab1ff" d="
  M 153.08 85.03
  L 152.29 92.78
  L 139.57 94.04
  L 140.91 83.91
  Q 144.75 83.15 148.31 82.75
  Q 151.22 82.42 153.08 85.03
  Z"
/>
<path fill="#1e9bff" d="
  M 26.83 81.48
  Q 27.21 88.96 29.56 96.20
  C 29.10 100.42 32.55 104.98 33.86 108.60
  A 0.71 0.70 60.5 0 1 33.65 109.37
  L 26.02 115.83
  A 0.48 0.48 0.0 0 1 25.30 115.71
  L 21.32 108.98
  Q 26.08 104.35 28.68 98.22
  A 1.46 1.46 0.0 0 0 28.74 97.28
  Q 26.71 90.04 26.13 82.42
  Q 26.35 81.81 26.83 81.48
  Z"
/>
<path fill="#1683ff" d="
  M 26.13 82.42
  Q 26.71 90.04 28.74 97.28
  A 1.46 1.46 0.0 0 1 28.68 98.22
  Q 26.08 104.35 21.32 108.98
  L 17.69 100.47
  Q 23.01 92.01 26.13 82.42
  Z"
/>
<path fill="#fe6b00" d="
  M 100.39 85.71
  L 107.45 87.31
  L 97.63 94.29
  L 91.70 91.98
  L 93.84 90.20
  L 100.39 85.71
  Z"
/>
<path fill="#f35800" d="
  M 68.24 90.51
  L 77.17 96.85
  A 0.53 0.53 0.0 0 1 77.21 97.69
  L 70.65 103.20
  L 66.04 106.98
  L 58.16 102.20
  L 63.22 96.03
  L 68.24 90.51
  Z"
/>
<path fill="#f35800" d="
  M 91.70 91.98
  L 97.63 94.29
  L 80.01 106.34
  Q 77.71 105.19 78.26 101.68
  L 82.36 98.60
  L 91.70 91.98
  Z"
/>
<path fill="#1e9bff" d="
  M 152.29 92.78
  Q 150.61 102.55 146.38 111.30
  L 133.65 109.26
  Q 137.71 102.02 139.57 94.04
  L 152.29 92.78
  Z"
/>
<path fill="#fe6b00" d="
  M 60.40 95.52
  L 63.22 96.03
  L 58.16 102.20
  L 28.61 136.60
  A 0.17 0.02 -52.0 0 0 28.58 136.65
  Q 28.35 137.12 29.08 137.15
  A 0.58 0.54 -61.9 0 0 29.46 137.02
  L 66.04 106.98
  L 70.65 103.20
  L 72.42 105.90
  Q 49.63 122.15 28.70 140.73
  Q 28.01 141.34 27.43 142.06
  A 0.87 0.53 -13.3 0 1 27.28 142.21
  L 20.78 147.47
  Q 18.64 148.65 17.36 150.25
  Q 16.18 151.38 14.40 151.87
  A 0.60 0.60 0.0 0 1 13.77 150.92
  L 17.52 146.05
  Q 20.53 143.51 25.74 136.99
  Q 33.96 126.68 60.40 95.52
  Z"
/>
<path fill="#2ab1ff" d="
  M 16.57 100.32
  Q 16.74 99.79 17.58 100.22
  L 17.69 100.47
  L 21.32 108.98
  L 25.30 115.71
  A 0.48 0.48 0.0 0 0 26.02 115.83
  L 33.65 109.37
  A 0.71 0.70 60.5 0 0 33.86 108.60
  C 32.55 104.98 29.10 100.42 29.56 96.20
  Q 32.79 106.07 39.07 113.95
  A 1.45 1.45 0.0 0 1 39.04 115.79
  L 31.94 124.23
  A 1.09 1.09 0.0 0 1 30.28 124.24
  Q 20.83 113.36 16.57 100.32
  Z"
/>
<path fill="#d03000" d="
  M 78.26 101.68
  Q 77.71 105.19 80.01 106.34
  Q 59.89 119.80 35.40 137.42
  Q 34.61 137.98 34.56 138.63
  Q 34.31 138.18 33.97 138.46
  Q 33.62 138.75 33.79 139.04
  Q 33.32 139.54 32.77 139.71
  Q 32.25 139.74 32.21 140.23
  L 21.69 147.48
  Q 21.34 147.10 20.78 147.47
  L 27.28 142.21
  A 0.87 0.53 -13.3 0 0 27.43 142.06
  Q 28.01 141.34 28.70 140.73
  Q 49.63 122.15 72.42 105.90
  L 78.26 101.68
  Z"
/>
<path fill="#d03000" d="
  M 58.16 102.20
  L 66.04 106.98
  L 29.46 137.02
  A 0.58 0.54 -61.9 0 1 29.08 137.15
  Q 28.35 137.12 28.58 136.65
  A 0.17 0.02 -52.0 0 1 28.61 136.60
  L 58.16 102.20
  Z"
/>
<path fill="#1869f7" d="
  M 133.65 109.26
  L 146.38 111.30
  Q 142.52 119.48 136.32 126.69
  Q 135.48 126.44 133.98 127.22
  Q 132.17 128.15 131.00 130.00
  Q 129.93 130.84 129.54 131.94
  L 129.08 131.99
  Q 124.98 128.03 119.72 125.51
  Q 128.40 118.67 133.65 109.26
  Z"
/>
<path fill="#154ae1" d="
  M 129.08 131.99
  Q 127.89 132.79 127.74 133.91
  Q 126.28 134.17 125.69 135.96
  Q 124.07 136.92 122.36 138.10
  Q 107.81 148.11 90.32 149.96
  L 88.72 149.29
  L 94.25 136.68
  Q 108.32 134.00 119.72 125.51
  Q 124.98 128.03 129.08 131.99
  Z"
/>
<path fill="#2ab1ff" d="
  M 136.32 126.69
  Q 142.62 130.73 140.64 132.83
  L 133.98 127.22
  Q 135.48 126.44 136.32 126.69
  Z"
/>
<path fill="#f3fdfe" d="
  M 133.98 127.22
  L 140.64 132.83
  Q 138.90 133.49 137.50 135.19
  L 131.00 130.00
  Q 132.17 128.15 133.98 127.22
  Z"
/>
<path fill="#1683ff" d="
  M 55.17 129.00
  Q 55.10 129.63 55.52 129.87
  Q 67.47 136.72 82.01 137.60
  C 78.95 140.59 77.97 144.43 76.77 148.66
  A 0.39 0.39 0.0 0 0 77.14 149.16
  L 88.72 149.29
  L 90.32 149.96
  Q 64.88 152.02 44.45 137.61
  A 0.83 0.83 0.0 0 1 44.46 136.25
  L 55.17 129.00
  Z"
/>
<path fill="#1e9bff" d="
  M 131.00 130.00
  L 137.50 135.19
  L 135.71 137.17
  L 129.54 131.94
  Q 129.93 130.84 131.00 130.00
  Z"
/>
<path fill="#2ab1ff" d="
  M 178.98 156.75
  L 179.47 158.18
  Q 172.82 158.39 168.21 164.50
  L 167.08 165.49
  L 138.90 140.66
  A 1.18 1.18 0.0 0 0 137.13 140.91
  L 134.51 145.04
  L 132.32 145.27
  Q 133.31 141.02 136.26 137.94
  L 136.98 139.34
  Q 141.48 140.08 146.32 143.69
  Q 158.18 152.55 164.94 158.41
  Q 167.61 160.73 171.33 159.20
  Q 173.56 158.17 173.71 157.34
  Q 174.10 155.30 172.53 153.94
  Q 161.85 144.70 150.73 135.19
  Q 147.41 131.44 143.31 131.88
  C 146.17 129.72 148.48 130.75 151.08 132.97
  Q 164.04 143.95 176.65 155.33
  Q 177.75 156.32 178.98 156.75
  Z"
/>
<path fill="#1025a9" d="
  M 129.54 131.94
  L 135.71 137.17
  Q 135.16 138.56 133.85 139.35
  L 127.74 133.91
  Q 127.89 132.79 129.08 131.99
  L 129.54 131.94
  Z"
/>
<path fill="#f3fdfe" d="
  M 143.31 131.88
  Q 147.41 131.44 150.73 135.19
  Q 153.80 138.90 158.42 143.57
  Q 161.42 146.62 162.12 150.85
  A 0.22 0.22 0.0 0 1 161.79 151.07
  Q 160.87 150.49 159.99 150.49
  Q 152.14 143.94 144.40 137.10
  Q 143.77 136.54 143.71 136.29
  Q 143.54 135.63 143.01 135.48
  Q 142.62 135.36 141.62 136.27
  Q 139.29 138.38 136.98 139.34
  L 136.26 137.94
  L 143.31 131.88
  Z"
/>
<path fill="#1869f7" d="
  M 127.74 133.91
  L 133.85 139.35
  Q 133.35 140.92 132.74 141.71
  A 0.52 0.52 0.0 0 1 131.97 141.78
  L 125.69 135.96
  Q 126.28 134.17 127.74 133.91
  Z"
/>
<path fill="#d9f7fe" d="
  M 171.33 159.20
  Q 165.51 156.40 159.99 150.49
  Q 160.87 150.49 161.79 151.07
  A 0.22 0.22 0.0 0 0 162.12 150.85
  Q 161.42 146.62 158.42 143.57
  Q 153.80 138.90 150.73 135.19
  Q 161.85 144.70 172.53 153.94
  Q 174.10 155.30 173.71 157.34
  Q 173.56 158.17 171.33 159.20
  Z"
/>
<path fill="#4ac7ff" d="
  M 159.99 150.49
  Q 165.51 156.40 171.33 159.20
  Q 167.61 160.73 164.94 158.41
  Q 158.18 152.55 146.32 143.69
  Q 141.48 140.08 136.98 139.34
  Q 139.29 138.38 141.62 136.27
  Q 142.62 135.36 143.01 135.48
  Q 143.54 135.63 143.71 136.29
  Q 143.77 136.54 144.40 137.10
  Q 152.14 143.94 159.99 150.49
  Z"
/>
<path fill="#1869f7" d="
  M 94.25 136.68
  L 88.72 149.29
  L 77.14 149.16
  A 0.39 0.39 0.0 0 1 76.77 148.66
  C 77.97 144.43 78.95 140.59 82.01 137.60
  Q 87.96 137.88 94.25 136.68
  Z"
/>
<path fill="#05060b" fill-opacity="0.984" d="
  M 34.56 138.63
  L 33.79 139.04
  Q 33.62 138.75 33.97 138.46
  Q 34.31 138.18 34.56 138.63
  Z"
/>
<path fill="#05060b" fill-opacity="0.984" d="
  M 32.77 139.71
  Q 32.55 140.04 32.21 140.23
  Q 32.25 139.74 32.77 139.71
  Z"
/>
<path fill="#1025a9" d="
  M 167.08 165.49
  Q 164.28 169.34 163.98 173.24
  Q 163.38 173.94 162.17 172.84
  Q 149.20 161.04 135.87 149.64
  Q 134.12 148.15 134.51 145.04
  L 137.13 140.91
  A 1.18 1.18 0.0 0 1 138.90 140.66
  L 167.08 165.49
  Z"
/>
<path fill="#1869f7" d="
  M 134.51 145.04
  Q 134.12 148.15 135.87 149.64
  Q 149.20 161.04 162.17 172.84
  Q 163.38 173.94 163.98 173.24
  Q 164.80 173.48 164.89 173.00
  Q 164.30 175.88 165.41 177.08
  C 167.70 179.55 171.34 177.90 173.53 176.28
  C 177.41 173.42 184.02 165.68 180.79 160.48
  Q 181.11 160.40 181.31 159.74
  C 183.53 162.66 182.55 166.17 180.70 169.44
  C 178.41 173.47 170.94 181.80 165.45 178.83
  C 164.40 178.26 162.69 177.07 161.59 176.08
  Q 144.93 161.28 134.61 151.91
  Q 131.53 149.11 132.32 145.27
  L 134.51 145.04
  Z"
/>
<path fill="#321a12" fill-opacity="0.984" d="
  M 20.78 147.47
  Q 21.34 147.10 21.69 147.48
  Q 19.77 149.25 17.36 150.25
  Q 18.64 148.65 20.78 147.47
  Z"
/>
<path fill="#d9f7fe" d="
  M 179.47 158.18
  L 181.31 159.74
  Q 181.11 160.40 180.79 160.48
  C 177.02 157.62 171.35 162.37 169.04 165.35
  Q 168.49 164.98 168.21 164.50
  Q 172.82 158.39 179.47 158.18
  Z"
/>
<path fill="#1025a9" d="
  M 180.79 160.48
  C 184.02 165.68 177.41 173.42 173.53 176.28
  C 171.34 177.90 167.70 179.55 165.41 177.08
  Q 164.30 175.88 164.89 173.00
  Q 166.04 168.68 169.04 165.35
  C 171.35 162.37 177.02 157.62 180.79 160.48
  Z"
/>
<path fill="#6dd8ff" d="
  M 168.21 164.50
  Q 168.49 164.98 169.04 165.35
  Q 166.04 168.68 164.89 173.00
  Q 164.80 173.48 163.98 173.24
  Q 164.28 169.34 167.08 165.49
  L 168.21 164.50
  Z"
/>
</svg>
