<?xml version="1.0" encoding="UTF-8" standalone="no"?>
<!DOCTYPE svg PUBLIC "-//W3C//DTD SVG 1.1//EN" "http://www.w3.org/Graphics/SVG/1.1/DTD/svg11.dtd">
<svg xmlns="http://www.w3.org/2000/svg" version="1.1" viewBox="0.00 0.00 180.00 180.00">
<g stroke-width="2.00" fill="none" stroke-linecap="butt">
<path stroke="#1d71c9" vector-effect="non-scaling-stroke" d="
  M 79.68 0.00
  Q 75.57 8.26 68.90 15.59
  Q 51.42 34.80 42.07 44.44
  Q 28.62 58.30 15.04 72.03
  Q 9.36 77.78 0.00 89.06"
/>
<path stroke="#1976ba" vector-effect="non-scaling-stroke" d="
  M 130.58 0.00
  Q 123.61 10.99 114.40 20.19
  Q 69.47 65.08 24.59 110.03
  Q 12.70 121.93 0.00 133.08"
/>
<path stroke="#177bae" vector-effect="non-scaling-stroke" d="
  M 158.89 4.92
  Q 134.41 31.21 108.42 55.92"
/>
<path stroke="#8cbcda" vector-effect="non-scaling-stroke" d="
  M 108.42 55.92
  L 114.22 36.54
  A 1.79 1.77 -82.4 0 0 112.48 34.24
  Q 112.14 34.25 111.24 34.99
  Q 107.04 38.45 87.16 56.91
  Q 74.91 68.28 61.94 80.19
  Q 54.64 86.90 53.03 88.78
  Q 52.32 89.61 52.32 89.62
  A 1.74 1.74 0.0 0 0 54.02 91.72
  L 78.07 91.74
  A 0.45 0.44 -83.7 0 1 78.50 92.29
  L 78.12 94.00"
/>
<path stroke="#177bae" vector-effect="non-scaling-stroke" d="
  M 78.12 94.00
  Q 66.79 103.68 56.28 114.22
  Q 39.88 130.67 23.53 147.15
  Q 17.14 153.58 8.47 164.25"
/>
<path stroke="#1480a2" vector-effect="non-scaling-stroke" d="
  M 179.38 33.24
  C 160.99 49.59 144.49 67.78 125.97 83.96"
/>
<path stroke="#8abed4" vector-effect="non-scaling-stroke" d="
  M 125.97 83.96
  L 127.54 81.45
  A 1.43 1.43 0.0 0 0 126.33 79.27
  L 102.15 79.27
  A 0.56 0.56 0.0 0 1 101.62 78.55
  L 108.42 55.92"
/>
<path stroke="#118499" vector-effect="non-scaling-stroke" d="
  M 180.00 51.25
  Q 167.27 61.45 152.06 76.71
  Q 94.31 134.61 75.15 153.68
  Q 61.39 167.36 50.55 180.00"
/>
<path stroke="#1480a2" vector-effect="non-scaling-stroke" d="
  M 27.50 177.88
  Q 45.47 156.00 67.12 138.02"
/>
<path stroke="#89c1ce" vector-effect="non-scaling-stroke" d="
  M 67.12 138.02
  Q 66.35 140.80 65.78 143.89
  A 1.58 1.47 -88.1 0 0 67.40 145.75
  Q 68.11 145.65 69.23 144.70
  Q 71.18 143.05 72.60 141.36
  Q 76.75 136.38 82.75 130.25
  Q 87.12 125.78 88.54 124.05
  C 93.07 118.53 98.44 113.77 102.92 108.44
  C 106.45 104.23 110.20 100.92 114.67 95.85
  Q 120.09 89.70 125.97 83.96"
/>
<path stroke="#8abed4" vector-effect="non-scaling-stroke" d="
  M 67.12 138.02
  L 78.12 94.00"
/>
<path stroke="#0f8791" vector-effect="non-scaling-stroke" d="
  M 180.00 68.56
  Q 173.19 74.93 166.65 81.40
  Q 125.99 121.63 85.63 162.15
  Q 78.40 169.40 70.56 180.00"
/>
<path stroke="#0d8b87" vector-effect="non-scaling-stroke" d="
  M 180.00 102.30
  C 161.57 119.03 145.76 135.02 126.73 154.20
  Q 114.30 166.74 102.53 180.00"
/>
<path stroke="#0a8f7c" vector-effect="non-scaling-stroke" d="
  M 180.00 133.07
  Q 174.07 137.67 170.30 141.15
  Q 151.03 158.91 131.99 180.00"
/>
</g>
<path fill="#1f6dd2" d="
  M 79.68 0.00
  Q 75.57 8.26 68.90 15.59
  Q 51.42 34.80 42.07 44.44
  Q 28.62 58.30 15.04 72.03
  Q 9.36 77.78 0.00 89.06
  L 0.00 37.37
  C 2.03 17.28 17.16 2.07 37.26 0.00
  L 79.68 0.00
  Z"
/>
<path fill="#1a74c0" d="
  M 130.58 0.00
  Q 123.61 10.99 114.40 20.19
  Q 69.47 65.08 24.59 110.03
  Q 12.70 121.93 0.00 133.08
  L 0.00 89.06
  Q 9.36 77.78 15.04 72.03
  Q 28.62 58.30 42.07 44.44
  Q 51.42 34.80 68.90 15.59
  Q 75.57 8.26 79.68 0.00
  L 130.58 0.00
  Z"
/>
<path fill="#1878b4" d="
  M 142.65 0.00
  Q 151.28 0.93 158.89 4.92
  Q 134.41 31.21 108.42 55.92
  L 114.22 36.54
  A 1.79 1.77 -82.4 0 0 112.48 34.24
  Q 112.14 34.25 111.24 34.99
  Q 107.04 38.45 87.16 56.91
  Q 74.91 68.28 61.94 80.19
  Q 54.64 86.90 53.03 88.78
  Q 52.32 89.61 52.32 89.62
  A 1.74 1.74 0.0 0 0 54.02 91.72
  L 78.07 91.74
  A 0.45 0.44 -83.7 0 1 78.50 92.29
  L 78.12 94.00
  Q 66.79 103.68 56.28 114.22
  Q 39.88 130.67 23.53 147.15
  Q 17.14 153.58 8.47 164.25
  Q 1.26 154.89 0.00 142.73
  L 0.00 133.08
  Q 12.70 121.93 24.59 110.03
  Q 69.47 65.08 114.40 20.19
  Q 123.61 10.99 130.58 0.00
  L 142.65 0.00
  Z"
/>
<path fill="#157da8" d="
  M 179.38 33.24
  C 160.99 49.59 144.49 67.78 125.97 83.96
  L 127.54 81.45
  A 1.43 1.43 0.0 0 0 126.33 79.27
  L 102.15 79.27
  A 0.56 0.56 0.0 0 1 101.62 78.55
  L 108.42 55.92
  Q 134.41 31.21 158.89 4.92
  Q 175.55 14.56 179.38 33.24
  Z"
/>
<path fill="#12829c" d="
  M 179.38 33.24
  L 180.00 37.22
  L 180.00 51.25
  Q 167.27 61.45 152.06 76.71
  Q 94.31 134.61 75.15 153.68
  Q 61.39 167.36 50.55 180.00
  L 37.33 180.00
  L 27.50 177.88
  Q 45.47 156.00 67.12 138.02
  Q 66.35 140.80 65.78 143.89
  A 1.58 1.47 -88.1 0 0 67.40 145.75
  Q 68.11 145.65 69.23 144.70
  Q 71.18 143.05 72.60 141.36
  Q 76.75 136.38 82.75 130.25
  Q 87.12 125.78 88.54 124.05
  C 93.07 118.53 98.44 113.77 102.92 108.44
  C 106.45 104.23 110.20 100.92 114.67 95.85
  Q 120.09 89.70 125.97 83.96
  C 144.49 67.78 160.99 49.59 179.38 33.24
  Z"
/>
<path fill="#ffffff" d="
  M 108.42 55.92
  L 101.62 78.55
  A 0.56 0.56 0.0 0 0 102.15 79.27
  L 126.33 79.27
  A 1.43 1.43 0.0 0 1 127.54 81.45
  L 125.97 83.96
  Q 120.09 89.70 114.67 95.85
  C 110.20 100.92 106.45 104.23 102.92 108.44
  C 98.44 113.77 93.07 118.53 88.54 124.05
  Q 87.12 125.78 82.75 130.25
  Q 76.75 136.38 72.60 141.36
  Q 71.18 143.05 69.23 144.70
  Q 68.11 145.65 67.40 145.75
  A 1.58 1.47 -88.1 0 1 65.78 143.89
  Q 66.35 140.80 67.12 138.02
  L 78.12 94.00
  L 78.50 92.29
  A 0.45 0.44 -83.7 0 0 78.07 91.74
  L 54.02 91.72
  A 1.74 1.74 0.0 0 1 52.32 89.62
  Q 52.32 89.61 53.03 88.78
  Q 54.64 86.90 61.94 80.19
  Q 74.91 68.28 87.16 56.91
  Q 107.04 38.45 111.24 34.99
  Q 112.14 34.25 112.48 34.24
  A 1.79 1.77 -82.4 0 1 114.22 36.54
  L 108.42 55.92
  Z"
/>
<path fill="#108595" d="
  M 180.00 51.25
  L 180.00 68.56
  Q 173.19 74.93 166.65 81.40
  Q 125.99 121.63 85.63 162.15
  Q 78.40 169.40 70.56 180.00
  L 50.55 180.00
  Q 61.39 167.36 75.15 153.68
  Q 94.31 134.61 152.06 76.71
  Q 167.27 61.45 180.00 51.25
  Z"
/>
<path fill="#0e888c" d="
  M 180.00 68.56
  L 180.00 102.30
  C 161.57 119.03 145.76 135.02 126.73 154.20
  Q 114.30 166.74 102.53 180.00
  L 70.56 180.00
  Q 78.40 169.40 85.63 162.15
  Q 125.99 121.63 166.65 81.40
  Q 173.19 74.93 180.00 68.56
  Z"
/>
<path fill="#157da8" d="
  M 78.12 94.00
  L 67.12 138.02
  Q 45.47 156.00 27.50 177.88
  Q 16.09 173.89 8.47 164.25
  Q 17.14 153.58 23.53 147.15
  Q 39.88 130.67 56.28 114.22
  Q 66.79 103.68 78.12 94.00
  Z"
/>
<path fill="#0b8d81" d="
  M 180.00 102.30
  L 180.00 133.07
  Q 174.07 137.67 170.30 141.15
  Q 151.03 158.91 131.99 180.00
  L 102.53 180.00
  Q 114.30 166.74 126.73 154.20
  C 145.76 135.02 161.57 119.03 180.00 102.30
  Z"
/>
<path fill="#089077" d="
  M 180.00 133.07
  L 180.00 142.67
  C 177.61 163.34 163.17 177.40 142.77 180.00
  L 131.99 180.00
  Q 151.03 158.91 170.30 141.15
  Q 174.07 137.67 180.00 133.07
  Z"
/>
</svg>
