<?xml version="1.0" encoding="UTF-8" standalone="no"?>
<!DOCTYPE svg PUBLIC "-//W3C//DTD SVG 1.1//EN" "http://www.w3.org/Graphics/SVG/1.1/DTD/svg11.dtd">
<svg xmlns="http://www.w3.org/2000/svg" version="1.1" viewBox="0.00 0.00 192.00 192.00">
<g stroke-width="2.00" fill="none" stroke-linecap="butt">
<path stroke="#fcfcfc" stroke-opacity="0.510" vector-effect="non-scaling-stroke" d="
  M 25.92 0.00
  Q 21.90 2.74 17.59 5.07
  Q 13.51 7.27 8.56 12.81
  Q 5.36 16.40 0.00 26.72"
/>
<path stroke="#fcfcfc" stroke-opacity="0.510" vector-effect="non-scaling-stroke" d="
  M 164.92 0.00
  Q 170.21 2.53 175.30 5.92
  Q 182.39 10.64 186.95 17.83
  Q 189.84 22.37 192.00 27.01"
/>
<path stroke="#fcfcfc" stroke-opacity="0.510" vector-effect="non-scaling-stroke" d="
  M 192.00 164.88
  Q 190.95 166.46 188.20 171.70
  C 183.29 181.05 175.49 186.45 165.04 191.16"
/>
<path stroke="#d2c4c6" vector-effect="non-scaling-stroke" d="
  M 165.04 191.16
  Q 164.59 190.85 164.45 191.50"
/>
<path stroke="#fcfcfc" stroke-opacity="0.510" vector-effect="non-scaling-stroke" d="
  M 164.45 191.50
  Q 163.74 191.64 163.29 192.00"
/>
<path stroke="#fcfcfc" stroke-opacity="0.510" vector-effect="non-scaling-stroke" d="
  M 27.73 192.00
  Q 21.76 188.70 15.75 185.25
  Q 11.95 183.08 8.15 178.37
  Q 6.31 176.10 3.92 171.70
  Q 2.02 168.20 0.00 164.80"
/>
<path stroke="#f6d2ac" vector-effect="non-scaling-stroke" d="
  M 30.07 30.18
  Q 21.11 31.16 18.70 39.17"
/>
<path stroke="#e5e0cd" vector-effect="non-scaling-stroke" d="
  M 18.70 39.17
  Q 18.25 40.00 18.09 41.56"
/>
<path stroke="#f1efe8" vector-effect="non-scaling-stroke" d="
  M 18.09 41.56
  Q 17.78 42.59 17.68 46.50
  Q 17.23 64.67 18.16 77.46"
/>
<path stroke="#f3ecdd" vector-effect="non-scaling-stroke" d="
  M 18.16 77.46
  L 19.42 89.24"
/>
<path stroke="#f4e8d0" vector-effect="non-scaling-stroke" d="
  M 19.42 89.24
  L 20.12 94.00"
/>
<path stroke="#f4e3c3" vector-effect="non-scaling-stroke" d="
  M 20.12 94.00
  L 21.20 100.75"
/>
<path stroke="#f5dcb7" vector-effect="non-scaling-stroke" d="
  M 21.20 100.75
  L 23.45 111.46"
/>
<path stroke="#ddc6bb" vector-effect="non-scaling-stroke" d="
  M 23.45 111.46
  Q 26.47 123.43 30.19 133.31
  Q 32.28 138.86 36.19 144.29"
/>
<path stroke="#f5d4ca" vector-effect="non-scaling-stroke" d="
  M 36.19 144.29
  L 39.99 151.74"
/>
<path stroke="#f6d2ac" vector-effect="non-scaling-stroke" d="
  M 39.99 151.74
  C 42.02 156.36 45.06 157.92 49.81 160.98"
/>
<path stroke="#f4e3c3" vector-effect="non-scaling-stroke" d="
  M 49.81 160.98
  Q 53.06 162.89 56.70 164.14
  Q 58.26 164.68 58.82 166.09
  A 0.68 0.67 -12.5 0 0 59.49 166.51
  L 64.08 166.25"
/>
<path stroke="#f5dcb7" vector-effect="non-scaling-stroke" d="
  M 64.08 166.25
  L 70.36 165.07"
/>
<path stroke="#f5ded6" vector-effect="non-scaling-stroke" d="
  M 70.36 165.07
  L 66.73 167.22"
/>
<path stroke="#f6d4bf" vector-effect="non-scaling-stroke" d="
  M 66.73 167.22
  L 59.54 167.46"
/>
<path stroke="#f5d4ca" vector-effect="non-scaling-stroke" d="
  M 59.54 167.46
  L 56.03 167.17"
/>
<path stroke="#f4dccd" vector-effect="non-scaling-stroke" d="
  M 56.03 167.17
  Q 57.43 167.30 57.86 166.81
  A 1.32 1.26 33.9 0 0 57.43 164.84
  Q 56.78 164.50 53.97 163.54
  A 0.25 0.24 -6.3 0 0 53.68 163.90
  Q 53.89 164.25 55.17 165.11
  A 0.43 0.43 0.0 0 1 54.94 165.90
  L 52.20 165.96"
/>
<path stroke="#f2e2d9" vector-effect="non-scaling-stroke" d="
  M 52.20 165.96
  L 51.25 165.82"
/>
<path stroke="#fefbf3" vector-effect="non-scaling-stroke" d="
  M 51.25 165.82
  Q 51.86 165.51 52.44 165.16
  Q 52.48 165.13 52.43 165.16
  Q 51.83 165.45 51.25 165.82"
/>
<path stroke="#f2e2d9" vector-effect="non-scaling-stroke" d="
  M 51.25 165.82
  L 39.46 165.21"
/>
<path stroke="#f4e5e0" vector-effect="non-scaling-stroke" d="
  M 39.46 165.21
  L 28.00 166.10
  A 0.37 0.37 0.0 0 0 27.82 166.78
  C 33.07 170.42 38.99 171.62 46.19 172.48"
/>
<path stroke="#fefbf3" vector-effect="non-scaling-stroke" d="
  M 46.19 172.48
  Q 35.32 171.55 25.76 167.37
  A 1.02 1.02 0.0 0 1 26.04 165.43
  L 29.00 165.05
  A 0.18 0.18 0.0 0 0 28.97 164.69
  Q 26.66 164.73 25.11 165.72
  A 0.99 0.99 0.0 0 0 24.96 167.28
  C 27.28 169.44 31.35 170.42 34.90 171.60
  A 0.08 0.05 31.6 0 1 34.95 171.71
  Q 34.90 171.74 34.87 171.73
  C 31.05 171.00 24.94 169.81 21.93 167.14
  A 0.99 0.99 0.0 0 1 22.11 165.53
  C 25.55 163.67 31.29 164.05 36.00 164.04
  Q 36.08 164.04 36.13 164.01
  A 0.09 0.04 -40.6 0 0 36.18 163.90
  C 31.26 163.18 19.58 161.97 15.77 164.61
  A 1.06 1.06 0.0 0 0 15.65 166.26
  Q 17.09 167.62 19.06 168.36
  C 30.69 172.73 41.33 175.08 55.03 175.85
  Q 63.64 176.33 74.09 177.29
  Q 85.38 178.33 115.62 178.31
  C 124.53 178.31 136.45 177.30 145.76 176.99
  C 148.87 176.89 169.24 174.97 167.76 169.89
  C 166.56 165.77 156.68 165.14 153.02 165.17
  Q 145.10 165.22 136.48 164.92
  A 0.37 0.37 0.0 0 1 136.30 164.24
  L 142.37 160.44"
/>
<path stroke="#ddc6bb" vector-effect="non-scaling-stroke" d="
  M 142.37 160.44
  L 143.87 159.31"
/>
<path stroke="#f2cbc8" vector-effect="non-scaling-stroke" d="
  M 143.87 159.31
  Q 147.20 157.00 150.12 153.12
  Q 162.39 136.79 166.94 117.49
  C 169.31 107.43 171.76 97.69 172.39 87.31"
/>
<path stroke="#e9dfde" vector-effect="non-scaling-stroke" d="
  M 172.39 87.31
  Q 174.79 66.62 173.23 44.75
  Q 173.01 41.80 172.24 39.77"
/>
<path stroke="#d2c4c6" vector-effect="non-scaling-stroke" d="
  M 172.24 39.77
  Q 171.40 34.00 166.73 31.51
  Q 159.60 27.73 153.06 32.34"
/>
<path stroke="#bfb0b1" vector-effect="non-scaling-stroke" d="
  M 153.06 32.34
  Q 146.18 37.54 147.99 44.12"
/>
<path stroke="#e9dfde" vector-effect="non-scaling-stroke" d="
  M 147.99 44.12
  Q 148.99 46.70 148.91 50.50
  Q 148.79 56.75 148.53 63.07"
/>
<path stroke="#f5ded6" vector-effect="non-scaling-stroke" d="
  M 148.53 63.07
  L 147.80 74.77"
/>
<path stroke="#f5d4ca" vector-effect="non-scaling-stroke" d="
  M 147.80 74.77
  L 146.32 89.46"
/>
<path stroke="#f2cbc8" vector-effect="non-scaling-stroke" d="
  M 146.32 89.46
  L 145.22 97.27"
/>
<path stroke="#f2c4bf" vector-effect="non-scaling-stroke" d="
  M 145.22 97.27
  L 143.22 107.53"
/>
<path stroke="#f3b9b3" vector-effect="non-scaling-stroke" d="
  M 143.22 107.53
  Q 140.93 119.98 135.40 131.18"
/>
<path stroke="#f2c4bf" vector-effect="non-scaling-stroke" d="
  M 135.40 131.18
  Q 132.17 137.44 129.89 139.15
  Q 128.10 140.50 126.66 139.09
  Q 121.74 134.30 115.90 125.09
  C 113.98 122.06 112.99 118.75 111.08 116.14
  Q 109.86 114.48 109.71 112.02
  Q 109.49 108.32 110.05 104.36"
/>
<path stroke="#f5c1a8" vector-effect="non-scaling-stroke" d="
  M 110.05 104.36
  L 110.45 103.08"
/>
<path stroke="#f2e2d9" vector-effect="non-scaling-stroke" d="
  M 110.45 103.08
  L 113.75 90.51
  A 0.88 0.08 -84.8 0 1 113.77 90.40
  L 114.68 78.88"
/>
<path stroke="#eee6e1" vector-effect="non-scaling-stroke" d="
  M 114.68 78.88
  Q 115.70 66.82 111.38 55.51"
/>
<path stroke="#e5d6ce" vector-effect="non-scaling-stroke" d="
  M 111.38 55.51
  Q 107.94 43.03 96.41 41.09
  Q 89.85 39.99 85.32 45.12"
/>
<path stroke="#ddc6bb" vector-effect="non-scaling-stroke" d="
  M 85.32 45.12
  L 84.26 46.70"
/>
<path stroke="#e5d6ce" vector-effect="non-scaling-stroke" d="
  M 84.26 46.70
  C 81.65 48.23 79.87 55.18 79.08 58.41"
/>
<path stroke="#f2e2d9" vector-effect="non-scaling-stroke" d="
  M 79.08 58.41
  Q 76.80 76.05 78.14 93.51
  C 78.42 97.28 79.43 99.83 81.01 102.84
  C 82.35 105.39 80.95 107.10 81.64 109.32"
/>
<path stroke="#f5c1a8" vector-effect="non-scaling-stroke" d="
  M 81.64 109.32
  L 80.22 113.45"
/>
<path stroke="#f5bb9f" vector-effect="non-scaling-stroke" d="
  M 80.22 113.45
  Q 79.54 114.55 78.94 116.92
  A 2.53 2.47 67.6 0 1 78.71 117.49
  L 70.32 132.55"
/>
<path stroke="#f5c1a8" vector-effect="non-scaling-stroke" d="
  M 70.32 132.55
  L 62.50 140.12
  A 0.82 0.82 0.0 0 1 61.16 139.81
  Q 60.69 138.51 59.73 137.24
  Q 52.80 128.06 49.82 116.62"
/>
<path stroke="#f6d2ac" vector-effect="non-scaling-stroke" d="
  M 49.82 116.62
  L 46.52 103.15"
/>
<path stroke="#f5dcb7" vector-effect="non-scaling-stroke" d="
  M 46.52 103.15
  L 45.20 94.71"
/>
<path stroke="#f4e3c3" vector-effect="non-scaling-stroke" d="
  M 45.20 94.71
  L 43.93 83.76"
/>
<path stroke="#f4e8d0" vector-effect="non-scaling-stroke" d="
  M 43.93 83.76
  L 43.20 75.97"
/>
<path stroke="#f1efe8" vector-effect="non-scaling-stroke" d="
  M 43.20 75.97
  Q 41.96 60.20 42.44 43.63"
/>
<path stroke="#e5e0cd" vector-effect="non-scaling-stroke" d="
  M 42.44 43.63
  Q 44.64 35.61 37.59 31.67
  Q 34.00 29.66 30.07 30.18"
/>
<path stroke="#d6cfb5" vector-effect="non-scaling-stroke" d="
  M 42.44 43.63
  Q 31.49 39.40 18.09 41.56"
/>
<path stroke="#dbb279" vector-effect="non-scaling-stroke" d="
  M 18.70 39.17
  Q 18.65 39.92 18.81 40.47
  A 0.71 0.70 75.1 0 0 19.64 40.96
  L 21.33 40.57
  A 1.38 1.38 0.0 0 0 22.08 40.12
  C 23.40 38.55 25.71 36.61 26.83 33.45
  A 0.90 0.90 0.0 0 1 27.51 32.86
  Q 28.93 32.58 30.86 31.13
  A 0.29 0.29 0.0 0 0 30.83 30.65
  L 30.07 30.18"
/>
<path stroke="#e5d7b8" vector-effect="non-scaling-stroke" d="
  M 43.20 75.97
  L 41.99 73.51"
/>
<path stroke="#e5dcc5" vector-effect="non-scaling-stroke" d="
  M 41.99 73.51
  L 41.28 60.51
  A 0.34 0.34 0.0 0 0 40.79 60.23
  Q 28.36 66.93 18.16 77.46"
/>
<path stroke="#e8cb94" vector-effect="non-scaling-stroke" d="
  M 43.93 83.76
  Q 38.83 84.83 33.77 87.73
  Q 31.64 88.94 29.07 89.63
  Q 23.82 91.03 20.12 94.00"
/>
<path stroke="#e8d5ad" vector-effect="non-scaling-stroke" d="
  M 41.99 73.51
  Q 29.46 79.60 19.42 89.24"
/>
<path stroke="#e9c07b" vector-effect="non-scaling-stroke" d="
  M 45.20 94.71
  Q 42.55 94.98 40.90 96.24
  Q 37.09 99.15 34.32 100.46
  C 29.22 102.86 25.95 101.60 21.20 100.75"
/>
<path stroke="#ebaf63" vector-effect="non-scaling-stroke" d="
  M 46.52 103.15
  C 39.84 110.33 34.12 111.68 24.66 109.03"
/>
<path stroke="#d3a372" vector-effect="non-scaling-stroke" d="
  M 24.66 109.03
  Q 23.14 107.12 23.45 111.46"
/>
<path stroke="#d39a85" vector-effect="non-scaling-stroke" d="
  M 34.96 138.81
  L 36.19 144.29"
/>
<path stroke="#eb9354" vector-effect="non-scaling-stroke" d="
  M 49.82 116.62
  C 47.47 122.30 49.11 128.77 50.58 134.43"
/>
<path stroke="#f5ce9f" vector-effect="non-scaling-stroke" d="
  M 50.58 134.43
  L 49.79 134.38
  A 0.64 0.63 6.1 0 0 49.13 134.91
  Q 49.03 135.54 49.26 136.22"
/>
<path stroke="#eb9354" vector-effect="non-scaling-stroke" d="
  M 49.26 136.22
  L 44.45 133.95
  A 0.99 0.98 7.1 0 0 43.06 135.03
  Q 44.36 141.54 47.61 148.38"
/>
<path stroke="#eb8e4b" vector-effect="non-scaling-stroke" d="
  M 47.61 148.38
  Q 52.80 153.15 60.82 154.71"
/>
<path stroke="#eb9354" vector-effect="non-scaling-stroke" d="
  M 60.82 154.71
  L 66.29 154.94"
/>
<path stroke="#eb8e4b" vector-effect="non-scaling-stroke" d="
  M 66.29 154.94
  Q 73.40 154.79 80.97 156.89"
/>
<path stroke="#ec9d5f" vector-effect="non-scaling-stroke" d="
  M 54.77 155.55
  Q 54.48 155.00 54.08 154.77"
/>
<path stroke="#ec9d5f" vector-effect="non-scaling-stroke" d="
  M 37.19 138.28
  Q 38.34 143.91 41.46 149.06"
/>
<path stroke="#ebaf63" vector-effect="non-scaling-stroke" d="
  M 73.70 162.00
  Q 68.96 160.78 64.31 159.18
  C 59.64 157.57 55.04 156.73 51.67 160.92
  A 0.35 0.35 0.0 0 0 51.78 161.46
  L 52.71 161.96"
/>
<path stroke="#eab570" vector-effect="non-scaling-stroke" d="
  M 52.71 161.96
  L 49.81 160.98"
/>
<path stroke="#eba676" vector-effect="non-scaling-stroke" d="
  M 39.99 151.74
  Q 39.35 144.61 34.96 138.81"
/>
<path stroke="#d49867" vector-effect="non-scaling-stroke" d="
  M 34.96 138.81
  Q 30.58 129.32 29.45 125.31
  Q 27.14 117.12 24.66 109.03"
/>
<path stroke="#e6cc9f" vector-effect="non-scaling-stroke" d="
  M 73.98 162.48
  Q 72.27 163.69 72.22 164.93
  A 0.52 0.52 0.0 0 0 72.75 165.47
  L 95.96 164.86"
/>
<path stroke="#ebbb8e" vector-effect="non-scaling-stroke" d="
  M 95.96 164.86
  L 96.86 164.98
  A 0.04 0.03 46.2 0 1 96.86 165.05
  Q 83.61 165.87 70.36 165.07"
/>
<path stroke="#e9c07b" vector-effect="non-scaling-stroke" d="
  M 64.08 166.25
  L 52.71 161.96"
/>
<path stroke="#ea7d47" vector-effect="non-scaling-stroke" d="
  M 66.29 154.94
  L 59.90 153.68
  A 0.21 0.21 0.0 0 0 59.68 154.00
  Q 60.04 154.55 60.82 154.71"
/>
<path stroke="#ea7d47" vector-effect="non-scaling-stroke" d="
  M 47.61 148.38
  L 56.26 152.78
  A 0.09 0.08 -77.3 0 0 56.38 152.70
  L 56.38 152.17
  A 0.44 0.44 0.0 0 0 56.03 151.74
  Q 51.87 150.89 50.70 147.57
  A 0.31 0.31 0.0 0 1 51.21 147.25
  L 52.41 148.45
  A 0.39 0.39 0.0 0 0 53.08 148.21
  Q 53.20 146.85 54.47 145.55
  A 0.56 0.54 22.0 0 1 54.86 145.39
  L 61.10 145.39
  A 0.91 0.91 0.0 0 0 62.01 144.41
  Q 61.85 142.36 63.12 141.40
  Q 63.98 140.75 64.67 139.99
  Q 67.86 136.48 70.32 132.55"
/>
<path stroke="#e79989" vector-effect="non-scaling-stroke" d="
  M 133.34 152.90
  C 124.26 153.11 117.83 150.55 110.61 145.16
  C 107.10 142.53 102.60 140.73 98.48 139.00
  A 0.84 0.84 0.0 0 0 97.57 139.16
  Q 96.92 139.78 96.76 140.76"
/>
<path stroke="#f2c4bf" vector-effect="non-scaling-stroke" d="
  M 96.76 140.76
  L 83.97 155.26"
/>
<path stroke="#f1c0b2" vector-effect="non-scaling-stroke" d="
  M 83.97 155.26
  L 74.70 162.24"
/>
<path stroke="#e3b4a7" vector-effect="non-scaling-stroke" d="
  M 74.70 162.24
  Q 74.13 162.31 73.98 162.48"
/>
<path stroke="#e7a176" vector-effect="non-scaling-stroke" d="
  M 73.98 162.48
  Q 73.75 162.31 73.70 162.00"
/>
<path stroke="#e8976b" vector-effect="non-scaling-stroke" d="
  M 73.70 162.00
  Q 64.82 156.97 56.83 156.77
  Q 53.96 156.70 50.97 160.08
  A 0.37 0.37 0.0 0 1 50.35 159.96
  C 50.18 159.48 50.34 158.60 50.10 157.78
  C 49.05 154.13 44.45 151.11 41.46 149.06"
/>
<path stroke="#e89072" vector-effect="non-scaling-stroke" d="
  M 41.46 149.06
  Q 40.89 143.43 37.19 138.28"
/>
<path stroke="#e8976b" vector-effect="non-scaling-stroke" d="
  M 37.19 138.28
  Q 40.20 142.00 43.06 145.71
  Q 46.48 150.14 55.40 153.96
  A 0.28 0.28 0.0 0 1 55.31 154.49
  Q 54.93 154.52 54.55 154.20
  A 0.33 0.33 0.0 0 0 54.02 154.51
  L 54.08 154.77"
/>
<path stroke="#e89072" vector-effect="non-scaling-stroke" d="
  M 54.08 154.77
  Q 52.27 153.90 50.78 154.04
  A 0.30 0.30 0.0 0 0 50.74 154.63
  L 54.77 155.55"
/>
<path stroke="#e8976b" vector-effect="non-scaling-stroke" d="
  M 54.77 155.55
  Q 65.09 156.35 73.88 161.41
  A 0.80 0.79 -48.2 0 0 74.75 161.36
  L 80.97 156.89"
/>
<path stroke="#e7805e" vector-effect="non-scaling-stroke" d="
  M 80.97 156.89
  Q 89.14 149.63 94.38 142.62
  Q 96.97 139.15 98.67 137.53
  A 2.45 2.43 82.6 0 0 99.12 136.94
  L 103.59 128.73"
/>
<path stroke="#e57e72" vector-effect="non-scaling-stroke" d="
  M 135.40 131.18
  Q 134.43 134.56 131.71 137.98
  A 1.17 1.17 0.0 0 0 132.91 139.84
  L 135.65 139.16
  A 2.94 2.90 15.7 0 0 136.97 138.43
  C 142.83 132.84 145.19 123.77 145.62 115.86
  Q 145.85 111.65 143.22 107.53"
/>
<path stroke="#f4bd9b" vector-effect="non-scaling-stroke" d="
  M 49.26 136.22
  Q 49.77 139.26 52.79 142.21
  C 54.79 144.17 55.92 144.61 58.34 144.81
  Q 59.81 144.94 60.30 144.34
  A 2.02 1.96 -50.9 0 0 60.05 141.52
  Q 55.18 137.60 50.58 134.43"
/>
<path stroke="#e6d4c9" vector-effect="non-scaling-stroke" d="
  M 106.54 164.62
  L 100.71 164.78"
/>
<path stroke="#e7cebf" vector-effect="non-scaling-stroke" d="
  M 100.71 164.78
  L 95.96 164.86"
/>
<path stroke="#eac4b7" vector-effect="non-scaling-stroke" d="
  M 100.71 164.78
  L 139.29 166.44"
/>
<path stroke="#eabba4" vector-effect="non-scaling-stroke" d="
  M 139.29 166.44
  Q 131.85 166.87 124.39 166.90
  L 124.39 166.91
  A 0.01 0.01 0.0 0 0 124.40 166.92
  Q 129.00 167.15 133.61 167.33
  L 133.61 167.34
  A 0.02 0.01 -6.3 0 1 133.59 167.35
  Q 122.52 167.62 111.47 166.34
  A 0.03 0.03 0.0 0 1 111.46 166.28
  Q 111.57 166.23 111.75 166.25
  Q 117.02 166.57 123.84 166.63
  A 0.11 0.11 0.0 0 0 123.80 166.43
  Q 108.69 165.89 94.00 165.68
  Q 88.04 165.59 76.21 166.48"
/>
<path stroke="#ecb396" vector-effect="non-scaling-stroke" d="
  M 76.21 166.48
  L 66.73 167.22"
/>
<path stroke="#e78667" vector-effect="non-scaling-stroke" d="
  M 110.05 104.36
  Q 107.26 112.60 105.98 121.24
  Q 105.64 123.57 103.59 128.73"
/>
<path stroke="#ea7d47" vector-effect="non-scaling-stroke" d="
  M 103.59 128.73
  C 93.37 126.10 87.80 118.86 82.38 110.03
  A 0.19 0.19 0.0 0 0 82.03 110.09
  Q 81.62 112.24 80.22 113.45"
/>
<path stroke="#f2cbc8" vector-effect="non-scaling-stroke" d="
  M 104.04 151.63
  Q 107.79 156.60 113.02 159.93"
/>
<path stroke="#fefbf3" vector-effect="non-scaling-stroke" d="
  M 113.02 159.93
  Q 114.41 161.39 116.20 162.27
  Q 116.33 162.33 116.99 163.20
  Q 117.07 163.30 117.18 163.43
  A 0.14 0.14 0.0 0 1 117.07 163.66
  C 110.15 163.51 106.51 162.89 100.14 161.43
  C 97.64 160.86 93.07 160.61 91.39 161.01
  Q 84.33 162.72 76.50 163.20
  A 0.47 0.46 27.7 0 1 76.23 162.34
  Q 80.85 159.55 83.97 155.26"
/>
<path stroke="#d09184" vector-effect="non-scaling-stroke" d="
  M 143.87 159.31
  Q 146.38 156.38 148.92 153.87
  A 0.79 0.79 0.0 0 0 148.85 152.67
  Q 148.72 152.57 148.30 152.70
  C 146.83 153.19 145.29 155.30 143.81 156.31
  Q 141.27 158.04 137.67 160.73
  A 0.36 0.36 0.0 0 0 137.91 161.37
  L 140.44 161.19"
/>
<path stroke="#f1c7bc" vector-effect="non-scaling-stroke" d="
  M 140.44 161.19
  Q 138.29 162.70 136.07 162.61
  A 0.44 0.43 76.2 0 1 135.71 162.39
  Q 135.30 161.69 136.34 160.82"
/>
<path stroke="#e7b0a9" vector-effect="non-scaling-stroke" d="
  M 136.34 160.82
  Q 137.07 160.42 137.49 159.97"
/>
<path stroke="#e8aa9f" vector-effect="non-scaling-stroke" d="
  M 137.49 159.97
  C 141.33 157.45 145.53 154.59 147.91 150.58
  A 0.84 0.83 -46.6 0 0 147.89 149.68
  C 146.26 147.24 142.58 149.79 139.85 151.01
  C 134.50 153.40 128.84 153.96 123.03 153.01"
/>
<path stroke="#e79f93" vector-effect="non-scaling-stroke" d="
  M 123.03 153.01
  L 133.34 152.90"
/>
<path stroke="#e49088" vector-effect="non-scaling-stroke" d="
  M 133.34 152.90
  L 138.34 151.54
  A 0.18 0.17 76.4 0 0 138.46 151.33
  A 0.10 0.09 73.5 0 0 138.35 151.26
  Q 119.80 155.40 107.57 140.50
  A 0.22 0.22 0.0 0 1 107.88 140.18
  C 114.72 145.59 125.19 153.21 134.55 150.21
  C 140.73 148.23 145.82 141.08 148.61 135.35
  C 153.95 124.44 155.94 114.91 151.42 102.96
  Q 149.58 98.08 145.22 97.27"
/>
<path stroke="#f0ebdb" vector-effect="non-scaling-stroke" d="
  M 115.98 161.06
  Q 117.99 158.59 119.95 158.72
  Q 125.94 159.11 131.79 158.53"
/>
<path stroke="#f3e1d4" vector-effect="non-scaling-stroke" d="
  M 46.19 172.48
  L 60.70 173.22"
/>
<path stroke="#f0ebdb" vector-effect="non-scaling-stroke" d="
  M 60.70 173.22
  Q 83.63 174.85 98.75 174.56
  Q 107.75 174.38 152.15 172.52
  Q 157.22 172.31 163.08 170.62
  A 0.45 0.44 47.8 0 0 163.12 169.78
  L 153.25 165.90
  A 0.75 0.72 55.6 0 0 152.96 165.84
  Q 144.41 166.03 136.64 165.13
  C 129.34 164.29 121.91 164.75 114.46 165.06"
/>
<path stroke="#f3e1d4" vector-effect="non-scaling-stroke" d="
  M 114.46 165.06
  L 106.54 164.62"
/>
<path stroke="#f0ebdb" vector-effect="non-scaling-stroke" d="
  M 106.54 164.62
  Q 90.00 164.02 73.78 164.90
  A 0.69 0.69 0.0 0 1 73.25 163.72
  L 74.70 162.24"
/>
<path stroke="#ebb3a1" vector-effect="non-scaling-stroke" d="
  M 123.03 153.01
  C 116.69 151.54 111.28 148.22 105.65 145.18
  A 0.39 0.39 0.0 0 0 105.11 145.67
  Q 107.66 151.81 112.60 156.74"
/>
<path stroke="#e79f93" vector-effect="non-scaling-stroke" d="
  M 112.60 156.74
  L 103.63 147.86
  A 0.26 0.26 0.0 0 0 103.19 148.11
  L 104.04 151.63"
/>
<path stroke="#f5d4ca" vector-effect="non-scaling-stroke" d="
  M 104.04 151.63
  L 98.75 140.55
  A 0.75 0.75 0.0 0 0 97.87 140.15
  Q 97.33 140.30 96.76 140.76"
/>
<path stroke="#eac4b7" vector-effect="non-scaling-stroke" d="
  M 38.25 166.28
  Q 37.97 170.45 46.63 171.02
  Q 60.30 171.91 74.00 171.95
  Q 108.11 172.07 142.20 171.02
  Q 145.62 170.92 149.40 170.47"
/>
<path stroke="#e9c2ae" vector-effect="non-scaling-stroke" d="
  M 149.40 170.47
  Q 150.26 170.66 151.12 170.32
  A 0.36 0.36 0.0 0 0 151.26 169.74
  C 148.69 166.91 143.55 166.63 139.29 166.44"
/>
<path stroke="#eba889" vector-effect="non-scaling-stroke" d="
  M 78.44 167.12
  L 84.56 168.44
  A 0.20 0.20 0.0 0 1 84.61 168.81
  C 78.67 171.84 70.18 170.50 63.21 169.74
  A 0.26 0.26 0.0 0 1 63.21 169.23
  L 75.78 167.64
  A 0.20 0.19 -7.7 0 0 75.95 167.43
  L 75.95 167.42
  A 0.20 0.19 -1.5 0 0 75.75 167.24
  C 70.36 167.45 65.11 168.21 59.54 167.46"
/>
<path stroke="#eab197" vector-effect="non-scaling-stroke" d="
  M 149.40 170.47
  C 145.41 166.14 138.18 167.59 131.23 167.84
  C 121.34 168.19 110.71 166.96 102.24 167.03
  Q 101.88 167.03 101.77 167.14
  A 0.59 0.59 0.0 0 0 101.97 168.12
  Q 107.95 170.41 114.52 170.33
  Q 125.71 170.19 136.17 169.66"
/>
<path stroke="#eabba4" vector-effect="non-scaling-stroke" d="
  M 136.17 169.66
  Q 142.21 170.52 147.61 170.63
  Q 138.48 170.75 131.71 170.59
  A 0.05 0.04 40.0 0 1 131.70 170.50
  L 132.28 170.41
  A 0.03 0.02 -31.7 0 0 132.29 170.39
  Q 132.28 170.38 132.28 170.36
  A 0.09 0.05 76.7 0 0 132.22 170.30
  Q 113.45 171.16 94.96 170.17
  Q 92.25 170.03 82.77 171.38
  Q 79.24 171.88 71.03 171.12"
/>
<path stroke="#eab197" vector-effect="non-scaling-stroke" d="
  M 71.03 171.12
  Q 78.97 171.71 86.57 169.99
  Q 87.82 169.71 87.75 168.56
  A 0.47 0.47 0.0 0 0 87.34 168.12
  L 78.44 167.12"
/>
<path stroke="#ebb18c" vector-effect="non-scaling-stroke" d="
  M 78.44 167.12
  L 76.21 166.48"
/>
<path stroke="#e7a381" vector-effect="non-scaling-stroke" d="
  M 110.45 103.08
  L 110.99 98.19"
/>
<path stroke="#e8ad8c" vector-effect="non-scaling-stroke" d="
  M 110.99 98.19
  L 111.29 96.81"
/>
<path stroke="#e8b698" vector-effect="non-scaling-stroke" d="
  M 111.29 96.81
  L 112.77 90.48"
/>
<path stroke="#e7bfa6" vector-effect="non-scaling-stroke" d="
  M 112.77 90.48
  L 113.40 85.04
  A 0.62 0.60 12.9 0 0 112.98 84.39
  Q 101.29 80.57 89.09 79.08
  A 0.51 0.51 0.0 0 0 88.51 79.52
  L 87.39 87.57"
/>
<path stroke="#e8b698" vector-effect="non-scaling-stroke" d="
  M 87.39 87.57
  L 86.53 93.91"
/>
<path stroke="#e8ad8c" vector-effect="non-scaling-stroke" d="
  M 86.53 93.91
  L 83.16 105.55"
/>
<path stroke="#e7a381" vector-effect="non-scaling-stroke" d="
  M 83.16 105.55
  L 81.64 109.32"
/>
<path stroke="#eb8c5b" vector-effect="non-scaling-stroke" d="
  M 110.99 98.19
  Q 109.79 97.83 109.11 99.60
  Q 106.10 107.44 103.16 115.53
  A 0.43 0.43 0.0 0 1 102.55 115.76
  Q 97.36 112.86 92.54 109.35
  Q 88.36 106.31 83.16 105.55"
/>
<path stroke="#e7b0a9" vector-effect="non-scaling-stroke" d="
  M 115.93 158.78
  Q 117.40 157.11 119.48 156.98"
/>
<path stroke="#e3bab1" vector-effect="non-scaling-stroke" d="
  M 119.48 156.98
  Q 117.06 158.50 115.98 161.06"
/>
<path stroke="#f1c7bc" vector-effect="non-scaling-stroke" d="
  M 115.98 161.06
  L 113.02 159.93"
/>
<path stroke="#dcc2ae" vector-effect="non-scaling-stroke" d="
  M 142.37 160.44
  L 140.44 161.19"
/>
<path stroke="#f3e1d4" vector-effect="non-scaling-stroke" d="
  M 136.34 160.82
  C 136.20 158.34 133.71 158.30 131.79 158.53"
/>
<path stroke="#e6d4c9" vector-effect="non-scaling-stroke" d="
  M 131.79 158.53
  Q 125.44 158.61 119.48 156.98"
/>
<path stroke="#e8aa9f" vector-effect="non-scaling-stroke" d="
  M 171.00 83.36
  L 168.24 92.20"
/>
<path stroke="#ebb3a1" vector-effect="non-scaling-stroke" d="
  M 168.24 92.20
  L 147.80 74.77"
/>
<path stroke="#eac4b7" vector-effect="non-scaling-stroke" d="
  M 137.49 159.97
  Q 138.13 158.99 138.26 158.05
  Q 138.41 156.85 137.37 156.43
  Q 136.24 155.97 134.49 156.54"
/>
<path stroke="#dfbeb5" vector-effect="non-scaling-stroke" d="
  M 134.49 156.54
  Q 137.91 154.59 141.10 155.11
  A 1.58 1.55 -51.8 0 0 142.01 154.99
  Q 142.81 154.64 143.36 153.94
  A 0.92 0.92 0.0 0 0 142.44 152.48
  Q 137.27 153.63 132.45 156.51"
/>
<path stroke="#eac4b7" vector-effect="non-scaling-stroke" d="
  M 132.45 156.51
  Q 125.37 156.09 118.35 155.01
  C 116.50 154.72 114.69 154.79 112.88 154.98
  A 0.33 0.33 0.0 0 0 112.73 155.58
  Q 114.58 156.79 115.93 158.78"
/>
<path stroke="#e8aa9f" vector-effect="non-scaling-stroke" d="
  M 115.93 158.78
  Q 114.18 158.10 112.60 156.74"
/>
<path stroke="#dcaba7" vector-effect="non-scaling-stroke" d="
  M 172.39 87.31
  Q 172.06 85.07 171.00 83.36"
/>
<path stroke="#dfbeb5" vector-effect="non-scaling-stroke" d="
  M 171.00 83.36
  L 170.23 79.18"
/>
<path stroke="#dec5bf" vector-effect="non-scaling-stroke" d="
  M 170.23 79.18
  L 170.79 66.42"
/>
<path stroke="#dbcfc6" vector-effect="non-scaling-stroke" d="
  M 170.79 66.42
  L 170.32 41.07
  A 1.70 1.70 0.0 0 0 168.62 39.40
  Q 165.38 39.40 162.49 41.72"
/>
<path stroke="#dec5bf" vector-effect="non-scaling-stroke" d="
  M 162.49 41.72
  Q 155.36 48.95 151.48 58.29"
/>
<path stroke="#dfbeb5" vector-effect="non-scaling-stroke" d="
  M 151.48 58.29
  L 148.53 63.07"
/>
<path stroke="#e79f93" vector-effect="non-scaling-stroke" d="
  M 168.24 92.20
  C 167.83 94.83 165.44 108.62 159.51 104.31
  Q 157.45 102.81 156.87 102.01
  Q 152.07 95.40 146.32 89.46"
/>
<path stroke="#e6d4c9" vector-effect="non-scaling-stroke" d="
  M 60.70 173.22
  Q 102.52 173.86 144.27 172.06
  Q 149.89 171.82 154.74 170.65
  A 0.94 0.94 0.0 0 0 155.40 169.43
  Q 154.67 167.29 152.23 166.97
  Q 147.11 166.30 134.50 165.44
  C 128.43 165.03 121.15 165.26 114.46 165.06"
/>
<path stroke="#e7b6a3" vector-effect="non-scaling-stroke" d="
  M 47.72 169.84
  Q 48.09 170.26 48.44 170.33"
/>
<path stroke="#e8c1b0" vector-effect="non-scaling-stroke" d="
  M 48.44 170.33
  Q 43.07 169.82 38.25 166.28"
/>
<path stroke="#e7c7ba" vector-effect="non-scaling-stroke" d="
  M 38.25 166.28
  Q 36.70 166.80 35.09 168.23
  A 1.25 1.24 27.7 0 1 34.11 168.53
  Q 32.77 168.37 31.76 167.74
  A 0.97 0.97 0.0 0 1 32.17 165.95
  L 39.46 165.21"
/>
<path stroke="#ebb3a1" vector-effect="non-scaling-stroke" d="
  M 48.44 170.33
  L 71.03 171.12"
/>
<path stroke="#ebb3a1" vector-effect="non-scaling-stroke" d="
  M 136.17 169.66
  Q 141.90 165.29 149.40 170.47"
/>
<path stroke="#ebb18c" vector-effect="non-scaling-stroke" d="
  M 112.77 90.48
  C 110.92 88.87 109.42 90.96 108.10 91.76
  C 105.94 93.09 103.51 92.42 101.43 91.21
  Q 96.32 88.23 93.24 86.54
  Q 90.45 85.02 87.39 87.57"
/>
<path stroke="#d4bdb0" vector-effect="non-scaling-stroke" d="
  M 111.38 55.51
  Q 111.47 56.30 111.32 56.83
  A 0.52 0.52 0.0 0 1 110.63 57.16
  L 108.92 56.49
  A 0.83 0.81 87.8 0 1 108.47 56.06
  Q 106.14 50.85 102.55 46.47
  Q 99.94 43.28 96.02 42.87
  C 92.78 42.52 90.79 44.84 91.45 48.01
  Q 92.76 54.39 91.00 60.64
  A 0.66 0.65 39.8 0 1 89.78 60.75
  L 86.50 54.07
  A 0.54 0.54 0.0 0 0 85.72 53.85
  Q 83.32 55.40 81.85 57.97"
/>
<path stroke="#d8b9a8" vector-effect="non-scaling-stroke" d="
  M 81.85 57.97
  Q 81.36 58.99 80.59 59.48
  A 0.73 0.73 0.0 0 1 79.70 59.39
  Q 79.35 59.07 79.08 58.41"
/>
<path stroke="#c39d8a" vector-effect="non-scaling-stroke" d="
  M 84.26 46.70
  L 82.36 52.32
  A 0.51 0.50 -80.4 0 0 82.83 52.99
  L 86.67 52.99
  A 0.79 0.76 -18.1 0 1 87.29 53.29
  L 89.52 56.26
  A 0.50 0.50 0.0 0 0 90.41 55.89
  Q 89.48 49.63 90.59 43.65
  A 0.33 0.33 0.0 0 0 90.15 43.28
  L 85.32 45.12"
/>
<path stroke="#e0c8bb" vector-effect="non-scaling-stroke" d="
  M 114.68 78.88
  Q 106.77 75.54 98.62 72.06
  C 93.72 69.97 89.09 69.04 88.23 76.00
  Q 87.67 80.51 86.53 85.15
  C 86.00 87.31 83.74 89.72 81.78 87.18
  C 79.10 83.71 79.88 77.96 79.90 73.85
  Q 79.93 65.77 81.85 57.97"
/>
<path stroke="#ec9f72" vector-effect="non-scaling-stroke" d="
  M 111.29 96.81
  L 111.74 92.31
  A 0.28 0.28 0.0 0 0 111.26 92.08
  Q 108.20 95.01 107.31 99.22
  A 0.65 0.64 7.9 0 1 106.62 99.74
  Q 96.11 98.98 86.53 93.91"
/>
<path stroke="#dec5bf" vector-effect="non-scaling-stroke" d="
  M 134.49 156.54
  Q 133.62 156.34 132.45 156.51"
/>
<path stroke="#eac4b7" vector-effect="non-scaling-stroke" d="
  M 170.23 79.18
  Q 159.79 69.67 151.48 58.29"
/>
<path stroke="#e8dbd1" vector-effect="non-scaling-stroke" d="
  M 165.43 33.85
  Q 166.13 35.23 166.31 36.40
  A 0.29 0.29 0.0 0 1 166.05 36.73
  L 156.90 37.89
  A 1.77 1.76 85.4 0 1 154.91 36.19
  L 154.82 33.25"
/>
<path stroke="#a99090" vector-effect="non-scaling-stroke" d="
  M 151.25 38.26
  L 147.99 44.12"
/>
<path stroke="#bca4a5" vector-effect="non-scaling-stroke" d="
  M 172.24 39.77
  Q 172.45 41.03 172.04 41.18
  A 0.92 0.91 -23.7 0 1 170.91 40.74
  Q 168.75 36.61 165.43 33.85"
/>
<path stroke="#d1c0ba" vector-effect="non-scaling-stroke" d="
  M 165.43 33.85
  Q 163.14 30.43 159.00 31.16
  Q 157.89 31.36 154.82 33.25"
/>
<path stroke="#bca4a5" vector-effect="non-scaling-stroke" d="
  M 154.82 33.25
  Q 153.31 33.56 152.95 35.08
  Q 152.49 37.00 151.25 38.26"
/>
<path stroke="#927578" vector-effect="non-scaling-stroke" d="
  M 151.25 38.26
  Q 151.83 35.40 153.68 32.96
  A 0.36 0.35 -60.7 0 0 153.53 32.41
  Q 153.34 32.34 153.06 32.34"
/>
<path stroke="#e6d4c9" vector-effect="non-scaling-stroke" d="
  M 170.79 66.42
  Q 164.65 54.71 162.49 41.72"
/>
<path stroke="#eab197" vector-effect="non-scaling-stroke" d="
  M 56.03 167.17
  L 48.40 167.43
  A 0.74 0.74 0.0 0 0 47.90 168.70
  L 48.52 169.32
  A 0.27 0.26 -27.2 0 1 48.37 169.77
  Q 48.05 169.83 47.72 169.84"
/>
<path stroke="#e7bfa6" vector-effect="non-scaling-stroke" d="
  M 47.72 169.84
  Q 44.05 168.94 41.14 166.68
  A 0.19 0.19 0.0 0 1 41.26 166.34
  Q 47.58 166.39 56.98 166.70
  Q 57.26 166.71 57.47 166.44
  Q 57.61 166.25 57.65 165.89
  A 0.45 0.44 80.9 0 0 57.02 165.43
  Q 54.94 166.42 52.20 165.96"
/>
<path stroke="#fefbf3" vector-effect="non-scaling-stroke" d="
  M 49.66 161.88
  Q 49.75 162.22 51.64 164.91
  A 0.46 0.45 -9.9 0 0 51.92 165.10
  Q 52.23 165.17 52.52 164.69
  A 0.45 0.45 0.0 0 0 52.45 164.14
  L 49.98 161.69
  A 0.19 0.19 0.0 0 0 49.66 161.88"
/>
<path stroke="#e4dcc0" vector-effect="non-scaling-stroke" d="
  M 27.01 37.51
  Q 31.25 38.50 36.02 37.70
  A 1.39 1.38 -11.6 0 0 37.14 36.01
  Q 35.82 30.56 31.16 31.68
  A 2.50 2.47 24.8 0 0 30.55 31.90
  C 28.23 33.13 26.67 33.78 26.39 36.63
  A 0.82 0.81 10.1 0 0 27.01 37.51"
/>
<path stroke="#ede2d5" vector-effect="non-scaling-stroke" d="
  M 104.33 52.97
  Q 102.82 44.67 94.54 44.12
  A 1.72 1.72 0.0 0 0 93.54 47.31
  Q 97.04 49.41 100.24 53.32
  A 1.59 1.58 -9.3 0 0 100.91 53.80
  Q 102.67 54.46 103.84 53.91
  A 0.86 0.86 0.0 0 0 104.33 52.97"
/>
<path stroke="#e3b4a7" vector-effect="non-scaling-stroke" d="
  M 136.11 141.29
  A 0.83 0.83 0.0 0 0 135.31 139.90
  Q 130.43 141.13 125.67 140.88
  A 0.74 0.74 0.0 0 0 124.89 141.71
  L 125.14 143.69
  A 0.98 0.97 0.8 0 0 125.97 144.53
  Q 132.16 145.37 136.11 141.29"
/>
<path stroke="#eb9354" vector-effect="non-scaling-stroke" d="
  M 41.96 151.01
  L 41.59 151.60
  A 0.19 0.19 0.0 0 0 41.66 151.86
  L 41.76 151.93
  A 7.53 0.49 31.8 0 0 48.42 155.48
  L 48.47 155.39
  A 7.53 0.49 31.8 0 0 42.33 151.01
  L 42.22 150.95
  A 0.19 0.19 0.0 0 0 41.96 151.01"
/>
<path stroke="#eb8e4b" vector-effect="non-scaling-stroke" d="
  M 45.14 157.02
  L 49.19 157.95
  A 0.21 0.21 0.0 0 0 49.45 157.79
  L 49.47 157.69
  A 1.10 0.94 13.0 0 0 48.61 156.52
  L 46.29 155.99
  A 1.10 0.94 13.0 0 0 45.01 156.66
  L 44.98 156.76
  A 0.21 0.21 0.0 0 0 45.14 157.02"
/>
<path stroke="#a3888c" stroke-opacity="0.510" vector-effect="non-scaling-stroke" d="
  M 164.45 191.50
  Q 164.81 191.40 165.04 191.16"
/>
</g>
<path fill="#3e4d5d" fill-opacity="0.016" d="
  M 25.92 0.00
  Q 21.90 2.74 17.59 5.07
  Q 13.51 7.27 8.56 12.81
  Q 5.36 16.40 0.00 26.72
  L 0.00 0.00
  L 25.92 0.00
  Z"
/>
<path fill="#ffffff" d="
  M 164.92 0.00
  Q 170.21 2.53 175.30 5.92
  Q 182.39 10.64 186.95 17.83
  Q 189.84 22.37 192.00 27.01
  L 192.00 164.88
  Q 190.95 166.46 188.20 171.70
  C 183.29 181.05 175.49 186.45 165.04 191.16
  Q 164.59 190.85 164.45 191.50
  Q 163.74 191.64 163.29 192.00
  L 27.73 192.00
  Q 21.76 188.70 15.75 185.25
  Q 11.95 183.08 8.15 178.37
  Q 6.31 176.10 3.92 171.70
  Q 2.02 168.20 0.00 164.80
  L 0.00 26.72
  Q 5.36 16.40 8.56 12.81
  Q 13.51 7.27 17.59 5.07
  Q 21.90 2.74 25.92 0.00
  L 164.92 0.00
  Z
  M 30.07 30.18
  Q 21.11 31.16 18.70 39.17
  Q 18.25 40.00 18.09 41.56
  Q 17.78 42.59 17.68 46.50
  Q 17.23 64.67 18.16 77.46
  L 19.42 89.24
  L 20.12 94.00
  L 21.20 100.75
  L 23.45 111.46
  Q 26.47 123.43 30.19 133.31
  Q 32.28 138.86 36.19 144.29
  L 39.99 151.74
  C 42.02 156.36 45.06 157.92 49.81 160.98
  Q 53.06 162.89 56.70 164.14
  Q 58.26 164.68 58.82 166.09
  A 0.68 0.67 -12.5 0 0 59.49 166.51
  L 64.08 166.25
  L 70.36 165.07
  L 66.73 167.22
  L 59.54 167.46
  L 56.03 167.17
  Q 57.43 167.30 57.86 166.81
  A 1.32 1.26 33.9 0 0 57.43 164.84
  Q 56.78 164.50 53.97 163.54
  A 0.25 0.24 -6.3 0 0 53.68 163.90
  Q 53.89 164.25 55.17 165.11
  A 0.43 0.43 0.0 0 1 54.94 165.90
  L 52.20 165.96
  L 51.25 165.82
  Q 51.86 165.51 52.44 165.16
  Q 52.48 165.13 52.43 165.16
  Q 51.83 165.45 51.25 165.82
  L 39.46 165.21
  L 28.00 166.10
  A 0.37 0.37 0.0 0 0 27.82 166.78
  C 33.07 170.42 38.99 171.62 46.19 172.48
  Q 35.32 171.55 25.76 167.37
  A 1.02 1.02 0.0 0 1 26.04 165.43
  L 29.00 165.05
  A 0.18 0.18 0.0 0 0 28.97 164.69
  Q 26.66 164.73 25.11 165.72
  A 0.99 0.99 0.0 0 0 24.96 167.28
  C 27.28 169.44 31.35 170.42 34.90 171.60
  A 0.08 0.05 31.6 0 1 34.95 171.71
  Q 34.90 171.74 34.87 171.73
  C 31.05 171.00 24.94 169.81 21.93 167.14
  A 0.99 0.99 0.0 0 1 22.11 165.53
  C 25.55 163.67 31.29 164.05 36.00 164.04
  Q 36.08 164.04 36.13 164.01
  A 0.09 0.04 -40.6 0 0 36.18 163.90
  C 31.26 163.18 19.58 161.97 15.77 164.61
  A 1.06 1.06 0.0 0 0 15.65 166.26
  Q 17.09 167.62 19.06 168.36
  C 30.69 172.73 41.33 175.08 55.03 175.85
  Q 63.64 176.33 74.09 177.29
  Q 85.38 178.33 115.62 178.31
  C 124.53 178.31 136.45 177.30 145.76 176.99
  C 148.87 176.89 169.24 174.97 167.76 169.89
  C 166.56 165.77 156.68 165.14 153.02 165.17
  Q 145.10 165.22 136.48 164.92
  A 0.37 0.37 0.0 0 1 136.30 164.24
  L 142.37 160.44
  L 143.87 159.31
  Q 147.20 157.00 150.12 153.12
  Q 162.39 136.79 166.94 117.49
  C 169.31 107.43 171.76 97.69 172.39 87.31
  Q 174.79 66.62 173.23 44.75
  Q 173.01 41.80 172.24 39.77
  Q 171.40 34.00 166.73 31.51
  Q 159.60 27.73 153.06 32.34
  Q 146.18 37.54 147.99 44.12
  Q 148.99 46.70 148.91 50.50
  Q 148.79 56.75 148.53 63.07
  L 147.80 74.77
  L 146.32 89.46
  L 145.22 97.27
  L 143.22 107.53
  Q 140.93 119.98 135.40 131.18
  Q 132.17 137.44 129.89 139.15
  Q 128.10 140.50 126.66 139.09
  Q 121.74 134.30 115.90 125.09
  C 113.98 122.06 112.99 118.75 111.08 116.14
  Q 109.86 114.48 109.71 112.02
  Q 109.49 108.32 110.05 104.36
  L 110.45 103.08
  L 113.75 90.51
  A 0.88 0.08 -84.8 0 1 113.77 90.40
  L 114.68 78.88
  Q 115.70 66.82 111.38 55.51
  Q 107.94 43.03 96.41 41.09
  Q 89.85 39.99 85.32 45.12
  L 84.26 46.70
  C 81.65 48.23 79.87 55.18 79.08 58.41
  Q 76.80 76.05 78.14 93.51
  C 78.42 97.28 79.43 99.83 81.01 102.84
  C 82.35 105.39 80.95 107.10 81.64 109.32
  L 80.22 113.45
  Q 79.54 114.55 78.94 116.92
  A 2.53 2.47 67.6 0 1 78.71 117.49
  L 70.32 132.55
  L 62.50 140.12
  A 0.82 0.82 0.0 0 1 61.16 139.81
  Q 60.69 138.51 59.73 137.24
  Q 52.80 128.06 49.82 116.62
  L 46.52 103.15
  L 45.20 94.71
  L 43.93 83.76
  L 43.20 75.97
  Q 41.96 60.20 42.44 43.63
  Q 44.64 35.61 37.59 31.67
  Q 34.00 29.66 30.07 30.18
  Z
  M 49.66 161.88
  Q 49.75 162.22 51.64 164.91
  A 0.46 0.45 -9.9 0 0 51.92 165.10
  Q 52.23 165.17 52.52 164.69
  A 0.45 0.45 0.0 0 0 52.45 164.14
  L 49.98 161.69
  A 0.19 0.19 0.0 0 0 49.66 161.88
  Z"
/>
<path fill="#3e4d5d" fill-opacity="0.016" d="
  M 192.00 0.00
  L 192.00 27.01
  Q 189.84 22.37 186.95 17.83
  Q 182.39 10.64 175.30 5.92
  Q 170.21 2.53 164.92 0.00
  L 192.00 0.00
  Z"
/>
<path fill="#cac09a" d="
  M 42.44 43.63
  Q 31.49 39.40 18.09 41.56
  Q 18.25 40.00 18.70 39.17
  Q 18.65 39.92 18.81 40.47
  A 0.71 0.70 75.1 0 0 19.64 40.96
  L 21.33 40.57
  A 1.38 1.38 0.0 0 0 22.08 40.12
  C 23.40 38.55 25.71 36.61 26.83 33.45
  A 0.90 0.90 0.0 0 1 27.51 32.86
  Q 28.93 32.58 30.86 31.13
  A 0.29 0.29 0.0 0 0 30.83 30.65
  L 30.07 30.18
  Q 34.00 29.66 37.59 31.67
  Q 44.64 35.61 42.44 43.63
  Z
  M 27.01 37.51
  Q 31.25 38.50 36.02 37.70
  A 1.39 1.38 -11.6 0 0 37.14 36.01
  Q 35.82 30.56 31.16 31.68
  A 2.50 2.47 24.8 0 0 30.55 31.90
  C 28.23 33.13 26.67 33.78 26.39 36.63
  A 0.82 0.81 10.1 0 0 27.01 37.51
  Z"
/>
<path fill="#a5898d" d="
  M 172.24 39.77
  Q 172.45 41.03 172.04 41.18
  A 0.92 0.91 -23.7 0 1 170.91 40.74
  Q 168.75 36.61 165.43 33.85
  Q 163.14 30.43 159.00 31.16
  Q 157.89 31.36 154.82 33.25
  Q 153.31 33.56 152.95 35.08
  Q 152.49 37.00 151.25 38.26
  Q 151.83 35.40 153.68 32.96
  A 0.36 0.35 -60.7 0 0 153.53 32.41
  Q 153.34 32.34 153.06 32.34
  Q 159.60 27.73 166.73 31.51
  Q 171.40 34.00 172.24 39.77
  Z"
/>
<path fill="#eca458" d="
  M 30.07 30.18
  L 30.83 30.65
  A 0.29 0.29 0.0 0 1 30.86 31.13
  Q 28.93 32.58 27.51 32.86
  A 0.90 0.90 0.0 0 0 26.83 33.45
  C 25.71 36.61 23.40 38.55 22.08 40.12
  A 1.38 1.38 0.0 0 1 21.33 40.57
  L 19.64 40.96
  A 0.71 0.70 75.1 0 1 18.81 40.47
  Q 18.65 39.92 18.70 39.17
  Q 21.11 31.16 30.07 30.18
  Z"
/>
<path fill="#fdf7e6" d="
  M 165.43 33.85
  Q 166.13 35.23 166.31 36.40
  A 0.29 0.29 0.0 0 1 166.05 36.73
  L 156.90 37.89
  A 1.77 1.76 85.4 0 1 154.91 36.19
  L 154.82 33.25
  Q 157.89 31.36 159.00 31.16
  Q 163.14 30.43 165.43 33.85
  Z"
/>
<path fill="#fdf7e6" d="
  M 26.39 36.63
  C 26.67 33.78 28.23 33.13 30.55 31.90
  A 2.50 2.47 24.8 0 1 31.16 31.68
  Q 35.82 30.56 37.14 36.01
  A 1.39 1.38 -11.6 0 1 36.02 37.70
  Q 31.25 38.50 27.01 37.51
  A 0.82 0.81 10.1 0 1 26.39 36.63
  Z"
/>
<path fill="#7f6163" d="
  M 153.06 32.34
  Q 153.34 32.34 153.53 32.41
  A 0.36 0.35 -60.7 0 1 153.68 32.96
  Q 151.83 35.40 151.25 38.26
  L 147.99 44.12
  Q 146.18 37.54 153.06 32.34
  Z"
/>
<path fill="#d3bfbc" d="
  M 154.82 33.25
  L 154.91 36.19
  A 1.77 1.76 85.4 0 0 156.90 37.89
  L 166.05 36.73
  A 0.29 0.29 0.0 0 0 166.31 36.40
  Q 166.13 35.23 165.43 33.85
  Q 168.75 36.61 170.91 40.74
  A 0.92 0.91 -23.7 0 0 172.04 41.18
  Q 172.45 41.03 172.24 39.77
  Q 173.01 41.80 173.23 44.75
  Q 174.79 66.62 172.39 87.31
  Q 172.06 85.07 171.00 83.36
  L 170.23 79.18
  L 170.79 66.42
  L 170.32 41.07
  A 1.70 1.70 0.0 0 0 168.62 39.40
  Q 165.38 39.40 162.49 41.72
  Q 155.36 48.95 151.48 58.29
  L 148.53 63.07
  Q 148.79 56.75 148.91 50.50
  Q 148.99 46.70 147.99 44.12
  L 151.25 38.26
  Q 152.49 37.00 152.95 35.08
  Q 153.31 33.56 154.82 33.25
  Z"
/>
<path fill="#e2ded0" d="
  M 170.79 66.42
  Q 164.65 54.71 162.49 41.72
  Q 165.38 39.40 168.62 39.40
  A 1.70 1.70 0.0 0 1 170.32 41.07
  L 170.79 66.42
  Z"
/>
<path fill="#e2ded0" d="
  M 42.44 43.63
  Q 41.96 60.20 43.20 75.97
  L 41.99 73.51
  L 41.28 60.51
  A 0.34 0.34 0.0 0 0 40.79 60.23
  Q 28.36 66.93 18.16 77.46
  Q 17.23 64.67 17.68 46.50
  Q 17.78 42.59 18.09 41.56
  Q 31.49 39.40 42.44 43.63
  Z"
/>
<path fill="#cbad9d" d="
  M 111.38 55.51
  Q 111.47 56.30 111.32 56.83
  A 0.52 0.52 0.0 0 1 110.63 57.16
  L 108.92 56.49
  A 0.83 0.81 87.8 0 1 108.47 56.06
  Q 106.14 50.85 102.55 46.47
  Q 99.94 43.28 96.02 42.87
  C 92.78 42.52 90.79 44.84 91.45 48.01
  Q 92.76 54.39 91.00 60.64
  A 0.66 0.65 39.8 0 1 89.78 60.75
  L 86.50 54.07
  A 0.54 0.54 0.0 0 0 85.72 53.85
  Q 83.32 55.40 81.85 57.97
  Q 81.36 58.99 80.59 59.48
  A 0.73 0.73 0.0 0 1 79.70 59.39
  Q 79.35 59.07 79.08 58.41
  C 79.87 55.18 81.65 48.23 84.26 46.70
  L 82.36 52.32
  A 0.51 0.50 -80.4 0 0 82.83 52.99
  L 86.67 52.99
  A 0.79 0.76 -18.1 0 1 87.29 53.29
  L 89.52 56.26
  A 0.50 0.50 0.0 0 0 90.41 55.89
  Q 89.48 49.63 90.59 43.65
  A 0.33 0.33 0.0 0 0 90.15 43.28
  L 85.32 45.12
  Q 89.85 39.99 96.41 41.09
  Q 107.94 43.03 111.38 55.51
  Z"
/>
<path fill="#e9cac1" d="
  M 162.49 41.72
  Q 164.65 54.71 170.79 66.42
  L 170.23 79.18
  Q 159.79 69.67 151.48 58.29
  Q 155.36 48.95 162.49 41.72
  Z"
/>
<path fill="#bb8c76" d="
  M 84.26 46.70
  L 85.32 45.12
  L 90.15 43.28
  A 0.33 0.33 0.0 0 1 90.59 43.65
  Q 89.48 49.63 90.41 55.89
  A 0.50 0.50 0.0 0 1 89.52 56.26
  L 87.29 53.29
  A 0.79 0.76 -18.1 0 0 86.67 52.99
  L 82.83 52.99
  A 0.51 0.50 -80.4 0 1 82.36 52.32
  L 84.26 46.70
  Z"
/>
<path fill="#dcccc3" d="
  M 111.38 55.51
  Q 115.70 66.82 114.68 78.88
  Q 106.77 75.54 98.62 72.06
  C 93.72 69.97 89.09 69.04 88.23 76.00
  Q 87.67 80.51 86.53 85.15
  C 86.00 87.31 83.74 89.72 81.78 87.18
  C 79.10 83.71 79.88 77.96 79.90 73.85
  Q 79.93 65.77 81.85 57.97
  Q 83.32 55.40 85.72 53.85
  A 0.54 0.54 0.0 0 1 86.50 54.07
  L 89.78 60.75
  A 0.66 0.65 39.8 0 0 91.00 60.64
  Q 92.76 54.39 91.45 48.01
  C 90.79 44.84 92.78 42.52 96.02 42.87
  Q 99.94 43.28 102.55 46.47
  Q 106.14 50.85 108.47 56.06
  A 0.83 0.81 87.8 0 0 108.92 56.49
  L 110.63 57.16
  A 0.52 0.52 0.0 0 0 111.32 56.83
  Q 111.47 56.30 111.38 55.51
  Z
  M 104.33 52.97
  Q 102.82 44.67 94.54 44.12
  A 1.72 1.72 0.0 0 0 93.54 47.31
  Q 97.04 49.41 100.24 53.32
  A 1.59 1.58 -9.3 0 0 100.91 53.80
  Q 102.67 54.46 103.84 53.91
  A 0.86 0.86 0.0 0 0 104.33 52.97
  Z"
/>
<path fill="#fdf7e6" d="
  M 103.84 53.91
  Q 102.67 54.46 100.91 53.80
  A 1.59 1.58 -9.3 0 1 100.24 53.32
  Q 97.04 49.41 93.54 47.31
  A 1.72 1.72 0.0 0 1 94.54 44.12
  Q 102.82 44.67 104.33 52.97
  A 0.86 0.86 0.0 0 1 103.84 53.91
  Z"
/>
<path fill="#e4c4b2" d="
  M 81.85 57.97
  Q 79.93 65.77 79.90 73.85
  C 79.88 77.96 79.10 83.71 81.78 87.18
  C 83.74 89.72 86.00 87.31 86.53 85.15
  Q 87.67 80.51 88.23 76.00
  C 89.09 69.04 93.72 69.97 98.62 72.06
  Q 106.77 75.54 114.68 78.88
  L 113.77 90.40
  A 0.88 0.08 -84.8 0 0 113.75 90.51
  L 110.45 103.08
  L 110.99 98.19
  L 111.29 96.81
  L 112.77 90.48
  L 113.40 85.04
  A 0.62 0.60 12.9 0 0 112.98 84.39
  Q 101.29 80.57 89.09 79.08
  A 0.51 0.51 0.0 0 0 88.51 79.52
  L 87.39 87.57
  L 86.53 93.91
  L 83.16 105.55
  L 81.64 109.32
  C 80.95 107.10 82.35 105.39 81.01 102.84
  C 79.43 99.83 78.42 97.28 78.14 93.51
  Q 76.80 76.05 79.08 58.41
  Q 79.35 59.07 79.70 59.39
  A 0.73 0.73 0.0 0 0 80.59 59.48
  Q 81.36 58.99 81.85 57.97
  Z"
/>
<path fill="#ebbdad" d="
  M 151.48 58.29
  Q 159.79 69.67 170.23 79.18
  L 171.00 83.36
  L 168.24 92.20
  L 147.80 74.77
  L 148.53 63.07
  L 151.48 58.29
  Z"
/>
<path fill="#e7d9ba" d="
  M 41.99 73.51
  Q 29.46 79.60 19.42 89.24
  L 18.16 77.46
  Q 28.36 66.93 40.79 60.23
  A 0.34 0.34 0.0 0 1 41.28 60.51
  L 41.99 73.51
  Z"
/>
<path fill="#e8d0a0" d="
  M 41.99 73.51
  L 43.20 75.97
  L 43.93 83.76
  Q 38.83 84.83 33.77 87.73
  Q 31.64 88.94 29.07 89.63
  Q 23.82 91.03 20.12 94.00
  L 19.42 89.24
  Q 29.46 79.60 41.99 73.51
  Z"
/>
<path fill="#eaa894" d="
  M 168.24 92.20
  C 167.83 94.83 165.44 108.62 159.51 104.31
  Q 157.45 102.81 156.87 102.01
  Q 152.07 95.40 146.32 89.46
  L 147.80 74.77
  L 168.24 92.20
  Z"
/>
<path fill="#e9b99a" d="
  M 112.77 90.48
  C 110.92 88.87 109.42 90.96 108.10 91.76
  C 105.94 93.09 103.51 92.42 101.43 91.21
  Q 96.32 88.23 93.24 86.54
  Q 90.45 85.02 87.39 87.57
  L 88.51 79.52
  A 0.51 0.51 0.0 0 1 89.09 79.08
  Q 101.29 80.57 112.98 84.39
  A 0.62 0.60 12.9 0 1 113.40 85.04
  L 112.77 90.48
  Z"
/>
<path fill="#e8c687" d="
  M 43.93 83.76
  L 45.20 94.71
  Q 42.55 94.98 40.90 96.24
  Q 37.09 99.15 34.32 100.46
  C 29.22 102.86 25.95 101.60 21.20 100.75
  L 20.12 94.00
  Q 23.82 91.03 29.07 89.63
  Q 31.64 88.94 33.77 87.73
  Q 38.83 84.83 43.93 83.76
  Z"
/>
<path fill="#e49691" d="
  M 172.39 87.31
  C 171.76 97.69 169.31 107.43 166.94 117.49
  Q 162.39 136.79 150.12 153.12
  Q 147.20 157.00 143.87 159.31
  Q 146.38 156.38 148.92 153.87
  A 0.79 0.79 0.0 0 0 148.85 152.67
  Q 148.72 152.57 148.30 152.70
  C 146.83 153.19 145.29 155.30 143.81 156.31
  Q 141.27 158.04 137.67 160.73
  A 0.36 0.36 0.0 0 0 137.91 161.37
  L 140.44 161.19
  Q 138.29 162.70 136.07 162.61
  A 0.44 0.43 76.2 0 1 135.71 162.39
  Q 135.30 161.69 136.34 160.82
  Q 137.07 160.42 137.49 159.97
  C 141.33 157.45 145.53 154.59 147.91 150.58
  A 0.84 0.83 -46.6 0 0 147.89 149.68
  C 146.26 147.24 142.58 149.79 139.85 151.01
  C 134.50 153.40 128.84 153.96 123.03 153.01
  L 133.34 152.90
  L 138.34 151.54
  A 0.18 0.17 76.4 0 0 138.46 151.33
  A 0.10 0.09 73.5 0 0 138.35 151.26
  Q 119.80 155.40 107.57 140.50
  A 0.22 0.22 0.0 0 1 107.88 140.18
  C 114.72 145.59 125.19 153.21 134.55 150.21
  C 140.73 148.23 145.82 141.08 148.61 135.35
  C 153.95 124.44 155.94 114.91 151.42 102.96
  Q 149.58 98.08 145.22 97.27
  L 146.32 89.46
  Q 152.07 95.40 156.87 102.01
  Q 157.45 102.81 159.51 104.31
  C 165.44 108.62 167.83 94.83 168.24 92.20
  L 171.00 83.36
  Q 172.06 85.07 172.39 87.31
  Z"
/>
<path fill="#eca87e" d="
  M 112.77 90.48
  L 111.29 96.81
  L 111.74 92.31
  A 0.28 0.28 0.0 0 0 111.26 92.08
  Q 108.20 95.01 107.31 99.22
  A 0.65 0.64 7.9 0 1 106.62 99.74
  Q 96.11 98.98 86.53 93.91
  L 87.39 87.57
  Q 90.45 85.02 93.24 86.54
  Q 96.32 88.23 101.43 91.21
  C 103.51 92.42 105.94 93.09 108.10 91.76
  C 109.42 90.96 110.92 88.87 112.77 90.48
  Z"
/>
<path fill="#ec9666" d="
  M 111.29 96.81
  L 110.99 98.19
  Q 109.79 97.83 109.11 99.60
  Q 106.10 107.44 103.16 115.53
  A 0.43 0.43 0.0 0 1 102.55 115.76
  Q 97.36 112.86 92.54 109.35
  Q 88.36 106.31 83.16 105.55
  L 86.53 93.91
  Q 96.11 98.98 106.62 99.74
  A 0.65 0.64 7.9 0 0 107.31 99.22
  Q 108.20 95.01 111.26 92.08
  A 0.28 0.28 0.0 0 1 111.74 92.31
  L 111.29 96.81
  Z"
/>
<path fill="#eab96e" d="
  M 45.20 94.71
  L 46.52 103.15
  C 39.84 110.33 34.12 111.68 24.66 109.03
  Q 23.14 107.12 23.45 111.46
  L 21.20 100.75
  C 25.95 101.60 29.22 102.86 34.32 100.46
  Q 37.09 99.15 40.90 96.24
  Q 42.55 94.98 45.20 94.71
  Z"
/>
<path fill="#ea8250" d="
  M 110.99 98.19
  L 110.45 103.08
  L 110.05 104.36
  Q 107.26 112.60 105.98 121.24
  Q 105.64 123.57 103.59 128.73
  C 93.37 126.10 87.80 118.86 82.38 110.03
  A 0.19 0.19 0.0 0 0 82.03 110.09
  Q 81.62 112.24 80.22 113.45
  L 81.64 109.32
  L 83.16 105.55
  Q 88.36 106.31 92.54 109.35
  Q 97.36 112.86 102.55 115.76
  A 0.43 0.43 0.0 0 0 103.16 115.53
  Q 106.10 107.44 109.11 99.60
  Q 109.79 97.83 110.99 98.19
  Z"
/>
<path fill="#e4897e" d="
  M 133.34 152.90
  C 124.26 153.11 117.83 150.55 110.61 145.16
  C 107.10 142.53 102.60 140.73 98.48 139.00
  A 0.84 0.84 0.0 0 0 97.57 139.16
  Q 96.92 139.78 96.76 140.76
  L 83.97 155.26
  L 74.70 162.24
  Q 74.13 162.31 73.98 162.48
  Q 73.75 162.31 73.70 162.00
  Q 64.82 156.97 56.83 156.77
  Q 53.96 156.70 50.97 160.08
  A 0.37 0.37 0.0 0 1 50.35 159.96
  C 50.18 159.48 50.34 158.60 50.10 157.78
  C 49.05 154.13 44.45 151.11 41.46 149.06
  Q 40.89 143.43 37.19 138.28
  Q 40.20 142.00 43.06 145.71
  Q 46.48 150.14 55.40 153.96
  A 0.28 0.28 0.0 0 1 55.31 154.49
  Q 54.93 154.52 54.55 154.20
  A 0.33 0.33 0.0 0 0 54.02 154.51
  L 54.08 154.77
  Q 52.27 153.90 50.78 154.04
  A 0.30 0.30 0.0 0 0 50.74 154.63
  L 54.77 155.55
  Q 65.09 156.35 73.88 161.41
  A 0.80 0.79 -48.2 0 0 74.75 161.36
  L 80.97 156.89
  Q 89.14 149.63 94.38 142.62
  Q 96.97 139.15 98.67 137.53
  A 2.45 2.43 82.6 0 0 99.12 136.94
  L 103.59 128.73
  Q 105.64 123.57 105.98 121.24
  Q 107.26 112.60 110.05 104.36
  Q 109.49 108.32 109.71 112.02
  Q 109.86 114.48 111.08 116.14
  C 112.99 118.75 113.98 122.06 115.90 125.09
  Q 121.74 134.30 126.66 139.09
  Q 128.10 140.50 129.89 139.15
  Q 132.17 137.44 135.40 131.18
  Q 134.43 134.56 131.71 137.98
  A 1.17 1.17 0.0 0 0 132.91 139.84
  L 135.65 139.16
  A 2.94 2.90 15.7 0 0 136.97 138.43
  C 142.83 132.84 145.19 123.77 145.62 115.86
  Q 145.85 111.65 143.22 107.53
  L 145.22 97.27
  Q 149.58 98.08 151.42 102.96
  C 155.94 114.91 153.95 124.44 148.61 135.35
  C 145.82 141.08 140.73 148.23 134.55 150.21
  C 125.19 153.21 114.72 145.59 107.88 140.18
  A 0.22 0.22 0.0 0 0 107.57 140.50
  Q 119.80 155.40 138.35 151.26
  A 0.10 0.09 73.5 0 1 138.46 151.33
  A 0.18 0.17 76.4 0 1 138.34 151.54
  L 133.34 152.90
  Z
  M 136.11 141.29
  A 0.83 0.83 0.0 0 0 135.31 139.90
  Q 130.43 141.13 125.67 140.88
  A 0.74 0.74 0.0 0 0 124.89 141.71
  L 125.14 143.69
  A 0.98 0.97 0.8 0 0 125.97 144.53
  Q 132.16 145.37 136.11 141.29
  Z"
/>
<path fill="#eca458" d="
  M 46.52 103.15
  L 49.82 116.62
  C 47.47 122.30 49.11 128.77 50.58 134.43
  L 49.79 134.38
  A 0.64 0.63 6.1 0 0 49.13 134.91
  Q 49.03 135.54 49.26 136.22
  L 44.45 133.95
  A 0.99 0.98 7.1 0 0 43.06 135.03
  Q 44.36 141.54 47.61 148.38
  Q 52.80 153.15 60.82 154.71
  L 66.29 154.94
  Q 73.40 154.79 80.97 156.89
  L 74.75 161.36
  A 0.80 0.79 -48.2 0 1 73.88 161.41
  Q 65.09 156.35 54.77 155.55
  Q 54.48 155.00 54.08 154.77
  L 54.02 154.51
  A 0.33 0.33 0.0 0 1 54.55 154.20
  Q 54.93 154.52 55.31 154.49
  A 0.28 0.28 0.0 0 0 55.40 153.96
  Q 46.48 150.14 43.06 145.71
  Q 40.20 142.00 37.19 138.28
  Q 38.34 143.91 41.46 149.06
  C 44.45 151.11 49.05 154.13 50.10 157.78
  C 50.34 158.60 50.18 159.48 50.35 159.96
  A 0.37 0.37 0.0 0 0 50.97 160.08
  Q 53.96 156.70 56.83 156.77
  Q 64.82 156.97 73.70 162.00
  Q 68.96 160.78 64.31 159.18
  C 59.64 157.57 55.04 156.73 51.67 160.92
  A 0.35 0.35 0.0 0 0 51.78 161.46
  L 52.71 161.96
  L 49.81 160.98
  C 45.06 157.92 42.02 156.36 39.99 151.74
  Q 39.35 144.61 34.96 138.81
  Q 30.58 129.32 29.45 125.31
  Q 27.14 117.12 24.66 109.03
  C 34.12 111.68 39.84 110.33 46.52 103.15
  Z
  M 41.96 151.01
  L 41.59 151.60
  A 0.19 0.19 0.0 0 0 41.66 151.86
  L 41.76 151.93
  A 7.53 0.49 31.8 0 0 48.42 155.48
  L 48.47 155.39
  A 7.53 0.49 31.8 0 0 42.33 151.01
  L 42.22 150.95
  A 0.19 0.19 0.0 0 0 41.96 151.01
  Z
  M 45.14 157.02
  L 49.19 157.95
  A 0.21 0.21 0.0 0 0 49.45 157.79
  L 49.47 157.69
  A 1.10 0.94 13.0 0 0 48.61 156.52
  L 46.29 155.99
  A 1.10 0.94 13.0 0 0 45.01 156.66
  L 44.98 156.76
  A 0.21 0.21 0.0 0 0 45.14 157.02
  Z"
/>
<path fill="#bb8c76" d="
  M 24.66 109.03
  Q 27.14 117.12 29.45 125.31
  Q 30.58 129.32 34.96 138.81
  L 36.19 144.29
  Q 32.28 138.86 30.19 133.31
  Q 26.47 123.43 23.45 111.46
  Q 23.14 107.12 24.66 109.03
  Z"
/>
<path fill="#e67266" d="
  M 135.40 131.18
  Q 140.93 119.98 143.22 107.53
  Q 145.85 111.65 145.62 115.86
  C 145.19 123.77 142.83 132.84 136.97 138.43
  A 2.94 2.90 15.7 0 1 135.65 139.16
  L 132.91 139.84
  A 1.17 1.17 0.0 0 1 131.71 137.98
  Q 134.43 134.56 135.40 131.18
  Z"
/>
<path fill="#ea773e" d="
  M 103.59 128.73
  L 99.12 136.94
  A 2.45 2.43 82.6 0 1 98.67 137.53
  Q 96.97 139.15 94.38 142.62
  Q 89.14 149.63 80.97 156.89
  Q 73.40 154.79 66.29 154.94
  L 59.90 153.68
  A 0.21 0.21 0.0 0 0 59.68 154.00
  Q 60.04 154.55 60.82 154.71
  Q 52.80 153.15 47.61 148.38
  L 56.26 152.78
  A 0.09 0.08 -77.3 0 0 56.38 152.70
  L 56.38 152.17
  A 0.44 0.44 0.0 0 0 56.03 151.74
  Q 51.87 150.89 50.70 147.57
  A 0.31 0.31 0.0 0 1 51.21 147.25
  L 52.41 148.45
  A 0.39 0.39 0.0 0 0 53.08 148.21
  Q 53.20 146.85 54.47 145.55
  A 0.56 0.54 22.0 0 1 54.86 145.39
  L 61.10 145.39
  A 0.91 0.91 0.0 0 0 62.01 144.41
  Q 61.85 142.36 63.12 141.40
  Q 63.98 140.75 64.67 139.99
  Q 67.86 136.48 70.32 132.55
  L 78.71 117.49
  A 2.53 2.47 67.6 0 0 78.94 116.92
  Q 79.54 114.55 80.22 113.45
  Q 81.62 112.24 82.03 110.09
  A 0.19 0.19 0.0 0 1 82.38 110.03
  C 87.80 118.86 93.37 126.10 103.59 128.73
  Z"
/>
<path fill="#ea8250" d="
  M 49.82 116.62
  Q 52.80 128.06 59.73 137.24
  Q 60.69 138.51 61.16 139.81
  A 0.82 0.82 0.0 0 0 62.50 140.12
  L 70.32 132.55
  Q 67.86 136.48 64.67 139.99
  Q 63.98 140.75 63.12 141.40
  Q 61.85 142.36 62.01 144.41
  A 0.91 0.91 0.0 0 1 61.10 145.39
  L 54.86 145.39
  A 0.56 0.54 22.0 0 0 54.47 145.55
  Q 53.20 146.85 53.08 148.21
  A 0.39 0.39 0.0 0 1 52.41 148.45
  L 51.21 147.25
  A 0.31 0.31 0.0 0 0 50.70 147.57
  Q 51.87 150.89 56.03 151.74
  A 0.44 0.44 0.0 0 1 56.38 152.17
  L 56.38 152.70
  A 0.09 0.08 -77.3 0 1 56.26 152.78
  L 47.61 148.38
  Q 44.36 141.54 43.06 135.03
  A 0.99 0.98 7.1 0 1 44.45 133.95
  L 49.26 136.22
  Q 49.77 139.26 52.79 142.21
  C 54.79 144.17 55.92 144.61 58.34 144.81
  Q 59.81 144.94 60.30 144.34
  A 2.02 1.96 -50.9 0 0 60.05 141.52
  Q 55.18 137.60 50.58 134.43
  C 49.11 128.77 47.47 122.30 49.82 116.62
  Z"
/>
<path fill="#fdf7e6" d="
  M 50.58 134.43
  Q 55.18 137.60 60.05 141.52
  A 2.02 1.96 -50.9 0 1 60.30 144.34
  Q 59.81 144.94 58.34 144.81
  C 55.92 144.61 54.79 144.17 52.79 142.21
  Q 49.77 139.26 49.26 136.22
  Q 49.03 135.54 49.13 134.91
  A 0.64 0.63 6.1 0 1 49.79 134.38
  L 50.58 134.43
  Z"
/>
<path fill="#ec9666" d="
  M 37.19 138.28
  Q 40.89 143.43 41.46 149.06
  Q 38.34 143.91 37.19 138.28
  Z"
/>
<path fill="#eaa894" d="
  M 39.99 151.74
  L 36.19 144.29
  L 34.96 138.81
  Q 39.35 144.61 39.99 151.74
  Z"
/>
<path fill="#eaa894" d="
  M 133.34 152.90
  L 123.03 153.01
  C 116.69 151.54 111.28 148.22 105.65 145.18
  A 0.39 0.39 0.0 0 0 105.11 145.67
  Q 107.66 151.81 112.60 156.74
  L 103.63 147.86
  A 0.26 0.26 0.0 0 0 103.19 148.11
  L 104.04 151.63
  L 98.75 140.55
  A 0.75 0.75 0.0 0 0 97.87 140.15
  Q 97.33 140.30 96.76 140.76
  Q 96.92 139.78 97.57 139.16
  A 0.84 0.84 0.0 0 1 98.48 139.00
  C 102.60 140.73 107.10 142.53 110.61 145.16
  C 117.83 150.55 124.26 153.11 133.34 152.90
  Z"
/>
<path fill="#e2ded0" d="
  M 136.11 141.29
  Q 132.16 145.37 125.97 144.53
  A 0.98 0.97 0.8 0 1 125.14 143.69
  L 124.89 141.71
  A 0.74 0.74 0.0 0 1 125.67 140.88
  Q 130.43 141.13 135.31 139.90
  A 0.83 0.83 0.0 0 1 136.11 141.29
  Z"
/>
<path fill="#ffffff" d="
  M 104.04 151.63
  Q 107.79 156.60 113.02 159.93
  Q 114.41 161.39 116.20 162.27
  Q 116.33 162.33 116.99 163.20
  Q 117.07 163.30 117.18 163.43
  A 0.14 0.14 0.0 0 1 117.07 163.66
  C 110.15 163.51 106.51 162.89 100.14 161.43
  C 97.64 160.86 93.07 160.61 91.39 161.01
  Q 84.33 162.72 76.50 163.20
  A 0.47 0.46 27.7 0 1 76.23 162.34
  Q 80.85 159.55 83.97 155.26
  L 96.76 140.76
  Q 97.33 140.30 97.87 140.15
  A 0.75 0.75 0.0 0 1 98.75 140.55
  L 104.04 151.63
  Z"
/>
<path fill="#ebbdad" d="
  M 123.03 153.01
  C 128.84 153.96 134.50 153.40 139.85 151.01
  C 142.58 149.79 146.26 147.24 147.89 149.68
  A 0.84 0.83 -46.6 0 1 147.91 150.58
  C 145.53 154.59 141.33 157.45 137.49 159.97
  Q 138.13 158.99 138.26 158.05
  Q 138.41 156.85 137.37 156.43
  Q 136.24 155.97 134.49 156.54
  Q 137.91 154.59 141.10 155.11
  A 1.58 1.55 -51.8 0 0 142.01 154.99
  Q 142.81 154.64 143.36 153.94
  A 0.92 0.92 0.0 0 0 142.44 152.48
  Q 137.27 153.63 132.45 156.51
  Q 125.37 156.09 118.35 155.01
  C 116.50 154.72 114.69 154.79 112.88 154.98
  A 0.33 0.33 0.0 0 0 112.73 155.58
  Q 114.58 156.79 115.93 158.78
  Q 114.18 158.10 112.60 156.74
  Q 107.66 151.81 105.11 145.67
  A 0.39 0.39 0.0 0 1 105.65 145.18
  C 111.28 148.22 116.69 151.54 123.03 153.01
  Z"
/>
<path fill="#e49691" d="
  M 112.60 156.74
  Q 114.18 158.10 115.93 158.78
  Q 117.40 157.11 119.48 156.98
  Q 117.06 158.50 115.98 161.06
  L 113.02 159.93
  Q 107.79 156.60 104.04 151.63
  L 103.19 148.11
  A 0.26 0.26 0.0 0 1 103.63 147.86
  L 112.60 156.74
  Z"
/>
<path fill="#ea8250" d="
  M 41.96 151.01
  A 0.19 0.19 0.0 0 1 42.22 150.95
  L 42.33 151.01
  A 7.53 0.49 31.8 0 1 48.47 155.39
  L 48.42 155.48
  A 7.53 0.49 31.8 0 1 41.76 151.93
  L 41.66 151.86
  A 0.19 0.19 0.0 0 1 41.59 151.60
  L 41.96 151.01
  Z"
/>
<path fill="#ec9666" d="
  M 54.08 154.77
  Q 54.48 155.00 54.77 155.55
  L 50.74 154.63
  A 0.30 0.30 0.0 0 1 50.78 154.04
  Q 52.27 153.90 54.08 154.77
  Z"
/>
<path fill="#d3bfbc" d="
  M 134.49 156.54
  Q 133.62 156.34 132.45 156.51
  Q 137.27 153.63 142.44 152.48
  A 0.92 0.92 0.0 0 1 143.36 153.94
  Q 142.81 154.64 142.01 154.99
  A 1.58 1.55 -51.8 0 1 141.10 155.11
  Q 137.91 154.59 134.49 156.54
  Z"
/>
<path fill="#ea8250" d="
  M 66.29 154.94
  L 60.82 154.71
  Q 60.04 154.55 59.68 154.00
  A 0.21 0.21 0.0 0 1 59.90 153.68
  L 66.29 154.94
  Z"
/>
<path fill="#bb8c76" d="
  M 143.87 159.31
  L 142.37 160.44
  L 140.44 161.19
  L 137.91 161.37
  A 0.36 0.36 0.0 0 1 137.67 160.73
  Q 141.27 158.04 143.81 156.31
  C 145.29 155.30 146.83 153.19 148.30 152.70
  Q 148.72 152.57 148.85 152.67
  A 0.79 0.79 0.0 0 1 148.92 153.87
  Q 146.38 156.38 143.87 159.31
  Z"
/>
<path fill="#e9cac1" d="
  M 132.45 156.51
  Q 133.62 156.34 134.49 156.54
  Q 136.24 155.97 137.37 156.43
  Q 138.41 156.85 138.26 158.05
  Q 138.13 158.99 137.49 159.97
  Q 137.07 160.42 136.34 160.82
  C 136.20 158.34 133.71 158.30 131.79 158.53
  Q 125.44 158.61 119.48 156.98
  Q 117.40 157.11 115.93 158.78
  Q 114.58 156.79 112.73 155.58
  A 0.33 0.33 0.0 0 1 112.88 154.98
  C 114.69 154.79 116.50 154.72 118.35 155.01
  Q 125.37 156.09 132.45 156.51
  Z"
/>
<path fill="#fdf7e6" d="
  M 83.97 155.26
  Q 80.85 159.55 76.23 162.34
  A 0.47 0.46 27.7 0 0 76.50 163.20
  Q 84.33 162.72 91.39 161.01
  C 93.07 160.61 97.64 160.86 100.14 161.43
  C 106.51 162.89 110.15 163.51 117.07 163.66
  A 0.14 0.14 0.0 0 0 117.18 163.43
  Q 117.07 163.30 116.99 163.20
  Q 116.33 162.33 116.20 162.27
  Q 114.41 161.39 113.02 159.93
  L 115.98 161.06
  Q 117.99 158.59 119.95 158.72
  Q 125.94 159.11 131.79 158.53
  C 133.71 158.30 136.20 158.34 136.34 160.82
  Q 135.30 161.69 135.71 162.39
  A 0.44 0.43 76.2 0 0 136.07 162.61
  Q 138.29 162.70 140.44 161.19
  L 142.37 160.44
  L 136.30 164.24
  A 0.37 0.37 0.0 0 0 136.48 164.92
  Q 145.10 165.22 153.02 165.17
  C 156.68 165.14 166.56 165.77 167.76 169.89
  C 169.24 174.97 148.87 176.89 145.76 176.99
  C 136.45 177.30 124.53 178.31 115.62 178.31
  Q 85.38 178.33 74.09 177.29
  Q 63.64 176.33 55.03 175.85
  C 41.33 175.08 30.69 172.73 19.06 168.36
  Q 17.09 167.62 15.65 166.26
  A 1.06 1.06 0.0 0 1 15.77 164.61
  C 19.58 161.97 31.26 163.18 36.18 163.90
  A 0.09 0.04 -40.6 0 1 36.13 164.01
  Q 36.08 164.04 36.00 164.04
  C 31.29 164.05 25.55 163.67 22.11 165.53
  A 0.99 0.99 0.0 0 0 21.93 167.14
  C 24.94 169.81 31.05 171.00 34.87 171.73
  Q 34.90 171.74 34.95 171.71
  A 0.08 0.05 31.6 0 0 34.90 171.60
  C 31.35 170.42 27.28 169.44 24.96 167.28
  A 0.99 0.99 0.0 0 1 25.11 165.72
  Q 26.66 164.73 28.97 164.69
  A 0.18 0.18 0.0 0 1 29.00 165.05
  L 26.04 165.43
  A 1.02 1.02 0.0 0 0 25.76 167.37
  Q 35.32 171.55 46.19 172.48
  L 60.70 173.22
  Q 83.63 174.85 98.75 174.56
  Q 107.75 174.38 152.15 172.52
  Q 157.22 172.31 163.08 170.62
  A 0.45 0.44 47.8 0 0 163.12 169.78
  L 153.25 165.90
  A 0.75 0.72 55.6 0 0 152.96 165.84
  Q 144.41 166.03 136.64 165.13
  C 129.34 164.29 121.91 164.75 114.46 165.06
  L 106.54 164.62
  Q 90.00 164.02 73.78 164.90
  A 0.69 0.69 0.0 0 1 73.25 163.72
  L 74.70 162.24
  L 83.97 155.26
  Z"
/>
<path fill="#ea773e" d="
  M 45.14 157.02
  A 0.21 0.21 0.0 0 1 44.98 156.76
  L 45.01 156.66
  A 1.10 0.94 13.0 0 1 46.29 155.99
  L 48.61 156.52
  A 1.10 0.94 13.0 0 1 49.47 157.69
  L 49.45 157.79
  A 0.21 0.21 0.0 0 1 49.19 157.95
  L 45.14 157.02
  Z"
/>
<path fill="#eab96e" d="
  M 73.70 162.00
  Q 73.75 162.31 73.98 162.48
  Q 72.27 163.69 72.22 164.93
  A 0.52 0.52 0.0 0 0 72.75 165.47
  L 95.96 164.86
  L 96.86 164.98
  A 0.04 0.03 46.2 0 1 96.86 165.05
  Q 83.61 165.87 70.36 165.07
  L 64.08 166.25
  L 52.71 161.96
  L 51.78 161.46
  A 0.35 0.35 0.0 0 1 51.67 160.92
  C 55.04 156.73 59.64 157.57 64.31 159.18
  Q 68.96 160.78 73.70 162.00
  Z"
/>
<path fill="#e2ded0" d="
  M 119.48 156.98
  Q 125.44 158.61 131.79 158.53
  Q 125.94 159.11 119.95 158.72
  Q 117.99 158.59 115.98 161.06
  Q 117.06 158.50 119.48 156.98
  Z"
/>
<path fill="#e8c687" d="
  M 52.71 161.96
  L 64.08 166.25
  L 59.49 166.51
  A 0.68 0.67 -12.5 0 1 58.82 166.09
  Q 58.26 164.68 56.70 164.14
  Q 53.06 162.89 49.81 160.98
  L 52.71 161.96
  Z"
/>
<path fill="#fdf7e6" d="
  M 49.98 161.69
  L 52.45 164.14
  A 0.45 0.45 0.0 0 1 52.52 164.69
  Q 52.23 165.17 51.92 165.10
  A 0.46 0.45 -9.9 0 1 51.64 164.91
  Q 49.75 162.22 49.66 161.88
  A 0.19 0.19 0.0 0 1 49.98 161.69
  Z"
/>
<path fill="#e2ded0" d="
  M 74.70 162.24
  L 73.25 163.72
  A 0.69 0.69 0.0 0 0 73.78 164.90
  Q 90.00 164.02 106.54 164.62
  L 100.71 164.78
  L 95.96 164.86
  L 72.75 165.47
  A 0.52 0.52 0.0 0 1 72.22 164.93
  Q 72.27 163.69 73.98 162.48
  Q 74.13 162.31 74.70 162.24
  Z"
/>
<path fill="#fdf7e6" d="
  M 51.25 165.82
  Q 51.83 165.45 52.43 165.16
  Q 52.48 165.13 52.44 165.16
  Q 51.86 165.51 51.25 165.82
  Z"
/>
<path fill="#e9b99a" d="
  M 56.03 167.17
  L 48.40 167.43
  A 0.74 0.74 0.0 0 0 47.90 168.70
  L 48.52 169.32
  A 0.27 0.26 -27.2 0 1 48.37 169.77
  Q 48.05 169.83 47.72 169.84
  Q 44.05 168.94 41.14 166.68
  A 0.19 0.19 0.0 0 1 41.26 166.34
  Q 47.58 166.39 56.98 166.70
  Q 57.26 166.71 57.47 166.44
  Q 57.61 166.25 57.65 165.89
  A 0.45 0.44 80.9 0 0 57.02 165.43
  Q 54.94 166.42 52.20 165.96
  L 54.94 165.90
  A 0.43 0.43 0.0 0 0 55.17 165.11
  Q 53.89 164.25 53.68 163.90
  A 0.25 0.24 -6.3 0 1 53.97 163.54
  Q 56.78 164.50 57.43 164.84
  A 1.32 1.26 33.9 0 1 57.86 166.81
  Q 57.43 167.30 56.03 167.17
  Z"
/>
<path fill="#e2ded0" d="
  M 60.70 173.22
  Q 102.52 173.86 144.27 172.06
  Q 149.89 171.82 154.74 170.65
  A 0.94 0.94 0.0 0 0 155.40 169.43
  Q 154.67 167.29 152.23 166.97
  Q 147.11 166.30 134.50 165.44
  C 128.43 165.03 121.15 165.26 114.46 165.06
  C 121.91 164.75 129.34 164.29 136.64 165.13
  Q 144.41 166.03 152.96 165.84
  A 0.75 0.72 55.6 0 1 153.25 165.90
  L 163.12 169.78
  A 0.45 0.44 47.8 0 1 163.08 170.62
  Q 157.22 172.31 152.15 172.52
  Q 107.75 174.38 98.75 174.56
  Q 83.63 174.85 60.70 173.22
  Z"
/>
<path fill="#3e4d5d" fill-opacity="0.016" d="
  M 27.73 192.00
  L 0.00 192.00
  L 0.00 164.80
  Q 2.02 168.20 3.92 171.70
  Q 6.31 176.10 8.15 178.37
  Q 11.95 183.08 15.75 185.25
  Q 21.76 188.70 27.73 192.00
  Z"
/>
<path fill="#e4c4b2" d="
  M 47.72 169.84
  Q 48.09 170.26 48.44 170.33
  Q 43.07 169.82 38.25 166.28
  Q 36.70 166.80 35.09 168.23
  A 1.25 1.24 27.7 0 1 34.11 168.53
  Q 32.77 168.37 31.76 167.74
  A 0.97 0.97 0.0 0 1 32.17 165.95
  L 39.46 165.21
  L 51.25 165.82
  L 52.20 165.96
  Q 54.94 166.42 57.02 165.43
  A 0.45 0.44 80.9 0 1 57.65 165.89
  Q 57.61 166.25 57.47 166.44
  Q 57.26 166.71 56.98 166.70
  Q 47.58 166.39 41.26 166.34
  A 0.19 0.19 0.0 0 0 41.14 166.68
  Q 44.05 168.94 47.72 169.84
  Z"
/>
<path fill="#ebbdad" d="
  M 70.36 165.07
  Q 83.61 165.87 96.86 165.05
  A 0.04 0.03 46.2 0 0 96.86 164.98
  L 95.96 164.86
  L 100.71 164.78
  L 139.29 166.44
  Q 131.85 166.87 124.39 166.90
  L 124.39 166.91
  A 0.01 0.01 0.0 0 0 124.40 166.92
  Q 129.00 167.15 133.61 167.33
  L 133.61 167.34
  A 0.02 0.01 -6.3 0 1 133.59 167.35
  Q 122.52 167.62 111.47 166.34
  A 0.03 0.03 0.0 0 1 111.46 166.28
  Q 111.57 166.23 111.75 166.25
  Q 117.02 166.57 123.84 166.63
  A 0.11 0.11 0.0 0 0 123.80 166.43
  Q 108.69 165.89 94.00 165.68
  Q 88.04 165.59 76.21 166.48
  L 66.73 167.22
  L 70.36 165.07
  Z"
/>
<path fill="#e9cac1" d="
  M 106.54 164.62
  L 114.46 165.06
  C 121.15 165.26 128.43 165.03 134.50 165.44
  Q 147.11 166.30 152.23 166.97
  Q 154.67 167.29 155.40 169.43
  A 0.94 0.94 0.0 0 1 154.74 170.65
  Q 149.89 171.82 144.27 172.06
  Q 102.52 173.86 60.70 173.22
  L 46.19 172.48
  C 38.99 171.62 33.07 170.42 27.82 166.78
  A 0.37 0.37 0.0 0 1 28.00 166.10
  L 39.46 165.21
  L 32.17 165.95
  A 0.97 0.97 0.0 0 0 31.76 167.74
  Q 32.77 168.37 34.11 168.53
  A 1.25 1.24 27.7 0 0 35.09 168.23
  Q 36.70 166.80 38.25 166.28
  Q 37.97 170.45 46.63 171.02
  Q 60.30 171.91 74.00 171.95
  Q 108.11 172.07 142.20 171.02
  Q 145.62 170.92 149.40 170.47
  Q 150.26 170.66 151.12 170.32
  A 0.36 0.36 0.0 0 0 151.26 169.74
  C 148.69 166.91 143.55 166.63 139.29 166.44
  L 100.71 164.78
  L 106.54 164.62
  Z"
/>
<path fill="#3e4d5d" fill-opacity="0.016" d="
  M 192.00 164.88
  L 192.00 192.00
  L 163.29 192.00
  Q 163.74 191.64 164.45 191.50
  Q 164.81 191.40 165.04 191.16
  C 175.49 186.45 183.29 181.05 188.20 171.70
  Q 190.95 166.46 192.00 164.88
  Z"
/>
<path fill="#e9b99a" d="
  M 139.29 166.44
  C 143.55 166.63 148.69 166.91 151.26 169.74
  A 0.36 0.36 0.0 0 1 151.12 170.32
  Q 150.26 170.66 149.40 170.47
  C 145.41 166.14 138.18 167.59 131.23 167.84
  C 121.34 168.19 110.71 166.96 102.24 167.03
  Q 101.88 167.03 101.77 167.14
  A 0.59 0.59 0.0 0 0 101.97 168.12
  Q 107.95 170.41 114.52 170.33
  Q 125.71 170.19 136.17 169.66
  Q 142.21 170.52 147.61 170.63
  Q 138.48 170.75 131.71 170.59
  A 0.05 0.04 40.0 0 1 131.70 170.50
  L 132.28 170.41
  A 0.03 0.02 -31.7 0 0 132.29 170.39
  Q 132.28 170.38 132.28 170.36
  A 0.09 0.05 76.7 0 0 132.22 170.30
  Q 113.45 171.16 94.96 170.17
  Q 92.25 170.03 82.77 171.38
  Q 79.24 171.88 71.03 171.12
  Q 78.97 171.71 86.57 169.99
  Q 87.82 169.71 87.75 168.56
  A 0.47 0.47 0.0 0 0 87.34 168.12
  L 78.44 167.12
  L 76.21 166.48
  Q 88.04 165.59 94.00 165.68
  Q 108.69 165.89 123.80 166.43
  A 0.11 0.11 0.0 0 1 123.84 166.63
  Q 117.02 166.57 111.75 166.25
  Q 111.57 166.23 111.46 166.28
  A 0.03 0.03 0.0 0 0 111.47 166.34
  Q 122.52 167.62 133.59 167.35
  A 0.02 0.01 -6.3 0 0 133.61 167.34
  L 133.61 167.33
  Q 129.00 167.15 124.40 166.92
  A 0.01 0.01 0.0 0 1 124.39 166.91
  L 124.39 166.90
  Q 131.85 166.87 139.29 166.44
  Z"
/>
<path fill="#ebbdad" d="
  M 38.25 166.28
  Q 43.07 169.82 48.44 170.33
  L 71.03 171.12
  Q 79.24 171.88 82.77 171.38
  Q 92.25 170.03 94.96 170.17
  Q 113.45 171.16 132.22 170.30
  A 0.09 0.05 76.7 0 1 132.28 170.36
  Q 132.28 170.38 132.29 170.39
  A 0.03 0.02 -31.7 0 1 132.28 170.41
  L 131.70 170.50
  A 0.05 0.04 40.0 0 0 131.71 170.59
  Q 138.48 170.75 147.61 170.63
  Q 142.21 170.52 136.17 169.66
  Q 141.90 165.29 149.40 170.47
  Q 145.62 170.92 142.20 171.02
  Q 108.11 172.07 74.00 171.95
  Q 60.30 171.91 46.63 171.02
  Q 37.97 170.45 38.25 166.28
  Z"
/>
<path fill="#eca87e" d="
  M 76.21 166.48
  L 78.44 167.12
  L 84.56 168.44
  A 0.20 0.20 0.0 0 1 84.61 168.81
  C 78.67 171.84 70.18 170.50 63.21 169.74
  A 0.26 0.26 0.0 0 1 63.21 169.23
  L 75.78 167.64
  A 0.20 0.19 -7.7 0 0 75.95 167.43
  L 75.95 167.42
  A 0.20 0.19 -1.5 0 0 75.75 167.24
  C 70.36 167.45 65.11 168.21 59.54 167.46
  L 66.73 167.22
  L 76.21 166.48
  Z"
/>
<path fill="#eaa894" d="
  M 56.03 167.17
  L 59.54 167.46
  C 65.11 168.21 70.36 167.45 75.75 167.24
  A 0.20 0.19 -1.5 0 1 75.95 167.42
  L 75.95 167.43
  A 0.20 0.19 -7.7 0 1 75.78 167.64
  L 63.21 169.23
  A 0.26 0.26 0.0 0 0 63.21 169.74
  C 70.18 170.50 78.67 171.84 84.61 168.81
  A 0.20 0.20 0.0 0 0 84.56 168.44
  L 78.44 167.12
  L 87.34 168.12
  A 0.47 0.47 0.0 0 1 87.75 168.56
  Q 87.82 169.71 86.57 169.99
  Q 78.97 171.71 71.03 171.12
  L 48.44 170.33
  Q 48.09 170.26 47.72 169.84
  Q 48.05 169.83 48.37 169.77
  A 0.27 0.26 -27.2 0 0 48.52 169.32
  L 47.90 168.70
  A 0.74 0.74 0.0 0 1 48.40 167.43
  L 56.03 167.17
  Z"
/>
<path fill="#eaa894" d="
  M 149.40 170.47
  Q 141.90 165.29 136.17 169.66
  Q 125.71 170.19 114.52 170.33
  Q 107.95 170.41 101.97 168.12
  A 0.59 0.59 0.0 0 1 101.77 167.14
  Q 101.88 167.03 102.24 167.03
  C 110.71 166.96 121.34 168.19 131.23 167.84
  C 138.18 167.59 145.41 166.14 149.40 170.47
  Z"
/>
<path fill="#a5898d" d="
  M 165.04 191.16
  Q 164.81 191.40 164.45 191.50
  Q 164.59 190.85 165.04 191.16
  Z"
/>
</svg>
