<?xml version="1.0" encoding="UTF-8" standalone="no"?>
<!DOCTYPE svg PUBLIC "-//W3C//DTD SVG 1.1//EN" "http://www.w3.org/Graphics/SVG/1.1/DTD/svg11.dtd">
<svg xmlns="http://www.w3.org/2000/svg" version="1.1" viewBox="0.00 0.00 48.00 48.00">
<path stroke="#82827c" stroke-width="2.00" fill="none" stroke-linecap="butt" vector-effect="non-scaling-stroke" d="
  M 5.87 13.84
  L 5.87 20.20
  A 1.84 1.81 -62.9 0 0 6.20 21.25
  Q 12.20 29.75 14.25 32.74
  Q 15.79 35.00 18.21 34.29
  Q 20.56 33.61 20.58 31.48
  Q 20.64 23.83 20.65 23.47
  A 1.77 1.73 63.8 0 1 20.99 22.43
  C 22.77 20.00 24.77 21.28 26.29 23.44
  Q 30.23 29.04 32.65 32.59
  Q 34.87 35.84 37.94 33.68
  A 2.69 2.67 72.9 0 0 39.08 31.50
  L 39.18 23.21
  A 1.30 1.22 61.5 0 1 39.32 22.67
  Q 40.07 21.19 41.88 21.17
  A 0.52 0.51 89.4 0 0 42.38 20.65
  L 42.38 14.41
  A 1.07 1.07 0.0 0 0 40.70 13.54
  L 39.83 14.15
  A 3.41 3.40 72.2 0 0 38.38 16.98
  Q 38.42 20.83 38.33 24.52
  A 2.48 2.27 -8.5 0 1 36.57 26.69
  Q 34.75 27.23 33.65 25.85
  Q 32.68 24.65 27.21 16.68
  C 25.42 14.08 23.45 12.00 20.69 14.66
  A 2.68 2.66 -21.9 0 0 19.86 16.59
  L 19.86 24.43
  A 1.26 1.22 -36.1 0 1 19.79 24.84
  Q 18.66 27.73 15.91 26.53
  A 2.12 2.10 -5.3 0 1 15.02 25.80
  L 6.51 13.64
  A 0.35 0.35 0.0 0 0 5.87 13.84"
/>
<path fill="#f9f3e9" d="
  M 44.23 0.00
  Q 46.78 0.78 48.00 3.52
  L 48.00 44.17
  Q 47.25 46.75 44.49 48.00
  L 3.79 48.00
  Q 1.20 47.22 0.00 44.50
  L 0.00 3.83
  Q 0.73 1.15 3.59 0.00
  L 44.23 0.00
  Z
  M 5.87 13.84
  L 5.87 20.20
  A 1.84 1.81 -62.9 0 0 6.20 21.25
  Q 12.20 29.75 14.25 32.74
  Q 15.79 35.00 18.21 34.29
  Q 20.56 33.61 20.58 31.48
  Q 20.64 23.83 20.65 23.47
  A 1.77 1.73 63.8 0 1 20.99 22.43
  C 22.77 20.00 24.77 21.28 26.29 23.44
  Q 30.23 29.04 32.65 32.59
  Q 34.87 35.84 37.94 33.68
  A 2.69 2.67 72.9 0 0 39.08 31.50
  L 39.18 23.21
  A 1.30 1.22 61.5 0 1 39.32 22.67
  Q 40.07 21.19 41.88 21.17
  A 0.52 0.51 89.4 0 0 42.38 20.65
  L 42.38 14.41
  A 1.07 1.07 0.0 0 0 40.70 13.54
  L 39.83 14.15
  A 3.41 3.40 72.2 0 0 38.38 16.98
  Q 38.42 20.83 38.33 24.52
  A 2.48 2.27 -8.5 0 1 36.57 26.69
  Q 34.75 27.23 33.65 25.85
  Q 32.68 24.65 27.21 16.68
  C 25.42 14.08 23.45 12.00 20.69 14.66
  A 2.68 2.66 -21.9 0 0 19.86 16.59
  L 19.86 24.43
  A 1.26 1.22 -36.1 0 1 19.79 24.84
  Q 18.66 27.73 15.91 26.53
  A 2.12 2.10 -5.3 0 1 15.02 25.80
  L 6.51 13.64
  A 0.35 0.35 0.0 0 0 5.87 13.84
  Z"
/>
<path fill="#0b100f" d="
  M 5.87 13.84
  A 0.35 0.35 0.0 0 1 6.51 13.64
  L 15.02 25.80
  A 2.12 2.10 -5.3 0 0 15.91 26.53
  Q 18.66 27.73 19.79 24.84
  A 1.26 1.22 -36.1 0 0 19.86 24.43
  L 19.86 16.59
  A 2.68 2.66 -21.9 0 1 20.69 14.66
  C 23.45 12.00 25.42 14.08 27.21 16.68
  Q 32.68 24.65 33.65 25.85
  Q 34.75 27.23 36.57 26.69
  A 2.48 2.27 -8.5 0 0 38.33 24.52
  Q 38.42 20.83 38.38 16.98
  A 3.41 3.40 72.2 0 1 39.83 14.15
  L 40.70 13.54
  A 1.07 1.07 0.0 0 1 42.38 14.41
  L 42.38 20.65
  A 0.52 0.51 89.4 0 1 41.88 21.17
  Q 40.07 21.19 39.32 22.67
  A 1.30 1.22 61.5 0 0 39.18 23.21
  L 39.08 31.50
  A 2.69 2.67 72.9 0 1 37.94 33.68
  Q 34.87 35.84 32.65 32.59
  Q 30.23 29.04 26.29 23.44
  C 24.77 21.28 22.77 20.00 20.99 22.43
  A 1.77 1.73 63.8 0 0 20.65 23.47
  Q 20.64 23.83 20.58 31.48
  Q 20.56 33.61 18.21 34.29
  Q 15.79 35.00 14.25 32.74
  Q 12.20 29.75 6.20 21.25
  A 1.84 1.81 -62.9 0 1 5.87 20.20
  L 5.87 13.84
  Z"
/>
</svg>
