<?xml version="1.0" encoding="UTF-8" standalone="no"?>
<!DOCTYPE svg PUBLIC "-//W3C//DTD SVG 1.1//EN" "http://www.w3.org/Graphics/SVG/1.1/DTD/svg11.dtd">
<svg xmlns="http://www.w3.org/2000/svg" version="1.1" viewBox="0.00 0.00 128.00 128.00">
<path stroke="#9899f6" stroke-width="2.00" fill="none" stroke-linecap="butt" vector-effect="non-scaling-stroke" d="
  M 64.10 63.83
  Q 64.71 63.83 65.18 64.06
  Q 65.77 64.37 65.90 64.91
  Q 69.20 78.71 71.37 86.61
  Q 72.64 91.25 77.26 91.16
  Q 81.82 91.07 83.06 86.01
  Q 87.71 67.05 88.33 64.33
  A 0.79 0.79 0.0 0 1 89.10 63.72
  L 100.84 63.72
  A 0.42 0.41 -6.5 0 0 101.25 63.21
  Q 99.30 55.01 95.72 41.11
  Q 94.47 36.23 89.44 36.33
  C 86.27 36.39 84.56 39.01 83.81 42.11
  Q 83.46 43.53 78.79 62.81
  A 1.27 1.26 83.8 0 1 78.13 63.64
  Q 77.18 64.13 75.94 63.70
  A 0.93 0.91 -87.8 0 1 75.34 63.04
  Q 71.88 49.20 70.53 43.53
  C 69.65 39.83 68.24 36.26 64.03 36.27
  C 59.82 36.28 58.43 39.86 57.57 43.57
  Q 56.25 49.24 52.86 63.10
  A 0.93 0.91 87.5 0 1 52.26 63.76
  Q 51.03 64.20 50.07 63.71
  A 1.27 1.26 -84.1 0 1 49.41 62.89
  Q 44.64 43.63 44.28 42.21
  C 43.51 39.12 41.79 36.51 38.62 36.46
  Q 33.59 36.39 32.37 41.28
  Q 28.86 55.19 26.95 63.40
  A 0.42 0.41 6.2 0 0 27.36 63.91
  L 39.10 63.85
  A 0.79 0.79 0.0 0 1 39.88 64.46
  Q 40.51 67.17 45.26 86.11
  Q 46.53 91.16 51.09 91.23
  Q 55.71 91.29 56.95 86.65
  Q 59.08 78.74 62.31 64.92
  Q 62.44 64.38 63.03 64.07
  Q 63.49 63.83 64.10 63.83"
/>
<path fill="#3032ec" d="
  M 67.78 0.00
  C 100.63 2.71 125.56 27.23 128.00 60.17
  L 128.00 67.73
  Q 125.18 100.22 98.96 117.69
  Q 85.49 126.67 67.81 128.00
  L 60.31 128.00
  Q 29.78 125.47 12.17 101.58
  Q 1.41 86.99 0.00 67.79
  L 0.00 60.30
  C 2.42 27.34 27.30 2.67 60.20 0.00
  L 67.78 0.00
  Z
  M 64.10 63.83
  Q 64.71 63.83 65.18 64.06
  Q 65.77 64.37 65.90 64.91
  Q 69.20 78.71 71.37 86.61
  Q 72.64 91.25 77.26 91.16
  Q 81.82 91.07 83.06 86.01
  Q 87.71 67.05 88.33 64.33
  A 0.79 0.79 0.0 0 1 89.10 63.72
  L 100.84 63.72
  A 0.42 0.41 -6.5 0 0 101.25 63.21
  Q 99.30 55.01 95.72 41.11
  Q 94.47 36.23 89.44 36.33
  C 86.27 36.39 84.56 39.01 83.81 42.11
  Q 83.46 43.53 78.79 62.81
  A 1.27 1.26 83.8 0 1 78.13 63.64
  Q 77.18 64.13 75.94 63.70
  A 0.93 0.91 -87.8 0 1 75.34 63.04
  Q 71.88 49.20 70.53 43.53
  C 69.65 39.83 68.24 36.26 64.03 36.27
  C 59.82 36.28 58.43 39.86 57.57 43.57
  Q 56.25 49.24 52.86 63.10
  A 0.93 0.91 87.5 0 1 52.26 63.76
  Q 51.03 64.20 50.07 63.71
  A 1.27 1.26 -84.1 0 1 49.41 62.89
  Q 44.64 43.63 44.28 42.21
  C 43.51 39.12 41.79 36.51 38.62 36.46
  Q 33.59 36.39 32.37 41.28
  Q 28.86 55.19 26.95 63.40
  A 0.42 0.41 6.2 0 0 27.36 63.91
  L 39.10 63.85
  A 0.79 0.79 0.0 0 1 39.88 64.46
  Q 40.51 67.17 45.26 86.11
  Q 46.53 91.16 51.09 91.23
  Q 55.71 91.29 56.95 86.65
  Q 59.08 78.74 62.31 64.92
  Q 62.44 64.38 63.03 64.07
  Q 63.49 63.83 64.10 63.83
  Z"
/>
<path fill="#ffffff" d="
  M 64.03 36.27
  C 68.24 36.26 69.65 39.83 70.53 43.53
  Q 71.88 49.20 75.34 63.04
  A 0.93 0.91 -87.8 0 0 75.94 63.70
  Q 77.18 64.13 78.13 63.64
  A 1.27 1.26 83.8 0 0 78.79 62.81
  Q 83.46 43.53 83.81 42.11
  C 84.56 39.01 86.27 36.39 89.44 36.33
  Q 94.47 36.23 95.72 41.11
  Q 99.30 55.01 101.25 63.21
  A 0.42 0.41 -6.5 0 1 100.84 63.72
  L 89.10 63.72
  A 0.79 0.79 0.0 0 0 88.33 64.33
  Q 87.71 67.05 83.06 86.01
  Q 81.82 91.07 77.26 91.16
  Q 72.64 91.25 71.37 86.61
  Q 69.20 78.71 65.90 64.91
  Q 65.77 64.37 65.18 64.06
  Q 64.71 63.83 64.10 63.83
  Q 63.49 63.83 63.03 64.07
  Q 62.44 64.38 62.31 64.92
  Q 59.08 78.74 56.95 86.65
  Q 55.71 91.29 51.09 91.23
  Q 46.53 91.16 45.26 86.11
  Q 40.51 67.17 39.88 64.46
  A 0.79 0.79 0.0 0 0 39.10 63.85
  L 27.36 63.91
  A 0.42 0.41 6.2 0 1 26.95 63.40
  Q 28.86 55.19 32.37 41.28
  Q 33.59 36.39 38.62 36.46
  C 41.79 36.51 43.51 39.12 44.28 42.21
  Q 44.64 43.63 49.41 62.89
  A 1.27 1.26 -84.1 0 0 50.07 63.71
  Q 51.03 64.20 52.26 63.76
  A 0.93 0.91 87.5 0 0 52.86 63.10
  Q 56.25 49.24 57.57 43.57
  C 58.43 39.86 59.82 36.28 64.03 36.27
  Z"
/>
</svg>
