<?xml version="1.0" encoding="UTF-8" standalone="no"?>
<!DOCTYPE svg PUBLIC "-//W3C//DTD SVG 1.1//EN" "http://www.w3.org/Graphics/SVG/1.1/DTD/svg11.dtd">
<svg xmlns="http://www.w3.org/2000/svg" version="1.1" viewBox="0.00 0.00 1448.00 1448.00">
<path stroke="#f59a8a" stroke-width="2.00" fill="none" stroke-linecap="butt" vector-effect="non-scaling-stroke" d="
  M 367.85 692.96
  Q 560.28 642.47 775.21 586.00
  Q 790.51 581.98 797.79 581.63
  C 828.62 580.15 856.89 599.83 866.56 628.48
  Q 873.48 648.96 868.09 668.34
  Q 818.78 845.49 751.94 1085.37
  A 0.39 0.39 0.0 0 0 752.32 1085.86
  L 1016.43 1085.86
  A 0.62 0.61 -84.2 0 0 1017.03 1085.36
  Q 1058.07 883.59 1069.14 829.81
  Q 1073.42 808.97 1073.33 802.26
  Q 1073.04 782.04 1062.36 764.93
  Q 1058.78 759.20 1047.92 748.10
  Q 1024.96 724.65 706.19 397.40
  Q 694.31 385.21 688.72 381.50
  Q 671.13 369.84 649.76 369.60
  Q 643.18 369.52 626.73 372.89
  Q 544.86 389.63 367.84 425.66
  A 0.40 0.40 0.0 0 0 367.53 426.05
  L 367.53 692.71
  A 0.26 0.26 0.0 0 0 367.85 692.96"
/>
<path fill="#eb3514" d="
  M 1221.99 0.00
  Q 1227.24 0.39 1232.49 0.79
  C 1346.57 9.48 1437.39 99.90 1447.05 213.51
  Q 1447.57 219.71 1448.00 225.91
  L 1448.00 1222.09
  Q 1447.57 1228.30 1447.05 1234.49
  C 1437.39 1347.71 1347.51 1437.39 1234.49 1447.04
  Q 1228.29 1447.57 1222.08 1448.00
  L 225.98 1448.00
  Q 220.74 1447.61 215.51 1447.21
  C 140.51 1441.52 72.67 1399.72 33.80 1335.48
  Q 5.81 1289.22 1.00 1234.73
  Q 0.45 1228.52 0.00 1222.30
  L 0.00 225.86
  C 4.97 102.63 101.84 4.96 225.95 0.00
  L 1221.99 0.00
  Z
  M 367.85 692.96
  Q 560.28 642.47 775.21 586.00
  Q 790.51 581.98 797.79 581.63
  C 828.62 580.15 856.89 599.83 866.56 628.48
  Q 873.48 648.96 868.09 668.34
  Q 818.78 845.49 751.94 1085.37
  A 0.39 0.39 0.0 0 0 752.32 1085.86
  L 1016.43 1085.86
  A 0.62 0.61 -84.2 0 0 1017.03 1085.36
  Q 1058.07 883.59 1069.14 829.81
  Q 1073.42 808.97 1073.33 802.26
  Q 1073.04 782.04 1062.36 764.93
  Q 1058.78 759.20 1047.92 748.10
  Q 1024.96 724.65 706.19 397.40
  Q 694.31 385.21 688.72 381.50
  Q 671.13 369.84 649.76 369.60
  Q 643.18 369.52 626.73 372.89
  Q 544.86 389.63 367.84 425.66
  A 0.40 0.40 0.0 0 0 367.53 426.05
  L 367.53 692.71
  A 0.26 0.26 0.0 0 0 367.85 692.96
  Z"
/>
<path fill="#ffffff" d="
  M 367.85 692.96
  A 0.26 0.26 0.0 0 1 367.53 692.71
  L 367.53 426.05
  A 0.40 0.40 0.0 0 1 367.84 425.66
  Q 544.86 389.63 626.73 372.89
  Q 643.18 369.52 649.76 369.60
  Q 671.13 369.84 688.72 381.50
  Q 694.31 385.21 706.19 397.40
  Q 1024.96 724.65 1047.92 748.10
  Q 1058.78 759.20 1062.36 764.93
  Q 1073.04 782.04 1073.33 802.26
  Q 1073.42 808.97 1069.14 829.81
  Q 1058.07 883.59 1017.03 1085.36
  A 0.62 0.61 -84.2 0 1 1016.43 1085.86
  L 752.32 1085.86
  A 0.39 0.39 0.0 0 1 751.94 1085.37
  Q 818.78 845.49 868.09 668.34
  Q 873.48 648.96 866.56 628.48
  C 856.89 599.83 828.62 580.15 797.79 581.63
  Q 790.51 581.98 775.21 586.00
  Q 560.28 642.47 367.85 692.96
  Z"
/>
</svg>
